<?xml version="1.0" encoding="utf-8"?>
<svg xmlns="http://www.w3.org/2000/svg" xmlns:xlink="http://www.w3.org/1999/xlink" width="600" height="400" viewBox="0 0 2400 1600">
<defs>
  <clipPath id="clip800">
    <rect x="0" y="0" width="2400" height="1600"/>
  </clipPath>
</defs>
<path clip-path="url(#clip800)" d="
M0 1600 L2400 1600 L2400 0 L0 0  Z
  " fill="#ffffff" fill-rule="evenodd" fill-opacity="1"/>
<defs>
  <clipPath id="clip801">
    <rect x="480" y="0" width="1681" height="1600"/>
  </clipPath>
</defs>
<path clip-path="url(#clip800)" d="
M247.084 1486.45 L2352.76 1486.45 L2352.76 123.472 L247.084 123.472  Z
  " fill="#ffffff" fill-rule="evenodd" fill-opacity="1"/>
<defs>
  <clipPath id="clip802">
    <rect x="247" y="123" width="2107" height="1364"/>
  </clipPath>
</defs>
<polyline clip-path="url(#clip802)" style="stroke:#000000; stroke-linecap:butt; stroke-linejoin:round; stroke-width:2; stroke-opacity:0.1; fill:none" points="
  301.712,1486.45 301.712,123.472 
  "/>
<polyline clip-path="url(#clip802)" style="stroke:#000000; stroke-linecap:butt; stroke-linejoin:round; stroke-width:2; stroke-opacity:0.1; fill:none" points="
  798.333,1486.45 798.333,123.472 
  "/>
<polyline clip-path="url(#clip802)" style="stroke:#000000; stroke-linecap:butt; stroke-linejoin:round; stroke-width:2; stroke-opacity:0.1; fill:none" points="
  1294.95,1486.45 1294.95,123.472 
  "/>
<polyline clip-path="url(#clip802)" style="stroke:#000000; stroke-linecap:butt; stroke-linejoin:round; stroke-width:2; stroke-opacity:0.1; fill:none" points="
  1791.57,1486.45 1791.57,123.472 
  "/>
<polyline clip-path="url(#clip802)" style="stroke:#000000; stroke-linecap:butt; stroke-linejoin:round; stroke-width:2; stroke-opacity:0.1; fill:none" points="
  2288.2,1486.45 2288.2,123.472 
  "/>
<polyline clip-path="url(#clip800)" style="stroke:#000000; stroke-linecap:butt; stroke-linejoin:round; stroke-width:4; stroke-opacity:1; fill:none" points="
  247.084,1486.45 2352.76,1486.45 
  "/>
<polyline clip-path="url(#clip800)" style="stroke:#000000; stroke-linecap:butt; stroke-linejoin:round; stroke-width:4; stroke-opacity:1; fill:none" points="
  301.712,1486.45 301.712,1467.55 
  "/>
<polyline clip-path="url(#clip800)" style="stroke:#000000; stroke-linecap:butt; stroke-linejoin:round; stroke-width:4; stroke-opacity:1; fill:none" points="
  798.333,1486.45 798.333,1467.55 
  "/>
<polyline clip-path="url(#clip800)" style="stroke:#000000; stroke-linecap:butt; stroke-linejoin:round; stroke-width:4; stroke-opacity:1; fill:none" points="
  1294.95,1486.45 1294.95,1467.55 
  "/>
<polyline clip-path="url(#clip800)" style="stroke:#000000; stroke-linecap:butt; stroke-linejoin:round; stroke-width:4; stroke-opacity:1; fill:none" points="
  1791.57,1486.45 1791.57,1467.55 
  "/>
<polyline clip-path="url(#clip800)" style="stroke:#000000; stroke-linecap:butt; stroke-linejoin:round; stroke-width:4; stroke-opacity:1; fill:none" points="
  2288.2,1486.45 2288.2,1467.55 
  "/>
<path clip-path="url(#clip800)" d="M301.712 1515.64 Q298.101 1515.64 296.272 1519.2 Q294.467 1522.75 294.467 1529.87 Q294.467 1536.98 296.272 1540.55 Q298.101 1544.09 301.712 1544.09 Q305.346 1544.09 307.152 1540.55 Q308.981 1536.98 308.981 1529.87 Q308.981 1522.75 307.152 1519.2 Q305.346 1515.64 301.712 1515.64 M301.712 1511.93 Q307.522 1511.93 310.578 1516.54 Q313.657 1521.12 313.657 1529.87 Q313.657 1538.6 310.578 1543.21 Q307.522 1547.79 301.712 1547.79 Q295.902 1547.79 292.823 1543.21 Q289.768 1538.6 289.768 1529.87 Q289.768 1521.12 292.823 1516.54 Q295.902 1511.93 301.712 1511.93 Z" fill="#000000" fill-rule="evenodd" fill-opacity="1" /><path clip-path="url(#clip800)" d="M757.94 1543.18 L765.578 1543.18 L765.578 1516.82 L757.268 1518.49 L757.268 1514.23 L765.532 1512.56 L770.208 1512.56 L770.208 1543.18 L777.847 1543.18 L777.847 1547.12 L757.94 1547.12 L757.94 1543.18 Z" fill="#000000" fill-rule="evenodd" fill-opacity="1" /><path clip-path="url(#clip800)" d="M797.291 1515.64 Q793.68 1515.64 791.851 1519.2 Q790.046 1522.75 790.046 1529.87 Q790.046 1536.98 791.851 1540.55 Q793.68 1544.09 797.291 1544.09 Q800.925 1544.09 802.731 1540.55 Q804.56 1536.98 804.56 1529.87 Q804.56 1522.75 802.731 1519.2 Q800.925 1515.64 797.291 1515.64 M797.291 1511.93 Q803.101 1511.93 806.157 1516.54 Q809.236 1521.12 809.236 1529.87 Q809.236 1538.6 806.157 1543.21 Q803.101 1547.79 797.291 1547.79 Q791.481 1547.79 788.402 1543.21 Q785.347 1538.6 785.347 1529.87 Q785.347 1521.12 788.402 1516.54 Q791.481 1511.93 797.291 1511.93 Z" fill="#000000" fill-rule="evenodd" fill-opacity="1" /><path clip-path="url(#clip800)" d="M827.453 1515.64 Q823.842 1515.64 822.013 1519.2 Q820.208 1522.75 820.208 1529.87 Q820.208 1536.98 822.013 1540.55 Q823.842 1544.09 827.453 1544.09 Q831.087 1544.09 832.893 1540.55 Q834.722 1536.98 834.722 1529.87 Q834.722 1522.75 832.893 1519.2 Q831.087 1515.64 827.453 1515.64 M827.453 1511.93 Q833.263 1511.93 836.319 1516.54 Q839.398 1521.12 839.398 1529.87 Q839.398 1538.6 836.319 1543.21 Q833.263 1547.79 827.453 1547.79 Q821.643 1547.79 818.564 1543.21 Q815.509 1538.6 815.509 1529.87 Q815.509 1521.12 818.564 1516.54 Q821.643 1511.93 827.453 1511.93 Z" fill="#000000" fill-rule="evenodd" fill-opacity="1" /><path clip-path="url(#clip800)" d="M1258.65 1543.18 L1274.97 1543.18 L1274.97 1547.12 L1253.02 1547.12 L1253.02 1543.18 Q1255.68 1540.43 1260.27 1535.8 Q1264.87 1531.15 1266.05 1529.81 Q1268.3 1527.28 1269.18 1525.55 Q1270.08 1523.79 1270.08 1522.1 Q1270.08 1519.34 1268.14 1517.61 Q1266.22 1515.87 1263.11 1515.87 Q1260.91 1515.87 1258.46 1516.63 Q1256.03 1517.4 1253.25 1518.95 L1253.25 1514.23 Q1256.08 1513.09 1258.53 1512.51 Q1260.98 1511.93 1263.02 1511.93 Q1268.39 1511.93 1271.59 1514.62 Q1274.78 1517.31 1274.78 1521.8 Q1274.78 1523.93 1273.97 1525.85 Q1273.18 1527.74 1271.08 1530.34 Q1270.5 1531.01 1267.4 1534.23 Q1264.29 1537.42 1258.65 1543.18 Z" fill="#000000" fill-rule="evenodd" fill-opacity="1" /><path clip-path="url(#clip800)" d="M1294.78 1515.64 Q1291.17 1515.64 1289.34 1519.2 Q1287.53 1522.75 1287.53 1529.87 Q1287.53 1536.98 1289.34 1540.55 Q1291.17 1544.09 1294.78 1544.09 Q1298.41 1544.09 1300.22 1540.55 Q1302.05 1536.98 1302.05 1529.87 Q1302.05 1522.75 1300.22 1519.2 Q1298.41 1515.64 1294.78 1515.64 M1294.78 1511.93 Q1300.59 1511.93 1303.65 1516.54 Q1306.72 1521.12 1306.72 1529.87 Q1306.72 1538.6 1303.65 1543.21 Q1300.59 1547.79 1294.78 1547.79 Q1288.97 1547.79 1285.89 1543.21 Q1282.84 1538.6 1282.84 1529.87 Q1282.84 1521.12 1285.89 1516.54 Q1288.97 1511.93 1294.78 1511.93 Z" fill="#000000" fill-rule="evenodd" fill-opacity="1" /><path clip-path="url(#clip800)" d="M1324.94 1515.64 Q1321.33 1515.64 1319.5 1519.2 Q1317.7 1522.75 1317.7 1529.87 Q1317.7 1536.98 1319.5 1540.55 Q1321.33 1544.09 1324.94 1544.09 Q1328.58 1544.09 1330.38 1540.55 Q1332.21 1536.98 1332.21 1529.87 Q1332.21 1522.75 1330.38 1519.2 Q1328.58 1515.64 1324.94 1515.64 M1324.94 1511.93 Q1330.75 1511.93 1333.81 1516.54 Q1336.89 1521.12 1336.89 1529.87 Q1336.89 1538.6 1333.81 1543.21 Q1330.75 1547.79 1324.94 1547.79 Q1319.13 1547.79 1316.05 1543.21 Q1313 1538.6 1313 1529.87 Q1313 1521.12 1316.05 1516.54 Q1319.13 1511.93 1324.94 1511.93 Z" fill="#000000" fill-rule="evenodd" fill-opacity="1" /><path clip-path="url(#clip800)" d="M1765.34 1528.49 Q1768.69 1529.2 1770.57 1531.47 Q1772.47 1533.74 1772.47 1537.07 Q1772.47 1542.19 1768.95 1544.99 Q1765.43 1547.79 1758.95 1547.79 Q1756.77 1547.79 1754.46 1547.35 Q1752.16 1546.93 1749.71 1546.08 L1749.71 1541.56 Q1751.66 1542.7 1753.97 1543.28 Q1756.29 1543.86 1758.81 1543.86 Q1763.21 1543.86 1765.5 1542.12 Q1767.81 1540.38 1767.81 1537.07 Q1767.81 1534.02 1765.66 1532.31 Q1763.53 1530.57 1759.71 1530.57 L1755.68 1530.57 L1755.68 1526.73 L1759.9 1526.73 Q1763.35 1526.73 1765.17 1525.36 Q1767 1523.97 1767 1521.38 Q1767 1518.72 1765.1 1517.31 Q1763.23 1515.87 1759.71 1515.87 Q1757.79 1515.87 1755.59 1516.29 Q1753.39 1516.7 1750.75 1517.58 L1750.75 1513.42 Q1753.41 1512.68 1755.73 1512.31 Q1758.07 1511.93 1760.13 1511.93 Q1765.45 1511.93 1768.55 1514.37 Q1771.66 1516.77 1771.66 1520.89 Q1771.66 1523.76 1770.01 1525.75 Q1768.37 1527.72 1765.34 1528.49 Z" fill="#000000" fill-rule="evenodd" fill-opacity="1" /><path clip-path="url(#clip800)" d="M1791.33 1515.64 Q1787.72 1515.64 1785.89 1519.2 Q1784.09 1522.75 1784.09 1529.87 Q1784.09 1536.98 1785.89 1540.55 Q1787.72 1544.09 1791.33 1544.09 Q1794.97 1544.09 1796.77 1540.55 Q1798.6 1536.98 1798.6 1529.87 Q1798.6 1522.75 1796.77 1519.2 Q1794.97 1515.64 1791.33 1515.64 M1791.33 1511.93 Q1797.14 1511.93 1800.2 1516.54 Q1803.28 1521.12 1803.28 1529.87 Q1803.28 1538.6 1800.2 1543.21 Q1797.14 1547.79 1791.33 1547.79 Q1785.52 1547.79 1782.44 1543.21 Q1779.39 1538.6 1779.39 1529.87 Q1779.39 1521.12 1782.44 1516.54 Q1785.52 1511.93 1791.33 1511.93 Z" fill="#000000" fill-rule="evenodd" fill-opacity="1" /><path clip-path="url(#clip800)" d="M1821.49 1515.64 Q1817.88 1515.64 1816.05 1519.2 Q1814.25 1522.75 1814.25 1529.87 Q1814.25 1536.98 1816.05 1540.55 Q1817.88 1544.09 1821.49 1544.09 Q1825.13 1544.09 1826.93 1540.55 Q1828.76 1536.98 1828.76 1529.87 Q1828.76 1522.75 1826.93 1519.2 Q1825.13 1515.64 1821.49 1515.64 M1821.49 1511.93 Q1827.3 1511.93 1830.36 1516.54 Q1833.44 1521.12 1833.44 1529.87 Q1833.44 1538.6 1830.36 1543.21 Q1827.3 1547.79 1821.49 1547.79 Q1815.68 1547.79 1812.6 1543.21 Q1809.55 1538.6 1809.55 1529.87 Q1809.55 1521.12 1812.6 1516.54 Q1815.68 1511.93 1821.49 1511.93 Z" fill="#000000" fill-rule="evenodd" fill-opacity="1" /><path clip-path="url(#clip800)" d="M2261.29 1516.63 L2249.48 1535.08 L2261.29 1535.08 L2261.29 1516.63 M2260.06 1512.56 L2265.94 1512.56 L2265.94 1535.08 L2270.87 1535.08 L2270.87 1538.97 L2265.94 1538.97 L2265.94 1547.12 L2261.29 1547.12 L2261.29 1538.97 L2245.68 1538.97 L2245.68 1534.46 L2260.06 1512.56 Z" fill="#000000" fill-rule="evenodd" fill-opacity="1" /><path clip-path="url(#clip800)" d="M2288.6 1515.64 Q2284.99 1515.64 2283.16 1519.2 Q2281.35 1522.75 2281.35 1529.87 Q2281.35 1536.98 2283.16 1540.55 Q2284.99 1544.09 2288.6 1544.09 Q2292.23 1544.09 2294.04 1540.55 Q2295.87 1536.98 2295.87 1529.87 Q2295.87 1522.75 2294.04 1519.2 Q2292.23 1515.64 2288.6 1515.64 M2288.6 1511.93 Q2294.41 1511.93 2297.47 1516.54 Q2300.54 1521.12 2300.54 1529.87 Q2300.54 1538.6 2297.47 1543.21 Q2294.41 1547.79 2288.6 1547.79 Q2282.79 1547.79 2279.71 1543.21 Q2276.66 1538.6 2276.66 1529.87 Q2276.66 1521.12 2279.71 1516.54 Q2282.79 1511.93 2288.6 1511.93 Z" fill="#000000" fill-rule="evenodd" fill-opacity="1" /><path clip-path="url(#clip800)" d="M2318.76 1515.64 Q2315.15 1515.64 2313.32 1519.2 Q2311.52 1522.75 2311.52 1529.87 Q2311.52 1536.98 2313.32 1540.55 Q2315.15 1544.09 2318.76 1544.09 Q2322.4 1544.09 2324.2 1540.55 Q2326.03 1536.98 2326.03 1529.87 Q2326.03 1522.75 2324.2 1519.2 Q2322.4 1515.64 2318.76 1515.64 M2318.76 1511.93 Q2324.57 1511.93 2327.63 1516.54 Q2330.71 1521.12 2330.71 1529.87 Q2330.71 1538.6 2327.63 1543.21 Q2324.57 1547.79 2318.76 1547.79 Q2312.95 1547.79 2309.87 1543.21 Q2306.82 1538.6 2306.82 1529.87 Q2306.82 1521.12 2309.87 1516.54 Q2312.95 1511.93 2318.76 1511.93 Z" fill="#000000" fill-rule="evenodd" fill-opacity="1" /><polyline clip-path="url(#clip802)" style="stroke:#000000; stroke-linecap:butt; stroke-linejoin:round; stroke-width:2; stroke-opacity:0.1; fill:none" points="
  247.084,1269.13 2352.76,1269.13 
  "/>
<polyline clip-path="url(#clip802)" style="stroke:#000000; stroke-linecap:butt; stroke-linejoin:round; stroke-width:2; stroke-opacity:0.1; fill:none" points="
  247.084,1016.01 2352.76,1016.01 
  "/>
<polyline clip-path="url(#clip802)" style="stroke:#000000; stroke-linecap:butt; stroke-linejoin:round; stroke-width:2; stroke-opacity:0.1; fill:none" points="
  247.084,762.883 2352.76,762.883 
  "/>
<polyline clip-path="url(#clip802)" style="stroke:#000000; stroke-linecap:butt; stroke-linejoin:round; stroke-width:2; stroke-opacity:0.1; fill:none" points="
  247.084,509.76 2352.76,509.76 
  "/>
<polyline clip-path="url(#clip802)" style="stroke:#000000; stroke-linecap:butt; stroke-linejoin:round; stroke-width:2; stroke-opacity:0.1; fill:none" points="
  247.084,256.638 2352.76,256.638 
  "/>
<polyline clip-path="url(#clip800)" style="stroke:#000000; stroke-linecap:butt; stroke-linejoin:round; stroke-width:4; stroke-opacity:1; fill:none" points="
  247.084,1486.45 247.084,123.472 
  "/>
<polyline clip-path="url(#clip800)" style="stroke:#000000; stroke-linecap:butt; stroke-linejoin:round; stroke-width:4; stroke-opacity:1; fill:none" points="
  247.084,1269.13 265.981,1269.13 
  "/>
<polyline clip-path="url(#clip800)" style="stroke:#000000; stroke-linecap:butt; stroke-linejoin:round; stroke-width:4; stroke-opacity:1; fill:none" points="
  247.084,1016.01 265.981,1016.01 
  "/>
<polyline clip-path="url(#clip800)" style="stroke:#000000; stroke-linecap:butt; stroke-linejoin:round; stroke-width:4; stroke-opacity:1; fill:none" points="
  247.084,762.883 265.981,762.883 
  "/>
<polyline clip-path="url(#clip800)" style="stroke:#000000; stroke-linecap:butt; stroke-linejoin:round; stroke-width:4; stroke-opacity:1; fill:none" points="
  247.084,509.76 265.981,509.76 
  "/>
<polyline clip-path="url(#clip800)" style="stroke:#000000; stroke-linecap:butt; stroke-linejoin:round; stroke-width:4; stroke-opacity:1; fill:none" points="
  247.084,256.638 265.981,256.638 
  "/>
<path clip-path="url(#clip800)" d="M65.0198 1254.93 Q61.4087 1254.93 59.58 1258.49 Q57.7745 1262.03 57.7745 1269.16 Q57.7745 1276.27 59.58 1279.83 Q61.4087 1283.38 65.0198 1283.38 Q68.6541 1283.38 70.4596 1279.83 Q72.2883 1276.27 72.2883 1269.16 Q72.2883 1262.03 70.4596 1258.49 Q68.6541 1254.93 65.0198 1254.93 M65.0198 1251.22 Q70.83 1251.22 73.8855 1255.83 Q76.9642 1260.41 76.9642 1269.16 Q76.9642 1277.89 73.8855 1282.5 Q70.83 1287.08 65.0198 1287.08 Q59.2097 1287.08 56.131 1282.5 Q53.0754 1277.89 53.0754 1269.16 Q53.0754 1260.41 56.131 1255.83 Q59.2097 1251.22 65.0198 1251.22 Z" fill="#000000" fill-rule="evenodd" fill-opacity="1" /><path clip-path="url(#clip800)" d="M85.1818 1280.53 L90.066 1280.53 L90.066 1286.41 L85.1818 1286.41 L85.1818 1280.53 Z" fill="#000000" fill-rule="evenodd" fill-opacity="1" /><path clip-path="url(#clip800)" d="M110.251 1254.93 Q106.64 1254.93 104.811 1258.49 Q103.006 1262.03 103.006 1269.16 Q103.006 1276.27 104.811 1279.83 Q106.64 1283.38 110.251 1283.38 Q113.885 1283.38 115.691 1279.83 Q117.52 1276.27 117.52 1269.16 Q117.52 1262.03 115.691 1258.49 Q113.885 1254.93 110.251 1254.93 M110.251 1251.22 Q116.061 1251.22 119.117 1255.83 Q122.195 1260.41 122.195 1269.16 Q122.195 1277.89 119.117 1282.5 Q116.061 1287.08 110.251 1287.08 Q104.441 1287.08 101.362 1282.5 Q98.3067 1277.89 98.3067 1269.16 Q98.3067 1260.41 101.362 1255.83 Q104.441 1251.22 110.251 1251.22 Z" fill="#000000" fill-rule="evenodd" fill-opacity="1" /><path clip-path="url(#clip800)" d="M140.413 1254.93 Q136.802 1254.93 134.973 1258.49 Q133.168 1262.03 133.168 1269.16 Q133.168 1276.27 134.973 1279.83 Q136.802 1283.38 140.413 1283.38 Q144.047 1283.38 145.853 1279.83 Q147.681 1276.27 147.681 1269.16 Q147.681 1262.03 145.853 1258.49 Q144.047 1254.93 140.413 1254.93 M140.413 1251.22 Q146.223 1251.22 149.279 1255.83 Q152.357 1260.41 152.357 1269.16 Q152.357 1277.89 149.279 1282.5 Q146.223 1287.08 140.413 1287.08 Q134.603 1287.08 131.524 1282.5 Q128.469 1277.89 128.469 1269.16 Q128.469 1260.41 131.524 1255.83 Q134.603 1251.22 140.413 1251.22 Z" fill="#000000" fill-rule="evenodd" fill-opacity="1" /><path clip-path="url(#clip800)" d="M170.575 1254.93 Q166.964 1254.93 165.135 1258.49 Q163.329 1262.03 163.329 1269.16 Q163.329 1276.27 165.135 1279.83 Q166.964 1283.38 170.575 1283.38 Q174.209 1283.38 176.015 1279.83 Q177.843 1276.27 177.843 1269.16 Q177.843 1262.03 176.015 1258.49 Q174.209 1254.93 170.575 1254.93 M170.575 1251.22 Q176.385 1251.22 179.441 1255.83 Q182.519 1260.41 182.519 1269.16 Q182.519 1277.89 179.441 1282.5 Q176.385 1287.08 170.575 1287.08 Q164.765 1287.08 161.686 1282.5 Q158.63 1277.89 158.63 1269.16 Q158.63 1260.41 161.686 1255.83 Q164.765 1251.22 170.575 1251.22 Z" fill="#000000" fill-rule="evenodd" fill-opacity="1" /><path clip-path="url(#clip800)" d="M194.765 1282.47 L211.084 1282.47 L211.084 1286.41 L189.14 1286.41 L189.14 1282.47 Q191.802 1279.72 196.385 1275.09 Q200.991 1270.44 202.172 1269.09 Q204.417 1266.57 205.297 1264.83 Q206.2 1263.07 206.2 1261.38 Q206.2 1258.63 204.255 1256.89 Q202.334 1255.16 199.232 1255.16 Q197.033 1255.16 194.579 1255.92 Q192.149 1256.69 189.371 1258.24 L189.371 1253.51 Q192.195 1252.38 194.649 1251.8 Q197.102 1251.22 199.139 1251.22 Q204.51 1251.22 207.704 1253.91 Q210.899 1256.59 210.899 1261.08 Q210.899 1263.21 210.088 1265.13 Q209.301 1267.03 207.195 1269.63 Q206.616 1270.3 203.514 1273.51 Q200.413 1276.71 194.765 1282.47 Z" fill="#000000" fill-rule="evenodd" fill-opacity="1" /><path clip-path="url(#clip800)" d="M62.9365 1001.8 Q59.3254 1001.8 57.4967 1005.37 Q55.6912 1008.91 55.6912 1016.04 Q55.6912 1023.15 57.4967 1026.71 Q59.3254 1030.25 62.9365 1030.25 Q66.5707 1030.25 68.3763 1026.71 Q70.205 1023.15 70.205 1016.04 Q70.205 1008.91 68.3763 1005.37 Q66.5707 1001.8 62.9365 1001.8 M62.9365 998.1 Q68.7467 998.1 71.8022 1002.71 Q74.8809 1007.29 74.8809 1016.04 Q74.8809 1024.77 71.8022 1029.37 Q68.7467 1033.96 62.9365 1033.96 Q57.1264 1033.96 54.0477 1029.37 Q50.9921 1024.77 50.9921 1016.04 Q50.9921 1007.29 54.0477 1002.71 Q57.1264 998.1 62.9365 998.1 Z" fill="#000000" fill-rule="evenodd" fill-opacity="1" /><path clip-path="url(#clip800)" d="M83.0984 1027.41 L87.9827 1027.41 L87.9827 1033.29 L83.0984 1033.29 L83.0984 1027.41 Z" fill="#000000" fill-rule="evenodd" fill-opacity="1" /><path clip-path="url(#clip800)" d="M108.168 1001.8 Q104.557 1001.8 102.728 1005.37 Q100.922 1008.91 100.922 1016.04 Q100.922 1023.15 102.728 1026.71 Q104.557 1030.25 108.168 1030.25 Q111.802 1030.25 113.608 1026.71 Q115.436 1023.15 115.436 1016.04 Q115.436 1008.91 113.608 1005.37 Q111.802 1001.8 108.168 1001.8 M108.168 998.1 Q113.978 998.1 117.033 1002.71 Q120.112 1007.29 120.112 1016.04 Q120.112 1024.77 117.033 1029.37 Q113.978 1033.96 108.168 1033.96 Q102.358 1033.96 99.2789 1029.37 Q96.2234 1024.77 96.2234 1016.04 Q96.2234 1007.29 99.2789 1002.71 Q102.358 998.1 108.168 998.1 Z" fill="#000000" fill-rule="evenodd" fill-opacity="1" /><path clip-path="url(#clip800)" d="M138.33 1001.8 Q134.719 1001.8 132.89 1005.37 Q131.084 1008.91 131.084 1016.04 Q131.084 1023.15 132.89 1026.71 Q134.719 1030.25 138.33 1030.25 Q141.964 1030.25 143.769 1026.71 Q145.598 1023.15 145.598 1016.04 Q145.598 1008.91 143.769 1005.37 Q141.964 1001.8 138.33 1001.8 M138.33 998.1 Q144.14 998.1 147.195 1002.71 Q150.274 1007.29 150.274 1016.04 Q150.274 1024.77 147.195 1029.37 Q144.14 1033.96 138.33 1033.96 Q132.519 1033.96 129.441 1029.37 Q126.385 1024.77 126.385 1016.04 Q126.385 1007.29 129.441 1002.71 Q132.519 998.1 138.33 998.1 Z" fill="#000000" fill-rule="evenodd" fill-opacity="1" /><path clip-path="url(#clip800)" d="M168.491 1001.8 Q164.88 1001.8 163.052 1005.37 Q161.246 1008.91 161.246 1016.04 Q161.246 1023.15 163.052 1026.71 Q164.88 1030.25 168.491 1030.25 Q172.126 1030.25 173.931 1026.71 Q175.76 1023.15 175.76 1016.04 Q175.76 1008.91 173.931 1005.37 Q172.126 1001.8 168.491 1001.8 M168.491 998.1 Q174.302 998.1 177.357 1002.71 Q180.436 1007.29 180.436 1016.04 Q180.436 1024.77 177.357 1029.37 Q174.302 1033.96 168.491 1033.96 Q162.681 1033.96 159.603 1029.37 Q156.547 1024.77 156.547 1016.04 Q156.547 1007.29 159.603 1002.71 Q162.681 998.1 168.491 998.1 Z" fill="#000000" fill-rule="evenodd" fill-opacity="1" /><path clip-path="url(#clip800)" d="M201.501 1002.8 L189.695 1021.25 L201.501 1021.25 L201.501 1002.8 M200.274 998.725 L206.153 998.725 L206.153 1021.25 L211.084 1021.25 L211.084 1025.14 L206.153 1025.14 L206.153 1033.29 L201.501 1033.29 L201.501 1025.14 L185.899 1025.14 L185.899 1020.62 L200.274 998.725 Z" fill="#000000" fill-rule="evenodd" fill-opacity="1" /><path clip-path="url(#clip800)" d="M63.2606 748.681 Q59.6495 748.681 57.8208 752.246 Q56.0152 755.788 56.0152 762.918 Q56.0152 770.024 57.8208 773.589 Q59.6495 777.13 63.2606 777.13 Q66.8948 777.13 68.7004 773.589 Q70.5291 770.024 70.5291 762.918 Q70.5291 755.788 68.7004 752.246 Q66.8948 748.681 63.2606 748.681 M63.2606 744.978 Q69.0707 744.978 72.1263 749.584 Q75.205 754.168 75.205 762.918 Q75.205 771.644 72.1263 776.251 Q69.0707 780.834 63.2606 780.834 Q57.4504 780.834 54.3717 776.251 Q51.3162 771.644 51.3162 762.918 Q51.3162 754.168 54.3717 749.584 Q57.4504 744.978 63.2606 744.978 Z" fill="#000000" fill-rule="evenodd" fill-opacity="1" /><path clip-path="url(#clip800)" d="M83.4225 774.283 L88.3067 774.283 L88.3067 780.163 L83.4225 780.163 L83.4225 774.283 Z" fill="#000000" fill-rule="evenodd" fill-opacity="1" /><path clip-path="url(#clip800)" d="M108.492 748.681 Q104.881 748.681 103.052 752.246 Q101.246 755.788 101.246 762.918 Q101.246 770.024 103.052 773.589 Q104.881 777.13 108.492 777.13 Q112.126 777.13 113.932 773.589 Q115.76 770.024 115.76 762.918 Q115.76 755.788 113.932 752.246 Q112.126 748.681 108.492 748.681 M108.492 744.978 Q114.302 744.978 117.358 749.584 Q120.436 754.168 120.436 762.918 Q120.436 771.644 117.358 776.251 Q114.302 780.834 108.492 780.834 Q102.682 780.834 99.603 776.251 Q96.5474 771.644 96.5474 762.918 Q96.5474 754.168 99.603 749.584 Q102.682 744.978 108.492 744.978 Z" fill="#000000" fill-rule="evenodd" fill-opacity="1" /><path clip-path="url(#clip800)" d="M138.654 748.681 Q135.043 748.681 133.214 752.246 Q131.408 755.788 131.408 762.918 Q131.408 770.024 133.214 773.589 Q135.043 777.13 138.654 777.13 Q142.288 777.13 144.093 773.589 Q145.922 770.024 145.922 762.918 Q145.922 755.788 144.093 752.246 Q142.288 748.681 138.654 748.681 M138.654 744.978 Q144.464 744.978 147.519 749.584 Q150.598 754.168 150.598 762.918 Q150.598 771.644 147.519 776.251 Q144.464 780.834 138.654 780.834 Q132.844 780.834 129.765 776.251 Q126.709 771.644 126.709 762.918 Q126.709 754.168 129.765 749.584 Q132.844 744.978 138.654 744.978 Z" fill="#000000" fill-rule="evenodd" fill-opacity="1" /><path clip-path="url(#clip800)" d="M168.816 748.681 Q165.204 748.681 163.376 752.246 Q161.57 755.788 161.57 762.918 Q161.57 770.024 163.376 773.589 Q165.204 777.13 168.816 777.13 Q172.45 777.13 174.255 773.589 Q176.084 770.024 176.084 762.918 Q176.084 755.788 174.255 752.246 Q172.45 748.681 168.816 748.681 M168.816 744.978 Q174.626 744.978 177.681 749.584 Q180.76 754.168 180.76 762.918 Q180.76 771.644 177.681 776.251 Q174.626 780.834 168.816 780.834 Q163.005 780.834 159.927 776.251 Q156.871 771.644 156.871 762.918 Q156.871 754.168 159.927 749.584 Q163.005 744.978 168.816 744.978 Z" fill="#000000" fill-rule="evenodd" fill-opacity="1" /><path clip-path="url(#clip800)" d="M199.556 761.019 Q196.408 761.019 194.556 763.172 Q192.727 765.325 192.727 769.075 Q192.727 772.802 194.556 774.978 Q196.408 777.13 199.556 777.13 Q202.704 777.13 204.533 774.978 Q206.385 772.802 206.385 769.075 Q206.385 765.325 204.533 763.172 Q202.704 761.019 199.556 761.019 M208.839 746.367 L208.839 750.626 Q207.079 749.793 205.274 749.353 Q203.491 748.913 201.732 748.913 Q197.102 748.913 194.649 752.038 Q192.218 755.163 191.871 761.482 Q193.237 759.468 195.297 758.404 Q197.357 757.316 199.834 757.316 Q205.042 757.316 208.051 760.487 Q211.084 763.635 211.084 769.075 Q211.084 774.399 207.936 777.617 Q204.788 780.834 199.556 780.834 Q193.561 780.834 190.39 776.251 Q187.218 771.644 187.218 762.918 Q187.218 754.723 191.107 749.862 Q194.996 744.978 201.547 744.978 Q203.306 744.978 205.089 745.325 Q206.894 745.672 208.839 746.367 Z" fill="#000000" fill-rule="evenodd" fill-opacity="1" /><path clip-path="url(#clip800)" d="M63.5152 495.559 Q59.9041 495.559 58.0754 499.124 Q56.2699 502.666 56.2699 509.795 Q56.2699 516.902 58.0754 520.466 Q59.9041 524.008 63.5152 524.008 Q67.1494 524.008 68.955 520.466 Q70.7837 516.902 70.7837 509.795 Q70.7837 502.666 68.955 499.124 Q67.1494 495.559 63.5152 495.559 M63.5152 491.855 Q69.3254 491.855 72.3809 496.462 Q75.4596 501.045 75.4596 509.795 Q75.4596 518.522 72.3809 523.128 Q69.3254 527.712 63.5152 527.712 Q57.7051 527.712 54.6264 523.128 Q51.5708 518.522 51.5708 509.795 Q51.5708 501.045 54.6264 496.462 Q57.7051 491.855 63.5152 491.855 Z" fill="#000000" fill-rule="evenodd" fill-opacity="1" /><path clip-path="url(#clip800)" d="M83.6771 521.161 L88.5614 521.161 L88.5614 527.04 L83.6771 527.04 L83.6771 521.161 Z" fill="#000000" fill-rule="evenodd" fill-opacity="1" /><path clip-path="url(#clip800)" d="M108.746 495.559 Q105.135 495.559 103.307 499.124 Q101.501 502.666 101.501 509.795 Q101.501 516.902 103.307 520.466 Q105.135 524.008 108.746 524.008 Q112.381 524.008 114.186 520.466 Q116.015 516.902 116.015 509.795 Q116.015 502.666 114.186 499.124 Q112.381 495.559 108.746 495.559 M108.746 491.855 Q114.557 491.855 117.612 496.462 Q120.691 501.045 120.691 509.795 Q120.691 518.522 117.612 523.128 Q114.557 527.712 108.746 527.712 Q102.936 527.712 99.8576 523.128 Q96.8021 518.522 96.8021 509.795 Q96.8021 501.045 99.8576 496.462 Q102.936 491.855 108.746 491.855 Z" fill="#000000" fill-rule="evenodd" fill-opacity="1" /><path clip-path="url(#clip800)" d="M138.908 495.559 Q135.297 495.559 133.469 499.124 Q131.663 502.666 131.663 509.795 Q131.663 516.902 133.469 520.466 Q135.297 524.008 138.908 524.008 Q142.543 524.008 144.348 520.466 Q146.177 516.902 146.177 509.795 Q146.177 502.666 144.348 499.124 Q142.543 495.559 138.908 495.559 M138.908 491.855 Q144.718 491.855 147.774 496.462 Q150.853 501.045 150.853 509.795 Q150.853 518.522 147.774 523.128 Q144.718 527.712 138.908 527.712 Q133.098 527.712 130.019 523.128 Q126.964 518.522 126.964 509.795 Q126.964 501.045 130.019 496.462 Q133.098 491.855 138.908 491.855 Z" fill="#000000" fill-rule="evenodd" fill-opacity="1" /><path clip-path="url(#clip800)" d="M169.07 495.559 Q165.459 495.559 163.63 499.124 Q161.825 502.666 161.825 509.795 Q161.825 516.902 163.63 520.466 Q165.459 524.008 169.07 524.008 Q172.704 524.008 174.51 520.466 Q176.339 516.902 176.339 509.795 Q176.339 502.666 174.51 499.124 Q172.704 495.559 169.07 495.559 M169.07 491.855 Q174.88 491.855 177.936 496.462 Q181.015 501.045 181.015 509.795 Q181.015 518.522 177.936 523.128 Q174.88 527.712 169.07 527.712 Q163.26 527.712 160.181 523.128 Q157.126 518.522 157.126 509.795 Q157.126 501.045 160.181 496.462 Q163.26 491.855 169.07 491.855 Z" fill="#000000" fill-rule="evenodd" fill-opacity="1" /><path clip-path="url(#clip800)" d="M199.232 510.628 Q195.899 510.628 193.977 512.411 Q192.079 514.193 192.079 517.318 Q192.079 520.443 193.977 522.226 Q195.899 524.008 199.232 524.008 Q202.565 524.008 204.487 522.226 Q206.408 520.42 206.408 517.318 Q206.408 514.193 204.487 512.411 Q202.589 510.628 199.232 510.628 M194.556 508.638 Q191.547 507.897 189.857 505.837 Q188.19 503.777 188.19 500.814 Q188.19 496.67 191.13 494.263 Q194.093 491.855 199.232 491.855 Q204.394 491.855 207.334 494.263 Q210.274 496.67 210.274 500.814 Q210.274 503.777 208.584 505.837 Q206.917 507.897 203.931 508.638 Q207.311 509.425 209.186 511.716 Q211.084 514.008 211.084 517.318 Q211.084 522.341 208.005 525.027 Q204.95 527.712 199.232 527.712 Q193.515 527.712 190.436 525.027 Q187.38 522.341 187.38 517.318 Q187.38 514.008 189.278 511.716 Q191.177 509.425 194.556 508.638 M192.843 501.253 Q192.843 503.939 194.51 505.443 Q196.2 506.948 199.232 506.948 Q202.241 506.948 203.931 505.443 Q205.644 503.939 205.644 501.253 Q205.644 498.568 203.931 497.064 Q202.241 495.559 199.232 495.559 Q196.2 495.559 194.51 497.064 Q192.843 498.568 192.843 501.253 Z" fill="#000000" fill-rule="evenodd" fill-opacity="1" /><path clip-path="url(#clip800)" d="M63.4226 242.437 Q59.8115 242.437 57.9828 246.001 Q56.1773 249.543 56.1773 256.673 Q56.1773 263.779 57.9828 267.344 Q59.8115 270.886 63.4226 270.886 Q67.0569 270.886 68.8624 267.344 Q70.6911 263.779 70.6911 256.673 Q70.6911 249.543 68.8624 246.001 Q67.0569 242.437 63.4226 242.437 M63.4226 238.733 Q69.2328 238.733 72.2883 243.339 Q75.367 247.923 75.367 256.673 Q75.367 265.399 72.2883 270.006 Q69.2328 274.589 63.4226 274.589 Q57.6125 274.589 54.5338 270.006 Q51.4782 265.399 51.4782 256.673 Q51.4782 247.923 54.5338 243.339 Q57.6125 238.733 63.4226 238.733 Z" fill="#000000" fill-rule="evenodd" fill-opacity="1" /><path clip-path="url(#clip800)" d="M83.5845 268.038 L88.4688 268.038 L88.4688 273.918 L83.5845 273.918 L83.5845 268.038 Z" fill="#000000" fill-rule="evenodd" fill-opacity="1" /><path clip-path="url(#clip800)" d="M108.654 242.437 Q105.043 242.437 103.214 246.001 Q101.409 249.543 101.409 256.673 Q101.409 263.779 103.214 267.344 Q105.043 270.886 108.654 270.886 Q112.288 270.886 114.094 267.344 Q115.922 263.779 115.922 256.673 Q115.922 249.543 114.094 246.001 Q112.288 242.437 108.654 242.437 M108.654 238.733 Q114.464 238.733 117.52 243.339 Q120.598 247.923 120.598 256.673 Q120.598 265.399 117.52 270.006 Q114.464 274.589 108.654 274.589 Q102.844 274.589 99.765 270.006 Q96.7095 265.399 96.7095 256.673 Q96.7095 247.923 99.765 243.339 Q102.844 238.733 108.654 238.733 Z" fill="#000000" fill-rule="evenodd" fill-opacity="1" /><path clip-path="url(#clip800)" d="M138.816 242.437 Q135.205 242.437 133.376 246.001 Q131.57 249.543 131.57 256.673 Q131.57 263.779 133.376 267.344 Q135.205 270.886 138.816 270.886 Q142.45 270.886 144.256 267.344 Q146.084 263.779 146.084 256.673 Q146.084 249.543 144.256 246.001 Q142.45 242.437 138.816 242.437 M138.816 238.733 Q144.626 238.733 147.681 243.339 Q150.76 247.923 150.76 256.673 Q150.76 265.399 147.681 270.006 Q144.626 274.589 138.816 274.589 Q133.006 274.589 129.927 270.006 Q126.871 265.399 126.871 256.673 Q126.871 247.923 129.927 243.339 Q133.006 238.733 138.816 238.733 Z" fill="#000000" fill-rule="evenodd" fill-opacity="1" /><path clip-path="url(#clip800)" d="M159.788 269.983 L167.427 269.983 L167.427 243.617 L159.117 245.284 L159.117 241.025 L167.38 239.358 L172.056 239.358 L172.056 269.983 L179.695 269.983 L179.695 273.918 L159.788 273.918 L159.788 269.983 Z" fill="#000000" fill-rule="evenodd" fill-opacity="1" /><path clip-path="url(#clip800)" d="M199.139 242.437 Q195.528 242.437 193.7 246.001 Q191.894 249.543 191.894 256.673 Q191.894 263.779 193.7 267.344 Q195.528 270.886 199.139 270.886 Q202.774 270.886 204.579 267.344 Q206.408 263.779 206.408 256.673 Q206.408 249.543 204.579 246.001 Q202.774 242.437 199.139 242.437 M199.139 238.733 Q204.95 238.733 208.005 243.339 Q211.084 247.923 211.084 256.673 Q211.084 265.399 208.005 270.006 Q204.95 274.589 199.139 274.589 Q193.329 274.589 190.251 270.006 Q187.195 265.399 187.195 256.673 Q187.195 247.923 190.251 243.339 Q193.329 238.733 199.139 238.733 Z" fill="#000000" fill-rule="evenodd" fill-opacity="1" /><path clip-path="url(#clip800)" d="M1073.66 12.096 L1081.84 12.096 L1081.84 72.576 L1073.66 72.576 L1073.66 12.096 Z" fill="#000000" fill-rule="evenodd" fill-opacity="1" /><path clip-path="url(#clip800)" d="M1135.51 45.1919 L1135.51 72.576 L1128.06 72.576 L1128.06 45.4349 Q1128.06 38.994 1125.55 35.7938 Q1123.04 32.5936 1118.01 32.5936 Q1111.98 32.5936 1108.49 36.4419 Q1105.01 40.2903 1105.01 46.9338 L1105.01 72.576 L1097.52 72.576 L1097.52 27.2059 L1105.01 27.2059 L1105.01 34.2544 Q1107.68 30.163 1111.29 28.1376 Q1114.94 26.1121 1119.67 26.1121 Q1127.49 26.1121 1131.5 30.9732 Q1135.51 35.7938 1135.51 45.1919 Z" fill="#000000" fill-rule="evenodd" fill-opacity="1" /><path clip-path="url(#clip800)" d="M1183.03 28.9478 L1183.03 35.9153 Q1179.87 34.1734 1176.67 33.3227 Q1173.51 32.4315 1170.27 32.4315 Q1163.02 32.4315 1159.01 37.0496 Q1155 41.6271 1155 49.9314 Q1155 58.2358 1159.01 62.8538 Q1163.02 67.4314 1170.27 67.4314 Q1173.51 67.4314 1176.67 66.5807 Q1179.87 65.6895 1183.03 63.9476 L1183.03 70.8341 Q1179.91 72.2924 1176.55 73.0216 Q1173.23 73.7508 1169.46 73.7508 Q1159.21 73.7508 1153.18 67.3098 Q1147.14 60.8689 1147.14 49.9314 Q1147.14 38.832 1153.22 32.472 Q1159.33 26.1121 1169.95 26.1121 Q1173.39 26.1121 1176.67 26.8413 Q1179.95 27.5299 1183.03 28.9478 Z" fill="#000000" fill-rule="evenodd" fill-opacity="1" /><path clip-path="url(#clip800)" d="M1195.99 27.2059 L1203.45 27.2059 L1203.45 72.576 L1195.99 72.576 L1195.99 27.2059 M1195.99 9.54393 L1203.45 9.54393 L1203.45 18.9825 L1195.99 18.9825 L1195.99 9.54393 Z" fill="#000000" fill-rule="evenodd" fill-opacity="1" /><path clip-path="url(#clip800)" d="M1248.9 34.0924 L1248.9 9.54393 L1256.35 9.54393 L1256.35 72.576 L1248.9 72.576 L1248.9 65.7705 Q1246.55 69.8214 1242.94 71.8063 Q1239.38 73.7508 1234.36 73.7508 Q1226.13 73.7508 1220.95 67.1883 Q1215.8 60.6258 1215.8 49.9314 Q1215.8 39.2371 1220.95 32.6746 Q1226.13 26.1121 1234.36 26.1121 Q1239.38 26.1121 1242.94 28.0971 Q1246.55 30.0415 1248.9 34.0924 M1223.5 49.9314 Q1223.5 58.1548 1226.86 62.8538 Q1230.26 67.5124 1236.18 67.5124 Q1242.09 67.5124 1245.5 62.8538 Q1248.9 58.1548 1248.9 49.9314 Q1248.9 41.7081 1245.5 37.0496 Q1242.09 32.3505 1236.18 32.3505 Q1230.26 32.3505 1226.86 37.0496 Q1223.5 41.7081 1223.5 49.9314 Z" fill="#000000" fill-rule="evenodd" fill-opacity="1" /><path clip-path="url(#clip800)" d="M1310.51 48.0275 L1310.51 51.6733 L1276.24 51.6733 Q1276.73 59.3701 1280.86 63.421 Q1285.03 67.4314 1292.45 67.4314 Q1296.74 67.4314 1300.75 66.3781 Q1304.8 65.3249 1308.77 63.2184 L1308.77 70.267 Q1304.76 71.9684 1300.55 72.8596 Q1296.33 73.7508 1292 73.7508 Q1281.14 73.7508 1274.78 67.4314 Q1268.46 61.1119 1268.46 50.3365 Q1268.46 39.1965 1274.46 32.6746 Q1280.5 26.1121 1290.7 26.1121 Q1299.86 26.1121 1305.17 32.0264 Q1310.51 37.9003 1310.51 48.0275 M1303.06 45.84 Q1302.98 39.7232 1299.62 36.0774 Q1296.29 32.4315 1290.79 32.4315 Q1284.55 32.4315 1280.78 35.9558 Q1277.05 39.4801 1276.49 45.8805 L1303.06 45.84 Z" fill="#000000" fill-rule="evenodd" fill-opacity="1" /><path clip-path="url(#clip800)" d="M1360.46 45.1919 L1360.46 72.576 L1353.01 72.576 L1353.01 45.4349 Q1353.01 38.994 1350.5 35.7938 Q1347.98 32.5936 1342.96 32.5936 Q1336.92 32.5936 1333.44 36.4419 Q1329.96 40.2903 1329.96 46.9338 L1329.96 72.576 L1322.46 72.576 L1322.46 27.2059 L1329.96 27.2059 L1329.96 34.2544 Q1332.63 30.163 1336.24 28.1376 Q1339.88 26.1121 1344.62 26.1121 Q1352.44 26.1121 1356.45 30.9732 Q1360.46 35.7938 1360.46 45.1919 Z" fill="#000000" fill-rule="evenodd" fill-opacity="1" /><path clip-path="url(#clip800)" d="M1407.98 28.9478 L1407.98 35.9153 Q1404.82 34.1734 1401.62 33.3227 Q1398.46 32.4315 1395.22 32.4315 Q1387.97 32.4315 1383.96 37.0496 Q1379.95 41.6271 1379.95 49.9314 Q1379.95 58.2358 1383.96 62.8538 Q1387.97 67.4314 1395.22 67.4314 Q1398.46 67.4314 1401.62 66.5807 Q1404.82 65.6895 1407.98 63.9476 L1407.98 70.8341 Q1404.86 72.2924 1401.5 73.0216 Q1398.17 73.7508 1394.41 73.7508 Q1384.16 73.7508 1378.12 67.3098 Q1372.09 60.8689 1372.09 49.9314 Q1372.09 38.832 1378.16 32.472 Q1384.28 26.1121 1394.89 26.1121 Q1398.34 26.1121 1401.62 26.8413 Q1404.9 27.5299 1407.98 28.9478 Z" fill="#000000" fill-rule="evenodd" fill-opacity="1" /><path clip-path="url(#clip800)" d="M1420.94 27.2059 L1428.39 27.2059 L1428.39 72.576 L1420.94 72.576 L1420.94 27.2059 M1420.94 9.54393 L1428.39 9.54393 L1428.39 18.9825 L1420.94 18.9825 L1420.94 9.54393 Z" fill="#000000" fill-rule="evenodd" fill-opacity="1" /><path clip-path="url(#clip800)" d="M1464.61 49.7694 Q1455.58 49.7694 1452.09 51.8354 Q1448.61 53.9013 1448.61 58.8839 Q1448.61 62.8538 1451.2 65.2034 Q1453.83 67.5124 1458.33 67.5124 Q1464.53 67.5124 1468.26 63.1374 Q1472.02 58.7219 1472.02 51.4303 L1472.02 49.7694 L1464.61 49.7694 M1479.48 46.6907 L1479.48 72.576 L1472.02 72.576 L1472.02 65.6895 Q1469.47 69.8214 1465.66 71.8063 Q1461.85 73.7508 1456.35 73.7508 Q1449.38 73.7508 1445.25 69.8619 Q1441.15 65.9325 1441.15 59.3701 Q1441.15 51.7138 1446.26 47.825 Q1451.4 43.9361 1461.57 43.9361 L1472.02 43.9361 L1472.02 43.2069 Q1472.02 38.0623 1468.62 35.2672 Q1465.26 32.4315 1459.14 32.4315 Q1455.25 32.4315 1451.57 33.3632 Q1447.88 34.295 1444.48 36.1584 L1444.48 29.2718 Q1448.57 27.692 1452.42 26.9223 Q1456.26 26.1121 1459.91 26.1121 Q1469.75 26.1121 1474.62 31.2163 Q1479.48 36.3204 1479.48 46.6907 Z" fill="#000000" fill-rule="evenodd" fill-opacity="1" /><path clip-path="url(#clip800)" d="M1523.75 28.5427 L1523.75 35.5912 Q1520.59 33.9709 1517.19 33.1607 Q1513.79 32.3505 1510.14 32.3505 Q1504.59 32.3505 1501.8 34.0519 Q1499.04 35.7533 1499.04 39.156 Q1499.04 41.7486 1501.03 43.2475 Q1503.01 44.7058 1509.01 46.0426 L1511.56 46.6097 Q1519.5 48.3111 1522.82 51.4303 Q1526.18 54.509 1526.18 60.0587 Q1526.18 66.3781 1521.16 70.0644 Q1516.18 73.7508 1507.43 73.7508 Q1503.78 73.7508 1499.81 73.0216 Q1495.88 72.3329 1491.51 70.9151 L1491.51 63.2184 Q1495.64 65.3654 1499.65 66.4591 Q1503.66 67.5124 1507.59 67.5124 Q1512.86 67.5124 1515.69 65.73 Q1518.53 63.9071 1518.53 60.6258 Q1518.53 57.5877 1516.46 55.9673 Q1514.44 54.3469 1507.51 52.8481 L1504.92 52.2405 Q1497.99 50.7821 1494.91 47.7845 Q1491.83 44.7463 1491.83 39.4801 Q1491.83 33.0797 1496.37 29.5959 Q1500.91 26.1121 1509.25 26.1121 Q1513.38 26.1121 1517.03 26.7198 Q1520.67 27.3274 1523.75 28.5427 Z" fill="#000000" fill-rule="evenodd" fill-opacity="1" /><polyline clip-path="url(#clip802)" style="stroke:#009af9; stroke-linecap:butt; stroke-linejoin:round; stroke-width:4; stroke-opacity:1; fill:none" points="
  306.678,1415.98 311.645,1404.74 316.611,1393.05 321.577,1380.86 326.543,1368.1 331.509,1354.74 336.476,1340.79 341.442,1326.06 346.408,1309.74 351.374,1292.44 
  356.34,1274.31 361.307,1255.25 366.273,1235.22 371.239,1214.75 376.205,1194.01 381.171,1172.61 386.138,1150.12 391.104,1126.66 396.07,1102.26 401.036,1076.58 
  406.003,1050.01 410.969,1023.56 415.935,997.642 420.901,972.054 425.867,945.993 430.834,918.657 435.8,890.486 440.766,861.622 445.732,831.085 450.698,795.969 
  455.665,758.054 460.631,718.895 465.597,679.368 470.563,639.666 475.529,599.811 480.496,559.723 485.462,517.031 490.428,471.588 495.394,424.744 500.36,375.295 
  505.327,331.385 510.293,297.959 515.259,274.387 520.225,254.542 525.191,234.767 530.158,216.329 535.124,199.373 540.09,184.031 545.056,171.15 550.023,164.145 
  554.989,162.047 559.955,163.554 564.921,167.738 569.887,174.133 574.854,182.946 579.82,194.097 584.786,207.231 589.752,221.251 594.718,236.516 599.685,253.398 
  604.651,272.021 609.617,292.267 614.583,313.768 619.549,336.392 624.516,360.848 629.482,387.152 634.448,418.067 639.414,450.681 644.38,475.649 649.347,493.913 
  654.313,516.962 659.279,552.26 664.245,587.819 669.212,623.315 674.178,658.692 679.144,694.074 684.11,729.146 689.076,763.581 694.043,797.155 699.009,829.75 
  703.975,861.351 708.941,892.051 713.907,922.046 718.874,951.625 723.84,980.851 728.806,1009.52 733.772,1037.45 738.738,1064.54 743.705,1090.71 748.671,1115.95 
  753.637,1139.79 758.603,1161.67 763.569,1182.23 768.536,1201.93 773.502,1221.01 778.468,1239.54 783.434,1257.37 788.4,1274.5 793.367,1290.99 798.333,1306.64 
  803.299,1321.3 808.265,1334.81 813.232,1346.99 818.198,1357.75 823.164,1367.28 828.13,1375.67 833.096,1383 838.063,1389.35 843.029,1394.81 847.995,1399.49 
  852.961,1403.51 857.927,1406.92 862.894,1409.73 867.86,1412 872.826,1413.77 877.792,1415.09 882.758,1415.98 887.725,1416.44 892.691,1416.48 897.657,1415.95 
  902.623,1414.77 907.589,1413.03 912.556,1410.76 917.522,1407.97 922.488,1404.59 927.454,1400.58 932.421,1395.88 937.387,1390.33 942.353,1383.8 947.319,1376.22 
  952.285,1367.67 957.252,1358.2 962.218,1347.82 967.184,1336.63 972.15,1324.79 977.116,1312.58 982.083,1300.14 987.049,1287.04 992.015,1273.01 996.981,1257.95 
  1001.95,1241.97 1006.91,1225.36 1011.88,1208.31 1016.85,1190.79 1021.81,1172.84 1026.78,1154.5 1031.74,1135.81 1036.71,1116.89 1041.68,1097.76 1046.64,1078.21 
  1051.61,1058.09 1056.58,1037.3 1061.54,1015.86 1066.51,993.83 1071.47,971.356 1076.44,948.665 1081.41,926.005 1086.37,903.414 1091.34,880.969 1096.31,858.764 
  1101.27,836.62 1106.24,811.353 1111.2,783.323 1116.17,753.93 1121.14,724.24 1126.1,694.986 1131.07,666.563 1136.04,639.037 1141,612.149 1145.97,586.873 
  1150.93,563.584 1155.9,541.873 1160.87,521.662 1165.83,503.28 1170.8,486.771 1175.76,471.293 1180.73,456.519 1185.7,442.721 1190.66,430.94 1195.63,421.431 
  1200.6,412.698 1205.56,403.942 1210.53,395.173 1215.49,387.21 1220.46,381.344 1225.43,377.502 1230.39,375.832 1235.36,376.466 1240.33,379.416 1245.29,384.575 
  1250.26,391.719 1255.22,400.741 1260.19,411.662 1265.16,424.475 1270.12,439.148 1275.09,455.617 1280.06,473.793 1285.02,493.558 1289.99,514.767 1294.95,537.235 
  1299.92,560.553 1304.89,584.16 1309.85,607.596 1314.82,630.506 1319.78,652.645 1324.75,673.874 1329.72,694.164 1334.68,713.591 1339.65,732.34 1344.62,750.403 
  1349.58,767.353 1354.55,783.408 1359.51,798.778 1364.48,813.629 1369.45,828.088 1374.41,842.239 1379.38,856.126 1384.35,869.89 1389.31,883.749 1394.28,897.823 
  1399.24,912.127 1404.21,926.574 1409.18,940.971 1414.14,955.023 1419.11,968.12 1424.08,979.851 1429.04,990.871 1434.01,1001.64 1438.97,1012.4 1443.94,1023.11 
  1448.91,1033.34 1453.87,1042.4 1458.84,1050.63 1463.8,1058.36 1468.77,1065.82 1473.74,1073.17 1478.7,1080.48 1483.67,1087.72 1488.64,1095.06 1493.6,1102.54 
  1498.57,1110 1503.53,1117.35 1508.5,1124.53 1513.47,1131.54 1518.43,1138.43 1523.4,1145.06 1528.37,1151.45 1533.33,1157.67 1538.3,1163.74 1543.26,1169.71 
  1548.23,1175.59 1553.2,1181.39 1558.16,1187.1 1563.13,1192.65 1568.1,1198.12 1573.06,1203.65 1578.03,1209.34 1582.99,1215.24 1587.96,1221.34 1592.93,1227.59 
  1597.89,1233.9 1602.86,1240.12 1607.82,1246.19 1612.79,1252.15 1617.76,1258 1622.72,1263.77 1627.69,1269.44 1632.66,1275.02 1637.62,1280.5 1642.59,1285.87 
  1647.55,1291.13 1652.52,1296.28 1657.49,1301.33 1662.45,1306.28 1667.42,1311.13 1672.39,1315.89 1677.35,1320.55 1682.32,1325.12 1687.28,1329.58 1692.25,1333.94 
  1697.22,1338.09 1702.18,1341.8 1707.15,1344.89 1712.12,1347.25 1717.08,1348.83 1722.05,1349.65 1727.01,1349.78 1731.98,1349.51 1736.95,1348.86 1741.91,1347.6 
  1746.88,1345.6 1751.84,1342.8 1756.81,1339.2 1761.78,1334.66 1766.74,1329.11 1771.71,1322.53 1776.68,1314.91 1781.64,1306.15 1786.61,1296.13 1791.57,1284.69 
  1796.54,1272.14 1801.51,1258.83 1806.47,1244.89 1811.44,1230.47 1816.41,1215.65 1821.37,1200.52 1826.34,1185.13 1831.3,1169.56 1836.27,1153.66 1841.24,1137.34 
  1846.2,1120.62 1851.17,1103.66 1856.14,1086.73 1861.1,1069.88 1866.07,1053.16 1871.03,1036.69 1876,1020.55 1880.97,1004.75 1885.93,989.254 1890.9,973.986 
  1895.86,958.54 1900.83,941.964 1905.8,924.736 1910.76,907.372 1915.73,890.255 1920.7,873.64 1925.66,857.651 1930.63,842.28 1935.59,827.237 1940.56,811.756 
  1945.53,795.616 1950.49,778.724 1955.46,761.071 1960.43,742.734 1965.39,723.871 1970.36,704.713 1975.32,685.298 1980.29,665.586 1985.26,645.548 1990.22,625.141 
  1995.19,604.308 2000.16,583.059 2005.12,563.02 2010.09,544.182 2015.05,525.811 2020.02,507.379 2024.99,488.566 2029.95,469.257 2034.92,449.543 2039.88,431.57 
  2044.85,416.563 2049.82,402.833 2054.78,389.189 2059.75,374.946 2064.72,359.93 2069.68,344.473 2074.65,331.815 2079.61,327.149 2084.58,327.109 2089.55,329.005 
  2094.51,331.329 2099.48,333.807 2104.45,336.992 2109.41,340.26 2114.38,343.227 2119.34,346.058 2124.31,349.174 2129.28,352.492 2134.24,355.904 2139.21,359.342 
  2144.18,362.772 2149.14,366.195 2154.11,369.718 2159.07,373.97 2164.04,378.112 2169.01,381.273 2173.97,383.033 2178.94,383.43 2183.9,382.955 2188.87,382.554 
  2193.84,383.458 2198.8,385.339 2203.77,387.013 2208.74,387.723 2213.7,387.175 2218.67,385.528 2223.63,383.397 2228.6,381.36 2233.57,379.219 2238.53,377.831 
  2243.5,377.559 2248.47,378.156 2253.43,378.768 2258.4,377.934 2263.36,373.43 2268.33,364.871 2273.3,356.326 2278.26,349.843 2283.23,344.831 2288.2,338.057 
  2293.16,324.682 
  "/>
<polyline clip-path="url(#clip802)" style="stroke:#e26f46; stroke-linecap:butt; stroke-linejoin:round; stroke-width:4; stroke-opacity:1; fill:none" points="
  306.678,1428.68 311.645,1425.99 316.611,1422.26 321.577,1417.56 326.543,1411.98 331.509,1405.58 336.476,1398.38 341.442,1390.51 346.408,1382.37 351.374,1373.48 
  356.34,1363.78 361.307,1353.47 366.273,1342.67 371.239,1329.95 376.205,1314.94 381.171,1298.65 386.138,1282.23 391.104,1265.42 396.07,1248.2 401.036,1231.56 
  406.003,1214.58 410.969,1194.74 415.935,1171.09 420.901,1144.27 425.867,1116.47 430.834,1089.95 435.8,1063.82 440.766,1037.96 445.732,1011.59 450.698,982.636 
  455.665,952.185 460.631,921.188 465.597,890.145 470.563,859.114 475.529,827.781 480.496,796.344 485.462,765.148 490.428,734.065 495.394,702.406 500.36,669.731 
  505.327,637.806 510.293,608.034 515.259,581.106 520.225,557.004 525.191,535.205 530.158,515.52 535.124,497.884 540.09,482.247 545.056,473.038 550.023,486.141 
  554.989,507.484 559.955,526.539 564.921,541.208 569.887,556.347 574.854,571.769 579.82,587.132 584.786,601.807 589.752,612.307 594.718,620.737 599.685,629.329 
  604.651,639.475 609.617,651.729 614.583,665.728 619.549,680.492 624.516,698.589 629.482,719.895 634.448,742.2 639.414,764.919 644.38,786.253 649.347,806.232 
  654.313,826.788 659.279,849.493 664.245,872.644 669.212,896.079 674.178,919.692 679.144,943.451 684.11,967.176 689.076,990.684 694.043,1013.84 699.009,1036.53 
  703.975,1058.73 708.941,1080.4 713.907,1101.58 718.874,1122.42 723.84,1143.16 728.806,1163.57 733.772,1183.4 738.738,1202.55 743.705,1220.96 748.671,1238.68 
  753.637,1255.47 758.603,1270.93 763.569,1285.45 768.536,1299.33 773.502,1312.73 778.468,1325.7 783.434,1338.16 788.4,1350.17 793.367,1361.73 798.333,1372.72 
  803.299,1382.98 808.265,1392.4 813.232,1400.89 818.198,1408.4 823.164,1415.08 828.13,1420.95 833.096,1426.01 838.063,1430.3 843.029,1433.9 847.995,1436.92 
  852.961,1439.52 857.927,1441.74 862.894,1443.57 867.86,1445.04 872.826,1446.2 877.792,1447.04 882.758,1447.6 887.725,1447.87 892.691,1447.86 897.657,1447.11 
  902.623,1445.46 907.589,1443.25 912.556,1440.71 917.522,1437.93 922.488,1434.89 927.454,1431.6 932.421,1427.81 937.387,1422.87 942.353,1416.66 947.319,1409.58 
  952.285,1401.95 957.252,1393.72 962.218,1384.92 967.184,1375.62 972.15,1365.89 977.116,1355.93 982.083,1345.86 987.049,1335.25 992.015,1323.77 996.981,1311.35 
  1001.95,1298.13 1006.91,1284.44 1011.88,1270.47 1016.85,1256.16 1021.81,1241.54 1026.78,1226.63 1031.74,1211.47 1036.71,1196.3 1041.68,1181.34 1046.64,1166.05 
  1051.61,1150 1056.58,1132.97 1061.54,1114.88 1066.51,1095.85 1071.47,1076.16 1076.44,1056.28 1081.41,1036.72 1086.37,1017.39 1091.34,998.313 1096.31,979.538 
  1101.27,960.886 1106.24,939.502 1111.2,915.67 1116.17,890.608 1121.14,865.259 1126.1,840.288 1131.07,816.085 1136.04,792.763 1141,770.211 1145.97,752.55 
  1150.93,739.062 1155.9,726.479 1160.87,713.724 1165.83,701.898 1170.8,691.308 1175.76,680.297 1180.73,668.372 1185.7,656.365 1190.66,646.195 1195.63,637.976 
  1200.6,630.527 1205.56,623.231 1210.53,616.073 1215.49,609.643 1220.46,604.893 1225.43,601.791 1230.39,600.397 1235.36,600.787 1240.33,602.971 1245.29,606.901 
  1250.26,612.468 1255.22,619.604 1260.19,628.292 1265.16,638.497 1270.12,650.177 1275.09,663.275 1280.06,677.723 1285.02,693.442 1289.99,710.34 1294.95,728.379 
  1299.92,747.535 1304.89,766.941 1309.85,785.832 1314.82,803.677 1319.78,820.186 1324.75,835.303 1329.72,849.211 1334.68,862.329 1339.65,875.316 1344.62,888.202 
  1349.58,899.796 1354.55,910.694 1359.51,921.387 1364.48,932.168 1369.45,943.129 1374.41,954.16 1379.38,965.124 1384.35,978.895 1389.31,994.863 1394.28,1011.19 
  1399.24,1026.68 1404.21,1040.77 1409.18,1053.54 1414.14,1065.73 1419.11,1077.82 1424.08,1088.61 1429.04,1098.57 1434.01,1108.1 1438.97,1117.43 1443.94,1126.57 
  1448.91,1135.03 1453.87,1141.89 1458.84,1147.78 1463.8,1153.27 1468.77,1158.75 1473.74,1164.38 1478.7,1170.14 1483.67,1175.81 1488.64,1181.45 1493.6,1187.27 
  1498.57,1193.12 1503.53,1198.9 1508.5,1204.56 1513.47,1210.11 1518.43,1215.55 1523.4,1220.77 1528.37,1225.79 1533.33,1230.67 1538.3,1235.45 1543.26,1240.18 
  1548.23,1244.85 1553.2,1249.47 1558.16,1254.01 1563.13,1258.43 1568.1,1262.86 1573.06,1267.46 1578.03,1272.32 1582.99,1277.46 1587.96,1282.86 1592.93,1288.4 
  1597.89,1293.91 1602.86,1299.16 1607.82,1304.15 1612.79,1309.01 1617.76,1313.81 1622.72,1318.56 1627.69,1323.28 1632.66,1327.94 1637.62,1332.48 1642.59,1336.88 
  1647.55,1341.17 1652.52,1345.34 1657.49,1349.4 1662.45,1353.36 1667.42,1357.21 1672.39,1360.96 1677.35,1364.62 1682.32,1368.19 1687.28,1371.69 1692.25,1375.11 
  1697.22,1378.52 1702.18,1381.76 1707.15,1384.6 1712.12,1386.87 1717.08,1388.5 1722.05,1389.46 1727.01,1389.79 1731.98,1389.6 1736.95,1388.95 1741.91,1387.8 
  1746.88,1386.13 1751.84,1383.9 1756.81,1381.05 1761.78,1377.59 1766.74,1373.47 1771.71,1368.59 1776.68,1362.87 1781.64,1356.22 1786.61,1348.57 1791.57,1339.83 
  1796.54,1329.67 1801.51,1318.47 1806.47,1306.73 1811.44,1294.79 1816.41,1282.79 1821.37,1270.72 1826.34,1258.36 1831.3,1245.41 1836.27,1232.51 1841.24,1220.2 
  1846.2,1208.62 1851.17,1197.53 1856.14,1186.32 1861.1,1175.1 1866.07,1163.76 1871.03,1151.94 1876,1139.47 1880.97,1126.38 1885.93,1112.92 1890.9,1099.51 
  1895.86,1086.47 1900.83,1072.99 1905.8,1059.24 1910.76,1045.48 1915.73,1031.94 1920.7,1018.78 1925.66,1006.09 1930.63,993.922 1935.59,981.43 1940.56,966.474 
  1945.53,950.189 1950.49,933.574 1955.46,917.193 1960.43,901.186 1965.39,885.258 1970.36,868.86 1975.32,853.037 1980.29,837.577 1985.26,821.931 1990.22,805.801 
  1995.19,789.139 2000.16,772.208 2005.12,756.488 2010.09,741.833 2015.05,727.544 2020.02,713.13 2024.99,698.312 2029.95,683.022 2034.92,667.4 2039.88,651.921 
  2044.85,636.988 2049.82,622.648 2054.78,608.859 2059.75,595.487 2064.72,582.306 2069.68,569.002 2074.65,563.227 2079.61,577.803 2084.58,598.362 2089.55,615.764 
  2094.51,627.84 2099.48,638.921 2104.45,649.977 2109.41,658.938 2114.38,665.469 2119.34,670.507 2124.31,675.44 2129.28,680.091 2134.24,684.24 2139.21,687.808 
  2144.18,690.852 2149.14,693.567 2154.11,696.147 2159.07,697.561 2164.04,699.244 2169.01,702.727 2173.97,708.717 2178.94,717.098 2183.9,726.925 2188.87,736.432 
  2193.84,744.163 2198.8,751.336 2203.77,757.193 2208.74,761.211 2213.7,763.306 2218.67,763.833 2223.63,763.586 2228.6,765.794 2233.57,771.899 2238.53,773.083 
  2243.5,763.787 2248.47,742.428 2253.43,711.396 2258.4,677.057 2263.36,649.363 2268.33,629.49 2273.3,608.354 2278.26,581.605 2283.23,550.512 2288.2,521.966 
  2293.16,506.331 
  "/>
<path clip-path="url(#clip800)" d="
M1732.86 324.425 L2282.57 324.425 L2282.57 168.905 L1732.86 168.905  Z
  " fill="#ffffff" fill-rule="evenodd" fill-opacity="1"/>
<polyline clip-path="url(#clip800)" style="stroke:#000000; stroke-linecap:butt; stroke-linejoin:round; stroke-width:4; stroke-opacity:1; fill:none" points="
  1732.86,324.425 2282.57,324.425 2282.57,168.905 1732.86,168.905 1732.86,324.425 
  "/>
<polyline clip-path="url(#clip800)" style="stroke:#009af9; stroke-linecap:butt; stroke-linejoin:round; stroke-width:4; stroke-opacity:1; fill:none" points="
  1756.26,220.745 1896.64,220.745 
  "/>
<path clip-path="url(#clip800)" d="M1942.28 204.599 L1942.28 209.159 Q1939.62 207.886 1937.26 207.261 Q1934.9 206.636 1932.7 206.636 Q1928.88 206.636 1926.79 208.117 Q1924.73 209.599 1924.73 212.33 Q1924.73 214.622 1926.1 215.803 Q1927.49 216.96 1931.33 217.678 L1934.16 218.256 Q1939.39 219.252 1941.86 221.775 Q1944.36 224.275 1944.36 228.488 Q1944.36 233.511 1940.98 236.103 Q1937.63 238.696 1931.12 238.696 Q1928.67 238.696 1925.89 238.14 Q1923.14 237.585 1920.17 236.497 L1920.17 231.682 Q1923.02 233.279 1925.75 234.089 Q1928.48 234.9 1931.12 234.9 Q1935.13 234.9 1937.3 233.326 Q1939.48 231.752 1939.48 228.835 Q1939.48 226.289 1937.91 224.853 Q1936.35 223.418 1932.79 222.701 L1929.94 222.145 Q1924.71 221.103 1922.37 218.881 Q1920.04 216.659 1920.04 212.701 Q1920.04 208.117 1923.25 205.479 Q1926.49 202.84 1932.16 202.84 Q1934.6 202.84 1937.12 203.279 Q1939.64 203.719 1942.28 204.599 Z" fill="#000000" fill-rule="evenodd" fill-opacity="1" /><path clip-path="url(#clip800)" d="M1963.25 224.992 Q1958.09 224.992 1956.1 226.173 Q1954.11 227.353 1954.11 230.201 Q1954.11 232.469 1955.59 233.812 Q1957.1 235.131 1959.66 235.131 Q1963.21 235.131 1965.34 232.631 Q1967.49 230.108 1967.49 225.941 L1967.49 224.992 L1963.25 224.992 M1971.75 223.233 L1971.75 238.025 L1967.49 238.025 L1967.49 234.089 Q1966.03 236.451 1963.85 237.585 Q1961.68 238.696 1958.53 238.696 Q1954.55 238.696 1952.19 236.474 Q1949.85 234.228 1949.85 230.478 Q1949.85 226.103 1952.77 223.881 Q1955.71 221.659 1961.52 221.659 L1967.49 221.659 L1967.49 221.242 Q1967.49 218.303 1965.54 216.705 Q1963.62 215.085 1960.13 215.085 Q1957.91 215.085 1955.8 215.617 Q1953.69 216.15 1951.75 217.215 L1951.75 213.279 Q1954.09 212.377 1956.28 211.937 Q1958.48 211.474 1960.57 211.474 Q1966.19 211.474 1968.97 214.391 Q1971.75 217.307 1971.75 223.233 Z" fill="#000000" fill-rule="evenodd" fill-opacity="1" /><path clip-path="url(#clip800)" d="M2002.07 222.377 L2002.07 238.025 L1997.81 238.025 L1997.81 222.515 Q1997.81 218.835 1996.38 217.006 Q1994.94 215.178 1992.07 215.178 Q1988.62 215.178 1986.63 217.377 Q1984.64 219.576 1984.64 223.372 L1984.64 238.025 L1980.36 238.025 L1980.36 212.099 L1984.64 212.099 L1984.64 216.127 Q1986.17 213.789 1988.23 212.631 Q1990.31 211.474 1993.02 211.474 Q1997.49 211.474 1999.78 214.252 Q2002.07 217.006 2002.07 222.377 Z" fill="#000000" fill-rule="evenodd" fill-opacity="1" /><path clip-path="url(#clip800)" d="M2030.5 221.52 L2030.5 234.182 L2038 234.182 Q2041.77 234.182 2043.58 232.631 Q2045.4 231.057 2045.4 227.84 Q2045.4 224.599 2043.58 223.071 Q2041.77 221.52 2038 221.52 L2030.5 221.52 M2030.5 207.307 L2030.5 217.724 L2037.42 217.724 Q2040.84 217.724 2042.51 216.451 Q2044.2 215.154 2044.2 212.516 Q2044.2 209.9 2042.51 208.604 Q2040.84 207.307 2037.42 207.307 L2030.5 207.307 M2025.82 203.465 L2037.77 203.465 Q2043.11 203.465 2046.01 205.687 Q2048.9 207.909 2048.9 212.006 Q2048.9 215.178 2047.42 217.053 Q2045.94 218.928 2043.07 219.39 Q2046.52 220.131 2048.41 222.492 Q2050.34 224.83 2050.34 228.349 Q2050.34 232.978 2047.19 235.502 Q2044.04 238.025 2038.23 238.025 L2025.82 238.025 L2025.82 203.465 Z" fill="#000000" fill-rule="evenodd" fill-opacity="1" /><path clip-path="url(#clip800)" d="M2080.34 223.997 L2080.34 226.08 L2060.75 226.08 Q2061.03 230.478 2063.39 232.793 Q2065.78 235.085 2070.01 235.085 Q2072.46 235.085 2074.76 234.483 Q2077.07 233.881 2079.34 232.677 L2079.34 236.705 Q2077.05 237.677 2074.64 238.187 Q2072.23 238.696 2069.76 238.696 Q2063.55 238.696 2059.92 235.085 Q2056.31 231.474 2056.31 225.316 Q2056.31 218.951 2059.73 215.224 Q2063.18 211.474 2069.02 211.474 Q2074.25 211.474 2077.28 214.853 Q2080.34 218.21 2080.34 223.997 M2076.08 222.747 Q2076.03 219.252 2074.11 217.168 Q2072.21 215.085 2069.06 215.085 Q2065.5 215.085 2063.34 217.099 Q2061.21 219.113 2060.89 222.77 L2076.08 222.747 Z" fill="#000000" fill-rule="evenodd" fill-opacity="1" /><path clip-path="url(#clip800)" d="M2102.35 216.08 Q2101.63 215.664 2100.77 215.478 Q2099.94 215.27 2098.92 215.27 Q2095.31 215.27 2093.37 217.631 Q2091.45 219.969 2091.45 224.367 L2091.45 238.025 L2087.16 238.025 L2087.16 212.099 L2091.45 212.099 L2091.45 216.127 Q2092.79 213.766 2094.94 212.631 Q2097.09 211.474 2100.17 211.474 Q2100.61 211.474 2101.15 211.543 Q2101.68 211.59 2102.33 211.705 L2102.35 216.08 Z" fill="#000000" fill-rule="evenodd" fill-opacity="1" /><path clip-path="url(#clip800)" d="M2127.53 222.377 L2127.53 238.025 L2123.27 238.025 L2123.27 222.515 Q2123.27 218.835 2121.84 217.006 Q2120.4 215.178 2117.53 215.178 Q2114.08 215.178 2112.09 217.377 Q2110.1 219.576 2110.1 223.372 L2110.1 238.025 L2105.82 238.025 L2105.82 212.099 L2110.1 212.099 L2110.1 216.127 Q2111.63 213.789 2113.69 212.631 Q2115.77 211.474 2118.48 211.474 Q2122.95 211.474 2125.24 214.252 Q2127.53 217.006 2127.53 222.377 Z" fill="#000000" fill-rule="evenodd" fill-opacity="1" /><path clip-path="url(#clip800)" d="M2147.81 224.992 Q2142.65 224.992 2140.66 226.173 Q2138.67 227.353 2138.67 230.201 Q2138.67 232.469 2140.15 233.812 Q2141.65 235.131 2144.22 235.131 Q2147.77 235.131 2149.89 232.631 Q2152.05 230.108 2152.05 225.941 L2152.05 224.992 L2147.81 224.992 M2156.31 223.233 L2156.31 238.025 L2152.05 238.025 L2152.05 234.089 Q2150.59 236.451 2148.41 237.585 Q2146.24 238.696 2143.09 238.696 Q2139.11 238.696 2136.75 236.474 Q2134.41 234.228 2134.41 230.478 Q2134.41 226.103 2137.33 223.881 Q2140.27 221.659 2146.08 221.659 L2152.05 221.659 L2152.05 221.242 Q2152.05 218.303 2150.1 216.705 Q2148.18 215.085 2144.69 215.085 Q2142.46 215.085 2140.36 215.617 Q2138.25 216.15 2136.31 217.215 L2136.31 213.279 Q2138.65 212.377 2140.84 211.937 Q2143.04 211.474 2145.13 211.474 Q2150.75 211.474 2153.53 214.391 Q2156.31 217.307 2156.31 223.233 Z" fill="#000000" fill-rule="evenodd" fill-opacity="1" /><path clip-path="url(#clip800)" d="M2180.1 216.08 Q2179.39 215.664 2178.53 215.478 Q2177.7 215.27 2176.68 215.27 Q2173.07 215.27 2171.12 217.631 Q2169.2 219.969 2169.2 224.367 L2169.2 238.025 L2164.92 238.025 L2164.92 212.099 L2169.2 212.099 L2169.2 216.127 Q2170.54 213.766 2172.7 212.631 Q2174.85 211.474 2177.93 211.474 Q2178.37 211.474 2178.9 211.543 Q2179.43 211.59 2180.08 211.705 L2180.1 216.08 Z" fill="#000000" fill-rule="evenodd" fill-opacity="1" /><path clip-path="url(#clip800)" d="M2200.8 216.034 L2200.8 202.006 L2205.06 202.006 L2205.06 238.025 L2200.8 238.025 L2200.8 234.136 Q2199.45 236.451 2197.39 237.585 Q2195.36 238.696 2192.49 238.696 Q2187.79 238.696 2184.83 234.946 Q2181.89 231.196 2181.89 225.085 Q2181.89 218.974 2184.83 215.224 Q2187.79 211.474 2192.49 211.474 Q2195.36 211.474 2197.39 212.608 Q2199.45 213.719 2200.8 216.034 M2186.28 225.085 Q2186.28 229.784 2188.2 232.469 Q2190.15 235.131 2193.53 235.131 Q2196.91 235.131 2198.85 232.469 Q2200.8 229.784 2200.8 225.085 Q2200.8 220.386 2198.85 217.724 Q2196.91 215.039 2193.53 215.039 Q2190.15 215.039 2188.2 217.724 Q2186.28 220.386 2186.28 225.085 Z" fill="#000000" fill-rule="evenodd" fill-opacity="1" /><path clip-path="url(#clip800)" d="M2223.88 215.085 Q2220.45 215.085 2218.46 217.77 Q2216.47 220.432 2216.47 225.085 Q2216.47 229.738 2218.44 232.423 Q2220.43 235.085 2223.88 235.085 Q2227.28 235.085 2229.27 232.4 Q2231.26 229.715 2231.26 225.085 Q2231.26 220.478 2229.27 217.793 Q2227.28 215.085 2223.88 215.085 M2223.88 211.474 Q2229.43 211.474 2232.6 215.085 Q2235.77 218.696 2235.77 225.085 Q2235.77 231.451 2232.6 235.085 Q2229.43 238.696 2223.88 238.696 Q2218.3 238.696 2215.13 235.085 Q2211.98 231.451 2211.98 225.085 Q2211.98 218.696 2215.13 215.085 Q2218.3 211.474 2223.88 211.474 Z" fill="#000000" fill-rule="evenodd" fill-opacity="1" /><polyline clip-path="url(#clip800)" style="stroke:#e26f46; stroke-linecap:butt; stroke-linejoin:round; stroke-width:4; stroke-opacity:1; fill:none" points="
  1756.26,272.585 1896.64,272.585 
  "/>
<path clip-path="url(#clip800)" d="M1920.04 255.305 L1924.71 255.305 L1924.71 285.929 L1941.54 285.929 L1941.54 289.865 L1920.04 289.865 L1920.04 255.305 Z" fill="#000000" fill-rule="evenodd" fill-opacity="1" /><path clip-path="url(#clip800)" d="M1958.04 276.832 Q1952.88 276.832 1950.89 278.013 Q1948.9 279.193 1948.9 282.041 Q1948.9 284.309 1950.38 285.652 Q1951.89 286.971 1954.46 286.971 Q1958 286.971 1960.13 284.471 Q1962.28 281.948 1962.28 277.781 L1962.28 276.832 L1958.04 276.832 M1966.54 275.073 L1966.54 289.865 L1962.28 289.865 L1962.28 285.929 Q1960.82 288.291 1958.65 289.425 Q1956.47 290.536 1953.32 290.536 Q1949.34 290.536 1946.98 288.314 Q1944.64 286.068 1944.64 282.318 Q1944.64 277.943 1947.56 275.721 Q1950.5 273.499 1956.31 273.499 L1962.28 273.499 L1962.28 273.082 Q1962.28 270.143 1960.34 268.545 Q1958.41 266.925 1954.92 266.925 Q1952.7 266.925 1950.59 267.457 Q1948.48 267.99 1946.54 269.055 L1946.54 265.119 Q1948.88 264.217 1951.08 263.777 Q1953.28 263.314 1955.36 263.314 Q1960.98 263.314 1963.76 266.231 Q1966.54 269.147 1966.54 275.073 Z" fill="#000000" fill-rule="evenodd" fill-opacity="1" /><path clip-path="url(#clip800)" d="M1991.84 264.703 L1991.84 268.731 Q1990.03 267.805 1988.09 267.342 Q1986.15 266.879 1984.06 266.879 Q1980.89 266.879 1979.29 267.851 Q1977.72 268.823 1977.72 270.768 Q1977.72 272.249 1978.85 273.105 Q1979.99 273.939 1983.41 274.703 L1984.87 275.027 Q1989.41 275.999 1991.31 277.781 Q1993.23 279.541 1993.23 282.712 Q1993.23 286.323 1990.36 288.429 Q1987.51 290.536 1982.51 290.536 Q1980.43 290.536 1978.16 290.119 Q1975.91 289.726 1973.41 288.916 L1973.41 284.517 Q1975.78 285.744 1978.07 286.369 Q1980.36 286.971 1982.6 286.971 Q1985.61 286.971 1987.23 285.953 Q1988.85 284.911 1988.85 283.036 Q1988.85 281.3 1987.67 280.374 Q1986.52 279.448 1982.56 278.592 L1981.08 278.244 Q1977.12 277.411 1975.36 275.698 Q1973.6 273.962 1973.6 270.953 Q1973.6 267.295 1976.19 265.305 Q1978.78 263.314 1983.55 263.314 Q1985.91 263.314 1988 263.661 Q1990.08 264.008 1991.84 264.703 Z" fill="#000000" fill-rule="evenodd" fill-opacity="1" /><path clip-path="url(#clip800)" d="M2041.15 257.967 L2041.15 262.897 Q2038.78 260.698 2036.1 259.61 Q2033.44 258.522 2030.43 258.522 Q2024.5 258.522 2021.35 262.156 Q2018.21 265.768 2018.21 272.619 Q2018.21 279.448 2021.35 283.082 Q2024.5 286.693 2030.43 286.693 Q2033.44 286.693 2036.1 285.605 Q2038.78 284.517 2041.15 282.318 L2041.15 287.203 Q2038.69 288.869 2035.94 289.703 Q2033.21 290.536 2030.15 290.536 Q2022.3 290.536 2017.79 285.744 Q2013.28 280.93 2013.28 272.619 Q2013.28 264.286 2017.79 259.494 Q2022.3 254.68 2030.15 254.68 Q2033.25 254.68 2035.98 255.513 Q2038.74 256.323 2041.15 257.967 Z" fill="#000000" fill-rule="evenodd" fill-opacity="1" /><path clip-path="url(#clip800)" d="M2058.23 266.925 Q2054.8 266.925 2052.81 269.61 Q2050.82 272.272 2050.82 276.925 Q2050.82 281.578 2052.79 284.263 Q2054.78 286.925 2058.23 286.925 Q2061.63 286.925 2063.62 284.24 Q2065.61 281.555 2065.61 276.925 Q2065.61 272.318 2063.62 269.633 Q2061.63 266.925 2058.23 266.925 M2058.23 263.314 Q2063.78 263.314 2066.96 266.925 Q2070.13 270.536 2070.13 276.925 Q2070.13 283.291 2066.96 286.925 Q2063.78 290.536 2058.23 290.536 Q2052.65 290.536 2049.48 286.925 Q2046.33 283.291 2046.33 276.925 Q2046.33 270.536 2049.48 266.925 Q2052.65 263.314 2058.23 263.314 Z" fill="#000000" fill-rule="evenodd" fill-opacity="1" /><path clip-path="url(#clip800)" d="M2098.74 274.217 L2098.74 289.865 L2094.48 289.865 L2094.48 274.355 Q2094.48 270.675 2093.04 268.846 Q2091.61 267.018 2088.74 267.018 Q2085.29 267.018 2083.3 269.217 Q2081.31 271.416 2081.31 275.212 L2081.31 289.865 L2077.02 289.865 L2077.02 263.939 L2081.31 263.939 L2081.31 267.967 Q2082.84 265.629 2084.9 264.471 Q2086.98 263.314 2089.69 263.314 Q2094.15 263.314 2096.45 266.092 Q2098.74 268.846 2098.74 274.217 Z" fill="#000000" fill-rule="evenodd" fill-opacity="1" /><path clip-path="url(#clip800)" d="M2124.29 267.874 L2124.29 253.846 L2128.55 253.846 L2128.55 289.865 L2124.29 289.865 L2124.29 285.976 Q2122.95 288.291 2120.89 289.425 Q2118.85 290.536 2115.98 290.536 Q2111.28 290.536 2108.32 286.786 Q2105.38 283.036 2105.38 276.925 Q2105.38 270.814 2108.32 267.064 Q2111.28 263.314 2115.98 263.314 Q2118.85 263.314 2120.89 264.448 Q2122.95 265.559 2124.29 267.874 M2109.78 276.925 Q2109.78 281.624 2111.7 284.309 Q2113.65 286.971 2117.02 286.971 Q2120.4 286.971 2122.35 284.309 Q2124.29 281.624 2124.29 276.925 Q2124.29 272.226 2122.35 269.564 Q2120.4 266.879 2117.02 266.879 Q2113.65 266.879 2111.7 269.564 Q2109.78 272.226 2109.78 276.925 Z" fill="#000000" fill-rule="evenodd" fill-opacity="1" /><path clip-path="url(#clip800)" d="M2159.5 275.837 L2159.5 277.92 L2139.92 277.92 Q2140.2 282.318 2142.56 284.633 Q2144.94 286.925 2149.18 286.925 Q2151.63 286.925 2153.92 286.323 Q2156.24 285.721 2158.51 284.517 L2158.51 288.545 Q2156.21 289.517 2153.81 290.027 Q2151.4 290.536 2148.92 290.536 Q2142.72 290.536 2139.08 286.925 Q2135.47 283.314 2135.47 277.156 Q2135.47 270.791 2138.9 267.064 Q2142.35 263.314 2148.18 263.314 Q2153.41 263.314 2156.45 266.693 Q2159.5 270.05 2159.5 275.837 M2155.24 274.587 Q2155.2 271.092 2153.27 269.008 Q2151.38 266.925 2148.23 266.925 Q2144.66 266.925 2142.51 268.939 Q2140.38 270.953 2140.06 274.61 L2155.24 274.587 Z" fill="#000000" fill-rule="evenodd" fill-opacity="1" /><path clip-path="url(#clip800)" d="M2183.02 264.703 L2183.02 268.731 Q2181.21 267.805 2179.27 267.342 Q2177.33 266.879 2175.24 266.879 Q2172.07 266.879 2170.47 267.851 Q2168.9 268.823 2168.9 270.768 Q2168.9 272.249 2170.03 273.105 Q2171.17 273.939 2174.59 274.703 L2176.05 275.027 Q2180.59 275.999 2182.49 277.781 Q2184.41 279.541 2184.41 282.712 Q2184.41 286.323 2181.54 288.429 Q2178.69 290.536 2173.69 290.536 Q2171.61 290.536 2169.34 290.119 Q2167.09 289.726 2164.59 288.916 L2164.59 284.517 Q2166.96 285.744 2169.25 286.369 Q2171.54 286.971 2173.78 286.971 Q2176.79 286.971 2178.41 285.953 Q2180.03 284.911 2180.03 283.036 Q2180.03 281.3 2178.85 280.374 Q2177.7 279.448 2173.74 278.592 L2172.26 278.244 Q2168.3 277.411 2166.54 275.698 Q2164.78 273.962 2164.78 270.953 Q2164.78 267.295 2167.37 265.305 Q2169.96 263.314 2174.73 263.314 Q2177.09 263.314 2179.18 263.661 Q2181.26 264.008 2183.02 264.703 Z" fill="#000000" fill-rule="evenodd" fill-opacity="1" /></svg>
