<?xml version="1.0" encoding="utf-8"?>
<svg xmlns="http://www.w3.org/2000/svg" xmlns:xlink="http://www.w3.org/1999/xlink" width="600" height="400" viewBox="0 0 2400 1600">
<defs>
  <clipPath id="clip240">
    <rect x="0" y="0" width="2400" height="1600"/>
  </clipPath>
</defs>
<path clip-path="url(#clip240)" d="
M0 1600 L2400 1600 L2400 0 L0 0  Z
  " fill="#ffffff" fill-rule="evenodd" fill-opacity="1"/>
<defs>
  <clipPath id="clip241">
    <rect x="480" y="0" width="1681" height="1600"/>
  </clipPath>
</defs>
<path clip-path="url(#clip240)" d="
M232.389 1486.45 L2352.76 1486.45 L2352.76 47.2441 L232.389 47.2441  Z
  " fill="#ffffff" fill-rule="evenodd" fill-opacity="1"/>
<defs>
  <clipPath id="clip242">
    <rect x="232" y="47" width="2121" height="1440"/>
  </clipPath>
</defs>
<polyline clip-path="url(#clip242)" style="stroke:#000000; stroke-linecap:butt; stroke-linejoin:round; stroke-width:2; stroke-opacity:0.1; fill:none" points="
  263.409,1486.45 263.409,47.2441 
  "/>
<polyline clip-path="url(#clip242)" style="stroke:#000000; stroke-linecap:butt; stroke-linejoin:round; stroke-width:2; stroke-opacity:0.1; fill:none" points="
  843.22,1486.45 843.22,47.2441 
  "/>
<polyline clip-path="url(#clip242)" style="stroke:#000000; stroke-linecap:butt; stroke-linejoin:round; stroke-width:2; stroke-opacity:0.1; fill:none" points="
  1423.03,1486.45 1423.03,47.2441 
  "/>
<polyline clip-path="url(#clip242)" style="stroke:#000000; stroke-linecap:butt; stroke-linejoin:round; stroke-width:2; stroke-opacity:0.1; fill:none" points="
  2002.84,1486.45 2002.84,47.2441 
  "/>
<polyline clip-path="url(#clip240)" style="stroke:#000000; stroke-linecap:butt; stroke-linejoin:round; stroke-width:4; stroke-opacity:1; fill:none" points="
  232.389,1486.45 2352.76,1486.45 
  "/>
<polyline clip-path="url(#clip240)" style="stroke:#000000; stroke-linecap:butt; stroke-linejoin:round; stroke-width:4; stroke-opacity:1; fill:none" points="
  263.409,1486.45 263.409,1467.55 
  "/>
<polyline clip-path="url(#clip240)" style="stroke:#000000; stroke-linecap:butt; stroke-linejoin:round; stroke-width:4; stroke-opacity:1; fill:none" points="
  843.22,1486.45 843.22,1467.55 
  "/>
<polyline clip-path="url(#clip240)" style="stroke:#000000; stroke-linecap:butt; stroke-linejoin:round; stroke-width:4; stroke-opacity:1; fill:none" points="
  1423.03,1486.45 1423.03,1467.55 
  "/>
<polyline clip-path="url(#clip240)" style="stroke:#000000; stroke-linecap:butt; stroke-linejoin:round; stroke-width:4; stroke-opacity:1; fill:none" points="
  2002.84,1486.45 2002.84,1467.55 
  "/>
<path clip-path="url(#clip240)" d="M263.409 1515.64 Q259.798 1515.64 257.969 1519.2 Q256.164 1522.75 256.164 1529.87 Q256.164 1536.98 257.969 1540.55 Q259.798 1544.09 263.409 1544.09 Q267.043 1544.09 268.849 1540.55 Q270.678 1536.98 270.678 1529.87 Q270.678 1522.75 268.849 1519.2 Q267.043 1515.64 263.409 1515.64 M263.409 1511.93 Q269.219 1511.93 272.275 1516.54 Q275.354 1521.12 275.354 1529.87 Q275.354 1538.6 272.275 1543.21 Q269.219 1547.79 263.409 1547.79 Q257.599 1547.79 254.52 1543.21 Q251.465 1538.6 251.465 1529.87 Q251.465 1521.12 254.52 1516.54 Q257.599 1511.93 263.409 1511.93 Z" fill="#000000" fill-rule="evenodd" fill-opacity="1" /><path clip-path="url(#clip240)" d="M821.993 1543.18 L838.312 1543.18 L838.312 1547.12 L816.368 1547.12 L816.368 1543.18 Q819.03 1540.43 823.613 1535.8 Q828.22 1531.15 829.4 1529.81 Q831.646 1527.28 832.525 1525.55 Q833.428 1523.79 833.428 1522.1 Q833.428 1519.34 831.484 1517.61 Q829.562 1515.87 826.46 1515.87 Q824.261 1515.87 821.808 1516.63 Q819.377 1517.4 816.599 1518.95 L816.599 1514.23 Q819.423 1513.09 821.877 1512.51 Q824.331 1511.93 826.368 1511.93 Q831.738 1511.93 834.933 1514.62 Q838.127 1517.31 838.127 1521.8 Q838.127 1523.93 837.317 1525.85 Q836.53 1527.74 834.423 1530.34 Q833.845 1531.01 830.743 1534.23 Q827.641 1537.42 821.993 1543.18 Z" fill="#000000" fill-rule="evenodd" fill-opacity="1" /><path clip-path="url(#clip240)" d="M858.127 1515.64 Q854.516 1515.64 852.687 1519.2 Q850.882 1522.75 850.882 1529.87 Q850.882 1536.98 852.687 1540.55 Q854.516 1544.09 858.127 1544.09 Q861.761 1544.09 863.567 1540.55 Q865.395 1536.98 865.395 1529.87 Q865.395 1522.75 863.567 1519.2 Q861.761 1515.64 858.127 1515.64 M858.127 1511.93 Q863.937 1511.93 866.993 1516.54 Q870.071 1521.12 870.071 1529.87 Q870.071 1538.6 866.993 1543.21 Q863.937 1547.79 858.127 1547.79 Q852.317 1547.79 849.238 1543.21 Q846.183 1538.6 846.183 1529.87 Q846.183 1521.12 849.238 1516.54 Q852.317 1511.93 858.127 1511.93 Z" fill="#000000" fill-rule="evenodd" fill-opacity="1" /><path clip-path="url(#clip240)" d="M1411.2 1516.63 L1399.4 1535.08 L1411.2 1535.08 L1411.2 1516.63 M1409.97 1512.56 L1415.85 1512.56 L1415.85 1535.08 L1420.78 1535.08 L1420.78 1538.97 L1415.85 1538.97 L1415.85 1547.12 L1411.2 1547.12 L1411.2 1538.97 L1395.6 1538.97 L1395.6 1534.46 L1409.97 1512.56 Z" fill="#000000" fill-rule="evenodd" fill-opacity="1" /><path clip-path="url(#clip240)" d="M1438.52 1515.64 Q1434.9 1515.64 1433.08 1519.2 Q1431.27 1522.75 1431.27 1529.87 Q1431.27 1536.98 1433.08 1540.55 Q1434.9 1544.09 1438.52 1544.09 Q1442.15 1544.09 1443.96 1540.55 Q1445.78 1536.98 1445.78 1529.87 Q1445.78 1522.75 1443.96 1519.2 Q1442.15 1515.64 1438.52 1515.64 M1438.52 1511.93 Q1444.33 1511.93 1447.38 1516.54 Q1450.46 1521.12 1450.46 1529.87 Q1450.46 1538.6 1447.38 1543.21 Q1444.33 1547.79 1438.52 1547.79 Q1432.71 1547.79 1429.63 1543.21 Q1426.57 1538.6 1426.57 1529.87 Q1426.57 1521.12 1429.63 1516.54 Q1432.71 1511.93 1438.52 1511.93 Z" fill="#000000" fill-rule="evenodd" fill-opacity="1" /><path clip-path="url(#clip240)" d="M1988.25 1527.98 Q1985.1 1527.98 1983.25 1530.13 Q1981.42 1532.28 1981.42 1536.03 Q1981.42 1539.76 1983.25 1541.93 Q1985.1 1544.09 1988.25 1544.09 Q1991.39 1544.09 1993.22 1541.93 Q1995.07 1539.76 1995.07 1536.03 Q1995.07 1532.28 1993.22 1530.13 Q1991.39 1527.98 1988.25 1527.98 M1997.53 1513.32 L1997.53 1517.58 Q1995.77 1516.75 1993.96 1516.31 Q1992.18 1515.87 1990.42 1515.87 Q1985.79 1515.87 1983.34 1519 Q1980.91 1522.12 1980.56 1528.44 Q1981.93 1526.43 1983.99 1525.36 Q1986.05 1524.27 1988.52 1524.27 Q1993.73 1524.27 1996.74 1527.44 Q1999.77 1530.59 1999.77 1536.03 Q1999.77 1541.36 1996.63 1544.57 Q1993.48 1547.79 1988.25 1547.79 Q1982.25 1547.79 1979.08 1543.21 Q1975.91 1538.6 1975.91 1529.87 Q1975.91 1521.68 1979.8 1516.82 Q1983.69 1511.93 1990.24 1511.93 Q1992 1511.93 1993.78 1512.28 Q1995.58 1512.63 1997.53 1513.32 Z" fill="#000000" fill-rule="evenodd" fill-opacity="1" /><path clip-path="url(#clip240)" d="M2017.83 1515.64 Q2014.22 1515.64 2012.39 1519.2 Q2010.58 1522.75 2010.58 1529.87 Q2010.58 1536.98 2012.39 1540.55 Q2014.22 1544.09 2017.83 1544.09 Q2021.46 1544.09 2023.27 1540.55 Q2025.1 1536.98 2025.1 1529.87 Q2025.1 1522.75 2023.27 1519.2 Q2021.46 1515.64 2017.83 1515.64 M2017.83 1511.93 Q2023.64 1511.93 2026.69 1516.54 Q2029.77 1521.12 2029.77 1529.87 Q2029.77 1538.6 2026.69 1543.21 Q2023.64 1547.79 2017.83 1547.79 Q2012.02 1547.79 2008.94 1543.21 Q2005.88 1538.6 2005.88 1529.87 Q2005.88 1521.12 2008.94 1516.54 Q2012.02 1511.93 2017.83 1511.93 Z" fill="#000000" fill-rule="evenodd" fill-opacity="1" /><polyline clip-path="url(#clip242)" style="stroke:#000000; stroke-linecap:butt; stroke-linejoin:round; stroke-width:2; stroke-opacity:0.1; fill:none" points="
  232.389,1486.45 2352.76,1486.45 
  "/>
<polyline clip-path="url(#clip242)" style="stroke:#000000; stroke-linecap:butt; stroke-linejoin:round; stroke-width:2; stroke-opacity:0.1; fill:none" points="
  232.389,1198.61 2352.76,1198.61 
  "/>
<polyline clip-path="url(#clip242)" style="stroke:#000000; stroke-linecap:butt; stroke-linejoin:round; stroke-width:2; stroke-opacity:0.1; fill:none" points="
  232.389,910.766 2352.76,910.766 
  "/>
<polyline clip-path="url(#clip242)" style="stroke:#000000; stroke-linecap:butt; stroke-linejoin:round; stroke-width:2; stroke-opacity:0.1; fill:none" points="
  232.389,622.926 2352.76,622.926 
  "/>
<polyline clip-path="url(#clip242)" style="stroke:#000000; stroke-linecap:butt; stroke-linejoin:round; stroke-width:2; stroke-opacity:0.1; fill:none" points="
  232.389,335.085 2352.76,335.085 
  "/>
<polyline clip-path="url(#clip242)" style="stroke:#000000; stroke-linecap:butt; stroke-linejoin:round; stroke-width:2; stroke-opacity:0.1; fill:none" points="
  232.389,47.2441 2352.76,47.2441 
  "/>
<polyline clip-path="url(#clip240)" style="stroke:#000000; stroke-linecap:butt; stroke-linejoin:round; stroke-width:4; stroke-opacity:1; fill:none" points="
  232.389,1486.45 232.389,47.2441 
  "/>
<polyline clip-path="url(#clip240)" style="stroke:#000000; stroke-linecap:butt; stroke-linejoin:round; stroke-width:4; stroke-opacity:1; fill:none" points="
  232.389,1486.45 251.287,1486.45 
  "/>
<polyline clip-path="url(#clip240)" style="stroke:#000000; stroke-linecap:butt; stroke-linejoin:round; stroke-width:4; stroke-opacity:1; fill:none" points="
  232.389,1198.61 251.287,1198.61 
  "/>
<polyline clip-path="url(#clip240)" style="stroke:#000000; stroke-linecap:butt; stroke-linejoin:round; stroke-width:4; stroke-opacity:1; fill:none" points="
  232.389,910.766 251.287,910.766 
  "/>
<polyline clip-path="url(#clip240)" style="stroke:#000000; stroke-linecap:butt; stroke-linejoin:round; stroke-width:4; stroke-opacity:1; fill:none" points="
  232.389,622.926 251.287,622.926 
  "/>
<polyline clip-path="url(#clip240)" style="stroke:#000000; stroke-linecap:butt; stroke-linejoin:round; stroke-width:4; stroke-opacity:1; fill:none" points="
  232.389,335.085 251.287,335.085 
  "/>
<polyline clip-path="url(#clip240)" style="stroke:#000000; stroke-linecap:butt; stroke-linejoin:round; stroke-width:4; stroke-opacity:1; fill:none" points="
  232.389,47.2441 251.287,47.2441 
  "/>
<path clip-path="url(#clip240)" d="M184.445 1472.25 Q180.834 1472.25 179.005 1475.81 Q177.2 1479.35 177.2 1486.48 Q177.2 1493.59 179.005 1497.15 Q180.834 1500.7 184.445 1500.7 Q188.079 1500.7 189.885 1497.15 Q191.713 1493.59 191.713 1486.48 Q191.713 1479.35 189.885 1475.81 Q188.079 1472.25 184.445 1472.25 M184.445 1468.54 Q190.255 1468.54 193.311 1473.15 Q196.389 1477.73 196.389 1486.48 Q196.389 1495.21 193.311 1499.82 Q190.255 1504.4 184.445 1504.4 Q178.635 1504.4 175.556 1499.82 Q172.501 1495.21 172.501 1486.48 Q172.501 1477.73 175.556 1473.15 Q178.635 1468.54 184.445 1468.54 Z" fill="#000000" fill-rule="evenodd" fill-opacity="1" /><path clip-path="url(#clip240)" d="M148.311 1211.95 L164.63 1211.95 L164.63 1215.89 L142.686 1215.89 L142.686 1211.95 Q145.348 1209.2 149.931 1204.57 Q154.538 1199.91 155.718 1198.57 Q157.964 1196.05 158.843 1194.31 Q159.746 1192.55 159.746 1190.86 Q159.746 1188.11 157.802 1186.37 Q155.88 1184.64 152.778 1184.64 Q150.579 1184.64 148.126 1185.4 Q145.695 1186.17 142.917 1187.72 L142.917 1182.99 Q145.741 1181.86 148.195 1181.28 Q150.649 1180.7 152.686 1180.7 Q158.056 1180.7 161.251 1183.39 Q164.445 1186.07 164.445 1190.56 Q164.445 1192.69 163.635 1194.61 Q162.848 1196.51 160.741 1199.1 Q160.163 1199.78 157.061 1202.99 Q153.959 1206.19 148.311 1211.95 Z" fill="#000000" fill-rule="evenodd" fill-opacity="1" /><path clip-path="url(#clip240)" d="M184.445 1184.41 Q180.834 1184.41 179.005 1187.97 Q177.2 1191.51 177.2 1198.64 Q177.2 1205.75 179.005 1209.31 Q180.834 1212.85 184.445 1212.85 Q188.079 1212.85 189.885 1209.31 Q191.713 1205.75 191.713 1198.64 Q191.713 1191.51 189.885 1187.97 Q188.079 1184.41 184.445 1184.41 M184.445 1180.7 Q190.255 1180.7 193.311 1185.31 Q196.389 1189.89 196.389 1198.64 Q196.389 1207.37 193.311 1211.98 Q190.255 1216.56 184.445 1216.56 Q178.635 1216.56 175.556 1211.98 Q172.501 1207.37 172.501 1198.64 Q172.501 1189.89 175.556 1185.31 Q178.635 1180.7 184.445 1180.7 Z" fill="#000000" fill-rule="evenodd" fill-opacity="1" /><path clip-path="url(#clip240)" d="M157.13 897.56 L145.325 916.009 L157.13 916.009 L157.13 897.56 M155.903 893.486 L161.783 893.486 L161.783 916.009 L166.714 916.009 L166.714 919.898 L161.783 919.898 L161.783 928.046 L157.13 928.046 L157.13 919.898 L141.529 919.898 L141.529 915.384 L155.903 893.486 Z" fill="#000000" fill-rule="evenodd" fill-opacity="1" /><path clip-path="url(#clip240)" d="M184.445 896.565 Q180.834 896.565 179.005 900.13 Q177.2 903.671 177.2 910.801 Q177.2 917.908 179.005 921.472 Q180.834 925.014 184.445 925.014 Q188.079 925.014 189.885 921.472 Q191.713 917.908 191.713 910.801 Q191.713 903.671 189.885 900.13 Q188.079 896.565 184.445 896.565 M184.445 892.861 Q190.255 892.861 193.311 897.468 Q196.389 902.051 196.389 910.801 Q196.389 919.528 193.311 924.134 Q190.255 928.718 184.445 928.718 Q178.635 928.718 175.556 924.134 Q172.501 919.528 172.501 910.801 Q172.501 902.051 175.556 897.468 Q178.635 892.861 184.445 892.861 Z" fill="#000000" fill-rule="evenodd" fill-opacity="1" /><path clip-path="url(#clip240)" d="M154.862 621.062 Q151.714 621.062 149.862 623.215 Q148.033 625.368 148.033 629.118 Q148.033 632.845 149.862 635.02 Q151.714 637.173 154.862 637.173 Q158.01 637.173 159.839 635.02 Q161.69 632.845 161.69 629.118 Q161.69 625.368 159.839 623.215 Q158.01 621.062 154.862 621.062 M164.144 606.409 L164.144 610.669 Q162.385 609.835 160.579 609.396 Q158.797 608.956 157.038 608.956 Q152.408 608.956 149.954 612.081 Q147.524 615.206 147.177 621.525 Q148.542 619.511 150.603 618.446 Q152.663 617.359 155.14 617.359 Q160.348 617.359 163.357 620.53 Q166.39 623.678 166.39 629.118 Q166.39 634.442 163.241 637.659 Q160.093 640.877 154.862 640.877 Q148.866 640.877 145.695 636.294 Q142.524 631.687 142.524 622.96 Q142.524 614.766 146.413 609.905 Q150.302 605.021 156.853 605.021 Q158.612 605.021 160.394 605.368 Q162.2 605.715 164.144 606.409 Z" fill="#000000" fill-rule="evenodd" fill-opacity="1" /><path clip-path="url(#clip240)" d="M184.445 608.724 Q180.834 608.724 179.005 612.289 Q177.2 615.831 177.2 622.96 Q177.2 630.067 179.005 633.632 Q180.834 637.173 184.445 637.173 Q188.079 637.173 189.885 633.632 Q191.713 630.067 191.713 622.96 Q191.713 615.831 189.885 612.289 Q188.079 608.724 184.445 608.724 M184.445 605.021 Q190.255 605.021 193.311 609.627 Q196.389 614.21 196.389 622.96 Q196.389 631.687 193.311 636.294 Q190.255 640.877 184.445 640.877 Q178.635 640.877 175.556 636.294 Q172.501 631.687 172.501 622.96 Q172.501 614.21 175.556 609.627 Q178.635 605.021 184.445 605.021 Z" fill="#000000" fill-rule="evenodd" fill-opacity="1" /><path clip-path="url(#clip240)" d="M154.283 335.953 Q150.95 335.953 149.028 337.735 Q147.13 339.518 147.13 342.643 Q147.13 345.768 149.028 347.55 Q150.95 349.332 154.283 349.332 Q157.616 349.332 159.538 347.55 Q161.459 345.745 161.459 342.643 Q161.459 339.518 159.538 337.735 Q157.64 335.953 154.283 335.953 M149.607 333.962 Q146.598 333.221 144.908 331.161 Q143.241 329.101 143.241 326.138 Q143.241 321.995 146.181 319.587 Q149.144 317.18 154.283 317.18 Q159.445 317.18 162.385 319.587 Q165.325 321.995 165.325 326.138 Q165.325 329.101 163.635 331.161 Q161.968 333.221 158.982 333.962 Q162.362 334.749 164.237 337.041 Q166.135 339.333 166.135 342.643 Q166.135 347.666 163.056 350.351 Q160.001 353.036 154.283 353.036 Q148.566 353.036 145.487 350.351 Q142.431 347.666 142.431 342.643 Q142.431 339.333 144.329 337.041 Q146.228 334.749 149.607 333.962 M147.894 326.578 Q147.894 329.263 149.561 330.768 Q151.251 332.272 154.283 332.272 Q157.292 332.272 158.982 330.768 Q160.695 329.263 160.695 326.578 Q160.695 323.893 158.982 322.388 Q157.292 320.884 154.283 320.884 Q151.251 320.884 149.561 322.388 Q147.894 323.893 147.894 326.578 Z" fill="#000000" fill-rule="evenodd" fill-opacity="1" /><path clip-path="url(#clip240)" d="M184.445 320.884 Q180.834 320.884 179.005 324.448 Q177.2 327.99 177.2 335.12 Q177.2 342.226 179.005 345.791 Q180.834 349.332 184.445 349.332 Q188.079 349.332 189.885 345.791 Q191.713 342.226 191.713 335.12 Q191.713 327.99 189.885 324.448 Q188.079 320.884 184.445 320.884 M184.445 317.18 Q190.255 317.18 193.311 321.786 Q196.389 326.37 196.389 335.12 Q196.389 343.846 193.311 348.453 Q190.255 353.036 184.445 353.036 Q178.635 353.036 175.556 348.453 Q172.501 343.846 172.501 335.12 Q172.501 326.37 175.556 321.786 Q178.635 317.18 184.445 317.18 Z" fill="#000000" fill-rule="evenodd" fill-opacity="1" /><path clip-path="url(#clip240)" d="M114.931 60.5889 L122.57 60.5889 L122.57 34.2233 L114.26 35.89 L114.26 31.6308 L122.524 29.9641 L127.2 29.9641 L127.2 60.5889 L134.839 60.5889 L134.839 64.5241 L114.931 64.5241 L114.931 60.5889 Z" fill="#000000" fill-rule="evenodd" fill-opacity="1" /><path clip-path="url(#clip240)" d="M154.283 33.0428 Q150.672 33.0428 148.843 36.6076 Q147.038 40.1492 147.038 47.2788 Q147.038 54.3853 148.843 57.9501 Q150.672 61.4917 154.283 61.4917 Q157.917 61.4917 159.723 57.9501 Q161.552 54.3853 161.552 47.2788 Q161.552 40.1492 159.723 36.6076 Q157.917 33.0428 154.283 33.0428 M154.283 29.3391 Q160.093 29.3391 163.149 33.9456 Q166.227 38.5289 166.227 47.2788 Q166.227 56.0056 163.149 60.6121 Q160.093 65.1954 154.283 65.1954 Q148.473 65.1954 145.394 60.6121 Q142.339 56.0056 142.339 47.2788 Q142.339 38.5289 145.394 33.9456 Q148.473 29.3391 154.283 29.3391 Z" fill="#000000" fill-rule="evenodd" fill-opacity="1" /><path clip-path="url(#clip240)" d="M184.445 33.0428 Q180.834 33.0428 179.005 36.6076 Q177.2 40.1492 177.2 47.2788 Q177.2 54.3853 179.005 57.9501 Q180.834 61.4917 184.445 61.4917 Q188.079 61.4917 189.885 57.9501 Q191.713 54.3853 191.713 47.2788 Q191.713 40.1492 189.885 36.6076 Q188.079 33.0428 184.445 33.0428 M184.445 29.3391 Q190.255 29.3391 193.311 33.9456 Q196.389 38.5289 196.389 47.2788 Q196.389 56.0056 193.311 60.6121 Q190.255 65.1954 184.445 65.1954 Q178.635 65.1954 175.556 60.6121 Q172.501 56.0056 172.501 47.2788 Q172.501 38.5289 175.556 33.9456 Q178.635 29.3391 184.445 29.3391 Z" fill="#000000" fill-rule="evenodd" fill-opacity="1" /><path clip-path="url(#clip240)" d="M43.0928 1252.17 Q43.0928 1254.94 45.4481 1256.53 Q47.8034 1258.09 52.0048 1258.09 Q56.1425 1258.09 58.5296 1256.53 Q60.885 1254.94 60.885 1252.17 Q60.885 1249.46 58.5296 1247.9 Q56.1425 1246.31 52.0048 1246.31 Q47.8353 1246.31 45.48 1247.9 Q43.0928 1249.46 43.0928 1252.17 M39.0506 1252.17 Q39.0506 1247.14 42.5517 1244.18 Q46.0529 1241.22 52.0048 1241.22 Q57.9567 1241.22 61.4579 1244.21 Q64.9272 1247.17 64.9272 1252.17 Q64.9272 1257.26 61.4579 1260.22 Q57.9567 1263.18 52.0048 1263.18 Q46.021 1263.18 42.5517 1260.22 Q39.0506 1257.23 39.0506 1252.17 M19.667 1285.01 Q19.667 1287.75 22.0542 1289.34 Q24.4095 1290.9 28.5472 1290.9 Q32.7485 1290.9 35.1038 1289.34 Q37.4592 1287.78 37.4592 1285.01 Q37.4592 1282.25 35.1038 1280.69 Q32.7485 1279.09 28.5472 1279.09 Q24.4413 1279.09 22.0542 1280.69 Q19.667 1282.28 19.667 1285.01 M15.6248 1256.27 L15.6248 1251.18 L64.9272 1280.91 L64.9272 1286 L15.6248 1256.27 M15.6248 1285.01 Q15.6248 1279.99 19.1259 1276.99 Q22.5952 1274 28.5472 1274 Q34.5628 1274 38.0321 1276.99 Q41.5014 1279.95 41.5014 1285.01 Q41.5014 1290.08 38.0321 1293.04 Q34.5309 1295.96 28.5472 1295.96 Q22.6271 1295.96 19.1259 1293 Q15.6248 1290.04 15.6248 1285.01 Z" fill="#000000" fill-rule="evenodd" fill-opacity="1" /><path clip-path="url(#clip240)" d="M28.3562 1214.96 L28.3562 1208.75 L58.275 1197.61 L28.3562 1186.47 L28.3562 1180.27 L64.0042 1193.63 L64.0042 1201.59 L28.3562 1214.96 Z" fill="#000000" fill-rule="evenodd" fill-opacity="1" /><path clip-path="url(#clip240)" d="M46.0847 1155.98 Q46.0847 1163.08 47.7079 1165.82 Q49.3312 1168.55 53.2461 1168.55 Q56.3653 1168.55 58.2114 1166.52 Q60.0256 1164.45 60.0256 1160.92 Q60.0256 1156.05 56.5881 1153.12 Q53.1188 1150.16 47.3897 1150.16 L46.0847 1150.16 L46.0847 1155.98 M43.6657 1144.3 L64.0042 1144.3 L64.0042 1150.16 L58.5933 1150.16 Q61.8398 1152.16 63.3994 1155.15 Q64.9272 1158.15 64.9272 1162.47 Q64.9272 1167.95 61.8716 1171.2 Q58.7843 1174.41 53.6281 1174.41 Q47.6125 1174.41 44.5569 1170.4 Q41.5014 1166.36 41.5014 1158.37 L41.5014 1150.16 L40.9285 1150.16 Q36.8862 1150.16 34.6901 1152.83 Q32.4621 1155.47 32.4621 1160.28 Q32.4621 1163.33 33.1941 1166.23 Q33.9262 1169.13 35.3903 1171.8 L29.9795 1171.8 Q28.7381 1168.59 28.1334 1165.56 Q27.4968 1162.54 27.4968 1159.67 Q27.4968 1151.94 31.5072 1148.12 Q35.5176 1144.3 43.6657 1144.3 Z" fill="#000000" fill-rule="evenodd" fill-opacity="1" /><path clip-path="url(#clip240)" d="M33.8307 1111.58 Q33.2578 1112.57 33.0032 1113.75 Q32.7167 1114.89 32.7167 1116.29 Q32.7167 1121.26 35.9632 1123.93 Q39.1779 1126.57 45.2253 1126.57 L64.0042 1126.57 L64.0042 1132.46 L28.3562 1132.46 L28.3562 1126.57 L33.8944 1126.57 Q30.6479 1124.73 29.0883 1121.77 Q27.4968 1118.81 27.4968 1114.57 Q27.4968 1113.97 27.5923 1113.24 Q27.656 1112.5 27.8151 1111.61 L33.8307 1111.58 Z" fill="#000000" fill-rule="evenodd" fill-opacity="1" /><path clip-path="url(#clip240)" d="M28.3562 1105.44 L28.3562 1099.58 L64.0042 1099.58 L64.0042 1105.44 L28.3562 1105.44 M14.479 1105.44 L14.479 1099.58 L21.895 1099.58 L21.895 1105.44 L14.479 1105.44 Z" fill="#000000" fill-rule="evenodd" fill-opacity="1" /><path clip-path="url(#clip240)" d="M46.0847 1071.13 Q46.0847 1078.22 47.7079 1080.96 Q49.3312 1083.7 53.2461 1083.7 Q56.3653 1083.7 58.2114 1081.66 Q60.0256 1079.59 60.0256 1076.06 Q60.0256 1071.19 56.5881 1068.26 Q53.1188 1065.3 47.3897 1065.3 L46.0847 1065.3 L46.0847 1071.13 M43.6657 1059.45 L64.0042 1059.45 L64.0042 1065.3 L58.5933 1065.3 Q61.8398 1067.31 63.3994 1070.3 Q64.9272 1073.29 64.9272 1077.62 Q64.9272 1083.09 61.8716 1086.34 Q58.7843 1089.56 53.6281 1089.56 Q47.6125 1089.56 44.5569 1085.55 Q41.5014 1081.5 41.5014 1073.51 L41.5014 1065.3 L40.9285 1065.3 Q36.8862 1065.3 34.6901 1067.98 Q32.4621 1070.62 32.4621 1075.42 Q32.4621 1078.48 33.1941 1081.38 Q33.9262 1084.27 35.3903 1086.95 L29.9795 1086.95 Q28.7381 1083.73 28.1334 1080.71 Q27.4968 1077.68 27.4968 1074.82 Q27.4968 1067.08 31.5072 1063.27 Q35.5176 1059.45 43.6657 1059.45 Z" fill="#000000" fill-rule="evenodd" fill-opacity="1" /><path clip-path="url(#clip240)" d="M18.2347 1041.59 L28.3562 1041.59 L28.3562 1029.53 L32.9077 1029.53 L32.9077 1041.59 L52.2594 1041.59 Q56.6199 1041.59 57.8613 1040.41 Q59.1026 1039.2 59.1026 1035.54 L59.1026 1029.53 L64.0042 1029.53 L64.0042 1035.54 Q64.0042 1042.32 61.4897 1044.9 Q58.9434 1047.48 52.2594 1047.48 L32.9077 1047.48 L32.9077 1051.78 L28.3562 1051.78 L28.3562 1047.48 L18.2347 1047.48 L18.2347 1041.59 Z" fill="#000000" fill-rule="evenodd" fill-opacity="1" /><path clip-path="url(#clip240)" d="M28.3562 1021.82 L28.3562 1015.97 L64.0042 1015.97 L64.0042 1021.82 L28.3562 1021.82 M14.479 1021.82 L14.479 1015.97 L21.895 1015.97 L21.895 1021.82 L14.479 1021.82 Z" fill="#000000" fill-rule="evenodd" fill-opacity="1" /><path clip-path="url(#clip240)" d="M32.4621 989.9 Q32.4621 994.611 36.1542 997.348 Q39.8145 1000.09 46.212 1000.09 Q52.6095 1000.09 56.3017 997.38 Q59.9619 994.643 59.9619 989.9 Q59.9619 985.222 56.2698 982.484 Q52.5777 979.747 46.212 979.747 Q39.8781 979.747 36.186 982.484 Q32.4621 985.222 32.4621 989.9 M27.4968 989.9 Q27.4968 982.261 32.4621 977.901 Q37.4273 973.54 46.212 973.54 Q54.9649 973.54 59.9619 977.901 Q64.9272 982.261 64.9272 989.9 Q64.9272 997.571 59.9619 1001.93 Q54.9649 1006.26 46.212 1006.26 Q37.4273 1006.26 32.4621 1001.93 Q27.4968 997.571 27.4968 989.9 Z" fill="#000000" fill-rule="evenodd" fill-opacity="1" /><path clip-path="url(#clip240)" d="M42.4881 934.2 L64.0042 934.2 L64.0042 940.057 L42.679 940.057 Q37.6183 940.057 35.1038 942.03 Q32.5894 944.004 32.5894 947.95 Q32.5894 952.693 35.6131 955.43 Q38.6368 958.167 43.8567 958.167 L64.0042 958.167 L64.0042 964.056 L28.3562 964.056 L28.3562 958.167 L33.8944 958.167 Q30.6797 956.067 29.0883 953.234 Q27.4968 950.369 27.4968 946.645 Q27.4968 940.502 31.3163 937.351 Q35.1038 934.2 42.4881 934.2 Z" fill="#000000" fill-rule="evenodd" fill-opacity="1" /><path clip-path="url(#clip240)" d="M28.3562 905.205 L28.3562 899.348 L56.1743 892.028 L28.3562 884.739 L28.3562 877.832 L56.1743 870.512 L28.3562 863.223 L28.3562 857.366 L64.0042 866.692 L64.0042 873.599 L34.7856 881.27 L64.0042 888.972 L64.0042 895.879 L28.3562 905.205 Z" fill="#000000" fill-rule="evenodd" fill-opacity="1" /><path clip-path="url(#clip240)" d="M16.4842 838.078 L16.4842 832.667 L70.0516 849.218 L70.0516 854.629 L16.4842 838.078 Z" fill="#000000" fill-rule="evenodd" fill-opacity="1" /><path clip-path="url(#clip240)" d="M33.8307 805.868 Q33.2578 806.854 33.0032 808.032 Q32.7167 809.178 32.7167 810.578 Q32.7167 815.544 35.9632 818.217 Q39.1779 820.859 45.2253 820.859 L64.0042 820.859 L64.0042 826.747 L28.3562 826.747 L28.3562 820.859 L33.8944 820.859 Q30.6479 819.013 29.0883 816.053 Q27.4968 813.093 27.4968 808.86 Q27.4968 808.255 27.5923 807.523 Q27.656 806.791 27.8151 805.9 L33.8307 805.868 Z" fill="#000000" fill-rule="evenodd" fill-opacity="1" /><path clip-path="url(#clip240)" d="M18.2347 773.212 L28.3562 773.212 L28.3562 761.149 L32.9077 761.149 L32.9077 773.212 L52.2594 773.212 Q56.6199 773.212 57.8613 772.034 Q59.1026 770.825 59.1026 767.164 L59.1026 761.149 L64.0042 761.149 L64.0042 767.164 Q64.0042 773.944 61.4897 776.522 Q58.9434 779.1 52.2594 779.1 L32.9077 779.1 L32.9077 783.397 L28.3562 783.397 L28.3562 779.1 L18.2347 779.1 L18.2347 773.212 Z" fill="#000000" fill-rule="evenodd" fill-opacity="1" /><path clip-path="url(#clip240)" d="M32.4621 739.633 Q32.4621 744.343 36.1542 747.08 Q39.8145 749.818 46.212 749.818 Q52.6095 749.818 56.3017 747.112 Q59.9619 744.375 59.9619 739.633 Q59.9619 734.954 56.2698 732.217 Q52.5777 729.479 46.212 729.479 Q39.8781 729.479 36.186 732.217 Q32.4621 734.954 32.4621 739.633 M27.4968 739.633 Q27.4968 731.994 32.4621 727.633 Q37.4273 723.273 46.212 723.273 Q54.9649 723.273 59.9619 727.633 Q64.9272 731.994 64.9272 739.633 Q64.9272 747.303 59.9619 751.664 Q54.9649 755.992 46.212 755.992 Q37.4273 755.992 32.4621 751.664 Q27.4968 747.303 27.4968 739.633 Z" fill="#000000" fill-rule="evenodd" fill-opacity="1" /><path clip-path="url(#clip240)" d="M28.3562 692.845 L28.3562 686.988 L64.0042 686.988 L64.0042 692.845 L28.3562 692.845 M14.479 692.845 L14.479 686.988 L21.895 686.988 L21.895 692.845 L14.479 692.845 Z" fill="#000000" fill-rule="evenodd" fill-opacity="1" /><path clip-path="url(#clip240)" d="M42.4881 645.102 L64.0042 645.102 L64.0042 650.958 L42.679 650.958 Q37.6183 650.958 35.1038 652.932 Q32.5894 654.905 32.5894 658.852 Q32.5894 663.594 35.6131 666.331 Q38.6368 669.069 43.8567 669.069 L64.0042 669.069 L64.0042 674.957 L28.3562 674.957 L28.3562 669.069 L33.8944 669.069 Q30.6797 666.968 29.0883 664.135 Q27.4968 661.271 27.4968 657.547 Q27.4968 651.404 31.3163 648.253 Q35.1038 645.102 42.4881 645.102 Z" fill="#000000" fill-rule="evenodd" fill-opacity="1" /><path clip-path="url(#clip240)" d="M28.3562 633.421 L28.3562 627.564 L64.0042 627.564 L64.0042 633.421 L28.3562 633.421 M14.479 633.421 L14.479 627.564 L21.895 627.564 L21.895 633.421 L14.479 633.421 Z" fill="#000000" fill-rule="evenodd" fill-opacity="1" /><path clip-path="url(#clip240)" d="M18.2347 609.518 L28.3562 609.518 L28.3562 597.455 L32.9077 597.455 L32.9077 609.518 L52.2594 609.518 Q56.6199 609.518 57.8613 608.34 Q59.1026 607.13 59.1026 603.47 L59.1026 597.455 L64.0042 597.455 L64.0042 603.47 Q64.0042 610.25 61.4897 612.828 Q58.9434 615.406 52.2594 615.406 L32.9077 615.406 L32.9077 619.703 L28.3562 619.703 L28.3562 615.406 L18.2347 615.406 L18.2347 609.518 Z" fill="#000000" fill-rule="evenodd" fill-opacity="1" /><path clip-path="url(#clip240)" d="M28.3562 589.752 L28.3562 583.896 L64.0042 583.896 L64.0042 589.752 L28.3562 589.752 M14.479 589.752 L14.479 583.896 L21.895 583.896 L21.895 589.752 L14.479 589.752 Z" fill="#000000" fill-rule="evenodd" fill-opacity="1" /><path clip-path="url(#clip240)" d="M46.0847 555.441 Q46.0847 562.539 47.7079 565.276 Q49.3312 568.013 53.2461 568.013 Q56.3653 568.013 58.2114 565.976 Q60.0256 563.907 60.0256 560.374 Q60.0256 555.505 56.5881 552.576 Q53.1188 549.616 47.3897 549.616 L46.0847 549.616 L46.0847 555.441 M43.6657 543.76 L64.0042 543.76 L64.0042 549.616 L58.5933 549.616 Q61.8398 551.621 63.3994 554.613 Q64.9272 557.605 64.9272 561.934 Q64.9272 567.408 61.8716 570.655 Q58.7843 573.87 53.6281 573.87 Q47.6125 573.87 44.5569 569.859 Q41.5014 565.817 41.5014 557.828 L41.5014 549.616 L40.9285 549.616 Q36.8862 549.616 34.6901 552.29 Q32.4621 554.932 32.4621 559.738 Q32.4621 562.793 33.1941 565.69 Q33.9262 568.586 35.3903 571.26 L29.9795 571.26 Q28.7381 568.045 28.1334 565.021 Q27.4968 561.998 27.4968 559.133 Q27.4968 551.399 31.5072 547.579 Q35.5176 543.76 43.6657 543.76 Z" fill="#000000" fill-rule="evenodd" fill-opacity="1" /><path clip-path="url(#clip240)" d="M14.479 531.697 L14.479 525.84 L64.0042 525.84 L64.0042 531.697 L14.479 531.697 Z" fill="#000000" fill-rule="evenodd" fill-opacity="1" /><path clip-path="url(#clip240)" d="M35.1993 465.111 Q31.2526 462.915 29.3747 459.86 Q27.4968 456.804 27.4968 452.667 Q27.4968 447.097 31.4117 444.073 Q35.2948 441.049 42.4881 441.049 L64.0042 441.049 L64.0042 446.937 L42.679 446.937 Q37.5546 446.937 35.072 448.752 Q32.5894 450.566 32.5894 454.29 Q32.5894 458.841 35.6131 461.483 Q38.6368 464.125 43.8567 464.125 L64.0042 464.125 L64.0042 470.013 L42.679 470.013 Q37.5228 470.013 35.072 471.827 Q32.5894 473.642 32.5894 477.429 Q32.5894 481.917 35.6449 484.559 Q38.6686 487.2 43.8567 487.2 L64.0042 487.2 L64.0042 493.089 L28.3562 493.089 L28.3562 487.2 L33.8944 487.2 Q30.616 485.195 29.0564 482.394 Q27.4968 479.593 27.4968 475.742 Q27.4968 471.859 29.4702 469.154 Q31.4436 466.416 35.1993 465.111 Z" fill="#000000" fill-rule="evenodd" fill-opacity="1" /><path clip-path="url(#clip240)" d="M32.4621 415.554 Q32.4621 420.265 36.1542 423.002 Q39.8145 425.74 46.212 425.74 Q52.6095 425.74 56.3017 423.034 Q59.9619 420.297 59.9619 415.554 Q59.9619 410.876 56.2698 408.138 Q52.5777 405.401 46.212 405.401 Q39.8781 405.401 36.186 408.138 Q32.4621 410.876 32.4621 415.554 M27.4968 415.554 Q27.4968 407.916 32.4621 403.555 Q37.4273 399.195 46.212 399.195 Q54.9649 399.195 59.9619 403.555 Q64.9272 407.916 64.9272 415.554 Q64.9272 423.225 59.9619 427.586 Q54.9649 431.914 46.212 431.914 Q37.4273 431.914 32.4621 427.586 Q27.4968 423.225 27.4968 415.554 Z" fill="#000000" fill-rule="evenodd" fill-opacity="1" /><path clip-path="url(#clip240)" d="M46.212 363.897 Q39.7508 363.897 36.0905 366.57 Q32.3984 369.212 32.3984 373.859 Q32.3984 378.506 36.0905 381.18 Q39.7508 383.821 46.212 383.821 Q52.6732 383.821 56.3653 381.18 Q60.0256 378.506 60.0256 373.859 Q60.0256 369.212 56.3653 366.57 Q52.6732 363.897 46.212 363.897 M33.7671 383.821 Q30.5842 381.975 29.0564 379.174 Q27.4968 376.342 27.4968 372.427 Q27.4968 365.934 32.6531 361.892 Q37.8093 357.818 46.212 357.818 Q54.6147 357.818 59.771 361.892 Q64.9272 365.934 64.9272 372.427 Q64.9272 376.342 63.3994 379.174 Q61.8398 381.975 58.657 383.821 L64.0042 383.821 L64.0042 389.71 L14.479 389.71 L14.479 383.821 L33.7671 383.821 Z" fill="#000000" fill-rule="evenodd" fill-opacity="1" /><path clip-path="url(#clip240)" d="M28.3562 348.11 L28.3562 342.253 L64.0042 342.253 L64.0042 348.11 L28.3562 348.11 M14.479 348.11 L14.479 342.253 L21.895 342.253 L21.895 348.11 L14.479 348.11 Z" fill="#000000" fill-rule="evenodd" fill-opacity="1" /><path clip-path="url(#clip240)" d="M14.479 329.999 L14.479 324.143 L64.0042 324.143 L64.0042 329.999 L14.479 329.999 Z" fill="#000000" fill-rule="evenodd" fill-opacity="1" /><path clip-path="url(#clip240)" d="M28.3562 311.889 L28.3562 306.032 L64.0042 306.032 L64.0042 311.889 L28.3562 311.889 M14.479 311.889 L14.479 306.032 L21.895 306.032 L21.895 311.889 L14.479 311.889 Z" fill="#000000" fill-rule="evenodd" fill-opacity="1" /><path clip-path="url(#clip240)" d="M18.2347 287.986 L28.3562 287.986 L28.3562 275.923 L32.9077 275.923 L32.9077 287.986 L52.2594 287.986 Q56.6199 287.986 57.8613 286.808 Q59.1026 285.599 59.1026 281.938 L59.1026 275.923 L64.0042 275.923 L64.0042 281.938 Q64.0042 288.718 61.4897 291.296 Q58.9434 293.874 52.2594 293.874 L32.9077 293.874 L32.9077 298.171 L28.3562 298.171 L28.3562 293.874 L18.2347 293.874 L18.2347 287.986 Z" fill="#000000" fill-rule="evenodd" fill-opacity="1" /><path clip-path="url(#clip240)" d="M67.3143 253.388 Q73.68 255.871 75.6216 258.226 Q77.5631 260.581 77.5631 264.528 L77.5631 269.207 L72.6615 269.207 L72.6615 265.769 Q72.6615 263.35 71.5157 262.014 Q70.3699 260.677 66.1048 259.054 L63.4312 258.003 L28.3562 272.422 L28.3562 266.215 L56.238 255.075 L28.3562 243.935 L28.3562 237.728 L67.3143 253.388 Z" fill="#000000" fill-rule="evenodd" fill-opacity="1" /><polyline clip-path="url(#clip242)" style="stroke:#009af9; stroke-linecap:butt; stroke-linejoin:round; stroke-width:4; stroke-opacity:1; fill:none" points="
  292.4,62.5478 321.39,38.8619 350.381,270.494 379.371,424.536 408.362,436.657 437.352,414.656 466.343,426.354 495.333,449.485 524.324,399.228 553.314,373.327 
  582.305,473.742 611.295,507.683 640.286,495.535 669.276,503.793 698.267,528.26 727.258,508.679 756.248,517.882 785.239,463.77 814.229,474.752 843.22,452.692 
  872.21,444.686 901.201,418.253 930.191,406.633 959.182,378.551 988.172,347.012 1017.16,340.313 1046.15,318.178 1075.14,249.856 1104.13,262.134 1133.12,247.528 
  1162.12,214.938 1191.11,219.697 1220.1,222.529 1249.09,211.326 1278.08,195.059 1307.07,209.234 1336.06,175.841 1365.05,134.34 1394.04,146.724 1423.03,138.158 
  1452.02,142.665 1481.01,177.533 1510,180.29 1538.99,181.334 1567.98,182.68 1596.97,211.38 1625.96,201.392 1654.95,215.961 1683.94,207.712 1712.94,212.589 
  1741.93,177.617 1770.92,146.694 1799.91,151.027 1828.9,181.248 1857.89,225.596 1886.88,312.075 1915.87,302.544 1944.86,300.098 1973.85,274.003 2002.84,242.745 
  2031.83,243.058 2060.82,235.614 2089.81,202.945 2118.8,180.201 2147.79,212.105 2176.78,233.447 2205.77,240.945 2234.76,137.112 2263.76,161.932 2292.75,148.418 
  
  "/>
<polyline clip-path="url(#clip242)" style="stroke:#e26f46; stroke-linecap:butt; stroke-linejoin:round; stroke-width:4; stroke-opacity:1; fill:none" points="
  292.4,62.9438 321.39,49.4282 350.381,525.689 379.371,737.629 408.362,840.048 437.352,853.363 466.343,802.314 495.333,711.423 524.324,678.404 553.314,681.736 
  582.305,700.11 611.295,845.498 640.286,798.278 669.276,824.363 698.267,830.114 727.258,821.633 756.248,833.033 785.239,798.521 814.229,809.19 843.22,776.986 
  872.21,771.176 901.201,691.425 930.191,635.343 959.182,616.574 988.172,583.304 1017.16,585.073 1046.15,540.611 1075.14,477.233 1104.13,532.103 1133.12,504.48 
  1162.12,480.113 1191.11,482.525 1220.1,483.355 1249.09,440.566 1278.08,411.66 1307.07,501.256 1336.06,475.316 1365.05,422.254 1394.04,433.018 1423.03,424.848 
  1452.02,438.663 1481.01,477.117 1510,486.732 1538.99,486.807 1567.98,512.562 1596.97,519.744 1625.96,521.461 1654.95,505.196 1683.94,540.371 1712.94,510.775 
  1741.93,488.356 1770.92,424.611 1799.91,440.409 1828.9,466.974 1857.89,477.786 1886.88,686.884 1915.87,668.605 1944.86,661.904 1973.85,720.919 2002.84,692.91 
  2031.83,433.492 2060.82,451.597 2089.81,426.292 2118.8,448.222 2147.79,478.006 2176.78,621.038 2205.77,607.181 2234.76,457.427 2263.76,453.084 2292.75,446.938 
  
  "/>
<path clip-path="url(#clip240)" d="
M1719.12 1438.47 L2282.08 1438.47 L2282.08 1282.95 L1719.12 1282.95  Z
  " fill="#ffffff" fill-rule="evenodd" fill-opacity="1"/>
<polyline clip-path="url(#clip240)" style="stroke:#000000; stroke-linecap:butt; stroke-linejoin:round; stroke-width:4; stroke-opacity:1; fill:none" points="
  1719.12,1438.47 2282.08,1438.47 2282.08,1282.95 1719.12,1282.95 1719.12,1438.47 
  "/>
<polyline clip-path="url(#clip240)" style="stroke:#009af9; stroke-linecap:butt; stroke-linejoin:round; stroke-width:4; stroke-opacity:1; fill:none" points="
  1742.68,1334.79 1884.04,1334.79 
  "/>
<path clip-path="url(#clip240)" d="M1927.95 1331.13 Q1929.54 1328.26 1931.76 1326.89 Q1933.99 1325.52 1937 1325.52 Q1941.05 1325.52 1943.25 1328.37 Q1945.45 1331.19 1945.45 1336.43 L1945.45 1352.07 L1941.16 1352.07 L1941.16 1336.57 Q1941.16 1332.84 1939.84 1331.03 Q1938.52 1329.23 1935.82 1329.23 Q1932.51 1329.23 1930.58 1331.43 Q1928.66 1333.63 1928.66 1337.42 L1928.66 1352.07 L1924.38 1352.07 L1924.38 1336.57 Q1924.38 1332.82 1923.06 1331.03 Q1921.74 1329.23 1918.99 1329.23 Q1915.72 1329.23 1913.8 1331.45 Q1911.88 1333.65 1911.88 1337.42 L1911.88 1352.07 L1907.6 1352.07 L1907.6 1326.15 L1911.88 1326.15 L1911.88 1330.18 Q1913.34 1327.79 1915.38 1326.66 Q1917.41 1325.52 1920.21 1325.52 Q1923.04 1325.52 1925.01 1326.96 Q1927 1328.39 1927.95 1331.13 Z" fill="#000000" fill-rule="evenodd" fill-opacity="1" /><path clip-path="url(#clip240)" d="M1953.5 1341.84 L1953.5 1326.15 L1957.76 1326.15 L1957.76 1341.68 Q1957.76 1345.36 1959.2 1347.21 Q1960.63 1349.04 1963.5 1349.04 Q1966.95 1349.04 1968.94 1346.84 Q1970.95 1344.64 1970.95 1340.85 L1970.95 1326.15 L1975.21 1326.15 L1975.21 1352.07 L1970.95 1352.07 L1970.95 1348.09 Q1969.4 1350.45 1967.34 1351.61 Q1965.31 1352.75 1962.6 1352.75 Q1958.13 1352.75 1955.82 1349.97 Q1953.5 1347.19 1953.5 1341.84 M1964.22 1325.52 L1964.22 1325.52 Z" fill="#000000" fill-rule="evenodd" fill-opacity="1" /><path clip-path="url(#clip240)" d="M2005.54 1336.43 L2005.54 1352.07 L2001.28 1352.07 L2001.28 1336.57 Q2001.28 1332.88 1999.84 1331.06 Q1998.41 1329.23 1995.54 1329.23 Q1992.09 1329.23 1990.1 1331.43 Q1988.11 1333.63 1988.11 1337.42 L1988.11 1352.07 L1983.82 1352.07 L1983.82 1326.15 L1988.11 1326.15 L1988.11 1330.18 Q1989.64 1327.84 1991.7 1326.68 Q1993.78 1325.52 1996.49 1325.52 Q2000.95 1325.52 2003.25 1328.3 Q2005.54 1331.06 2005.54 1336.43 Z" fill="#000000" fill-rule="evenodd" fill-opacity="1" /><path clip-path="url(#clip240)" d="M2014.03 1326.15 L2018.29 1326.15 L2018.29 1352.07 L2014.03 1352.07 L2014.03 1326.15 M2014.03 1316.06 L2018.29 1316.06 L2018.29 1321.45 L2014.03 1321.45 L2014.03 1316.06 Z" fill="#000000" fill-rule="evenodd" fill-opacity="1" /><path clip-path="url(#clip240)" d="M2045.86 1327.14 L2045.86 1331.13 Q2044.06 1330.13 2042.23 1329.64 Q2040.42 1329.13 2038.57 1329.13 Q2034.43 1329.13 2032.13 1331.77 Q2029.84 1334.39 2029.84 1339.13 Q2029.84 1343.88 2032.13 1346.52 Q2034.43 1349.13 2038.57 1349.13 Q2040.42 1349.13 2042.23 1348.65 Q2044.06 1348.14 2045.86 1347.14 L2045.86 1351.08 Q2044.08 1351.91 2042.16 1352.33 Q2040.26 1352.75 2038.11 1352.75 Q2032.25 1352.75 2028.8 1349.07 Q2025.35 1345.38 2025.35 1339.13 Q2025.35 1332.79 2028.82 1329.16 Q2032.32 1325.52 2038.38 1325.52 Q2040.35 1325.52 2042.23 1325.94 Q2044.1 1326.33 2045.86 1327.14 Z" fill="#000000" fill-rule="evenodd" fill-opacity="1" /><path clip-path="url(#clip240)" d="M2053.27 1326.15 L2057.53 1326.15 L2057.53 1352.07 L2053.27 1352.07 L2053.27 1326.15 M2053.27 1316.06 L2057.53 1316.06 L2057.53 1321.45 L2053.27 1321.45 L2053.27 1316.06 Z" fill="#000000" fill-rule="evenodd" fill-opacity="1" /><path clip-path="url(#clip240)" d="M2070.56 1348.19 L2070.56 1361.94 L2066.28 1361.94 L2066.28 1326.15 L2070.56 1326.15 L2070.56 1330.08 Q2071.9 1327.77 2073.94 1326.66 Q2076 1325.52 2078.85 1325.52 Q2083.57 1325.52 2086.51 1329.27 Q2089.47 1333.02 2089.47 1339.13 Q2089.47 1345.25 2086.51 1349 Q2083.57 1352.75 2078.85 1352.75 Q2076 1352.75 2073.94 1351.63 Q2071.9 1350.5 2070.56 1348.19 M2085.05 1339.13 Q2085.05 1334.44 2083.11 1331.77 Q2081.19 1329.09 2077.81 1329.09 Q2074.43 1329.09 2072.48 1331.77 Q2070.56 1334.44 2070.56 1339.13 Q2070.56 1343.83 2072.48 1346.52 Q2074.43 1349.18 2077.81 1349.18 Q2081.19 1349.18 2083.11 1346.52 Q2085.05 1343.83 2085.05 1339.13 Z" fill="#000000" fill-rule="evenodd" fill-opacity="1" /><path clip-path="url(#clip240)" d="M2108.31 1339.04 Q2103.15 1339.04 2101.16 1340.22 Q2099.17 1341.4 2099.17 1344.25 Q2099.17 1346.52 2100.65 1347.86 Q2102.16 1349.18 2104.73 1349.18 Q2108.27 1349.18 2110.4 1346.68 Q2112.55 1344.16 2112.55 1339.99 L2112.55 1339.04 L2108.31 1339.04 M2116.81 1337.28 L2116.81 1352.07 L2112.55 1352.07 L2112.55 1348.14 Q2111.09 1350.5 2108.92 1351.63 Q2106.74 1352.75 2103.59 1352.75 Q2099.61 1352.75 2097.25 1350.52 Q2094.91 1348.28 2094.91 1344.53 Q2094.91 1340.15 2097.83 1337.93 Q2100.77 1335.71 2106.58 1335.71 L2112.55 1335.71 L2112.55 1335.29 Q2112.55 1332.35 2110.61 1330.76 Q2108.69 1329.13 2105.19 1329.13 Q2102.97 1329.13 2100.86 1329.67 Q2098.75 1330.2 2096.81 1331.26 L2096.81 1327.33 Q2099.15 1326.43 2101.35 1325.99 Q2103.55 1325.52 2105.63 1325.52 Q2111.25 1325.52 2114.03 1328.44 Q2116.81 1331.36 2116.81 1337.28 Z" fill="#000000" fill-rule="evenodd" fill-opacity="1" /><path clip-path="url(#clip240)" d="M2125.58 1316.06 L2129.84 1316.06 L2129.84 1352.07 L2125.58 1352.07 L2125.58 1316.06 Z" fill="#000000" fill-rule="evenodd" fill-opacity="1" /><path clip-path="url(#clip240)" d="M2138.75 1326.15 L2143.01 1326.15 L2143.01 1352.07 L2138.75 1352.07 L2138.75 1326.15 M2138.75 1316.06 L2143.01 1316.06 L2143.01 1321.45 L2138.75 1321.45 L2138.75 1316.06 Z" fill="#000000" fill-rule="evenodd" fill-opacity="1" /><path clip-path="url(#clip240)" d="M2156.14 1318.79 L2156.14 1326.15 L2164.91 1326.15 L2164.91 1329.46 L2156.14 1329.46 L2156.14 1343.53 Q2156.14 1346.7 2157 1347.61 Q2157.87 1348.51 2160.54 1348.51 L2164.91 1348.51 L2164.91 1352.07 L2160.54 1352.07 Q2155.61 1352.07 2153.73 1350.25 Q2151.86 1348.39 2151.86 1343.53 L2151.86 1329.46 L2148.73 1329.46 L2148.73 1326.15 L2151.86 1326.15 L2151.86 1318.79 L2156.14 1318.79 Z" fill="#000000" fill-rule="evenodd" fill-opacity="1" /><path clip-path="url(#clip240)" d="M2181.3 1354.48 Q2179.5 1359.11 2177.78 1360.52 Q2176.07 1361.94 2173.2 1361.94 L2169.8 1361.94 L2169.8 1358.37 L2172.3 1358.37 Q2174.06 1358.37 2175.03 1357.54 Q2176 1356.7 2177.18 1353.6 L2177.94 1351.66 L2167.46 1326.15 L2171.97 1326.15 L2180.07 1346.43 L2188.18 1326.15 L2192.69 1326.15 L2181.3 1354.48 Z" fill="#000000" fill-rule="evenodd" fill-opacity="1" /><path clip-path="url(#clip240)" d="M2215.05 1348.14 L2222.69 1348.14 L2222.69 1321.77 L2214.38 1323.44 L2214.38 1319.18 L2222.64 1317.51 L2227.32 1317.51 L2227.32 1348.14 L2234.96 1348.14 L2234.96 1352.07 L2215.05 1352.07 L2215.05 1348.14 Z" fill="#000000" fill-rule="evenodd" fill-opacity="1" /><polyline clip-path="url(#clip240)" style="stroke:#e26f46; stroke-linecap:butt; stroke-linejoin:round; stroke-width:4; stroke-opacity:1; fill:none" points="
  1742.68,1386.63 1884.04,1386.63 
  "/>
<path clip-path="url(#clip240)" d="M1927.95 1382.97 Q1929.54 1380.1 1931.76 1378.73 Q1933.99 1377.36 1937 1377.36 Q1941.05 1377.36 1943.25 1380.21 Q1945.45 1383.03 1945.45 1388.27 L1945.45 1403.91 L1941.16 1403.91 L1941.16 1388.41 Q1941.16 1384.68 1939.84 1382.87 Q1938.52 1381.07 1935.82 1381.07 Q1932.51 1381.07 1930.58 1383.27 Q1928.66 1385.47 1928.66 1389.26 L1928.66 1403.91 L1924.38 1403.91 L1924.38 1388.41 Q1924.38 1384.66 1923.06 1382.87 Q1921.74 1381.07 1918.99 1381.07 Q1915.72 1381.07 1913.8 1383.29 Q1911.88 1385.49 1911.88 1389.26 L1911.88 1403.91 L1907.6 1403.91 L1907.6 1377.99 L1911.88 1377.99 L1911.88 1382.02 Q1913.34 1379.63 1915.38 1378.5 Q1917.41 1377.36 1920.21 1377.36 Q1923.04 1377.36 1925.01 1378.8 Q1927 1380.23 1927.95 1382.97 Z" fill="#000000" fill-rule="evenodd" fill-opacity="1" /><path clip-path="url(#clip240)" d="M1953.5 1393.68 L1953.5 1377.99 L1957.76 1377.99 L1957.76 1393.52 Q1957.76 1397.2 1959.2 1399.05 Q1960.63 1400.88 1963.5 1400.88 Q1966.95 1400.88 1968.94 1398.68 Q1970.95 1396.48 1970.95 1392.69 L1970.95 1377.99 L1975.21 1377.99 L1975.21 1403.91 L1970.95 1403.91 L1970.95 1399.93 Q1969.4 1402.29 1967.34 1403.45 Q1965.31 1404.59 1962.6 1404.59 Q1958.13 1404.59 1955.82 1401.81 Q1953.5 1399.03 1953.5 1393.68 M1964.22 1377.36 L1964.22 1377.36 Z" fill="#000000" fill-rule="evenodd" fill-opacity="1" /><path clip-path="url(#clip240)" d="M2005.54 1388.27 L2005.54 1403.91 L2001.28 1403.91 L2001.28 1388.41 Q2001.28 1384.72 1999.84 1382.9 Q1998.41 1381.07 1995.54 1381.07 Q1992.09 1381.07 1990.1 1383.27 Q1988.11 1385.47 1988.11 1389.26 L1988.11 1403.91 L1983.82 1403.91 L1983.82 1377.99 L1988.11 1377.99 L1988.11 1382.02 Q1989.64 1379.68 1991.7 1378.52 Q1993.78 1377.36 1996.49 1377.36 Q2000.95 1377.36 2003.25 1380.14 Q2005.54 1382.9 2005.54 1388.27 Z" fill="#000000" fill-rule="evenodd" fill-opacity="1" /><path clip-path="url(#clip240)" d="M2014.03 1377.99 L2018.29 1377.99 L2018.29 1403.91 L2014.03 1403.91 L2014.03 1377.99 M2014.03 1367.9 L2018.29 1367.9 L2018.29 1373.29 L2014.03 1373.29 L2014.03 1367.9 Z" fill="#000000" fill-rule="evenodd" fill-opacity="1" /><path clip-path="url(#clip240)" d="M2045.86 1378.98 L2045.86 1382.97 Q2044.06 1381.97 2042.23 1381.48 Q2040.42 1380.97 2038.57 1380.97 Q2034.43 1380.97 2032.13 1383.61 Q2029.84 1386.23 2029.84 1390.97 Q2029.84 1395.72 2032.13 1398.36 Q2034.43 1400.97 2038.57 1400.97 Q2040.42 1400.97 2042.23 1400.49 Q2044.06 1399.98 2045.86 1398.98 L2045.86 1402.92 Q2044.08 1403.75 2042.16 1404.17 Q2040.26 1404.59 2038.11 1404.59 Q2032.25 1404.59 2028.8 1400.91 Q2025.35 1397.22 2025.35 1390.97 Q2025.35 1384.63 2028.82 1381 Q2032.32 1377.36 2038.38 1377.36 Q2040.35 1377.36 2042.23 1377.78 Q2044.1 1378.17 2045.86 1378.98 Z" fill="#000000" fill-rule="evenodd" fill-opacity="1" /><path clip-path="url(#clip240)" d="M2053.27 1377.99 L2057.53 1377.99 L2057.53 1403.91 L2053.27 1403.91 L2053.27 1377.99 M2053.27 1367.9 L2057.53 1367.9 L2057.53 1373.29 L2053.27 1373.29 L2053.27 1367.9 Z" fill="#000000" fill-rule="evenodd" fill-opacity="1" /><path clip-path="url(#clip240)" d="M2070.56 1400.03 L2070.56 1413.78 L2066.28 1413.78 L2066.28 1377.99 L2070.56 1377.99 L2070.56 1381.92 Q2071.9 1379.61 2073.94 1378.5 Q2076 1377.36 2078.85 1377.36 Q2083.57 1377.36 2086.51 1381.11 Q2089.47 1384.86 2089.47 1390.97 Q2089.47 1397.09 2086.51 1400.84 Q2083.57 1404.59 2078.85 1404.59 Q2076 1404.59 2073.94 1403.47 Q2071.9 1402.34 2070.56 1400.03 M2085.05 1390.97 Q2085.05 1386.28 2083.11 1383.61 Q2081.19 1380.93 2077.81 1380.93 Q2074.43 1380.93 2072.48 1383.61 Q2070.56 1386.28 2070.56 1390.97 Q2070.56 1395.67 2072.48 1398.36 Q2074.43 1401.02 2077.81 1401.02 Q2081.19 1401.02 2083.11 1398.36 Q2085.05 1395.67 2085.05 1390.97 Z" fill="#000000" fill-rule="evenodd" fill-opacity="1" /><path clip-path="url(#clip240)" d="M2108.31 1390.88 Q2103.15 1390.88 2101.16 1392.06 Q2099.17 1393.24 2099.17 1396.09 Q2099.17 1398.36 2100.65 1399.7 Q2102.16 1401.02 2104.73 1401.02 Q2108.27 1401.02 2110.4 1398.52 Q2112.55 1396 2112.55 1391.83 L2112.55 1390.88 L2108.31 1390.88 M2116.81 1389.12 L2116.81 1403.91 L2112.55 1403.91 L2112.55 1399.98 Q2111.09 1402.34 2108.92 1403.47 Q2106.74 1404.59 2103.59 1404.59 Q2099.61 1404.59 2097.25 1402.36 Q2094.91 1400.12 2094.91 1396.37 Q2094.91 1391.99 2097.83 1389.77 Q2100.77 1387.55 2106.58 1387.55 L2112.55 1387.55 L2112.55 1387.13 Q2112.55 1384.19 2110.61 1382.6 Q2108.69 1380.97 2105.19 1380.97 Q2102.97 1380.97 2100.86 1381.51 Q2098.75 1382.04 2096.81 1383.1 L2096.81 1379.17 Q2099.15 1378.27 2101.35 1377.83 Q2103.55 1377.36 2105.63 1377.36 Q2111.25 1377.36 2114.03 1380.28 Q2116.81 1383.2 2116.81 1389.12 Z" fill="#000000" fill-rule="evenodd" fill-opacity="1" /><path clip-path="url(#clip240)" d="M2125.58 1367.9 L2129.84 1367.9 L2129.84 1403.91 L2125.58 1403.91 L2125.58 1367.9 Z" fill="#000000" fill-rule="evenodd" fill-opacity="1" /><path clip-path="url(#clip240)" d="M2138.75 1377.99 L2143.01 1377.99 L2143.01 1403.91 L2138.75 1403.91 L2138.75 1377.99 M2138.75 1367.9 L2143.01 1367.9 L2143.01 1373.29 L2138.75 1373.29 L2138.75 1367.9 Z" fill="#000000" fill-rule="evenodd" fill-opacity="1" /><path clip-path="url(#clip240)" d="M2156.14 1370.63 L2156.14 1377.99 L2164.91 1377.99 L2164.91 1381.3 L2156.14 1381.3 L2156.14 1395.37 Q2156.14 1398.54 2157 1399.45 Q2157.87 1400.35 2160.54 1400.35 L2164.91 1400.35 L2164.91 1403.91 L2160.54 1403.91 Q2155.61 1403.91 2153.73 1402.09 Q2151.86 1400.23 2151.86 1395.37 L2151.86 1381.3 L2148.73 1381.3 L2148.73 1377.99 L2151.86 1377.99 L2151.86 1370.63 L2156.14 1370.63 Z" fill="#000000" fill-rule="evenodd" fill-opacity="1" /><path clip-path="url(#clip240)" d="M2181.3 1406.32 Q2179.5 1410.95 2177.78 1412.36 Q2176.07 1413.78 2173.2 1413.78 L2169.8 1413.78 L2169.8 1410.21 L2172.3 1410.21 Q2174.06 1410.21 2175.03 1409.38 Q2176 1408.54 2177.18 1405.44 L2177.94 1403.5 L2167.46 1377.99 L2171.97 1377.99 L2180.07 1398.27 L2188.18 1377.99 L2192.69 1377.99 L2181.3 1406.32 Z" fill="#000000" fill-rule="evenodd" fill-opacity="1" /><path clip-path="url(#clip240)" d="M2218.27 1399.98 L2234.59 1399.98 L2234.59 1403.91 L2212.64 1403.91 L2212.64 1399.98 Q2215.31 1397.22 2219.89 1392.6 Q2224.49 1387.94 2225.68 1386.6 Q2227.92 1384.08 2228.8 1382.34 Q2229.7 1380.58 2229.7 1378.89 Q2229.7 1376.14 2227.76 1374.4 Q2225.84 1372.66 2222.74 1372.66 Q2220.54 1372.66 2218.08 1373.43 Q2215.65 1374.19 2212.87 1375.74 L2212.87 1371.02 Q2215.7 1369.89 2218.15 1369.31 Q2220.61 1368.73 2222.64 1368.73 Q2228.01 1368.73 2231.21 1371.41 Q2234.4 1374.1 2234.4 1378.59 Q2234.4 1380.72 2233.59 1382.64 Q2232.8 1384.54 2230.7 1387.13 Q2230.12 1387.8 2227.02 1391.02 Q2223.92 1394.22 2218.27 1399.98 Z" fill="#000000" fill-rule="evenodd" fill-opacity="1" /></svg>
