<?xml version="1.0" encoding="utf-8"?>
<svg xmlns="http://www.w3.org/2000/svg" xmlns:xlink="http://www.w3.org/1999/xlink" width="600" height="400" viewBox="0 0 2400 1600">
<defs>
  <clipPath id="clip620">
    <rect x="0" y="0" width="2400" height="1600"/>
  </clipPath>
</defs>
<path clip-path="url(#clip620)" d="
M0 1600 L2400 1600 L2400 0 L0 0  Z
  " fill="#ffffff" fill-rule="evenodd" fill-opacity="1"/>
<defs>
  <clipPath id="clip621">
    <rect x="480" y="0" width="1681" height="1600"/>
  </clipPath>
</defs>
<path clip-path="url(#clip620)" d="
M216.922 1486.45 L2352.76 1486.45 L2352.76 47.2441 L216.922 47.2441  Z
  " fill="#ffffff" fill-rule="evenodd" fill-opacity="1"/>
<defs>
  <clipPath id="clip622">
    <rect x="216" y="47" width="2137" height="1440"/>
  </clipPath>
</defs>
<polyline clip-path="url(#clip622)" style="stroke:#000000; stroke-linecap:butt; stroke-linejoin:round; stroke-width:2; stroke-opacity:0.1; fill:none" points="
  277.37,1486.45 277.37,47.2441 
  "/>
<polyline clip-path="url(#clip622)" style="stroke:#000000; stroke-linecap:butt; stroke-linejoin:round; stroke-width:2; stroke-opacity:0.1; fill:none" points="
  782.367,1486.45 782.367,47.2441 
  "/>
<polyline clip-path="url(#clip622)" style="stroke:#000000; stroke-linecap:butt; stroke-linejoin:round; stroke-width:2; stroke-opacity:0.1; fill:none" points="
  1287.36,1486.45 1287.36,47.2441 
  "/>
<polyline clip-path="url(#clip622)" style="stroke:#000000; stroke-linecap:butt; stroke-linejoin:round; stroke-width:2; stroke-opacity:0.1; fill:none" points="
  1792.36,1486.45 1792.36,47.2441 
  "/>
<polyline clip-path="url(#clip622)" style="stroke:#000000; stroke-linecap:butt; stroke-linejoin:round; stroke-width:2; stroke-opacity:0.1; fill:none" points="
  2297.36,1486.45 2297.36,47.2441 
  "/>
<polyline clip-path="url(#clip620)" style="stroke:#000000; stroke-linecap:butt; stroke-linejoin:round; stroke-width:4; stroke-opacity:1; fill:none" points="
  216.922,1486.45 2352.76,1486.45 
  "/>
<polyline clip-path="url(#clip620)" style="stroke:#000000; stroke-linecap:butt; stroke-linejoin:round; stroke-width:4; stroke-opacity:1; fill:none" points="
  277.37,1486.45 277.37,1467.55 
  "/>
<polyline clip-path="url(#clip620)" style="stroke:#000000; stroke-linecap:butt; stroke-linejoin:round; stroke-width:4; stroke-opacity:1; fill:none" points="
  782.367,1486.45 782.367,1467.55 
  "/>
<polyline clip-path="url(#clip620)" style="stroke:#000000; stroke-linecap:butt; stroke-linejoin:round; stroke-width:4; stroke-opacity:1; fill:none" points="
  1287.36,1486.45 1287.36,1467.55 
  "/>
<polyline clip-path="url(#clip620)" style="stroke:#000000; stroke-linecap:butt; stroke-linejoin:round; stroke-width:4; stroke-opacity:1; fill:none" points="
  1792.36,1486.45 1792.36,1467.55 
  "/>
<polyline clip-path="url(#clip620)" style="stroke:#000000; stroke-linecap:butt; stroke-linejoin:round; stroke-width:4; stroke-opacity:1; fill:none" points="
  2297.36,1486.45 2297.36,1467.55 
  "/>
<path clip-path="url(#clip620)" d="M277.37 1515.64 Q273.759 1515.64 271.93 1519.2 Q270.125 1522.75 270.125 1529.87 Q270.125 1536.98 271.93 1540.55 Q273.759 1544.09 277.37 1544.09 Q281.004 1544.09 282.81 1540.55 Q284.639 1536.98 284.639 1529.87 Q284.639 1522.75 282.81 1519.2 Q281.004 1515.64 277.37 1515.64 M277.37 1511.93 Q283.18 1511.93 286.236 1516.54 Q289.314 1521.12 289.314 1529.87 Q289.314 1538.6 286.236 1543.21 Q283.18 1547.79 277.37 1547.79 Q271.56 1547.79 268.481 1543.21 Q265.426 1538.6 265.426 1529.87 Q265.426 1521.12 268.481 1516.54 Q271.56 1511.93 277.37 1511.93 Z" fill="#000000" fill-rule="evenodd" fill-opacity="1" /><path clip-path="url(#clip620)" d="M741.974 1543.18 L749.613 1543.18 L749.613 1516.82 L741.302 1518.49 L741.302 1514.23 L749.566 1512.56 L754.242 1512.56 L754.242 1543.18 L761.881 1543.18 L761.881 1547.12 L741.974 1547.12 L741.974 1543.18 Z" fill="#000000" fill-rule="evenodd" fill-opacity="1" /><path clip-path="url(#clip620)" d="M781.325 1515.64 Q777.714 1515.64 775.886 1519.2 Q774.08 1522.75 774.08 1529.87 Q774.08 1536.98 775.886 1540.55 Q777.714 1544.09 781.325 1544.09 Q784.96 1544.09 786.765 1540.55 Q788.594 1536.98 788.594 1529.87 Q788.594 1522.75 786.765 1519.2 Q784.96 1515.64 781.325 1515.64 M781.325 1511.93 Q787.136 1511.93 790.191 1516.54 Q793.27 1521.12 793.27 1529.87 Q793.27 1538.6 790.191 1543.21 Q787.136 1547.79 781.325 1547.79 Q775.515 1547.79 772.437 1543.21 Q769.381 1538.6 769.381 1529.87 Q769.381 1521.12 772.437 1516.54 Q775.515 1511.93 781.325 1511.93 Z" fill="#000000" fill-rule="evenodd" fill-opacity="1" /><path clip-path="url(#clip620)" d="M811.487 1515.64 Q807.876 1515.64 806.047 1519.2 Q804.242 1522.75 804.242 1529.87 Q804.242 1536.98 806.047 1540.55 Q807.876 1544.09 811.487 1544.09 Q815.121 1544.09 816.927 1540.55 Q818.756 1536.98 818.756 1529.87 Q818.756 1522.75 816.927 1519.2 Q815.121 1515.64 811.487 1515.64 M811.487 1511.93 Q817.297 1511.93 820.353 1516.54 Q823.432 1521.12 823.432 1529.87 Q823.432 1538.6 820.353 1543.21 Q817.297 1547.79 811.487 1547.79 Q805.677 1547.79 802.598 1543.21 Q799.543 1538.6 799.543 1529.87 Q799.543 1521.12 802.598 1516.54 Q805.677 1511.93 811.487 1511.93 Z" fill="#000000" fill-rule="evenodd" fill-opacity="1" /><path clip-path="url(#clip620)" d="M1251.06 1543.18 L1267.38 1543.18 L1267.38 1547.12 L1245.43 1547.12 L1245.43 1543.18 Q1248.09 1540.43 1252.68 1535.8 Q1257.28 1531.15 1258.46 1529.81 Q1260.71 1527.28 1261.59 1525.55 Q1262.49 1523.79 1262.49 1522.1 Q1262.49 1519.34 1260.55 1517.61 Q1258.63 1515.87 1255.52 1515.87 Q1253.32 1515.87 1250.87 1516.63 Q1248.44 1517.4 1245.66 1518.95 L1245.66 1514.23 Q1248.49 1513.09 1250.94 1512.51 Q1253.39 1511.93 1255.43 1511.93 Q1260.8 1511.93 1264 1514.62 Q1267.19 1517.31 1267.19 1521.8 Q1267.19 1523.93 1266.38 1525.85 Q1265.59 1527.74 1263.49 1530.34 Q1262.91 1531.01 1259.81 1534.23 Q1256.7 1537.42 1251.06 1543.18 Z" fill="#000000" fill-rule="evenodd" fill-opacity="1" /><path clip-path="url(#clip620)" d="M1287.19 1515.64 Q1283.58 1515.64 1281.75 1519.2 Q1279.94 1522.75 1279.94 1529.87 Q1279.94 1536.98 1281.75 1540.55 Q1283.58 1544.09 1287.19 1544.09 Q1290.82 1544.09 1292.63 1540.55 Q1294.46 1536.98 1294.46 1529.87 Q1294.46 1522.75 1292.63 1519.2 Q1290.82 1515.64 1287.19 1515.64 M1287.19 1511.93 Q1293 1511.93 1296.06 1516.54 Q1299.13 1521.12 1299.13 1529.87 Q1299.13 1538.6 1296.06 1543.21 Q1293 1547.79 1287.19 1547.79 Q1281.38 1547.79 1278.3 1543.21 Q1275.25 1538.6 1275.25 1529.87 Q1275.25 1521.12 1278.3 1516.54 Q1281.38 1511.93 1287.19 1511.93 Z" fill="#000000" fill-rule="evenodd" fill-opacity="1" /><path clip-path="url(#clip620)" d="M1317.35 1515.64 Q1313.74 1515.64 1311.91 1519.2 Q1310.11 1522.75 1310.11 1529.87 Q1310.11 1536.98 1311.91 1540.55 Q1313.74 1544.09 1317.35 1544.09 Q1320.99 1544.09 1322.79 1540.55 Q1324.62 1536.98 1324.62 1529.87 Q1324.62 1522.75 1322.79 1519.2 Q1320.99 1515.64 1317.35 1515.64 M1317.35 1511.93 Q1323.16 1511.93 1326.22 1516.54 Q1329.3 1521.12 1329.3 1529.87 Q1329.3 1538.6 1326.22 1543.21 Q1323.16 1547.79 1317.35 1547.79 Q1311.54 1547.79 1308.46 1543.21 Q1305.41 1538.6 1305.41 1529.87 Q1305.41 1521.12 1308.46 1516.54 Q1311.54 1511.93 1317.35 1511.93 Z" fill="#000000" fill-rule="evenodd" fill-opacity="1" /><path clip-path="url(#clip620)" d="M1766.12 1528.49 Q1769.48 1529.2 1771.35 1531.47 Q1773.25 1533.74 1773.25 1537.07 Q1773.25 1542.19 1769.73 1544.99 Q1766.22 1547.79 1759.73 1547.79 Q1757.56 1547.79 1755.24 1547.35 Q1752.95 1546.93 1750.5 1546.08 L1750.5 1541.56 Q1752.44 1542.7 1754.76 1543.28 Q1757.07 1543.86 1759.59 1543.86 Q1763.99 1543.86 1766.28 1542.12 Q1768.6 1540.38 1768.6 1537.07 Q1768.6 1534.02 1766.45 1532.31 Q1764.32 1530.57 1760.5 1530.57 L1756.47 1530.57 L1756.47 1526.73 L1760.68 1526.73 Q1764.13 1526.73 1765.96 1525.36 Q1767.79 1523.97 1767.79 1521.38 Q1767.79 1518.72 1765.89 1517.31 Q1764.02 1515.87 1760.5 1515.87 Q1758.58 1515.87 1756.38 1516.29 Q1754.18 1516.7 1751.54 1517.58 L1751.54 1513.42 Q1754.2 1512.68 1756.52 1512.31 Q1758.85 1511.93 1760.91 1511.93 Q1766.24 1511.93 1769.34 1514.37 Q1772.44 1516.77 1772.44 1520.89 Q1772.44 1523.76 1770.8 1525.75 Q1769.15 1527.72 1766.12 1528.49 Z" fill="#000000" fill-rule="evenodd" fill-opacity="1" /><path clip-path="url(#clip620)" d="M1792.12 1515.64 Q1788.51 1515.64 1786.68 1519.2 Q1784.87 1522.75 1784.87 1529.87 Q1784.87 1536.98 1786.68 1540.55 Q1788.51 1544.09 1792.12 1544.09 Q1795.75 1544.09 1797.56 1540.55 Q1799.39 1536.98 1799.39 1529.87 Q1799.39 1522.75 1797.56 1519.2 Q1795.75 1515.64 1792.12 1515.64 M1792.12 1511.93 Q1797.93 1511.93 1800.98 1516.54 Q1804.06 1521.12 1804.06 1529.87 Q1804.06 1538.6 1800.98 1543.21 Q1797.93 1547.79 1792.12 1547.79 Q1786.31 1547.79 1783.23 1543.21 Q1780.17 1538.6 1780.17 1529.87 Q1780.17 1521.12 1783.23 1516.54 Q1786.31 1511.93 1792.12 1511.93 Z" fill="#000000" fill-rule="evenodd" fill-opacity="1" /><path clip-path="url(#clip620)" d="M1822.28 1515.64 Q1818.67 1515.64 1816.84 1519.2 Q1815.03 1522.75 1815.03 1529.87 Q1815.03 1536.98 1816.84 1540.55 Q1818.67 1544.09 1822.28 1544.09 Q1825.91 1544.09 1827.72 1540.55 Q1829.55 1536.98 1829.55 1529.87 Q1829.55 1522.75 1827.72 1519.2 Q1825.91 1515.64 1822.28 1515.64 M1822.28 1511.93 Q1828.09 1511.93 1831.15 1516.54 Q1834.22 1521.12 1834.22 1529.87 Q1834.22 1538.6 1831.15 1543.21 Q1828.09 1547.79 1822.28 1547.79 Q1816.47 1547.79 1813.39 1543.21 Q1810.34 1538.6 1810.34 1529.87 Q1810.34 1521.12 1813.39 1516.54 Q1816.47 1511.93 1822.28 1511.93 Z" fill="#000000" fill-rule="evenodd" fill-opacity="1" /><path clip-path="url(#clip620)" d="M2270.45 1516.63 L2258.64 1535.08 L2270.45 1535.08 L2270.45 1516.63 M2269.22 1512.56 L2275.1 1512.56 L2275.1 1535.08 L2280.03 1535.08 L2280.03 1538.97 L2275.1 1538.97 L2275.1 1547.12 L2270.45 1547.12 L2270.45 1538.97 L2254.85 1538.97 L2254.85 1534.46 L2269.22 1512.56 Z" fill="#000000" fill-rule="evenodd" fill-opacity="1" /><path clip-path="url(#clip620)" d="M2297.76 1515.64 Q2294.15 1515.64 2292.32 1519.2 Q2290.52 1522.75 2290.52 1529.87 Q2290.52 1536.98 2292.32 1540.55 Q2294.15 1544.09 2297.76 1544.09 Q2301.4 1544.09 2303.2 1540.55 Q2305.03 1536.98 2305.03 1529.87 Q2305.03 1522.75 2303.2 1519.2 Q2301.4 1515.64 2297.76 1515.64 M2297.76 1511.93 Q2303.57 1511.93 2306.63 1516.54 Q2309.71 1521.12 2309.71 1529.87 Q2309.71 1538.6 2306.63 1543.21 Q2303.57 1547.79 2297.76 1547.79 Q2291.95 1547.79 2288.87 1543.21 Q2285.82 1538.6 2285.82 1529.87 Q2285.82 1521.12 2288.87 1516.54 Q2291.95 1511.93 2297.76 1511.93 Z" fill="#000000" fill-rule="evenodd" fill-opacity="1" /><path clip-path="url(#clip620)" d="M2327.92 1515.64 Q2324.31 1515.64 2322.48 1519.2 Q2320.68 1522.75 2320.68 1529.87 Q2320.68 1536.98 2322.48 1540.55 Q2324.31 1544.09 2327.92 1544.09 Q2331.56 1544.09 2333.36 1540.55 Q2335.19 1536.98 2335.19 1529.87 Q2335.19 1522.75 2333.36 1519.2 Q2331.56 1515.64 2327.92 1515.64 M2327.92 1511.93 Q2333.73 1511.93 2336.79 1516.54 Q2339.87 1521.12 2339.87 1529.87 Q2339.87 1538.6 2336.79 1543.21 Q2333.73 1547.79 2327.92 1547.79 Q2322.11 1547.79 2319.04 1543.21 Q2315.98 1538.6 2315.98 1529.87 Q2315.98 1521.12 2319.04 1516.54 Q2322.11 1511.93 2327.92 1511.93 Z" fill="#000000" fill-rule="evenodd" fill-opacity="1" /><polyline clip-path="url(#clip622)" style="stroke:#000000; stroke-linecap:butt; stroke-linejoin:round; stroke-width:2; stroke-opacity:0.1; fill:none" points="
  216.922,1294.86 2352.76,1294.86 
  "/>
<polyline clip-path="url(#clip622)" style="stroke:#000000; stroke-linecap:butt; stroke-linejoin:round; stroke-width:2; stroke-opacity:0.1; fill:none" points="
  216.922,993.136 2352.76,993.136 
  "/>
<polyline clip-path="url(#clip622)" style="stroke:#000000; stroke-linecap:butt; stroke-linejoin:round; stroke-width:2; stroke-opacity:0.1; fill:none" points="
  216.922,691.416 2352.76,691.416 
  "/>
<polyline clip-path="url(#clip622)" style="stroke:#000000; stroke-linecap:butt; stroke-linejoin:round; stroke-width:2; stroke-opacity:0.1; fill:none" points="
  216.922,389.696 2352.76,389.696 
  "/>
<polyline clip-path="url(#clip622)" style="stroke:#000000; stroke-linecap:butt; stroke-linejoin:round; stroke-width:2; stroke-opacity:0.1; fill:none" points="
  216.922,87.9763 2352.76,87.9763 
  "/>
<polyline clip-path="url(#clip620)" style="stroke:#000000; stroke-linecap:butt; stroke-linejoin:round; stroke-width:4; stroke-opacity:1; fill:none" points="
  216.922,1486.45 216.922,47.2441 
  "/>
<polyline clip-path="url(#clip620)" style="stroke:#000000; stroke-linecap:butt; stroke-linejoin:round; stroke-width:4; stroke-opacity:1; fill:none" points="
  216.922,1294.86 235.82,1294.86 
  "/>
<polyline clip-path="url(#clip620)" style="stroke:#000000; stroke-linecap:butt; stroke-linejoin:round; stroke-width:4; stroke-opacity:1; fill:none" points="
  216.922,993.136 235.82,993.136 
  "/>
<polyline clip-path="url(#clip620)" style="stroke:#000000; stroke-linecap:butt; stroke-linejoin:round; stroke-width:4; stroke-opacity:1; fill:none" points="
  216.922,691.416 235.82,691.416 
  "/>
<polyline clip-path="url(#clip620)" style="stroke:#000000; stroke-linecap:butt; stroke-linejoin:round; stroke-width:4; stroke-opacity:1; fill:none" points="
  216.922,389.696 235.82,389.696 
  "/>
<polyline clip-path="url(#clip620)" style="stroke:#000000; stroke-linecap:butt; stroke-linejoin:round; stroke-width:4; stroke-opacity:1; fill:none" points="
  216.922,87.9763 235.82,87.9763 
  "/>
<path clip-path="url(#clip620)" d="M63.5152 1280.65 Q59.9041 1280.65 58.0754 1284.22 Q56.2699 1287.76 56.2699 1294.89 Q56.2699 1302 58.0754 1305.56 Q59.9041 1309.1 63.5152 1309.1 Q67.1494 1309.1 68.955 1305.56 Q70.7837 1302 70.7837 1294.89 Q70.7837 1287.76 68.955 1284.22 Q67.1494 1280.65 63.5152 1280.65 M63.5152 1276.95 Q69.3254 1276.95 72.3809 1281.56 Q75.4596 1286.14 75.4596 1294.89 Q75.4596 1303.62 72.3809 1308.22 Q69.3254 1312.81 63.5152 1312.81 Q57.7051 1312.81 54.6264 1308.22 Q51.5708 1303.62 51.5708 1294.89 Q51.5708 1286.14 54.6264 1281.56 Q57.7051 1276.95 63.5152 1276.95 Z" fill="#000000" fill-rule="evenodd" fill-opacity="1" /><path clip-path="url(#clip620)" d="M83.6771 1306.26 L88.5614 1306.26 L88.5614 1312.14 L83.6771 1312.14 L83.6771 1306.26 Z" fill="#000000" fill-rule="evenodd" fill-opacity="1" /><path clip-path="url(#clip620)" d="M108.746 1280.65 Q105.135 1280.65 103.307 1284.22 Q101.501 1287.76 101.501 1294.89 Q101.501 1302 103.307 1305.56 Q105.135 1309.1 108.746 1309.1 Q112.381 1309.1 114.186 1305.56 Q116.015 1302 116.015 1294.89 Q116.015 1287.76 114.186 1284.22 Q112.381 1280.65 108.746 1280.65 M108.746 1276.95 Q114.557 1276.95 117.612 1281.56 Q120.691 1286.14 120.691 1294.89 Q120.691 1303.62 117.612 1308.22 Q114.557 1312.81 108.746 1312.81 Q102.936 1312.81 99.8576 1308.22 Q96.8021 1303.62 96.8021 1294.89 Q96.8021 1286.14 99.8576 1281.56 Q102.936 1276.95 108.746 1276.95 Z" fill="#000000" fill-rule="evenodd" fill-opacity="1" /><path clip-path="url(#clip620)" d="M138.908 1280.65 Q135.297 1280.65 133.469 1284.22 Q131.663 1287.76 131.663 1294.89 Q131.663 1302 133.469 1305.56 Q135.297 1309.1 138.908 1309.1 Q142.543 1309.1 144.348 1305.56 Q146.177 1302 146.177 1294.89 Q146.177 1287.76 144.348 1284.22 Q142.543 1280.65 138.908 1280.65 M138.908 1276.95 Q144.718 1276.95 147.774 1281.56 Q150.853 1286.14 150.853 1294.89 Q150.853 1303.62 147.774 1308.22 Q144.718 1312.81 138.908 1312.81 Q133.098 1312.81 130.019 1308.22 Q126.964 1303.62 126.964 1294.89 Q126.964 1286.14 130.019 1281.56 Q133.098 1276.95 138.908 1276.95 Z" fill="#000000" fill-rule="evenodd" fill-opacity="1" /><path clip-path="url(#clip620)" d="M169.07 1295.72 Q165.737 1295.72 163.816 1297.51 Q161.917 1299.29 161.917 1302.41 Q161.917 1305.54 163.816 1307.32 Q165.737 1309.1 169.07 1309.1 Q172.404 1309.1 174.325 1307.32 Q176.246 1305.52 176.246 1302.41 Q176.246 1299.29 174.325 1297.51 Q172.427 1295.72 169.07 1295.72 M164.394 1293.73 Q161.385 1292.99 159.695 1290.93 Q158.029 1288.87 158.029 1285.91 Q158.029 1281.77 160.968 1279.36 Q163.931 1276.95 169.07 1276.95 Q174.232 1276.95 177.172 1279.36 Q180.112 1281.77 180.112 1285.91 Q180.112 1288.87 178.422 1290.93 Q176.755 1292.99 173.769 1293.73 Q177.149 1294.52 179.024 1296.81 Q180.922 1299.1 180.922 1302.41 Q180.922 1307.44 177.843 1310.12 Q174.788 1312.81 169.07 1312.81 Q163.353 1312.81 160.274 1310.12 Q157.218 1307.44 157.218 1302.41 Q157.218 1299.1 159.117 1296.81 Q161.015 1294.52 164.394 1293.73 M162.681 1286.35 Q162.681 1289.03 164.348 1290.54 Q166.038 1292.04 169.07 1292.04 Q172.079 1292.04 173.769 1290.54 Q175.482 1289.03 175.482 1286.35 Q175.482 1283.66 173.769 1282.16 Q172.079 1280.65 169.07 1280.65 Q166.038 1280.65 164.348 1282.16 Q162.681 1283.66 162.681 1286.35 Z" fill="#000000" fill-rule="evenodd" fill-opacity="1" /><path clip-path="url(#clip620)" d="M63.4226 978.935 Q59.8115 978.935 57.9828 982.499 Q56.1773 986.041 56.1773 993.171 Q56.1773 1000.28 57.9828 1003.84 Q59.8115 1007.38 63.4226 1007.38 Q67.0569 1007.38 68.8624 1003.84 Q70.6911 1000.28 70.6911 993.171 Q70.6911 986.041 68.8624 982.499 Q67.0569 978.935 63.4226 978.935 M63.4226 975.231 Q69.2328 975.231 72.2883 979.837 Q75.367 984.421 75.367 993.171 Q75.367 1001.9 72.2883 1006.5 Q69.2328 1011.09 63.4226 1011.09 Q57.6125 1011.09 54.5338 1006.5 Q51.4782 1001.9 51.4782 993.171 Q51.4782 984.421 54.5338 979.837 Q57.6125 975.231 63.4226 975.231 Z" fill="#000000" fill-rule="evenodd" fill-opacity="1" /><path clip-path="url(#clip620)" d="M83.5845 1004.54 L88.4688 1004.54 L88.4688 1010.42 L83.5845 1010.42 L83.5845 1004.54 Z" fill="#000000" fill-rule="evenodd" fill-opacity="1" /><path clip-path="url(#clip620)" d="M108.654 978.935 Q105.043 978.935 103.214 982.499 Q101.409 986.041 101.409 993.171 Q101.409 1000.28 103.214 1003.84 Q105.043 1007.38 108.654 1007.38 Q112.288 1007.38 114.094 1003.84 Q115.922 1000.28 115.922 993.171 Q115.922 986.041 114.094 982.499 Q112.288 978.935 108.654 978.935 M108.654 975.231 Q114.464 975.231 117.52 979.837 Q120.598 984.421 120.598 993.171 Q120.598 1001.9 117.52 1006.5 Q114.464 1011.09 108.654 1011.09 Q102.844 1011.09 99.765 1006.5 Q96.7095 1001.9 96.7095 993.171 Q96.7095 984.421 99.765 979.837 Q102.844 975.231 108.654 975.231 Z" fill="#000000" fill-rule="evenodd" fill-opacity="1" /><path clip-path="url(#clip620)" d="M129.626 1006.48 L137.265 1006.48 L137.265 980.115 L128.955 981.782 L128.955 977.523 L137.219 975.856 L141.894 975.856 L141.894 1006.48 L149.533 1006.48 L149.533 1010.42 L129.626 1010.42 L129.626 1006.48 Z" fill="#000000" fill-rule="evenodd" fill-opacity="1" /><path clip-path="url(#clip620)" d="M168.978 978.935 Q165.367 978.935 163.538 982.499 Q161.732 986.041 161.732 993.171 Q161.732 1000.28 163.538 1003.84 Q165.367 1007.38 168.978 1007.38 Q172.612 1007.38 174.417 1003.84 Q176.246 1000.28 176.246 993.171 Q176.246 986.041 174.417 982.499 Q172.612 978.935 168.978 978.935 M168.978 975.231 Q174.788 975.231 177.843 979.837 Q180.922 984.421 180.922 993.171 Q180.922 1001.9 177.843 1006.5 Q174.788 1011.09 168.978 1011.09 Q163.167 1011.09 160.089 1006.5 Q157.033 1001.9 157.033 993.171 Q157.033 984.421 160.089 979.837 Q163.167 975.231 168.978 975.231 Z" fill="#000000" fill-rule="evenodd" fill-opacity="1" /><path clip-path="url(#clip620)" d="M65.0198 677.215 Q61.4087 677.215 59.58 680.779 Q57.7745 684.321 57.7745 691.451 Q57.7745 698.557 59.58 702.122 Q61.4087 705.664 65.0198 705.664 Q68.6541 705.664 70.4596 702.122 Q72.2883 698.557 72.2883 691.451 Q72.2883 684.321 70.4596 680.779 Q68.6541 677.215 65.0198 677.215 M65.0198 673.511 Q70.83 673.511 73.8855 678.117 Q76.9642 682.701 76.9642 691.451 Q76.9642 700.178 73.8855 704.784 Q70.83 709.367 65.0198 709.367 Q59.2097 709.367 56.131 704.784 Q53.0754 700.178 53.0754 691.451 Q53.0754 682.701 56.131 678.117 Q59.2097 673.511 65.0198 673.511 Z" fill="#000000" fill-rule="evenodd" fill-opacity="1" /><path clip-path="url(#clip620)" d="M85.1818 702.816 L90.066 702.816 L90.066 708.696 L85.1818 708.696 L85.1818 702.816 Z" fill="#000000" fill-rule="evenodd" fill-opacity="1" /><path clip-path="url(#clip620)" d="M110.251 677.215 Q106.64 677.215 104.811 680.779 Q103.006 684.321 103.006 691.451 Q103.006 698.557 104.811 702.122 Q106.64 705.664 110.251 705.664 Q113.885 705.664 115.691 702.122 Q117.52 698.557 117.52 691.451 Q117.52 684.321 115.691 680.779 Q113.885 677.215 110.251 677.215 M110.251 673.511 Q116.061 673.511 119.117 678.117 Q122.195 682.701 122.195 691.451 Q122.195 700.178 119.117 704.784 Q116.061 709.367 110.251 709.367 Q104.441 709.367 101.362 704.784 Q98.3067 700.178 98.3067 691.451 Q98.3067 682.701 101.362 678.117 Q104.441 673.511 110.251 673.511 Z" fill="#000000" fill-rule="evenodd" fill-opacity="1" /><path clip-path="url(#clip620)" d="M131.223 704.761 L138.862 704.761 L138.862 678.395 L130.552 680.062 L130.552 675.803 L138.816 674.136 L143.492 674.136 L143.492 704.761 L151.13 704.761 L151.13 708.696 L131.223 708.696 L131.223 704.761 Z" fill="#000000" fill-rule="evenodd" fill-opacity="1" /><path clip-path="url(#clip620)" d="M164.603 704.761 L180.922 704.761 L180.922 708.696 L158.978 708.696 L158.978 704.761 Q161.64 702.006 166.223 697.377 Q170.829 692.724 172.01 691.381 Q174.255 688.858 175.135 687.122 Q176.038 685.363 176.038 683.673 Q176.038 680.918 174.093 679.182 Q172.172 677.446 169.07 677.446 Q166.871 677.446 164.417 678.21 Q161.987 678.974 159.209 680.525 L159.209 675.803 Q162.033 674.668 164.487 674.09 Q166.941 673.511 168.978 673.511 Q174.348 673.511 177.542 676.196 Q180.737 678.881 180.737 683.372 Q180.737 685.502 179.927 687.423 Q179.14 689.321 177.033 691.914 Q176.454 692.585 173.353 695.803 Q170.251 698.997 164.603 704.761 Z" fill="#000000" fill-rule="evenodd" fill-opacity="1" /><path clip-path="url(#clip620)" d="M62.9365 375.495 Q59.3254 375.495 57.4967 379.06 Q55.6912 382.601 55.6912 389.731 Q55.6912 396.837 57.4967 400.402 Q59.3254 403.944 62.9365 403.944 Q66.5707 403.944 68.3763 400.402 Q70.205 396.837 70.205 389.731 Q70.205 382.601 68.3763 379.06 Q66.5707 375.495 62.9365 375.495 M62.9365 371.791 Q68.7467 371.791 71.8022 376.398 Q74.8809 380.981 74.8809 389.731 Q74.8809 398.458 71.8022 403.064 Q68.7467 407.647 62.9365 407.647 Q57.1264 407.647 54.0477 403.064 Q50.9921 398.458 50.9921 389.731 Q50.9921 380.981 54.0477 376.398 Q57.1264 371.791 62.9365 371.791 Z" fill="#000000" fill-rule="evenodd" fill-opacity="1" /><path clip-path="url(#clip620)" d="M83.0984 401.097 L87.9827 401.097 L87.9827 406.976 L83.0984 406.976 L83.0984 401.097 Z" fill="#000000" fill-rule="evenodd" fill-opacity="1" /><path clip-path="url(#clip620)" d="M108.168 375.495 Q104.557 375.495 102.728 379.06 Q100.922 382.601 100.922 389.731 Q100.922 396.837 102.728 400.402 Q104.557 403.944 108.168 403.944 Q111.802 403.944 113.608 400.402 Q115.436 396.837 115.436 389.731 Q115.436 382.601 113.608 379.06 Q111.802 375.495 108.168 375.495 M108.168 371.791 Q113.978 371.791 117.033 376.398 Q120.112 380.981 120.112 389.731 Q120.112 398.458 117.033 403.064 Q113.978 407.647 108.168 407.647 Q102.358 407.647 99.2789 403.064 Q96.2234 398.458 96.2234 389.731 Q96.2234 380.981 99.2789 376.398 Q102.358 371.791 108.168 371.791 Z" fill="#000000" fill-rule="evenodd" fill-opacity="1" /><path clip-path="url(#clip620)" d="M129.14 403.041 L136.779 403.041 L136.779 376.675 L128.469 378.342 L128.469 374.083 L136.732 372.416 L141.408 372.416 L141.408 403.041 L149.047 403.041 L149.047 406.976 L129.14 406.976 L129.14 403.041 Z" fill="#000000" fill-rule="evenodd" fill-opacity="1" /><path clip-path="url(#clip620)" d="M171.339 376.49 L159.533 394.939 L171.339 394.939 L171.339 376.49 M170.112 372.416 L175.991 372.416 L175.991 394.939 L180.922 394.939 L180.922 398.828 L175.991 398.828 L175.991 406.976 L171.339 406.976 L171.339 398.828 L155.737 398.828 L155.737 394.314 L170.112 372.416 Z" fill="#000000" fill-rule="evenodd" fill-opacity="1" /><path clip-path="url(#clip620)" d="M63.2606 73.775 Q59.6495 73.775 57.8208 77.3398 Q56.0152 80.8814 56.0152 88.011 Q56.0152 95.1174 57.8208 98.6822 Q59.6495 102.224 63.2606 102.224 Q66.8948 102.224 68.7004 98.6822 Q70.5291 95.1174 70.5291 88.011 Q70.5291 80.8814 68.7004 77.3398 Q66.8948 73.775 63.2606 73.775 M63.2606 70.0713 Q69.0707 70.0713 72.1263 74.6777 Q75.205 79.261 75.205 88.011 Q75.205 96.7378 72.1263 101.344 Q69.0707 105.928 63.2606 105.928 Q57.4504 105.928 54.3717 101.344 Q51.3162 96.7378 51.3162 88.011 Q51.3162 79.261 54.3717 74.6777 Q57.4504 70.0713 63.2606 70.0713 Z" fill="#000000" fill-rule="evenodd" fill-opacity="1" /><path clip-path="url(#clip620)" d="M83.4225 99.3767 L88.3067 99.3767 L88.3067 105.256 L83.4225 105.256 L83.4225 99.3767 Z" fill="#000000" fill-rule="evenodd" fill-opacity="1" /><path clip-path="url(#clip620)" d="M108.492 73.775 Q104.881 73.775 103.052 77.3398 Q101.246 80.8814 101.246 88.011 Q101.246 95.1174 103.052 98.6822 Q104.881 102.224 108.492 102.224 Q112.126 102.224 113.932 98.6822 Q115.76 95.1174 115.76 88.011 Q115.76 80.8814 113.932 77.3398 Q112.126 73.775 108.492 73.775 M108.492 70.0713 Q114.302 70.0713 117.358 74.6777 Q120.436 79.261 120.436 88.011 Q120.436 96.7378 117.358 101.344 Q114.302 105.928 108.492 105.928 Q102.682 105.928 99.603 101.344 Q96.5474 96.7378 96.5474 88.011 Q96.5474 79.261 99.603 74.6777 Q102.682 70.0713 108.492 70.0713 Z" fill="#000000" fill-rule="evenodd" fill-opacity="1" /><path clip-path="url(#clip620)" d="M129.464 101.321 L137.103 101.321 L137.103 74.9555 L128.793 76.6222 L128.793 72.3629 L137.056 70.6963 L141.732 70.6963 L141.732 101.321 L149.371 101.321 L149.371 105.256 L129.464 105.256 L129.464 101.321 Z" fill="#000000" fill-rule="evenodd" fill-opacity="1" /><path clip-path="url(#clip620)" d="M169.394 86.1129 Q166.246 86.1129 164.394 88.2656 Q162.566 90.4184 162.566 94.1684 Q162.566 97.8952 164.394 100.071 Q166.246 102.224 169.394 102.224 Q172.542 102.224 174.371 100.071 Q176.223 97.8952 176.223 94.1684 Q176.223 90.4184 174.371 88.2656 Q172.542 86.1129 169.394 86.1129 M178.677 71.4602 L178.677 75.7194 Q176.917 74.8861 175.112 74.4463 Q173.329 74.0064 171.57 74.0064 Q166.941 74.0064 164.487 77.1314 Q162.056 80.2564 161.709 86.5758 Q163.075 84.5619 165.135 83.4971 Q167.195 82.4092 169.672 82.4092 Q174.88 82.4092 177.89 85.5805 Q180.922 88.7286 180.922 94.1684 Q180.922 99.4924 177.774 102.71 Q174.626 105.928 169.394 105.928 Q163.399 105.928 160.228 101.344 Q157.056 96.7378 157.056 88.011 Q157.056 79.8166 160.945 74.9555 Q164.834 70.0713 171.385 70.0713 Q173.144 70.0713 174.927 70.4185 Q176.732 70.7657 178.677 71.4602 Z" fill="#000000" fill-rule="evenodd" fill-opacity="1" /><polyline clip-path="url(#clip622)" style="stroke:#009af9; stroke-linecap:butt; stroke-linejoin:round; stroke-width:4; stroke-opacity:1; fill:none" points="
  277.37,87.9763 282.42,101.554 287.47,115.131 292.52,128.708 297.57,142.286 302.62,155.863 307.67,169.441 312.72,183.018 317.77,196.595 322.82,210.173 
  327.87,223.75 332.92,237.328 337.97,250.905 343.02,264.482 348.07,278.06 353.12,291.637 358.17,305.215 363.22,318.792 368.27,332.369 373.32,345.947 
  378.369,359.524 383.419,373.102 388.469,386.679 393.519,400.256 398.569,413.834 403.619,427.411 408.669,440.989 413.719,454.566 418.769,468.143 423.819,481.721 
  428.869,495.298 433.919,508.875 438.969,522.453 444.019,536.03 449.069,549.608 454.119,563.185 459.169,576.762 464.219,590.34 469.269,603.917 474.319,617.495 
  479.369,631.072 484.419,644.649 489.469,658.227 494.519,671.804 499.569,685.382 504.619,698.959 509.669,712.536 514.719,726.114 519.769,739.691 524.819,753.269 
  529.869,766.846 534.919,780.423 539.969,794.001 545.018,807.578 550.068,821.156 555.118,834.733 560.168,848.31 565.218,861.888 570.268,875.465 575.318,889.043 
  580.368,902.62 585.418,916.197 590.468,929.775 595.518,943.352 600.568,956.93 605.618,970.507 610.668,984.084 615.718,997.662 620.768,1011.24 625.818,1024.82 
  630.868,1038.39 635.918,1051.97 640.968,1065.55 646.018,1079.13 651.068,1092.7 656.118,1106.28 661.168,1119.86 666.218,1133.44 671.268,1147.01 676.318,1160.59 
  681.368,1174.17 686.418,1187.75 691.468,1201.32 696.518,1214.9 701.568,1228.48 706.617,1242.05 711.667,1255.63 716.717,1269.21 721.767,1282.79 726.817,1296.36 
  731.867,1309.94 736.917,1323.52 741.967,1337.1 747.017,1350.67 752.067,1364.25 757.117,1377.83 762.167,1391.41 767.217,1404.98 772.267,1418.56 777.317,1432.14 
  782.367,1445.72 787.417,1410.52 792.467,1375.31 797.517,1340.11 802.567,1304.91 807.617,1269.71 812.667,1234.51 817.717,1199.31 822.767,1164.11 827.817,1128.91 
  832.867,1093.71 837.917,1058.51 842.967,1023.31 848.017,988.107 853.067,952.907 858.117,917.706 863.167,882.505 868.216,847.305 873.266,812.104 878.316,776.903 
  883.366,741.703 888.416,706.502 893.466,671.301 898.516,636.101 903.566,600.9 908.616,565.699 913.666,530.499 918.716,495.298 923.766,460.097 928.816,424.897 
  933.866,389.696 938.916,402.627 943.966,415.558 949.016,428.489 954.066,441.42 959.116,454.35 964.166,467.281 969.216,480.212 974.266,493.143 979.316,506.074 
  984.366,519.005 989.416,531.936 994.466,544.866 999.516,557.797 1004.57,570.728 1009.62,583.659 1014.67,596.59 1019.72,609.521 1024.77,622.451 1029.82,635.382 
  1034.87,648.313 1039.92,661.244 1044.97,674.175 1050.02,687.106 1055.07,700.037 1060.12,712.967 1065.17,725.898 1070.22,738.829 1075.27,751.76 1080.32,764.691 
  1085.37,777.622 1090.42,790.553 1095.47,803.483 1100.52,816.414 1105.57,829.345 1110.62,842.276 1115.66,855.207 1120.71,868.138 1125.76,881.069 1130.81,893.999 
  1135.86,906.93 1140.91,919.861 1145.96,932.792 1151.01,945.723 1156.06,958.654 1161.11,971.584 1166.16,984.515 1171.21,997.446 1176.26,1010.38 1181.31,1023.31 
  1186.36,1036.24 1191.41,1049.17 1196.46,1062.1 1201.51,1075.03 1206.56,1087.96 1211.61,1100.89 1216.66,1113.82 1221.71,1126.75 1226.76,1139.69 1231.81,1152.62 
  1236.86,1165.55 1241.91,1178.48 1246.96,1191.41 1252.01,1204.34 1257.06,1217.27 1262.11,1230.2 1267.16,1243.13 1272.21,1256.06 1277.26,1268.99 1282.31,1281.92 
  1287.36,1294.86 1292.41,1294.86 1297.46,1294.86 1302.51,1294.86 1307.56,1294.86 1312.61,1294.86 1317.66,1294.86 1322.71,1294.86 1327.76,1294.86 1332.81,1294.86 
  1337.86,1294.86 1342.91,1294.86 1347.96,1294.86 1353.01,1294.86 1358.06,1294.86 1363.11,1294.86 1368.16,1294.86 1373.21,1294.86 1378.26,1294.86 1383.31,1294.86 
  1388.36,1294.86 1393.41,1294.86 1398.46,1294.86 1403.51,1294.86 1408.56,1294.86 1413.61,1294.86 1418.66,1294.86 1423.71,1294.86 1428.76,1294.86 1433.81,1294.86 
  1438.86,1294.86 1443.91,1294.86 1448.96,1294.86 1454.01,1294.86 1459.06,1294.86 1464.11,1294.86 1469.16,1294.86 1474.21,1294.86 1479.26,1294.86 1484.31,1294.86 
  1489.36,1294.86 1494.41,1294.86 1499.46,1294.86 1504.51,1294.86 1509.56,1294.86 1514.61,1294.86 1519.66,1294.86 1524.71,1294.86 1529.76,1294.86 1534.81,1294.86 
  1539.86,1294.86 1544.91,1294.86 1549.96,1294.86 1555.01,1294.86 1560.06,1294.86 1565.11,1294.86 1570.16,1294.86 1575.21,1294.86 1580.26,1294.86 1585.31,1294.86 
  1590.36,1294.86 1595.41,1294.86 1600.46,1294.86 1605.51,1294.86 1610.56,1294.86 1615.61,1294.86 1620.66,1294.86 1625.71,1294.86 1630.76,1294.86 1635.81,1294.86 
  1640.86,1294.86 1645.91,1294.86 1650.96,1294.86 1656.01,1294.86 1661.06,1294.86 1666.11,1294.86 1671.16,1294.86 1676.21,1294.86 1681.26,1294.86 1686.31,1294.86 
  1691.36,1294.86 1696.41,1264.68 1701.46,1234.51 1706.51,1204.34 1711.56,1174.17 1716.61,1144 1721.66,1113.82 1726.71,1083.65 1731.76,1053.48 1736.81,1023.31 
  1741.86,993.136 1746.91,962.964 1751.96,932.792 1757.01,902.62 1762.06,872.448 1767.11,842.276 1772.16,812.104 1777.21,781.932 1782.26,751.76 1787.31,721.588 
  1792.36,691.416 1797.41,701.473 1802.46,711.531 1807.51,721.588 1812.56,731.645 1817.61,741.703 1822.66,751.76 1827.71,761.817 1832.76,771.875 1837.81,781.932 
  1842.86,791.989 1847.91,802.047 1852.96,812.104 1858.01,822.161 1863.06,832.219 1868.11,842.276 1873.16,852.333 1878.21,862.391 1883.26,872.448 1888.31,882.505 
  1893.36,892.563 1898.41,902.62 1903.46,912.677 1908.51,922.735 1913.56,932.792 1918.61,942.849 1923.66,952.907 1928.71,962.964 1933.76,973.021 1938.81,983.079 
  1943.86,993.136 1948.91,993.136 1953.96,993.136 1959.01,993.136 1964.06,993.136 1969.11,993.136 1974.16,993.136 1979.21,993.136 1984.26,993.136 1989.31,993.136 
  1994.36,993.136 1999.41,993.136 2004.46,993.136 2009.51,993.136 2014.56,993.136 2019.61,993.136 2024.66,993.136 2029.71,993.136 2034.76,993.136 2039.81,993.136 
  2044.86,993.136 2049.91,993.136 2054.96,993.136 2060.01,993.136 2065.06,993.136 2070.11,993.136 2075.16,993.136 2080.21,993.136 2085.26,993.136 2090.31,993.136 
  2095.36,993.136 2100.41,993.136 2105.46,993.136 2110.51,993.136 2115.56,993.136 2120.61,993.136 2125.66,993.136 2130.71,993.136 2135.76,993.136 2140.81,993.136 
  2145.86,993.136 2150.91,993.136 2155.96,993.136 2161.01,993.136 2166.06,993.136 2171.11,993.136 2176.16,993.136 2181.21,993.136 2186.26,993.136 2191.31,993.136 
  2196.36,993.136 2201.41,993.136 2206.46,993.136 2211.51,993.136 2216.56,993.136 2221.61,993.136 2226.66,993.136 2231.71,993.136 2236.76,993.136 2241.81,993.136 
  2246.86,993.136 2251.91,993.136 2256.96,993.136 2262.01,993.136 2267.06,993.136 2272.11,993.136 2277.16,993.136 2282.21,993.136 2287.26,993.136 2292.31,993.136 
  
  "/>
<path clip-path="url(#clip620)" d="
M1991.82 198.898 L2281.56 198.898 L2281.56 95.2176 L1991.82 95.2176  Z
  " fill="#ffffff" fill-rule="evenodd" fill-opacity="1"/>
<polyline clip-path="url(#clip620)" style="stroke:#000000; stroke-linecap:butt; stroke-linejoin:round; stroke-width:4; stroke-opacity:1; fill:none" points="
  1991.82,198.898 2281.56,198.898 2281.56,95.2176 1991.82,95.2176 1991.82,198.898 
  "/>
<polyline clip-path="url(#clip620)" style="stroke:#009af9; stroke-linecap:butt; stroke-linejoin:round; stroke-width:4; stroke-opacity:1; fill:none" points="
  2015.55,147.058 2157.94,147.058 
  "/>
<path clip-path="url(#clip620)" d="M2195.51 166.745 Q2193.71 171.375 2191.99 172.787 Q2190.28 174.199 2187.41 174.199 L2184.01 174.199 L2184.01 170.634 L2186.51 170.634 Q2188.27 170.634 2189.24 169.8 Q2190.21 168.967 2191.39 165.865 L2192.15 163.921 L2181.67 138.412 L2186.18 138.412 L2194.28 158.689 L2202.39 138.412 L2206.9 138.412 L2195.51 166.745 Z" fill="#000000" fill-rule="evenodd" fill-opacity="1" /><path clip-path="url(#clip620)" d="M2214.19 160.402 L2221.83 160.402 L2221.83 134.037 L2213.52 135.703 L2213.52 131.444 L2221.78 129.778 L2226.46 129.778 L2226.46 160.402 L2234.1 160.402 L2234.1 164.338 L2214.19 164.338 L2214.19 160.402 Z" fill="#000000" fill-rule="evenodd" fill-opacity="1" /></svg>
