<?xml version="1.0" encoding="utf-8"?>
<svg xmlns="http://www.w3.org/2000/svg" xmlns:xlink="http://www.w3.org/1999/xlink" width="600" height="400" viewBox="0 0 2400 1600">
<defs>
  <clipPath id="clip820">
    <rect x="0" y="0" width="2400" height="1600"/>
  </clipPath>
</defs>
<path clip-path="url(#clip820)" d="
M0 1600 L2400 1600 L2400 0 L0 0  Z
  " fill="#ffffff" fill-rule="evenodd" fill-opacity="1"/>
<defs>
  <clipPath id="clip821">
    <rect x="480" y="0" width="1681" height="1600"/>
  </clipPath>
</defs>
<path clip-path="url(#clip820)" d="
M368.886 1423.18 L2352.76 1423.18 L2352.76 123.472 L368.886 123.472  Z
  " fill="#ffffff" fill-rule="evenodd" fill-opacity="1"/>
<defs>
  <clipPath id="clip822">
    <rect x="368" y="123" width="1985" height="1301"/>
  </clipPath>
</defs>
<polyline clip-path="url(#clip822)" style="stroke:#000000; stroke-linecap:butt; stroke-linejoin:round; stroke-width:2; stroke-opacity:0.1; fill:none" points="
  368.886,1423.18 368.886,123.472 
  "/>
<polyline clip-path="url(#clip822)" style="stroke:#000000; stroke-linecap:butt; stroke-linejoin:round; stroke-width:2; stroke-opacity:0.1; fill:none" points="
  864.853,1423.18 864.853,123.472 
  "/>
<polyline clip-path="url(#clip822)" style="stroke:#000000; stroke-linecap:butt; stroke-linejoin:round; stroke-width:2; stroke-opacity:0.1; fill:none" points="
  1360.82,1423.18 1360.82,123.472 
  "/>
<polyline clip-path="url(#clip822)" style="stroke:#000000; stroke-linecap:butt; stroke-linejoin:round; stroke-width:2; stroke-opacity:0.1; fill:none" points="
  1856.79,1423.18 1856.79,123.472 
  "/>
<polyline clip-path="url(#clip822)" style="stroke:#000000; stroke-linecap:butt; stroke-linejoin:round; stroke-width:2; stroke-opacity:0.1; fill:none" points="
  2352.76,1423.18 2352.76,123.472 
  "/>
<polyline clip-path="url(#clip820)" style="stroke:#000000; stroke-linecap:butt; stroke-linejoin:round; stroke-width:4; stroke-opacity:1; fill:none" points="
  368.886,1423.18 2352.76,1423.18 
  "/>
<polyline clip-path="url(#clip820)" style="stroke:#000000; stroke-linecap:butt; stroke-linejoin:round; stroke-width:4; stroke-opacity:1; fill:none" points="
  368.886,1423.18 368.886,1404.28 
  "/>
<polyline clip-path="url(#clip820)" style="stroke:#000000; stroke-linecap:butt; stroke-linejoin:round; stroke-width:4; stroke-opacity:1; fill:none" points="
  864.853,1423.18 864.853,1404.28 
  "/>
<polyline clip-path="url(#clip820)" style="stroke:#000000; stroke-linecap:butt; stroke-linejoin:round; stroke-width:4; stroke-opacity:1; fill:none" points="
  1360.82,1423.18 1360.82,1404.28 
  "/>
<polyline clip-path="url(#clip820)" style="stroke:#000000; stroke-linecap:butt; stroke-linejoin:round; stroke-width:4; stroke-opacity:1; fill:none" points="
  1856.79,1423.18 1856.79,1404.28 
  "/>
<polyline clip-path="url(#clip820)" style="stroke:#000000; stroke-linecap:butt; stroke-linejoin:round; stroke-width:4; stroke-opacity:1; fill:none" points="
  2352.76,1423.18 2352.76,1404.28 
  "/>
<path clip-path="url(#clip820)" d="M368.886 1452.37 Q365.275 1452.37 363.446 1455.94 Q361.641 1459.48 361.641 1466.61 Q361.641 1473.71 363.446 1477.28 Q365.275 1480.82 368.886 1480.82 Q372.52 1480.82 374.326 1477.28 Q376.154 1473.71 376.154 1466.61 Q376.154 1459.48 374.326 1455.94 Q372.52 1452.37 368.886 1452.37 M368.886 1448.67 Q374.696 1448.67 377.752 1453.27 Q380.83 1457.86 380.83 1466.61 Q380.83 1475.33 377.752 1479.94 Q374.696 1484.52 368.886 1484.52 Q363.076 1484.52 359.997 1479.94 Q356.942 1475.33 356.942 1466.61 Q356.942 1457.86 359.997 1453.27 Q363.076 1448.67 368.886 1448.67 Z" fill="#000000" fill-rule="evenodd" fill-opacity="1" /><path clip-path="url(#clip820)" d="M824.46 1479.92 L832.099 1479.92 L832.099 1453.55 L823.789 1455.22 L823.789 1450.96 L832.053 1449.29 L836.729 1449.29 L836.729 1479.92 L844.367 1479.92 L844.367 1483.85 L824.46 1483.85 L824.46 1479.92 Z" fill="#000000" fill-rule="evenodd" fill-opacity="1" /><path clip-path="url(#clip820)" d="M863.812 1452.37 Q860.201 1452.37 858.372 1455.94 Q856.566 1459.48 856.566 1466.61 Q856.566 1473.71 858.372 1477.28 Q860.201 1480.82 863.812 1480.82 Q867.446 1480.82 869.252 1477.28 Q871.08 1473.71 871.08 1466.61 Q871.08 1459.48 869.252 1455.94 Q867.446 1452.37 863.812 1452.37 M863.812 1448.67 Q869.622 1448.67 872.678 1453.27 Q875.756 1457.86 875.756 1466.61 Q875.756 1475.33 872.678 1479.94 Q869.622 1484.52 863.812 1484.52 Q858.002 1484.52 854.923 1479.94 Q851.867 1475.33 851.867 1466.61 Q851.867 1457.86 854.923 1453.27 Q858.002 1448.67 863.812 1448.67 Z" fill="#000000" fill-rule="evenodd" fill-opacity="1" /><path clip-path="url(#clip820)" d="M893.974 1452.37 Q890.363 1452.37 888.534 1455.94 Q886.728 1459.48 886.728 1466.61 Q886.728 1473.71 888.534 1477.28 Q890.363 1480.82 893.974 1480.82 Q897.608 1480.82 899.413 1477.28 Q901.242 1473.71 901.242 1466.61 Q901.242 1459.48 899.413 1455.94 Q897.608 1452.37 893.974 1452.37 M893.974 1448.67 Q899.784 1448.67 902.839 1453.27 Q905.918 1457.86 905.918 1466.61 Q905.918 1475.33 902.839 1479.94 Q899.784 1484.52 893.974 1484.52 Q888.164 1484.52 885.085 1479.94 Q882.029 1475.33 882.029 1466.61 Q882.029 1457.86 885.085 1453.27 Q888.164 1448.67 893.974 1448.67 Z" fill="#000000" fill-rule="evenodd" fill-opacity="1" /><path clip-path="url(#clip820)" d="M1324.51 1479.92 L1340.83 1479.92 L1340.83 1483.85 L1318.89 1483.85 L1318.89 1479.92 Q1321.55 1477.16 1326.13 1472.53 Q1330.74 1467.88 1331.92 1466.54 Q1334.17 1464.01 1335.05 1462.28 Q1335.95 1460.52 1335.95 1458.83 Q1335.95 1456.07 1334 1454.34 Q1332.08 1452.6 1328.98 1452.6 Q1326.78 1452.6 1324.33 1453.37 Q1321.9 1454.13 1319.12 1455.68 L1319.12 1450.96 Q1321.94 1449.82 1324.4 1449.25 Q1326.85 1448.67 1328.89 1448.67 Q1334.26 1448.67 1337.45 1451.35 Q1340.65 1454.04 1340.65 1458.53 Q1340.65 1460.66 1339.84 1462.58 Q1339.05 1464.48 1336.94 1467.07 Q1336.37 1467.74 1333.26 1470.96 Q1330.16 1474.15 1324.51 1479.92 Z" fill="#000000" fill-rule="evenodd" fill-opacity="1" /><path clip-path="url(#clip820)" d="M1360.65 1452.37 Q1357.04 1452.37 1355.21 1455.94 Q1353.4 1459.48 1353.4 1466.61 Q1353.4 1473.71 1355.21 1477.28 Q1357.04 1480.82 1360.65 1480.82 Q1364.28 1480.82 1366.09 1477.28 Q1367.92 1473.71 1367.92 1466.61 Q1367.92 1459.48 1366.09 1455.94 Q1364.28 1452.37 1360.65 1452.37 M1360.65 1448.67 Q1366.46 1448.67 1369.51 1453.27 Q1372.59 1457.86 1372.59 1466.61 Q1372.59 1475.33 1369.51 1479.94 Q1366.46 1484.52 1360.65 1484.52 Q1354.84 1484.52 1351.76 1479.94 Q1348.7 1475.33 1348.7 1466.61 Q1348.7 1457.86 1351.76 1453.27 Q1354.84 1448.67 1360.65 1448.67 Z" fill="#000000" fill-rule="evenodd" fill-opacity="1" /><path clip-path="url(#clip820)" d="M1390.81 1452.37 Q1387.2 1452.37 1385.37 1455.94 Q1383.56 1459.48 1383.56 1466.61 Q1383.56 1473.71 1385.37 1477.28 Q1387.2 1480.82 1390.81 1480.82 Q1394.44 1480.82 1396.25 1477.28 Q1398.08 1473.71 1398.08 1466.61 Q1398.08 1459.48 1396.25 1455.94 Q1394.44 1452.37 1390.81 1452.37 M1390.81 1448.67 Q1396.62 1448.67 1399.67 1453.27 Q1402.75 1457.86 1402.75 1466.61 Q1402.75 1475.33 1399.67 1479.94 Q1396.62 1484.52 1390.81 1484.52 Q1385 1484.52 1381.92 1479.94 Q1378.86 1475.33 1378.86 1466.61 Q1378.86 1457.86 1381.92 1453.27 Q1385 1448.67 1390.81 1448.67 Z" fill="#000000" fill-rule="evenodd" fill-opacity="1" /><path clip-path="url(#clip820)" d="M1830.55 1465.22 Q1833.91 1465.94 1835.78 1468.2 Q1837.68 1470.47 1837.68 1473.81 Q1837.68 1478.92 1834.16 1481.72 Q1830.64 1484.52 1824.16 1484.52 Q1821.99 1484.52 1819.67 1484.08 Q1817.38 1483.67 1814.93 1482.81 L1814.93 1478.3 Q1816.87 1479.43 1819.18 1480.01 Q1821.5 1480.59 1824.02 1480.59 Q1828.42 1480.59 1830.71 1478.85 Q1833.03 1477.12 1833.03 1473.81 Q1833.03 1470.75 1830.87 1469.04 Q1828.74 1467.3 1824.93 1467.3 L1820.9 1467.3 L1820.9 1463.46 L1825.11 1463.46 Q1828.56 1463.46 1830.39 1462.09 Q1832.22 1460.7 1832.22 1458.11 Q1832.22 1455.45 1830.32 1454.04 Q1828.44 1452.6 1824.93 1452.6 Q1823 1452.6 1820.8 1453.02 Q1818.61 1453.44 1815.97 1454.31 L1815.97 1450.15 Q1818.63 1449.41 1820.94 1449.04 Q1823.28 1448.67 1825.34 1448.67 Q1830.67 1448.67 1833.77 1451.1 Q1836.87 1453.5 1836.87 1457.63 Q1836.87 1460.5 1835.23 1462.49 Q1833.58 1464.45 1830.55 1465.22 Z" fill="#000000" fill-rule="evenodd" fill-opacity="1" /><path clip-path="url(#clip820)" d="M1856.55 1452.37 Q1852.93 1452.37 1851.11 1455.94 Q1849.3 1459.48 1849.3 1466.61 Q1849.3 1473.71 1851.11 1477.28 Q1852.93 1480.82 1856.55 1480.82 Q1860.18 1480.82 1861.99 1477.28 Q1863.81 1473.71 1863.81 1466.61 Q1863.81 1459.48 1861.99 1455.94 Q1860.18 1452.37 1856.55 1452.37 M1856.55 1448.67 Q1862.36 1448.67 1865.41 1453.27 Q1868.49 1457.86 1868.49 1466.61 Q1868.49 1475.33 1865.41 1479.94 Q1862.36 1484.52 1856.55 1484.52 Q1850.74 1484.52 1847.66 1479.94 Q1844.6 1475.33 1844.6 1466.61 Q1844.6 1457.86 1847.66 1453.27 Q1850.74 1448.67 1856.55 1448.67 Z" fill="#000000" fill-rule="evenodd" fill-opacity="1" /><path clip-path="url(#clip820)" d="M1886.71 1452.37 Q1883.1 1452.37 1881.27 1455.94 Q1879.46 1459.48 1879.46 1466.61 Q1879.46 1473.71 1881.27 1477.28 Q1883.1 1480.82 1886.71 1480.82 Q1890.34 1480.82 1892.15 1477.28 Q1893.98 1473.71 1893.98 1466.61 Q1893.98 1459.48 1892.15 1455.94 Q1890.34 1452.37 1886.71 1452.37 M1886.71 1448.67 Q1892.52 1448.67 1895.57 1453.27 Q1898.65 1457.86 1898.65 1466.61 Q1898.65 1475.33 1895.57 1479.94 Q1892.52 1484.52 1886.71 1484.52 Q1880.9 1484.52 1877.82 1479.94 Q1874.76 1475.33 1874.76 1466.61 Q1874.76 1457.86 1877.82 1453.27 Q1880.9 1448.67 1886.71 1448.67 Z" fill="#000000" fill-rule="evenodd" fill-opacity="1" /><path clip-path="url(#clip820)" d="M2325.85 1453.37 L2314.04 1471.81 L2325.85 1471.81 L2325.85 1453.37 M2324.62 1449.29 L2330.5 1449.29 L2330.5 1471.81 L2335.43 1471.81 L2335.43 1475.7 L2330.5 1475.7 L2330.5 1483.85 L2325.85 1483.85 L2325.85 1475.7 L2310.24 1475.7 L2310.24 1471.19 L2324.62 1449.29 Z" fill="#000000" fill-rule="evenodd" fill-opacity="1" /><path clip-path="url(#clip820)" d="M2353.16 1452.37 Q2349.55 1452.37 2347.72 1455.94 Q2345.92 1459.48 2345.92 1466.61 Q2345.92 1473.71 2347.72 1477.28 Q2349.55 1480.82 2353.16 1480.82 Q2356.8 1480.82 2358.6 1477.28 Q2360.43 1473.71 2360.43 1466.61 Q2360.43 1459.48 2358.6 1455.94 Q2356.8 1452.37 2353.16 1452.37 M2353.16 1448.67 Q2358.97 1448.67 2362.03 1453.27 Q2365.11 1457.86 2365.11 1466.61 Q2365.11 1475.33 2362.03 1479.94 Q2358.97 1484.52 2353.16 1484.52 Q2347.35 1484.52 2344.27 1479.94 Q2341.22 1475.33 2341.22 1466.61 Q2341.22 1457.86 2344.27 1453.27 Q2347.35 1448.67 2353.16 1448.67 Z" fill="#000000" fill-rule="evenodd" fill-opacity="1" /><path clip-path="url(#clip820)" d="M2383.32 1452.37 Q2379.71 1452.37 2377.88 1455.94 Q2376.08 1459.48 2376.08 1466.61 Q2376.08 1473.71 2377.88 1477.28 Q2379.71 1480.82 2383.32 1480.82 Q2386.96 1480.82 2388.76 1477.28 Q2390.59 1473.71 2390.59 1466.61 Q2390.59 1459.48 2388.76 1455.94 Q2386.96 1452.37 2383.32 1452.37 M2383.32 1448.67 Q2389.13 1448.67 2392.19 1453.27 Q2395.27 1457.86 2395.27 1466.61 Q2395.27 1475.33 2392.19 1479.94 Q2389.13 1484.52 2383.32 1484.52 Q2377.51 1484.52 2374.43 1479.94 Q2371.38 1475.33 2371.38 1466.61 Q2371.38 1457.86 2374.43 1453.27 Q2377.51 1448.67 2383.32 1448.67 Z" fill="#000000" fill-rule="evenodd" fill-opacity="1" /><path clip-path="url(#clip820)" d="M1359.88 1522.27 L1359.88 1532.4 L1371.95 1532.4 L1371.95 1536.95 L1359.88 1536.95 L1359.88 1556.3 Q1359.88 1560.66 1361.06 1561.9 Q1362.27 1563.14 1365.93 1563.14 L1371.95 1563.14 L1371.95 1568.04 L1365.93 1568.04 Q1359.15 1568.04 1356.57 1565.53 Q1353.99 1562.98 1353.99 1556.3 L1353.99 1536.95 L1349.7 1536.95 L1349.7 1532.4 L1353.99 1532.4 L1353.99 1522.27 L1359.88 1522.27 Z" fill="#000000" fill-rule="evenodd" fill-opacity="1" /><polyline clip-path="url(#clip822)" style="stroke:#000000; stroke-linecap:butt; stroke-linejoin:round; stroke-width:2; stroke-opacity:0.1; fill:none" points="
  368.886,1386.41 2352.76,1386.41 
  "/>
<polyline clip-path="url(#clip822)" style="stroke:#000000; stroke-linecap:butt; stroke-linejoin:round; stroke-width:2; stroke-opacity:0.1; fill:none" points="
  368.886,1185.37 2352.76,1185.37 
  "/>
<polyline clip-path="url(#clip822)" style="stroke:#000000; stroke-linecap:butt; stroke-linejoin:round; stroke-width:2; stroke-opacity:0.1; fill:none" points="
  368.886,984.332 2352.76,984.332 
  "/>
<polyline clip-path="url(#clip822)" style="stroke:#000000; stroke-linecap:butt; stroke-linejoin:round; stroke-width:2; stroke-opacity:0.1; fill:none" points="
  368.886,783.296 2352.76,783.296 
  "/>
<polyline clip-path="url(#clip822)" style="stroke:#000000; stroke-linecap:butt; stroke-linejoin:round; stroke-width:2; stroke-opacity:0.1; fill:none" points="
  368.886,582.259 2352.76,582.259 
  "/>
<polyline clip-path="url(#clip822)" style="stroke:#000000; stroke-linecap:butt; stroke-linejoin:round; stroke-width:2; stroke-opacity:0.1; fill:none" points="
  368.886,381.222 2352.76,381.222 
  "/>
<polyline clip-path="url(#clip822)" style="stroke:#000000; stroke-linecap:butt; stroke-linejoin:round; stroke-width:2; stroke-opacity:0.1; fill:none" points="
  368.886,180.186 2352.76,180.186 
  "/>
<polyline clip-path="url(#clip820)" style="stroke:#000000; stroke-linecap:butt; stroke-linejoin:round; stroke-width:4; stroke-opacity:1; fill:none" points="
  368.886,1423.18 368.886,123.472 
  "/>
<polyline clip-path="url(#clip820)" style="stroke:#000000; stroke-linecap:butt; stroke-linejoin:round; stroke-width:4; stroke-opacity:1; fill:none" points="
  368.886,1386.41 387.784,1386.41 
  "/>
<polyline clip-path="url(#clip820)" style="stroke:#000000; stroke-linecap:butt; stroke-linejoin:round; stroke-width:4; stroke-opacity:1; fill:none" points="
  368.886,1185.37 387.784,1185.37 
  "/>
<polyline clip-path="url(#clip820)" style="stroke:#000000; stroke-linecap:butt; stroke-linejoin:round; stroke-width:4; stroke-opacity:1; fill:none" points="
  368.886,984.332 387.784,984.332 
  "/>
<polyline clip-path="url(#clip820)" style="stroke:#000000; stroke-linecap:butt; stroke-linejoin:round; stroke-width:4; stroke-opacity:1; fill:none" points="
  368.886,783.296 387.784,783.296 
  "/>
<polyline clip-path="url(#clip820)" style="stroke:#000000; stroke-linecap:butt; stroke-linejoin:round; stroke-width:4; stroke-opacity:1; fill:none" points="
  368.886,582.259 387.784,582.259 
  "/>
<polyline clip-path="url(#clip820)" style="stroke:#000000; stroke-linecap:butt; stroke-linejoin:round; stroke-width:4; stroke-opacity:1; fill:none" points="
  368.886,381.222 387.784,381.222 
  "/>
<polyline clip-path="url(#clip820)" style="stroke:#000000; stroke-linecap:butt; stroke-linejoin:round; stroke-width:4; stroke-opacity:1; fill:none" points="
  368.886,180.186 387.784,180.186 
  "/>
<path clip-path="url(#clip820)" d="M320.942 1372.2 Q317.331 1372.2 315.502 1375.77 Q313.696 1379.31 313.696 1386.44 Q313.696 1393.55 315.502 1397.11 Q317.331 1400.65 320.942 1400.65 Q324.576 1400.65 326.381 1397.11 Q328.21 1393.55 328.21 1386.44 Q328.21 1379.31 326.381 1375.77 Q324.576 1372.2 320.942 1372.2 M320.942 1368.5 Q326.752 1368.5 329.807 1373.11 Q332.886 1377.69 332.886 1386.44 Q332.886 1395.17 329.807 1399.77 Q326.752 1404.36 320.942 1404.36 Q315.131 1404.36 312.053 1399.77 Q308.997 1395.17 308.997 1386.44 Q308.997 1377.69 312.053 1373.11 Q315.131 1368.5 320.942 1368.5 Z" fill="#000000" fill-rule="evenodd" fill-opacity="1" /><path clip-path="url(#clip820)" d="M121.043 1205.16 L137.362 1205.16 L137.362 1209.1 L115.418 1209.1 L115.418 1205.16 Q118.08 1202.41 122.663 1197.78 Q127.269 1193.12 128.45 1191.78 Q130.695 1189.26 131.575 1187.52 Q132.478 1185.76 132.478 1184.07 Q132.478 1181.32 130.533 1179.58 Q128.612 1177.85 125.51 1177.85 Q123.311 1177.85 120.857 1178.61 Q118.427 1179.37 115.649 1180.93 L115.649 1176.2 Q118.473 1175.07 120.927 1174.49 Q123.38 1173.91 125.418 1173.91 Q130.788 1173.91 133.982 1176.6 Q137.177 1179.28 137.177 1183.77 Q137.177 1185.9 136.367 1187.82 Q135.579 1189.72 133.473 1192.31 Q132.894 1192.99 129.792 1196.2 Q126.691 1199.4 121.043 1205.16 Z" fill="#000000" fill-rule="evenodd" fill-opacity="1" /><path clip-path="url(#clip820)" d="M147.177 1203.22 L152.061 1203.22 L152.061 1209.1 L147.177 1209.1 L147.177 1203.22 Z" fill="#000000" fill-rule="evenodd" fill-opacity="1" /><path clip-path="url(#clip820)" d="M172.246 1177.62 Q168.635 1177.62 166.806 1181.18 Q165.001 1184.72 165.001 1191.85 Q165.001 1198.96 166.806 1202.52 Q168.635 1206.06 172.246 1206.06 Q175.88 1206.06 177.686 1202.52 Q179.514 1198.96 179.514 1191.85 Q179.514 1184.72 177.686 1181.18 Q175.88 1177.62 172.246 1177.62 M172.246 1173.91 Q178.056 1173.91 181.112 1178.52 Q184.19 1183.1 184.19 1191.85 Q184.19 1200.58 181.112 1205.18 Q178.056 1209.77 172.246 1209.77 Q166.436 1209.77 163.357 1205.18 Q160.302 1200.58 160.302 1191.85 Q160.302 1183.1 163.357 1178.52 Q166.436 1173.91 172.246 1173.91 Z" fill="#000000" fill-rule="evenodd" fill-opacity="1" /><path clip-path="url(#clip820)" d="M202.408 1177.62 Q198.797 1177.62 196.968 1181.18 Q195.163 1184.72 195.163 1191.85 Q195.163 1198.96 196.968 1202.52 Q198.797 1206.06 202.408 1206.06 Q206.042 1206.06 207.848 1202.52 Q209.676 1198.96 209.676 1191.85 Q209.676 1184.72 207.848 1181.18 Q206.042 1177.62 202.408 1177.62 M202.408 1173.91 Q208.218 1173.91 211.274 1178.52 Q214.352 1183.1 214.352 1191.85 Q214.352 1200.58 211.274 1205.18 Q208.218 1209.77 202.408 1209.77 Q196.598 1209.77 193.519 1205.18 Q190.463 1200.58 190.463 1191.85 Q190.463 1183.1 193.519 1178.52 Q196.598 1173.91 202.408 1173.91 Z" fill="#000000" fill-rule="evenodd" fill-opacity="1" /><path clip-path="url(#clip820)" d="M250.741 1183.63 L240.162 1194.26 L250.741 1204.84 L247.986 1207.64 L237.361 1197.01 L226.736 1207.64 L224.005 1204.84 L234.56 1194.26 L224.005 1183.63 L226.736 1180.83 L237.361 1191.46 L247.986 1180.83 L250.741 1183.63 Z" fill="#000000" fill-rule="evenodd" fill-opacity="1" /><path clip-path="url(#clip820)" d="M263.102 1205.16 L270.741 1205.16 L270.741 1178.8 L262.431 1180.46 L262.431 1176.2 L270.695 1174.54 L275.37 1174.54 L275.37 1205.16 L283.009 1205.16 L283.009 1209.1 L263.102 1209.1 L263.102 1205.16 Z" fill="#000000" fill-rule="evenodd" fill-opacity="1" /><path clip-path="url(#clip820)" d="M302.454 1177.62 Q298.843 1177.62 297.014 1181.18 Q295.208 1184.72 295.208 1191.85 Q295.208 1198.96 297.014 1202.52 Q298.843 1206.06 302.454 1206.06 Q306.088 1206.06 307.893 1202.52 Q309.722 1198.96 309.722 1191.85 Q309.722 1184.72 307.893 1181.18 Q306.088 1177.62 302.454 1177.62 M302.454 1173.91 Q308.264 1173.91 311.319 1178.52 Q314.398 1183.1 314.398 1191.85 Q314.398 1200.58 311.319 1205.18 Q308.264 1209.77 302.454 1209.77 Q296.643 1209.77 293.565 1205.18 Q290.509 1200.58 290.509 1191.85 Q290.509 1183.1 293.565 1178.52 Q296.643 1173.91 302.454 1173.91 Z" fill="#000000" fill-rule="evenodd" fill-opacity="1" /><path clip-path="url(#clip820)" d="M327.093 1166.55 Q329.82 1167.13 331.344 1168.97 Q332.886 1170.82 332.886 1173.52 Q332.886 1177.68 330.027 1179.96 Q327.168 1182.23 321.902 1182.23 Q320.134 1182.23 318.254 1181.87 Q316.392 1181.54 314.398 1180.84 L314.398 1177.17 Q315.978 1178.09 317.859 1178.56 Q319.739 1179.03 321.789 1179.03 Q325.363 1179.03 327.225 1177.62 Q329.106 1176.21 329.106 1173.52 Q329.106 1171.04 327.357 1169.65 Q325.626 1168.24 322.523 1168.24 L319.25 1168.24 L319.25 1165.12 L322.673 1165.12 Q325.476 1165.12 326.962 1164.01 Q328.447 1162.88 328.447 1160.77 Q328.447 1158.61 326.905 1157.46 Q325.382 1156.3 322.523 1156.3 Q320.962 1156.3 319.175 1156.63 Q317.388 1156.97 315.244 1157.69 L315.244 1154.3 Q317.407 1153.7 319.288 1153.4 Q321.188 1153.1 322.861 1153.1 Q327.187 1153.1 329.707 1155.07 Q332.228 1157.03 332.228 1160.38 Q332.228 1162.71 330.892 1164.33 Q329.557 1165.93 327.093 1166.55 Z" fill="#000000" fill-rule="evenodd" fill-opacity="1" /><path clip-path="url(#clip820)" d="M129.862 977.574 L118.056 996.023 L129.862 996.023 L129.862 977.574 M128.635 973.5 L134.515 973.5 L134.515 996.023 L139.445 996.023 L139.445 999.912 L134.515 999.912 L134.515 1008.06 L129.862 1008.06 L129.862 999.912 L114.26 999.912 L114.26 995.398 L128.635 973.5 Z" fill="#000000" fill-rule="evenodd" fill-opacity="1" /><path clip-path="url(#clip820)" d="M147.177 1002.18 L152.061 1002.18 L152.061 1008.06 L147.177 1008.06 L147.177 1002.18 Z" fill="#000000" fill-rule="evenodd" fill-opacity="1" /><path clip-path="url(#clip820)" d="M172.246 976.579 Q168.635 976.579 166.806 980.143 Q165.001 983.685 165.001 990.815 Q165.001 997.921 166.806 1001.49 Q168.635 1005.03 172.246 1005.03 Q175.88 1005.03 177.686 1001.49 Q179.514 997.921 179.514 990.815 Q179.514 983.685 177.686 980.143 Q175.88 976.579 172.246 976.579 M172.246 972.875 Q178.056 972.875 181.112 977.481 Q184.19 982.065 184.19 990.815 Q184.19 999.542 181.112 1004.15 Q178.056 1008.73 172.246 1008.73 Q166.436 1008.73 163.357 1004.15 Q160.302 999.542 160.302 990.815 Q160.302 982.065 163.357 977.481 Q166.436 972.875 172.246 972.875 Z" fill="#000000" fill-rule="evenodd" fill-opacity="1" /><path clip-path="url(#clip820)" d="M202.408 976.579 Q198.797 976.579 196.968 980.143 Q195.163 983.685 195.163 990.815 Q195.163 997.921 196.968 1001.49 Q198.797 1005.03 202.408 1005.03 Q206.042 1005.03 207.848 1001.49 Q209.676 997.921 209.676 990.815 Q209.676 983.685 207.848 980.143 Q206.042 976.579 202.408 976.579 M202.408 972.875 Q208.218 972.875 211.274 977.481 Q214.352 982.065 214.352 990.815 Q214.352 999.542 211.274 1004.15 Q208.218 1008.73 202.408 1008.73 Q196.598 1008.73 193.519 1004.15 Q190.463 999.542 190.463 990.815 Q190.463 982.065 193.519 977.481 Q196.598 972.875 202.408 972.875 Z" fill="#000000" fill-rule="evenodd" fill-opacity="1" /><path clip-path="url(#clip820)" d="M250.741 982.597 L240.162 993.222 L250.741 1003.8 L247.986 1006.6 L237.361 995.977 L226.736 1006.6 L224.005 1003.8 L234.56 993.222 L224.005 982.597 L226.736 979.796 L237.361 990.421 L247.986 979.796 L250.741 982.597 Z" fill="#000000" fill-rule="evenodd" fill-opacity="1" /><path clip-path="url(#clip820)" d="M263.102 1004.12 L270.741 1004.12 L270.741 977.759 L262.431 979.426 L262.431 975.167 L270.695 973.5 L275.37 973.5 L275.37 1004.12 L283.009 1004.12 L283.009 1008.06 L263.102 1008.06 L263.102 1004.12 Z" fill="#000000" fill-rule="evenodd" fill-opacity="1" /><path clip-path="url(#clip820)" d="M302.454 976.579 Q298.843 976.579 297.014 980.143 Q295.208 983.685 295.208 990.815 Q295.208 997.921 297.014 1001.49 Q298.843 1005.03 302.454 1005.03 Q306.088 1005.03 307.893 1001.49 Q309.722 997.921 309.722 990.815 Q309.722 983.685 307.893 980.143 Q306.088 976.579 302.454 976.579 M302.454 972.875 Q308.264 972.875 311.319 977.481 Q314.398 982.065 314.398 990.815 Q314.398 999.542 311.319 1004.15 Q308.264 1008.73 302.454 1008.73 Q296.643 1008.73 293.565 1004.15 Q290.509 999.542 290.509 990.815 Q290.509 982.065 293.565 977.481 Q296.643 972.875 302.454 972.875 Z" fill="#000000" fill-rule="evenodd" fill-opacity="1" /><path clip-path="url(#clip820)" d="M327.093 965.509 Q329.82 966.092 331.344 967.936 Q332.886 969.779 332.886 972.487 Q332.886 976.644 330.027 978.919 Q327.168 981.195 321.902 981.195 Q320.134 981.195 318.254 980.838 Q316.392 980.499 314.398 979.803 L314.398 976.136 Q315.978 977.057 317.859 977.528 Q319.739 977.998 321.789 977.998 Q325.363 977.998 327.225 976.587 Q329.106 975.177 329.106 972.487 Q329.106 970.004 327.357 968.613 Q325.626 967.202 322.523 967.202 L319.25 967.202 L319.25 964.08 L322.673 964.08 Q325.476 964.08 326.962 962.97 Q328.447 961.842 328.447 959.735 Q328.447 957.572 326.905 956.425 Q325.382 955.259 322.523 955.259 Q320.962 955.259 319.175 955.598 Q317.388 955.936 315.244 956.651 L315.244 953.266 Q317.407 952.664 319.288 952.363 Q321.188 952.062 322.861 952.062 Q327.187 952.062 329.707 954.037 Q332.228 955.993 332.228 959.34 Q332.228 961.673 330.892 963.29 Q329.557 964.889 327.093 965.509 Z" fill="#000000" fill-rule="evenodd" fill-opacity="1" /><path clip-path="url(#clip820)" d="M127.593 787.88 Q124.445 787.88 122.593 790.033 Q120.765 792.185 120.765 795.935 Q120.765 799.662 122.593 801.838 Q124.445 803.991 127.593 803.991 Q130.742 803.991 132.57 801.838 Q134.422 799.662 134.422 795.935 Q134.422 792.185 132.57 790.033 Q130.742 787.88 127.593 787.88 M136.876 773.227 L136.876 777.486 Q135.117 776.653 133.311 776.213 Q131.529 775.774 129.769 775.774 Q125.14 775.774 122.686 778.899 Q120.255 782.023 119.908 788.343 Q121.274 786.329 123.334 785.264 Q125.394 784.176 127.871 784.176 Q133.08 784.176 136.089 787.348 Q139.121 790.496 139.121 795.935 Q139.121 801.26 135.973 804.477 Q132.825 807.695 127.593 807.695 Q121.598 807.695 118.427 803.111 Q115.256 798.505 115.256 789.778 Q115.256 781.584 119.144 776.723 Q123.033 771.838 129.584 771.838 Q131.343 771.838 133.126 772.186 Q134.931 772.533 136.876 773.227 Z" fill="#000000" fill-rule="evenodd" fill-opacity="1" /><path clip-path="url(#clip820)" d="M147.177 801.144 L152.061 801.144 L152.061 807.023 L147.177 807.023 L147.177 801.144 Z" fill="#000000" fill-rule="evenodd" fill-opacity="1" /><path clip-path="url(#clip820)" d="M172.246 775.542 Q168.635 775.542 166.806 779.107 Q165.001 782.648 165.001 789.778 Q165.001 796.885 166.806 800.449 Q168.635 803.991 172.246 803.991 Q175.88 803.991 177.686 800.449 Q179.514 796.885 179.514 789.778 Q179.514 782.648 177.686 779.107 Q175.88 775.542 172.246 775.542 M172.246 771.838 Q178.056 771.838 181.112 776.445 Q184.19 781.028 184.19 789.778 Q184.19 798.505 181.112 803.111 Q178.056 807.695 172.246 807.695 Q166.436 807.695 163.357 803.111 Q160.302 798.505 160.302 789.778 Q160.302 781.028 163.357 776.445 Q166.436 771.838 172.246 771.838 Z" fill="#000000" fill-rule="evenodd" fill-opacity="1" /><path clip-path="url(#clip820)" d="M202.408 775.542 Q198.797 775.542 196.968 779.107 Q195.163 782.648 195.163 789.778 Q195.163 796.885 196.968 800.449 Q198.797 803.991 202.408 803.991 Q206.042 803.991 207.848 800.449 Q209.676 796.885 209.676 789.778 Q209.676 782.648 207.848 779.107 Q206.042 775.542 202.408 775.542 M202.408 771.838 Q208.218 771.838 211.274 776.445 Q214.352 781.028 214.352 789.778 Q214.352 798.505 211.274 803.111 Q208.218 807.695 202.408 807.695 Q196.598 807.695 193.519 803.111 Q190.463 798.505 190.463 789.778 Q190.463 781.028 193.519 776.445 Q196.598 771.838 202.408 771.838 Z" fill="#000000" fill-rule="evenodd" fill-opacity="1" /><path clip-path="url(#clip820)" d="M250.741 781.561 L240.162 792.185 L250.741 802.764 L247.986 805.565 L237.361 794.94 L226.736 805.565 L224.005 802.764 L234.56 792.185 L224.005 781.561 L226.736 778.76 L237.361 789.385 L247.986 778.76 L250.741 781.561 Z" fill="#000000" fill-rule="evenodd" fill-opacity="1" /><path clip-path="url(#clip820)" d="M263.102 803.088 L270.741 803.088 L270.741 776.723 L262.431 778.389 L262.431 774.13 L270.695 772.463 L275.37 772.463 L275.37 803.088 L283.009 803.088 L283.009 807.023 L263.102 807.023 L263.102 803.088 Z" fill="#000000" fill-rule="evenodd" fill-opacity="1" /><path clip-path="url(#clip820)" d="M302.454 775.542 Q298.843 775.542 297.014 779.107 Q295.208 782.648 295.208 789.778 Q295.208 796.885 297.014 800.449 Q298.843 803.991 302.454 803.991 Q306.088 803.991 307.893 800.449 Q309.722 796.885 309.722 789.778 Q309.722 782.648 307.893 779.107 Q306.088 775.542 302.454 775.542 M302.454 771.838 Q308.264 771.838 311.319 776.445 Q314.398 781.028 314.398 789.778 Q314.398 798.505 311.319 803.111 Q308.264 807.695 302.454 807.695 Q296.643 807.695 293.565 803.111 Q290.509 798.505 290.509 789.778 Q290.509 781.028 293.565 776.445 Q296.643 771.838 302.454 771.838 Z" fill="#000000" fill-rule="evenodd" fill-opacity="1" /><path clip-path="url(#clip820)" d="M327.093 764.473 Q329.82 765.056 331.344 766.899 Q332.886 768.742 332.886 771.45 Q332.886 775.607 330.027 777.883 Q327.168 780.158 321.902 780.158 Q320.134 780.158 318.254 779.801 Q316.392 779.463 314.398 778.767 L314.398 775.099 Q315.978 776.021 317.859 776.491 Q319.739 776.961 321.789 776.961 Q325.363 776.961 327.225 775.55 Q329.106 774.14 329.106 771.45 Q329.106 768.968 327.357 767.576 Q325.626 766.165 322.523 766.165 L319.25 766.165 L319.25 763.043 L322.673 763.043 Q325.476 763.043 326.962 761.934 Q328.447 760.805 328.447 758.699 Q328.447 756.536 326.905 755.389 Q325.382 754.222 322.523 754.222 Q320.962 754.222 319.175 754.561 Q317.388 754.9 315.244 755.614 L315.244 752.229 Q317.407 751.627 319.288 751.326 Q321.188 751.025 322.861 751.025 Q327.187 751.025 329.707 753 Q332.228 754.956 332.228 758.304 Q332.228 760.636 330.892 762.253 Q329.557 763.852 327.093 764.473 Z" fill="#000000" fill-rule="evenodd" fill-opacity="1" /><path clip-path="url(#clip820)" d="M127.015 589.575 Q123.681 589.575 121.76 591.357 Q119.862 593.14 119.862 596.265 Q119.862 599.39 121.76 601.172 Q123.681 602.954 127.015 602.954 Q130.348 602.954 132.269 601.172 Q134.191 599.366 134.191 596.265 Q134.191 593.14 132.269 591.357 Q130.371 589.575 127.015 589.575 M122.339 587.584 Q119.33 586.843 117.64 584.783 Q115.973 582.723 115.973 579.76 Q115.973 575.617 118.913 573.209 Q121.876 570.802 127.015 570.802 Q132.177 570.802 135.117 573.209 Q138.056 575.617 138.056 579.76 Q138.056 582.723 136.367 584.783 Q134.7 586.843 131.714 587.584 Q135.093 588.371 136.968 590.663 Q138.867 592.954 138.867 596.265 Q138.867 601.288 135.788 603.973 Q132.732 606.658 127.015 606.658 Q121.297 606.658 118.218 603.973 Q115.163 601.288 115.163 596.265 Q115.163 592.954 117.061 590.663 Q118.959 588.371 122.339 587.584 M120.626 580.2 Q120.626 582.885 122.293 584.39 Q123.982 585.894 127.015 585.894 Q130.024 585.894 131.714 584.39 Q133.427 582.885 133.427 580.2 Q133.427 577.515 131.714 576.01 Q130.024 574.505 127.015 574.505 Q123.982 574.505 122.293 576.01 Q120.626 577.515 120.626 580.2 Z" fill="#000000" fill-rule="evenodd" fill-opacity="1" /><path clip-path="url(#clip820)" d="M147.177 600.107 L152.061 600.107 L152.061 605.987 L147.177 605.987 L147.177 600.107 Z" fill="#000000" fill-rule="evenodd" fill-opacity="1" /><path clip-path="url(#clip820)" d="M172.246 574.505 Q168.635 574.505 166.806 578.07 Q165.001 581.612 165.001 588.741 Q165.001 595.848 166.806 599.413 Q168.635 602.954 172.246 602.954 Q175.88 602.954 177.686 599.413 Q179.514 595.848 179.514 588.741 Q179.514 581.612 177.686 578.07 Q175.88 574.505 172.246 574.505 M172.246 570.802 Q178.056 570.802 181.112 575.408 Q184.19 579.991 184.19 588.741 Q184.19 597.468 181.112 602.075 Q178.056 606.658 172.246 606.658 Q166.436 606.658 163.357 602.075 Q160.302 597.468 160.302 588.741 Q160.302 579.991 163.357 575.408 Q166.436 570.802 172.246 570.802 Z" fill="#000000" fill-rule="evenodd" fill-opacity="1" /><path clip-path="url(#clip820)" d="M202.408 574.505 Q198.797 574.505 196.968 578.07 Q195.163 581.612 195.163 588.741 Q195.163 595.848 196.968 599.413 Q198.797 602.954 202.408 602.954 Q206.042 602.954 207.848 599.413 Q209.676 595.848 209.676 588.741 Q209.676 581.612 207.848 578.07 Q206.042 574.505 202.408 574.505 M202.408 570.802 Q208.218 570.802 211.274 575.408 Q214.352 579.991 214.352 588.741 Q214.352 597.468 211.274 602.075 Q208.218 606.658 202.408 606.658 Q196.598 606.658 193.519 602.075 Q190.463 597.468 190.463 588.741 Q190.463 579.991 193.519 575.408 Q196.598 570.802 202.408 570.802 Z" fill="#000000" fill-rule="evenodd" fill-opacity="1" /><path clip-path="url(#clip820)" d="M250.741 580.524 L240.162 591.149 L250.741 601.727 L247.986 604.528 L237.361 593.903 L226.736 604.528 L224.005 601.727 L234.56 591.149 L224.005 580.524 L226.736 577.723 L237.361 588.348 L247.986 577.723 L250.741 580.524 Z" fill="#000000" fill-rule="evenodd" fill-opacity="1" /><path clip-path="url(#clip820)" d="M263.102 602.052 L270.741 602.052 L270.741 575.686 L262.431 577.353 L262.431 573.093 L270.695 571.427 L275.37 571.427 L275.37 602.052 L283.009 602.052 L283.009 605.987 L263.102 605.987 L263.102 602.052 Z" fill="#000000" fill-rule="evenodd" fill-opacity="1" /><path clip-path="url(#clip820)" d="M302.454 574.505 Q298.843 574.505 297.014 578.07 Q295.208 581.612 295.208 588.741 Q295.208 595.848 297.014 599.413 Q298.843 602.954 302.454 602.954 Q306.088 602.954 307.893 599.413 Q309.722 595.848 309.722 588.741 Q309.722 581.612 307.893 578.07 Q306.088 574.505 302.454 574.505 M302.454 570.802 Q308.264 570.802 311.319 575.408 Q314.398 579.991 314.398 588.741 Q314.398 597.468 311.319 602.075 Q308.264 606.658 302.454 606.658 Q296.643 606.658 293.565 602.075 Q290.509 597.468 290.509 588.741 Q290.509 579.991 293.565 575.408 Q296.643 570.802 302.454 570.802 Z" fill="#000000" fill-rule="evenodd" fill-opacity="1" /><path clip-path="url(#clip820)" d="M327.093 563.436 Q329.82 564.019 331.344 565.862 Q332.886 567.705 332.886 570.414 Q332.886 574.57 330.027 576.846 Q327.168 579.122 321.902 579.122 Q320.134 579.122 318.254 578.764 Q316.392 578.426 314.398 577.73 L314.398 574.062 Q315.978 574.984 317.859 575.454 Q319.739 575.924 321.789 575.924 Q325.363 575.924 327.225 574.514 Q329.106 573.103 329.106 570.414 Q329.106 567.931 327.357 566.539 Q325.626 565.129 322.523 565.129 L319.25 565.129 L319.25 562.007 L322.673 562.007 Q325.476 562.007 326.962 560.897 Q328.447 559.769 328.447 557.662 Q328.447 555.499 326.905 554.352 Q325.382 553.186 322.523 553.186 Q320.962 553.186 319.175 553.524 Q317.388 553.863 315.244 554.578 L315.244 551.192 Q317.407 550.59 319.288 550.289 Q321.188 549.989 322.861 549.989 Q327.187 549.989 329.707 551.963 Q332.228 553.919 332.228 557.267 Q332.228 559.599 330.892 561.217 Q329.557 562.815 327.093 563.436 Z" fill="#000000" fill-rule="evenodd" fill-opacity="1" /><path clip-path="url(#clip820)" d="M115.85 401.015 L123.489 401.015 L123.489 374.649 L115.179 376.316 L115.179 372.057 L123.443 370.39 L128.119 370.39 L128.119 401.015 L135.757 401.015 L135.757 404.95 L115.85 404.95 L115.85 401.015 Z" fill="#000000" fill-rule="evenodd" fill-opacity="1" /><path clip-path="url(#clip820)" d="M145.202 399.07 L150.086 399.07 L150.086 404.95 L145.202 404.95 L145.202 399.07 Z" fill="#000000" fill-rule="evenodd" fill-opacity="1" /><path clip-path="url(#clip820)" d="M170.271 373.469 Q166.66 373.469 164.831 377.034 Q163.026 380.575 163.026 387.705 Q163.026 394.811 164.831 398.376 Q166.66 401.918 170.271 401.918 Q173.905 401.918 175.711 398.376 Q177.54 394.811 177.54 387.705 Q177.54 380.575 175.711 377.034 Q173.905 373.469 170.271 373.469 M170.271 369.765 Q176.081 369.765 179.137 374.372 Q182.216 378.955 182.216 387.705 Q182.216 396.432 179.137 401.038 Q176.081 405.621 170.271 405.621 Q164.461 405.621 161.382 401.038 Q158.327 396.432 158.327 387.705 Q158.327 378.955 161.382 374.372 Q164.461 369.765 170.271 369.765 Z" fill="#000000" fill-rule="evenodd" fill-opacity="1" /><path clip-path="url(#clip820)" d="M200.433 373.469 Q196.822 373.469 194.993 377.034 Q193.188 380.575 193.188 387.705 Q193.188 394.811 194.993 398.376 Q196.822 401.918 200.433 401.918 Q204.067 401.918 205.873 398.376 Q207.701 394.811 207.701 387.705 Q207.701 380.575 205.873 377.034 Q204.067 373.469 200.433 373.469 M200.433 369.765 Q206.243 369.765 209.299 374.372 Q212.377 378.955 212.377 387.705 Q212.377 396.432 209.299 401.038 Q206.243 405.621 200.433 405.621 Q194.623 405.621 191.544 401.038 Q188.489 396.432 188.489 387.705 Q188.489 378.955 191.544 374.372 Q194.623 369.765 200.433 369.765 Z" fill="#000000" fill-rule="evenodd" fill-opacity="1" /><path clip-path="url(#clip820)" d="M248.766 379.487 L238.187 390.112 L248.766 400.691 L246.011 403.492 L235.387 392.867 L224.762 403.492 L222.03 400.691 L232.586 390.112 L222.03 379.487 L224.762 376.686 L235.387 387.311 L246.011 376.686 L248.766 379.487 Z" fill="#000000" fill-rule="evenodd" fill-opacity="1" /><path clip-path="url(#clip820)" d="M261.127 401.015 L268.766 401.015 L268.766 374.649 L260.456 376.316 L260.456 372.057 L268.72 370.39 L273.396 370.39 L273.396 401.015 L281.034 401.015 L281.034 404.95 L261.127 404.95 L261.127 401.015 Z" fill="#000000" fill-rule="evenodd" fill-opacity="1" /><path clip-path="url(#clip820)" d="M300.479 373.469 Q296.868 373.469 295.039 377.034 Q293.233 380.575 293.233 387.705 Q293.233 394.811 295.039 398.376 Q296.868 401.918 300.479 401.918 Q304.113 401.918 305.919 398.376 Q307.747 394.811 307.747 387.705 Q307.747 380.575 305.919 377.034 Q304.113 373.469 300.479 373.469 M300.479 369.765 Q306.289 369.765 309.344 374.372 Q312.423 378.955 312.423 387.705 Q312.423 396.432 309.344 401.038 Q306.289 405.621 300.479 405.621 Q294.669 405.621 291.59 401.038 Q288.534 396.432 288.534 387.705 Q288.534 378.955 291.59 374.372 Q294.669 369.765 300.479 369.765 Z" fill="#000000" fill-rule="evenodd" fill-opacity="1" /><path clip-path="url(#clip820)" d="M325.1 352.77 L315.508 367.76 L325.1 367.76 L325.1 352.77 M324.103 349.46 L328.88 349.46 L328.88 367.76 L332.886 367.76 L332.886 370.919 L328.88 370.919 L328.88 377.54 L325.1 377.54 L325.1 370.919 L312.423 370.919 L312.423 367.252 L324.103 349.46 Z" fill="#000000" fill-rule="evenodd" fill-opacity="1" /><path clip-path="url(#clip820)" d="M115.85 199.978 L123.489 199.978 L123.489 173.613 L115.179 175.279 L115.179 171.02 L123.443 169.353 L128.119 169.353 L128.119 199.978 L135.757 199.978 L135.757 203.913 L115.85 203.913 L115.85 199.978 Z" fill="#000000" fill-rule="evenodd" fill-opacity="1" /><path clip-path="url(#clip820)" d="M145.202 198.034 L150.086 198.034 L150.086 203.913 L145.202 203.913 L145.202 198.034 Z" fill="#000000" fill-rule="evenodd" fill-opacity="1" /><path clip-path="url(#clip820)" d="M164.299 199.978 L180.618 199.978 L180.618 203.913 L158.674 203.913 L158.674 199.978 Q161.336 197.224 165.919 192.594 Q170.526 187.941 171.706 186.599 Q173.952 184.076 174.831 182.339 Q175.734 180.58 175.734 178.89 Q175.734 176.136 173.79 174.4 Q171.868 172.664 168.767 172.664 Q166.567 172.664 164.114 173.427 Q161.683 174.191 158.905 175.742 L158.905 171.02 Q161.73 169.886 164.183 169.307 Q166.637 168.728 168.674 168.728 Q174.044 168.728 177.239 171.414 Q180.433 174.099 180.433 178.589 Q180.433 180.719 179.623 182.64 Q178.836 184.539 176.729 187.131 Q176.151 187.802 173.049 191.02 Q169.947 194.214 164.299 199.978 Z" fill="#000000" fill-rule="evenodd" fill-opacity="1" /><path clip-path="url(#clip820)" d="M200.433 172.432 Q196.822 172.432 194.993 175.997 Q193.188 179.539 193.188 186.668 Q193.188 193.775 194.993 197.339 Q196.822 200.881 200.433 200.881 Q204.067 200.881 205.873 197.339 Q207.701 193.775 207.701 186.668 Q207.701 179.539 205.873 175.997 Q204.067 172.432 200.433 172.432 M200.433 168.728 Q206.243 168.728 209.299 173.335 Q212.377 177.918 212.377 186.668 Q212.377 195.395 209.299 200.001 Q206.243 204.585 200.433 204.585 Q194.623 204.585 191.544 200.001 Q188.489 195.395 188.489 186.668 Q188.489 177.918 191.544 173.335 Q194.623 168.728 200.433 168.728 Z" fill="#000000" fill-rule="evenodd" fill-opacity="1" /><path clip-path="url(#clip820)" d="M248.766 178.451 L238.187 189.076 L248.766 199.654 L246.011 202.455 L235.387 191.83 L224.762 202.455 L222.03 199.654 L232.586 189.076 L222.03 178.451 L224.762 175.65 L235.387 186.275 L246.011 175.65 L248.766 178.451 Z" fill="#000000" fill-rule="evenodd" fill-opacity="1" /><path clip-path="url(#clip820)" d="M261.127 199.978 L268.766 199.978 L268.766 173.613 L260.456 175.279 L260.456 171.02 L268.72 169.353 L273.396 169.353 L273.396 199.978 L281.034 199.978 L281.034 203.913 L261.127 203.913 L261.127 199.978 Z" fill="#000000" fill-rule="evenodd" fill-opacity="1" /><path clip-path="url(#clip820)" d="M300.479 172.432 Q296.868 172.432 295.039 175.997 Q293.233 179.539 293.233 186.668 Q293.233 193.775 295.039 197.339 Q296.868 200.881 300.479 200.881 Q304.113 200.881 305.919 197.339 Q307.747 193.775 307.747 186.668 Q307.747 179.539 305.919 175.997 Q304.113 172.432 300.479 172.432 M300.479 168.728 Q306.289 168.728 309.344 173.335 Q312.423 177.918 312.423 186.668 Q312.423 195.395 309.344 200.001 Q306.289 204.585 300.479 204.585 Q294.669 204.585 291.59 200.001 Q288.534 195.395 288.534 186.668 Q288.534 177.918 291.59 173.335 Q294.669 168.728 300.479 168.728 Z" fill="#000000" fill-rule="evenodd" fill-opacity="1" /><path clip-path="url(#clip820)" d="M325.1 151.733 L315.508 166.723 L325.1 166.723 L325.1 151.733 M324.103 148.423 L328.88 148.423 L328.88 166.723 L332.886 166.723 L332.886 169.883 L328.88 169.883 L328.88 176.503 L325.1 176.503 L325.1 169.883 L312.423 169.883 L312.423 166.215 L324.103 148.423 Z" fill="#000000" fill-rule="evenodd" fill-opacity="1" /><path clip-path="url(#clip820)" d="M58.657 873.22 L77.5631 873.22 L77.5631 879.108 L28.3562 879.108 L28.3562 873.22 L33.7671 873.22 Q30.5842 871.374 29.0564 868.573 Q27.4968 865.74 27.4968 861.825 Q27.4968 855.332 32.6531 851.29 Q37.8093 847.216 46.212 847.216 Q54.6147 847.216 59.771 851.29 Q64.9272 855.332 64.9272 861.825 Q64.9272 865.74 63.3994 868.573 Q61.8398 871.374 58.657 873.22 M46.212 853.295 Q39.7508 853.295 36.0905 855.969 Q32.3984 858.611 32.3984 863.258 Q32.3984 867.904 36.0905 870.578 Q39.7508 873.22 46.212 873.22 Q52.6732 873.22 56.3653 870.578 Q60.0256 867.904 60.0256 863.258 Q60.0256 858.611 56.3653 855.969 Q52.6732 853.295 46.212 853.295 Z" fill="#000000" fill-rule="evenodd" fill-opacity="1" /><path clip-path="url(#clip820)" d="M44.7161 807.016 L47.5806 807.016 L47.5806 833.943 Q53.6281 833.561 56.8109 830.315 Q59.9619 827.037 59.9619 821.212 Q59.9619 817.838 59.1344 814.687 Q58.3069 811.504 56.6518 808.385 L62.1899 808.385 Q63.5267 811.536 64.227 814.846 Q64.9272 818.156 64.9272 821.562 Q64.9272 830.092 59.9619 835.089 Q54.9967 840.055 46.5303 840.055 Q37.7774 840.055 32.6531 835.344 Q27.4968 830.601 27.4968 822.581 Q27.4968 815.387 32.1438 811.218 Q36.7589 807.016 44.7161 807.016 M42.9973 812.873 Q38.1912 812.937 35.3266 815.578 Q32.4621 818.188 32.4621 822.517 Q32.4621 827.419 35.2312 830.379 Q38.0002 833.307 43.0292 833.752 L42.9973 812.873 Z" fill="#000000" fill-rule="evenodd" fill-opacity="1" /><path clip-path="url(#clip820)" d="M32.4621 783.591 Q32.4621 788.301 36.1542 791.039 Q39.8145 793.776 46.212 793.776 Q52.6095 793.776 56.3017 791.07 Q59.9619 788.333 59.9619 783.591 Q59.9619 778.912 56.2698 776.175 Q52.5777 773.437 46.212 773.437 Q39.8781 773.437 36.186 776.175 Q32.4621 778.912 32.4621 783.591 M27.4968 783.591 Q27.4968 775.952 32.4621 771.591 Q37.4273 767.231 46.212 767.231 Q54.9649 767.231 59.9619 771.591 Q64.9272 775.952 64.9272 783.591 Q64.9272 791.261 59.9619 795.622 Q54.9649 799.951 46.212 799.951 Q37.4273 799.951 32.4621 795.622 Q27.4968 791.261 27.4968 783.591 Z" fill="#000000" fill-rule="evenodd" fill-opacity="1" /><path clip-path="url(#clip820)" d="M58.657 751.858 L77.5631 751.858 L77.5631 757.746 L28.3562 757.746 L28.3562 751.858 L33.7671 751.858 Q30.5842 750.012 29.0564 747.211 Q27.4968 744.378 27.4968 740.463 Q27.4968 733.97 32.6531 729.928 Q37.8093 725.854 46.212 725.854 Q54.6147 725.854 59.771 729.928 Q64.9272 733.97 64.9272 740.463 Q64.9272 744.378 63.3994 747.211 Q61.8398 750.012 58.657 751.858 M46.212 731.933 Q39.7508 731.933 36.0905 734.607 Q32.3984 737.248 32.3984 741.895 Q32.3984 746.542 36.0905 749.216 Q39.7508 751.858 46.212 751.858 Q52.6732 751.858 56.3653 749.216 Q60.0256 746.542 60.0256 741.895 Q60.0256 737.248 56.3653 734.607 Q52.6732 731.933 46.212 731.933 Z" fill="#000000" fill-rule="evenodd" fill-opacity="1" /><path clip-path="url(#clip820)" d="M14.479 716.146 L14.479 710.29 L64.0042 710.29 L64.0042 716.146 L14.479 716.146 Z" fill="#000000" fill-rule="evenodd" fill-opacity="1" /><path clip-path="url(#clip820)" d="M44.7161 667.544 L47.5806 667.544 L47.5806 694.471 Q53.6281 694.089 56.8109 690.842 Q59.9619 687.564 59.9619 681.739 Q59.9619 678.366 59.1344 675.215 Q58.3069 672.032 56.6518 668.912 L62.1899 668.912 Q63.5267 672.064 64.227 675.374 Q64.9272 678.684 64.9272 682.089 Q64.9272 690.62 59.9619 695.617 Q54.9967 700.582 46.5303 700.582 Q37.7774 700.582 32.6531 695.871 Q27.4968 691.129 27.4968 683.108 Q27.4968 675.915 32.1438 671.745 Q36.7589 667.544 44.7161 667.544 M42.9973 673.4 Q38.1912 673.464 35.3266 676.106 Q32.4621 678.716 32.4621 683.044 Q32.4621 687.946 35.2312 690.906 Q38.0002 693.834 43.0292 694.28 L42.9973 673.4 Z" fill="#000000" fill-rule="evenodd" fill-opacity="1" /><path clip-path="url(#clip820)" d="M1188.68 16.7545 L1188.68 25.383 Q1184.55 21.5346 1179.85 19.6307 Q1175.19 17.7268 1169.92 17.7268 Q1159.55 17.7268 1154.04 24.0867 Q1148.53 30.4061 1148.53 42.3968 Q1148.53 54.3469 1154.04 60.7069 Q1159.55 67.0263 1169.92 67.0263 Q1175.19 67.0263 1179.85 65.1223 Q1184.55 63.2184 1188.68 59.3701 L1188.68 67.9175 Q1184.38 70.8341 1179.56 72.2924 Q1174.78 73.7508 1169.44 73.7508 Q1155.7 73.7508 1147.8 65.3654 Q1139.9 56.9395 1139.9 42.3968 Q1139.9 27.8135 1147.8 19.4281 Q1155.7 11.0023 1169.44 11.0023 Q1174.86 11.0023 1179.64 12.4606 Q1184.46 13.8784 1188.68 16.7545 Z" fill="#000000" fill-rule="evenodd" fill-opacity="1" /><path clip-path="url(#clip820)" d="M1200.22 54.671 L1200.22 27.2059 L1207.68 27.2059 L1207.68 54.3874 Q1207.68 60.8284 1210.19 64.0691 Q1212.7 67.2693 1217.72 67.2693 Q1223.76 67.2693 1227.24 63.421 Q1230.77 59.5726 1230.77 52.9291 L1230.77 27.2059 L1238.22 27.2059 L1238.22 72.576 L1230.77 72.576 L1230.77 65.6084 Q1228.05 69.7404 1224.45 71.7658 Q1220.88 73.7508 1216.14 73.7508 Q1208.32 73.7508 1204.27 68.8897 Q1200.22 64.0286 1200.22 54.671 M1218.98 26.1121 L1218.98 26.1121 Z" fill="#000000" fill-rule="evenodd" fill-opacity="1" /><path clip-path="url(#clip820)" d="M1288.9 35.9153 Q1291.69 30.8922 1295.58 28.5022 Q1299.47 26.1121 1304.74 26.1121 Q1311.83 26.1121 1315.67 31.0947 Q1319.52 36.0368 1319.52 45.1919 L1319.52 72.576 L1312.03 72.576 L1312.03 45.4349 Q1312.03 38.913 1309.72 35.7533 Q1307.41 32.5936 1302.67 32.5936 Q1296.88 32.5936 1293.52 36.4419 Q1290.15 40.2903 1290.15 46.9338 L1290.15 72.576 L1282.66 72.576 L1282.66 45.4349 Q1282.66 38.8725 1280.35 35.7533 Q1278.04 32.5936 1273.22 32.5936 Q1267.51 32.5936 1264.15 36.4824 Q1260.78 40.3308 1260.78 46.9338 L1260.78 72.576 L1253.29 72.576 L1253.29 27.2059 L1260.78 27.2059 L1260.78 34.2544 Q1263.34 30.082 1266.9 28.0971 Q1270.47 26.1121 1275.37 26.1121 Q1280.31 26.1121 1283.75 28.6237 Q1287.24 31.1352 1288.9 35.9153 Z" fill="#000000" fill-rule="evenodd" fill-opacity="1" /><path clip-path="url(#clip820)" d="M1333.62 54.671 L1333.62 27.2059 L1341.07 27.2059 L1341.07 54.3874 Q1341.07 60.8284 1343.58 64.0691 Q1346.1 67.2693 1351.12 67.2693 Q1357.15 67.2693 1360.64 63.421 Q1364.16 59.5726 1364.16 52.9291 L1364.16 27.2059 L1371.62 27.2059 L1371.62 72.576 L1364.16 72.576 L1364.16 65.6084 Q1361.45 69.7404 1357.84 71.7658 Q1354.28 73.7508 1349.54 73.7508 Q1341.72 73.7508 1337.67 68.8897 Q1333.62 64.0286 1333.62 54.671 M1352.37 26.1121 L1352.37 26.1121 Z" fill="#000000" fill-rule="evenodd" fill-opacity="1" /><path clip-path="url(#clip820)" d="M1386.97 9.54393 L1394.42 9.54393 L1394.42 72.576 L1386.97 72.576 L1386.97 9.54393 Z" fill="#000000" fill-rule="evenodd" fill-opacity="1" /><path clip-path="url(#clip820)" d="M1430.64 49.7694 Q1421.6 49.7694 1418.12 51.8354 Q1414.64 53.9013 1414.64 58.8839 Q1414.64 62.8538 1417.23 65.2034 Q1419.86 67.5124 1424.36 67.5124 Q1430.56 67.5124 1434.28 63.1374 Q1438.05 58.7219 1438.05 51.4303 L1438.05 49.7694 L1430.64 49.7694 M1445.51 46.6907 L1445.51 72.576 L1438.05 72.576 L1438.05 65.6895 Q1435.5 69.8214 1431.69 71.8063 Q1427.88 73.7508 1422.37 73.7508 Q1415.41 73.7508 1411.27 69.8619 Q1407.18 65.9325 1407.18 59.3701 Q1407.18 51.7138 1412.29 47.825 Q1417.43 43.9361 1427.6 43.9361 L1438.05 43.9361 L1438.05 43.2069 Q1438.05 38.0623 1434.65 35.2672 Q1431.29 32.4315 1425.17 32.4315 Q1421.28 32.4315 1417.59 33.3632 Q1413.91 34.295 1410.51 36.1584 L1410.51 29.2718 Q1414.6 27.692 1418.45 26.9223 Q1422.29 26.1121 1425.94 26.1121 Q1435.78 26.1121 1440.64 31.2163 Q1445.51 36.3204 1445.51 46.6907 Z" fill="#000000" fill-rule="evenodd" fill-opacity="1" /><path clip-path="url(#clip820)" d="M1468.23 14.324 L1468.23 27.2059 L1483.58 27.2059 L1483.58 32.9987 L1468.23 32.9987 L1468.23 57.6282 Q1468.23 63.1779 1469.73 64.7578 Q1471.27 66.3376 1475.93 66.3376 L1483.58 66.3376 L1483.58 72.576 L1475.93 72.576 Q1467.3 72.576 1464.02 69.3758 Q1460.74 66.1351 1460.74 57.6282 L1460.74 32.9987 L1455.27 32.9987 L1455.27 27.2059 L1460.74 27.2059 L1460.74 14.324 L1468.23 14.324 Z" fill="#000000" fill-rule="evenodd" fill-opacity="1" /><path clip-path="url(#clip820)" d="M1532.19 48.0275 L1532.19 51.6733 L1497.92 51.6733 Q1498.41 59.3701 1502.54 63.421 Q1506.71 67.4314 1514.13 67.4314 Q1518.42 67.4314 1522.43 66.3781 Q1526.48 65.3249 1530.45 63.2184 L1530.45 70.267 Q1526.44 71.9684 1522.23 72.8596 Q1518.02 73.7508 1513.68 73.7508 Q1502.83 73.7508 1496.47 67.4314 Q1490.15 61.1119 1490.15 50.3365 Q1490.15 39.1965 1496.14 32.6746 Q1502.18 26.1121 1512.39 26.1121 Q1521.54 26.1121 1526.85 32.0264 Q1532.19 37.9003 1532.19 48.0275 M1524.74 45.84 Q1524.66 39.7232 1521.3 36.0774 Q1517.98 32.4315 1512.47 32.4315 Q1506.23 32.4315 1502.46 35.9558 Q1498.73 39.4801 1498.17 45.8805 L1524.74 45.84 Z" fill="#000000" fill-rule="evenodd" fill-opacity="1" /><path clip-path="url(#clip820)" d="M1574.28 34.0924 L1574.28 9.54393 L1581.74 9.54393 L1581.74 72.576 L1574.28 72.576 L1574.28 65.7705 Q1571.93 69.8214 1568.33 71.8063 Q1564.76 73.7508 1559.74 73.7508 Q1551.52 73.7508 1546.33 67.1883 Q1541.19 60.6258 1541.19 49.9314 Q1541.19 39.2371 1546.33 32.6746 Q1551.52 26.1121 1559.74 26.1121 Q1564.76 26.1121 1568.33 28.0971 Q1571.93 30.0415 1574.28 34.0924 M1548.88 49.9314 Q1548.88 58.1548 1552.25 62.8538 Q1555.65 67.5124 1561.56 67.5124 Q1567.48 67.5124 1570.88 62.8538 Q1574.28 58.1548 1574.28 49.9314 Q1574.28 41.7081 1570.88 37.0496 Q1567.48 32.3505 1561.56 32.3505 Q1555.65 32.3505 1552.25 37.0496 Q1548.88 41.7081 1548.88 49.9314 Z" fill="#000000" fill-rule="evenodd" fill-opacity="1" /><polyline clip-path="url(#clip822)" style="stroke:#009af9; stroke-linecap:butt; stroke-linejoin:round; stroke-width:4; stroke-opacity:1; fill:none" points="
  368.886,1386.4 373.846,1386.37 378.805,1386.29 383.765,1386.16 388.725,1385.98 393.684,1385.75 398.644,1385.46 403.604,1385.11 408.563,1384.71 413.523,1384.25 
  418.483,1383.73 423.442,1383.15 428.402,1382.5 433.362,1381.79 438.321,1381 443.281,1380.14 448.241,1379.21 453.2,1378.2 458.16,1377.1 463.12,1375.92 
  468.08,1374.66 473.039,1373.3 477.999,1371.85 482.959,1370.31 487.918,1368.67 492.878,1366.92 497.838,1365.08 502.797,1363.13 507.757,1361.08 512.717,1358.91 
  517.676,1356.62 522.636,1354.22 527.596,1351.68 532.555,1349.01 537.515,1346.2 542.475,1343.25 547.434,1340.14 552.394,1336.89 557.354,1333.48 562.313,1329.91 
  567.273,1326.17 572.233,1322.24 577.192,1318.14 582.152,1313.87 587.112,1309.41 592.071,1304.78 597.031,1300 601.991,1295.07 606.95,1289.99 611.91,1284.79 
  616.87,1279.47 621.829,1274.05 626.789,1268.53 631.749,1262.93 636.708,1257.27 641.668,1251.55 646.628,1245.79 651.587,1240 656.547,1234.18 661.507,1228.35 
  666.466,1222.53 671.426,1216.71 676.386,1210.91 681.346,1205.14 686.305,1199.41 691.265,1193.72 696.225,1188.08 701.184,1182.51 706.144,1177.01 711.104,1171.58 
  716.063,1166.24 721.023,1160.99 725.983,1155.84 730.942,1150.8 735.902,1145.87 740.862,1141.05 745.821,1136.36 750.781,1131.79 755.741,1127.35 760.7,1123.04 
  765.66,1118.87 770.62,1114.82 775.579,1110.91 780.539,1107.13 785.499,1103.49 790.458,1099.98 795.418,1096.6 800.378,1093.36 805.337,1090.24 810.297,1087.26 
  815.257,1084.41 820.216,1081.68 825.176,1079.07 830.136,1076.59 835.095,1074.22 840.055,1071.97 845.015,1069.83 849.974,1067.8 854.934,1065.87 859.894,1064.04 
  864.853,1062.31 869.813,1060.67 874.773,1059.13 879.733,1057.66 884.692,1056.28 889.652,1054.98 894.612,1053.74 899.571,1052.58 904.531,1051.48 909.491,1050.44 
  914.45,1049.45 919.41,1048.52 924.37,1047.63 929.329,1046.78 934.289,1045.97 939.249,1045.2 944.208,1044.46 949.168,1043.75 954.128,1043.06 959.087,1042.4 
  964.047,1041.75 969.007,1041.13 973.966,1040.52 978.926,1039.92 983.886,1039.33 988.845,1038.74 993.805,1038.16 998.765,1037.58 1003.72,1036.99 1008.68,1036.4 
  1013.64,1035.8 1018.6,1035.19 1023.56,1034.56 1028.52,1033.91 1033.48,1033.23 1038.44,1032.53 1043.4,1031.8 1048.36,1031.04 1053.32,1030.24 1058.28,1029.4 
  1063.24,1028.52 1068.2,1027.59 1073.16,1026.61 1078.12,1025.58 1083.08,1024.49 1088.04,1023.34 1093,1022.13 1097.96,1020.86 1102.92,1019.51 1107.88,1018.1 
  1112.84,1016.62 1117.8,1015.06 1122.76,1013.43 1127.72,1011.72 1132.68,1009.93 1137.64,1008.06 1142.6,1006.1 1147.55,1004.05 1152.51,1001.92 1157.47,999.695 
  1162.43,997.381 1167.39,994.975 1172.35,992.476 1177.31,989.879 1182.27,987.177 1187.23,984.369 1192.19,981.455 1197.15,978.431 1202.11,975.294 1207.07,972.043 
  1212.03,968.677 1216.99,965.198 1221.95,961.607 1226.91,957.905 1231.87,954.097 1236.83,950.185 1241.79,946.172 1246.75,942.063 1251.71,937.858 1256.67,933.565 
  1261.63,929.187 1266.59,924.729 1271.55,920.196 1276.51,915.593 1281.47,910.921 1286.43,906.187 1291.39,901.394 1296.35,896.549 1301.3,891.657 1306.26,886.725 
  1311.22,881.761 1316.18,876.77 1321.14,871.76 1326.1,866.74 1331.06,861.717 1336.02,856.699 1340.98,851.694 1345.94,846.709 1350.9,841.752 1355.86,836.832 
  1360.82,831.956 1365.78,827.131 1370.74,822.362 1375.7,817.656 1380.66,813.016 1385.62,808.445 1390.58,803.949 1395.54,799.528 1400.5,795.185 1405.46,790.921 
  1410.42,786.735 1415.38,782.627 1420.34,778.597 1425.3,774.644 1430.26,770.766 1435.22,766.963 1440.18,763.235 1445.14,759.58 1450.1,755.999 1455.05,752.488 
  1460.01,749.044 1464.97,745.666 1469.93,742.355 1474.89,739.116 1479.85,735.946 1484.81,732.841 1489.77,729.802 1494.73,726.827 1499.69,723.914 1504.65,721.059 
  1509.61,718.264 1514.57,715.526 1519.53,712.845 1524.49,710.219 1529.45,707.648 1534.41,705.129 1539.37,702.66 1544.33,700.239 1549.29,697.866 1554.25,695.537 
  1559.21,693.252 1564.17,691.01 1569.13,688.809 1574.09,686.649 1579.05,684.529 1584.01,682.448 1588.97,680.404 1593.93,678.398 1598.89,676.428 1603.85,674.493 
  1608.8,672.593 1613.76,670.725 1618.72,668.89 1623.68,667.086 1628.64,665.313 1633.6,663.571 1638.56,661.858 1643.52,660.174 1648.48,658.518 1653.44,656.891 
  1658.4,655.294 1663.36,653.725 1668.32,652.186 1673.28,650.676 1678.24,649.194 1683.2,647.74 1688.16,646.315 1693.12,644.918 1698.08,643.548 1703.04,642.205 
  1708,640.89 1712.96,639.601 1717.92,638.339 1722.88,637.103 1727.84,635.892 1732.8,634.707 1737.76,633.547 1742.72,632.411 1747.68,631.3 1752.64,630.212 
  1757.59,629.147 1762.55,628.105 1767.51,627.085 1772.47,626.086 1777.43,625.107 1782.39,624.147 1787.35,623.205 1792.31,622.277 1797.27,621.363 1802.23,620.459 
  1807.19,619.564 1812.15,618.676 1817.11,617.793 1822.07,616.913 1827.03,616.032 1831.99,615.147 1836.95,614.256 1841.91,613.355 1846.87,612.441 1851.83,611.508 
  1856.79,610.556 1861.75,609.578 1866.71,608.568 1871.67,607.521 1876.63,606.435 1881.59,605.306 1886.55,604.133 1891.51,602.913 1896.47,601.642 1901.43,600.316 
  1906.39,598.932 1911.34,597.489 1916.3,595.983 1921.26,594.413 1926.22,592.776 1931.18,591.072 1936.14,589.298 1941.1,587.454 1946.06,585.539 1951.02,583.552 
  1955.98,581.493 1960.94,579.359 1965.9,577.151 1970.86,574.87 1975.82,572.518 1980.78,570.091 1985.74,567.59 1990.7,565.01 1995.66,562.35 2000.62,559.613 
  2005.58,556.8 2010.54,553.909 2015.5,550.94 2020.46,547.892 2025.42,544.766 2030.38,541.56 2035.34,538.272 2040.3,534.9 2045.26,531.444 2050.22,527.901 
  2055.18,524.27 2060.14,520.548 2065.09,516.736 2070.05,512.833 2075.01,508.836 2079.97,504.744 2084.93,500.556 2089.89,496.274 2094.85,491.901 2099.81,487.442 
  2104.77,482.895 2109.73,478.254 2114.69,473.516 2119.65,468.684 2124.61,463.762 2129.57,458.758 2134.53,453.682 2139.49,448.526 2144.45,443.296 2149.41,437.999 
  2154.37,432.642 2159.33,427.232 2164.29,421.777 2169.25,416.283 2174.21,410.757 2179.17,405.204 2184.13,399.627 2189.09,394.032 2194.05,388.421 2199.01,382.799 
  2203.97,377.167 2208.93,371.529 2213.89,365.887 2218.84,360.243 2223.8,354.6 2228.76,348.958 2233.72,343.32 2238.68,337.685 2243.64,332.055 2248.6,326.427 
  2253.56,320.801 2258.52,315.176 2263.48,309.553 2268.44,303.933 2273.4,298.316 2278.36,292.702 2283.32,287.087 2288.28,281.471 2293.24,275.851 2298.2,270.228 
  2303.16,264.601 2308.12,258.97 2313.08,253.335 2318.04,247.696 2323,242.053 2327.96,236.405 2332.92,230.748 2337.88,225.078 2342.84,219.39 2347.8,213.682 
  2352.76,207.948 
  "/>
<polyline clip-path="url(#clip822)" style="stroke:#e26f46; stroke-linecap:butt; stroke-linejoin:round; stroke-width:4; stroke-opacity:1; fill:none" points="
  368.886,1386.4 373.846,1386.36 378.805,1386.27 383.765,1386.13 388.725,1385.94 393.684,1385.72 398.644,1385.45 403.604,1385.15 408.563,1384.81 413.523,1384.44 
  418.483,1384.03 423.442,1383.59 428.402,1383.11 433.362,1382.6 438.321,1382.05 443.281,1381.46 448.241,1380.83 453.2,1380.15 458.16,1379.43 463.12,1378.65 
  468.08,1377.82 473.039,1376.93 477.999,1375.98 482.959,1374.98 487.918,1373.9 492.878,1372.75 497.838,1371.52 502.797,1370.21 507.757,1368.81 512.717,1367.32 
  517.676,1365.73 522.636,1364.04 527.596,1362.25 532.555,1360.35 537.515,1358.34 542.475,1356.22 547.434,1353.99 552.394,1351.62 557.354,1349.14 562.313,1346.52 
  567.273,1343.79 572.233,1340.93 577.192,1337.94 582.152,1334.82 587.112,1331.57 592.071,1328.19 597.031,1324.69 601.991,1321.06 606.95,1317.3 611.91,1313.44 
  616.87,1309.5 621.829,1305.48 626.789,1301.41 631.749,1297.3 636.708,1293.17 641.668,1289.01 646.628,1284.84 651.587,1280.67 656.547,1276.5 661.507,1272.36 
  666.466,1268.24 671.426,1264.13 676.386,1260.02 681.346,1255.94 686.305,1251.88 691.265,1247.87 696.225,1243.89 701.184,1239.97 706.144,1236.11 711.104,1232.31 
  716.063,1228.57 721.023,1224.9 725.983,1221.31 730.942,1217.79 735.902,1214.35 740.862,1211 745.821,1207.73 750.781,1204.56 755.741,1201.47 760.7,1198.47 
  765.66,1195.57 770.62,1192.75 775.579,1190.04 780.539,1187.41 785.499,1184.88 790.458,1182.44 795.418,1180.1 800.378,1177.85 805.337,1175.69 810.297,1173.62 
  815.257,1171.64 820.216,1169.75 825.176,1167.95 830.136,1166.23 835.095,1164.59 840.055,1163.04 845.015,1161.56 849.974,1160.15 854.934,1158.82 859.894,1157.56 
  864.853,1156.37 869.813,1155.24 874.773,1154.17 879.733,1153.16 884.692,1152.21 889.652,1151.31 894.612,1150.46 899.571,1149.66 904.531,1148.91 909.491,1148.19 
  914.45,1147.51 919.41,1146.87 924.37,1146.26 929.329,1145.67 934.289,1145.11 939.249,1144.58 944.208,1144.07 949.168,1143.58 954.128,1143.11 959.087,1142.65 
  964.047,1142.2 969.007,1141.77 973.966,1141.34 978.926,1140.93 983.886,1140.51 988.845,1140.1 993.805,1139.69 998.765,1139.27 1003.72,1138.85 1008.68,1138.43 
  1013.64,1137.99 1018.6,1137.54 1023.56,1137.07 1028.52,1136.59 1033.48,1136.08 1038.44,1135.55 1043.4,1134.99 1048.36,1134.41 1053.32,1133.8 1058.28,1133.15 
  1063.24,1132.47 1068.2,1131.74 1073.16,1130.98 1078.12,1130.18 1083.08,1129.32 1088.04,1128.42 1093,1127.47 1097.96,1126.47 1102.92,1125.41 1107.88,1124.3 
  1112.84,1123.12 1117.8,1121.89 1122.76,1120.59 1127.72,1119.23 1132.68,1117.81 1137.64,1116.31 1142.6,1114.75 1147.55,1113.13 1152.51,1111.44 1157.47,1109.68 
  1162.43,1107.84 1167.39,1105.91 1172.35,1103.91 1177.31,1101.82 1182.27,1099.65 1187.23,1097.38 1192.19,1095.03 1197.15,1092.59 1202.11,1090.05 1207.07,1087.42 
  1212.03,1084.69 1216.99,1081.87 1221.95,1078.97 1226.91,1075.98 1231.87,1072.91 1236.83,1069.77 1241.79,1066.54 1246.75,1063.25 1251.71,1059.89 1256.67,1056.45 
  1261.63,1052.96 1266.59,1049.4 1271.55,1045.78 1276.51,1042.11 1281.47,1038.39 1286.43,1034.62 1291.39,1030.8 1296.35,1026.95 1301.3,1023.05 1306.26,1019.13 
  1311.22,1015.18 1316.18,1011.21 1321.14,1007.23 1326.1,1003.23 1331.06,999.239 1336.02,995.248 1340.98,991.268 1345.94,987.304 1350.9,983.363 1355.86,979.45 
  1360.82,975.572 1365.78,971.734 1370.74,967.941 1375.7,964.198 1380.66,960.506 1385.62,956.871 1390.58,953.293 1395.54,949.773 1400.5,946.311 1405.46,942.902 
  1410.42,939.549 1415.38,936.255 1420.34,933.022 1425.3,929.85 1430.26,926.737 1435.22,923.68 1440.18,920.673 1445.14,917.707 1450.1,914.782 1455.05,911.914 
  1460.01,909.113 1464.97,906.382 1469.93,903.714 1474.89,901.094 1479.85,898.526 1484.81,896.017 1489.77,893.565 1494.73,891.171 1499.69,888.832 1504.65,886.546 
  1509.61,884.312 1514.57,882.128 1519.53,879.995 1524.49,877.909 1529.45,875.87 1534.41,873.875 1539.37,871.922 1544.33,870.009 1549.29,868.135 1554.25,866.297 
  1559.21,864.494 1564.17,862.725 1569.13,860.989 1574.09,859.285 1579.05,857.614 1584.01,855.972 1588.97,854.361 1593.93,852.778 1598.89,851.225 1603.85,849.699 
  1608.8,848.2 1613.76,846.727 1618.72,845.279 1623.68,843.854 1628.64,842.452 1633.6,841.075 1638.56,839.722 1643.52,838.395 1648.48,837.092 1653.44,835.814 
  1658.4,834.558 1663.36,833.323 1668.32,832.112 1673.28,830.923 1678.24,829.759 1683.2,828.617 1688.16,827.499 1693.12,826.403 1698.08,825.331 1703.04,824.281 
  1708,823.253 1712.96,822.247 1717.92,821.263 1722.88,820.3 1727.84,819.357 1732.8,818.434 1737.76,817.531 1742.72,816.648 1747.68,815.785 1752.64,814.94 
  1757.59,814.114 1762.55,813.304 1767.51,812.514 1772.47,811.742 1777.43,810.988 1782.39,810.251 1787.35,809.525 1792.31,808.811 1797.27,808.108 1802.23,807.415 
  1807.19,806.729 1812.15,806.05 1817.11,805.374 1822.07,804.701 1827.03,804.027 1831.99,803.352 1836.95,802.671 1841.91,801.983 1846.87,801.284 1851.83,800.573 
  1856.79,799.846 1861.75,799.099 1866.71,798.329 1871.67,797.532 1876.63,796.707 1881.59,795.848 1886.55,794.952 1891.51,794.017 1896.47,793.04 1901.43,792.02 
  1906.39,790.954 1911.34,789.843 1916.3,788.684 1921.26,787.477 1926.22,786.222 1931.18,784.917 1936.14,783.563 1941.1,782.157 1946.06,780.699 1951.02,779.188 
  1955.98,777.622 1960.94,775.999 1965.9,774.319 1970.86,772.582 1975.82,770.788 1980.78,768.936 1985.74,767.024 1990.7,765.053 1995.66,763.018 2000.62,760.915 
  2005.58,758.751 2010.54,756.532 2015.5,754.257 2020.46,751.923 2025.42,749.521 2030.38,747.04 2035.34,744.484 2040.3,741.858 2045.26,739.16 2050.22,736.387 
  2055.18,733.542 2060.14,730.624 2065.09,727.637 2070.05,724.575 2075.01,721.438 2079.97,718.224 2084.93,714.932 2089.89,711.566 2094.85,708.128 2099.81,704.619 
  2104.77,701.033 2109.73,697.375 2114.69,693.646 2119.65,689.846 2124.61,685.976 2129.57,682.032 2134.53,678.02 2139.49,673.959 2144.45,669.831 2149.41,665.633 
  2154.37,661.395 2159.33,657.168 2164.29,652.953 2169.25,648.738 2174.21,644.528 2179.17,640.326 2184.13,636.134 2189.09,631.954 2194.05,627.785 2199.01,623.629 
  2203.97,619.485 2208.93,615.355 2213.89,611.239 2218.84,607.135 2223.8,603.044 2228.76,598.964 2233.72,594.897 2238.68,590.842 2243.64,586.802 2248.6,582.781 
  2253.56,578.783 2258.52,574.809 2263.48,570.859 2268.44,566.934 2273.4,563.032 2278.36,559.153 2283.32,555.294 2288.28,551.455 2293.24,547.63 2298.2,543.822 
  2303.16,540.03 2308.12,536.247 2313.08,532.463 2318.04,528.663 2323,524.828 2327.96,520.942 2332.92,516.998 2337.88,512.992 2342.84,508.918 2347.8,504.772 
  2352.76,500.552 
  "/>
<polyline clip-path="url(#clip822)" style="stroke:#3da44d; stroke-linecap:butt; stroke-linejoin:round; stroke-width:4; stroke-opacity:1; fill:none" points="
  368.886,1386.4 373.846,1385.95 378.805,1385.45 383.765,1384.89 388.725,1384.27 393.684,1383.59 398.644,1382.84 403.604,1382.03 408.563,1381.15 413.523,1380.2 
  418.483,1379.17 423.442,1378.06 428.402,1376.86 433.362,1375.57 438.321,1374.19 443.281,1372.71 448.241,1371.14 453.2,1369.46 458.16,1367.68 463.12,1365.8 
  468.08,1363.8 473.039,1361.68 477.999,1359.45 482.959,1357.1 487.918,1354.63 492.878,1352.05 497.838,1349.35 502.797,1346.53 507.757,1343.57 512.717,1340.45 
  517.676,1337.17 522.636,1333.72 527.596,1330.1 532.555,1326.3 537.515,1322.33 542.475,1318.17 547.434,1313.82 552.394,1309.26 557.354,1304.49 562.313,1299.51 
  567.273,1294.33 572.233,1288.96 577.192,1283.38 582.152,1277.62 587.112,1271.72 592.071,1265.73 597.031,1259.67 601.991,1253.54 606.95,1247.35 611.91,1241.12 
  616.87,1234.87 621.829,1228.63 626.789,1222.4 631.749,1216.19 636.708,1210.02 641.668,1203.89 646.628,1197.82 651.587,1191.81 656.547,1185.86 661.507,1180 
  666.466,1174.21 671.426,1168.51 676.386,1162.9 681.346,1157.39 686.305,1152 691.265,1146.72 696.225,1141.57 701.184,1136.55 706.144,1131.66 711.104,1126.9 
  716.063,1122.29 721.023,1117.84 725.983,1113.54 730.942,1109.4 735.902,1105.42 740.862,1101.6 745.821,1097.94 750.781,1094.42 755.741,1091.06 760.7,1087.84 
  765.66,1084.75 770.62,1081.81 775.579,1079.01 780.539,1076.34 785.499,1073.81 790.458,1071.4 795.418,1069.13 800.378,1066.98 805.337,1064.95 810.297,1063.05 
  815.257,1061.25 820.216,1059.56 825.176,1057.97 830.136,1056.48 835.095,1055.08 840.055,1053.77 845.015,1052.53 849.974,1051.37 854.934,1050.29 859.894,1049.28 
  864.853,1048.34 869.813,1047.47 874.773,1046.64 879.733,1045.88 884.692,1045.15 889.652,1044.47 894.612,1043.82 899.571,1043.2 904.531,1042.61 909.491,1042.04 
  914.45,1041.49 919.41,1040.95 924.37,1040.43 929.329,1039.92 934.289,1039.42 939.249,1038.93 944.208,1038.45 949.168,1037.96 954.128,1037.48 959.087,1036.99 
  964.047,1036.5 969.007,1036.01 973.966,1035.5 978.926,1034.99 983.886,1034.46 988.845,1033.91 993.805,1033.34 998.765,1032.75 1003.72,1032.13 1008.68,1031.47 
  1013.64,1030.78 1018.6,1030.04 1023.56,1029.26 1028.52,1028.43 1033.48,1027.55 1038.44,1026.61 1043.4,1025.62 1048.36,1024.57 1053.32,1023.45 1058.28,1022.27 
  1063.24,1021.01 1068.2,1019.69 1073.16,1018.28 1078.12,1016.79 1083.08,1015.22 1088.04,1013.57 1093,1011.83 1097.96,1010.01 1102.92,1008.11 1107.88,1006.11 
  1112.84,1004.02 1117.8,1001.84 1122.76,999.567 1127.72,997.197 1132.68,994.73 1137.64,992.162 1142.6,989.494 1147.55,986.724 1152.51,983.852 1157.47,980.878 
  1162.43,977.802 1167.39,974.622 1172.35,971.329 1177.31,967.906 1182.27,964.345 1187.23,960.649 1192.19,956.825 1197.15,952.872 1202.11,948.794 1207.07,944.594 
  1212.03,940.281 1216.99,935.863 1221.95,931.35 1226.91,926.748 1231.87,922.063 1236.83,917.302 1241.79,912.467 1246.75,907.564 1251.71,902.6 1256.67,897.584 
  1261.63,892.523 1266.59,887.42 1271.55,882.28 1276.51,877.103 1281.47,871.891 1286.43,866.652 1291.39,861.399 1296.35,856.142 1301.3,850.89 1306.26,845.654 
  1311.22,840.443 1316.18,835.269 1321.14,830.135 1326.1,825.053 1331.06,820.035 1336.02,815.09 1340.98,810.228 1345.94,805.454 1350.9,800.773 1355.86,796.189 
  1360.82,791.704 1365.78,787.319 1370.74,783.04 1375.7,778.867 1380.66,774.797 1385.62,770.827 1390.58,766.952 1395.54,763.169 1400.5,759.473 1405.46,755.858 
  1410.42,752.322 1415.38,748.861 1420.34,745.474 1425.3,742.158 1430.26,738.911 1435.22,735.729 1440.18,732.61 1445.14,729.55 1450.1,726.549 1455.05,723.612 
  1460.01,720.744 1464.97,717.946 1469.93,715.214 1474.89,712.541 1479.85,709.925 1484.81,707.364 1489.77,704.854 1494.73,702.394 1499.69,699.983 1504.65,697.623 
  1509.61,695.313 1514.57,693.051 1519.53,690.835 1524.49,688.664 1529.45,686.533 1534.41,684.439 1539.37,682.379 1544.33,680.351 1549.29,678.358 1554.25,676.4 
  1559.21,674.475 1564.17,672.585 1569.13,670.728 1574.09,668.903 1579.05,667.11 1584.01,665.347 1588.97,663.614 1593.93,661.909 1598.89,660.233 1603.85,658.583 
  1608.8,656.961 1613.76,655.365 1618.72,653.795 1623.68,652.25 1628.64,650.73 1633.6,649.236 1638.56,647.767 1643.52,646.326 1648.48,644.912 1653.44,643.527 
  1658.4,642.17 1663.36,640.841 1668.32,639.541 1673.28,638.268 1678.24,637.023 1683.2,635.804 1688.16,634.611 1693.12,633.444 1698.08,632.302 1703.04,631.186 
  1708,630.094 1712.96,629.026 1717.92,627.982 1722.88,626.96 1727.84,625.961 1732.8,624.984 1737.76,624.029 1742.72,623.095 1747.68,622.181 1752.64,621.288 
  1757.59,620.415 1762.55,619.558 1767.51,618.718 1772.47,617.891 1777.43,617.074 1782.39,616.263 1787.35,615.454 1792.31,614.642 1797.27,613.828 1802.23,613.009 
  1807.19,612.182 1812.15,611.344 1817.11,610.491 1822.07,609.617 1827.03,608.72 1831.99,607.794 1836.95,606.834 1841.91,605.834 1846.87,604.789 1851.83,603.693 
  1856.79,602.539 1861.75,601.322 1866.71,600.041 1871.67,598.693 1876.63,597.277 1881.59,595.788 1886.55,594.226 1891.51,592.588 1896.47,590.875 1901.43,589.085 
  1906.39,587.215 1911.34,585.265 1916.3,583.233 1921.26,581.118 1926.22,578.924 1931.18,576.649 1936.14,574.295 1941.1,571.863 1946.06,569.355 1951.02,566.772 
  1955.98,564.115 1960.94,561.382 1965.9,558.569 1970.86,555.671 1975.82,552.689 1980.78,549.623 1985.74,546.476 1990.7,543.251 1995.66,539.954 2000.62,536.579 
  2005.58,533.127 2010.54,529.597 2015.5,525.987 2020.46,522.294 2025.42,518.51 2030.38,514.629 2035.34,510.652 2040.3,506.579 2045.26,502.408 2050.22,498.136 
  2055.18,493.762 2060.14,489.285 2065.09,484.706 2070.05,480.03 2075.01,475.259 2079.97,470.398 2084.93,465.445 2089.89,460.398 2094.85,455.256 2099.81,450.014 
  2104.77,444.684 2109.73,439.28 2114.69,433.809 2119.65,428.274 2124.61,422.672 2129.57,416.995 2134.53,411.237 2139.49,405.435 2144.45,399.61 2149.41,393.778 
  2154.37,387.952 2159.33,382.139 2164.29,376.34 2169.25,370.554 2174.21,364.78 2179.17,359.019 2184.13,353.27 2189.09,347.533 2194.05,341.809 2199.01,336.1 
  2203.97,330.405 2208.93,324.725 2213.89,319.058 2218.84,313.409 2223.8,307.776 2228.76,302.156 2233.72,296.547 2238.68,290.943 2243.64,285.341 2248.6,279.736 
  2253.56,274.125 2258.52,268.516 2263.48,262.912 2268.44,257.311 2273.4,251.709 2278.36,246.104 2283.32,240.488 2288.28,234.856 2293.24,229.207 2298.2,223.55 
  2303.16,217.888 2308.12,212.224 2313.08,206.558 2318.04,200.886 2323,195.203 2327.96,189.495 2332.92,183.75 2337.88,177.961 2342.84,172.121 2347.8,166.222 
  2352.76,160.256 
  "/>
<polyline clip-path="url(#clip822)" style="stroke:#c271d2; stroke-linecap:butt; stroke-linejoin:round; stroke-width:4; stroke-opacity:1; fill:none" points="
  368.886,1386.4 373.846,1385.85 378.805,1385.31 383.765,1384.77 388.725,1384.23 393.684,1383.67 398.644,1383.1 403.604,1382.5 408.563,1381.87 413.523,1381.21 
  418.483,1380.52 423.442,1379.79 428.402,1379.02 433.362,1378.2 438.321,1377.33 443.281,1376.41 448.241,1375.42 453.2,1374.35 458.16,1373.21 463.12,1371.99 
  468.08,1370.7 473.039,1369.34 477.999,1367.88 482.959,1366.33 487.918,1364.67 492.878,1362.89 497.838,1360.98 502.797,1358.97 507.757,1356.83 512.717,1354.56 
  517.676,1352.15 522.636,1349.62 527.596,1346.94 532.555,1344.14 537.515,1341.19 542.475,1338.1 547.434,1334.88 552.394,1331.52 557.354,1328.03 562.313,1324.4 
  567.273,1320.62 572.233,1316.69 577.192,1312.62 582.152,1308.41 587.112,1304.07 592.071,1299.61 597.031,1295.05 601.991,1290.41 606.95,1285.72 611.91,1281.03 
  616.87,1276.43 621.829,1271.91 626.789,1267.47 631.749,1263.09 636.708,1258.77 641.668,1254.52 646.628,1250.34 651.587,1246.19 656.547,1242.08 661.507,1237.99 
  666.466,1233.93 671.426,1229.92 676.386,1226 681.346,1222.15 686.305,1218.39 691.265,1214.73 696.225,1211.16 701.184,1207.68 706.144,1204.31 711.104,1201.02 
  716.063,1197.85 721.023,1194.77 725.983,1191.8 730.942,1188.94 735.902,1186.18 740.862,1183.53 745.821,1180.99 750.781,1178.55 755.741,1176.22 760.7,1173.99 
  765.66,1171.85 770.62,1169.81 775.579,1167.87 780.539,1166.02 785.499,1164.27 790.458,1162.61 795.418,1161.04 800.378,1159.56 805.337,1158.16 810.297,1156.84 
  815.257,1155.6 820.216,1154.44 825.176,1153.35 830.136,1152.32 835.095,1151.36 840.055,1150.46 845.015,1149.61 849.974,1148.81 854.934,1148.07 859.894,1147.38 
  864.853,1146.73 869.813,1146.13 874.773,1145.57 879.733,1145.05 884.692,1144.55 889.652,1144.09 894.612,1143.64 899.571,1143.22 904.531,1142.81 909.491,1142.41 
  914.45,1142.03 919.41,1141.66 924.37,1141.3 929.329,1140.95 934.289,1140.61 939.249,1140.26 944.208,1139.93 949.168,1139.59 954.128,1139.25 959.087,1138.92 
  964.047,1138.58 969.007,1138.22 973.966,1137.86 978.926,1137.48 983.886,1137.09 988.845,1136.69 993.805,1136.27 998.765,1135.82 1003.72,1135.35 1008.68,1134.85 
  1013.64,1134.31 1018.6,1133.74 1023.56,1133.13 1028.52,1132.49 1033.48,1131.8 1038.44,1131.06 1043.4,1130.28 1048.36,1129.45 1053.32,1128.57 1058.28,1127.64 
  1063.24,1126.65 1068.2,1125.6 1073.16,1124.49 1078.12,1123.31 1083.08,1122.07 1088.04,1120.76 1093,1119.37 1097.96,1117.92 1102.92,1116.4 1107.88,1114.8 
  1112.84,1113.14 1117.8,1111.41 1122.76,1109.6 1127.72,1107.72 1132.68,1105.77 1137.64,1103.73 1142.6,1101.6 1147.55,1099.38 1152.51,1097.06 1157.47,1094.65 
  1162.43,1092.16 1167.39,1089.59 1172.35,1086.93 1177.31,1084.16 1182.27,1081.27 1187.23,1078.26 1192.19,1075.15 1197.15,1071.93 1202.11,1068.6 1207.07,1065.18 
  1212.03,1061.68 1216.99,1058.13 1221.95,1054.52 1226.91,1050.85 1231.87,1047.13 1236.83,1043.35 1241.79,1039.52 1246.75,1035.63 1251.71,1031.69 1256.67,1027.71 
  1261.63,1023.69 1266.59,1019.63 1271.55,1015.55 1276.51,1011.44 1281.47,1007.3 1286.43,1003.14 1291.39,998.963 1296.35,994.787 1301.3,990.615 1306.26,986.456 
  1311.22,982.316 1316.18,978.204 1321.14,974.124 1326.1,970.084 1331.06,966.095 1336.02,962.163 1340.98,958.297 1345.94,954.5 1350.9,950.777 1355.86,947.13 
  1360.82,943.561 1365.78,940.071 1370.74,936.667 1375.7,933.347 1380.66,930.107 1385.62,926.942 1390.58,923.846 1395.54,920.812 1400.5,917.835 1405.46,914.917 
  1410.42,912.054 1415.38,909.24 1420.34,906.472 1425.3,903.748 1430.26,901.068 1435.22,898.434 1440.18,895.851 1445.14,893.325 1450.1,890.865 1455.05,888.472 
  1460.01,886.143 1464.97,883.878 1469.93,881.677 1474.89,879.543 1479.85,877.469 1484.81,875.446 1489.77,873.469 1494.73,871.536 1499.69,869.645 1504.65,867.797 
  1509.61,865.991 1514.57,864.225 1519.53,862.497 1524.49,860.803 1529.45,859.141 1534.41,857.505 1539.37,855.891 1544.33,854.301 1549.29,852.735 1554.25,851.195 
  1559.21,849.681 1564.17,848.194 1569.13,846.731 1574.09,845.294 1579.05,843.88 1584.01,842.491 1588.97,841.124 1593.93,839.779 1598.89,838.455 1603.85,837.153 
  1608.8,835.871 1613.76,834.61 1618.72,833.37 1623.68,832.151 1628.64,830.953 1633.6,829.776 1638.56,828.619 1643.52,827.484 1648.48,826.37 1653.44,825.28 
  1658.4,824.214 1663.36,823.176 1668.32,822.161 1673.28,821.169 1678.24,820.198 1683.2,819.25 1688.16,818.322 1693.12,817.416 1698.08,816.531 1703.04,815.666 
  1708,814.82 1712.96,813.994 1717.92,813.187 1722.88,812.398 1727.84,811.626 1732.8,810.873 1737.76,810.136 1742.72,809.416 1747.68,808.711 1752.64,808.023 
  1757.59,807.35 1762.55,806.694 1767.51,806.05 1772.47,805.417 1777.43,804.792 1782.39,804.174 1787.35,803.558 1792.31,802.943 1797.27,802.326 1802.23,801.705 
  1807.19,801.076 1812.15,800.437 1817.11,799.787 1822.07,799.122 1827.03,798.438 1831.99,797.733 1836.95,797.004 1841.91,796.246 1846.87,795.455 1851.83,794.624 
  1856.79,793.75 1861.75,792.827 1866.71,791.85 1871.67,790.815 1876.63,789.721 1881.59,788.568 1886.55,787.359 1891.51,786.092 1896.47,784.764 1901.43,783.377 
  1906.39,781.932 1911.34,780.431 1916.3,778.877 1921.26,777.27 1926.22,775.61 1931.18,773.893 1936.14,772.118 1941.1,770.285 1946.06,768.389 1951.02,766.43 
  1955.98,764.406 1960.94,762.318 1965.9,760.165 1970.86,757.947 1975.82,755.663 1980.78,753.315 1985.74,750.904 1990.7,748.432 1995.66,745.904 2000.62,743.317 
  2005.58,740.659 2010.54,737.918 2015.5,735.091 2020.46,732.177 2025.42,729.183 2030.38,726.117 2035.34,722.976 2040.3,719.759 2045.26,716.466 2050.22,713.099 
  2055.18,709.653 2060.14,706.125 2065.09,702.515 2070.05,698.828 2075.01,695.07 2079.97,691.242 2084.93,687.345 2089.89,683.375 2094.85,679.33 2099.81,675.209 
  2104.77,671.017 2109.73,666.752 2114.69,662.413 2119.65,658 2124.61,653.516 2129.57,648.967 2134.53,644.359 2139.49,639.741 2144.45,635.205 2149.41,630.79 
  2154.37,626.481 2159.33,622.21 2164.29,617.971 2169.25,613.779 2174.21,609.625 2179.17,605.499 2184.13,601.394 2189.09,597.309 2194.05,593.244 2199.01,589.196 
  2203.97,585.164 2208.93,581.144 2213.89,577.135 2218.84,573.132 2223.8,569.138 2228.76,565.157 2233.72,561.197 2238.68,557.263 2243.64,553.365 2248.6,549.509 
  2253.56,545.7 2258.52,541.927 2263.48,538.183 2268.44,534.463 2273.4,530.759 2278.36,527.064 2283.32,523.37 2288.28,519.674 2293.24,515.995 2298.2,512.317 
  2303.16,508.613 2308.12,504.853 2313.08,500.996 2318.04,496.998 2323,492.816 2327.96,488.485 2332.92,484.032 2337.88,479.468 2342.84,474.804 2347.8,470.05 
  2352.76,465.219 
  "/>
<path clip-path="url(#clip820)" d="
M1847.86 425.996 L2286.63 425.996 L2286.63 166.796 L1847.86 166.796  Z
  " fill="#ffffff" fill-rule="evenodd" fill-opacity="1"/>
<polyline clip-path="url(#clip820)" style="stroke:#000000; stroke-linecap:butt; stroke-linejoin:round; stroke-width:4; stroke-opacity:1; fill:none" points="
  1847.86,425.996 2286.63,425.996 2286.63,166.796 1847.86,166.796 1847.86,425.996 
  "/>
<polyline clip-path="url(#clip820)" style="stroke:#009af9; stroke-linecap:butt; stroke-linejoin:round; stroke-width:4; stroke-opacity:1; fill:none" points="
  1869.91,218.636 2002.17,218.636 
  "/>
<path clip-path="url(#clip820)" d="M2034.83 199.944 Q2031.73 205.268 2030.23 210.476 Q2028.72 215.684 2028.72 221.032 Q2028.72 226.379 2030.23 231.633 Q2031.76 236.865 2034.83 242.166 L2031.13 242.166 Q2027.66 236.726 2025.92 231.471 Q2024.21 226.217 2024.21 221.032 Q2024.21 215.87 2025.92 210.638 Q2027.63 205.407 2031.13 199.944 L2034.83 199.944 Z" fill="#000000" fill-rule="evenodd" fill-opacity="1" /><path clip-path="url(#clip820)" d="M2047.31 202.629 L2047.31 209.99 L2056.08 209.99 L2056.08 213.3 L2047.31 213.3 L2047.31 227.374 Q2047.31 230.545 2048.17 231.448 Q2049.05 232.351 2051.71 232.351 L2056.08 232.351 L2056.08 235.916 L2051.71 235.916 Q2046.78 235.916 2044.9 234.087 Q2043.03 232.235 2043.03 227.374 L2043.03 213.3 L2039.9 213.3 L2039.9 209.99 L2043.03 209.99 L2043.03 202.629 L2047.31 202.629 Z" fill="#000000" fill-rule="evenodd" fill-opacity="1" /><path clip-path="url(#clip820)" d="M2062.77 230.036 L2067.66 230.036 L2067.66 234.018 L2063.86 241.425 L2060.88 241.425 L2062.77 234.018 L2062.77 230.036 Z" fill="#000000" fill-rule="evenodd" fill-opacity="1" /><path clip-path="url(#clip820)" d="M2093.33 219.712 Q2094.83 220.221 2096.25 221.888 Q2097.68 223.555 2099.12 226.471 L2103.86 235.916 L2098.84 235.916 L2094.42 227.05 Q2092.7 223.578 2091.08 222.444 Q2089.49 221.309 2086.71 221.309 L2081.62 221.309 L2081.62 235.916 L2076.94 235.916 L2076.94 201.356 L2087.5 201.356 Q2093.42 201.356 2096.34 203.833 Q2099.25 206.309 2099.25 211.309 Q2099.25 214.573 2097.73 216.726 Q2096.22 218.879 2093.33 219.712 M2081.62 205.198 L2081.62 217.467 L2087.5 217.467 Q2090.88 217.467 2092.59 215.916 Q2094.32 214.342 2094.32 211.309 Q2094.32 208.277 2092.59 206.749 Q2090.88 205.198 2087.5 205.198 L2081.62 205.198 Z" fill="#000000" fill-rule="evenodd" fill-opacity="1" /><path clip-path="url(#clip820)" d="M2109.3 199.897 L2119.12 199.897 L2119.12 203.208 L2113.56 203.208 L2113.56 238.856 L2119.12 238.856 L2119.12 242.166 L2109.3 242.166 L2109.3 199.897 Z" fill="#000000" fill-rule="evenodd" fill-opacity="1" /><path clip-path="url(#clip820)" d="M2129.6 231.981 L2137.24 231.981 L2137.24 205.615 L2128.93 207.282 L2128.93 203.022 L2137.19 201.356 L2141.87 201.356 L2141.87 231.981 L2149.51 231.981 L2149.51 235.916 L2129.6 235.916 L2129.6 231.981 Z" fill="#000000" fill-rule="evenodd" fill-opacity="1" /><path clip-path="url(#clip820)" d="M2168.31 199.897 L2168.31 242.166 L2158.49 242.166 L2158.49 238.856 L2164.02 238.856 L2164.02 203.208 L2158.49 203.208 L2158.49 199.897 L2168.31 199.897 Z" fill="#000000" fill-rule="evenodd" fill-opacity="1" /><path clip-path="url(#clip820)" d="M2187.08 199.944 Q2183.98 205.268 2182.47 210.476 Q2180.97 215.684 2180.97 221.032 Q2180.97 226.379 2182.47 231.633 Q2184 236.865 2187.08 242.166 L2183.37 242.166 Q2179.9 236.726 2178.17 231.471 Q2176.45 226.217 2176.45 221.032 Q2176.45 215.87 2178.17 210.638 Q2179.88 205.407 2183.37 199.944 L2187.08 199.944 Z" fill="#000000" fill-rule="evenodd" fill-opacity="1" /><path clip-path="url(#clip820)" d="M2199.56 202.629 L2199.56 209.99 L2208.33 209.99 L2208.33 213.3 L2199.56 213.3 L2199.56 227.374 Q2199.56 230.545 2200.41 231.448 Q2201.29 232.351 2203.95 232.351 L2208.33 232.351 L2208.33 235.916 L2203.95 235.916 Q2199.02 235.916 2197.15 234.087 Q2195.27 232.235 2195.27 227.374 L2195.27 213.3 L2192.15 213.3 L2192.15 209.99 L2195.27 209.99 L2195.27 202.629 L2199.56 202.629 Z" fill="#000000" fill-rule="evenodd" fill-opacity="1" /><path clip-path="url(#clip820)" d="M2213.26 199.944 L2216.96 199.944 Q2220.43 205.407 2222.15 210.638 Q2223.88 215.87 2223.88 221.032 Q2223.88 226.217 2222.15 231.471 Q2220.43 236.726 2216.96 242.166 L2213.26 242.166 Q2216.34 236.865 2217.84 231.633 Q2219.37 226.379 2219.37 221.032 Q2219.37 215.684 2217.84 210.476 Q2216.34 205.268 2213.26 199.944 Z" fill="#000000" fill-rule="evenodd" fill-opacity="1" /><path clip-path="url(#clip820)" d="M2231.75 199.944 L2235.46 199.944 Q2238.93 205.407 2240.64 210.638 Q2242.38 215.87 2242.38 221.032 Q2242.38 226.217 2240.64 231.471 Q2238.93 236.726 2235.46 242.166 L2231.75 242.166 Q2234.83 236.865 2236.34 231.633 Q2237.87 226.379 2237.87 221.032 Q2237.87 215.684 2236.34 210.476 Q2234.83 205.268 2231.75 199.944 Z" fill="#000000" fill-rule="evenodd" fill-opacity="1" /><polyline clip-path="url(#clip820)" style="stroke:#e26f46; stroke-linecap:butt; stroke-linejoin:round; stroke-width:4; stroke-opacity:1; fill:none" points="
  1869.91,270.476 2002.17,270.476 
  "/>
<path clip-path="url(#clip820)" d="M2034.83 251.784 Q2031.73 257.108 2030.23 262.316 Q2028.72 267.524 2028.72 272.872 Q2028.72 278.219 2030.23 283.473 Q2031.76 288.705 2034.83 294.006 L2031.13 294.006 Q2027.66 288.566 2025.92 283.311 Q2024.21 278.057 2024.21 272.872 Q2024.21 267.71 2025.92 262.478 Q2027.63 257.247 2031.13 251.784 L2034.83 251.784 Z" fill="#000000" fill-rule="evenodd" fill-opacity="1" /><path clip-path="url(#clip820)" d="M2047.31 254.469 L2047.31 261.83 L2056.08 261.83 L2056.08 265.14 L2047.31 265.14 L2047.31 279.214 Q2047.31 282.385 2048.17 283.288 Q2049.05 284.191 2051.71 284.191 L2056.08 284.191 L2056.08 287.756 L2051.71 287.756 Q2046.78 287.756 2044.9 285.927 Q2043.03 284.075 2043.03 279.214 L2043.03 265.14 L2039.9 265.14 L2039.9 261.83 L2043.03 261.83 L2043.03 254.469 L2047.31 254.469 Z" fill="#000000" fill-rule="evenodd" fill-opacity="1" /><path clip-path="url(#clip820)" d="M2062.77 281.876 L2067.66 281.876 L2067.66 285.858 L2063.86 293.265 L2060.88 293.265 L2062.77 285.858 L2062.77 281.876 Z" fill="#000000" fill-rule="evenodd" fill-opacity="1" /><path clip-path="url(#clip820)" d="M2093.33 271.552 Q2094.83 272.061 2096.25 273.728 Q2097.68 275.395 2099.12 278.311 L2103.86 287.756 L2098.84 287.756 L2094.42 278.89 Q2092.7 275.418 2091.08 274.284 Q2089.49 273.149 2086.71 273.149 L2081.62 273.149 L2081.62 287.756 L2076.94 287.756 L2076.94 253.196 L2087.5 253.196 Q2093.42 253.196 2096.34 255.673 Q2099.25 258.149 2099.25 263.149 Q2099.25 266.413 2097.73 268.566 Q2096.22 270.719 2093.33 271.552 M2081.62 257.038 L2081.62 269.307 L2087.5 269.307 Q2090.88 269.307 2092.59 267.756 Q2094.32 266.182 2094.32 263.149 Q2094.32 260.117 2092.59 258.589 Q2090.88 257.038 2087.5 257.038 L2081.62 257.038 Z" fill="#000000" fill-rule="evenodd" fill-opacity="1" /><path clip-path="url(#clip820)" d="M2109.3 251.737 L2119.12 251.737 L2119.12 255.048 L2113.56 255.048 L2113.56 290.696 L2119.12 290.696 L2119.12 294.006 L2109.3 294.006 L2109.3 251.737 Z" fill="#000000" fill-rule="evenodd" fill-opacity="1" /><path clip-path="url(#clip820)" d="M2132.82 283.821 L2149.14 283.821 L2149.14 287.756 L2127.19 287.756 L2127.19 283.821 Q2129.86 281.066 2134.44 276.436 Q2139.05 271.784 2140.23 270.441 Q2142.47 267.918 2143.35 266.182 Q2144.25 264.423 2144.25 262.733 Q2144.25 259.978 2142.31 258.242 Q2140.39 256.506 2137.29 256.506 Q2135.09 256.506 2132.63 257.27 Q2130.2 258.034 2127.43 259.585 L2127.43 254.862 Q2130.25 253.728 2132.7 253.149 Q2135.16 252.571 2137.19 252.571 Q2142.56 252.571 2145.76 255.256 Q2148.95 257.941 2148.95 262.432 Q2148.95 264.561 2148.14 266.483 Q2147.36 268.381 2145.25 270.973 Q2144.67 271.645 2141.57 274.862 Q2138.47 278.057 2132.82 283.821 Z" fill="#000000" fill-rule="evenodd" fill-opacity="1" /><path clip-path="url(#clip820)" d="M2168.31 251.737 L2168.31 294.006 L2158.49 294.006 L2158.49 290.696 L2164.02 290.696 L2164.02 255.048 L2158.49 255.048 L2158.49 251.737 L2168.31 251.737 Z" fill="#000000" fill-rule="evenodd" fill-opacity="1" /><path clip-path="url(#clip820)" d="M2187.08 251.784 Q2183.98 257.108 2182.47 262.316 Q2180.97 267.524 2180.97 272.872 Q2180.97 278.219 2182.47 283.473 Q2184 288.705 2187.08 294.006 L2183.37 294.006 Q2179.9 288.566 2178.17 283.311 Q2176.45 278.057 2176.45 272.872 Q2176.45 267.71 2178.17 262.478 Q2179.88 257.247 2183.37 251.784 L2187.08 251.784 Z" fill="#000000" fill-rule="evenodd" fill-opacity="1" /><path clip-path="url(#clip820)" d="M2199.56 254.469 L2199.56 261.83 L2208.33 261.83 L2208.33 265.14 L2199.56 265.14 L2199.56 279.214 Q2199.56 282.385 2200.41 283.288 Q2201.29 284.191 2203.95 284.191 L2208.33 284.191 L2208.33 287.756 L2203.95 287.756 Q2199.02 287.756 2197.15 285.927 Q2195.27 284.075 2195.27 279.214 L2195.27 265.14 L2192.15 265.14 L2192.15 261.83 L2195.27 261.83 L2195.27 254.469 L2199.56 254.469 Z" fill="#000000" fill-rule="evenodd" fill-opacity="1" /><path clip-path="url(#clip820)" d="M2213.26 251.784 L2216.96 251.784 Q2220.43 257.247 2222.15 262.478 Q2223.88 267.71 2223.88 272.872 Q2223.88 278.057 2222.15 283.311 Q2220.43 288.566 2216.96 294.006 L2213.26 294.006 Q2216.34 288.705 2217.84 283.473 Q2219.37 278.219 2219.37 272.872 Q2219.37 267.524 2217.84 262.316 Q2216.34 257.108 2213.26 251.784 Z" fill="#000000" fill-rule="evenodd" fill-opacity="1" /><path clip-path="url(#clip820)" d="M2231.75 251.784 L2235.46 251.784 Q2238.93 257.247 2240.64 262.478 Q2242.38 267.71 2242.38 272.872 Q2242.38 278.057 2240.64 283.311 Q2238.93 288.566 2235.46 294.006 L2231.75 294.006 Q2234.83 288.705 2236.34 283.473 Q2237.87 278.219 2237.87 272.872 Q2237.87 267.524 2236.34 262.316 Q2234.83 257.108 2231.75 251.784 Z" fill="#000000" fill-rule="evenodd" fill-opacity="1" /><polyline clip-path="url(#clip820)" style="stroke:#3da44d; stroke-linecap:butt; stroke-linejoin:round; stroke-width:4; stroke-opacity:1; fill:none" points="
  1869.91,322.316 2002.17,322.316 
  "/>
<path clip-path="url(#clip820)" d="M2034.83 303.624 Q2031.73 308.948 2030.23 314.156 Q2028.72 319.364 2028.72 324.712 Q2028.72 330.059 2030.23 335.313 Q2031.76 340.545 2034.83 345.846 L2031.13 345.846 Q2027.66 340.406 2025.92 335.151 Q2024.21 329.897 2024.21 324.712 Q2024.21 319.55 2025.92 314.318 Q2027.63 309.087 2031.13 303.624 L2034.83 303.624 Z" fill="#000000" fill-rule="evenodd" fill-opacity="1" /><path clip-path="url(#clip820)" d="M2047.31 306.309 L2047.31 313.67 L2056.08 313.67 L2056.08 316.98 L2047.31 316.98 L2047.31 331.054 Q2047.31 334.225 2048.17 335.128 Q2049.05 336.031 2051.71 336.031 L2056.08 336.031 L2056.08 339.596 L2051.71 339.596 Q2046.78 339.596 2044.9 337.767 Q2043.03 335.915 2043.03 331.054 L2043.03 316.98 L2039.9 316.98 L2039.9 313.67 L2043.03 313.67 L2043.03 306.309 L2047.31 306.309 Z" fill="#000000" fill-rule="evenodd" fill-opacity="1" /><path clip-path="url(#clip820)" d="M2062.77 333.716 L2067.66 333.716 L2067.66 337.698 L2063.86 345.105 L2060.88 345.105 L2062.77 337.698 L2062.77 333.716 Z" fill="#000000" fill-rule="evenodd" fill-opacity="1" /><path clip-path="url(#clip820)" d="M2102.82 307.698 L2102.82 312.628 Q2100.46 310.429 2097.77 309.341 Q2095.11 308.253 2092.1 308.253 Q2086.18 308.253 2083.03 311.888 Q2079.88 315.499 2079.88 322.35 Q2079.88 329.179 2083.03 332.813 Q2086.18 336.424 2092.1 336.424 Q2095.11 336.424 2097.77 335.336 Q2100.46 334.249 2102.82 332.049 L2102.82 336.934 Q2100.37 338.6 2097.61 339.434 Q2094.88 340.267 2091.82 340.267 Q2083.98 340.267 2079.46 335.475 Q2074.95 330.661 2074.95 322.35 Q2074.95 314.017 2079.46 309.226 Q2083.98 304.411 2091.82 304.411 Q2094.93 304.411 2097.66 305.244 Q2100.41 306.054 2102.82 307.698 Z" fill="#000000" fill-rule="evenodd" fill-opacity="1" /><path clip-path="url(#clip820)" d="M2109.46 303.577 L2119.28 303.577 L2119.28 306.888 L2113.72 306.888 L2113.72 342.536 L2119.28 342.536 L2119.28 345.846 L2109.46 345.846 L2109.46 303.577 Z" fill="#000000" fill-rule="evenodd" fill-opacity="1" /><path clip-path="url(#clip820)" d="M2129.76 335.661 L2137.4 335.661 L2137.4 309.295 L2129.09 310.962 L2129.09 306.702 L2137.36 305.036 L2142.03 305.036 L2142.03 335.661 L2149.67 335.661 L2149.67 339.596 L2129.76 339.596 L2129.76 335.661 Z" fill="#000000" fill-rule="evenodd" fill-opacity="1" /><path clip-path="url(#clip820)" d="M2168.47 303.577 L2168.47 345.846 L2158.65 345.846 L2158.65 342.536 L2164.18 342.536 L2164.18 306.888 L2158.65 306.888 L2158.65 303.577 L2168.47 303.577 Z" fill="#000000" fill-rule="evenodd" fill-opacity="1" /><path clip-path="url(#clip820)" d="M2187.24 303.624 Q2184.14 308.948 2182.63 314.156 Q2181.13 319.364 2181.13 324.712 Q2181.13 330.059 2182.63 335.313 Q2184.16 340.545 2187.24 345.846 L2183.54 345.846 Q2180.06 340.406 2178.33 335.151 Q2176.62 329.897 2176.62 324.712 Q2176.62 319.55 2178.33 314.318 Q2180.04 309.087 2183.54 303.624 L2187.24 303.624 Z" fill="#000000" fill-rule="evenodd" fill-opacity="1" /><path clip-path="url(#clip820)" d="M2199.72 306.309 L2199.72 313.67 L2208.49 313.67 L2208.49 316.98 L2199.72 316.98 L2199.72 331.054 Q2199.72 334.225 2200.57 335.128 Q2201.45 336.031 2204.12 336.031 L2208.49 336.031 L2208.49 339.596 L2204.12 339.596 Q2199.18 339.596 2197.31 337.767 Q2195.43 335.915 2195.43 331.054 L2195.43 316.98 L2192.31 316.98 L2192.31 313.67 L2195.43 313.67 L2195.43 306.309 L2199.72 306.309 Z" fill="#000000" fill-rule="evenodd" fill-opacity="1" /><path clip-path="url(#clip820)" d="M2213.42 303.624 L2217.12 303.624 Q2220.6 309.087 2222.31 314.318 Q2224.05 319.55 2224.05 324.712 Q2224.05 329.897 2222.31 335.151 Q2220.6 340.406 2217.12 345.846 L2213.42 345.846 Q2216.5 340.545 2218 335.313 Q2219.53 330.059 2219.53 324.712 Q2219.53 319.364 2218 314.156 Q2216.5 308.948 2213.42 303.624 Z" fill="#000000" fill-rule="evenodd" fill-opacity="1" /><path clip-path="url(#clip820)" d="M2231.92 303.624 L2235.62 303.624 Q2239.09 309.087 2240.8 314.318 Q2242.54 319.55 2242.54 324.712 Q2242.54 329.897 2240.8 335.151 Q2239.09 340.406 2235.62 345.846 L2231.92 345.846 Q2234.99 340.545 2236.5 335.313 Q2238.03 330.059 2238.03 324.712 Q2238.03 319.364 2236.5 314.156 Q2234.99 308.948 2231.92 303.624 Z" fill="#000000" fill-rule="evenodd" fill-opacity="1" /><polyline clip-path="url(#clip820)" style="stroke:#c271d2; stroke-linecap:butt; stroke-linejoin:round; stroke-width:4; stroke-opacity:1; fill:none" points="
  1869.91,374.156 2002.17,374.156 
  "/>
<path clip-path="url(#clip820)" d="M2034.83 355.464 Q2031.73 360.788 2030.23 365.996 Q2028.72 371.204 2028.72 376.552 Q2028.72 381.899 2030.23 387.153 Q2031.76 392.385 2034.83 397.686 L2031.13 397.686 Q2027.66 392.246 2025.92 386.991 Q2024.21 381.737 2024.21 376.552 Q2024.21 371.39 2025.92 366.158 Q2027.63 360.927 2031.13 355.464 L2034.83 355.464 Z" fill="#000000" fill-rule="evenodd" fill-opacity="1" /><path clip-path="url(#clip820)" d="M2047.31 358.149 L2047.31 365.51 L2056.08 365.51 L2056.08 368.82 L2047.31 368.82 L2047.31 382.894 Q2047.31 386.065 2048.17 386.968 Q2049.05 387.871 2051.71 387.871 L2056.08 387.871 L2056.08 391.436 L2051.71 391.436 Q2046.78 391.436 2044.9 389.607 Q2043.03 387.755 2043.03 382.894 L2043.03 368.82 L2039.9 368.82 L2039.9 365.51 L2043.03 365.51 L2043.03 358.149 L2047.31 358.149 Z" fill="#000000" fill-rule="evenodd" fill-opacity="1" /><path clip-path="url(#clip820)" d="M2062.77 385.556 L2067.66 385.556 L2067.66 389.538 L2063.86 396.945 L2060.88 396.945 L2062.77 389.538 L2062.77 385.556 Z" fill="#000000" fill-rule="evenodd" fill-opacity="1" /><path clip-path="url(#clip820)" d="M2102.82 359.538 L2102.82 364.468 Q2100.46 362.269 2097.77 361.181 Q2095.11 360.093 2092.1 360.093 Q2086.18 360.093 2083.03 363.728 Q2079.88 367.339 2079.88 374.19 Q2079.88 381.019 2083.03 384.653 Q2086.18 388.264 2092.1 388.264 Q2095.11 388.264 2097.77 387.176 Q2100.46 386.089 2102.82 383.889 L2102.82 388.774 Q2100.37 390.44 2097.61 391.274 Q2094.88 392.107 2091.82 392.107 Q2083.98 392.107 2079.46 387.315 Q2074.95 382.501 2074.95 374.19 Q2074.95 365.857 2079.46 361.066 Q2083.98 356.251 2091.82 356.251 Q2094.93 356.251 2097.66 357.084 Q2100.41 357.894 2102.82 359.538 Z" fill="#000000" fill-rule="evenodd" fill-opacity="1" /><path clip-path="url(#clip820)" d="M2109.46 355.417 L2119.28 355.417 L2119.28 358.728 L2113.72 358.728 L2113.72 394.376 L2119.28 394.376 L2119.28 397.686 L2109.46 397.686 L2109.46 355.417 Z" fill="#000000" fill-rule="evenodd" fill-opacity="1" /><path clip-path="url(#clip820)" d="M2132.98 387.501 L2149.3 387.501 L2149.3 391.436 L2127.36 391.436 L2127.36 387.501 Q2130.02 384.746 2134.6 380.116 Q2139.21 375.464 2140.39 374.121 Q2142.63 371.598 2143.51 369.862 Q2144.42 368.103 2144.42 366.413 Q2144.42 363.658 2142.47 361.922 Q2140.55 360.186 2137.45 360.186 Q2135.25 360.186 2132.8 360.95 Q2130.37 361.714 2127.59 363.265 L2127.59 358.542 Q2130.41 357.408 2132.87 356.829 Q2135.32 356.251 2137.36 356.251 Q2142.73 356.251 2145.92 358.936 Q2149.12 361.621 2149.12 366.112 Q2149.12 368.241 2148.31 370.163 Q2147.52 372.061 2145.41 374.653 Q2144.83 375.325 2141.73 378.542 Q2138.63 381.737 2132.98 387.501 Z" fill="#000000" fill-rule="evenodd" fill-opacity="1" /><path clip-path="url(#clip820)" d="M2168.47 355.417 L2168.47 397.686 L2158.65 397.686 L2158.65 394.376 L2164.18 394.376 L2164.18 358.728 L2158.65 358.728 L2158.65 355.417 L2168.47 355.417 Z" fill="#000000" fill-rule="evenodd" fill-opacity="1" /><path clip-path="url(#clip820)" d="M2187.24 355.464 Q2184.14 360.788 2182.63 365.996 Q2181.13 371.204 2181.13 376.552 Q2181.13 381.899 2182.63 387.153 Q2184.16 392.385 2187.24 397.686 L2183.54 397.686 Q2180.06 392.246 2178.33 386.991 Q2176.62 381.737 2176.62 376.552 Q2176.62 371.39 2178.33 366.158 Q2180.04 360.927 2183.54 355.464 L2187.24 355.464 Z" fill="#000000" fill-rule="evenodd" fill-opacity="1" /><path clip-path="url(#clip820)" d="M2199.72 358.149 L2199.72 365.51 L2208.49 365.51 L2208.49 368.82 L2199.72 368.82 L2199.72 382.894 Q2199.72 386.065 2200.57 386.968 Q2201.45 387.871 2204.12 387.871 L2208.49 387.871 L2208.49 391.436 L2204.12 391.436 Q2199.18 391.436 2197.31 389.607 Q2195.43 387.755 2195.43 382.894 L2195.43 368.82 L2192.31 368.82 L2192.31 365.51 L2195.43 365.51 L2195.43 358.149 L2199.72 358.149 Z" fill="#000000" fill-rule="evenodd" fill-opacity="1" /><path clip-path="url(#clip820)" d="M2213.42 355.464 L2217.12 355.464 Q2220.6 360.927 2222.31 366.158 Q2224.05 371.39 2224.05 376.552 Q2224.05 381.737 2222.31 386.991 Q2220.6 392.246 2217.12 397.686 L2213.42 397.686 Q2216.5 392.385 2218 387.153 Q2219.53 381.899 2219.53 376.552 Q2219.53 371.204 2218 365.996 Q2216.5 360.788 2213.42 355.464 Z" fill="#000000" fill-rule="evenodd" fill-opacity="1" /><path clip-path="url(#clip820)" d="M2231.92 355.464 L2235.62 355.464 Q2239.09 360.927 2240.8 366.158 Q2242.54 371.39 2242.54 376.552 Q2242.54 381.737 2240.8 386.991 Q2239.09 392.246 2235.62 397.686 L2231.92 397.686 Q2234.99 392.385 2236.5 387.153 Q2238.03 381.899 2238.03 376.552 Q2238.03 371.204 2236.5 365.996 Q2234.99 360.788 2231.92 355.464 Z" fill="#000000" fill-rule="evenodd" fill-opacity="1" /></svg>
