<?xml version="1.0" encoding="utf-8"?>
<svg xmlns="http://www.w3.org/2000/svg" xmlns:xlink="http://www.w3.org/1999/xlink" width="600" height="400" viewBox="0 0 2400 1600">
<defs>
  <clipPath id="clip510">
    <rect x="0" y="0" width="2400" height="1600"/>
  </clipPath>
</defs>
<path clip-path="url(#clip510)" d="
M0 1600 L2400 1600 L2400 0 L0 0  Z
  " fill="#ffffff" fill-rule="evenodd" fill-opacity="1"/>
<defs>
  <clipPath id="clip511">
    <rect x="480" y="0" width="1681" height="1600"/>
  </clipPath>
</defs>
<path clip-path="url(#clip510)" d="
M368.886 1423.18 L2352.76 1423.18 L2352.76 123.472 L368.886 123.472  Z
  " fill="#ffffff" fill-rule="evenodd" fill-opacity="1"/>
<defs>
  <clipPath id="clip512">
    <rect x="368" y="123" width="1985" height="1301"/>
  </clipPath>
</defs>
<polyline clip-path="url(#clip512)" style="stroke:#000000; stroke-linecap:butt; stroke-linejoin:round; stroke-width:2; stroke-opacity:0.1; fill:none" points="
  368.886,1423.18 368.886,123.472 
  "/>
<polyline clip-path="url(#clip512)" style="stroke:#000000; stroke-linecap:butt; stroke-linejoin:round; stroke-width:2; stroke-opacity:0.1; fill:none" points="
  864.853,1423.18 864.853,123.472 
  "/>
<polyline clip-path="url(#clip512)" style="stroke:#000000; stroke-linecap:butt; stroke-linejoin:round; stroke-width:2; stroke-opacity:0.1; fill:none" points="
  1360.82,1423.18 1360.82,123.472 
  "/>
<polyline clip-path="url(#clip512)" style="stroke:#000000; stroke-linecap:butt; stroke-linejoin:round; stroke-width:2; stroke-opacity:0.1; fill:none" points="
  1856.79,1423.18 1856.79,123.472 
  "/>
<polyline clip-path="url(#clip512)" style="stroke:#000000; stroke-linecap:butt; stroke-linejoin:round; stroke-width:2; stroke-opacity:0.1; fill:none" points="
  2352.76,1423.18 2352.76,123.472 
  "/>
<polyline clip-path="url(#clip510)" style="stroke:#000000; stroke-linecap:butt; stroke-linejoin:round; stroke-width:4; stroke-opacity:1; fill:none" points="
  368.886,1423.18 2352.76,1423.18 
  "/>
<polyline clip-path="url(#clip510)" style="stroke:#000000; stroke-linecap:butt; stroke-linejoin:round; stroke-width:4; stroke-opacity:1; fill:none" points="
  368.886,1423.18 368.886,1404.28 
  "/>
<polyline clip-path="url(#clip510)" style="stroke:#000000; stroke-linecap:butt; stroke-linejoin:round; stroke-width:4; stroke-opacity:1; fill:none" points="
  864.853,1423.18 864.853,1404.28 
  "/>
<polyline clip-path="url(#clip510)" style="stroke:#000000; stroke-linecap:butt; stroke-linejoin:round; stroke-width:4; stroke-opacity:1; fill:none" points="
  1360.82,1423.18 1360.82,1404.28 
  "/>
<polyline clip-path="url(#clip510)" style="stroke:#000000; stroke-linecap:butt; stroke-linejoin:round; stroke-width:4; stroke-opacity:1; fill:none" points="
  1856.79,1423.18 1856.79,1404.28 
  "/>
<polyline clip-path="url(#clip510)" style="stroke:#000000; stroke-linecap:butt; stroke-linejoin:round; stroke-width:4; stroke-opacity:1; fill:none" points="
  2352.76,1423.18 2352.76,1404.28 
  "/>
<path clip-path="url(#clip510)" d="M368.886 1452.37 Q365.275 1452.37 363.446 1455.94 Q361.641 1459.48 361.641 1466.61 Q361.641 1473.71 363.446 1477.28 Q365.275 1480.82 368.886 1480.82 Q372.52 1480.82 374.326 1477.28 Q376.154 1473.71 376.154 1466.61 Q376.154 1459.48 374.326 1455.94 Q372.52 1452.37 368.886 1452.37 M368.886 1448.67 Q374.696 1448.67 377.752 1453.27 Q380.83 1457.86 380.83 1466.61 Q380.83 1475.33 377.752 1479.94 Q374.696 1484.52 368.886 1484.52 Q363.076 1484.52 359.997 1479.94 Q356.942 1475.33 356.942 1466.61 Q356.942 1457.86 359.997 1453.27 Q363.076 1448.67 368.886 1448.67 Z" fill="#000000" fill-rule="evenodd" fill-opacity="1" /><path clip-path="url(#clip510)" d="M824.46 1479.92 L832.099 1479.92 L832.099 1453.55 L823.789 1455.22 L823.789 1450.96 L832.053 1449.29 L836.729 1449.29 L836.729 1479.92 L844.367 1479.92 L844.367 1483.85 L824.46 1483.85 L824.46 1479.92 Z" fill="#000000" fill-rule="evenodd" fill-opacity="1" /><path clip-path="url(#clip510)" d="M863.812 1452.37 Q860.201 1452.37 858.372 1455.94 Q856.566 1459.48 856.566 1466.61 Q856.566 1473.71 858.372 1477.28 Q860.201 1480.82 863.812 1480.82 Q867.446 1480.82 869.252 1477.28 Q871.08 1473.71 871.08 1466.61 Q871.08 1459.48 869.252 1455.94 Q867.446 1452.37 863.812 1452.37 M863.812 1448.67 Q869.622 1448.67 872.678 1453.27 Q875.756 1457.86 875.756 1466.61 Q875.756 1475.33 872.678 1479.94 Q869.622 1484.52 863.812 1484.52 Q858.002 1484.52 854.923 1479.94 Q851.867 1475.33 851.867 1466.61 Q851.867 1457.86 854.923 1453.27 Q858.002 1448.67 863.812 1448.67 Z" fill="#000000" fill-rule="evenodd" fill-opacity="1" /><path clip-path="url(#clip510)" d="M893.974 1452.37 Q890.363 1452.37 888.534 1455.94 Q886.728 1459.48 886.728 1466.61 Q886.728 1473.71 888.534 1477.28 Q890.363 1480.82 893.974 1480.82 Q897.608 1480.82 899.413 1477.28 Q901.242 1473.71 901.242 1466.61 Q901.242 1459.48 899.413 1455.94 Q897.608 1452.37 893.974 1452.37 M893.974 1448.67 Q899.784 1448.67 902.839 1453.27 Q905.918 1457.86 905.918 1466.61 Q905.918 1475.33 902.839 1479.94 Q899.784 1484.52 893.974 1484.52 Q888.164 1484.52 885.085 1479.94 Q882.029 1475.33 882.029 1466.61 Q882.029 1457.86 885.085 1453.27 Q888.164 1448.67 893.974 1448.67 Z" fill="#000000" fill-rule="evenodd" fill-opacity="1" /><path clip-path="url(#clip510)" d="M1324.51 1479.92 L1340.83 1479.92 L1340.83 1483.85 L1318.89 1483.85 L1318.89 1479.92 Q1321.55 1477.16 1326.13 1472.53 Q1330.74 1467.88 1331.92 1466.54 Q1334.17 1464.01 1335.05 1462.28 Q1335.95 1460.52 1335.95 1458.83 Q1335.95 1456.07 1334 1454.34 Q1332.08 1452.6 1328.98 1452.6 Q1326.78 1452.6 1324.33 1453.37 Q1321.9 1454.13 1319.12 1455.68 L1319.12 1450.96 Q1321.94 1449.82 1324.4 1449.25 Q1326.85 1448.67 1328.89 1448.67 Q1334.26 1448.67 1337.45 1451.35 Q1340.65 1454.04 1340.65 1458.53 Q1340.65 1460.66 1339.84 1462.58 Q1339.05 1464.48 1336.94 1467.07 Q1336.37 1467.74 1333.26 1470.96 Q1330.16 1474.15 1324.51 1479.92 Z" fill="#000000" fill-rule="evenodd" fill-opacity="1" /><path clip-path="url(#clip510)" d="M1360.65 1452.37 Q1357.04 1452.37 1355.21 1455.94 Q1353.4 1459.48 1353.4 1466.61 Q1353.4 1473.71 1355.21 1477.28 Q1357.04 1480.82 1360.65 1480.82 Q1364.28 1480.82 1366.09 1477.28 Q1367.92 1473.71 1367.92 1466.61 Q1367.92 1459.48 1366.09 1455.94 Q1364.28 1452.37 1360.65 1452.37 M1360.65 1448.67 Q1366.46 1448.67 1369.51 1453.27 Q1372.59 1457.86 1372.59 1466.61 Q1372.59 1475.33 1369.51 1479.94 Q1366.46 1484.52 1360.65 1484.52 Q1354.84 1484.52 1351.76 1479.94 Q1348.7 1475.33 1348.7 1466.61 Q1348.7 1457.86 1351.76 1453.27 Q1354.84 1448.67 1360.65 1448.67 Z" fill="#000000" fill-rule="evenodd" fill-opacity="1" /><path clip-path="url(#clip510)" d="M1390.81 1452.37 Q1387.2 1452.37 1385.37 1455.94 Q1383.56 1459.48 1383.56 1466.61 Q1383.56 1473.71 1385.37 1477.28 Q1387.2 1480.82 1390.81 1480.82 Q1394.44 1480.82 1396.25 1477.28 Q1398.08 1473.71 1398.08 1466.61 Q1398.08 1459.48 1396.25 1455.94 Q1394.44 1452.37 1390.81 1452.37 M1390.81 1448.67 Q1396.62 1448.67 1399.67 1453.27 Q1402.75 1457.86 1402.75 1466.61 Q1402.75 1475.33 1399.67 1479.94 Q1396.62 1484.52 1390.81 1484.52 Q1385 1484.52 1381.92 1479.94 Q1378.86 1475.33 1378.86 1466.61 Q1378.86 1457.86 1381.92 1453.27 Q1385 1448.67 1390.81 1448.67 Z" fill="#000000" fill-rule="evenodd" fill-opacity="1" /><path clip-path="url(#clip510)" d="M1830.55 1465.22 Q1833.91 1465.94 1835.78 1468.2 Q1837.68 1470.47 1837.68 1473.81 Q1837.68 1478.92 1834.16 1481.72 Q1830.64 1484.52 1824.16 1484.52 Q1821.99 1484.52 1819.67 1484.08 Q1817.38 1483.67 1814.93 1482.81 L1814.93 1478.3 Q1816.87 1479.43 1819.18 1480.01 Q1821.5 1480.59 1824.02 1480.59 Q1828.42 1480.59 1830.71 1478.85 Q1833.03 1477.12 1833.03 1473.81 Q1833.03 1470.75 1830.87 1469.04 Q1828.74 1467.3 1824.93 1467.3 L1820.9 1467.3 L1820.9 1463.46 L1825.11 1463.46 Q1828.56 1463.46 1830.39 1462.09 Q1832.22 1460.7 1832.22 1458.11 Q1832.22 1455.45 1830.32 1454.04 Q1828.44 1452.6 1824.93 1452.6 Q1823 1452.6 1820.8 1453.02 Q1818.61 1453.44 1815.97 1454.31 L1815.97 1450.15 Q1818.63 1449.41 1820.94 1449.04 Q1823.28 1448.67 1825.34 1448.67 Q1830.67 1448.67 1833.77 1451.1 Q1836.87 1453.5 1836.87 1457.63 Q1836.87 1460.5 1835.23 1462.49 Q1833.58 1464.45 1830.55 1465.22 Z" fill="#000000" fill-rule="evenodd" fill-opacity="1" /><path clip-path="url(#clip510)" d="M1856.55 1452.37 Q1852.93 1452.37 1851.11 1455.94 Q1849.3 1459.48 1849.3 1466.61 Q1849.3 1473.71 1851.11 1477.28 Q1852.93 1480.82 1856.55 1480.82 Q1860.18 1480.82 1861.99 1477.28 Q1863.81 1473.71 1863.81 1466.61 Q1863.81 1459.48 1861.99 1455.94 Q1860.18 1452.37 1856.55 1452.37 M1856.55 1448.67 Q1862.36 1448.67 1865.41 1453.27 Q1868.49 1457.86 1868.49 1466.61 Q1868.49 1475.33 1865.41 1479.94 Q1862.36 1484.52 1856.55 1484.52 Q1850.74 1484.52 1847.66 1479.94 Q1844.6 1475.33 1844.6 1466.61 Q1844.6 1457.86 1847.66 1453.27 Q1850.74 1448.67 1856.55 1448.67 Z" fill="#000000" fill-rule="evenodd" fill-opacity="1" /><path clip-path="url(#clip510)" d="M1886.71 1452.37 Q1883.1 1452.37 1881.27 1455.94 Q1879.46 1459.48 1879.46 1466.61 Q1879.46 1473.71 1881.27 1477.28 Q1883.1 1480.82 1886.71 1480.82 Q1890.34 1480.82 1892.15 1477.28 Q1893.98 1473.71 1893.98 1466.61 Q1893.98 1459.48 1892.15 1455.94 Q1890.34 1452.37 1886.71 1452.37 M1886.71 1448.67 Q1892.52 1448.67 1895.57 1453.27 Q1898.65 1457.86 1898.65 1466.61 Q1898.65 1475.33 1895.57 1479.94 Q1892.52 1484.52 1886.71 1484.52 Q1880.9 1484.52 1877.82 1479.94 Q1874.76 1475.33 1874.76 1466.61 Q1874.76 1457.86 1877.82 1453.27 Q1880.9 1448.67 1886.71 1448.67 Z" fill="#000000" fill-rule="evenodd" fill-opacity="1" /><path clip-path="url(#clip510)" d="M2325.85 1453.37 L2314.04 1471.81 L2325.85 1471.81 L2325.85 1453.37 M2324.62 1449.29 L2330.5 1449.29 L2330.5 1471.81 L2335.43 1471.81 L2335.43 1475.7 L2330.5 1475.7 L2330.5 1483.85 L2325.85 1483.85 L2325.85 1475.7 L2310.24 1475.7 L2310.24 1471.19 L2324.62 1449.29 Z" fill="#000000" fill-rule="evenodd" fill-opacity="1" /><path clip-path="url(#clip510)" d="M2353.16 1452.37 Q2349.55 1452.37 2347.72 1455.94 Q2345.92 1459.48 2345.92 1466.61 Q2345.92 1473.71 2347.72 1477.28 Q2349.55 1480.82 2353.16 1480.82 Q2356.8 1480.82 2358.6 1477.28 Q2360.43 1473.71 2360.43 1466.61 Q2360.43 1459.48 2358.6 1455.94 Q2356.8 1452.37 2353.16 1452.37 M2353.16 1448.67 Q2358.97 1448.67 2362.03 1453.27 Q2365.11 1457.86 2365.11 1466.61 Q2365.11 1475.33 2362.03 1479.94 Q2358.97 1484.52 2353.16 1484.52 Q2347.35 1484.52 2344.27 1479.94 Q2341.22 1475.33 2341.22 1466.61 Q2341.22 1457.86 2344.27 1453.27 Q2347.35 1448.67 2353.16 1448.67 Z" fill="#000000" fill-rule="evenodd" fill-opacity="1" /><path clip-path="url(#clip510)" d="M2383.32 1452.37 Q2379.71 1452.37 2377.88 1455.94 Q2376.08 1459.48 2376.08 1466.61 Q2376.08 1473.71 2377.88 1477.28 Q2379.71 1480.82 2383.32 1480.82 Q2386.96 1480.82 2388.76 1477.28 Q2390.59 1473.71 2390.59 1466.61 Q2390.59 1459.48 2388.76 1455.94 Q2386.96 1452.37 2383.32 1452.37 M2383.32 1448.67 Q2389.13 1448.67 2392.19 1453.27 Q2395.27 1457.86 2395.27 1466.61 Q2395.27 1475.33 2392.19 1479.94 Q2389.13 1484.52 2383.32 1484.52 Q2377.51 1484.52 2374.43 1479.94 Q2371.38 1475.33 2371.38 1466.61 Q2371.38 1457.86 2374.43 1453.27 Q2377.51 1448.67 2383.32 1448.67 Z" fill="#000000" fill-rule="evenodd" fill-opacity="1" /><path clip-path="url(#clip510)" d="M1359.88 1522.27 L1359.88 1532.4 L1371.95 1532.4 L1371.95 1536.95 L1359.88 1536.95 L1359.88 1556.3 Q1359.88 1560.66 1361.06 1561.9 Q1362.27 1563.14 1365.93 1563.14 L1371.95 1563.14 L1371.95 1568.04 L1365.93 1568.04 Q1359.15 1568.04 1356.57 1565.53 Q1353.99 1562.98 1353.99 1556.3 L1353.99 1536.95 L1349.7 1536.95 L1349.7 1532.4 L1353.99 1532.4 L1353.99 1522.27 L1359.88 1522.27 Z" fill="#000000" fill-rule="evenodd" fill-opacity="1" /><polyline clip-path="url(#clip512)" style="stroke:#000000; stroke-linecap:butt; stroke-linejoin:round; stroke-width:2; stroke-opacity:0.1; fill:none" points="
  368.886,1386.41 2352.76,1386.41 
  "/>
<polyline clip-path="url(#clip512)" style="stroke:#000000; stroke-linecap:butt; stroke-linejoin:round; stroke-width:2; stroke-opacity:0.1; fill:none" points="
  368.886,1190.77 2352.76,1190.77 
  "/>
<polyline clip-path="url(#clip512)" style="stroke:#000000; stroke-linecap:butt; stroke-linejoin:round; stroke-width:2; stroke-opacity:0.1; fill:none" points="
  368.886,995.125 2352.76,995.125 
  "/>
<polyline clip-path="url(#clip512)" style="stroke:#000000; stroke-linecap:butt; stroke-linejoin:round; stroke-width:2; stroke-opacity:0.1; fill:none" points="
  368.886,799.485 2352.76,799.485 
  "/>
<polyline clip-path="url(#clip512)" style="stroke:#000000; stroke-linecap:butt; stroke-linejoin:round; stroke-width:2; stroke-opacity:0.1; fill:none" points="
  368.886,603.845 2352.76,603.845 
  "/>
<polyline clip-path="url(#clip512)" style="stroke:#000000; stroke-linecap:butt; stroke-linejoin:round; stroke-width:2; stroke-opacity:0.1; fill:none" points="
  368.886,408.205 2352.76,408.205 
  "/>
<polyline clip-path="url(#clip512)" style="stroke:#000000; stroke-linecap:butt; stroke-linejoin:round; stroke-width:2; stroke-opacity:0.1; fill:none" points="
  368.886,212.565 2352.76,212.565 
  "/>
<polyline clip-path="url(#clip510)" style="stroke:#000000; stroke-linecap:butt; stroke-linejoin:round; stroke-width:4; stroke-opacity:1; fill:none" points="
  368.886,1423.18 368.886,123.472 
  "/>
<polyline clip-path="url(#clip510)" style="stroke:#000000; stroke-linecap:butt; stroke-linejoin:round; stroke-width:4; stroke-opacity:1; fill:none" points="
  368.886,1386.41 387.784,1386.41 
  "/>
<polyline clip-path="url(#clip510)" style="stroke:#000000; stroke-linecap:butt; stroke-linejoin:round; stroke-width:4; stroke-opacity:1; fill:none" points="
  368.886,1190.77 387.784,1190.77 
  "/>
<polyline clip-path="url(#clip510)" style="stroke:#000000; stroke-linecap:butt; stroke-linejoin:round; stroke-width:4; stroke-opacity:1; fill:none" points="
  368.886,995.125 387.784,995.125 
  "/>
<polyline clip-path="url(#clip510)" style="stroke:#000000; stroke-linecap:butt; stroke-linejoin:round; stroke-width:4; stroke-opacity:1; fill:none" points="
  368.886,799.485 387.784,799.485 
  "/>
<polyline clip-path="url(#clip510)" style="stroke:#000000; stroke-linecap:butt; stroke-linejoin:round; stroke-width:4; stroke-opacity:1; fill:none" points="
  368.886,603.845 387.784,603.845 
  "/>
<polyline clip-path="url(#clip510)" style="stroke:#000000; stroke-linecap:butt; stroke-linejoin:round; stroke-width:4; stroke-opacity:1; fill:none" points="
  368.886,408.205 387.784,408.205 
  "/>
<polyline clip-path="url(#clip510)" style="stroke:#000000; stroke-linecap:butt; stroke-linejoin:round; stroke-width:4; stroke-opacity:1; fill:none" points="
  368.886,212.565 387.784,212.565 
  "/>
<path clip-path="url(#clip510)" d="M320.942 1372.2 Q317.331 1372.2 315.502 1375.77 Q313.696 1379.31 313.696 1386.44 Q313.696 1393.55 315.502 1397.11 Q317.331 1400.65 320.942 1400.65 Q324.576 1400.65 326.381 1397.11 Q328.21 1393.55 328.21 1386.44 Q328.21 1379.31 326.381 1375.77 Q324.576 1372.2 320.942 1372.2 M320.942 1368.5 Q326.752 1368.5 329.807 1373.11 Q332.886 1377.69 332.886 1386.44 Q332.886 1395.17 329.807 1399.77 Q326.752 1404.36 320.942 1404.36 Q315.131 1404.36 312.053 1399.77 Q308.997 1395.17 308.997 1386.44 Q308.997 1377.69 312.053 1373.11 Q315.131 1368.5 320.942 1368.5 Z" fill="#000000" fill-rule="evenodd" fill-opacity="1" /><path clip-path="url(#clip510)" d="M121.043 1210.56 L137.362 1210.56 L137.362 1214.49 L115.418 1214.49 L115.418 1210.56 Q118.08 1207.8 122.663 1203.17 Q127.269 1198.52 128.45 1197.18 Q130.695 1194.66 131.575 1192.92 Q132.478 1191.16 132.478 1189.47 Q132.478 1186.72 130.533 1184.98 Q128.612 1183.24 125.51 1183.24 Q123.311 1183.24 120.857 1184.01 Q118.427 1184.77 115.649 1186.32 L115.649 1181.6 Q118.473 1180.47 120.927 1179.89 Q123.38 1179.31 125.418 1179.31 Q130.788 1179.31 133.982 1181.99 Q137.177 1184.68 137.177 1189.17 Q137.177 1191.3 136.367 1193.22 Q135.579 1195.12 133.473 1197.71 Q132.894 1198.38 129.792 1201.6 Q126.691 1204.79 121.043 1210.56 Z" fill="#000000" fill-rule="evenodd" fill-opacity="1" /><path clip-path="url(#clip510)" d="M147.177 1208.61 L152.061 1208.61 L152.061 1214.49 L147.177 1214.49 L147.177 1208.61 Z" fill="#000000" fill-rule="evenodd" fill-opacity="1" /><path clip-path="url(#clip510)" d="M172.246 1183.01 Q168.635 1183.01 166.806 1186.58 Q165.001 1190.12 165.001 1197.25 Q165.001 1204.35 166.806 1207.92 Q168.635 1211.46 172.246 1211.46 Q175.88 1211.46 177.686 1207.92 Q179.514 1204.35 179.514 1197.25 Q179.514 1190.12 177.686 1186.58 Q175.88 1183.01 172.246 1183.01 M172.246 1179.31 Q178.056 1179.31 181.112 1183.91 Q184.19 1188.5 184.19 1197.25 Q184.19 1205.97 181.112 1210.58 Q178.056 1215.16 172.246 1215.16 Q166.436 1215.16 163.357 1210.58 Q160.302 1205.97 160.302 1197.25 Q160.302 1188.5 163.357 1183.91 Q166.436 1179.31 172.246 1179.31 Z" fill="#000000" fill-rule="evenodd" fill-opacity="1" /><path clip-path="url(#clip510)" d="M202.408 1183.01 Q198.797 1183.01 196.968 1186.58 Q195.163 1190.12 195.163 1197.25 Q195.163 1204.35 196.968 1207.92 Q198.797 1211.46 202.408 1211.46 Q206.042 1211.46 207.848 1207.92 Q209.676 1204.35 209.676 1197.25 Q209.676 1190.12 207.848 1186.58 Q206.042 1183.01 202.408 1183.01 M202.408 1179.31 Q208.218 1179.31 211.274 1183.91 Q214.352 1188.5 214.352 1197.25 Q214.352 1205.97 211.274 1210.58 Q208.218 1215.16 202.408 1215.16 Q196.598 1215.16 193.519 1210.58 Q190.463 1205.97 190.463 1197.25 Q190.463 1188.5 193.519 1183.91 Q196.598 1179.31 202.408 1179.31 Z" fill="#000000" fill-rule="evenodd" fill-opacity="1" /><path clip-path="url(#clip510)" d="M250.741 1189.03 L240.162 1199.66 L250.741 1210.23 L247.986 1213.03 L237.361 1202.41 L226.736 1213.03 L224.005 1210.23 L234.56 1199.66 L224.005 1189.03 L226.736 1186.23 L237.361 1196.85 L247.986 1186.23 L250.741 1189.03 Z" fill="#000000" fill-rule="evenodd" fill-opacity="1" /><path clip-path="url(#clip510)" d="M263.102 1210.56 L270.741 1210.56 L270.741 1184.19 L262.431 1185.86 L262.431 1181.6 L270.695 1179.93 L275.37 1179.93 L275.37 1210.56 L283.009 1210.56 L283.009 1214.49 L263.102 1214.49 L263.102 1210.56 Z" fill="#000000" fill-rule="evenodd" fill-opacity="1" /><path clip-path="url(#clip510)" d="M302.454 1183.01 Q298.843 1183.01 297.014 1186.58 Q295.208 1190.12 295.208 1197.25 Q295.208 1204.35 297.014 1207.92 Q298.843 1211.46 302.454 1211.46 Q306.088 1211.46 307.893 1207.92 Q309.722 1204.35 309.722 1197.25 Q309.722 1190.12 307.893 1186.58 Q306.088 1183.01 302.454 1183.01 M302.454 1179.31 Q308.264 1179.31 311.319 1183.91 Q314.398 1188.5 314.398 1197.25 Q314.398 1205.97 311.319 1210.58 Q308.264 1215.16 302.454 1215.16 Q296.643 1215.16 293.565 1210.58 Q290.509 1205.97 290.509 1197.25 Q290.509 1188.5 293.565 1183.91 Q296.643 1179.31 302.454 1179.31 Z" fill="#000000" fill-rule="evenodd" fill-opacity="1" /><path clip-path="url(#clip510)" d="M327.093 1171.94 Q329.82 1172.53 331.344 1174.37 Q332.886 1176.21 332.886 1178.92 Q332.886 1183.08 330.027 1185.35 Q327.168 1187.63 321.902 1187.63 Q320.134 1187.63 318.254 1187.27 Q316.392 1186.93 314.398 1186.24 L314.398 1182.57 Q315.978 1183.49 317.859 1183.96 Q319.739 1184.43 321.789 1184.43 Q325.363 1184.43 327.225 1183.02 Q329.106 1181.61 329.106 1178.92 Q329.106 1176.44 327.357 1175.05 Q325.626 1173.63 322.523 1173.63 L319.25 1173.63 L319.25 1170.51 L322.673 1170.51 Q325.476 1170.51 326.962 1169.4 Q328.447 1168.27 328.447 1166.17 Q328.447 1164.01 326.905 1162.86 Q325.382 1161.69 322.523 1161.69 Q320.962 1161.69 319.175 1162.03 Q317.388 1162.37 315.244 1163.08 L315.244 1159.7 Q317.407 1159.1 319.288 1158.8 Q321.188 1158.49 322.861 1158.49 Q327.187 1158.49 329.707 1160.47 Q332.228 1162.43 332.228 1165.77 Q332.228 1168.11 330.892 1169.72 Q329.557 1171.32 327.093 1171.94 Z" fill="#000000" fill-rule="evenodd" fill-opacity="1" /><path clip-path="url(#clip510)" d="M129.862 988.367 L118.056 1006.82 L129.862 1006.82 L129.862 988.367 M128.635 984.293 L134.515 984.293 L134.515 1006.82 L139.445 1006.82 L139.445 1010.7 L134.515 1010.7 L134.515 1018.85 L129.862 1018.85 L129.862 1010.7 L114.26 1010.7 L114.26 1006.19 L128.635 984.293 Z" fill="#000000" fill-rule="evenodd" fill-opacity="1" /><path clip-path="url(#clip510)" d="M147.177 1012.97 L152.061 1012.97 L152.061 1018.85 L147.177 1018.85 L147.177 1012.97 Z" fill="#000000" fill-rule="evenodd" fill-opacity="1" /><path clip-path="url(#clip510)" d="M172.246 987.372 Q168.635 987.372 166.806 990.936 Q165.001 994.478 165.001 1001.61 Q165.001 1008.71 166.806 1012.28 Q168.635 1015.82 172.246 1015.82 Q175.88 1015.82 177.686 1012.28 Q179.514 1008.71 179.514 1001.61 Q179.514 994.478 177.686 990.936 Q175.88 987.372 172.246 987.372 M172.246 983.668 Q178.056 983.668 181.112 988.274 Q184.19 992.858 184.19 1001.61 Q184.19 1010.33 181.112 1014.94 Q178.056 1019.52 172.246 1019.52 Q166.436 1019.52 163.357 1014.94 Q160.302 1010.33 160.302 1001.61 Q160.302 992.858 163.357 988.274 Q166.436 983.668 172.246 983.668 Z" fill="#000000" fill-rule="evenodd" fill-opacity="1" /><path clip-path="url(#clip510)" d="M202.408 987.372 Q198.797 987.372 196.968 990.936 Q195.163 994.478 195.163 1001.61 Q195.163 1008.71 196.968 1012.28 Q198.797 1015.82 202.408 1015.82 Q206.042 1015.82 207.848 1012.28 Q209.676 1008.71 209.676 1001.61 Q209.676 994.478 207.848 990.936 Q206.042 987.372 202.408 987.372 M202.408 983.668 Q208.218 983.668 211.274 988.274 Q214.352 992.858 214.352 1001.61 Q214.352 1010.33 211.274 1014.94 Q208.218 1019.52 202.408 1019.52 Q196.598 1019.52 193.519 1014.94 Q190.463 1010.33 190.463 1001.61 Q190.463 992.858 193.519 988.274 Q196.598 983.668 202.408 983.668 Z" fill="#000000" fill-rule="evenodd" fill-opacity="1" /><path clip-path="url(#clip510)" d="M250.741 993.39 L240.162 1004.01 L250.741 1014.59 L247.986 1017.39 L237.361 1006.77 L226.736 1017.39 L224.005 1014.59 L234.56 1004.01 L224.005 993.39 L226.736 990.589 L237.361 1001.21 L247.986 990.589 L250.741 993.39 Z" fill="#000000" fill-rule="evenodd" fill-opacity="1" /><path clip-path="url(#clip510)" d="M263.102 1014.92 L270.741 1014.92 L270.741 988.552 L262.431 990.219 L262.431 985.959 L270.695 984.293 L275.37 984.293 L275.37 1014.92 L283.009 1014.92 L283.009 1018.85 L263.102 1018.85 L263.102 1014.92 Z" fill="#000000" fill-rule="evenodd" fill-opacity="1" /><path clip-path="url(#clip510)" d="M302.454 987.372 Q298.843 987.372 297.014 990.936 Q295.208 994.478 295.208 1001.61 Q295.208 1008.71 297.014 1012.28 Q298.843 1015.82 302.454 1015.82 Q306.088 1015.82 307.893 1012.28 Q309.722 1008.71 309.722 1001.61 Q309.722 994.478 307.893 990.936 Q306.088 987.372 302.454 987.372 M302.454 983.668 Q308.264 983.668 311.319 988.274 Q314.398 992.858 314.398 1001.61 Q314.398 1010.33 311.319 1014.94 Q308.264 1019.52 302.454 1019.52 Q296.643 1019.52 293.565 1014.94 Q290.509 1010.33 290.509 1001.61 Q290.509 992.858 293.565 988.274 Q296.643 983.668 302.454 983.668 Z" fill="#000000" fill-rule="evenodd" fill-opacity="1" /><path clip-path="url(#clip510)" d="M327.093 976.302 Q329.82 976.885 331.344 978.728 Q332.886 980.572 332.886 983.28 Q332.886 987.436 330.027 989.712 Q327.168 991.988 321.902 991.988 Q320.134 991.988 318.254 991.63 Q316.392 991.292 314.398 990.596 L314.398 986.929 Q315.978 987.85 317.859 988.32 Q319.739 988.791 321.789 988.791 Q325.363 988.791 327.225 987.38 Q329.106 985.969 329.106 983.28 Q329.106 980.797 327.357 979.405 Q325.626 977.995 322.523 977.995 L319.25 977.995 L319.25 974.873 L322.673 974.873 Q325.476 974.873 326.962 973.763 Q328.447 972.635 328.447 970.528 Q328.447 968.365 326.905 967.218 Q325.382 966.052 322.523 966.052 Q320.962 966.052 319.175 966.39 Q317.388 966.729 315.244 967.444 L315.244 964.058 Q317.407 963.456 319.288 963.156 Q321.188 962.855 322.861 962.855 Q327.187 962.855 329.707 964.829 Q332.228 966.785 332.228 970.133 Q332.228 972.465 330.892 974.083 Q329.557 975.682 327.093 976.302 Z" fill="#000000" fill-rule="evenodd" fill-opacity="1" /><path clip-path="url(#clip510)" d="M127.593 804.069 Q124.445 804.069 122.593 806.222 Q120.765 808.375 120.765 812.125 Q120.765 815.852 122.593 818.028 Q124.445 820.18 127.593 820.18 Q130.742 820.18 132.57 818.028 Q134.422 815.852 134.422 812.125 Q134.422 808.375 132.57 806.222 Q130.742 804.069 127.593 804.069 M136.876 789.417 L136.876 793.676 Q135.117 792.842 133.311 792.403 Q131.529 791.963 129.769 791.963 Q125.14 791.963 122.686 795.088 Q120.255 798.213 119.908 804.532 Q121.274 802.518 123.334 801.454 Q125.394 800.366 127.871 800.366 Q133.08 800.366 136.089 803.537 Q139.121 806.685 139.121 812.125 Q139.121 817.449 135.973 820.666 Q132.825 823.884 127.593 823.884 Q121.598 823.884 118.427 819.301 Q115.256 814.694 115.256 805.967 Q115.256 797.773 119.144 792.912 Q123.033 788.028 129.584 788.028 Q131.343 788.028 133.126 788.375 Q134.931 788.722 136.876 789.417 Z" fill="#000000" fill-rule="evenodd" fill-opacity="1" /><path clip-path="url(#clip510)" d="M147.177 817.333 L152.061 817.333 L152.061 823.213 L147.177 823.213 L147.177 817.333 Z" fill="#000000" fill-rule="evenodd" fill-opacity="1" /><path clip-path="url(#clip510)" d="M172.246 791.731 Q168.635 791.731 166.806 795.296 Q165.001 798.838 165.001 805.967 Q165.001 813.074 166.806 816.639 Q168.635 820.18 172.246 820.18 Q175.88 820.18 177.686 816.639 Q179.514 813.074 179.514 805.967 Q179.514 798.838 177.686 795.296 Q175.88 791.731 172.246 791.731 M172.246 788.028 Q178.056 788.028 181.112 792.634 Q184.19 797.217 184.19 805.967 Q184.19 814.694 181.112 819.301 Q178.056 823.884 172.246 823.884 Q166.436 823.884 163.357 819.301 Q160.302 814.694 160.302 805.967 Q160.302 797.217 163.357 792.634 Q166.436 788.028 172.246 788.028 Z" fill="#000000" fill-rule="evenodd" fill-opacity="1" /><path clip-path="url(#clip510)" d="M202.408 791.731 Q198.797 791.731 196.968 795.296 Q195.163 798.838 195.163 805.967 Q195.163 813.074 196.968 816.639 Q198.797 820.18 202.408 820.18 Q206.042 820.18 207.848 816.639 Q209.676 813.074 209.676 805.967 Q209.676 798.838 207.848 795.296 Q206.042 791.731 202.408 791.731 M202.408 788.028 Q208.218 788.028 211.274 792.634 Q214.352 797.217 214.352 805.967 Q214.352 814.694 211.274 819.301 Q208.218 823.884 202.408 823.884 Q196.598 823.884 193.519 819.301 Q190.463 814.694 190.463 805.967 Q190.463 797.217 193.519 792.634 Q196.598 788.028 202.408 788.028 Z" fill="#000000" fill-rule="evenodd" fill-opacity="1" /><path clip-path="url(#clip510)" d="M250.741 797.75 L240.162 808.375 L250.741 818.953 L247.986 821.754 L237.361 811.129 L226.736 821.754 L224.005 818.953 L234.56 808.375 L224.005 797.75 L226.736 794.949 L237.361 805.574 L247.986 794.949 L250.741 797.75 Z" fill="#000000" fill-rule="evenodd" fill-opacity="1" /><path clip-path="url(#clip510)" d="M263.102 819.278 L270.741 819.278 L270.741 792.912 L262.431 794.579 L262.431 790.319 L270.695 788.653 L275.37 788.653 L275.37 819.278 L283.009 819.278 L283.009 823.213 L263.102 823.213 L263.102 819.278 Z" fill="#000000" fill-rule="evenodd" fill-opacity="1" /><path clip-path="url(#clip510)" d="M302.454 791.731 Q298.843 791.731 297.014 795.296 Q295.208 798.838 295.208 805.967 Q295.208 813.074 297.014 816.639 Q298.843 820.18 302.454 820.18 Q306.088 820.18 307.893 816.639 Q309.722 813.074 309.722 805.967 Q309.722 798.838 307.893 795.296 Q306.088 791.731 302.454 791.731 M302.454 788.028 Q308.264 788.028 311.319 792.634 Q314.398 797.217 314.398 805.967 Q314.398 814.694 311.319 819.301 Q308.264 823.884 302.454 823.884 Q296.643 823.884 293.565 819.301 Q290.509 814.694 290.509 805.967 Q290.509 797.217 293.565 792.634 Q296.643 788.028 302.454 788.028 Z" fill="#000000" fill-rule="evenodd" fill-opacity="1" /><path clip-path="url(#clip510)" d="M327.093 780.662 Q329.82 781.245 331.344 783.088 Q332.886 784.931 332.886 787.64 Q332.886 791.796 330.027 794.072 Q327.168 796.348 321.902 796.348 Q320.134 796.348 318.254 795.99 Q316.392 795.652 314.398 794.956 L314.398 791.288 Q315.978 792.21 317.859 792.68 Q319.739 793.15 321.789 793.15 Q325.363 793.15 327.225 791.74 Q329.106 790.329 329.106 787.64 Q329.106 785.157 327.357 783.765 Q325.626 782.355 322.523 782.355 L319.25 782.355 L319.25 779.233 L322.673 779.233 Q325.476 779.233 326.962 778.123 Q328.447 776.995 328.447 774.888 Q328.447 772.725 326.905 771.578 Q325.382 770.412 322.523 770.412 Q320.962 770.412 319.175 770.75 Q317.388 771.089 315.244 771.804 L315.244 768.418 Q317.407 767.816 319.288 767.515 Q321.188 767.214 322.861 767.214 Q327.187 767.214 329.707 769.189 Q332.228 771.145 332.228 774.493 Q332.228 776.825 330.892 778.443 Q329.557 780.041 327.093 780.662 Z" fill="#000000" fill-rule="evenodd" fill-opacity="1" /><path clip-path="url(#clip510)" d="M127.015 611.161 Q123.681 611.161 121.76 612.943 Q119.862 614.725 119.862 617.85 Q119.862 620.975 121.76 622.758 Q123.681 624.54 127.015 624.54 Q130.348 624.54 132.269 622.758 Q134.191 620.952 134.191 617.85 Q134.191 614.725 132.269 612.943 Q130.371 611.161 127.015 611.161 M122.339 609.17 Q119.33 608.429 117.64 606.369 Q115.973 604.309 115.973 601.346 Q115.973 597.202 118.913 594.795 Q121.876 592.388 127.015 592.388 Q132.177 592.388 135.117 594.795 Q138.056 597.202 138.056 601.346 Q138.056 604.309 136.367 606.369 Q134.7 608.429 131.714 609.17 Q135.093 609.957 136.968 612.249 Q138.867 614.54 138.867 617.85 Q138.867 622.874 135.788 625.559 Q132.732 628.244 127.015 628.244 Q121.297 628.244 118.218 625.559 Q115.163 622.874 115.163 617.85 Q115.163 614.54 117.061 612.249 Q118.959 609.957 122.339 609.17 M120.626 601.786 Q120.626 604.471 122.293 605.975 Q123.982 607.48 127.015 607.48 Q130.024 607.48 131.714 605.975 Q133.427 604.471 133.427 601.786 Q133.427 599.101 131.714 597.596 Q130.024 596.091 127.015 596.091 Q123.982 596.091 122.293 597.596 Q120.626 599.101 120.626 601.786 Z" fill="#000000" fill-rule="evenodd" fill-opacity="1" /><path clip-path="url(#clip510)" d="M147.177 621.693 L152.061 621.693 L152.061 627.573 L147.177 627.573 L147.177 621.693 Z" fill="#000000" fill-rule="evenodd" fill-opacity="1" /><path clip-path="url(#clip510)" d="M172.246 596.091 Q168.635 596.091 166.806 599.656 Q165.001 603.198 165.001 610.327 Q165.001 617.434 166.806 620.999 Q168.635 624.54 172.246 624.54 Q175.88 624.54 177.686 620.999 Q179.514 617.434 179.514 610.327 Q179.514 603.198 177.686 599.656 Q175.88 596.091 172.246 596.091 M172.246 592.388 Q178.056 592.388 181.112 596.994 Q184.19 601.577 184.19 610.327 Q184.19 619.054 181.112 623.661 Q178.056 628.244 172.246 628.244 Q166.436 628.244 163.357 623.661 Q160.302 619.054 160.302 610.327 Q160.302 601.577 163.357 596.994 Q166.436 592.388 172.246 592.388 Z" fill="#000000" fill-rule="evenodd" fill-opacity="1" /><path clip-path="url(#clip510)" d="M202.408 596.091 Q198.797 596.091 196.968 599.656 Q195.163 603.198 195.163 610.327 Q195.163 617.434 196.968 620.999 Q198.797 624.54 202.408 624.54 Q206.042 624.54 207.848 620.999 Q209.676 617.434 209.676 610.327 Q209.676 603.198 207.848 599.656 Q206.042 596.091 202.408 596.091 M202.408 592.388 Q208.218 592.388 211.274 596.994 Q214.352 601.577 214.352 610.327 Q214.352 619.054 211.274 623.661 Q208.218 628.244 202.408 628.244 Q196.598 628.244 193.519 623.661 Q190.463 619.054 190.463 610.327 Q190.463 601.577 193.519 596.994 Q196.598 592.388 202.408 592.388 Z" fill="#000000" fill-rule="evenodd" fill-opacity="1" /><path clip-path="url(#clip510)" d="M250.741 602.11 L240.162 612.735 L250.741 623.313 L247.986 626.114 L237.361 615.489 L226.736 626.114 L224.005 623.313 L234.56 612.735 L224.005 602.11 L226.736 599.309 L237.361 609.934 L247.986 599.309 L250.741 602.11 Z" fill="#000000" fill-rule="evenodd" fill-opacity="1" /><path clip-path="url(#clip510)" d="M263.102 623.637 L270.741 623.637 L270.741 597.272 L262.431 598.938 L262.431 594.679 L270.695 593.013 L275.37 593.013 L275.37 623.637 L283.009 623.637 L283.009 627.573 L263.102 627.573 L263.102 623.637 Z" fill="#000000" fill-rule="evenodd" fill-opacity="1" /><path clip-path="url(#clip510)" d="M302.454 596.091 Q298.843 596.091 297.014 599.656 Q295.208 603.198 295.208 610.327 Q295.208 617.434 297.014 620.999 Q298.843 624.54 302.454 624.54 Q306.088 624.54 307.893 620.999 Q309.722 617.434 309.722 610.327 Q309.722 603.198 307.893 599.656 Q306.088 596.091 302.454 596.091 M302.454 592.388 Q308.264 592.388 311.319 596.994 Q314.398 601.577 314.398 610.327 Q314.398 619.054 311.319 623.661 Q308.264 628.244 302.454 628.244 Q296.643 628.244 293.565 623.661 Q290.509 619.054 290.509 610.327 Q290.509 601.577 293.565 596.994 Q296.643 592.388 302.454 592.388 Z" fill="#000000" fill-rule="evenodd" fill-opacity="1" /><path clip-path="url(#clip510)" d="M327.093 585.022 Q329.82 585.605 331.344 587.448 Q332.886 589.291 332.886 592 Q332.886 596.156 330.027 598.432 Q327.168 600.708 321.902 600.708 Q320.134 600.708 318.254 600.35 Q316.392 600.012 314.398 599.316 L314.398 595.648 Q315.978 596.57 317.859 597.04 Q319.739 597.51 321.789 597.51 Q325.363 597.51 327.225 596.1 Q329.106 594.689 329.106 592 Q329.106 589.517 327.357 588.125 Q325.626 586.715 322.523 586.715 L319.25 586.715 L319.25 583.593 L322.673 583.593 Q325.476 583.593 326.962 582.483 Q328.447 581.354 328.447 579.248 Q328.447 577.085 326.905 575.938 Q325.382 574.772 322.523 574.772 Q320.962 574.772 319.175 575.11 Q317.388 575.449 315.244 576.163 L315.244 572.778 Q317.407 572.176 319.288 571.875 Q321.188 571.574 322.861 571.574 Q327.187 571.574 329.707 573.549 Q332.228 575.505 332.228 578.853 Q332.228 581.185 330.892 582.803 Q329.557 584.401 327.093 585.022 Z" fill="#000000" fill-rule="evenodd" fill-opacity="1" /><path clip-path="url(#clip510)" d="M115.85 427.997 L123.489 427.997 L123.489 401.632 L115.179 403.298 L115.179 399.039 L123.443 397.372 L128.119 397.372 L128.119 427.997 L135.757 427.997 L135.757 431.932 L115.85 431.932 L115.85 427.997 Z" fill="#000000" fill-rule="evenodd" fill-opacity="1" /><path clip-path="url(#clip510)" d="M145.202 426.053 L150.086 426.053 L150.086 431.932 L145.202 431.932 L145.202 426.053 Z" fill="#000000" fill-rule="evenodd" fill-opacity="1" /><path clip-path="url(#clip510)" d="M170.271 400.451 Q166.66 400.451 164.831 404.016 Q163.026 407.558 163.026 414.687 Q163.026 421.794 164.831 425.358 Q166.66 428.9 170.271 428.9 Q173.905 428.9 175.711 425.358 Q177.54 421.794 177.54 414.687 Q177.54 407.558 175.711 404.016 Q173.905 400.451 170.271 400.451 M170.271 396.747 Q176.081 396.747 179.137 401.354 Q182.216 405.937 182.216 414.687 Q182.216 423.414 179.137 428.02 Q176.081 432.604 170.271 432.604 Q164.461 432.604 161.382 428.02 Q158.327 423.414 158.327 414.687 Q158.327 405.937 161.382 401.354 Q164.461 396.747 170.271 396.747 Z" fill="#000000" fill-rule="evenodd" fill-opacity="1" /><path clip-path="url(#clip510)" d="M200.433 400.451 Q196.822 400.451 194.993 404.016 Q193.188 407.558 193.188 414.687 Q193.188 421.794 194.993 425.358 Q196.822 428.9 200.433 428.9 Q204.067 428.9 205.873 425.358 Q207.701 421.794 207.701 414.687 Q207.701 407.558 205.873 404.016 Q204.067 400.451 200.433 400.451 M200.433 396.747 Q206.243 396.747 209.299 401.354 Q212.377 405.937 212.377 414.687 Q212.377 423.414 209.299 428.02 Q206.243 432.604 200.433 432.604 Q194.623 432.604 191.544 428.02 Q188.489 423.414 188.489 414.687 Q188.489 405.937 191.544 401.354 Q194.623 396.747 200.433 396.747 Z" fill="#000000" fill-rule="evenodd" fill-opacity="1" /><path clip-path="url(#clip510)" d="M248.766 406.47 L238.187 417.095 L248.766 427.673 L246.011 430.474 L235.387 419.849 L224.762 430.474 L222.03 427.673 L232.586 417.095 L222.03 406.47 L224.762 403.669 L235.387 414.294 L246.011 403.669 L248.766 406.47 Z" fill="#000000" fill-rule="evenodd" fill-opacity="1" /><path clip-path="url(#clip510)" d="M261.127 427.997 L268.766 427.997 L268.766 401.632 L260.456 403.298 L260.456 399.039 L268.72 397.372 L273.396 397.372 L273.396 427.997 L281.034 427.997 L281.034 431.932 L261.127 431.932 L261.127 427.997 Z" fill="#000000" fill-rule="evenodd" fill-opacity="1" /><path clip-path="url(#clip510)" d="M300.479 400.451 Q296.868 400.451 295.039 404.016 Q293.233 407.558 293.233 414.687 Q293.233 421.794 295.039 425.358 Q296.868 428.9 300.479 428.9 Q304.113 428.9 305.919 425.358 Q307.747 421.794 307.747 414.687 Q307.747 407.558 305.919 404.016 Q304.113 400.451 300.479 400.451 M300.479 396.747 Q306.289 396.747 309.344 401.354 Q312.423 405.937 312.423 414.687 Q312.423 423.414 309.344 428.02 Q306.289 432.604 300.479 432.604 Q294.669 432.604 291.59 428.02 Q288.534 423.414 288.534 414.687 Q288.534 405.937 291.59 401.354 Q294.669 396.747 300.479 396.747 Z" fill="#000000" fill-rule="evenodd" fill-opacity="1" /><path clip-path="url(#clip510)" d="M325.1 379.752 L315.508 394.742 L325.1 394.742 L325.1 379.752 M324.103 376.442 L328.88 376.442 L328.88 394.742 L332.886 394.742 L332.886 397.902 L328.88 397.902 L328.88 404.522 L325.1 404.522 L325.1 397.902 L312.423 397.902 L312.423 394.234 L324.103 376.442 Z" fill="#000000" fill-rule="evenodd" fill-opacity="1" /><path clip-path="url(#clip510)" d="M115.85 232.357 L123.489 232.357 L123.489 205.992 L115.179 207.658 L115.179 203.399 L123.443 201.732 L128.119 201.732 L128.119 232.357 L135.757 232.357 L135.757 236.292 L115.85 236.292 L115.85 232.357 Z" fill="#000000" fill-rule="evenodd" fill-opacity="1" /><path clip-path="url(#clip510)" d="M145.202 230.413 L150.086 230.413 L150.086 236.292 L145.202 236.292 L145.202 230.413 Z" fill="#000000" fill-rule="evenodd" fill-opacity="1" /><path clip-path="url(#clip510)" d="M164.299 232.357 L180.618 232.357 L180.618 236.292 L158.674 236.292 L158.674 232.357 Q161.336 229.603 165.919 224.973 Q170.526 220.32 171.706 218.978 Q173.952 216.455 174.831 214.718 Q175.734 212.959 175.734 211.269 Q175.734 208.515 173.79 206.779 Q171.868 205.043 168.767 205.043 Q166.567 205.043 164.114 205.806 Q161.683 206.57 158.905 208.121 L158.905 203.399 Q161.73 202.265 164.183 201.686 Q166.637 201.107 168.674 201.107 Q174.044 201.107 177.239 203.793 Q180.433 206.478 180.433 210.968 Q180.433 213.098 179.623 215.019 Q178.836 216.917 176.729 219.51 Q176.151 220.181 173.049 223.399 Q169.947 226.593 164.299 232.357 Z" fill="#000000" fill-rule="evenodd" fill-opacity="1" /><path clip-path="url(#clip510)" d="M200.433 204.811 Q196.822 204.811 194.993 208.376 Q193.188 211.917 193.188 219.047 Q193.188 226.154 194.993 229.718 Q196.822 233.26 200.433 233.26 Q204.067 233.26 205.873 229.718 Q207.701 226.154 207.701 219.047 Q207.701 211.917 205.873 208.376 Q204.067 204.811 200.433 204.811 M200.433 201.107 Q206.243 201.107 209.299 205.714 Q212.377 210.297 212.377 219.047 Q212.377 227.774 209.299 232.38 Q206.243 236.964 200.433 236.964 Q194.623 236.964 191.544 232.38 Q188.489 227.774 188.489 219.047 Q188.489 210.297 191.544 205.714 Q194.623 201.107 200.433 201.107 Z" fill="#000000" fill-rule="evenodd" fill-opacity="1" /><path clip-path="url(#clip510)" d="M248.766 210.83 L238.187 221.454 L248.766 232.033 L246.011 234.834 L235.387 224.209 L224.762 234.834 L222.03 232.033 L232.586 221.454 L222.03 210.83 L224.762 208.029 L235.387 218.654 L246.011 208.029 L248.766 210.83 Z" fill="#000000" fill-rule="evenodd" fill-opacity="1" /><path clip-path="url(#clip510)" d="M261.127 232.357 L268.766 232.357 L268.766 205.992 L260.456 207.658 L260.456 203.399 L268.72 201.732 L273.396 201.732 L273.396 232.357 L281.034 232.357 L281.034 236.292 L261.127 236.292 L261.127 232.357 Z" fill="#000000" fill-rule="evenodd" fill-opacity="1" /><path clip-path="url(#clip510)" d="M300.479 204.811 Q296.868 204.811 295.039 208.376 Q293.233 211.917 293.233 219.047 Q293.233 226.154 295.039 229.718 Q296.868 233.26 300.479 233.26 Q304.113 233.26 305.919 229.718 Q307.747 226.154 307.747 219.047 Q307.747 211.917 305.919 208.376 Q304.113 204.811 300.479 204.811 M300.479 201.107 Q306.289 201.107 309.344 205.714 Q312.423 210.297 312.423 219.047 Q312.423 227.774 309.344 232.38 Q306.289 236.964 300.479 236.964 Q294.669 236.964 291.59 232.38 Q288.534 227.774 288.534 219.047 Q288.534 210.297 291.59 205.714 Q294.669 201.107 300.479 201.107 Z" fill="#000000" fill-rule="evenodd" fill-opacity="1" /><path clip-path="url(#clip510)" d="M325.1 184.112 L315.508 199.102 L325.1 199.102 L325.1 184.112 M324.103 180.802 L328.88 180.802 L328.88 199.102 L332.886 199.102 L332.886 202.262 L328.88 202.262 L328.88 208.882 L325.1 208.882 L325.1 202.262 L312.423 202.262 L312.423 198.594 L324.103 180.802 Z" fill="#000000" fill-rule="evenodd" fill-opacity="1" /><path clip-path="url(#clip510)" d="M58.657 873.22 L77.5631 873.22 L77.5631 879.108 L28.3562 879.108 L28.3562 873.22 L33.7671 873.22 Q30.5842 871.374 29.0564 868.573 Q27.4968 865.74 27.4968 861.825 Q27.4968 855.332 32.6531 851.29 Q37.8093 847.216 46.212 847.216 Q54.6147 847.216 59.771 851.29 Q64.9272 855.332 64.9272 861.825 Q64.9272 865.74 63.3994 868.573 Q61.8398 871.374 58.657 873.22 M46.212 853.295 Q39.7508 853.295 36.0905 855.969 Q32.3984 858.611 32.3984 863.258 Q32.3984 867.904 36.0905 870.578 Q39.7508 873.22 46.212 873.22 Q52.6732 873.22 56.3653 870.578 Q60.0256 867.904 60.0256 863.258 Q60.0256 858.611 56.3653 855.969 Q52.6732 853.295 46.212 853.295 Z" fill="#000000" fill-rule="evenodd" fill-opacity="1" /><path clip-path="url(#clip510)" d="M44.7161 807.016 L47.5806 807.016 L47.5806 833.943 Q53.6281 833.561 56.8109 830.315 Q59.9619 827.037 59.9619 821.212 Q59.9619 817.838 59.1344 814.687 Q58.3069 811.504 56.6518 808.385 L62.1899 808.385 Q63.5267 811.536 64.227 814.846 Q64.9272 818.156 64.9272 821.562 Q64.9272 830.092 59.9619 835.089 Q54.9967 840.055 46.5303 840.055 Q37.7774 840.055 32.6531 835.344 Q27.4968 830.601 27.4968 822.581 Q27.4968 815.387 32.1438 811.218 Q36.7589 807.016 44.7161 807.016 M42.9973 812.873 Q38.1912 812.937 35.3266 815.578 Q32.4621 818.188 32.4621 822.517 Q32.4621 827.419 35.2312 830.379 Q38.0002 833.307 43.0292 833.752 L42.9973 812.873 Z" fill="#000000" fill-rule="evenodd" fill-opacity="1" /><path clip-path="url(#clip510)" d="M32.4621 783.591 Q32.4621 788.301 36.1542 791.039 Q39.8145 793.776 46.212 793.776 Q52.6095 793.776 56.3017 791.07 Q59.9619 788.333 59.9619 783.591 Q59.9619 778.912 56.2698 776.175 Q52.5777 773.437 46.212 773.437 Q39.8781 773.437 36.186 776.175 Q32.4621 778.912 32.4621 783.591 M27.4968 783.591 Q27.4968 775.952 32.4621 771.591 Q37.4273 767.231 46.212 767.231 Q54.9649 767.231 59.9619 771.591 Q64.9272 775.952 64.9272 783.591 Q64.9272 791.261 59.9619 795.622 Q54.9649 799.951 46.212 799.951 Q37.4273 799.951 32.4621 795.622 Q27.4968 791.261 27.4968 783.591 Z" fill="#000000" fill-rule="evenodd" fill-opacity="1" /><path clip-path="url(#clip510)" d="M58.657 751.858 L77.5631 751.858 L77.5631 757.746 L28.3562 757.746 L28.3562 751.858 L33.7671 751.858 Q30.5842 750.012 29.0564 747.211 Q27.4968 744.378 27.4968 740.463 Q27.4968 733.97 32.6531 729.928 Q37.8093 725.854 46.212 725.854 Q54.6147 725.854 59.771 729.928 Q64.9272 733.97 64.9272 740.463 Q64.9272 744.378 63.3994 747.211 Q61.8398 750.012 58.657 751.858 M46.212 731.933 Q39.7508 731.933 36.0905 734.607 Q32.3984 737.248 32.3984 741.895 Q32.3984 746.542 36.0905 749.216 Q39.7508 751.858 46.212 751.858 Q52.6732 751.858 56.3653 749.216 Q60.0256 746.542 60.0256 741.895 Q60.0256 737.248 56.3653 734.607 Q52.6732 731.933 46.212 731.933 Z" fill="#000000" fill-rule="evenodd" fill-opacity="1" /><path clip-path="url(#clip510)" d="M14.479 716.146 L14.479 710.29 L64.0042 710.29 L64.0042 716.146 L14.479 716.146 Z" fill="#000000" fill-rule="evenodd" fill-opacity="1" /><path clip-path="url(#clip510)" d="M44.7161 667.544 L47.5806 667.544 L47.5806 694.471 Q53.6281 694.089 56.8109 690.842 Q59.9619 687.564 59.9619 681.739 Q59.9619 678.366 59.1344 675.215 Q58.3069 672.032 56.6518 668.912 L62.1899 668.912 Q63.5267 672.064 64.227 675.374 Q64.9272 678.684 64.9272 682.089 Q64.9272 690.62 59.9619 695.617 Q54.9967 700.582 46.5303 700.582 Q37.7774 700.582 32.6531 695.871 Q27.4968 691.129 27.4968 683.108 Q27.4968 675.915 32.1438 671.745 Q36.7589 667.544 44.7161 667.544 M42.9973 673.4 Q38.1912 673.464 35.3266 676.106 Q32.4621 678.716 32.4621 683.044 Q32.4621 687.946 35.2312 690.906 Q38.0002 693.834 43.0292 694.28 L42.9973 673.4 Z" fill="#000000" fill-rule="evenodd" fill-opacity="1" /><path clip-path="url(#clip510)" d="M1188.68 16.7545 L1188.68 25.383 Q1184.55 21.5346 1179.85 19.6307 Q1175.19 17.7268 1169.92 17.7268 Q1159.55 17.7268 1154.04 24.0867 Q1148.53 30.4061 1148.53 42.3968 Q1148.53 54.3469 1154.04 60.7069 Q1159.55 67.0263 1169.92 67.0263 Q1175.19 67.0263 1179.85 65.1223 Q1184.55 63.2184 1188.68 59.3701 L1188.68 67.9175 Q1184.38 70.8341 1179.56 72.2924 Q1174.78 73.7508 1169.44 73.7508 Q1155.7 73.7508 1147.8 65.3654 Q1139.9 56.9395 1139.9 42.3968 Q1139.9 27.8135 1147.8 19.4281 Q1155.7 11.0023 1169.44 11.0023 Q1174.86 11.0023 1179.64 12.4606 Q1184.46 13.8784 1188.68 16.7545 Z" fill="#000000" fill-rule="evenodd" fill-opacity="1" /><path clip-path="url(#clip510)" d="M1200.22 54.671 L1200.22 27.2059 L1207.68 27.2059 L1207.68 54.3874 Q1207.68 60.8284 1210.19 64.0691 Q1212.7 67.2693 1217.72 67.2693 Q1223.76 67.2693 1227.24 63.421 Q1230.77 59.5726 1230.77 52.9291 L1230.77 27.2059 L1238.22 27.2059 L1238.22 72.576 L1230.77 72.576 L1230.77 65.6084 Q1228.05 69.7404 1224.45 71.7658 Q1220.88 73.7508 1216.14 73.7508 Q1208.32 73.7508 1204.27 68.8897 Q1200.22 64.0286 1200.22 54.671 M1218.98 26.1121 L1218.98 26.1121 Z" fill="#000000" fill-rule="evenodd" fill-opacity="1" /><path clip-path="url(#clip510)" d="M1288.9 35.9153 Q1291.69 30.8922 1295.58 28.5022 Q1299.47 26.1121 1304.74 26.1121 Q1311.83 26.1121 1315.67 31.0947 Q1319.52 36.0368 1319.52 45.1919 L1319.52 72.576 L1312.03 72.576 L1312.03 45.4349 Q1312.03 38.913 1309.72 35.7533 Q1307.41 32.5936 1302.67 32.5936 Q1296.88 32.5936 1293.52 36.4419 Q1290.15 40.2903 1290.15 46.9338 L1290.15 72.576 L1282.66 72.576 L1282.66 45.4349 Q1282.66 38.8725 1280.35 35.7533 Q1278.04 32.5936 1273.22 32.5936 Q1267.51 32.5936 1264.15 36.4824 Q1260.78 40.3308 1260.78 46.9338 L1260.78 72.576 L1253.29 72.576 L1253.29 27.2059 L1260.78 27.2059 L1260.78 34.2544 Q1263.34 30.082 1266.9 28.0971 Q1270.47 26.1121 1275.37 26.1121 Q1280.31 26.1121 1283.75 28.6237 Q1287.24 31.1352 1288.9 35.9153 Z" fill="#000000" fill-rule="evenodd" fill-opacity="1" /><path clip-path="url(#clip510)" d="M1333.62 54.671 L1333.62 27.2059 L1341.07 27.2059 L1341.07 54.3874 Q1341.07 60.8284 1343.58 64.0691 Q1346.1 67.2693 1351.12 67.2693 Q1357.15 67.2693 1360.64 63.421 Q1364.16 59.5726 1364.16 52.9291 L1364.16 27.2059 L1371.62 27.2059 L1371.62 72.576 L1364.16 72.576 L1364.16 65.6084 Q1361.45 69.7404 1357.84 71.7658 Q1354.28 73.7508 1349.54 73.7508 Q1341.72 73.7508 1337.67 68.8897 Q1333.62 64.0286 1333.62 54.671 M1352.37 26.1121 L1352.37 26.1121 Z" fill="#000000" fill-rule="evenodd" fill-opacity="1" /><path clip-path="url(#clip510)" d="M1386.97 9.54393 L1394.42 9.54393 L1394.42 72.576 L1386.97 72.576 L1386.97 9.54393 Z" fill="#000000" fill-rule="evenodd" fill-opacity="1" /><path clip-path="url(#clip510)" d="M1430.64 49.7694 Q1421.6 49.7694 1418.12 51.8354 Q1414.64 53.9013 1414.64 58.8839 Q1414.64 62.8538 1417.23 65.2034 Q1419.86 67.5124 1424.36 67.5124 Q1430.56 67.5124 1434.28 63.1374 Q1438.05 58.7219 1438.05 51.4303 L1438.05 49.7694 L1430.64 49.7694 M1445.51 46.6907 L1445.51 72.576 L1438.05 72.576 L1438.05 65.6895 Q1435.5 69.8214 1431.69 71.8063 Q1427.88 73.7508 1422.37 73.7508 Q1415.41 73.7508 1411.27 69.8619 Q1407.18 65.9325 1407.18 59.3701 Q1407.18 51.7138 1412.29 47.825 Q1417.43 43.9361 1427.6 43.9361 L1438.05 43.9361 L1438.05 43.2069 Q1438.05 38.0623 1434.65 35.2672 Q1431.29 32.4315 1425.17 32.4315 Q1421.28 32.4315 1417.59 33.3632 Q1413.91 34.295 1410.51 36.1584 L1410.51 29.2718 Q1414.6 27.692 1418.45 26.9223 Q1422.29 26.1121 1425.94 26.1121 Q1435.78 26.1121 1440.64 31.2163 Q1445.51 36.3204 1445.51 46.6907 Z" fill="#000000" fill-rule="evenodd" fill-opacity="1" /><path clip-path="url(#clip510)" d="M1468.23 14.324 L1468.23 27.2059 L1483.58 27.2059 L1483.58 32.9987 L1468.23 32.9987 L1468.23 57.6282 Q1468.23 63.1779 1469.73 64.7578 Q1471.27 66.3376 1475.93 66.3376 L1483.58 66.3376 L1483.58 72.576 L1475.93 72.576 Q1467.3 72.576 1464.02 69.3758 Q1460.74 66.1351 1460.74 57.6282 L1460.74 32.9987 L1455.27 32.9987 L1455.27 27.2059 L1460.74 27.2059 L1460.74 14.324 L1468.23 14.324 Z" fill="#000000" fill-rule="evenodd" fill-opacity="1" /><path clip-path="url(#clip510)" d="M1532.19 48.0275 L1532.19 51.6733 L1497.92 51.6733 Q1498.41 59.3701 1502.54 63.421 Q1506.71 67.4314 1514.13 67.4314 Q1518.42 67.4314 1522.43 66.3781 Q1526.48 65.3249 1530.45 63.2184 L1530.45 70.267 Q1526.44 71.9684 1522.23 72.8596 Q1518.02 73.7508 1513.68 73.7508 Q1502.83 73.7508 1496.47 67.4314 Q1490.15 61.1119 1490.15 50.3365 Q1490.15 39.1965 1496.14 32.6746 Q1502.18 26.1121 1512.39 26.1121 Q1521.54 26.1121 1526.85 32.0264 Q1532.19 37.9003 1532.19 48.0275 M1524.74 45.84 Q1524.66 39.7232 1521.3 36.0774 Q1517.98 32.4315 1512.47 32.4315 Q1506.23 32.4315 1502.46 35.9558 Q1498.73 39.4801 1498.17 45.8805 L1524.74 45.84 Z" fill="#000000" fill-rule="evenodd" fill-opacity="1" /><path clip-path="url(#clip510)" d="M1574.28 34.0924 L1574.28 9.54393 L1581.74 9.54393 L1581.74 72.576 L1574.28 72.576 L1574.28 65.7705 Q1571.93 69.8214 1568.33 71.8063 Q1564.76 73.7508 1559.74 73.7508 Q1551.52 73.7508 1546.33 67.1883 Q1541.19 60.6258 1541.19 49.9314 Q1541.19 39.2371 1546.33 32.6746 Q1551.52 26.1121 1559.74 26.1121 Q1564.76 26.1121 1568.33 28.0971 Q1571.93 30.0415 1574.28 34.0924 M1548.88 49.9314 Q1548.88 58.1548 1552.25 62.8538 Q1555.65 67.5124 1561.56 67.5124 Q1567.48 67.5124 1570.88 62.8538 Q1574.28 58.1548 1574.28 49.9314 Q1574.28 41.7081 1570.88 37.0496 Q1567.48 32.3505 1561.56 32.3505 Q1555.65 32.3505 1552.25 37.0496 Q1548.88 41.7081 1548.88 49.9314 Z" fill="#000000" fill-rule="evenodd" fill-opacity="1" /><polyline clip-path="url(#clip512)" style="stroke:#009af9; stroke-linecap:butt; stroke-linejoin:round; stroke-width:4; stroke-opacity:1; fill:none" points="
  368.886,1386.4 373.846,1385.87 378.805,1385.3 383.765,1384.67 388.725,1383.99 393.684,1383.25 398.644,1382.44 403.604,1381.58 408.563,1380.64 413.523,1379.62 
  418.483,1378.53 423.442,1377.35 428.402,1376.08 433.362,1374.71 438.321,1373.26 443.281,1371.7 448.241,1370.03 453.2,1368.27 458.16,1366.4 463.12,1364.41 
  468.08,1362.31 473.039,1360.08 477.999,1357.74 482.959,1355.29 487.918,1352.71 492.878,1350.01 497.838,1347.18 502.797,1344.22 507.757,1341.13 512.717,1337.9 
  517.676,1334.5 522.636,1330.93 527.596,1327.19 532.555,1323.26 537.515,1319.14 542.475,1314.84 547.434,1310.34 552.394,1305.64 557.354,1300.72 562.313,1295.59 
  567.273,1290.25 572.233,1284.71 577.192,1279 582.152,1273.18 587.112,1267.28 592.071,1261.29 597.031,1255.22 601.991,1249.08 606.95,1242.87 611.91,1236.62 
  616.87,1230.35 621.829,1224.07 626.789,1217.8 631.749,1211.57 636.708,1205.36 641.668,1199.21 646.628,1193.11 651.587,1187.08 656.547,1181.11 661.507,1175.22 
  666.466,1169.4 671.426,1163.66 676.386,1158.03 681.346,1152.5 686.305,1147.08 691.265,1141.78 696.225,1136.59 701.184,1131.54 706.144,1126.63 711.104,1121.86 
  716.063,1117.2 721.023,1112.63 725.983,1108.23 730.942,1103.99 735.902,1099.92 740.862,1096.01 745.821,1092.26 750.781,1088.67 755.741,1085.24 760.7,1081.96 
  765.66,1078.83 770.62,1075.85 775.579,1073.01 780.539,1070.3 785.499,1067.73 790.458,1065.29 795.418,1062.98 800.378,1060.8 805.337,1058.75 810.297,1056.81 
  815.257,1054.98 820.216,1053.27 825.176,1051.65 830.136,1050.13 835.095,1048.69 840.055,1047.34 845.015,1046.07 849.974,1044.88 854.934,1043.78 859.894,1042.74 
  864.853,1041.78 869.813,1040.88 874.773,1040.04 879.733,1039.26 884.692,1038.52 889.652,1037.82 894.612,1037.16 899.571,1036.52 904.531,1035.92 909.491,1035.33 
  914.45,1034.77 919.41,1034.22 924.37,1033.69 929.329,1033.17 934.289,1032.66 939.249,1032.16 944.208,1031.66 949.168,1031.17 954.128,1030.67 959.087,1030.18 
  964.047,1029.67 969.007,1029.17 973.966,1028.65 978.926,1028.13 983.886,1027.59 988.845,1027.03 993.805,1026.44 998.765,1025.84 1003.72,1025.2 1008.68,1024.53 
  1013.64,1023.83 1018.6,1023.08 1023.56,1022.28 1028.52,1021.43 1033.48,1020.53 1038.44,1019.58 1043.4,1018.56 1048.36,1017.48 1053.32,1016.34 1058.28,1015.14 
  1063.24,1013.86 1068.2,1012.5 1073.16,1011.06 1078.12,1009.55 1083.08,1007.94 1088.04,1006.25 1093,1004.48 1097.96,1002.62 1102.92,1000.68 1107.88,998.645 
  1112.84,996.515 1117.8,994.29 1122.76,991.968 1127.72,989.551 1132.68,987.035 1137.64,984.416 1142.6,981.695 1147.55,978.872 1152.51,975.944 1157.47,972.913 
  1162.43,969.778 1167.39,966.538 1172.35,963.185 1177.31,959.703 1182.27,956.081 1187.23,952.322 1192.19,948.432 1197.15,944.412 1202.11,940.265 1207.07,935.996 
  1212.03,931.609 1216.99,927.116 1221.95,922.525 1226.91,917.845 1231.87,913.081 1236.83,908.241 1241.79,903.328 1246.75,898.349 1251.71,893.306 1256.67,888.212 
  1261.63,883.074 1266.59,877.898 1271.55,872.686 1276.51,867.443 1281.47,862.168 1286.43,856.866 1291.39,851.55 1296.35,846.229 1301.3,840.914 1306.26,835.615 
  1311.22,830.343 1316.18,825.107 1321.14,819.917 1326.1,814.78 1331.06,809.705 1336.02,804.702 1340.98,799.778 1345.94,794.943 1350.9,790.203 1355.86,785.566 
  1360.82,781.037 1365.78,776.624 1370.74,772.326 1375.7,768.131 1380.66,764.036 1385.62,760.041 1390.58,756.141 1395.54,752.334 1400.5,748.615 1405.46,744.979 
  1410.42,741.421 1415.38,737.942 1420.34,734.536 1425.3,731.2 1430.26,727.93 1435.22,724.724 1440.18,721.585 1445.14,718.508 1450.1,715.492 1455.05,712.544 
  1460.01,709.666 1464.97,706.859 1469.93,704.118 1474.89,701.435 1479.85,698.81 1484.81,696.241 1489.77,693.723 1494.73,691.255 1499.69,688.837 1504.65,686.47 
  1509.61,684.154 1514.57,681.887 1519.53,679.666 1524.49,677.488 1529.45,675.351 1534.41,673.251 1539.37,671.184 1544.33,669.149 1549.29,667.148 1554.25,665.18 
  1559.21,663.244 1564.17,661.341 1569.13,659.471 1574.09,657.634 1579.05,655.829 1584.01,654.055 1588.97,652.311 1593.93,650.595 1598.89,648.908 1603.85,647.249 
  1608.8,645.617 1613.76,644.012 1618.72,642.433 1623.68,640.88 1628.64,639.351 1633.6,637.849 1638.56,636.374 1643.52,634.927 1648.48,633.507 1653.44,632.117 
  1658.4,630.755 1663.36,629.422 1668.32,628.117 1673.28,626.841 1678.24,625.591 1683.2,624.369 1688.16,623.173 1693.12,622.004 1698.08,620.86 1703.04,619.741 
  1708,618.647 1712.96,617.577 1717.92,616.531 1722.88,615.508 1727.84,614.508 1732.8,613.53 1737.76,612.573 1742.72,611.638 1747.68,610.724 1752.64,609.831 
  1757.59,608.957 1762.55,608.098 1767.51,607.255 1772.47,606.426 1777.43,605.607 1782.39,604.797 1787.35,603.993 1792.31,603.189 1797.27,602.383 1802.23,601.571 
  1807.19,600.751 1812.15,599.919 1817.11,599.072 1822.07,598.205 1827.03,597.314 1831.99,596.395 1836.95,595.441 1841.91,594.447 1846.87,593.407 1851.83,592.316 
  1856.79,591.169 1861.75,589.963 1866.71,588.694 1871.67,587.36 1876.63,585.957 1881.59,584.485 1886.55,582.942 1891.51,581.329 1896.47,579.639 1901.43,577.871 
  1906.39,576.022 1911.34,574.092 1916.3,572.083 1921.26,569.996 1926.22,567.835 1931.18,565.598 1936.14,563.286 1941.1,560.9 1946.06,558.441 1951.02,555.909 
  1955.98,553.303 1960.94,550.625 1965.9,547.877 1970.86,545.06 1975.82,542.171 1980.78,539.209 1985.74,536.17 1990.7,533.055 1995.66,529.871 2000.62,526.619 
  2005.58,523.3 2010.54,519.911 2015.5,516.45 2020.46,512.91 2025.42,509.284 2030.38,505.572 2035.34,501.77 2040.3,497.876 2045.26,493.889 2050.22,489.806 
  2055.18,485.625 2060.14,481.345 2065.09,476.967 2070.05,472.495 2075.01,467.933 2079.97,463.283 2084.93,458.544 2089.89,453.718 2094.85,448.802 2099.81,443.793 
  2104.77,438.689 2109.73,433.5 2114.69,428.239 2119.65,422.913 2124.61,417.52 2129.57,412.056 2134.53,406.515 2139.49,400.898 2144.45,395.221 2149.41,389.505 
  2154.37,383.784 2159.33,378.072 2164.29,372.365 2169.25,366.666 2174.21,360.975 2179.17,355.292 2184.13,349.618 2189.09,343.955 2194.05,338.304 2199.01,332.667 
  2203.97,327.044 2208.93,321.437 2213.89,315.845 2218.84,310.269 2223.8,304.707 2228.76,299.161 2233.72,293.629 2238.68,288.115 2243.64,282.608 2248.6,277.097 
  2253.56,271.574 2258.52,266.046 2263.48,260.524 2268.44,255.014 2273.4,249.511 2278.36,244.011 2283.32,238.505 2288.28,232.985 2293.24,227.455 2298.2,221.915 
  2303.16,216.365 2308.12,210.806 2313.08,205.239 2318.04,199.682 2323,194.123 2327.96,188.544 2332.92,182.942 2337.88,177.325 2342.84,171.675 2347.8,165.985 
  2352.76,160.256 
  "/>
<polyline clip-path="url(#clip512)" style="stroke:#e26f46; stroke-linecap:butt; stroke-linejoin:round; stroke-width:4; stroke-opacity:1; fill:none" points="
  368.886,1386.4 373.846,1386.01 378.805,1385.59 383.765,1385.16 388.725,1384.69 393.684,1384.2 398.644,1383.67 403.604,1383.11 408.563,1382.51 413.523,1381.86 
  418.483,1381.18 423.442,1380.44 428.402,1379.66 433.362,1378.83 438.321,1377.93 443.281,1376.98 448.241,1375.96 453.2,1374.86 458.16,1373.67 463.12,1372.41 
  468.08,1371.06 473.039,1369.63 477.999,1368.09 482.959,1366.43 487.918,1364.66 492.878,1362.76 497.838,1360.74 502.797,1358.6 507.757,1356.35 512.717,1353.98 
  517.676,1351.48 522.636,1348.85 527.596,1346.07 532.555,1343.15 537.515,1340.09 542.475,1336.89 547.434,1333.55 552.394,1330.07 557.354,1326.44 562.313,1322.67 
  567.273,1318.76 572.233,1314.69 577.192,1310.49 582.152,1306.17 587.112,1301.74 592.071,1297.21 597.031,1292.6 601.991,1287.9 606.95,1283.14 611.91,1278.37 
  616.87,1273.69 621.829,1269.12 626.789,1264.66 631.749,1260.24 636.708,1255.88 641.668,1251.58 646.628,1247.35 651.587,1243.17 656.547,1239.02 661.507,1234.94 
  666.466,1230.9 671.426,1226.92 676.386,1222.99 681.346,1219.11 686.305,1215.32 691.265,1211.6 696.225,1207.99 701.184,1204.48 706.144,1201.07 711.104,1197.76 
  716.063,1194.55 721.023,1191.42 725.983,1188.4 730.942,1185.49 735.902,1182.69 740.862,1179.99 745.821,1177.4 750.781,1174.92 755.741,1172.55 760.7,1170.28 
  765.66,1168.11 770.62,1166.04 775.579,1164.07 780.539,1162.2 785.499,1160.42 790.458,1158.73 795.418,1157.14 800.378,1155.63 805.337,1154.21 810.297,1152.88 
  815.257,1151.62 820.216,1150.44 825.176,1149.32 830.136,1148.28 835.095,1147.29 840.055,1146.36 845.015,1145.49 849.974,1144.68 854.934,1143.92 859.894,1143.21 
  864.853,1142.55 869.813,1141.94 874.773,1141.36 879.733,1140.83 884.692,1140.32 889.652,1139.84 894.612,1139.39 899.571,1138.95 904.531,1138.53 909.491,1138.13 
  914.45,1137.74 919.41,1137.36 924.37,1136.99 929.329,1136.63 934.289,1136.28 939.249,1135.93 944.208,1135.58 949.168,1135.24 954.128,1134.9 959.087,1134.55 
  964.047,1134.2 969.007,1133.84 973.966,1133.47 978.926,1133.09 983.886,1132.69 988.845,1132.27 993.805,1131.84 998.765,1131.39 1003.72,1130.91 1008.68,1130.39 
  1013.64,1129.85 1018.6,1129.26 1023.56,1128.64 1028.52,1127.98 1033.48,1127.27 1038.44,1126.52 1043.4,1125.73 1048.36,1124.88 1053.32,1123.98 1058.28,1123.03 
  1063.24,1122.02 1068.2,1120.95 1073.16,1119.81 1078.12,1118.61 1083.08,1117.34 1088.04,1116 1093,1114.59 1097.96,1113.11 1102.92,1111.55 1107.88,1109.93 
  1112.84,1108.23 1117.8,1106.46 1122.76,1104.61 1127.72,1102.7 1132.68,1100.71 1137.64,1098.63 1142.6,1096.46 1147.55,1094.19 1152.51,1091.83 1157.47,1089.37 
  1162.43,1086.83 1167.39,1084.21 1172.35,1081.5 1177.31,1078.68 1182.27,1075.74 1187.23,1072.69 1192.19,1069.52 1197.15,1066.24 1202.11,1062.86 1207.07,1059.38 
  1212.03,1055.82 1216.99,1052.19 1221.95,1048.51 1226.91,1044.78 1231.87,1040.99 1236.83,1037.15 1241.79,1033.26 1246.75,1029.31 1251.71,1025.31 1256.67,1021.26 
  1261.63,1017.18 1266.59,1013.07 1271.55,1008.93 1276.51,1004.76 1281.47,1000.57 1286.43,996.359 1291.39,992.135 1296.35,987.908 1301.3,983.686 1306.26,979.476 
  1311.22,975.286 1316.18,971.125 1321.14,967 1326.1,962.916 1331.06,958.881 1336.02,954.903 1340.98,950.988 1345.94,947.142 1350.9,943.371 1355.86,939.682 
  1360.82,936.078 1365.78,932.565 1370.74,929.146 1375.7,925.81 1380.66,922.545 1385.62,919.34 1390.58,916.191 1395.54,913.097 1400.5,910.061 1405.46,907.091 
  1410.42,904.194 1415.38,901.352 1420.34,898.564 1425.3,895.827 1430.26,893.14 1435.22,890.502 1440.18,887.912 1445.14,885.375 1450.1,882.907 1455.05,880.506 
  1460.01,878.168 1464.97,875.895 1469.93,873.687 1474.89,871.548 1479.85,869.468 1484.81,867.439 1489.77,865.455 1494.73,863.516 1499.69,861.62 1504.65,859.768 
  1509.61,857.958 1514.57,856.188 1519.53,854.455 1524.49,852.756 1529.45,851.088 1534.41,849.445 1539.37,847.825 1544.33,846.228 1549.29,844.655 1554.25,843.107 
  1559.21,841.583 1564.17,840.084 1569.13,838.61 1574.09,837.162 1579.05,835.739 1584.01,834.339 1588.97,832.963 1593.93,831.609 1598.89,830.277 1603.85,828.966 
  1608.8,827.676 1613.76,826.407 1618.72,825.16 1623.68,823.934 1628.64,822.73 1633.6,821.547 1638.56,820.385 1643.52,819.244 1648.48,818.126 1653.44,817.031 
  1658.4,815.962 1663.36,814.92 1668.32,813.902 1673.28,812.907 1678.24,811.934 1683.2,810.982 1688.16,810.053 1693.12,809.144 1698.08,808.257 1703.04,807.39 
  1708,806.543 1712.96,805.715 1717.92,804.907 1722.88,804.116 1727.84,803.344 1732.8,802.589 1737.76,801.851 1742.72,801.131 1747.68,800.426 1752.64,799.737 
  1757.59,799.064 1762.55,798.407 1767.51,797.764 1772.47,797.13 1777.43,796.503 1782.39,795.882 1787.35,795.265 1792.31,794.648 1797.27,794.033 1802.23,793.414 
  1807.19,792.789 1812.15,792.154 1817.11,791.508 1822.07,790.848 1827.03,790.17 1831.99,789.47 1836.95,788.746 1841.91,787.993 1846.87,787.205 1851.83,786.378 
  1856.79,785.509 1861.75,784.593 1866.71,783.628 1871.67,782.61 1876.63,781.537 1881.59,780.406 1886.55,779.215 1891.51,777.964 1896.47,776.659 1901.43,775.304 
  1906.39,773.901 1911.34,772.45 1916.3,770.948 1921.26,769.39 1926.22,767.767 1931.18,766.086 1936.14,764.342 1941.1,762.531 1946.06,760.654 1951.02,758.714 
  1955.98,756.718 1960.94,754.665 1965.9,752.557 1970.86,750.393 1975.82,748.173 1980.78,745.896 1985.74,743.56 1990.7,741.168 1995.66,738.724 2000.62,736.228 
  2005.58,733.677 2010.54,731.066 2015.5,728.389 2020.46,725.637 2025.42,722.802 2030.38,719.887 2035.34,716.894 2040.3,713.821 2045.26,710.67 2050.22,707.441 
  2055.18,704.136 2060.14,700.755 2065.09,697.299 2070.05,693.77 2075.01,690.172 2079.97,686.506 2084.93,682.775 2089.89,678.977 2094.85,675.11 2099.81,671.171 
  2104.77,667.154 2109.73,663.061 2114.69,658.9 2119.65,654.676 2124.61,650.389 2129.57,646.031 2134.53,641.592 2139.49,637.09 2144.45,632.565 2149.41,628.065 
  2154.37,623.657 2159.33,619.344 2164.29,615.096 2169.25,610.902 2174.21,606.75 2179.17,602.629 2184.13,598.537 2189.09,594.47 2194.05,590.429 2199.01,586.409 
  2203.97,582.41 2208.93,578.43 2213.89,574.466 2218.84,570.516 2223.8,566.58 2228.76,562.655 2233.72,558.742 2238.68,554.84 2243.64,550.961 2248.6,547.133 
  2253.56,543.364 2258.52,539.646 2263.48,535.951 2268.44,532.272 2273.4,528.619 2278.36,524.982 2283.32,521.352 2288.28,517.719 2293.24,514.084 2298.2,510.448 
  2303.16,506.809 2308.12,503.168 2313.08,499.523 2318.04,495.813 2323,491.974 2327.96,487.985 2332.92,483.845 2337.88,479.563 2342.84,475.168 2347.8,470.657 
  2352.76,466.024 
  "/>
<path clip-path="url(#clip510)" d="
M1847.86 322.316 L2286.63 322.316 L2286.63 166.796 L1847.86 166.796  Z
  " fill="#ffffff" fill-rule="evenodd" fill-opacity="1"/>
<polyline clip-path="url(#clip510)" style="stroke:#000000; stroke-linecap:butt; stroke-linejoin:round; stroke-width:4; stroke-opacity:1; fill:none" points="
  1847.86,322.316 2286.63,322.316 2286.63,166.796 1847.86,166.796 1847.86,322.316 
  "/>
<polyline clip-path="url(#clip510)" style="stroke:#009af9; stroke-linecap:butt; stroke-linejoin:round; stroke-width:4; stroke-opacity:1; fill:none" points="
  1869.91,218.636 2002.17,218.636 
  "/>
<path clip-path="url(#clip510)" d="M2034.83 199.944 Q2031.73 205.268 2030.23 210.476 Q2028.72 215.684 2028.72 221.032 Q2028.72 226.379 2030.23 231.633 Q2031.76 236.865 2034.83 242.166 L2031.13 242.166 Q2027.66 236.726 2025.92 231.471 Q2024.21 226.217 2024.21 221.032 Q2024.21 215.87 2025.92 210.638 Q2027.63 205.407 2031.13 199.944 L2034.83 199.944 Z" fill="#000000" fill-rule="evenodd" fill-opacity="1" /><path clip-path="url(#clip510)" d="M2047.31 202.629 L2047.31 209.99 L2056.08 209.99 L2056.08 213.3 L2047.31 213.3 L2047.31 227.374 Q2047.31 230.545 2048.17 231.448 Q2049.05 232.351 2051.71 232.351 L2056.08 232.351 L2056.08 235.916 L2051.71 235.916 Q2046.78 235.916 2044.9 234.087 Q2043.03 232.235 2043.03 227.374 L2043.03 213.3 L2039.9 213.3 L2039.9 209.99 L2043.03 209.99 L2043.03 202.629 L2047.31 202.629 Z" fill="#000000" fill-rule="evenodd" fill-opacity="1" /><path clip-path="url(#clip510)" d="M2062.77 230.036 L2067.66 230.036 L2067.66 234.018 L2063.86 241.425 L2060.88 241.425 L2062.77 234.018 L2062.77 230.036 Z" fill="#000000" fill-rule="evenodd" fill-opacity="1" /><path clip-path="url(#clip510)" d="M2102.82 204.018 L2102.82 208.948 Q2100.46 206.749 2097.77 205.661 Q2095.11 204.573 2092.1 204.573 Q2086.18 204.573 2083.03 208.208 Q2079.88 211.819 2079.88 218.67 Q2079.88 225.499 2083.03 229.133 Q2086.18 232.744 2092.1 232.744 Q2095.11 232.744 2097.77 231.656 Q2100.46 230.569 2102.82 228.369 L2102.82 233.254 Q2100.37 234.92 2097.61 235.754 Q2094.88 236.587 2091.82 236.587 Q2083.98 236.587 2079.46 231.795 Q2074.95 226.981 2074.95 218.67 Q2074.95 210.337 2079.46 205.546 Q2083.98 200.731 2091.82 200.731 Q2094.93 200.731 2097.66 201.564 Q2100.41 202.374 2102.82 204.018 Z" fill="#000000" fill-rule="evenodd" fill-opacity="1" /><path clip-path="url(#clip510)" d="M2109.46 199.897 L2119.28 199.897 L2119.28 203.208 L2113.72 203.208 L2113.72 238.856 L2119.28 238.856 L2119.28 242.166 L2109.46 242.166 L2109.46 199.897 Z" fill="#000000" fill-rule="evenodd" fill-opacity="1" /><path clip-path="url(#clip510)" d="M2129.76 231.981 L2137.4 231.981 L2137.4 205.615 L2129.09 207.282 L2129.09 203.022 L2137.36 201.356 L2142.03 201.356 L2142.03 231.981 L2149.67 231.981 L2149.67 235.916 L2129.76 235.916 L2129.76 231.981 Z" fill="#000000" fill-rule="evenodd" fill-opacity="1" /><path clip-path="url(#clip510)" d="M2168.47 199.897 L2168.47 242.166 L2158.65 242.166 L2158.65 238.856 L2164.18 238.856 L2164.18 203.208 L2158.65 203.208 L2158.65 199.897 L2168.47 199.897 Z" fill="#000000" fill-rule="evenodd" fill-opacity="1" /><path clip-path="url(#clip510)" d="M2187.24 199.944 Q2184.14 205.268 2182.63 210.476 Q2181.13 215.684 2181.13 221.032 Q2181.13 226.379 2182.63 231.633 Q2184.16 236.865 2187.24 242.166 L2183.54 242.166 Q2180.06 236.726 2178.33 231.471 Q2176.62 226.217 2176.62 221.032 Q2176.62 215.87 2178.33 210.638 Q2180.04 205.407 2183.54 199.944 L2187.24 199.944 Z" fill="#000000" fill-rule="evenodd" fill-opacity="1" /><path clip-path="url(#clip510)" d="M2199.72 202.629 L2199.72 209.99 L2208.49 209.99 L2208.49 213.3 L2199.72 213.3 L2199.72 227.374 Q2199.72 230.545 2200.57 231.448 Q2201.45 232.351 2204.12 232.351 L2208.49 232.351 L2208.49 235.916 L2204.12 235.916 Q2199.18 235.916 2197.31 234.087 Q2195.43 232.235 2195.43 227.374 L2195.43 213.3 L2192.31 213.3 L2192.31 209.99 L2195.43 209.99 L2195.43 202.629 L2199.72 202.629 Z" fill="#000000" fill-rule="evenodd" fill-opacity="1" /><path clip-path="url(#clip510)" d="M2213.42 199.944 L2217.12 199.944 Q2220.6 205.407 2222.31 210.638 Q2224.05 215.87 2224.05 221.032 Q2224.05 226.217 2222.31 231.471 Q2220.6 236.726 2217.12 242.166 L2213.42 242.166 Q2216.5 236.865 2218 231.633 Q2219.53 226.379 2219.53 221.032 Q2219.53 215.684 2218 210.476 Q2216.5 205.268 2213.42 199.944 Z" fill="#000000" fill-rule="evenodd" fill-opacity="1" /><path clip-path="url(#clip510)" d="M2231.92 199.944 L2235.62 199.944 Q2239.09 205.407 2240.8 210.638 Q2242.54 215.87 2242.54 221.032 Q2242.54 226.217 2240.8 231.471 Q2239.09 236.726 2235.62 242.166 L2231.92 242.166 Q2234.99 236.865 2236.5 231.633 Q2238.03 226.379 2238.03 221.032 Q2238.03 215.684 2236.5 210.476 Q2234.99 205.268 2231.92 199.944 Z" fill="#000000" fill-rule="evenodd" fill-opacity="1" /><polyline clip-path="url(#clip510)" style="stroke:#e26f46; stroke-linecap:butt; stroke-linejoin:round; stroke-width:4; stroke-opacity:1; fill:none" points="
  1869.91,270.476 2002.17,270.476 
  "/>
<path clip-path="url(#clip510)" d="M2034.83 251.784 Q2031.73 257.108 2030.23 262.316 Q2028.72 267.524 2028.72 272.872 Q2028.72 278.219 2030.23 283.473 Q2031.76 288.705 2034.83 294.006 L2031.13 294.006 Q2027.66 288.566 2025.92 283.311 Q2024.21 278.057 2024.21 272.872 Q2024.21 267.71 2025.92 262.478 Q2027.63 257.247 2031.13 251.784 L2034.83 251.784 Z" fill="#000000" fill-rule="evenodd" fill-opacity="1" /><path clip-path="url(#clip510)" d="M2047.31 254.469 L2047.31 261.83 L2056.08 261.83 L2056.08 265.14 L2047.31 265.14 L2047.31 279.214 Q2047.31 282.385 2048.17 283.288 Q2049.05 284.191 2051.71 284.191 L2056.08 284.191 L2056.08 287.756 L2051.71 287.756 Q2046.78 287.756 2044.9 285.927 Q2043.03 284.075 2043.03 279.214 L2043.03 265.14 L2039.9 265.14 L2039.9 261.83 L2043.03 261.83 L2043.03 254.469 L2047.31 254.469 Z" fill="#000000" fill-rule="evenodd" fill-opacity="1" /><path clip-path="url(#clip510)" d="M2062.77 281.876 L2067.66 281.876 L2067.66 285.858 L2063.86 293.265 L2060.88 293.265 L2062.77 285.858 L2062.77 281.876 Z" fill="#000000" fill-rule="evenodd" fill-opacity="1" /><path clip-path="url(#clip510)" d="M2102.82 255.858 L2102.82 260.788 Q2100.46 258.589 2097.77 257.501 Q2095.11 256.413 2092.1 256.413 Q2086.18 256.413 2083.03 260.048 Q2079.88 263.659 2079.88 270.51 Q2079.88 277.339 2083.03 280.973 Q2086.18 284.584 2092.1 284.584 Q2095.11 284.584 2097.77 283.496 Q2100.46 282.409 2102.82 280.209 L2102.82 285.094 Q2100.37 286.76 2097.61 287.594 Q2094.88 288.427 2091.82 288.427 Q2083.98 288.427 2079.46 283.635 Q2074.95 278.821 2074.95 270.51 Q2074.95 262.177 2079.46 257.386 Q2083.98 252.571 2091.82 252.571 Q2094.93 252.571 2097.66 253.404 Q2100.41 254.214 2102.82 255.858 Z" fill="#000000" fill-rule="evenodd" fill-opacity="1" /><path clip-path="url(#clip510)" d="M2109.46 251.737 L2119.28 251.737 L2119.28 255.048 L2113.72 255.048 L2113.72 290.696 L2119.28 290.696 L2119.28 294.006 L2109.46 294.006 L2109.46 251.737 Z" fill="#000000" fill-rule="evenodd" fill-opacity="1" /><path clip-path="url(#clip510)" d="M2132.98 283.821 L2149.3 283.821 L2149.3 287.756 L2127.36 287.756 L2127.36 283.821 Q2130.02 281.066 2134.6 276.436 Q2139.21 271.784 2140.39 270.441 Q2142.63 267.918 2143.51 266.182 Q2144.42 264.423 2144.42 262.733 Q2144.42 259.978 2142.47 258.242 Q2140.55 256.506 2137.45 256.506 Q2135.25 256.506 2132.8 257.27 Q2130.37 258.034 2127.59 259.585 L2127.59 254.862 Q2130.41 253.728 2132.87 253.149 Q2135.32 252.571 2137.36 252.571 Q2142.73 252.571 2145.92 255.256 Q2149.12 257.941 2149.12 262.432 Q2149.12 264.561 2148.31 266.483 Q2147.52 268.381 2145.41 270.973 Q2144.83 271.645 2141.73 274.862 Q2138.63 278.057 2132.98 283.821 Z" fill="#000000" fill-rule="evenodd" fill-opacity="1" /><path clip-path="url(#clip510)" d="M2168.47 251.737 L2168.47 294.006 L2158.65 294.006 L2158.65 290.696 L2164.18 290.696 L2164.18 255.048 L2158.65 255.048 L2158.65 251.737 L2168.47 251.737 Z" fill="#000000" fill-rule="evenodd" fill-opacity="1" /><path clip-path="url(#clip510)" d="M2187.24 251.784 Q2184.14 257.108 2182.63 262.316 Q2181.13 267.524 2181.13 272.872 Q2181.13 278.219 2182.63 283.473 Q2184.16 288.705 2187.24 294.006 L2183.54 294.006 Q2180.06 288.566 2178.33 283.311 Q2176.62 278.057 2176.62 272.872 Q2176.62 267.71 2178.33 262.478 Q2180.04 257.247 2183.54 251.784 L2187.24 251.784 Z" fill="#000000" fill-rule="evenodd" fill-opacity="1" /><path clip-path="url(#clip510)" d="M2199.72 254.469 L2199.72 261.83 L2208.49 261.83 L2208.49 265.14 L2199.72 265.14 L2199.72 279.214 Q2199.72 282.385 2200.57 283.288 Q2201.45 284.191 2204.12 284.191 L2208.49 284.191 L2208.49 287.756 L2204.12 287.756 Q2199.18 287.756 2197.31 285.927 Q2195.43 284.075 2195.43 279.214 L2195.43 265.14 L2192.31 265.14 L2192.31 261.83 L2195.43 261.83 L2195.43 254.469 L2199.72 254.469 Z" fill="#000000" fill-rule="evenodd" fill-opacity="1" /><path clip-path="url(#clip510)" d="M2213.42 251.784 L2217.12 251.784 Q2220.6 257.247 2222.31 262.478 Q2224.05 267.71 2224.05 272.872 Q2224.05 278.057 2222.31 283.311 Q2220.6 288.566 2217.12 294.006 L2213.42 294.006 Q2216.5 288.705 2218 283.473 Q2219.53 278.219 2219.53 272.872 Q2219.53 267.524 2218 262.316 Q2216.5 257.108 2213.42 251.784 Z" fill="#000000" fill-rule="evenodd" fill-opacity="1" /><path clip-path="url(#clip510)" d="M2231.92 251.784 L2235.62 251.784 Q2239.09 257.247 2240.8 262.478 Q2242.54 267.71 2242.54 272.872 Q2242.54 278.057 2240.8 283.311 Q2239.09 288.566 2235.62 294.006 L2231.92 294.006 Q2234.99 288.705 2236.5 283.473 Q2238.03 278.219 2238.03 272.872 Q2238.03 267.524 2236.5 262.316 Q2234.99 257.108 2231.92 251.784 Z" fill="#000000" fill-rule="evenodd" fill-opacity="1" /></svg>
