<?xml version="1.0" encoding="utf-8"?>
<svg xmlns="http://www.w3.org/2000/svg" xmlns:xlink="http://www.w3.org/1999/xlink" width="600" height="400" viewBox="0 0 2400 1600">
<defs>
  <clipPath id="clip660">
    <rect x="0" y="0" width="2400" height="1600"/>
  </clipPath>
</defs>
<path clip-path="url(#clip660)" d="
M0 1600 L2400 1600 L2400 0 L0 0  Z
  " fill="#ffffff" fill-rule="evenodd" fill-opacity="1"/>
<defs>
  <clipPath id="clip661">
    <rect x="480" y="0" width="1681" height="1600"/>
  </clipPath>
</defs>
<path clip-path="url(#clip660)" d="
M234.125 1423.18 L2352.76 1423.18 L2352.76 123.472 L234.125 123.472  Z
  " fill="#ffffff" fill-rule="evenodd" fill-opacity="1"/>
<defs>
  <clipPath id="clip662">
    <rect x="234" y="123" width="2120" height="1301"/>
  </clipPath>
</defs>
<polyline clip-path="url(#clip662)" style="stroke:#000000; stroke-linecap:butt; stroke-linejoin:round; stroke-width:2; stroke-opacity:0.1; fill:none" points="
  234.125,1423.18 234.125,123.472 
  "/>
<polyline clip-path="url(#clip662)" style="stroke:#000000; stroke-linecap:butt; stroke-linejoin:round; stroke-width:2; stroke-opacity:0.1; fill:none" points="
  763.783,1423.18 763.783,123.472 
  "/>
<polyline clip-path="url(#clip662)" style="stroke:#000000; stroke-linecap:butt; stroke-linejoin:round; stroke-width:2; stroke-opacity:0.1; fill:none" points="
  1293.44,1423.18 1293.44,123.472 
  "/>
<polyline clip-path="url(#clip662)" style="stroke:#000000; stroke-linecap:butt; stroke-linejoin:round; stroke-width:2; stroke-opacity:0.1; fill:none" points="
  1823.1,1423.18 1823.1,123.472 
  "/>
<polyline clip-path="url(#clip662)" style="stroke:#000000; stroke-linecap:butt; stroke-linejoin:round; stroke-width:2; stroke-opacity:0.1; fill:none" points="
  2352.76,1423.18 2352.76,123.472 
  "/>
<polyline clip-path="url(#clip660)" style="stroke:#000000; stroke-linecap:butt; stroke-linejoin:round; stroke-width:4; stroke-opacity:1; fill:none" points="
  234.125,1423.18 2352.76,1423.18 
  "/>
<polyline clip-path="url(#clip660)" style="stroke:#000000; stroke-linecap:butt; stroke-linejoin:round; stroke-width:4; stroke-opacity:1; fill:none" points="
  234.125,1423.18 234.125,1404.28 
  "/>
<polyline clip-path="url(#clip660)" style="stroke:#000000; stroke-linecap:butt; stroke-linejoin:round; stroke-width:4; stroke-opacity:1; fill:none" points="
  763.783,1423.18 763.783,1404.28 
  "/>
<polyline clip-path="url(#clip660)" style="stroke:#000000; stroke-linecap:butt; stroke-linejoin:round; stroke-width:4; stroke-opacity:1; fill:none" points="
  1293.44,1423.18 1293.44,1404.28 
  "/>
<polyline clip-path="url(#clip660)" style="stroke:#000000; stroke-linecap:butt; stroke-linejoin:round; stroke-width:4; stroke-opacity:1; fill:none" points="
  1823.1,1423.18 1823.1,1404.28 
  "/>
<polyline clip-path="url(#clip660)" style="stroke:#000000; stroke-linecap:butt; stroke-linejoin:round; stroke-width:4; stroke-opacity:1; fill:none" points="
  2352.76,1423.18 2352.76,1404.28 
  "/>
<path clip-path="url(#clip660)" d="M234.125 1452.37 Q230.514 1452.37 228.686 1455.94 Q226.88 1459.48 226.88 1466.61 Q226.88 1473.71 228.686 1477.28 Q230.514 1480.82 234.125 1480.82 Q237.76 1480.82 239.565 1477.28 Q241.394 1473.71 241.394 1466.61 Q241.394 1459.48 239.565 1455.94 Q237.76 1452.37 234.125 1452.37 M234.125 1448.67 Q239.936 1448.67 242.991 1453.27 Q246.07 1457.86 246.07 1466.61 Q246.07 1475.33 242.991 1479.94 Q239.936 1484.52 234.125 1484.52 Q228.315 1484.52 225.237 1479.94 Q222.181 1475.33 222.181 1466.61 Q222.181 1457.86 225.237 1453.27 Q228.315 1448.67 234.125 1448.67 Z" fill="#000000" fill-rule="evenodd" fill-opacity="1" /><path clip-path="url(#clip660)" d="M723.39 1479.92 L731.029 1479.92 L731.029 1453.55 L722.718 1455.22 L722.718 1450.96 L730.982 1449.29 L735.658 1449.29 L735.658 1479.92 L743.297 1479.92 L743.297 1483.85 L723.39 1483.85 L723.39 1479.92 Z" fill="#000000" fill-rule="evenodd" fill-opacity="1" /><path clip-path="url(#clip660)" d="M762.741 1452.37 Q759.13 1452.37 757.302 1455.94 Q755.496 1459.48 755.496 1466.61 Q755.496 1473.71 757.302 1477.28 Q759.13 1480.82 762.741 1480.82 Q766.376 1480.82 768.181 1477.28 Q770.01 1473.71 770.01 1466.61 Q770.01 1459.48 768.181 1455.94 Q766.376 1452.37 762.741 1452.37 M762.741 1448.67 Q768.552 1448.67 771.607 1453.27 Q774.686 1457.86 774.686 1466.61 Q774.686 1475.33 771.607 1479.94 Q768.552 1484.52 762.741 1484.52 Q756.931 1484.52 753.853 1479.94 Q750.797 1475.33 750.797 1466.61 Q750.797 1457.86 753.853 1453.27 Q756.931 1448.67 762.741 1448.67 Z" fill="#000000" fill-rule="evenodd" fill-opacity="1" /><path clip-path="url(#clip660)" d="M792.903 1452.37 Q789.292 1452.37 787.463 1455.94 Q785.658 1459.48 785.658 1466.61 Q785.658 1473.71 787.463 1477.28 Q789.292 1480.82 792.903 1480.82 Q796.538 1480.82 798.343 1477.28 Q800.172 1473.71 800.172 1466.61 Q800.172 1459.48 798.343 1455.94 Q796.538 1452.37 792.903 1452.37 M792.903 1448.67 Q798.713 1448.67 801.769 1453.27 Q804.848 1457.86 804.848 1466.61 Q804.848 1475.33 801.769 1479.94 Q798.713 1484.52 792.903 1484.52 Q787.093 1484.52 784.014 1479.94 Q780.959 1475.33 780.959 1466.61 Q780.959 1457.86 784.014 1453.27 Q787.093 1448.67 792.903 1448.67 Z" fill="#000000" fill-rule="evenodd" fill-opacity="1" /><path clip-path="url(#clip660)" d="M1257.13 1479.92 L1273.45 1479.92 L1273.45 1483.85 L1251.51 1483.85 L1251.51 1479.92 Q1254.17 1477.16 1258.75 1472.53 Q1263.36 1467.88 1264.54 1466.54 Q1266.79 1464.01 1267.67 1462.28 Q1268.57 1460.52 1268.57 1458.83 Q1268.57 1456.07 1266.62 1454.34 Q1264.7 1452.6 1261.6 1452.6 Q1259.4 1452.6 1256.95 1453.37 Q1254.52 1454.13 1251.74 1455.68 L1251.74 1450.96 Q1254.56 1449.82 1257.02 1449.25 Q1259.47 1448.67 1261.51 1448.67 Q1266.88 1448.67 1270.07 1451.35 Q1273.27 1454.04 1273.27 1458.53 Q1273.27 1460.66 1272.46 1462.58 Q1271.67 1464.48 1269.56 1467.07 Q1268.98 1467.74 1265.88 1470.96 Q1262.78 1474.15 1257.13 1479.92 Z" fill="#000000" fill-rule="evenodd" fill-opacity="1" /><path clip-path="url(#clip660)" d="M1293.27 1452.37 Q1289.66 1452.37 1287.83 1455.94 Q1286.02 1459.48 1286.02 1466.61 Q1286.02 1473.71 1287.83 1477.28 Q1289.66 1480.82 1293.27 1480.82 Q1296.9 1480.82 1298.71 1477.28 Q1300.54 1473.71 1300.54 1466.61 Q1300.54 1459.48 1298.71 1455.94 Q1296.9 1452.37 1293.27 1452.37 M1293.27 1448.67 Q1299.08 1448.67 1302.13 1453.27 Q1305.21 1457.86 1305.21 1466.61 Q1305.21 1475.33 1302.13 1479.94 Q1299.08 1484.52 1293.27 1484.52 Q1287.46 1484.52 1284.38 1479.94 Q1281.32 1475.33 1281.32 1466.61 Q1281.32 1457.86 1284.38 1453.27 Q1287.46 1448.67 1293.27 1448.67 Z" fill="#000000" fill-rule="evenodd" fill-opacity="1" /><path clip-path="url(#clip660)" d="M1323.43 1452.37 Q1319.82 1452.37 1317.99 1455.94 Q1316.18 1459.48 1316.18 1466.61 Q1316.18 1473.71 1317.99 1477.28 Q1319.82 1480.82 1323.43 1480.82 Q1327.06 1480.82 1328.87 1477.28 Q1330.7 1473.71 1330.7 1466.61 Q1330.7 1459.48 1328.87 1455.94 Q1327.06 1452.37 1323.43 1452.37 M1323.43 1448.67 Q1329.24 1448.67 1332.29 1453.27 Q1335.37 1457.86 1335.37 1466.61 Q1335.37 1475.33 1332.29 1479.94 Q1329.24 1484.52 1323.43 1484.52 Q1317.62 1484.52 1314.54 1479.94 Q1311.48 1475.33 1311.48 1466.61 Q1311.48 1457.86 1314.54 1453.27 Q1317.62 1448.67 1323.43 1448.67 Z" fill="#000000" fill-rule="evenodd" fill-opacity="1" /><path clip-path="url(#clip660)" d="M1796.86 1465.22 Q1800.22 1465.94 1802.09 1468.2 Q1803.99 1470.47 1803.99 1473.81 Q1803.99 1478.92 1800.47 1481.72 Q1796.95 1484.52 1790.47 1484.52 Q1788.3 1484.52 1785.98 1484.08 Q1783.69 1483.67 1781.24 1482.81 L1781.24 1478.3 Q1783.18 1479.43 1785.49 1480.01 Q1787.81 1480.59 1790.33 1480.59 Q1794.73 1480.59 1797.02 1478.85 Q1799.34 1477.12 1799.34 1473.81 Q1799.34 1470.75 1797.18 1469.04 Q1795.05 1467.3 1791.24 1467.3 L1787.21 1467.3 L1787.21 1463.46 L1791.42 1463.46 Q1794.87 1463.46 1796.7 1462.09 Q1798.53 1460.7 1798.53 1458.11 Q1798.53 1455.45 1796.63 1454.04 Q1794.75 1452.6 1791.24 1452.6 Q1789.31 1452.6 1787.11 1453.02 Q1784.92 1453.44 1782.28 1454.31 L1782.28 1450.15 Q1784.94 1449.41 1787.25 1449.04 Q1789.59 1448.67 1791.65 1448.67 Q1796.98 1448.67 1800.08 1451.1 Q1803.18 1453.5 1803.18 1457.63 Q1803.18 1460.5 1801.54 1462.49 Q1799.89 1464.45 1796.86 1465.22 Z" fill="#000000" fill-rule="evenodd" fill-opacity="1" /><path clip-path="url(#clip660)" d="M1822.86 1452.37 Q1819.24 1452.37 1817.42 1455.94 Q1815.61 1459.48 1815.61 1466.61 Q1815.61 1473.71 1817.42 1477.28 Q1819.24 1480.82 1822.86 1480.82 Q1826.49 1480.82 1828.3 1477.28 Q1830.12 1473.71 1830.12 1466.61 Q1830.12 1459.48 1828.3 1455.94 Q1826.49 1452.37 1822.86 1452.37 M1822.86 1448.67 Q1828.67 1448.67 1831.72 1453.27 Q1834.8 1457.86 1834.8 1466.61 Q1834.8 1475.33 1831.72 1479.94 Q1828.67 1484.52 1822.86 1484.52 Q1817.05 1484.52 1813.97 1479.94 Q1810.91 1475.33 1810.91 1466.61 Q1810.91 1457.86 1813.97 1453.27 Q1817.05 1448.67 1822.86 1448.67 Z" fill="#000000" fill-rule="evenodd" fill-opacity="1" /><path clip-path="url(#clip660)" d="M1853.02 1452.37 Q1849.41 1452.37 1847.58 1455.94 Q1845.77 1459.48 1845.77 1466.61 Q1845.77 1473.71 1847.58 1477.28 Q1849.41 1480.82 1853.02 1480.82 Q1856.65 1480.82 1858.46 1477.28 Q1860.29 1473.71 1860.29 1466.61 Q1860.29 1459.48 1858.46 1455.94 Q1856.65 1452.37 1853.02 1452.37 M1853.02 1448.67 Q1858.83 1448.67 1861.88 1453.27 Q1864.96 1457.86 1864.96 1466.61 Q1864.96 1475.33 1861.88 1479.94 Q1858.83 1484.52 1853.02 1484.52 Q1847.21 1484.52 1844.13 1479.94 Q1841.07 1475.33 1841.07 1466.61 Q1841.07 1457.86 1844.13 1453.27 Q1847.21 1448.67 1853.02 1448.67 Z" fill="#000000" fill-rule="evenodd" fill-opacity="1" /><path clip-path="url(#clip660)" d="M2325.85 1453.37 L2314.04 1471.81 L2325.85 1471.81 L2325.85 1453.37 M2324.62 1449.29 L2330.5 1449.29 L2330.5 1471.81 L2335.43 1471.81 L2335.43 1475.7 L2330.5 1475.7 L2330.5 1483.85 L2325.85 1483.85 L2325.85 1475.7 L2310.24 1475.7 L2310.24 1471.19 L2324.62 1449.29 Z" fill="#000000" fill-rule="evenodd" fill-opacity="1" /><path clip-path="url(#clip660)" d="M2353.16 1452.37 Q2349.55 1452.37 2347.72 1455.94 Q2345.92 1459.48 2345.92 1466.61 Q2345.92 1473.71 2347.72 1477.28 Q2349.55 1480.82 2353.16 1480.82 Q2356.8 1480.82 2358.6 1477.28 Q2360.43 1473.71 2360.43 1466.61 Q2360.43 1459.48 2358.6 1455.94 Q2356.8 1452.37 2353.16 1452.37 M2353.16 1448.67 Q2358.97 1448.67 2362.03 1453.27 Q2365.11 1457.86 2365.11 1466.61 Q2365.11 1475.33 2362.03 1479.94 Q2358.97 1484.52 2353.16 1484.52 Q2347.35 1484.52 2344.27 1479.94 Q2341.22 1475.33 2341.22 1466.61 Q2341.22 1457.86 2344.27 1453.27 Q2347.35 1448.67 2353.16 1448.67 Z" fill="#000000" fill-rule="evenodd" fill-opacity="1" /><path clip-path="url(#clip660)" d="M2383.32 1452.37 Q2379.71 1452.37 2377.88 1455.94 Q2376.08 1459.48 2376.08 1466.61 Q2376.08 1473.71 2377.88 1477.28 Q2379.71 1480.82 2383.32 1480.82 Q2386.96 1480.82 2388.76 1477.28 Q2390.59 1473.71 2390.59 1466.61 Q2390.59 1459.48 2388.76 1455.94 Q2386.96 1452.37 2383.32 1452.37 M2383.32 1448.67 Q2389.13 1448.67 2392.19 1453.27 Q2395.27 1457.86 2395.27 1466.61 Q2395.27 1475.33 2392.19 1479.94 Q2389.13 1484.52 2383.32 1484.52 Q2377.51 1484.52 2374.43 1479.94 Q2371.38 1475.33 2371.38 1466.61 Q2371.38 1457.86 2374.43 1453.27 Q2377.51 1448.67 2383.32 1448.67 Z" fill="#000000" fill-rule="evenodd" fill-opacity="1" /><path clip-path="url(#clip660)" d="M1292.5 1522.27 L1292.5 1532.4 L1304.56 1532.4 L1304.56 1536.95 L1292.5 1536.95 L1292.5 1556.3 Q1292.5 1560.66 1293.68 1561.9 Q1294.89 1563.14 1298.55 1563.14 L1304.56 1563.14 L1304.56 1568.04 L1298.55 1568.04 Q1291.77 1568.04 1289.19 1565.53 Q1286.61 1562.98 1286.61 1556.3 L1286.61 1536.95 L1282.32 1536.95 L1282.32 1532.4 L1286.61 1532.4 L1286.61 1522.27 L1292.5 1522.27 Z" fill="#000000" fill-rule="evenodd" fill-opacity="1" /><polyline clip-path="url(#clip662)" style="stroke:#000000; stroke-linecap:butt; stroke-linejoin:round; stroke-width:2; stroke-opacity:0.1; fill:none" points="
  234.125,1259.35 2352.76,1259.35 
  "/>
<polyline clip-path="url(#clip662)" style="stroke:#000000; stroke-linecap:butt; stroke-linejoin:round; stroke-width:2; stroke-opacity:0.1; fill:none" points="
  234.125,1062.6 2352.76,1062.6 
  "/>
<polyline clip-path="url(#clip662)" style="stroke:#000000; stroke-linecap:butt; stroke-linejoin:round; stroke-width:2; stroke-opacity:0.1; fill:none" points="
  234.125,865.839 2352.76,865.839 
  "/>
<polyline clip-path="url(#clip662)" style="stroke:#000000; stroke-linecap:butt; stroke-linejoin:round; stroke-width:2; stroke-opacity:0.1; fill:none" points="
  234.125,669.083 2352.76,669.083 
  "/>
<polyline clip-path="url(#clip662)" style="stroke:#000000; stroke-linecap:butt; stroke-linejoin:round; stroke-width:2; stroke-opacity:0.1; fill:none" points="
  234.125,472.326 2352.76,472.326 
  "/>
<polyline clip-path="url(#clip662)" style="stroke:#000000; stroke-linecap:butt; stroke-linejoin:round; stroke-width:2; stroke-opacity:0.1; fill:none" points="
  234.125,275.57 2352.76,275.57 
  "/>
<polyline clip-path="url(#clip660)" style="stroke:#000000; stroke-linecap:butt; stroke-linejoin:round; stroke-width:4; stroke-opacity:1; fill:none" points="
  234.125,1423.18 234.125,123.472 
  "/>
<polyline clip-path="url(#clip660)" style="stroke:#000000; stroke-linecap:butt; stroke-linejoin:round; stroke-width:4; stroke-opacity:1; fill:none" points="
  234.125,1259.35 253.023,1259.35 
  "/>
<polyline clip-path="url(#clip660)" style="stroke:#000000; stroke-linecap:butt; stroke-linejoin:round; stroke-width:4; stroke-opacity:1; fill:none" points="
  234.125,1062.6 253.023,1062.6 
  "/>
<polyline clip-path="url(#clip660)" style="stroke:#000000; stroke-linecap:butt; stroke-linejoin:round; stroke-width:4; stroke-opacity:1; fill:none" points="
  234.125,865.839 253.023,865.839 
  "/>
<polyline clip-path="url(#clip660)" style="stroke:#000000; stroke-linecap:butt; stroke-linejoin:round; stroke-width:4; stroke-opacity:1; fill:none" points="
  234.125,669.083 253.023,669.083 
  "/>
<polyline clip-path="url(#clip660)" style="stroke:#000000; stroke-linecap:butt; stroke-linejoin:round; stroke-width:4; stroke-opacity:1; fill:none" points="
  234.125,472.326 253.023,472.326 
  "/>
<polyline clip-path="url(#clip660)" style="stroke:#000000; stroke-linecap:butt; stroke-linejoin:round; stroke-width:4; stroke-opacity:1; fill:none" points="
  234.125,275.57 253.023,275.57 
  "/>
<path clip-path="url(#clip660)" d="M146.066 1242.07 L164.422 1242.07 L164.422 1246.01 L150.348 1246.01 L150.348 1254.48 Q151.366 1254.13 152.385 1253.97 Q153.403 1253.78 154.422 1253.78 Q160.209 1253.78 163.589 1256.96 Q166.968 1260.13 166.968 1265.54 Q166.968 1271.12 163.496 1274.22 Q160.024 1277.3 153.704 1277.3 Q151.528 1277.3 149.26 1276.93 Q147.015 1276.56 144.607 1275.82 L144.607 1271.12 Q146.691 1272.26 148.913 1272.81 Q151.135 1273.37 153.612 1273.37 Q157.616 1273.37 159.954 1271.26 Q162.292 1269.15 162.292 1265.54 Q162.292 1261.93 159.954 1259.83 Q157.616 1257.72 153.612 1257.72 Q151.737 1257.72 149.862 1258.14 Q148.01 1258.55 146.066 1259.43 L146.066 1242.07 Z" fill="#000000" fill-rule="evenodd" fill-opacity="1" /><path clip-path="url(#clip660)" d="M186.181 1245.15 Q182.57 1245.15 180.741 1248.72 Q178.936 1252.26 178.936 1259.39 Q178.936 1266.49 180.741 1270.06 Q182.57 1273.6 186.181 1273.6 Q189.815 1273.6 191.621 1270.06 Q193.45 1266.49 193.45 1259.39 Q193.45 1252.26 191.621 1248.72 Q189.815 1245.15 186.181 1245.15 M186.181 1241.45 Q191.991 1241.45 195.047 1246.05 Q198.125 1250.64 198.125 1259.39 Q198.125 1268.11 195.047 1272.72 Q191.991 1277.3 186.181 1277.3 Q180.371 1277.3 177.292 1272.72 Q174.237 1268.11 174.237 1259.39 Q174.237 1250.64 177.292 1246.05 Q180.371 1241.45 186.181 1241.45 Z" fill="#000000" fill-rule="evenodd" fill-opacity="1" /><path clip-path="url(#clip660)" d="M116.668 1075.94 L124.306 1075.94 L124.306 1049.57 L115.996 1051.24 L115.996 1046.98 L124.26 1045.32 L128.936 1045.32 L128.936 1075.94 L136.575 1075.94 L136.575 1079.88 L116.668 1079.88 L116.668 1075.94 Z" fill="#000000" fill-rule="evenodd" fill-opacity="1" /><path clip-path="url(#clip660)" d="M156.019 1048.39 Q152.408 1048.39 150.579 1051.96 Q148.774 1055.5 148.774 1062.63 Q148.774 1069.74 150.579 1073.3 Q152.408 1076.84 156.019 1076.84 Q159.653 1076.84 161.459 1073.3 Q163.288 1069.74 163.288 1062.63 Q163.288 1055.5 161.459 1051.96 Q159.653 1048.39 156.019 1048.39 M156.019 1044.69 Q161.829 1044.69 164.885 1049.3 Q167.964 1053.88 167.964 1062.63 Q167.964 1071.36 164.885 1075.96 Q161.829 1080.55 156.019 1080.55 Q150.209 1080.55 147.13 1075.96 Q144.075 1071.36 144.075 1062.63 Q144.075 1053.88 147.13 1049.3 Q150.209 1044.69 156.019 1044.69 Z" fill="#000000" fill-rule="evenodd" fill-opacity="1" /><path clip-path="url(#clip660)" d="M186.181 1048.39 Q182.57 1048.39 180.741 1051.96 Q178.936 1055.5 178.936 1062.63 Q178.936 1069.74 180.741 1073.3 Q182.57 1076.84 186.181 1076.84 Q189.815 1076.84 191.621 1073.3 Q193.45 1069.74 193.45 1062.63 Q193.45 1055.5 191.621 1051.96 Q189.815 1048.39 186.181 1048.39 M186.181 1044.69 Q191.991 1044.69 195.047 1049.3 Q198.125 1053.88 198.125 1062.63 Q198.125 1071.36 195.047 1075.96 Q191.991 1080.55 186.181 1080.55 Q180.371 1080.55 177.292 1075.96 Q174.237 1071.36 174.237 1062.63 Q174.237 1053.88 177.292 1049.3 Q180.371 1044.69 186.181 1044.69 Z" fill="#000000" fill-rule="evenodd" fill-opacity="1" /><path clip-path="url(#clip660)" d="M116.668 879.184 L124.306 879.184 L124.306 852.818 L115.996 854.485 L115.996 850.226 L124.26 848.559 L128.936 848.559 L128.936 879.184 L136.575 879.184 L136.575 883.119 L116.668 883.119 L116.668 879.184 Z" fill="#000000" fill-rule="evenodd" fill-opacity="1" /><path clip-path="url(#clip660)" d="M146.066 848.559 L164.422 848.559 L164.422 852.494 L150.348 852.494 L150.348 860.966 Q151.366 860.619 152.385 860.457 Q153.403 860.272 154.422 860.272 Q160.209 860.272 163.589 863.443 Q166.968 866.614 166.968 872.031 Q166.968 877.61 163.496 880.712 Q160.024 883.79 153.704 883.79 Q151.528 883.79 149.26 883.42 Q147.015 883.05 144.607 882.309 L144.607 877.61 Q146.691 878.744 148.913 879.3 Q151.135 879.855 153.612 879.855 Q157.616 879.855 159.954 877.749 Q162.292 875.642 162.292 872.031 Q162.292 868.42 159.954 866.314 Q157.616 864.207 153.612 864.207 Q151.737 864.207 149.862 864.624 Q148.01 865.04 146.066 865.92 L146.066 848.559 Z" fill="#000000" fill-rule="evenodd" fill-opacity="1" /><path clip-path="url(#clip660)" d="M186.181 851.638 Q182.57 851.638 180.741 855.202 Q178.936 858.744 178.936 865.874 Q178.936 872.98 180.741 876.545 Q182.57 880.087 186.181 880.087 Q189.815 880.087 191.621 876.545 Q193.45 872.98 193.45 865.874 Q193.45 858.744 191.621 855.202 Q189.815 851.638 186.181 851.638 M186.181 847.934 Q191.991 847.934 195.047 852.54 Q198.125 857.124 198.125 865.874 Q198.125 874.6 195.047 879.207 Q191.991 883.79 186.181 883.79 Q180.371 883.79 177.292 879.207 Q174.237 874.6 174.237 865.874 Q174.237 857.124 177.292 852.54 Q180.371 847.934 186.181 847.934 Z" fill="#000000" fill-rule="evenodd" fill-opacity="1" /><path clip-path="url(#clip660)" d="M119.885 682.427 L136.204 682.427 L136.204 686.363 L114.26 686.363 L114.26 682.427 Q116.922 679.673 121.505 675.043 Q126.112 670.39 127.292 669.048 Q129.538 666.525 130.417 664.789 Q131.32 663.029 131.32 661.34 Q131.32 658.585 129.376 656.849 Q127.455 655.113 124.353 655.113 Q122.154 655.113 119.7 655.877 Q117.269 656.641 114.492 658.191 L114.492 653.469 Q117.316 652.335 119.769 651.756 Q122.223 651.178 124.26 651.178 Q129.63 651.178 132.825 653.863 Q136.019 656.548 136.019 661.039 Q136.019 663.168 135.209 665.09 Q134.422 666.988 132.316 669.58 Q131.737 670.252 128.635 673.469 Q125.533 676.664 119.885 682.427 Z" fill="#000000" fill-rule="evenodd" fill-opacity="1" /><path clip-path="url(#clip660)" d="M156.019 654.881 Q152.408 654.881 150.579 658.446 Q148.774 661.988 148.774 669.117 Q148.774 676.224 150.579 679.789 Q152.408 683.33 156.019 683.33 Q159.653 683.33 161.459 679.789 Q163.288 676.224 163.288 669.117 Q163.288 661.988 161.459 658.446 Q159.653 654.881 156.019 654.881 M156.019 651.178 Q161.829 651.178 164.885 655.784 Q167.964 660.367 167.964 669.117 Q167.964 677.844 164.885 682.451 Q161.829 687.034 156.019 687.034 Q150.209 687.034 147.13 682.451 Q144.075 677.844 144.075 669.117 Q144.075 660.367 147.13 655.784 Q150.209 651.178 156.019 651.178 Z" fill="#000000" fill-rule="evenodd" fill-opacity="1" /><path clip-path="url(#clip660)" d="M186.181 654.881 Q182.57 654.881 180.741 658.446 Q178.936 661.988 178.936 669.117 Q178.936 676.224 180.741 679.789 Q182.57 683.33 186.181 683.33 Q189.815 683.33 191.621 679.789 Q193.45 676.224 193.45 669.117 Q193.45 661.988 191.621 658.446 Q189.815 654.881 186.181 654.881 M186.181 651.178 Q191.991 651.178 195.047 655.784 Q198.125 660.367 198.125 669.117 Q198.125 677.844 195.047 682.451 Q191.991 687.034 186.181 687.034 Q180.371 687.034 177.292 682.451 Q174.237 677.844 174.237 669.117 Q174.237 660.367 177.292 655.784 Q180.371 651.178 186.181 651.178 Z" fill="#000000" fill-rule="evenodd" fill-opacity="1" /><path clip-path="url(#clip660)" d="M119.885 485.671 L136.204 485.671 L136.204 489.606 L114.26 489.606 L114.26 485.671 Q116.922 482.917 121.505 478.287 Q126.112 473.634 127.292 472.292 Q129.538 469.768 130.417 468.032 Q131.32 466.273 131.32 464.583 Q131.32 461.829 129.376 460.093 Q127.455 458.356 124.353 458.356 Q122.154 458.356 119.7 459.12 Q117.269 459.884 114.492 461.435 L114.492 456.713 Q117.316 455.579 119.769 455 Q122.223 454.421 124.26 454.421 Q129.63 454.421 132.825 457.106 Q136.019 459.792 136.019 464.282 Q136.019 466.412 135.209 468.333 Q134.422 470.231 132.316 472.824 Q131.737 473.495 128.635 476.713 Q125.533 479.907 119.885 485.671 Z" fill="#000000" fill-rule="evenodd" fill-opacity="1" /><path clip-path="url(#clip660)" d="M146.066 455.046 L164.422 455.046 L164.422 458.981 L150.348 458.981 L150.348 467.454 Q151.366 467.106 152.385 466.944 Q153.403 466.759 154.422 466.759 Q160.209 466.759 163.589 469.93 Q166.968 473.102 166.968 478.518 Q166.968 484.097 163.496 487.199 Q160.024 490.278 153.704 490.278 Q151.528 490.278 149.26 489.907 Q147.015 489.537 144.607 488.796 L144.607 484.097 Q146.691 485.231 148.913 485.787 Q151.135 486.342 153.612 486.342 Q157.616 486.342 159.954 484.236 Q162.292 482.129 162.292 478.518 Q162.292 474.907 159.954 472.801 Q157.616 470.694 153.612 470.694 Q151.737 470.694 149.862 471.111 Q148.01 471.528 146.066 472.407 L146.066 455.046 Z" fill="#000000" fill-rule="evenodd" fill-opacity="1" /><path clip-path="url(#clip660)" d="M186.181 458.125 Q182.57 458.125 180.741 461.69 Q178.936 465.231 178.936 472.361 Q178.936 479.467 180.741 483.032 Q182.57 486.574 186.181 486.574 Q189.815 486.574 191.621 483.032 Q193.45 479.467 193.45 472.361 Q193.45 465.231 191.621 461.69 Q189.815 458.125 186.181 458.125 M186.181 454.421 Q191.991 454.421 195.047 459.028 Q198.125 463.611 198.125 472.361 Q198.125 481.088 195.047 485.694 Q191.991 490.278 186.181 490.278 Q180.371 490.278 177.292 485.694 Q174.237 481.088 174.237 472.361 Q174.237 463.611 177.292 459.028 Q180.371 454.421 186.181 454.421 Z" fill="#000000" fill-rule="evenodd" fill-opacity="1" /><path clip-path="url(#clip660)" d="M130.024 274.216 Q133.38 274.933 135.255 277.202 Q137.154 279.47 137.154 282.804 Q137.154 287.919 133.635 290.72 Q130.117 293.521 123.635 293.521 Q121.459 293.521 119.144 293.081 Q116.853 292.665 114.399 291.808 L114.399 287.294 Q116.343 288.429 118.658 289.007 Q120.973 289.586 123.496 289.586 Q127.894 289.586 130.186 287.85 Q132.501 286.114 132.501 282.804 Q132.501 279.748 130.348 278.035 Q128.218 276.299 124.399 276.299 L120.371 276.299 L120.371 272.457 L124.584 272.457 Q128.033 272.457 129.862 271.091 Q131.691 269.702 131.691 267.109 Q131.691 264.447 129.792 263.035 Q127.917 261.6 124.399 261.6 Q122.478 261.6 120.279 262.017 Q118.08 262.433 115.441 263.313 L115.441 259.146 Q118.103 258.406 120.418 258.035 Q122.755 257.665 124.816 257.665 Q130.14 257.665 133.242 260.095 Q136.343 262.503 136.343 266.623 Q136.343 269.494 134.7 271.484 Q133.056 273.452 130.024 274.216 Z" fill="#000000" fill-rule="evenodd" fill-opacity="1" /><path clip-path="url(#clip660)" d="M156.019 261.369 Q152.408 261.369 150.579 264.933 Q148.774 268.475 148.774 275.605 Q148.774 282.711 150.579 286.276 Q152.408 289.818 156.019 289.818 Q159.653 289.818 161.459 286.276 Q163.288 282.711 163.288 275.605 Q163.288 268.475 161.459 264.933 Q159.653 261.369 156.019 261.369 M156.019 257.665 Q161.829 257.665 164.885 262.271 Q167.964 266.855 167.964 275.605 Q167.964 284.331 164.885 288.938 Q161.829 293.521 156.019 293.521 Q150.209 293.521 147.13 288.938 Q144.075 284.331 144.075 275.605 Q144.075 266.855 147.13 262.271 Q150.209 257.665 156.019 257.665 Z" fill="#000000" fill-rule="evenodd" fill-opacity="1" /><path clip-path="url(#clip660)" d="M186.181 261.369 Q182.57 261.369 180.741 264.933 Q178.936 268.475 178.936 275.605 Q178.936 282.711 180.741 286.276 Q182.57 289.818 186.181 289.818 Q189.815 289.818 191.621 286.276 Q193.45 282.711 193.45 275.605 Q193.45 268.475 191.621 264.933 Q189.815 261.369 186.181 261.369 M186.181 257.665 Q191.991 257.665 195.047 262.271 Q198.125 266.855 198.125 275.605 Q198.125 284.331 195.047 288.938 Q191.991 293.521 186.181 293.521 Q180.371 293.521 177.292 288.938 Q174.237 284.331 174.237 275.605 Q174.237 266.855 177.292 262.271 Q180.371 257.665 186.181 257.665 Z" fill="#000000" fill-rule="evenodd" fill-opacity="1" /><path clip-path="url(#clip660)" d="M58.657 873.22 L77.5631 873.22 L77.5631 879.108 L28.3562 879.108 L28.3562 873.22 L33.7671 873.22 Q30.5842 871.374 29.0564 868.573 Q27.4968 865.74 27.4968 861.825 Q27.4968 855.332 32.6531 851.29 Q37.8093 847.216 46.212 847.216 Q54.6147 847.216 59.771 851.29 Q64.9272 855.332 64.9272 861.825 Q64.9272 865.74 63.3994 868.573 Q61.8398 871.374 58.657 873.22 M46.212 853.295 Q39.7508 853.295 36.0905 855.969 Q32.3984 858.611 32.3984 863.258 Q32.3984 867.904 36.0905 870.578 Q39.7508 873.22 46.212 873.22 Q52.6732 873.22 56.3653 870.578 Q60.0256 867.904 60.0256 863.258 Q60.0256 858.611 56.3653 855.969 Q52.6732 853.295 46.212 853.295 Z" fill="#000000" fill-rule="evenodd" fill-opacity="1" /><path clip-path="url(#clip660)" d="M44.7161 807.016 L47.5806 807.016 L47.5806 833.943 Q53.6281 833.561 56.8109 830.315 Q59.9619 827.037 59.9619 821.212 Q59.9619 817.838 59.1344 814.687 Q58.3069 811.504 56.6518 808.385 L62.1899 808.385 Q63.5267 811.536 64.227 814.846 Q64.9272 818.156 64.9272 821.562 Q64.9272 830.092 59.9619 835.089 Q54.9967 840.055 46.5303 840.055 Q37.7774 840.055 32.6531 835.344 Q27.4968 830.601 27.4968 822.581 Q27.4968 815.387 32.1438 811.218 Q36.7589 807.016 44.7161 807.016 M42.9973 812.873 Q38.1912 812.937 35.3266 815.578 Q32.4621 818.188 32.4621 822.517 Q32.4621 827.419 35.2312 830.379 Q38.0002 833.307 43.0292 833.752 L42.9973 812.873 Z" fill="#000000" fill-rule="evenodd" fill-opacity="1" /><path clip-path="url(#clip660)" d="M32.4621 783.591 Q32.4621 788.301 36.1542 791.039 Q39.8145 793.776 46.212 793.776 Q52.6095 793.776 56.3017 791.07 Q59.9619 788.333 59.9619 783.591 Q59.9619 778.912 56.2698 776.175 Q52.5777 773.437 46.212 773.437 Q39.8781 773.437 36.186 776.175 Q32.4621 778.912 32.4621 783.591 M27.4968 783.591 Q27.4968 775.952 32.4621 771.591 Q37.4273 767.231 46.212 767.231 Q54.9649 767.231 59.9619 771.591 Q64.9272 775.952 64.9272 783.591 Q64.9272 791.261 59.9619 795.622 Q54.9649 799.951 46.212 799.951 Q37.4273 799.951 32.4621 795.622 Q27.4968 791.261 27.4968 783.591 Z" fill="#000000" fill-rule="evenodd" fill-opacity="1" /><path clip-path="url(#clip660)" d="M58.657 751.858 L77.5631 751.858 L77.5631 757.746 L28.3562 757.746 L28.3562 751.858 L33.7671 751.858 Q30.5842 750.012 29.0564 747.211 Q27.4968 744.378 27.4968 740.463 Q27.4968 733.97 32.6531 729.928 Q37.8093 725.854 46.212 725.854 Q54.6147 725.854 59.771 729.928 Q64.9272 733.97 64.9272 740.463 Q64.9272 744.378 63.3994 747.211 Q61.8398 750.012 58.657 751.858 M46.212 731.933 Q39.7508 731.933 36.0905 734.607 Q32.3984 737.248 32.3984 741.895 Q32.3984 746.542 36.0905 749.216 Q39.7508 751.858 46.212 751.858 Q52.6732 751.858 56.3653 749.216 Q60.0256 746.542 60.0256 741.895 Q60.0256 737.248 56.3653 734.607 Q52.6732 731.933 46.212 731.933 Z" fill="#000000" fill-rule="evenodd" fill-opacity="1" /><path clip-path="url(#clip660)" d="M14.479 716.146 L14.479 710.29 L64.0042 710.29 L64.0042 716.146 L14.479 716.146 Z" fill="#000000" fill-rule="evenodd" fill-opacity="1" /><path clip-path="url(#clip660)" d="M44.7161 667.544 L47.5806 667.544 L47.5806 694.471 Q53.6281 694.089 56.8109 690.842 Q59.9619 687.564 59.9619 681.739 Q59.9619 678.366 59.1344 675.215 Q58.3069 672.032 56.6518 668.912 L62.1899 668.912 Q63.5267 672.064 64.227 675.374 Q64.9272 678.684 64.9272 682.089 Q64.9272 690.62 59.9619 695.617 Q54.9967 700.582 46.5303 700.582 Q37.7774 700.582 32.6531 695.871 Q27.4968 691.129 27.4968 683.108 Q27.4968 675.915 32.1438 671.745 Q36.7589 667.544 44.7161 667.544 M42.9973 673.4 Q38.1912 673.464 35.3266 676.106 Q32.4621 678.716 32.4621 683.044 Q32.4621 687.946 35.2312 690.906 Q38.0002 693.834 43.0292 694.28 L42.9973 673.4 Z" fill="#000000" fill-rule="evenodd" fill-opacity="1" /><path clip-path="url(#clip660)" d="M1125.35 12.096 L1163.59 12.096 L1163.59 18.9825 L1133.53 18.9825 L1133.53 36.8875 L1162.33 36.8875 L1162.33 43.7741 L1133.53 43.7741 L1133.53 65.6895 L1164.32 65.6895 L1164.32 72.576 L1125.35 72.576 L1125.35 12.096 Z" fill="#000000" fill-rule="evenodd" fill-opacity="1" /><path clip-path="url(#clip660)" d="M1215.16 27.2059 L1198.75 49.2833 L1216.01 72.576 L1207.22 72.576 L1194.01 54.752 L1180.81 72.576 L1172.01 72.576 L1189.64 48.8377 L1173.51 27.2059 L1182.3 27.2059 L1194.34 43.369 L1206.37 27.2059 L1215.16 27.2059 Z" fill="#000000" fill-rule="evenodd" fill-opacity="1" /><path clip-path="url(#clip660)" d="M1233.75 65.7705 L1233.75 89.8329 L1226.26 89.8329 L1226.26 27.2059 L1233.75 27.2059 L1233.75 34.0924 Q1236.1 30.0415 1239.66 28.0971 Q1243.27 26.1121 1248.25 26.1121 Q1256.52 26.1121 1261.66 32.6746 Q1266.85 39.2371 1266.85 49.9314 Q1266.85 60.6258 1261.66 67.1883 Q1256.52 73.7508 1248.25 73.7508 Q1243.27 73.7508 1239.66 71.8063 Q1236.1 69.8214 1233.75 65.7705 M1259.11 49.9314 Q1259.11 41.7081 1255.71 37.0496 Q1252.34 32.3505 1246.43 32.3505 Q1240.52 32.3505 1237.11 37.0496 Q1233.75 41.7081 1233.75 49.9314 Q1233.75 58.1548 1237.11 62.8538 Q1240.52 67.5124 1246.43 67.5124 Q1252.34 67.5124 1255.71 62.8538 Q1259.11 58.1548 1259.11 49.9314 Z" fill="#000000" fill-rule="evenodd" fill-opacity="1" /><path clip-path="url(#clip660)" d="M1296.78 32.4315 Q1290.79 32.4315 1287.3 37.1306 Q1283.82 41.7891 1283.82 49.9314 Q1283.82 58.0738 1287.26 62.7728 Q1290.75 67.4314 1296.78 67.4314 Q1302.74 67.4314 1306.22 62.7323 Q1309.71 58.0333 1309.71 49.9314 Q1309.71 41.8701 1306.22 37.1711 Q1302.74 32.4315 1296.78 32.4315 M1296.78 26.1121 Q1306.5 26.1121 1312.05 32.4315 Q1317.6 38.7509 1317.6 49.9314 Q1317.6 61.0714 1312.05 67.4314 Q1306.5 73.7508 1296.78 73.7508 Q1287.02 73.7508 1281.47 67.4314 Q1275.96 61.0714 1275.96 49.9314 Q1275.96 38.7509 1281.47 32.4315 Q1287.02 26.1121 1296.78 26.1121 Z" fill="#000000" fill-rule="evenodd" fill-opacity="1" /><path clip-path="url(#clip660)" d="M1358.88 28.5427 L1358.88 35.5912 Q1355.72 33.9709 1352.32 33.1607 Q1348.92 32.3505 1345.27 32.3505 Q1339.72 32.3505 1336.93 34.0519 Q1334.17 35.7533 1334.17 39.156 Q1334.17 41.7486 1336.16 43.2475 Q1338.14 44.7058 1344.14 46.0426 L1346.69 46.6097 Q1354.63 48.3111 1357.95 51.4303 Q1361.31 54.509 1361.31 60.0587 Q1361.31 66.3781 1356.29 70.0644 Q1351.31 73.7508 1342.56 73.7508 Q1338.91 73.7508 1334.94 73.0216 Q1331.01 72.3329 1326.64 70.9151 L1326.64 63.2184 Q1330.77 65.3654 1334.78 66.4591 Q1338.79 67.5124 1342.72 67.5124 Q1347.99 67.5124 1350.82 65.73 Q1353.66 63.9071 1353.66 60.6258 Q1353.66 57.5877 1351.59 55.9673 Q1349.57 54.3469 1342.64 52.8481 L1340.05 52.2405 Q1333.12 50.7821 1330.04 47.7845 Q1326.96 44.7463 1326.96 39.4801 Q1326.96 33.0797 1331.5 29.5959 Q1336.04 26.1121 1344.38 26.1121 Q1348.51 26.1121 1352.16 26.7198 Q1355.8 27.3274 1358.88 28.5427 Z" fill="#000000" fill-rule="evenodd" fill-opacity="1" /><path clip-path="url(#clip660)" d="M1411.99 48.0275 L1411.99 51.6733 L1377.72 51.6733 Q1378.21 59.3701 1382.34 63.421 Q1386.51 67.4314 1393.92 67.4314 Q1398.22 67.4314 1402.23 66.3781 Q1406.28 65.3249 1410.25 63.2184 L1410.25 70.267 Q1406.24 71.9684 1402.03 72.8596 Q1397.81 73.7508 1393.48 73.7508 Q1382.62 73.7508 1376.26 67.4314 Q1369.94 61.1119 1369.94 50.3365 Q1369.94 39.1965 1375.94 32.6746 Q1381.97 26.1121 1392.18 26.1121 Q1401.34 26.1121 1406.64 32.0264 Q1411.99 37.9003 1411.99 48.0275 M1404.54 45.84 Q1404.46 39.7232 1401.09 36.0774 Q1397.77 32.4315 1392.26 32.4315 Q1386.02 32.4315 1382.26 35.9558 Q1378.53 39.4801 1377.96 45.8805 L1404.54 45.84 Z" fill="#000000" fill-rule="evenodd" fill-opacity="1" /><path clip-path="url(#clip660)" d="M1454.08 34.0924 L1454.08 9.54393 L1461.53 9.54393 L1461.53 72.576 L1454.08 72.576 L1454.08 65.7705 Q1451.73 69.8214 1448.12 71.8063 Q1444.56 73.7508 1439.54 73.7508 Q1431.31 73.7508 1426.13 67.1883 Q1420.98 60.6258 1420.98 49.9314 Q1420.98 39.2371 1426.13 32.6746 Q1431.31 26.1121 1439.54 26.1121 Q1444.56 26.1121 1448.12 28.0971 Q1451.73 30.0415 1454.08 34.0924 M1428.68 49.9314 Q1428.68 58.1548 1432.04 62.8538 Q1435.45 67.5124 1441.36 67.5124 Q1447.27 67.5124 1450.68 62.8538 Q1454.08 58.1548 1454.08 49.9314 Q1454.08 41.7081 1450.68 37.0496 Q1447.27 32.3505 1441.36 32.3505 Q1435.45 32.3505 1432.04 37.0496 Q1428.68 41.7081 1428.68 49.9314 Z" fill="#000000" fill-rule="evenodd" fill-opacity="1" /><polyline clip-path="url(#clip662)" style="stroke:#009af9; stroke-linecap:butt; stroke-linejoin:round; stroke-width:4; stroke-opacity:1; fill:none" points="
  234.125,1370.29 239.422,1358.17 244.719,1345.96 250.015,1333.55 255.312,1320.86 260.608,1307.75 265.905,1293.61 271.201,1282.4 276.498,1266.96 281.795,1250.81 
  287.091,1233.99 292.388,1216.46 297.684,1198.2 302.981,1179.09 308.278,1159.26 313.574,1139.45 318.871,1119.21 324.167,1098.03 329.464,1075.99 334.76,1053.1 
  340.057,1028.96 345.354,1004.38 350.65,980.175 355.947,956.528 361.243,933.047 366.54,908.847 371.836,884.464 377.133,857.179 382.43,825.68 387.726,792.01 
  393.023,757.67 398.319,722.565 403.616,686.803 408.912,650.496 414.209,612.343 419.506,571.82 424.802,530.06 430.099,487.891 435.395,445.841 440.692,404.138 
  445.988,362.705 451.285,319.328 456.582,276.411 461.878,243.656 467.175,222.83 472.471,207.305 477.768,190.967 483.065,176.805 488.361,166.848 493.658,161.643 
  498.954,160.256 504.251,161.513 509.547,165.341 514.844,171.599 520.141,180.153 525.437,190.82 530.734,202.854 536.03,216.065 541.327,230.503 546.623,246.243 
  551.92,263.38 557.217,282.037 562.513,302.424 567.81,324.848 573.106,348.893 578.403,374.178 583.699,400.47 588.996,427.365 594.293,454.935 599.589,484.147 
  604.886,515.303 610.182,548.004 615.479,581.164 620.776,614.387 626.072,647.5 631.369,679.995 636.665,711.603 641.962,742.291 647.258,772.257 652.555,801.911 
  657.852,831.199 663.148,860.05 668.445,888.497 673.741,916.532 679.038,944.107 684.334,971.135 689.631,997.486 694.928,1023.08 700.224,1048.07 705.521,1072.18 
  710.817,1095.13 716.114,1116.78 721.41,1137.08 726.707,1156.11 732.004,1174.04 737.3,1191.17 742.597,1207.83 747.893,1223.99 753.19,1239.45 758.486,1254.04 
  763.783,1267.62 769.08,1280.1 774.376,1291.41 779.673,1301.5 784.969,1310.37 790.266,1318.05 795.563,1324.71 800.859,1330.48 806.156,1335.5 811.452,1339.87 
  816.749,1343.65 822.045,1346.88 827.342,1349.54 832.639,1351.68 837.935,1353.34 843.232,1354.56 848.528,1355.38 853.825,1355.79 859.121,1355.8 864.418,1355.27 
  869.715,1354.17 875.011,1352.51 880.308,1350.3 885.604,1347.54 890.901,1344.22 896.197,1340.33 901.494,1335.72 906.791,1330.23 912.087,1323.82 917.384,1316.42 
  922.68,1307.99 927.977,1299.01 933.273,1289.33 938.57,1278.82 943.867,1267.52 949.163,1255.67 954.46,1243.65 959.756,1231.18 965.053,1217.89 970.35,1203.6 
  975.646,1188.35 980.943,1172.39 986.239,1155.53 991.536,1137.94 996.832,1120.74 1002.13,1104.27 1007.43,1088.1 1012.72,1070.99 1018.02,1051.98 1023.32,1032.67 
  1028.61,1013.24 1033.91,993.744 1039.21,974.228 1044.5,954.669 1049.8,934.423 1055.09,913.524 1060.39,892.196 1065.69,870.655 1070.98,849.107 1076.28,827.752 
  1081.58,806.782 1086.87,785.411 1092.17,759.398 1097.47,731.277 1102.76,703.303 1108.06,676.18 1113.36,649.267 1118.65,622.638 1123.95,596.991 1129.25,572.788 
  1134.54,550.251 1139.84,529.362 1145.14,510.269 1150.43,492.699 1155.73,476.135 1161.03,460.368 1166.32,445.49 1171.62,431.895 1176.92,420.544 1182.21,411.054 
  1187.51,402.285 1192.81,393.659 1198.1,385.165 1203.4,377.362 1208.7,371.331 1213.99,367.324 1219.29,365.29 1224.59,365.378 1229.88,367.651 1235.18,372.085 
  1240.47,378.57 1245.77,386.938 1251.07,397.369 1256.36,409.72 1261.66,423.734 1266.96,439.208 1272.25,455.983 1277.55,473.955 1282.85,493.064 1288.14,513.305 
  1293.44,534.718 1298.74,557.204 1304.03,579.522 1309.33,601.244 1314.63,622.21 1319.92,642.34 1325.22,661.63 1330.52,680.154 1335.81,698.042 1341.11,715.012 
  1346.41,731.041 1351.7,746.278 1357,760.858 1362.3,774.904 1367.59,788.527 1372.89,801.824 1378.19,814.88 1383.48,827.853 1388.78,841.233 1394.08,854.753 
  1399.37,868.147 1404.67,881.302 1409.97,894.261 1415.26,907.197 1420.56,919.129 1425.86,930.017 1431.15,940.488 1436.45,950.885 1441.74,961.268 1447.04,971.571 
  1452.34,981.947 1457.63,991.981 1462.93,1001.36 1468.23,1009.93 1473.52,1017.71 1478.82,1024.91 1484.12,1031.87 1489.41,1038.96 1494.71,1046.16 1500.01,1053.35 
  1505.3,1060.43 1510.6,1067.37 1515.9,1074.14 1521.19,1080.78 1526.49,1087.25 1531.79,1093.46 1537.08,1099.47 1542.38,1105.32 1547.68,1111.05 1552.97,1116.68 
  1558.27,1122.23 1563.57,1127.71 1568.86,1133.09 1574.16,1138.33 1579.46,1143.5 1584.75,1148.73 1590.05,1154.13 1595.35,1159.73 1600.64,1165.54 1605.94,1171.5 
  1611.24,1177.5 1616.53,1183.41 1621.83,1189.19 1627.12,1194.86 1632.42,1200.43 1637.72,1205.93 1643.01,1211.33 1648.31,1216.66 1653.61,1221.88 1658.9,1227 
  1664.2,1232.02 1669.5,1236.94 1674.79,1241.76 1680.09,1246.49 1685.39,1251.13 1690.68,1255.68 1695.98,1260.14 1701.28,1264.51 1706.57,1268.78 1711.87,1272.95 
  1717.17,1276.92 1722.46,1280.46 1727.76,1283.4 1733.06,1285.63 1738.35,1287.1 1743.65,1287.84 1748.95,1287.89 1754.24,1287.54 1759.54,1286.82 1764.84,1285.52 
  1770.13,1283.5 1775.43,1280.69 1780.73,1277.08 1786.02,1272.57 1791.32,1267.05 1796.62,1260.53 1801.91,1252.96 1807.21,1244.27 1812.51,1234.33 1817.8,1222.99 
  1823.1,1210.53 1828.39,1197.33 1833.69,1183.52 1838.99,1169.21 1844.28,1154.49 1849.58,1139.44 1854.88,1124.11 1860.17,1108.59 1865.47,1092.76 1870.77,1076.5 
  1876.06,1059.83 1881.36,1042.88 1886.66,1025.93 1891.95,1009.06 1897.25,992.285 1902.55,975.741 1907.84,959.503 1913.14,943.598 1918.44,927.996 1923.73,912.617 
  1929.03,897.152 1934.33,880.574 1939.62,863.275 1944.92,845.78 1950.22,828.485 1955.51,811.659 1960.81,795.439 1966.11,779.834 1971.4,764.625 1976.7,749.052 
  1982,732.815 1987.29,715.791 1992.59,697.947 1997.89,679.35 2003.18,660.161 2008.48,640.629 2013.78,620.834 2019.07,600.725 2024.37,580.273 2029.66,559.437 
  2034.96,538.161 2040.26,516.392 2045.55,495.599 2050.85,476.103 2056.15,457.139 2061.44,438.152 2066.74,418.792 2072.04,398.916 2077.33,378.588 2082.63,359.507 
  2087.93,343.571 2093.22,329.102 2098.52,314.832 2103.82,300.004 2109.11,284.374 2114.41,268.208 2119.71,253.928 2125,247.747 2130.3,246.707 2135.6,247.922 
  2140.89,249.709 2146.19,251.603 2151.49,254.21 2156.78,256.997 2162.08,259.497 2167.38,261.808 2172.67,264.381 2177.97,267.181 2183.27,270.091 2188.56,273.035 
  2193.86,275.975 2199.16,278.909 2204.45,281.894 2209.75,285.607 2215.04,289.356 2220.34,292.189 2225.64,293.618 2230.93,293.623 2236.23,292.648 2241.53,291.6 
  2246.82,291.764 2252.12,293.084 2257.42,294.318 2262.71,294.634 2268.01,293.668 2273.31,291.525 2278.6,288.783 2283.9,286.139 2289.2,283.328 2294.49,281.206 
  2299.79,280.221 2305.09,280.195 2310.38,280.319 2315.68,279.156 2320.98,274.896 2326.27,268.464 2331.57,260.186 2336.87,250.016 2342.16,238.15 2347.46,225.029 
  2352.76,211.31 
  "/>
<polyline clip-path="url(#clip662)" style="stroke:#e26f46; stroke-linecap:butt; stroke-linejoin:round; stroke-width:4; stroke-opacity:1; fill:none" points="
  234.125,1340.85 239.422,1343.78 244.719,1344.84 250.015,1344.28 255.312,1342.29 260.608,1339.08 265.905,1335.06 271.201,1328.12 276.498,1322.64 281.795,1316.17 
  287.091,1308.72 292.388,1300.38 297.684,1291.2 302.981,1281.42 308.278,1270.77 313.574,1257.37 318.871,1242.4 324.167,1227.24 329.464,1211.74 334.76,1195.95 
  340.057,1181 345.354,1164.87 350.65,1145.65 355.947,1122.93 361.243,1097.85 366.54,1073.04 371.836,1049.71 377.133,1025.28 382.43,998.738 387.726,971.2 
  393.023,943.536 398.319,915.639 403.616,887.533 408.912,859.25 414.209,831.124 419.506,803.054 424.802,774.584 430.099,745.49 435.395,715.777 440.692,685.682 
  445.988,655.673 451.285,625.783 456.582,596.014 461.878,568.352 467.175,543.839 472.471,522.276 477.768,498.457 483.065,481.815 488.361,480.817 493.658,494.425 
  498.954,512.145 504.251,526.646 509.547,540.502 514.844,554.01 520.141,567.428 525.437,580.569 530.734,589.54 536.03,596.133 541.327,603.026 546.623,611.805 
  551.92,622.961 557.217,635.893 562.513,649.76 567.81,667.156 573.106,686.299 578.403,705.679 583.699,725.054 588.996,744.916 594.293,765.089 599.589,785.766 
  604.886,807.03 610.182,828.82 615.479,850.935 620.776,873.291 626.072,895.696 631.369,917.893 636.665,939.723 641.962,961.122 647.258,982.127 652.555,1002.85 
  657.852,1023.22 663.148,1043.26 668.445,1063.06 673.741,1082.63 679.038,1101.96 684.334,1120.94 689.631,1139.43 694.928,1157.31 700.224,1174.71 705.521,1191.46 
  710.817,1207.39 716.114,1222.43 721.41,1236.53 726.707,1249.75 732.004,1262.21 737.3,1274.09 742.597,1285.64 747.893,1296.86 753.19,1307.59 758.486,1317.71 
  763.783,1327.1 769.08,1335.7 774.376,1343.47 779.673,1350.41 784.969,1356.49 790.266,1361.61 795.563,1365.95 800.859,1369.7 806.156,1372.98 811.452,1375.89 
  816.749,1378.43 822.045,1380.58 827.342,1382.34 832.639,1383.74 837.935,1384.83 843.232,1385.62 848.528,1386.15 853.825,1386.4 859.121,1386.33 864.418,1385.38 
  869.715,1383.7 875.011,1381.62 880.308,1379.31 885.604,1376.83 890.901,1374.11 896.197,1370.92 901.494,1366.56 906.791,1361.19 912.087,1355.22 917.384,1348.73 
  922.68,1341.53 927.977,1333.93 933.273,1325.89 938.57,1317.31 943.867,1308.21 949.163,1298.73 954.46,1289.18 959.756,1279.29 965.053,1268.64 970.35,1257.07 
  975.646,1244.64 980.943,1231.65 986.239,1218.56 991.536,1205.21 996.832,1191.29 1002.13,1176.75 1007.43,1161.82 1012.72,1147.02 1018.02,1132.73 1023.32,1118.21 
  1028.61,1103.47 1033.91,1088.57 1039.21,1073.56 1044.5,1058.3 1049.8,1041.16 1055.09,1022.71 1060.39,1003.83 1065.69,985.145 1070.98,966.99 1076.28,949.45 
  1081.58,932.334 1086.87,914.437 1092.17,892.259 1097.47,868.269 1102.76,844.548 1108.06,821.732 1113.36,798.791 1118.65,775.683 1123.95,755.067 1129.25,738.195 
  1134.54,724.702 1139.84,712.611 1145.14,701.072 1150.43,690.121 1155.73,678.817 1161.03,666.881 1166.32,654.691 1171.62,643.286 1176.92,633.922 1182.21,626.081 
  1187.51,618.909 1192.81,611.971 1198.1,605.245 1203.4,599.127 1208.7,594.402 1213.99,591.282 1219.29,589.709 1224.59,589.765 1229.88,591.485 1235.18,594.863 
  1240.47,599.844 1245.77,606.355 1251.07,614.555 1256.36,624.301 1261.66,635.368 1266.96,647.579 1272.25,660.802 1277.55,674.953 1282.85,689.992 1288.14,705.928 
  1293.44,722.815 1298.74,740.702 1304.03,758.885 1309.33,776.329 1314.63,792.393 1319.92,806.841 1325.22,819.845 1330.52,831.982 1335.81,844.138 1341.11,855.474 
  1346.41,865.9 1351.7,875.9 1357,885.819 1362.3,895.864 1367.59,906.105 1372.89,916.474 1378.19,926.764 1383.48,937.162 1388.78,950.414 1394.08,965.335 
  1399.37,980.429 1404.67,994.764 1409.97,1007.97 1415.26,1020.23 1420.56,1031.22 1425.86,1041.11 1431.15,1050.43 1436.45,1059.47 1441.74,1068.34 1447.04,1077.06 
  1452.34,1085.84 1457.63,1094.16 1462.93,1101.63 1468.23,1108.1 1473.52,1113.65 1478.82,1118.59 1484.12,1123.45 1489.41,1128.63 1494.71,1133.97 1500.01,1139.37 
  1505.3,1144.75 1510.6,1150.04 1515.9,1155.23 1521.19,1160.34 1526.49,1165.32 1531.79,1170.1 1537.08,1174.71 1542.38,1179.22 1547.68,1183.66 1552.97,1188.05 
  1558.27,1192.39 1563.57,1196.69 1568.86,1200.92 1574.16,1205.03 1579.46,1209.16 1584.75,1213.45 1590.05,1218.01 1595.35,1222.84 1600.64,1227.92 1605.94,1233.14 
  1611.24,1238.31 1616.53,1243.22 1621.83,1247.91 1627.12,1252.48 1632.42,1257 1637.72,1261.47 1643.01,1265.92 1648.31,1270.31 1653.61,1274.59 1658.9,1278.73 
  1664.2,1282.77 1669.5,1286.7 1674.79,1290.53 1680.09,1294.27 1685.39,1297.9 1690.68,1301.44 1695.98,1304.9 1701.28,1308.27 1706.57,1311.58 1711.87,1314.81 
  1717.17,1318.03 1722.46,1321.08 1727.76,1323.75 1733.06,1325.89 1738.35,1327.41 1743.65,1328.28 1748.95,1328.55 1754.24,1328.32 1759.54,1327.63 1764.84,1326.46 
  1770.13,1324.79 1775.43,1322.58 1780.73,1319.78 1786.02,1316.37 1791.32,1312.32 1796.62,1307.53 1801.91,1301.93 1807.21,1295.42 1812.51,1287.93 1817.8,1279.38 
  1823.1,1269.48 1828.39,1258.54 1833.69,1247.05 1838.99,1235.33 1844.28,1223.55 1849.58,1211.69 1854.88,1199.57 1860.17,1186.86 1865.47,1174.12 1870.77,1161.91 
  1876.06,1150.41 1881.36,1139.43 1886.66,1128.37 1891.95,1117.25 1897.25,1106.05 1902.55,1094.39 1907.84,1082.1 1913.14,1069.19 1918.44,1055.86 1923.73,1042.52 
  1929.03,1029.58 1934.33,1016.24 1939.62,1002.59 1944.92,988.909 1950.22,975.409 1955.51,962.256 1960.81,949.554 1966.11,937.352 1971.4,925.09 1976.7,910.44 
  1982,894.322 1987.29,877.75 1992.59,861.32 1997.89,845.22 2003.18,829.22 2008.48,812.749 2013.78,796.709 2019.07,781.097 2024.37,765.339 2029.66,749.108 
  2034.96,732.326 2040.26,715.176 2045.55,699.042 2050.85,684.053 2056.15,669.488 2061.44,654.835 2066.74,639.79 2072.04,624.258 2077.33,608.349 2082.63,592.485 
  2087.93,577.129 2093.22,562.35 2098.52,548.117 2103.82,534.309 2109.11,520.714 2114.41,507.029 2119.71,498.311 2125,510.593 2130.3,530.614 2135.6,548.301 
  2140.89,560.555 2146.19,571.084 2151.49,581.932 2156.78,590.825 2162.08,597.257 2167.38,602.001 2172.67,606.551 2177.97,610.87 2183.27,614.71 2188.56,617.97 
  2193.86,620.691 2199.16,623.051 2204.45,625.318 2209.75,626.46 2215.04,627.621 2220.34,630.455 2225.64,635.779 2230.93,643.581 2236.23,653.014 2241.53,662.4 
  2246.82,669.975 2252.12,676.954 2257.42,682.702 2262.71,686.631 2268.01,688.601 2273.31,688.916 2278.6,688.326 2283.9,689.497 2289.2,695.357 2294.49,697.151 
  2299.79,688.738 2305.09,668.023 2310.38,636.96 2315.68,601.551 2320.98,570.899 2326.27,543.999 2331.57,519.673 2336.87,498.18 2342.16,479.267 2347.46,462.167 
  2352.76,445.654 
  "/>
<path clip-path="url(#clip660)" d="
M1831.55 322.316 L2282.13 322.316 L2282.13 166.796 L1831.55 166.796  Z
  " fill="#ffffff" fill-rule="evenodd" fill-opacity="1"/>
<polyline clip-path="url(#clip660)" style="stroke:#000000; stroke-linecap:butt; stroke-linejoin:round; stroke-width:4; stroke-opacity:1; fill:none" points="
  1831.55,322.316 2282.13,322.316 2282.13,166.796 1831.55,166.796 1831.55,322.316 
  "/>
<polyline clip-path="url(#clip660)" style="stroke:#009af9; stroke-linecap:butt; stroke-linejoin:round; stroke-width:4; stroke-opacity:1; fill:none" points="
  1855.09,218.636 1996.33,218.636 
  "/>
<path clip-path="url(#clip660)" d="M2030.5 199.944 Q2027.39 205.268 2025.89 210.476 Q2024.38 215.684 2024.38 221.032 Q2024.38 226.379 2025.89 231.633 Q2027.42 236.865 2030.5 242.166 L2026.79 242.166 Q2023.32 236.726 2021.58 231.471 Q2019.87 226.217 2019.87 221.032 Q2019.87 215.87 2021.58 210.638 Q2023.3 205.407 2026.79 199.944 L2030.5 199.944 Z" fill="#000000" fill-rule="evenodd" fill-opacity="1" /><path clip-path="url(#clip660)" d="M2042.97 202.629 L2042.97 209.99 L2051.75 209.99 L2051.75 213.3 L2042.97 213.3 L2042.97 227.374 Q2042.97 230.545 2043.83 231.448 Q2044.71 232.351 2047.37 232.351 L2051.75 232.351 L2051.75 235.916 L2047.37 235.916 Q2042.44 235.916 2040.56 234.087 Q2038.69 232.235 2038.69 227.374 L2038.69 213.3 L2035.56 213.3 L2035.56 209.99 L2038.69 209.99 L2038.69 202.629 L2042.97 202.629 Z" fill="#000000" fill-rule="evenodd" fill-opacity="1" /><path clip-path="url(#clip660)" d="M2058.43 230.036 L2063.32 230.036 L2063.32 234.018 L2059.52 241.425 L2056.54 241.425 L2058.43 234.018 L2058.43 230.036 Z" fill="#000000" fill-rule="evenodd" fill-opacity="1" /><path clip-path="url(#clip660)" d="M2072.6 201.356 L2094.45 201.356 L2094.45 205.291 L2077.28 205.291 L2077.28 215.522 L2093.74 215.522 L2093.74 219.457 L2077.28 219.457 L2077.28 231.981 L2094.87 231.981 L2094.87 235.916 L2072.6 235.916 L2072.6 201.356 Z" fill="#000000" fill-rule="evenodd" fill-opacity="1" /><path clip-path="url(#clip660)" d="M2101.98 199.897 L2111.79 199.897 L2111.79 203.208 L2106.24 203.208 L2106.24 238.856 L2111.79 238.856 L2111.79 242.166 L2101.98 242.166 L2101.98 199.897 Z" fill="#000000" fill-rule="evenodd" fill-opacity="1" /><path clip-path="url(#clip660)" d="M2122.28 231.981 L2129.92 231.981 L2129.92 205.615 L2121.61 207.282 L2121.61 203.022 L2129.87 201.356 L2134.55 201.356 L2134.55 231.981 L2142.18 231.981 L2142.18 235.916 L2122.28 235.916 L2122.28 231.981 Z" fill="#000000" fill-rule="evenodd" fill-opacity="1" /><path clip-path="url(#clip660)" d="M2160.98 199.897 L2160.98 242.166 L2151.17 242.166 L2151.17 238.856 L2156.7 238.856 L2156.7 203.208 L2151.17 203.208 L2151.17 199.897 L2160.98 199.897 Z" fill="#000000" fill-rule="evenodd" fill-opacity="1" /><path clip-path="url(#clip660)" d="M2179.75 199.944 Q2176.65 205.268 2175.15 210.476 Q2173.64 215.684 2173.64 221.032 Q2173.64 226.379 2175.15 231.633 Q2176.67 236.865 2179.75 242.166 L2176.05 242.166 Q2172.58 236.726 2170.84 231.471 Q2169.13 226.217 2169.13 221.032 Q2169.13 215.87 2170.84 210.638 Q2172.55 205.407 2176.05 199.944 L2179.75 199.944 Z" fill="#000000" fill-rule="evenodd" fill-opacity="1" /><path clip-path="url(#clip660)" d="M2192.23 202.629 L2192.23 209.99 L2201 209.99 L2201 213.3 L2192.23 213.3 L2192.23 227.374 Q2192.23 230.545 2193.09 231.448 Q2193.97 232.351 2196.63 232.351 L2201 232.351 L2201 235.916 L2196.63 235.916 Q2191.7 235.916 2189.82 234.087 Q2187.95 232.235 2187.95 227.374 L2187.95 213.3 L2184.82 213.3 L2184.82 209.99 L2187.95 209.99 L2187.95 202.629 L2192.23 202.629 Z" fill="#000000" fill-rule="evenodd" fill-opacity="1" /><path clip-path="url(#clip660)" d="M2205.93 199.944 L2209.64 199.944 Q2213.11 205.407 2214.82 210.638 Q2216.56 215.87 2216.56 221.032 Q2216.56 226.217 2214.82 231.471 Q2213.11 236.726 2209.64 242.166 L2205.93 242.166 Q2209.01 236.865 2210.52 231.633 Q2212.05 226.379 2212.05 221.032 Q2212.05 215.684 2210.52 210.476 Q2209.01 205.268 2205.93 199.944 Z" fill="#000000" fill-rule="evenodd" fill-opacity="1" /><path clip-path="url(#clip660)" d="M2224.43 199.944 L2228.13 199.944 Q2231.61 205.407 2233.32 210.638 Q2235.05 215.87 2235.05 221.032 Q2235.05 226.217 2233.32 231.471 Q2231.61 236.726 2228.13 242.166 L2224.43 242.166 Q2227.51 236.865 2229.01 231.633 Q2230.54 226.379 2230.54 221.032 Q2230.54 215.684 2229.01 210.476 Q2227.51 205.268 2224.43 199.944 Z" fill="#000000" fill-rule="evenodd" fill-opacity="1" /><polyline clip-path="url(#clip660)" style="stroke:#e26f46; stroke-linecap:butt; stroke-linejoin:round; stroke-width:4; stroke-opacity:1; fill:none" points="
  1855.09,270.476 1996.33,270.476 
  "/>
<path clip-path="url(#clip660)" d="M2030.5 251.784 Q2027.39 257.108 2025.89 262.316 Q2024.38 267.524 2024.38 272.872 Q2024.38 278.219 2025.89 283.473 Q2027.42 288.705 2030.5 294.006 L2026.79 294.006 Q2023.32 288.566 2021.58 283.311 Q2019.87 278.057 2019.87 272.872 Q2019.87 267.71 2021.58 262.478 Q2023.3 257.247 2026.79 251.784 L2030.5 251.784 Z" fill="#000000" fill-rule="evenodd" fill-opacity="1" /><path clip-path="url(#clip660)" d="M2042.97 254.469 L2042.97 261.83 L2051.75 261.83 L2051.75 265.14 L2042.97 265.14 L2042.97 279.214 Q2042.97 282.385 2043.83 283.288 Q2044.71 284.191 2047.37 284.191 L2051.75 284.191 L2051.75 287.756 L2047.37 287.756 Q2042.44 287.756 2040.56 285.927 Q2038.69 284.075 2038.69 279.214 L2038.69 265.14 L2035.56 265.14 L2035.56 261.83 L2038.69 261.83 L2038.69 254.469 L2042.97 254.469 Z" fill="#000000" fill-rule="evenodd" fill-opacity="1" /><path clip-path="url(#clip660)" d="M2058.43 281.876 L2063.32 281.876 L2063.32 285.858 L2059.52 293.265 L2056.54 293.265 L2058.43 285.858 L2058.43 281.876 Z" fill="#000000" fill-rule="evenodd" fill-opacity="1" /><path clip-path="url(#clip660)" d="M2072.6 253.196 L2094.45 253.196 L2094.45 257.131 L2077.28 257.131 L2077.28 267.362 L2093.74 267.362 L2093.74 271.297 L2077.28 271.297 L2077.28 283.821 L2094.87 283.821 L2094.87 287.756 L2072.6 287.756 L2072.6 253.196 Z" fill="#000000" fill-rule="evenodd" fill-opacity="1" /><path clip-path="url(#clip660)" d="M2101.98 251.737 L2111.79 251.737 L2111.79 255.048 L2106.24 255.048 L2106.24 290.696 L2111.79 290.696 L2111.79 294.006 L2101.98 294.006 L2101.98 251.737 Z" fill="#000000" fill-rule="evenodd" fill-opacity="1" /><path clip-path="url(#clip660)" d="M2125.49 283.821 L2141.81 283.821 L2141.81 287.756 L2119.87 287.756 L2119.87 283.821 Q2122.53 281.066 2127.11 276.436 Q2131.72 271.784 2132.9 270.441 Q2135.15 267.918 2136.03 266.182 Q2136.93 264.423 2136.93 262.733 Q2136.93 259.978 2134.99 258.242 Q2133.06 256.506 2129.96 256.506 Q2127.76 256.506 2125.31 257.27 Q2122.88 258.034 2120.1 259.585 L2120.1 254.862 Q2122.93 253.728 2125.38 253.149 Q2127.83 252.571 2129.87 252.571 Q2135.24 252.571 2138.43 255.256 Q2141.63 257.941 2141.63 262.432 Q2141.63 264.561 2140.82 266.483 Q2140.03 268.381 2137.93 270.973 Q2137.35 271.645 2134.24 274.862 Q2131.14 278.057 2125.49 283.821 Z" fill="#000000" fill-rule="evenodd" fill-opacity="1" /><path clip-path="url(#clip660)" d="M2160.98 251.737 L2160.98 294.006 L2151.17 294.006 L2151.17 290.696 L2156.7 290.696 L2156.7 255.048 L2151.17 255.048 L2151.17 251.737 L2160.98 251.737 Z" fill="#000000" fill-rule="evenodd" fill-opacity="1" /><path clip-path="url(#clip660)" d="M2179.75 251.784 Q2176.65 257.108 2175.15 262.316 Q2173.64 267.524 2173.64 272.872 Q2173.64 278.219 2175.15 283.473 Q2176.67 288.705 2179.75 294.006 L2176.05 294.006 Q2172.58 288.566 2170.84 283.311 Q2169.13 278.057 2169.13 272.872 Q2169.13 267.71 2170.84 262.478 Q2172.55 257.247 2176.05 251.784 L2179.75 251.784 Z" fill="#000000" fill-rule="evenodd" fill-opacity="1" /><path clip-path="url(#clip660)" d="M2192.23 254.469 L2192.23 261.83 L2201 261.83 L2201 265.14 L2192.23 265.14 L2192.23 279.214 Q2192.23 282.385 2193.09 283.288 Q2193.97 284.191 2196.63 284.191 L2201 284.191 L2201 287.756 L2196.63 287.756 Q2191.7 287.756 2189.82 285.927 Q2187.95 284.075 2187.95 279.214 L2187.95 265.14 L2184.82 265.14 L2184.82 261.83 L2187.95 261.83 L2187.95 254.469 L2192.23 254.469 Z" fill="#000000" fill-rule="evenodd" fill-opacity="1" /><path clip-path="url(#clip660)" d="M2205.93 251.784 L2209.64 251.784 Q2213.11 257.247 2214.82 262.478 Q2216.56 267.71 2216.56 272.872 Q2216.56 278.057 2214.82 283.311 Q2213.11 288.566 2209.64 294.006 L2205.93 294.006 Q2209.01 288.705 2210.52 283.473 Q2212.05 278.219 2212.05 272.872 Q2212.05 267.524 2210.52 262.316 Q2209.01 257.108 2205.93 251.784 Z" fill="#000000" fill-rule="evenodd" fill-opacity="1" /><path clip-path="url(#clip660)" d="M2224.43 251.784 L2228.13 251.784 Q2231.61 257.247 2233.32 262.478 Q2235.05 267.71 2235.05 272.872 Q2235.05 278.057 2233.32 283.311 Q2231.61 288.566 2228.13 294.006 L2224.43 294.006 Q2227.51 288.705 2229.01 283.473 Q2230.54 278.219 2230.54 272.872 Q2230.54 267.524 2229.01 262.316 Q2227.51 257.108 2224.43 251.784 Z" fill="#000000" fill-rule="evenodd" fill-opacity="1" /></svg>
