<?xml version="1.0" encoding="utf-8"?>
<svg xmlns="http://www.w3.org/2000/svg" xmlns:xlink="http://www.w3.org/1999/xlink" width="600" height="400" viewBox="0 0 2400 1600">
<defs>
  <clipPath id="clip870">
    <rect x="0" y="0" width="2400" height="1600"/>
  </clipPath>
</defs>
<path clip-path="url(#clip870)" d="
M0 1600 L2400 1600 L2400 0 L0 0  Z
  " fill="#ffffff" fill-rule="evenodd" fill-opacity="1"/>
<defs>
  <clipPath id="clip871">
    <rect x="480" y="0" width="1681" height="1600"/>
  </clipPath>
</defs>
<path clip-path="url(#clip870)" d="
M234.125 1423.18 L2352.76 1423.18 L2352.76 123.472 L234.125 123.472  Z
  " fill="#ffffff" fill-rule="evenodd" fill-opacity="1"/>
<defs>
  <clipPath id="clip872">
    <rect x="234" y="123" width="2120" height="1301"/>
  </clipPath>
</defs>
<polyline clip-path="url(#clip872)" style="stroke:#000000; stroke-linecap:butt; stroke-linejoin:round; stroke-width:2; stroke-opacity:0.1; fill:none" points="
  234.125,1423.18 234.125,123.472 
  "/>
<polyline clip-path="url(#clip872)" style="stroke:#000000; stroke-linecap:butt; stroke-linejoin:round; stroke-width:2; stroke-opacity:0.1; fill:none" points="
  763.783,1423.18 763.783,123.472 
  "/>
<polyline clip-path="url(#clip872)" style="stroke:#000000; stroke-linecap:butt; stroke-linejoin:round; stroke-width:2; stroke-opacity:0.1; fill:none" points="
  1293.44,1423.18 1293.44,123.472 
  "/>
<polyline clip-path="url(#clip872)" style="stroke:#000000; stroke-linecap:butt; stroke-linejoin:round; stroke-width:2; stroke-opacity:0.1; fill:none" points="
  1823.1,1423.18 1823.1,123.472 
  "/>
<polyline clip-path="url(#clip872)" style="stroke:#000000; stroke-linecap:butt; stroke-linejoin:round; stroke-width:2; stroke-opacity:0.1; fill:none" points="
  2352.76,1423.18 2352.76,123.472 
  "/>
<polyline clip-path="url(#clip870)" style="stroke:#000000; stroke-linecap:butt; stroke-linejoin:round; stroke-width:4; stroke-opacity:1; fill:none" points="
  234.125,1423.18 2352.76,1423.18 
  "/>
<polyline clip-path="url(#clip870)" style="stroke:#000000; stroke-linecap:butt; stroke-linejoin:round; stroke-width:4; stroke-opacity:1; fill:none" points="
  234.125,1423.18 234.125,1404.28 
  "/>
<polyline clip-path="url(#clip870)" style="stroke:#000000; stroke-linecap:butt; stroke-linejoin:round; stroke-width:4; stroke-opacity:1; fill:none" points="
  763.783,1423.18 763.783,1404.28 
  "/>
<polyline clip-path="url(#clip870)" style="stroke:#000000; stroke-linecap:butt; stroke-linejoin:round; stroke-width:4; stroke-opacity:1; fill:none" points="
  1293.44,1423.18 1293.44,1404.28 
  "/>
<polyline clip-path="url(#clip870)" style="stroke:#000000; stroke-linecap:butt; stroke-linejoin:round; stroke-width:4; stroke-opacity:1; fill:none" points="
  1823.1,1423.18 1823.1,1404.28 
  "/>
<polyline clip-path="url(#clip870)" style="stroke:#000000; stroke-linecap:butt; stroke-linejoin:round; stroke-width:4; stroke-opacity:1; fill:none" points="
  2352.76,1423.18 2352.76,1404.28 
  "/>
<path clip-path="url(#clip870)" d="M234.125 1452.37 Q230.514 1452.37 228.686 1455.94 Q226.88 1459.48 226.88 1466.61 Q226.88 1473.71 228.686 1477.28 Q230.514 1480.82 234.125 1480.82 Q237.76 1480.82 239.565 1477.28 Q241.394 1473.71 241.394 1466.61 Q241.394 1459.48 239.565 1455.94 Q237.76 1452.37 234.125 1452.37 M234.125 1448.67 Q239.936 1448.67 242.991 1453.27 Q246.07 1457.86 246.07 1466.61 Q246.07 1475.33 242.991 1479.94 Q239.936 1484.52 234.125 1484.52 Q228.315 1484.52 225.237 1479.94 Q222.181 1475.33 222.181 1466.61 Q222.181 1457.86 225.237 1453.27 Q228.315 1448.67 234.125 1448.67 Z" fill="#000000" fill-rule="evenodd" fill-opacity="1" /><path clip-path="url(#clip870)" d="M723.39 1479.92 L731.029 1479.92 L731.029 1453.55 L722.718 1455.22 L722.718 1450.96 L730.982 1449.29 L735.658 1449.29 L735.658 1479.92 L743.297 1479.92 L743.297 1483.85 L723.39 1483.85 L723.39 1479.92 Z" fill="#000000" fill-rule="evenodd" fill-opacity="1" /><path clip-path="url(#clip870)" d="M762.741 1452.37 Q759.13 1452.37 757.302 1455.94 Q755.496 1459.48 755.496 1466.61 Q755.496 1473.71 757.302 1477.28 Q759.13 1480.82 762.741 1480.82 Q766.376 1480.82 768.181 1477.28 Q770.01 1473.71 770.01 1466.61 Q770.01 1459.48 768.181 1455.94 Q766.376 1452.37 762.741 1452.37 M762.741 1448.67 Q768.552 1448.67 771.607 1453.27 Q774.686 1457.86 774.686 1466.61 Q774.686 1475.33 771.607 1479.94 Q768.552 1484.52 762.741 1484.52 Q756.931 1484.52 753.853 1479.94 Q750.797 1475.33 750.797 1466.61 Q750.797 1457.86 753.853 1453.27 Q756.931 1448.67 762.741 1448.67 Z" fill="#000000" fill-rule="evenodd" fill-opacity="1" /><path clip-path="url(#clip870)" d="M792.903 1452.37 Q789.292 1452.37 787.463 1455.94 Q785.658 1459.48 785.658 1466.61 Q785.658 1473.71 787.463 1477.28 Q789.292 1480.82 792.903 1480.82 Q796.538 1480.82 798.343 1477.28 Q800.172 1473.71 800.172 1466.61 Q800.172 1459.48 798.343 1455.94 Q796.538 1452.37 792.903 1452.37 M792.903 1448.67 Q798.713 1448.67 801.769 1453.27 Q804.848 1457.86 804.848 1466.61 Q804.848 1475.33 801.769 1479.94 Q798.713 1484.52 792.903 1484.52 Q787.093 1484.52 784.014 1479.94 Q780.959 1475.33 780.959 1466.61 Q780.959 1457.86 784.014 1453.27 Q787.093 1448.67 792.903 1448.67 Z" fill="#000000" fill-rule="evenodd" fill-opacity="1" /><path clip-path="url(#clip870)" d="M1257.13 1479.92 L1273.45 1479.92 L1273.45 1483.85 L1251.51 1483.85 L1251.51 1479.92 Q1254.17 1477.16 1258.75 1472.53 Q1263.36 1467.88 1264.54 1466.54 Q1266.79 1464.01 1267.67 1462.28 Q1268.57 1460.52 1268.57 1458.83 Q1268.57 1456.07 1266.62 1454.34 Q1264.7 1452.6 1261.6 1452.6 Q1259.4 1452.6 1256.95 1453.37 Q1254.52 1454.13 1251.74 1455.68 L1251.74 1450.96 Q1254.56 1449.82 1257.02 1449.25 Q1259.47 1448.67 1261.51 1448.67 Q1266.88 1448.67 1270.07 1451.35 Q1273.27 1454.04 1273.27 1458.53 Q1273.27 1460.66 1272.46 1462.58 Q1271.67 1464.48 1269.56 1467.07 Q1268.98 1467.74 1265.88 1470.96 Q1262.78 1474.15 1257.13 1479.92 Z" fill="#000000" fill-rule="evenodd" fill-opacity="1" /><path clip-path="url(#clip870)" d="M1293.27 1452.37 Q1289.66 1452.37 1287.83 1455.94 Q1286.02 1459.48 1286.02 1466.61 Q1286.02 1473.71 1287.83 1477.28 Q1289.66 1480.82 1293.27 1480.82 Q1296.9 1480.82 1298.71 1477.28 Q1300.54 1473.71 1300.54 1466.61 Q1300.54 1459.48 1298.71 1455.94 Q1296.9 1452.37 1293.27 1452.37 M1293.27 1448.67 Q1299.08 1448.67 1302.13 1453.27 Q1305.21 1457.86 1305.21 1466.61 Q1305.21 1475.33 1302.13 1479.94 Q1299.08 1484.52 1293.27 1484.52 Q1287.46 1484.52 1284.38 1479.94 Q1281.32 1475.33 1281.32 1466.61 Q1281.32 1457.86 1284.38 1453.27 Q1287.46 1448.67 1293.27 1448.67 Z" fill="#000000" fill-rule="evenodd" fill-opacity="1" /><path clip-path="url(#clip870)" d="M1323.43 1452.37 Q1319.82 1452.37 1317.99 1455.94 Q1316.18 1459.48 1316.18 1466.61 Q1316.18 1473.71 1317.99 1477.28 Q1319.82 1480.82 1323.43 1480.82 Q1327.06 1480.82 1328.87 1477.28 Q1330.7 1473.71 1330.7 1466.61 Q1330.7 1459.48 1328.87 1455.94 Q1327.06 1452.37 1323.43 1452.37 M1323.43 1448.67 Q1329.24 1448.67 1332.29 1453.27 Q1335.37 1457.86 1335.37 1466.61 Q1335.37 1475.33 1332.29 1479.94 Q1329.24 1484.52 1323.43 1484.52 Q1317.62 1484.52 1314.54 1479.94 Q1311.48 1475.33 1311.48 1466.61 Q1311.48 1457.86 1314.54 1453.27 Q1317.62 1448.67 1323.43 1448.67 Z" fill="#000000" fill-rule="evenodd" fill-opacity="1" /><path clip-path="url(#clip870)" d="M1796.86 1465.22 Q1800.22 1465.94 1802.09 1468.2 Q1803.99 1470.47 1803.99 1473.81 Q1803.99 1478.92 1800.47 1481.72 Q1796.95 1484.52 1790.47 1484.52 Q1788.3 1484.52 1785.98 1484.08 Q1783.69 1483.67 1781.24 1482.81 L1781.24 1478.3 Q1783.18 1479.43 1785.49 1480.01 Q1787.81 1480.59 1790.33 1480.59 Q1794.73 1480.59 1797.02 1478.85 Q1799.34 1477.12 1799.34 1473.81 Q1799.34 1470.75 1797.18 1469.04 Q1795.05 1467.3 1791.24 1467.3 L1787.21 1467.3 L1787.21 1463.46 L1791.42 1463.46 Q1794.87 1463.46 1796.7 1462.09 Q1798.53 1460.7 1798.53 1458.11 Q1798.53 1455.45 1796.63 1454.04 Q1794.75 1452.6 1791.24 1452.6 Q1789.31 1452.6 1787.11 1453.02 Q1784.92 1453.44 1782.28 1454.31 L1782.28 1450.15 Q1784.94 1449.41 1787.25 1449.04 Q1789.59 1448.67 1791.65 1448.67 Q1796.98 1448.67 1800.08 1451.1 Q1803.18 1453.5 1803.18 1457.63 Q1803.18 1460.5 1801.54 1462.49 Q1799.89 1464.45 1796.86 1465.22 Z" fill="#000000" fill-rule="evenodd" fill-opacity="1" /><path clip-path="url(#clip870)" d="M1822.86 1452.37 Q1819.24 1452.37 1817.42 1455.94 Q1815.61 1459.48 1815.61 1466.61 Q1815.61 1473.71 1817.42 1477.28 Q1819.24 1480.82 1822.86 1480.82 Q1826.49 1480.82 1828.3 1477.28 Q1830.12 1473.71 1830.12 1466.61 Q1830.12 1459.48 1828.3 1455.94 Q1826.49 1452.37 1822.86 1452.37 M1822.86 1448.67 Q1828.67 1448.67 1831.72 1453.27 Q1834.8 1457.86 1834.8 1466.61 Q1834.8 1475.33 1831.72 1479.94 Q1828.67 1484.52 1822.86 1484.52 Q1817.05 1484.52 1813.97 1479.94 Q1810.91 1475.33 1810.91 1466.61 Q1810.91 1457.86 1813.97 1453.27 Q1817.05 1448.67 1822.86 1448.67 Z" fill="#000000" fill-rule="evenodd" fill-opacity="1" /><path clip-path="url(#clip870)" d="M1853.02 1452.37 Q1849.41 1452.37 1847.58 1455.94 Q1845.77 1459.48 1845.77 1466.61 Q1845.77 1473.71 1847.58 1477.28 Q1849.41 1480.82 1853.02 1480.82 Q1856.65 1480.82 1858.46 1477.28 Q1860.29 1473.71 1860.29 1466.61 Q1860.29 1459.48 1858.46 1455.94 Q1856.65 1452.37 1853.02 1452.37 M1853.02 1448.67 Q1858.83 1448.67 1861.88 1453.27 Q1864.96 1457.86 1864.96 1466.61 Q1864.96 1475.33 1861.88 1479.94 Q1858.83 1484.52 1853.02 1484.52 Q1847.21 1484.52 1844.13 1479.94 Q1841.07 1475.33 1841.07 1466.61 Q1841.07 1457.86 1844.13 1453.27 Q1847.21 1448.67 1853.02 1448.67 Z" fill="#000000" fill-rule="evenodd" fill-opacity="1" /><path clip-path="url(#clip870)" d="M2325.85 1453.37 L2314.04 1471.81 L2325.85 1471.81 L2325.85 1453.37 M2324.62 1449.29 L2330.5 1449.29 L2330.5 1471.81 L2335.43 1471.81 L2335.43 1475.7 L2330.5 1475.7 L2330.5 1483.85 L2325.85 1483.85 L2325.85 1475.7 L2310.24 1475.7 L2310.24 1471.19 L2324.62 1449.29 Z" fill="#000000" fill-rule="evenodd" fill-opacity="1" /><path clip-path="url(#clip870)" d="M2353.16 1452.37 Q2349.55 1452.37 2347.72 1455.94 Q2345.92 1459.48 2345.92 1466.61 Q2345.92 1473.71 2347.72 1477.28 Q2349.55 1480.82 2353.16 1480.82 Q2356.8 1480.82 2358.6 1477.28 Q2360.43 1473.71 2360.43 1466.61 Q2360.43 1459.48 2358.6 1455.94 Q2356.8 1452.37 2353.16 1452.37 M2353.16 1448.67 Q2358.97 1448.67 2362.03 1453.27 Q2365.11 1457.86 2365.11 1466.61 Q2365.11 1475.33 2362.03 1479.94 Q2358.97 1484.52 2353.16 1484.52 Q2347.35 1484.52 2344.27 1479.94 Q2341.22 1475.33 2341.22 1466.61 Q2341.22 1457.86 2344.27 1453.27 Q2347.35 1448.67 2353.16 1448.67 Z" fill="#000000" fill-rule="evenodd" fill-opacity="1" /><path clip-path="url(#clip870)" d="M2383.32 1452.37 Q2379.71 1452.37 2377.88 1455.94 Q2376.08 1459.48 2376.08 1466.61 Q2376.08 1473.71 2377.88 1477.28 Q2379.71 1480.82 2383.32 1480.82 Q2386.96 1480.82 2388.76 1477.28 Q2390.59 1473.71 2390.59 1466.61 Q2390.59 1459.48 2388.76 1455.94 Q2386.96 1452.37 2383.32 1452.37 M2383.32 1448.67 Q2389.13 1448.67 2392.19 1453.27 Q2395.27 1457.86 2395.27 1466.61 Q2395.27 1475.33 2392.19 1479.94 Q2389.13 1484.52 2383.32 1484.52 Q2377.51 1484.52 2374.43 1479.94 Q2371.38 1475.33 2371.38 1466.61 Q2371.38 1457.86 2374.43 1453.27 Q2377.51 1448.67 2383.32 1448.67 Z" fill="#000000" fill-rule="evenodd" fill-opacity="1" /><path clip-path="url(#clip870)" d="M1292.5 1522.27 L1292.5 1532.4 L1304.56 1532.4 L1304.56 1536.95 L1292.5 1536.95 L1292.5 1556.3 Q1292.5 1560.66 1293.68 1561.9 Q1294.89 1563.14 1298.55 1563.14 L1304.56 1563.14 L1304.56 1568.04 L1298.55 1568.04 Q1291.77 1568.04 1289.19 1565.53 Q1286.61 1562.98 1286.61 1556.3 L1286.61 1536.95 L1282.32 1536.95 L1282.32 1532.4 L1286.61 1532.4 L1286.61 1522.27 L1292.5 1522.27 Z" fill="#000000" fill-rule="evenodd" fill-opacity="1" /><polyline clip-path="url(#clip872)" style="stroke:#000000; stroke-linecap:butt; stroke-linejoin:round; stroke-width:2; stroke-opacity:0.1; fill:none" points="
  234.125,1266.69 2352.76,1266.69 
  "/>
<polyline clip-path="url(#clip872)" style="stroke:#000000; stroke-linecap:butt; stroke-linejoin:round; stroke-width:2; stroke-opacity:0.1; fill:none" points="
  234.125,1075.99 2352.76,1075.99 
  "/>
<polyline clip-path="url(#clip872)" style="stroke:#000000; stroke-linecap:butt; stroke-linejoin:round; stroke-width:2; stroke-opacity:0.1; fill:none" points="
  234.125,885.292 2352.76,885.292 
  "/>
<polyline clip-path="url(#clip872)" style="stroke:#000000; stroke-linecap:butt; stroke-linejoin:round; stroke-width:2; stroke-opacity:0.1; fill:none" points="
  234.125,694.592 2352.76,694.592 
  "/>
<polyline clip-path="url(#clip872)" style="stroke:#000000; stroke-linecap:butt; stroke-linejoin:round; stroke-width:2; stroke-opacity:0.1; fill:none" points="
  234.125,503.892 2352.76,503.892 
  "/>
<polyline clip-path="url(#clip872)" style="stroke:#000000; stroke-linecap:butt; stroke-linejoin:round; stroke-width:2; stroke-opacity:0.1; fill:none" points="
  234.125,313.192 2352.76,313.192 
  "/>
<polyline clip-path="url(#clip870)" style="stroke:#000000; stroke-linecap:butt; stroke-linejoin:round; stroke-width:4; stroke-opacity:1; fill:none" points="
  234.125,1423.18 234.125,123.472 
  "/>
<polyline clip-path="url(#clip870)" style="stroke:#000000; stroke-linecap:butt; stroke-linejoin:round; stroke-width:4; stroke-opacity:1; fill:none" points="
  234.125,1266.69 253.023,1266.69 
  "/>
<polyline clip-path="url(#clip870)" style="stroke:#000000; stroke-linecap:butt; stroke-linejoin:round; stroke-width:4; stroke-opacity:1; fill:none" points="
  234.125,1075.99 253.023,1075.99 
  "/>
<polyline clip-path="url(#clip870)" style="stroke:#000000; stroke-linecap:butt; stroke-linejoin:round; stroke-width:4; stroke-opacity:1; fill:none" points="
  234.125,885.292 253.023,885.292 
  "/>
<polyline clip-path="url(#clip870)" style="stroke:#000000; stroke-linecap:butt; stroke-linejoin:round; stroke-width:4; stroke-opacity:1; fill:none" points="
  234.125,694.592 253.023,694.592 
  "/>
<polyline clip-path="url(#clip870)" style="stroke:#000000; stroke-linecap:butt; stroke-linejoin:round; stroke-width:4; stroke-opacity:1; fill:none" points="
  234.125,503.892 253.023,503.892 
  "/>
<polyline clip-path="url(#clip870)" style="stroke:#000000; stroke-linecap:butt; stroke-linejoin:round; stroke-width:4; stroke-opacity:1; fill:none" points="
  234.125,313.192 253.023,313.192 
  "/>
<path clip-path="url(#clip870)" d="M146.066 1249.41 L164.422 1249.41 L164.422 1253.35 L150.348 1253.35 L150.348 1261.82 Q151.366 1261.47 152.385 1261.31 Q153.403 1261.13 154.422 1261.13 Q160.209 1261.13 163.589 1264.3 Q166.968 1267.47 166.968 1272.88 Q166.968 1278.46 163.496 1281.57 Q160.024 1284.64 153.704 1284.64 Q151.528 1284.64 149.26 1284.27 Q147.015 1283.9 144.607 1283.16 L144.607 1278.46 Q146.691 1279.6 148.913 1280.15 Q151.135 1280.71 153.612 1280.71 Q157.616 1280.71 159.954 1278.6 Q162.292 1276.5 162.292 1272.88 Q162.292 1269.27 159.954 1267.17 Q157.616 1265.06 153.612 1265.06 Q151.737 1265.06 149.862 1265.48 Q148.01 1265.89 146.066 1266.77 L146.066 1249.41 Z" fill="#000000" fill-rule="evenodd" fill-opacity="1" /><path clip-path="url(#clip870)" d="M186.181 1252.49 Q182.57 1252.49 180.741 1256.06 Q178.936 1259.6 178.936 1266.73 Q178.936 1273.83 180.741 1277.4 Q182.57 1280.94 186.181 1280.94 Q189.815 1280.94 191.621 1277.4 Q193.45 1273.83 193.45 1266.73 Q193.45 1259.6 191.621 1256.06 Q189.815 1252.49 186.181 1252.49 M186.181 1248.79 Q191.991 1248.79 195.047 1253.39 Q198.125 1257.98 198.125 1266.73 Q198.125 1275.45 195.047 1280.06 Q191.991 1284.64 186.181 1284.64 Q180.371 1284.64 177.292 1280.06 Q174.237 1275.45 174.237 1266.73 Q174.237 1257.98 177.292 1253.39 Q180.371 1248.79 186.181 1248.79 Z" fill="#000000" fill-rule="evenodd" fill-opacity="1" /><path clip-path="url(#clip870)" d="M116.668 1089.34 L124.306 1089.34 L124.306 1062.97 L115.996 1064.64 L115.996 1060.38 L124.26 1058.71 L128.936 1058.71 L128.936 1089.34 L136.575 1089.34 L136.575 1093.27 L116.668 1093.27 L116.668 1089.34 Z" fill="#000000" fill-rule="evenodd" fill-opacity="1" /><path clip-path="url(#clip870)" d="M156.019 1061.79 Q152.408 1061.79 150.579 1065.36 Q148.774 1068.9 148.774 1076.03 Q148.774 1083.13 150.579 1086.7 Q152.408 1090.24 156.019 1090.24 Q159.653 1090.24 161.459 1086.7 Q163.288 1083.13 163.288 1076.03 Q163.288 1068.9 161.459 1065.36 Q159.653 1061.79 156.019 1061.79 M156.019 1058.09 Q161.829 1058.09 164.885 1062.69 Q167.964 1067.28 167.964 1076.03 Q167.964 1084.75 164.885 1089.36 Q161.829 1093.94 156.019 1093.94 Q150.209 1093.94 147.13 1089.36 Q144.075 1084.75 144.075 1076.03 Q144.075 1067.28 147.13 1062.69 Q150.209 1058.09 156.019 1058.09 Z" fill="#000000" fill-rule="evenodd" fill-opacity="1" /><path clip-path="url(#clip870)" d="M186.181 1061.79 Q182.57 1061.79 180.741 1065.36 Q178.936 1068.9 178.936 1076.03 Q178.936 1083.13 180.741 1086.7 Q182.57 1090.24 186.181 1090.24 Q189.815 1090.24 191.621 1086.7 Q193.45 1083.13 193.45 1076.03 Q193.45 1068.9 191.621 1065.36 Q189.815 1061.79 186.181 1061.79 M186.181 1058.09 Q191.991 1058.09 195.047 1062.69 Q198.125 1067.28 198.125 1076.03 Q198.125 1084.75 195.047 1089.36 Q191.991 1093.94 186.181 1093.94 Q180.371 1093.94 177.292 1089.36 Q174.237 1084.75 174.237 1076.03 Q174.237 1067.28 177.292 1062.69 Q180.371 1058.09 186.181 1058.09 Z" fill="#000000" fill-rule="evenodd" fill-opacity="1" /><path clip-path="url(#clip870)" d="M116.668 898.637 L124.306 898.637 L124.306 872.272 L115.996 873.938 L115.996 869.679 L124.26 868.012 L128.936 868.012 L128.936 898.637 L136.575 898.637 L136.575 902.572 L116.668 902.572 L116.668 898.637 Z" fill="#000000" fill-rule="evenodd" fill-opacity="1" /><path clip-path="url(#clip870)" d="M146.066 868.012 L164.422 868.012 L164.422 871.948 L150.348 871.948 L150.348 880.42 Q151.366 880.073 152.385 879.911 Q153.403 879.725 154.422 879.725 Q160.209 879.725 163.589 882.897 Q166.968 886.068 166.968 891.485 Q166.968 897.063 163.496 900.165 Q160.024 903.244 153.704 903.244 Q151.528 903.244 149.26 902.873 Q147.015 902.503 144.607 901.762 L144.607 897.063 Q146.691 898.197 148.913 898.753 Q151.135 899.309 153.612 899.309 Q157.616 899.309 159.954 897.202 Q162.292 895.096 162.292 891.485 Q162.292 887.873 159.954 885.767 Q157.616 883.661 153.612 883.661 Q151.737 883.661 149.862 884.077 Q148.01 884.494 146.066 885.373 L146.066 868.012 Z" fill="#000000" fill-rule="evenodd" fill-opacity="1" /><path clip-path="url(#clip870)" d="M186.181 871.091 Q182.57 871.091 180.741 874.656 Q178.936 878.198 178.936 885.327 Q178.936 892.434 180.741 895.998 Q182.57 899.54 186.181 899.54 Q189.815 899.54 191.621 895.998 Q193.45 892.434 193.45 885.327 Q193.45 878.198 191.621 874.656 Q189.815 871.091 186.181 871.091 M186.181 867.387 Q191.991 867.387 195.047 871.994 Q198.125 876.577 198.125 885.327 Q198.125 894.054 195.047 898.66 Q191.991 903.244 186.181 903.244 Q180.371 903.244 177.292 898.66 Q174.237 894.054 174.237 885.327 Q174.237 876.577 177.292 871.994 Q180.371 867.387 186.181 867.387 Z" fill="#000000" fill-rule="evenodd" fill-opacity="1" /><path clip-path="url(#clip870)" d="M119.885 707.937 L136.204 707.937 L136.204 711.872 L114.26 711.872 L114.26 707.937 Q116.922 705.183 121.505 700.553 Q126.112 695.9 127.292 694.558 Q129.538 692.034 130.417 690.298 Q131.32 688.539 131.32 686.849 Q131.32 684.095 129.376 682.359 Q127.455 680.623 124.353 680.623 Q122.154 680.623 119.7 681.386 Q117.269 682.15 114.492 683.701 L114.492 678.979 Q117.316 677.845 119.769 677.266 Q122.223 676.687 124.26 676.687 Q129.63 676.687 132.825 679.373 Q136.019 682.058 136.019 686.548 Q136.019 688.678 135.209 690.599 Q134.422 692.497 132.316 695.09 Q131.737 695.761 128.635 698.979 Q125.533 702.173 119.885 707.937 Z" fill="#000000" fill-rule="evenodd" fill-opacity="1" /><path clip-path="url(#clip870)" d="M156.019 680.391 Q152.408 680.391 150.579 683.956 Q148.774 687.497 148.774 694.627 Q148.774 701.734 150.579 705.298 Q152.408 708.84 156.019 708.84 Q159.653 708.84 161.459 705.298 Q163.288 701.734 163.288 694.627 Q163.288 687.497 161.459 683.956 Q159.653 680.391 156.019 680.391 M156.019 676.687 Q161.829 676.687 164.885 681.294 Q167.964 685.877 167.964 694.627 Q167.964 703.354 164.885 707.96 Q161.829 712.544 156.019 712.544 Q150.209 712.544 147.13 707.96 Q144.075 703.354 144.075 694.627 Q144.075 685.877 147.13 681.294 Q150.209 676.687 156.019 676.687 Z" fill="#000000" fill-rule="evenodd" fill-opacity="1" /><path clip-path="url(#clip870)" d="M186.181 680.391 Q182.57 680.391 180.741 683.956 Q178.936 687.497 178.936 694.627 Q178.936 701.734 180.741 705.298 Q182.57 708.84 186.181 708.84 Q189.815 708.84 191.621 705.298 Q193.45 701.734 193.45 694.627 Q193.45 687.497 191.621 683.956 Q189.815 680.391 186.181 680.391 M186.181 676.687 Q191.991 676.687 195.047 681.294 Q198.125 685.877 198.125 694.627 Q198.125 703.354 195.047 707.96 Q191.991 712.544 186.181 712.544 Q180.371 712.544 177.292 707.96 Q174.237 703.354 174.237 694.627 Q174.237 685.877 177.292 681.294 Q180.371 676.687 186.181 676.687 Z" fill="#000000" fill-rule="evenodd" fill-opacity="1" /><path clip-path="url(#clip870)" d="M119.885 517.237 L136.204 517.237 L136.204 521.172 L114.26 521.172 L114.26 517.237 Q116.922 514.482 121.505 509.853 Q126.112 505.2 127.292 503.858 Q129.538 501.334 130.417 499.598 Q131.32 497.839 131.32 496.149 Q131.32 493.395 129.376 491.659 Q127.455 489.922 124.353 489.922 Q122.154 489.922 119.7 490.686 Q117.269 491.45 114.492 493.001 L114.492 488.279 Q117.316 487.145 119.769 486.566 Q122.223 485.987 124.26 485.987 Q129.63 485.987 132.825 488.672 Q136.019 491.358 136.019 495.848 Q136.019 497.978 135.209 499.899 Q134.422 501.797 132.316 504.39 Q131.737 505.061 128.635 508.279 Q125.533 511.473 119.885 517.237 Z" fill="#000000" fill-rule="evenodd" fill-opacity="1" /><path clip-path="url(#clip870)" d="M146.066 486.612 L164.422 486.612 L164.422 490.547 L150.348 490.547 L150.348 499.02 Q151.366 498.672 152.385 498.51 Q153.403 498.325 154.422 498.325 Q160.209 498.325 163.589 501.496 Q166.968 504.668 166.968 510.084 Q166.968 515.663 163.496 518.765 Q160.024 521.844 153.704 521.844 Q151.528 521.844 149.26 521.473 Q147.015 521.103 144.607 520.362 L144.607 515.663 Q146.691 516.797 148.913 517.353 Q151.135 517.908 153.612 517.908 Q157.616 517.908 159.954 515.802 Q162.292 513.695 162.292 510.084 Q162.292 506.473 159.954 504.367 Q157.616 502.26 153.612 502.26 Q151.737 502.26 149.862 502.677 Q148.01 503.094 146.066 503.973 L146.066 486.612 Z" fill="#000000" fill-rule="evenodd" fill-opacity="1" /><path clip-path="url(#clip870)" d="M186.181 489.691 Q182.57 489.691 180.741 493.256 Q178.936 496.797 178.936 503.927 Q178.936 511.033 180.741 514.598 Q182.57 518.14 186.181 518.14 Q189.815 518.14 191.621 514.598 Q193.45 511.033 193.45 503.927 Q193.45 496.797 191.621 493.256 Q189.815 489.691 186.181 489.691 M186.181 485.987 Q191.991 485.987 195.047 490.594 Q198.125 495.177 198.125 503.927 Q198.125 512.654 195.047 517.26 Q191.991 521.844 186.181 521.844 Q180.371 521.844 177.292 517.26 Q174.237 512.654 174.237 503.927 Q174.237 495.177 177.292 490.594 Q180.371 485.987 186.181 485.987 Z" fill="#000000" fill-rule="evenodd" fill-opacity="1" /><path clip-path="url(#clip870)" d="M130.024 311.838 Q133.38 312.556 135.255 314.824 Q137.154 317.093 137.154 320.426 Q137.154 325.542 133.635 328.343 Q130.117 331.143 123.635 331.143 Q121.459 331.143 119.144 330.704 Q116.853 330.287 114.399 329.43 L114.399 324.917 Q116.343 326.051 118.658 326.63 Q120.973 327.208 123.496 327.208 Q127.894 327.208 130.186 325.472 Q132.501 323.736 132.501 320.426 Q132.501 317.37 130.348 315.657 Q128.218 313.921 124.399 313.921 L120.371 313.921 L120.371 310.079 L124.584 310.079 Q128.033 310.079 129.862 308.713 Q131.691 307.324 131.691 304.732 Q131.691 302.07 129.792 300.658 Q127.917 299.222 124.399 299.222 Q122.478 299.222 120.279 299.639 Q118.08 300.056 115.441 300.935 L115.441 296.769 Q118.103 296.028 120.418 295.658 Q122.755 295.287 124.816 295.287 Q130.14 295.287 133.242 297.718 Q136.343 300.125 136.343 304.245 Q136.343 307.116 134.7 309.107 Q133.056 311.074 130.024 311.838 Z" fill="#000000" fill-rule="evenodd" fill-opacity="1" /><path clip-path="url(#clip870)" d="M156.019 298.991 Q152.408 298.991 150.579 302.556 Q148.774 306.097 148.774 313.227 Q148.774 320.333 150.579 323.898 Q152.408 327.44 156.019 327.44 Q159.653 327.44 161.459 323.898 Q163.288 320.333 163.288 313.227 Q163.288 306.097 161.459 302.556 Q159.653 298.991 156.019 298.991 M156.019 295.287 Q161.829 295.287 164.885 299.894 Q167.964 304.477 167.964 313.227 Q167.964 321.954 164.885 326.56 Q161.829 331.143 156.019 331.143 Q150.209 331.143 147.13 326.56 Q144.075 321.954 144.075 313.227 Q144.075 304.477 147.13 299.894 Q150.209 295.287 156.019 295.287 Z" fill="#000000" fill-rule="evenodd" fill-opacity="1" /><path clip-path="url(#clip870)" d="M186.181 298.991 Q182.57 298.991 180.741 302.556 Q178.936 306.097 178.936 313.227 Q178.936 320.333 180.741 323.898 Q182.57 327.44 186.181 327.44 Q189.815 327.44 191.621 323.898 Q193.45 320.333 193.45 313.227 Q193.45 306.097 191.621 302.556 Q189.815 298.991 186.181 298.991 M186.181 295.287 Q191.991 295.287 195.047 299.894 Q198.125 304.477 198.125 313.227 Q198.125 321.954 195.047 326.56 Q191.991 331.143 186.181 331.143 Q180.371 331.143 177.292 326.56 Q174.237 321.954 174.237 313.227 Q174.237 304.477 177.292 299.894 Q180.371 295.287 186.181 295.287 Z" fill="#000000" fill-rule="evenodd" fill-opacity="1" /><path clip-path="url(#clip870)" d="M58.657 873.22 L77.5631 873.22 L77.5631 879.108 L28.3562 879.108 L28.3562 873.22 L33.7671 873.22 Q30.5842 871.374 29.0564 868.573 Q27.4968 865.74 27.4968 861.825 Q27.4968 855.332 32.6531 851.29 Q37.8093 847.216 46.212 847.216 Q54.6147 847.216 59.771 851.29 Q64.9272 855.332 64.9272 861.825 Q64.9272 865.74 63.3994 868.573 Q61.8398 871.374 58.657 873.22 M46.212 853.295 Q39.7508 853.295 36.0905 855.969 Q32.3984 858.611 32.3984 863.258 Q32.3984 867.904 36.0905 870.578 Q39.7508 873.22 46.212 873.22 Q52.6732 873.22 56.3653 870.578 Q60.0256 867.904 60.0256 863.258 Q60.0256 858.611 56.3653 855.969 Q52.6732 853.295 46.212 853.295 Z" fill="#000000" fill-rule="evenodd" fill-opacity="1" /><path clip-path="url(#clip870)" d="M44.7161 807.016 L47.5806 807.016 L47.5806 833.943 Q53.6281 833.561 56.8109 830.315 Q59.9619 827.037 59.9619 821.212 Q59.9619 817.838 59.1344 814.687 Q58.3069 811.504 56.6518 808.385 L62.1899 808.385 Q63.5267 811.536 64.227 814.846 Q64.9272 818.156 64.9272 821.562 Q64.9272 830.092 59.9619 835.089 Q54.9967 840.055 46.5303 840.055 Q37.7774 840.055 32.6531 835.344 Q27.4968 830.601 27.4968 822.581 Q27.4968 815.387 32.1438 811.218 Q36.7589 807.016 44.7161 807.016 M42.9973 812.873 Q38.1912 812.937 35.3266 815.578 Q32.4621 818.188 32.4621 822.517 Q32.4621 827.419 35.2312 830.379 Q38.0002 833.307 43.0292 833.752 L42.9973 812.873 Z" fill="#000000" fill-rule="evenodd" fill-opacity="1" /><path clip-path="url(#clip870)" d="M32.4621 783.591 Q32.4621 788.301 36.1542 791.039 Q39.8145 793.776 46.212 793.776 Q52.6095 793.776 56.3017 791.07 Q59.9619 788.333 59.9619 783.591 Q59.9619 778.912 56.2698 776.175 Q52.5777 773.437 46.212 773.437 Q39.8781 773.437 36.186 776.175 Q32.4621 778.912 32.4621 783.591 M27.4968 783.591 Q27.4968 775.952 32.4621 771.591 Q37.4273 767.231 46.212 767.231 Q54.9649 767.231 59.9619 771.591 Q64.9272 775.952 64.9272 783.591 Q64.9272 791.261 59.9619 795.622 Q54.9649 799.951 46.212 799.951 Q37.4273 799.951 32.4621 795.622 Q27.4968 791.261 27.4968 783.591 Z" fill="#000000" fill-rule="evenodd" fill-opacity="1" /><path clip-path="url(#clip870)" d="M58.657 751.858 L77.5631 751.858 L77.5631 757.746 L28.3562 757.746 L28.3562 751.858 L33.7671 751.858 Q30.5842 750.012 29.0564 747.211 Q27.4968 744.378 27.4968 740.463 Q27.4968 733.97 32.6531 729.928 Q37.8093 725.854 46.212 725.854 Q54.6147 725.854 59.771 729.928 Q64.9272 733.97 64.9272 740.463 Q64.9272 744.378 63.3994 747.211 Q61.8398 750.012 58.657 751.858 M46.212 731.933 Q39.7508 731.933 36.0905 734.607 Q32.3984 737.248 32.3984 741.895 Q32.3984 746.542 36.0905 749.216 Q39.7508 751.858 46.212 751.858 Q52.6732 751.858 56.3653 749.216 Q60.0256 746.542 60.0256 741.895 Q60.0256 737.248 56.3653 734.607 Q52.6732 731.933 46.212 731.933 Z" fill="#000000" fill-rule="evenodd" fill-opacity="1" /><path clip-path="url(#clip870)" d="M14.479 716.146 L14.479 710.29 L64.0042 710.29 L64.0042 716.146 L14.479 716.146 Z" fill="#000000" fill-rule="evenodd" fill-opacity="1" /><path clip-path="url(#clip870)" d="M44.7161 667.544 L47.5806 667.544 L47.5806 694.471 Q53.6281 694.089 56.8109 690.842 Q59.9619 687.564 59.9619 681.739 Q59.9619 678.366 59.1344 675.215 Q58.3069 672.032 56.6518 668.912 L62.1899 668.912 Q63.5267 672.064 64.227 675.374 Q64.9272 678.684 64.9272 682.089 Q64.9272 690.62 59.9619 695.617 Q54.9967 700.582 46.5303 700.582 Q37.7774 700.582 32.6531 695.871 Q27.4968 691.129 27.4968 683.108 Q27.4968 675.915 32.1438 671.745 Q36.7589 667.544 44.7161 667.544 M42.9973 673.4 Q38.1912 673.464 35.3266 676.106 Q32.4621 678.716 32.4621 683.044 Q32.4621 687.946 35.2312 690.906 Q38.0002 693.834 43.0292 694.28 L42.9973 673.4 Z" fill="#000000" fill-rule="evenodd" fill-opacity="1" /><path clip-path="url(#clip870)" d="M1125.35 12.096 L1163.59 12.096 L1163.59 18.9825 L1133.53 18.9825 L1133.53 36.8875 L1162.33 36.8875 L1162.33 43.7741 L1133.53 43.7741 L1133.53 65.6895 L1164.32 65.6895 L1164.32 72.576 L1125.35 72.576 L1125.35 12.096 Z" fill="#000000" fill-rule="evenodd" fill-opacity="1" /><path clip-path="url(#clip870)" d="M1215.16 27.2059 L1198.75 49.2833 L1216.01 72.576 L1207.22 72.576 L1194.01 54.752 L1180.81 72.576 L1172.01 72.576 L1189.64 48.8377 L1173.51 27.2059 L1182.3 27.2059 L1194.34 43.369 L1206.37 27.2059 L1215.16 27.2059 Z" fill="#000000" fill-rule="evenodd" fill-opacity="1" /><path clip-path="url(#clip870)" d="M1233.75 65.7705 L1233.75 89.8329 L1226.26 89.8329 L1226.26 27.2059 L1233.75 27.2059 L1233.75 34.0924 Q1236.1 30.0415 1239.66 28.0971 Q1243.27 26.1121 1248.25 26.1121 Q1256.52 26.1121 1261.66 32.6746 Q1266.85 39.2371 1266.85 49.9314 Q1266.85 60.6258 1261.66 67.1883 Q1256.52 73.7508 1248.25 73.7508 Q1243.27 73.7508 1239.66 71.8063 Q1236.1 69.8214 1233.75 65.7705 M1259.11 49.9314 Q1259.11 41.7081 1255.71 37.0496 Q1252.34 32.3505 1246.43 32.3505 Q1240.52 32.3505 1237.11 37.0496 Q1233.75 41.7081 1233.75 49.9314 Q1233.75 58.1548 1237.11 62.8538 Q1240.52 67.5124 1246.43 67.5124 Q1252.34 67.5124 1255.71 62.8538 Q1259.11 58.1548 1259.11 49.9314 Z" fill="#000000" fill-rule="evenodd" fill-opacity="1" /><path clip-path="url(#clip870)" d="M1296.78 32.4315 Q1290.79 32.4315 1287.3 37.1306 Q1283.82 41.7891 1283.82 49.9314 Q1283.82 58.0738 1287.26 62.7728 Q1290.75 67.4314 1296.78 67.4314 Q1302.74 67.4314 1306.22 62.7323 Q1309.71 58.0333 1309.71 49.9314 Q1309.71 41.8701 1306.22 37.1711 Q1302.74 32.4315 1296.78 32.4315 M1296.78 26.1121 Q1306.5 26.1121 1312.05 32.4315 Q1317.6 38.7509 1317.6 49.9314 Q1317.6 61.0714 1312.05 67.4314 Q1306.5 73.7508 1296.78 73.7508 Q1287.02 73.7508 1281.47 67.4314 Q1275.96 61.0714 1275.96 49.9314 Q1275.96 38.7509 1281.47 32.4315 Q1287.02 26.1121 1296.78 26.1121 Z" fill="#000000" fill-rule="evenodd" fill-opacity="1" /><path clip-path="url(#clip870)" d="M1358.88 28.5427 L1358.88 35.5912 Q1355.72 33.9709 1352.32 33.1607 Q1348.92 32.3505 1345.27 32.3505 Q1339.72 32.3505 1336.93 34.0519 Q1334.17 35.7533 1334.17 39.156 Q1334.17 41.7486 1336.16 43.2475 Q1338.14 44.7058 1344.14 46.0426 L1346.69 46.6097 Q1354.63 48.3111 1357.95 51.4303 Q1361.31 54.509 1361.31 60.0587 Q1361.31 66.3781 1356.29 70.0644 Q1351.31 73.7508 1342.56 73.7508 Q1338.91 73.7508 1334.94 73.0216 Q1331.01 72.3329 1326.64 70.9151 L1326.64 63.2184 Q1330.77 65.3654 1334.78 66.4591 Q1338.79 67.5124 1342.72 67.5124 Q1347.99 67.5124 1350.82 65.73 Q1353.66 63.9071 1353.66 60.6258 Q1353.66 57.5877 1351.59 55.9673 Q1349.57 54.3469 1342.64 52.8481 L1340.05 52.2405 Q1333.12 50.7821 1330.04 47.7845 Q1326.96 44.7463 1326.96 39.4801 Q1326.96 33.0797 1331.5 29.5959 Q1336.04 26.1121 1344.38 26.1121 Q1348.51 26.1121 1352.16 26.7198 Q1355.8 27.3274 1358.88 28.5427 Z" fill="#000000" fill-rule="evenodd" fill-opacity="1" /><path clip-path="url(#clip870)" d="M1411.99 48.0275 L1411.99 51.6733 L1377.72 51.6733 Q1378.21 59.3701 1382.34 63.421 Q1386.51 67.4314 1393.92 67.4314 Q1398.22 67.4314 1402.23 66.3781 Q1406.28 65.3249 1410.25 63.2184 L1410.25 70.267 Q1406.24 71.9684 1402.03 72.8596 Q1397.81 73.7508 1393.48 73.7508 Q1382.62 73.7508 1376.26 67.4314 Q1369.94 61.1119 1369.94 50.3365 Q1369.94 39.1965 1375.94 32.6746 Q1381.97 26.1121 1392.18 26.1121 Q1401.34 26.1121 1406.64 32.0264 Q1411.99 37.9003 1411.99 48.0275 M1404.54 45.84 Q1404.46 39.7232 1401.09 36.0774 Q1397.77 32.4315 1392.26 32.4315 Q1386.02 32.4315 1382.26 35.9558 Q1378.53 39.4801 1377.96 45.8805 L1404.54 45.84 Z" fill="#000000" fill-rule="evenodd" fill-opacity="1" /><path clip-path="url(#clip870)" d="M1454.08 34.0924 L1454.08 9.54393 L1461.53 9.54393 L1461.53 72.576 L1454.08 72.576 L1454.08 65.7705 Q1451.73 69.8214 1448.12 71.8063 Q1444.56 73.7508 1439.54 73.7508 Q1431.31 73.7508 1426.13 67.1883 Q1420.98 60.6258 1420.98 49.9314 Q1420.98 39.2371 1426.13 32.6746 Q1431.31 26.1121 1439.54 26.1121 Q1444.56 26.1121 1448.12 28.0971 Q1451.73 30.0415 1454.08 34.0924 M1428.68 49.9314 Q1428.68 58.1548 1432.04 62.8538 Q1435.45 67.5124 1441.36 67.5124 Q1447.27 67.5124 1450.68 62.8538 Q1454.08 58.1548 1454.08 49.9314 Q1454.08 41.7081 1450.68 37.0496 Q1447.27 32.3505 1441.36 32.3505 Q1435.45 32.3505 1432.04 37.0496 Q1428.68 41.7081 1428.68 49.9314 Z" fill="#000000" fill-rule="evenodd" fill-opacity="1" /><polyline clip-path="url(#clip872)" style="stroke:#009af9; stroke-linecap:butt; stroke-linejoin:round; stroke-width:4; stroke-opacity:1; fill:none" points="
  234.125,1354.01 239.422,1343.91 244.719,1333.3 250.015,1322.14 255.312,1310.38 260.608,1298.01 265.905,1284.98 271.201,1271.06 276.498,1255.66 281.795,1239.39 
  287.091,1222.36 292.388,1204.49 297.684,1185.75 302.981,1165.95 308.278,1145.48 313.574,1124.64 318.871,1103.47 324.167,1081.68 329.464,1058.85 334.76,1035.12 
  340.057,1010.53 345.354,985.297 350.65,961.239 355.947,937.41 361.243,912.648 366.54,886.675 371.836,859.914 377.133,832.519 382.43,804.495 387.726,773.013 
  393.023,738.114 398.319,701.329 403.616,663.723 408.912,625.901 414.209,588.005 419.506,549.219 424.802,506.843 430.099,463.194 435.395,419.87 440.692,375.739 
  445.988,329.749 451.285,291.942 456.582,266.053 461.878,247.397 467.175,228.795 472.471,211.395 477.768,195.362 483.065,180.827 488.361,168.712 493.658,162.186 
  498.954,160.256 504.251,161.715 509.547,165.698 514.844,171.772 520.141,180.142 525.437,190.731 530.734,203.156 536.03,216.413 541.327,230.882 546.623,246.907 
  551.92,264.6 557.217,283.842 562.513,304.286 567.81,325.779 573.106,348.999 578.403,373.998 583.699,403.156 588.996,434.428 594.293,458.622 599.589,476.16 
  604.886,497.489 610.182,530.929 615.479,564.823 620.776,598.662 626.072,632.385 631.369,666.112 636.665,699.569 641.962,732.443 647.258,764.515 652.555,795.665 
  657.852,825.867 663.148,855.194 668.445,883.812 673.741,911.984 679.038,939.83 684.334,967.169 689.631,993.831 694.928,1019.7 700.224,1044.7 705.521,1068.81 
  710.817,1091.8 716.114,1112.91 721.41,1132.63 726.707,1151.43 732.004,1169.6 737.3,1187.24 742.597,1204.27 747.893,1220.61 753.19,1236.39 758.486,1251.39 
  763.783,1265.38 769.08,1278.2 774.376,1289.77 779.673,1300.03 784.969,1308.99 790.266,1316.77 795.563,1323.52 800.859,1329.4 806.156,1334.52 811.452,1338.97 
  816.749,1342.82 822.045,1346.12 827.342,1348.85 832.639,1351.03 837.935,1352.73 843.232,1353.98 848.528,1354.82 853.825,1355.25 859.121,1355.27 864.418,1354.75 
  869.715,1353.64 875.011,1351.96 880.308,1349.73 885.604,1346.93 890.901,1343.58 896.197,1339.64 901.494,1334.93 906.791,1329.35 912.087,1322.83 917.384,1315.3 
  922.68,1306.77 927.977,1297.65 933.273,1287.77 938.57,1277.04 943.867,1265.53 949.163,1253.51 954.46,1241.33 959.756,1228.65 965.053,1215.1 970.35,1200.54 
  975.646,1185.03 980.943,1168.83 986.239,1151.65 991.536,1133.83 996.832,1116.46 1002.13,1099.83 1007.43,1083.43 1012.72,1065.98 1018.02,1046.65 1023.32,1027.09 
  1028.61,1007.4 1033.91,987.647 1039.21,967.88 1044.5,948.054 1049.8,927.531 1055.09,906.367 1060.39,884.779 1065.69,862.975 1070.98,841.162 1076.28,819.541 
  1081.58,798.308 1086.87,777.064 1092.17,751.3 1097.47,723.036 1102.76,694.715 1108.06,667.27 1113.36,640.209 1118.65,613.336 1123.95,587.348 1129.25,562.753 
  1134.54,539.833 1139.84,518.645 1145.14,499.21 1150.43,481.558 1155.73,465.126 1161.03,449.589 1166.32,434.921 1171.62,421.382 1176.92,409.654 1182.21,400.312 
  1187.51,392.208 1192.81,384.512 1198.1,376.936 1203.4,369.738 1208.7,363.718 1213.99,359.84 1219.29,357.902 1224.59,358.027 1229.88,360.318 1235.18,364.796 
  1240.47,371.399 1245.77,379.981 1251.07,390.179 1256.36,401.625 1261.66,414.802 1266.96,430.059 1272.25,447.536 1277.55,467.165 1282.85,488.669 1288.14,511.561 
  1293.44,535.147 1298.74,558.521 1304.03,580.798 1309.33,602.128 1314.63,622.557 1319.92,642.11 1325.22,660.856 1330.52,678.9 1335.81,696.389 1341.11,713.508 
  1346.41,730.213 1351.7,745.777 1357,760.515 1362.3,774.745 1367.59,788.658 1372.89,802.321 1378.19,815.678 1383.48,828.877 1388.78,842.471 1394.08,856.125 
  1399.37,869.602 1404.67,882.82 1409.97,895.852 1415.26,908.864 1420.56,920.748 1425.86,931.648 1431.15,942.194 1436.45,952.701 1441.74,963.164 1447.04,973.614 
  1452.34,984.045 1457.63,994.02 1462.93,1003.27 1468.23,1011.7 1473.52,1019.37 1478.82,1026.54 1484.12,1033.57 1489.41,1040.43 1494.71,1047.18 1500.01,1053.94 
  1505.3,1060.75 1510.6,1067.61 1515.9,1074.46 1521.19,1081.19 1526.49,1087.66 1531.79,1093.89 1537.08,1099.94 1542.38,1105.84 1547.68,1111.62 1552.97,1117.32 
  1558.27,1122.93 1563.57,1128.47 1568.86,1133.91 1574.16,1139.19 1579.46,1144.43 1584.75,1149.76 1590.05,1155.26 1595.35,1160.97 1600.64,1166.87 1605.94,1172.9 
  1611.24,1178.96 1616.53,1184.9 1621.83,1190.72 1627.12,1196.43 1632.42,1202.04 1637.72,1207.57 1643.01,1213.01 1648.31,1218.36 1653.61,1223.62 1658.9,1228.76 
  1664.2,1233.8 1669.5,1238.74 1674.79,1243.58 1680.09,1248.33 1685.39,1252.99 1690.68,1257.56 1695.98,1262.04 1701.28,1266.42 1706.57,1270.71 1711.87,1274.9 
  1717.17,1278.81 1722.46,1282.19 1727.76,1285.04 1733.06,1287.35 1738.35,1289.1 1743.65,1290.27 1748.95,1290.86 1754.24,1290.83 1759.54,1290.17 1764.84,1288.88 
  1770.13,1286.88 1775.43,1284.1 1780.73,1280.46 1786.02,1275.92 1791.32,1270.45 1796.62,1264.03 1801.91,1256.32 1807.21,1247.35 1812.51,1237.27 1817.8,1226.22 
  1823.1,1214.34 1828.39,1201.74 1833.69,1188.52 1838.99,1174.78 1844.28,1160.58 1849.58,1145.99 1854.88,1130.98 1860.17,1115.34 1865.47,1099.32 1870.77,1083.17 
  1876.06,1067.05 1881.36,1051.04 1886.66,1035.13 1891.95,1019.25 1897.25,1003.28 1902.55,987.624 1907.84,972.188 1913.14,956.791 1918.44,941.393 1923.73,926.09 
  1929.03,911.167 1934.33,897.012 1939.62,882.879 1944.92,868.19 1950.22,852.775 1955.51,836.875 1960.81,821.137 1966.11,806.492 1971.4,792.664 1976.7,778.909 
  1982,764.684 1987.29,749.649 1992.59,733.663 1997.89,716.791 2003.18,699.255 2008.48,681.076 2013.78,662.338 2019.07,643.138 2024.37,623.544 2029.66,603.591 
  2034.96,583.284 2040.26,562.608 2045.55,542.696 2050.85,523.893 2056.15,505.673 2061.44,487.613 2066.74,469.402 2072.04,450.834 2077.33,431.814 2082.63,412.351 
  2087.93,392.866 2093.22,377.181 2098.52,363.724 2103.82,350.209 2109.11,335.781 2114.41,320.462 2119.71,303.063 2125,288.34 2130.3,279.485 2135.6,276.577 
  2140.89,276.623 2146.19,277.505 2151.49,278.989 2156.78,280.513 2162.08,281.997 2167.38,283.784 2172.67,285.938 2177.97,288.382 2183.27,291.074 2188.56,293.976 
  2193.86,297.05 2199.16,300.259 2204.45,303.409 2209.75,306.512 2215.04,309.65 2220.34,312.858 2225.64,316.123 2230.93,318.374 2236.23,317.837 2241.53,316.644 
  2246.82,316.192 2252.12,316.857 2257.42,318.01 2262.71,319.872 2268.01,321.107 2273.31,320.271 2278.6,317.867 2283.9,315.615 2289.2,313.517 2294.49,311.524 
  2299.79,309.624 2305.09,307.806 2310.38,306.082 2315.68,306.12 2320.98,306.515 2326.27,304.936 2331.57,300.542 2336.87,292.881 2342.16,285.26 2347.46,279.875 
  2352.76,267.224 
  "/>
<polyline clip-path="url(#clip872)" style="stroke:#e26f46; stroke-linecap:butt; stroke-linejoin:round; stroke-width:4; stroke-opacity:1; fill:none" points="
  234.125,1378.64 239.422,1374.66 244.719,1369.96 250.015,1364.57 255.312,1358.53 260.608,1351.87 265.905,1344.61 271.201,1336.87 276.498,1328.9 281.795,1320.23 
  287.091,1310.84 292.388,1300.8 297.684,1290.14 302.981,1279.34 308.278,1267.46 313.574,1253.68 318.871,1238 324.167,1221.21 329.464,1204.43 334.76,1187.39 
  340.057,1170.04 345.354,1151.99 350.65,1128.65 355.947,1102.54 361.243,1076.76 366.54,1052.19 371.836,1027.96 377.133,1003.93 382.43,980.028 387.726,954.242 
  393.023,926.528 398.319,897.841 403.616,868.825 408.912,839.815 414.209,810.834 419.506,781.703 424.802,752.66 430.099,723.337 435.395,693.556 440.692,663.3 
  445.988,632.489 451.285,603.108 456.582,576.464 461.878,552.797 467.175,531.516 472.471,512.341 477.768,495.193 483.065,480.007 488.361,471.58 493.658,484.079 
  498.954,503.856 504.251,521.332 509.547,534.777 514.844,548.804 520.141,563.096 525.437,577.362 530.734,590.847 536.03,600.456 541.327,608.25 546.623,616.236 
  551.92,625.678 557.217,637.096 562.513,650.215 567.81,664.035 573.106,680.914 578.403,700.895 583.699,721.841 588.996,743.257 594.293,763.413 599.589,782.252 
  604.886,801.504 610.182,822.826 615.479,844.603 620.776,866.654 626.072,888.875 631.369,911.237 636.665,933.578 641.962,955.728 647.258,977.554 652.555,998.962 
  657.852,1019.9 663.148,1040.34 668.445,1060.31 673.741,1079.91 679.038,1099.41 684.334,1118.62 689.631,1137.34 694.928,1155.42 700.224,1172.8 705.521,1189.52 
  710.817,1205.49 716.114,1220.21 721.41,1233.97 726.707,1247.06 732.004,1259.67 737.3,1271.87 742.597,1283.63 747.893,1294.92 753.19,1305.86 758.486,1316.25 
  763.783,1325.92 769.08,1334.78 774.376,1342.74 779.673,1349.8 784.969,1355.87 790.266,1361 795.563,1365.4 800.859,1369.23 806.156,1372.61 811.452,1375.59 
  816.749,1378.21 822.045,1380.43 827.342,1382.23 832.639,1383.67 837.935,1384.78 843.232,1385.6 848.528,1386.13 853.825,1386.4 859.121,1386.36 864.418,1385.44 
  869.715,1383.76 875.011,1381.64 880.308,1379.3 885.604,1376.78 890.901,1374 896.197,1370.68 901.494,1366.12 906.791,1360.65 912.087,1354.62 917.384,1348.06 
  922.68,1340.77 927.977,1333.07 933.273,1324.88 938.57,1316.14 943.867,1306.89 949.163,1297.27 954.46,1287.6 959.756,1277.53 965.053,1266.67 970.35,1254.87 
  975.646,1242.23 980.943,1229.05 986.239,1215.78 991.536,1202.23 996.832,1188.08 1002.13,1173.3 1007.43,1158.17 1012.72,1143.22 1018.02,1128.74 1023.32,1114.01 
  1028.61,1099.07 1033.91,1083.97 1039.21,1068.76 1044.5,1053.24 1049.8,1035.8 1055.09,1017.09 1060.39,997.974 1065.69,979.056 1070.98,960.685 1076.28,942.946 
  1081.58,925.666 1086.87,907.946 1092.17,885.996 1097.47,861.87 1102.76,837.822 1108.06,814.702 1113.36,791.803 1118.65,768.363 1123.95,746.935 1129.25,729.095 
  1134.54,714.905 1139.84,702.918 1145.14,691.292 1150.43,680.6 1155.73,669.869 1161.03,658.582 1166.32,646.854 1171.62,635.437 1176.92,625.662 1182.21,617.886 
  1187.51,611.173 1192.81,604.899 1198.1,598.84 1203.4,593.171 1208.7,588.466 1213.99,585.435 1219.29,583.95 1224.59,584.067 1229.88,585.842 1235.18,589.287 
  1240.47,594.371 1245.77,601.022 1251.07,609.006 1256.36,618.019 1261.66,628.422 1266.96,640.474 1272.25,654.277 1277.55,669.771 1282.85,686.735 1288.14,704.792 
  1293.44,723.4 1298.74,741.861 1304.03,759 1309.33,773.677 1314.63,786.95 1319.92,799.732 1325.22,812.61 1330.52,825.84 1335.81,839.351 1341.11,852.745 
  1346.41,865.241 1351.7,876.393 1357,886.747 1362.3,896.761 1367.59,906.73 1372.89,916.787 1378.19,926.905 1383.48,937.993 1388.78,951.937 1394.08,967.139 
  1399.37,982.299 1404.67,996.622 1409.97,1009.82 1415.26,1022.06 1420.56,1032.96 1425.86,1042.82 1431.15,1052.15 1436.45,1061.25 1441.74,1070.15 1447.04,1079.01 
  1452.34,1087.82 1457.63,1096.01 1462.93,1103.29 1468.23,1109.55 1473.52,1114.95 1478.82,1119.87 1484.12,1124.86 1489.41,1129.85 1494.71,1134.82 1500.01,1139.88 
  1505.3,1145.04 1510.6,1150.29 1515.9,1155.58 1521.19,1160.78 1526.49,1165.77 1531.79,1170.56 1537.08,1175.22 1542.38,1179.78 1547.68,1184.28 1552.97,1188.73 
  1558.27,1193.14 1563.57,1197.49 1568.86,1201.75 1574.16,1205.91 1579.46,1210.12 1584.75,1214.52 1590.05,1219.18 1595.35,1224.12 1600.64,1229.29 1605.94,1234.56 
  1611.24,1239.76 1616.53,1244.67 1621.83,1249.38 1627.12,1253.98 1632.42,1258.52 1637.72,1263.03 1643.01,1267.5 1648.31,1271.91 1653.61,1276.21 1658.9,1280.37 
  1664.2,1284.42 1669.5,1288.37 1674.79,1292.22 1680.09,1295.97 1685.39,1299.61 1690.68,1303.17 1695.98,1306.64 1701.28,1310.02 1706.57,1313.33 1711.87,1316.58 
  1717.17,1319.69 1722.46,1322.52 1727.76,1325.02 1733.06,1327.12 1738.35,1328.77 1743.65,1329.91 1748.95,1330.52 1754.24,1330.58 1759.54,1330.05 1764.84,1328.96 
  1770.13,1327.35 1775.43,1325.2 1780.73,1322.49 1786.02,1319.18 1791.32,1315.2 1796.62,1310.48 1801.91,1304.88 1807.21,1298.37 1812.51,1290.91 1817.8,1282.53 
  1823.1,1273.28 1828.39,1263.23 1833.69,1252.48 1838.99,1241.16 1844.28,1229.43 1849.58,1217.47 1854.88,1205.63 1860.17,1194.66 1865.47,1184.09 1870.77,1173.46 
  1876.06,1162.49 1881.36,1151.09 1886.66,1139.32 1891.95,1127.43 1897.25,1115.7 1902.55,1102.94 1907.84,1089.58 1913.14,1076.33 1918.44,1063.54 1923.73,1051.22 
  1929.03,1039.13 1934.33,1027.59 1939.62,1016.21 1944.92,1004.6 1950.22,992.654 1955.51,980.482 1960.81,968.464 1966.11,957.656 1971.4,947.648 1976.7,937.048 
  1982,924.99 1987.29,911.139 1992.59,895.685 1997.89,879.346 2003.18,863.154 2008.48,846.73 2013.78,830.258 2019.07,814.023 2024.37,798.134 2029.66,782.527 
  2034.96,766.965 2040.26,751.048 2045.55,735.709 2050.85,721.352 2056.15,707.455 2061.44,693.615 2066.74,679.546 2072.04,665.083 2077.33,650.177 2082.63,634.897 
  2087.93,619.498 2093.22,605.015 2098.52,591.172 2103.82,577.505 2109.11,563.856 2114.41,549.195 2119.71,530.133 2125,519.041 2130.3,522.988 2135.6,539.871 
  2140.89,558.578 2146.19,573.412 2151.49,585.852 2156.78,595.389 2162.08,602.567 2167.38,608.822 2172.67,614.555 2177.97,619.755 2183.27,624.507 2188.56,628.89 
  2193.86,632.978 2199.16,636.82 2204.45,639.979 2209.75,642.594 2215.04,645.018 2220.34,647.454 2225.64,649.953 2230.93,654.299 2236.23,663.566 2241.53,673.777 
  2246.82,682.374 2252.12,688.75 2257.42,694.238 2262.71,700.27 2268.01,704.808 2273.31,706.705 2278.6,706.66 2283.9,706.48 2289.2,706.185 2294.49,705.764 
  2299.79,705.242 2305.09,704.64 2310.38,703.765 2315.68,683.331 2320.98,647.697 2326.27,612.952 2331.57,584.919 2336.87,562.318 2342.16,538.15 2347.46,508.097 
  2352.76,492.061 
  "/>
<path clip-path="url(#clip870)" d="
M1831.55 322.316 L2282.13 322.316 L2282.13 166.796 L1831.55 166.796  Z
  " fill="#ffffff" fill-rule="evenodd" fill-opacity="1"/>
<polyline clip-path="url(#clip870)" style="stroke:#000000; stroke-linecap:butt; stroke-linejoin:round; stroke-width:4; stroke-opacity:1; fill:none" points="
  1831.55,322.316 2282.13,322.316 2282.13,166.796 1831.55,166.796 1831.55,322.316 
  "/>
<polyline clip-path="url(#clip870)" style="stroke:#009af9; stroke-linecap:butt; stroke-linejoin:round; stroke-width:4; stroke-opacity:1; fill:none" points="
  1855.09,218.636 1996.33,218.636 
  "/>
<path clip-path="url(#clip870)" d="M2030.5 199.944 Q2027.39 205.268 2025.89 210.476 Q2024.38 215.684 2024.38 221.032 Q2024.38 226.379 2025.89 231.633 Q2027.42 236.865 2030.5 242.166 L2026.79 242.166 Q2023.32 236.726 2021.58 231.471 Q2019.87 226.217 2019.87 221.032 Q2019.87 215.87 2021.58 210.638 Q2023.3 205.407 2026.79 199.944 L2030.5 199.944 Z" fill="#000000" fill-rule="evenodd" fill-opacity="1" /><path clip-path="url(#clip870)" d="M2042.97 202.629 L2042.97 209.99 L2051.75 209.99 L2051.75 213.3 L2042.97 213.3 L2042.97 227.374 Q2042.97 230.545 2043.83 231.448 Q2044.71 232.351 2047.37 232.351 L2051.75 232.351 L2051.75 235.916 L2047.37 235.916 Q2042.44 235.916 2040.56 234.087 Q2038.69 232.235 2038.69 227.374 L2038.69 213.3 L2035.56 213.3 L2035.56 209.99 L2038.69 209.99 L2038.69 202.629 L2042.97 202.629 Z" fill="#000000" fill-rule="evenodd" fill-opacity="1" /><path clip-path="url(#clip870)" d="M2058.43 230.036 L2063.32 230.036 L2063.32 234.018 L2059.52 241.425 L2056.54 241.425 L2058.43 234.018 L2058.43 230.036 Z" fill="#000000" fill-rule="evenodd" fill-opacity="1" /><path clip-path="url(#clip870)" d="M2072.6 201.356 L2094.45 201.356 L2094.45 205.291 L2077.28 205.291 L2077.28 215.522 L2093.74 215.522 L2093.74 219.457 L2077.28 219.457 L2077.28 231.981 L2094.87 231.981 L2094.87 235.916 L2072.6 235.916 L2072.6 201.356 Z" fill="#000000" fill-rule="evenodd" fill-opacity="1" /><path clip-path="url(#clip870)" d="M2101.98 199.897 L2111.79 199.897 L2111.79 203.208 L2106.24 203.208 L2106.24 238.856 L2111.79 238.856 L2111.79 242.166 L2101.98 242.166 L2101.98 199.897 Z" fill="#000000" fill-rule="evenodd" fill-opacity="1" /><path clip-path="url(#clip870)" d="M2122.28 231.981 L2129.92 231.981 L2129.92 205.615 L2121.61 207.282 L2121.61 203.022 L2129.87 201.356 L2134.55 201.356 L2134.55 231.981 L2142.18 231.981 L2142.18 235.916 L2122.28 235.916 L2122.28 231.981 Z" fill="#000000" fill-rule="evenodd" fill-opacity="1" /><path clip-path="url(#clip870)" d="M2160.98 199.897 L2160.98 242.166 L2151.17 242.166 L2151.17 238.856 L2156.7 238.856 L2156.7 203.208 L2151.17 203.208 L2151.17 199.897 L2160.98 199.897 Z" fill="#000000" fill-rule="evenodd" fill-opacity="1" /><path clip-path="url(#clip870)" d="M2179.75 199.944 Q2176.65 205.268 2175.15 210.476 Q2173.64 215.684 2173.64 221.032 Q2173.64 226.379 2175.15 231.633 Q2176.67 236.865 2179.75 242.166 L2176.05 242.166 Q2172.58 236.726 2170.84 231.471 Q2169.13 226.217 2169.13 221.032 Q2169.13 215.87 2170.84 210.638 Q2172.55 205.407 2176.05 199.944 L2179.75 199.944 Z" fill="#000000" fill-rule="evenodd" fill-opacity="1" /><path clip-path="url(#clip870)" d="M2192.23 202.629 L2192.23 209.99 L2201 209.99 L2201 213.3 L2192.23 213.3 L2192.23 227.374 Q2192.23 230.545 2193.09 231.448 Q2193.97 232.351 2196.63 232.351 L2201 232.351 L2201 235.916 L2196.63 235.916 Q2191.7 235.916 2189.82 234.087 Q2187.95 232.235 2187.95 227.374 L2187.95 213.3 L2184.82 213.3 L2184.82 209.99 L2187.95 209.99 L2187.95 202.629 L2192.23 202.629 Z" fill="#000000" fill-rule="evenodd" fill-opacity="1" /><path clip-path="url(#clip870)" d="M2205.93 199.944 L2209.64 199.944 Q2213.11 205.407 2214.82 210.638 Q2216.56 215.87 2216.56 221.032 Q2216.56 226.217 2214.82 231.471 Q2213.11 236.726 2209.64 242.166 L2205.93 242.166 Q2209.01 236.865 2210.52 231.633 Q2212.05 226.379 2212.05 221.032 Q2212.05 215.684 2210.52 210.476 Q2209.01 205.268 2205.93 199.944 Z" fill="#000000" fill-rule="evenodd" fill-opacity="1" /><path clip-path="url(#clip870)" d="M2224.43 199.944 L2228.13 199.944 Q2231.61 205.407 2233.32 210.638 Q2235.05 215.87 2235.05 221.032 Q2235.05 226.217 2233.32 231.471 Q2231.61 236.726 2228.13 242.166 L2224.43 242.166 Q2227.51 236.865 2229.01 231.633 Q2230.54 226.379 2230.54 221.032 Q2230.54 215.684 2229.01 210.476 Q2227.51 205.268 2224.43 199.944 Z" fill="#000000" fill-rule="evenodd" fill-opacity="1" /><polyline clip-path="url(#clip870)" style="stroke:#e26f46; stroke-linecap:butt; stroke-linejoin:round; stroke-width:4; stroke-opacity:1; fill:none" points="
  1855.09,270.476 1996.33,270.476 
  "/>
<path clip-path="url(#clip870)" d="M2030.5 251.784 Q2027.39 257.108 2025.89 262.316 Q2024.38 267.524 2024.38 272.872 Q2024.38 278.219 2025.89 283.473 Q2027.42 288.705 2030.5 294.006 L2026.79 294.006 Q2023.32 288.566 2021.58 283.311 Q2019.87 278.057 2019.87 272.872 Q2019.87 267.71 2021.58 262.478 Q2023.3 257.247 2026.79 251.784 L2030.5 251.784 Z" fill="#000000" fill-rule="evenodd" fill-opacity="1" /><path clip-path="url(#clip870)" d="M2042.97 254.469 L2042.97 261.83 L2051.75 261.83 L2051.75 265.14 L2042.97 265.14 L2042.97 279.214 Q2042.97 282.385 2043.83 283.288 Q2044.71 284.191 2047.37 284.191 L2051.75 284.191 L2051.75 287.756 L2047.37 287.756 Q2042.44 287.756 2040.56 285.927 Q2038.69 284.075 2038.69 279.214 L2038.69 265.14 L2035.56 265.14 L2035.56 261.83 L2038.69 261.83 L2038.69 254.469 L2042.97 254.469 Z" fill="#000000" fill-rule="evenodd" fill-opacity="1" /><path clip-path="url(#clip870)" d="M2058.43 281.876 L2063.32 281.876 L2063.32 285.858 L2059.52 293.265 L2056.54 293.265 L2058.43 285.858 L2058.43 281.876 Z" fill="#000000" fill-rule="evenodd" fill-opacity="1" /><path clip-path="url(#clip870)" d="M2072.6 253.196 L2094.45 253.196 L2094.45 257.131 L2077.28 257.131 L2077.28 267.362 L2093.74 267.362 L2093.74 271.297 L2077.28 271.297 L2077.28 283.821 L2094.87 283.821 L2094.87 287.756 L2072.6 287.756 L2072.6 253.196 Z" fill="#000000" fill-rule="evenodd" fill-opacity="1" /><path clip-path="url(#clip870)" d="M2101.98 251.737 L2111.79 251.737 L2111.79 255.048 L2106.24 255.048 L2106.24 290.696 L2111.79 290.696 L2111.79 294.006 L2101.98 294.006 L2101.98 251.737 Z" fill="#000000" fill-rule="evenodd" fill-opacity="1" /><path clip-path="url(#clip870)" d="M2125.49 283.821 L2141.81 283.821 L2141.81 287.756 L2119.87 287.756 L2119.87 283.821 Q2122.53 281.066 2127.11 276.436 Q2131.72 271.784 2132.9 270.441 Q2135.15 267.918 2136.03 266.182 Q2136.93 264.423 2136.93 262.733 Q2136.93 259.978 2134.99 258.242 Q2133.06 256.506 2129.96 256.506 Q2127.76 256.506 2125.31 257.27 Q2122.88 258.034 2120.1 259.585 L2120.1 254.862 Q2122.93 253.728 2125.38 253.149 Q2127.83 252.571 2129.87 252.571 Q2135.24 252.571 2138.43 255.256 Q2141.63 257.941 2141.63 262.432 Q2141.63 264.561 2140.82 266.483 Q2140.03 268.381 2137.93 270.973 Q2137.35 271.645 2134.24 274.862 Q2131.14 278.057 2125.49 283.821 Z" fill="#000000" fill-rule="evenodd" fill-opacity="1" /><path clip-path="url(#clip870)" d="M2160.98 251.737 L2160.98 294.006 L2151.17 294.006 L2151.17 290.696 L2156.7 290.696 L2156.7 255.048 L2151.17 255.048 L2151.17 251.737 L2160.98 251.737 Z" fill="#000000" fill-rule="evenodd" fill-opacity="1" /><path clip-path="url(#clip870)" d="M2179.75 251.784 Q2176.65 257.108 2175.15 262.316 Q2173.64 267.524 2173.64 272.872 Q2173.64 278.219 2175.15 283.473 Q2176.67 288.705 2179.75 294.006 L2176.05 294.006 Q2172.58 288.566 2170.84 283.311 Q2169.13 278.057 2169.13 272.872 Q2169.13 267.71 2170.84 262.478 Q2172.55 257.247 2176.05 251.784 L2179.75 251.784 Z" fill="#000000" fill-rule="evenodd" fill-opacity="1" /><path clip-path="url(#clip870)" d="M2192.23 254.469 L2192.23 261.83 L2201 261.83 L2201 265.14 L2192.23 265.14 L2192.23 279.214 Q2192.23 282.385 2193.09 283.288 Q2193.97 284.191 2196.63 284.191 L2201 284.191 L2201 287.756 L2196.63 287.756 Q2191.7 287.756 2189.82 285.927 Q2187.95 284.075 2187.95 279.214 L2187.95 265.14 L2184.82 265.14 L2184.82 261.83 L2187.95 261.83 L2187.95 254.469 L2192.23 254.469 Z" fill="#000000" fill-rule="evenodd" fill-opacity="1" /><path clip-path="url(#clip870)" d="M2205.93 251.784 L2209.64 251.784 Q2213.11 257.247 2214.82 262.478 Q2216.56 267.71 2216.56 272.872 Q2216.56 278.057 2214.82 283.311 Q2213.11 288.566 2209.64 294.006 L2205.93 294.006 Q2209.01 288.705 2210.52 283.473 Q2212.05 278.219 2212.05 272.872 Q2212.05 267.524 2210.52 262.316 Q2209.01 257.108 2205.93 251.784 Z" fill="#000000" fill-rule="evenodd" fill-opacity="1" /><path clip-path="url(#clip870)" d="M2224.43 251.784 L2228.13 251.784 Q2231.61 257.247 2233.32 262.478 Q2235.05 267.71 2235.05 272.872 Q2235.05 278.057 2233.32 283.311 Q2231.61 288.566 2228.13 294.006 L2224.43 294.006 Q2227.51 288.705 2229.01 283.473 Q2230.54 278.219 2230.54 272.872 Q2230.54 267.524 2229.01 262.316 Q2227.51 257.108 2224.43 251.784 Z" fill="#000000" fill-rule="evenodd" fill-opacity="1" /></svg>
