<?xml version="1.0" encoding="utf-8"?>
<svg xmlns="http://www.w3.org/2000/svg" xmlns:xlink="http://www.w3.org/1999/xlink" width="600" height="400" viewBox="0 0 2400 1600">
<defs>
  <clipPath id="clip240">
    <rect x="0" y="0" width="2400" height="1600"/>
  </clipPath>
</defs>
<path clip-path="url(#clip240)" d="
M0 1600 L2400 1600 L2400 0 L0 0  Z
  " fill="#ffffff" fill-rule="evenodd" fill-opacity="1"/>
<defs>
  <clipPath id="clip241">
    <rect x="480" y="0" width="1681" height="1600"/>
  </clipPath>
</defs>
<path clip-path="url(#clip240)" d="
M246.598 1486.45 L2352.76 1486.45 L2352.76 123.472 L246.598 123.472  Z
  " fill="#ffffff" fill-rule="evenodd" fill-opacity="1"/>
<defs>
  <clipPath id="clip242">
    <rect x="246" y="123" width="2107" height="1364"/>
  </clipPath>
</defs>
<polyline clip-path="url(#clip242)" style="stroke:#000000; stroke-linecap:butt; stroke-linejoin:round; stroke-width:2; stroke-opacity:0.1; fill:none" points="
  301.239,1486.45 301.239,123.472 
  "/>
<polyline clip-path="url(#clip242)" style="stroke:#000000; stroke-linecap:butt; stroke-linejoin:round; stroke-width:2; stroke-opacity:0.1; fill:none" points="
  797.974,1486.45 797.974,123.472 
  "/>
<polyline clip-path="url(#clip242)" style="stroke:#000000; stroke-linecap:butt; stroke-linejoin:round; stroke-width:2; stroke-opacity:0.1; fill:none" points="
  1294.71,1486.45 1294.71,123.472 
  "/>
<polyline clip-path="url(#clip242)" style="stroke:#000000; stroke-linecap:butt; stroke-linejoin:round; stroke-width:2; stroke-opacity:0.1; fill:none" points="
  1791.44,1486.45 1791.44,123.472 
  "/>
<polyline clip-path="url(#clip242)" style="stroke:#000000; stroke-linecap:butt; stroke-linejoin:round; stroke-width:2; stroke-opacity:0.1; fill:none" points="
  2288.18,1486.45 2288.18,123.472 
  "/>
<polyline clip-path="url(#clip240)" style="stroke:#000000; stroke-linecap:butt; stroke-linejoin:round; stroke-width:4; stroke-opacity:1; fill:none" points="
  246.598,1486.45 2352.76,1486.45 
  "/>
<polyline clip-path="url(#clip240)" style="stroke:#000000; stroke-linecap:butt; stroke-linejoin:round; stroke-width:4; stroke-opacity:1; fill:none" points="
  301.239,1486.45 301.239,1467.55 
  "/>
<polyline clip-path="url(#clip240)" style="stroke:#000000; stroke-linecap:butt; stroke-linejoin:round; stroke-width:4; stroke-opacity:1; fill:none" points="
  797.974,1486.45 797.974,1467.55 
  "/>
<polyline clip-path="url(#clip240)" style="stroke:#000000; stroke-linecap:butt; stroke-linejoin:round; stroke-width:4; stroke-opacity:1; fill:none" points="
  1294.71,1486.45 1294.71,1467.55 
  "/>
<polyline clip-path="url(#clip240)" style="stroke:#000000; stroke-linecap:butt; stroke-linejoin:round; stroke-width:4; stroke-opacity:1; fill:none" points="
  1791.44,1486.45 1791.44,1467.55 
  "/>
<polyline clip-path="url(#clip240)" style="stroke:#000000; stroke-linecap:butt; stroke-linejoin:round; stroke-width:4; stroke-opacity:1; fill:none" points="
  2288.18,1486.45 2288.18,1467.55 
  "/>
<path clip-path="url(#clip240)" d="M301.239 1515.64 Q297.628 1515.64 295.799 1519.2 Q293.993 1522.75 293.993 1529.87 Q293.993 1536.98 295.799 1540.55 Q297.628 1544.09 301.239 1544.09 Q304.873 1544.09 306.678 1540.55 Q308.507 1536.98 308.507 1529.87 Q308.507 1522.75 306.678 1519.2 Q304.873 1515.64 301.239 1515.64 M301.239 1511.93 Q307.049 1511.93 310.104 1516.54 Q313.183 1521.12 313.183 1529.87 Q313.183 1538.6 310.104 1543.21 Q307.049 1547.79 301.239 1547.79 Q295.428 1547.79 292.35 1543.21 Q289.294 1538.6 289.294 1529.87 Q289.294 1521.12 292.35 1516.54 Q295.428 1511.93 301.239 1511.93 Z" fill="#000000" fill-rule="evenodd" fill-opacity="1" /><path clip-path="url(#clip240)" d="M757.581 1543.18 L765.22 1543.18 L765.22 1516.82 L756.909 1518.49 L756.909 1514.23 L765.173 1512.56 L769.849 1512.56 L769.849 1543.18 L777.488 1543.18 L777.488 1547.12 L757.581 1547.12 L757.581 1543.18 Z" fill="#000000" fill-rule="evenodd" fill-opacity="1" /><path clip-path="url(#clip240)" d="M796.932 1515.64 Q793.321 1515.64 791.493 1519.2 Q789.687 1522.75 789.687 1529.87 Q789.687 1536.98 791.493 1540.55 Q793.321 1544.09 796.932 1544.09 Q800.567 1544.09 802.372 1540.55 Q804.201 1536.98 804.201 1529.87 Q804.201 1522.75 802.372 1519.2 Q800.567 1515.64 796.932 1515.64 M796.932 1511.93 Q802.743 1511.93 805.798 1516.54 Q808.877 1521.12 808.877 1529.87 Q808.877 1538.6 805.798 1543.21 Q802.743 1547.79 796.932 1547.79 Q791.122 1547.79 788.044 1543.21 Q784.988 1538.6 784.988 1529.87 Q784.988 1521.12 788.044 1516.54 Q791.122 1511.93 796.932 1511.93 Z" fill="#000000" fill-rule="evenodd" fill-opacity="1" /><path clip-path="url(#clip240)" d="M827.094 1515.64 Q823.483 1515.64 821.654 1519.2 Q819.849 1522.75 819.849 1529.87 Q819.849 1536.98 821.654 1540.55 Q823.483 1544.09 827.094 1544.09 Q830.729 1544.09 832.534 1540.55 Q834.363 1536.98 834.363 1529.87 Q834.363 1522.75 832.534 1519.2 Q830.729 1515.64 827.094 1515.64 M827.094 1511.93 Q832.904 1511.93 835.96 1516.54 Q839.039 1521.12 839.039 1529.87 Q839.039 1538.6 835.96 1543.21 Q832.904 1547.79 827.094 1547.79 Q821.284 1547.79 818.205 1543.21 Q815.15 1538.6 815.15 1529.87 Q815.15 1521.12 818.205 1516.54 Q821.284 1511.93 827.094 1511.93 Z" fill="#000000" fill-rule="evenodd" fill-opacity="1" /><path clip-path="url(#clip240)" d="M1258.4 1543.18 L1274.72 1543.18 L1274.72 1547.12 L1252.78 1547.12 L1252.78 1543.18 Q1255.44 1540.43 1260.02 1535.8 Q1264.63 1531.15 1265.81 1529.81 Q1268.05 1527.28 1268.93 1525.55 Q1269.84 1523.79 1269.84 1522.1 Q1269.84 1519.34 1267.89 1517.61 Q1265.97 1515.87 1262.87 1515.87 Q1260.67 1515.87 1258.22 1516.63 Q1255.79 1517.4 1253.01 1518.95 L1253.01 1514.23 Q1255.83 1513.09 1258.29 1512.51 Q1260.74 1511.93 1262.78 1511.93 Q1268.15 1511.93 1271.34 1514.62 Q1274.54 1517.31 1274.54 1521.8 Q1274.54 1523.93 1273.73 1525.85 Q1272.94 1527.74 1270.83 1530.34 Q1270.25 1531.01 1267.15 1534.23 Q1264.05 1537.42 1258.4 1543.18 Z" fill="#000000" fill-rule="evenodd" fill-opacity="1" /><path clip-path="url(#clip240)" d="M1294.54 1515.64 Q1290.92 1515.64 1289.1 1519.2 Q1287.29 1522.75 1287.29 1529.87 Q1287.29 1536.98 1289.1 1540.55 Q1290.92 1544.09 1294.54 1544.09 Q1298.17 1544.09 1299.98 1540.55 Q1301.8 1536.98 1301.8 1529.87 Q1301.8 1522.75 1299.98 1519.2 Q1298.17 1515.64 1294.54 1515.64 M1294.54 1511.93 Q1300.35 1511.93 1303.4 1516.54 Q1306.48 1521.12 1306.48 1529.87 Q1306.48 1538.6 1303.4 1543.21 Q1300.35 1547.79 1294.54 1547.79 Q1288.73 1547.79 1285.65 1543.21 Q1282.59 1538.6 1282.59 1529.87 Q1282.59 1521.12 1285.65 1516.54 Q1288.73 1511.93 1294.54 1511.93 Z" fill="#000000" fill-rule="evenodd" fill-opacity="1" /><path clip-path="url(#clip240)" d="M1324.7 1515.64 Q1321.09 1515.64 1319.26 1519.2 Q1317.45 1522.75 1317.45 1529.87 Q1317.45 1536.98 1319.26 1540.55 Q1321.09 1544.09 1324.7 1544.09 Q1328.33 1544.09 1330.14 1540.55 Q1331.97 1536.98 1331.97 1529.87 Q1331.97 1522.75 1330.14 1519.2 Q1328.33 1515.64 1324.7 1515.64 M1324.7 1511.93 Q1330.51 1511.93 1333.56 1516.54 Q1336.64 1521.12 1336.64 1529.87 Q1336.64 1538.6 1333.56 1543.21 Q1330.51 1547.79 1324.7 1547.79 Q1318.89 1547.79 1315.81 1543.21 Q1312.75 1538.6 1312.75 1529.87 Q1312.75 1521.12 1315.81 1516.54 Q1318.89 1511.93 1324.7 1511.93 Z" fill="#000000" fill-rule="evenodd" fill-opacity="1" /><path clip-path="url(#clip240)" d="M1765.21 1528.49 Q1768.56 1529.2 1770.44 1531.47 Q1772.34 1533.74 1772.34 1537.07 Q1772.34 1542.19 1768.82 1544.99 Q1765.3 1547.79 1758.82 1547.79 Q1756.64 1547.79 1754.33 1547.35 Q1752.04 1546.93 1749.58 1546.08 L1749.58 1541.56 Q1751.53 1542.7 1753.84 1543.28 Q1756.16 1543.86 1758.68 1543.86 Q1763.08 1543.86 1765.37 1542.12 Q1767.68 1540.38 1767.68 1537.07 Q1767.68 1534.02 1765.53 1532.31 Q1763.4 1530.57 1759.58 1530.57 L1755.55 1530.57 L1755.55 1526.73 L1759.77 1526.73 Q1763.22 1526.73 1765.04 1525.36 Q1766.87 1523.97 1766.87 1521.38 Q1766.87 1518.72 1764.98 1517.31 Q1763.1 1515.87 1759.58 1515.87 Q1757.66 1515.87 1755.46 1516.29 Q1753.26 1516.7 1750.62 1517.58 L1750.62 1513.42 Q1753.29 1512.68 1755.6 1512.31 Q1757.94 1511.93 1760 1511.93 Q1765.32 1511.93 1768.42 1514.37 Q1771.53 1516.77 1771.53 1520.89 Q1771.53 1523.76 1769.88 1525.75 Q1768.24 1527.72 1765.21 1528.49 Z" fill="#000000" fill-rule="evenodd" fill-opacity="1" /><path clip-path="url(#clip240)" d="M1791.2 1515.64 Q1787.59 1515.64 1785.76 1519.2 Q1783.96 1522.75 1783.96 1529.87 Q1783.96 1536.98 1785.76 1540.55 Q1787.59 1544.09 1791.2 1544.09 Q1794.84 1544.09 1796.64 1540.55 Q1798.47 1536.98 1798.47 1529.87 Q1798.47 1522.75 1796.64 1519.2 Q1794.84 1515.64 1791.2 1515.64 M1791.2 1511.93 Q1797.01 1511.93 1800.07 1516.54 Q1803.15 1521.12 1803.15 1529.87 Q1803.15 1538.6 1800.07 1543.21 Q1797.01 1547.79 1791.2 1547.79 Q1785.39 1547.79 1782.31 1543.21 Q1779.26 1538.6 1779.26 1529.87 Q1779.26 1521.12 1782.31 1516.54 Q1785.39 1511.93 1791.2 1511.93 Z" fill="#000000" fill-rule="evenodd" fill-opacity="1" /><path clip-path="url(#clip240)" d="M1821.36 1515.64 Q1817.75 1515.64 1815.92 1519.2 Q1814.12 1522.75 1814.12 1529.87 Q1814.12 1536.98 1815.92 1540.55 Q1817.75 1544.09 1821.36 1544.09 Q1825 1544.09 1826.8 1540.55 Q1828.63 1536.98 1828.63 1529.87 Q1828.63 1522.75 1826.8 1519.2 Q1825 1515.64 1821.36 1515.64 M1821.36 1511.93 Q1827.17 1511.93 1830.23 1516.54 Q1833.31 1521.12 1833.31 1529.87 Q1833.31 1538.6 1830.23 1543.21 Q1827.17 1547.79 1821.36 1547.79 Q1815.55 1547.79 1812.47 1543.21 Q1809.42 1538.6 1809.42 1529.87 Q1809.42 1521.12 1812.47 1516.54 Q1815.55 1511.93 1821.36 1511.93 Z" fill="#000000" fill-rule="evenodd" fill-opacity="1" /><path clip-path="url(#clip240)" d="M2261.27 1516.63 L2249.47 1535.08 L2261.27 1535.08 L2261.27 1516.63 M2260.04 1512.56 L2265.92 1512.56 L2265.92 1535.08 L2270.85 1535.08 L2270.85 1538.97 L2265.92 1538.97 L2265.92 1547.12 L2261.27 1547.12 L2261.27 1538.97 L2245.67 1538.97 L2245.67 1534.46 L2260.04 1512.56 Z" fill="#000000" fill-rule="evenodd" fill-opacity="1" /><path clip-path="url(#clip240)" d="M2288.59 1515.64 Q2284.97 1515.64 2283.15 1519.2 Q2281.34 1522.75 2281.34 1529.87 Q2281.34 1536.98 2283.15 1540.55 Q2284.97 1544.09 2288.59 1544.09 Q2292.22 1544.09 2294.03 1540.55 Q2295.85 1536.98 2295.85 1529.87 Q2295.85 1522.75 2294.03 1519.2 Q2292.22 1515.64 2288.59 1515.64 M2288.59 1511.93 Q2294.4 1511.93 2297.45 1516.54 Q2300.53 1521.12 2300.53 1529.87 Q2300.53 1538.6 2297.45 1543.21 Q2294.4 1547.79 2288.59 1547.79 Q2282.78 1547.79 2279.7 1543.21 Q2276.64 1538.6 2276.64 1529.87 Q2276.64 1521.12 2279.7 1516.54 Q2282.78 1511.93 2288.59 1511.93 Z" fill="#000000" fill-rule="evenodd" fill-opacity="1" /><path clip-path="url(#clip240)" d="M2318.75 1515.64 Q2315.14 1515.64 2313.31 1519.2 Q2311.5 1522.75 2311.5 1529.87 Q2311.5 1536.98 2313.31 1540.55 Q2315.14 1544.09 2318.75 1544.09 Q2322.38 1544.09 2324.19 1540.55 Q2326.02 1536.98 2326.02 1529.87 Q2326.02 1522.75 2324.19 1519.2 Q2322.38 1515.64 2318.75 1515.64 M2318.75 1511.93 Q2324.56 1511.93 2327.61 1516.54 Q2330.69 1521.12 2330.69 1529.87 Q2330.69 1538.6 2327.61 1543.21 Q2324.56 1547.79 2318.75 1547.79 Q2312.94 1547.79 2309.86 1543.21 Q2306.8 1538.6 2306.8 1529.87 Q2306.8 1521.12 2309.86 1516.54 Q2312.94 1511.93 2318.75 1511.93 Z" fill="#000000" fill-rule="evenodd" fill-opacity="1" /><polyline clip-path="url(#clip242)" style="stroke:#000000; stroke-linecap:butt; stroke-linejoin:round; stroke-width:2; stroke-opacity:0.1; fill:none" points="
  246.598,1474.98 2352.76,1474.98 
  "/>
<polyline clip-path="url(#clip242)" style="stroke:#000000; stroke-linecap:butt; stroke-linejoin:round; stroke-width:2; stroke-opacity:0.1; fill:none" points="
  246.598,1184.73 2352.76,1184.73 
  "/>
<polyline clip-path="url(#clip242)" style="stroke:#000000; stroke-linecap:butt; stroke-linejoin:round; stroke-width:2; stroke-opacity:0.1; fill:none" points="
  246.598,894.48 2352.76,894.48 
  "/>
<polyline clip-path="url(#clip242)" style="stroke:#000000; stroke-linecap:butt; stroke-linejoin:round; stroke-width:2; stroke-opacity:0.1; fill:none" points="
  246.598,604.23 2352.76,604.23 
  "/>
<polyline clip-path="url(#clip242)" style="stroke:#000000; stroke-linecap:butt; stroke-linejoin:round; stroke-width:2; stroke-opacity:0.1; fill:none" points="
  246.598,313.979 2352.76,313.979 
  "/>
<polyline clip-path="url(#clip240)" style="stroke:#000000; stroke-linecap:butt; stroke-linejoin:round; stroke-width:4; stroke-opacity:1; fill:none" points="
  246.598,1486.45 246.598,123.472 
  "/>
<polyline clip-path="url(#clip240)" style="stroke:#000000; stroke-linecap:butt; stroke-linejoin:round; stroke-width:4; stroke-opacity:1; fill:none" points="
  246.598,1474.98 265.495,1474.98 
  "/>
<polyline clip-path="url(#clip240)" style="stroke:#000000; stroke-linecap:butt; stroke-linejoin:round; stroke-width:4; stroke-opacity:1; fill:none" points="
  246.598,1184.73 265.495,1184.73 
  "/>
<polyline clip-path="url(#clip240)" style="stroke:#000000; stroke-linecap:butt; stroke-linejoin:round; stroke-width:4; stroke-opacity:1; fill:none" points="
  246.598,894.48 265.495,894.48 
  "/>
<polyline clip-path="url(#clip240)" style="stroke:#000000; stroke-linecap:butt; stroke-linejoin:round; stroke-width:4; stroke-opacity:1; fill:none" points="
  246.598,604.23 265.495,604.23 
  "/>
<polyline clip-path="url(#clip240)" style="stroke:#000000; stroke-linecap:butt; stroke-linejoin:round; stroke-width:4; stroke-opacity:1; fill:none" points="
  246.598,313.979 265.495,313.979 
  "/>
<path clip-path="url(#clip240)" d="M62.9365 1460.78 Q59.3254 1460.78 57.4967 1464.34 Q55.6912 1467.89 55.6912 1475.02 Q55.6912 1482.12 57.4967 1485.69 Q59.3254 1489.23 62.9365 1489.23 Q66.5707 1489.23 68.3763 1485.69 Q70.205 1482.12 70.205 1475.02 Q70.205 1467.89 68.3763 1464.34 Q66.5707 1460.78 62.9365 1460.78 M62.9365 1457.08 Q68.7467 1457.08 71.8022 1461.68 Q74.8809 1466.27 74.8809 1475.02 Q74.8809 1483.74 71.8022 1488.35 Q68.7467 1492.93 62.9365 1492.93 Q57.1264 1492.93 54.0477 1488.35 Q50.9921 1483.74 50.9921 1475.02 Q50.9921 1466.27 54.0477 1461.68 Q57.1264 1457.08 62.9365 1457.08 Z" fill="#000000" fill-rule="evenodd" fill-opacity="1" /><path clip-path="url(#clip240)" d="M83.0984 1486.38 L87.9827 1486.38 L87.9827 1492.26 L83.0984 1492.26 L83.0984 1486.38 Z" fill="#000000" fill-rule="evenodd" fill-opacity="1" /><path clip-path="url(#clip240)" d="M108.168 1460.78 Q104.557 1460.78 102.728 1464.34 Q100.922 1467.89 100.922 1475.02 Q100.922 1482.12 102.728 1485.69 Q104.557 1489.23 108.168 1489.23 Q111.802 1489.23 113.608 1485.69 Q115.436 1482.12 115.436 1475.02 Q115.436 1467.89 113.608 1464.34 Q111.802 1460.78 108.168 1460.78 M108.168 1457.08 Q113.978 1457.08 117.033 1461.68 Q120.112 1466.27 120.112 1475.02 Q120.112 1483.74 117.033 1488.35 Q113.978 1492.93 108.168 1492.93 Q102.358 1492.93 99.2789 1488.35 Q96.2234 1483.74 96.2234 1475.02 Q96.2234 1466.27 99.2789 1461.68 Q102.358 1457.08 108.168 1457.08 Z" fill="#000000" fill-rule="evenodd" fill-opacity="1" /><path clip-path="url(#clip240)" d="M138.33 1460.78 Q134.719 1460.78 132.89 1464.34 Q131.084 1467.89 131.084 1475.02 Q131.084 1482.12 132.89 1485.69 Q134.719 1489.23 138.33 1489.23 Q141.964 1489.23 143.769 1485.69 Q145.598 1482.12 145.598 1475.02 Q145.598 1467.89 143.769 1464.34 Q141.964 1460.78 138.33 1460.78 M138.33 1457.08 Q144.14 1457.08 147.195 1461.68 Q150.274 1466.27 150.274 1475.02 Q150.274 1483.74 147.195 1488.35 Q144.14 1492.93 138.33 1492.93 Q132.519 1492.93 129.441 1488.35 Q126.385 1483.74 126.385 1475.02 Q126.385 1466.27 129.441 1461.68 Q132.519 1457.08 138.33 1457.08 Z" fill="#000000" fill-rule="evenodd" fill-opacity="1" /><path clip-path="url(#clip240)" d="M168.491 1460.78 Q164.88 1460.78 163.052 1464.34 Q161.246 1467.89 161.246 1475.02 Q161.246 1482.12 163.052 1485.69 Q164.88 1489.23 168.491 1489.23 Q172.126 1489.23 173.931 1485.69 Q175.76 1482.12 175.76 1475.02 Q175.76 1467.89 173.931 1464.34 Q172.126 1460.78 168.491 1460.78 M168.491 1457.08 Q174.302 1457.08 177.357 1461.68 Q180.436 1466.27 180.436 1475.02 Q180.436 1483.74 177.357 1488.35 Q174.302 1492.93 168.491 1492.93 Q162.681 1492.93 159.603 1488.35 Q156.547 1483.74 156.547 1475.02 Q156.547 1466.27 159.603 1461.68 Q162.681 1457.08 168.491 1457.08 Z" fill="#000000" fill-rule="evenodd" fill-opacity="1" /><path clip-path="url(#clip240)" d="M198.653 1460.78 Q195.042 1460.78 193.214 1464.34 Q191.408 1467.89 191.408 1475.02 Q191.408 1482.12 193.214 1485.69 Q195.042 1489.23 198.653 1489.23 Q202.288 1489.23 204.093 1485.69 Q205.922 1482.12 205.922 1475.02 Q205.922 1467.89 204.093 1464.34 Q202.288 1460.78 198.653 1460.78 M198.653 1457.08 Q204.464 1457.08 207.519 1461.68 Q210.598 1466.27 210.598 1475.02 Q210.598 1483.74 207.519 1488.35 Q204.464 1492.93 198.653 1492.93 Q192.843 1492.93 189.765 1488.35 Q186.709 1483.74 186.709 1475.02 Q186.709 1466.27 189.765 1461.68 Q192.843 1457.08 198.653 1457.08 Z" fill="#000000" fill-rule="evenodd" fill-opacity="1" /><path clip-path="url(#clip240)" d="M63.9319 1170.53 Q60.3208 1170.53 58.4921 1174.09 Q56.6865 1177.64 56.6865 1184.77 Q56.6865 1191.87 58.4921 1195.44 Q60.3208 1198.98 63.9319 1198.98 Q67.5661 1198.98 69.3717 1195.44 Q71.2004 1191.87 71.2004 1184.77 Q71.2004 1177.64 69.3717 1174.09 Q67.5661 1170.53 63.9319 1170.53 M63.9319 1166.83 Q69.742 1166.83 72.7976 1171.43 Q75.8763 1176.02 75.8763 1184.77 Q75.8763 1193.49 72.7976 1198.1 Q69.742 1202.68 63.9319 1202.68 Q58.1217 1202.68 55.043 1198.1 Q51.9875 1193.49 51.9875 1184.77 Q51.9875 1176.02 55.043 1171.43 Q58.1217 1166.83 63.9319 1166.83 Z" fill="#000000" fill-rule="evenodd" fill-opacity="1" /><path clip-path="url(#clip240)" d="M84.0938 1196.13 L88.978 1196.13 L88.978 1202.01 L84.0938 1202.01 L84.0938 1196.13 Z" fill="#000000" fill-rule="evenodd" fill-opacity="1" /><path clip-path="url(#clip240)" d="M109.163 1170.53 Q105.552 1170.53 103.723 1174.09 Q101.918 1177.64 101.918 1184.77 Q101.918 1191.87 103.723 1195.44 Q105.552 1198.98 109.163 1198.98 Q112.797 1198.98 114.603 1195.44 Q116.432 1191.87 116.432 1184.77 Q116.432 1177.64 114.603 1174.09 Q112.797 1170.53 109.163 1170.53 M109.163 1166.83 Q114.973 1166.83 118.029 1171.43 Q121.107 1176.02 121.107 1184.77 Q121.107 1193.49 118.029 1198.1 Q114.973 1202.68 109.163 1202.68 Q103.353 1202.68 100.274 1198.1 Q97.2187 1193.49 97.2187 1184.77 Q97.2187 1176.02 100.274 1171.43 Q103.353 1166.83 109.163 1166.83 Z" fill="#000000" fill-rule="evenodd" fill-opacity="1" /><path clip-path="url(#clip240)" d="M139.325 1170.53 Q135.714 1170.53 133.885 1174.09 Q132.08 1177.64 132.08 1184.77 Q132.08 1191.87 133.885 1195.44 Q135.714 1198.98 139.325 1198.98 Q142.959 1198.98 144.765 1195.44 Q146.593 1191.87 146.593 1184.77 Q146.593 1177.64 144.765 1174.09 Q142.959 1170.53 139.325 1170.53 M139.325 1166.83 Q145.135 1166.83 148.191 1171.43 Q151.269 1176.02 151.269 1184.77 Q151.269 1193.49 148.191 1198.1 Q145.135 1202.68 139.325 1202.68 Q133.515 1202.68 130.436 1198.1 Q127.381 1193.49 127.381 1184.77 Q127.381 1176.02 130.436 1171.43 Q133.515 1166.83 139.325 1166.83 Z" fill="#000000" fill-rule="evenodd" fill-opacity="1" /><path clip-path="url(#clip240)" d="M169.487 1170.53 Q165.876 1170.53 164.047 1174.09 Q162.242 1177.64 162.242 1184.77 Q162.242 1191.87 164.047 1195.44 Q165.876 1198.98 169.487 1198.98 Q173.121 1198.98 174.927 1195.44 Q176.755 1191.87 176.755 1184.77 Q176.755 1177.64 174.927 1174.09 Q173.121 1170.53 169.487 1170.53 M169.487 1166.83 Q175.297 1166.83 178.353 1171.43 Q181.431 1176.02 181.431 1184.77 Q181.431 1193.49 178.353 1198.1 Q175.297 1202.68 169.487 1202.68 Q163.677 1202.68 160.598 1198.1 Q157.542 1193.49 157.542 1184.77 Q157.542 1176.02 160.598 1171.43 Q163.677 1166.83 169.487 1166.83 Z" fill="#000000" fill-rule="evenodd" fill-opacity="1" /><path clip-path="url(#clip240)" d="M189.695 1167.45 L208.051 1167.45 L208.051 1171.39 L193.977 1171.39 L193.977 1179.86 Q194.996 1179.51 196.014 1179.35 Q197.033 1179.16 198.052 1179.16 Q203.839 1179.16 207.218 1182.33 Q210.598 1185.51 210.598 1190.92 Q210.598 1196.5 207.126 1199.6 Q203.653 1202.68 197.334 1202.68 Q195.158 1202.68 192.89 1202.31 Q190.644 1201.94 188.237 1201.2 L188.237 1196.5 Q190.32 1197.64 192.542 1198.19 Q194.765 1198.75 197.241 1198.75 Q201.246 1198.75 203.584 1196.64 Q205.922 1194.53 205.922 1190.92 Q205.922 1187.31 203.584 1185.2 Q201.246 1183.1 197.241 1183.1 Q195.366 1183.1 193.491 1183.52 Q191.64 1183.93 189.695 1184.81 L189.695 1167.45 Z" fill="#000000" fill-rule="evenodd" fill-opacity="1" /><path clip-path="url(#clip240)" d="M62.9365 880.279 Q59.3254 880.279 57.4967 883.844 Q55.6912 887.385 55.6912 894.515 Q55.6912 901.621 57.4967 905.186 Q59.3254 908.728 62.9365 908.728 Q66.5707 908.728 68.3763 905.186 Q70.205 901.621 70.205 894.515 Q70.205 887.385 68.3763 883.844 Q66.5707 880.279 62.9365 880.279 M62.9365 876.575 Q68.7467 876.575 71.8022 881.181 Q74.8809 885.765 74.8809 894.515 Q74.8809 903.242 71.8022 907.848 Q68.7467 912.431 62.9365 912.431 Q57.1264 912.431 54.0477 907.848 Q50.9921 903.242 50.9921 894.515 Q50.9921 885.765 54.0477 881.181 Q57.1264 876.575 62.9365 876.575 Z" fill="#000000" fill-rule="evenodd" fill-opacity="1" /><path clip-path="url(#clip240)" d="M83.0984 905.88 L87.9827 905.88 L87.9827 911.76 L83.0984 911.76 L83.0984 905.88 Z" fill="#000000" fill-rule="evenodd" fill-opacity="1" /><path clip-path="url(#clip240)" d="M108.168 880.279 Q104.557 880.279 102.728 883.844 Q100.922 887.385 100.922 894.515 Q100.922 901.621 102.728 905.186 Q104.557 908.728 108.168 908.728 Q111.802 908.728 113.608 905.186 Q115.436 901.621 115.436 894.515 Q115.436 887.385 113.608 883.844 Q111.802 880.279 108.168 880.279 M108.168 876.575 Q113.978 876.575 117.033 881.181 Q120.112 885.765 120.112 894.515 Q120.112 903.242 117.033 907.848 Q113.978 912.431 108.168 912.431 Q102.358 912.431 99.2789 907.848 Q96.2234 903.242 96.2234 894.515 Q96.2234 885.765 99.2789 881.181 Q102.358 876.575 108.168 876.575 Z" fill="#000000" fill-rule="evenodd" fill-opacity="1" /><path clip-path="url(#clip240)" d="M138.33 880.279 Q134.719 880.279 132.89 883.844 Q131.084 887.385 131.084 894.515 Q131.084 901.621 132.89 905.186 Q134.719 908.728 138.33 908.728 Q141.964 908.728 143.769 905.186 Q145.598 901.621 145.598 894.515 Q145.598 887.385 143.769 883.844 Q141.964 880.279 138.33 880.279 M138.33 876.575 Q144.14 876.575 147.195 881.181 Q150.274 885.765 150.274 894.515 Q150.274 903.242 147.195 907.848 Q144.14 912.431 138.33 912.431 Q132.519 912.431 129.441 907.848 Q126.385 903.242 126.385 894.515 Q126.385 885.765 129.441 881.181 Q132.519 876.575 138.33 876.575 Z" fill="#000000" fill-rule="evenodd" fill-opacity="1" /><path clip-path="url(#clip240)" d="M159.302 907.825 L166.941 907.825 L166.941 881.459 L158.63 883.126 L158.63 878.867 L166.894 877.2 L171.57 877.2 L171.57 907.825 L179.209 907.825 L179.209 911.76 L159.302 911.76 L159.302 907.825 Z" fill="#000000" fill-rule="evenodd" fill-opacity="1" /><path clip-path="url(#clip240)" d="M198.653 880.279 Q195.042 880.279 193.214 883.844 Q191.408 887.385 191.408 894.515 Q191.408 901.621 193.214 905.186 Q195.042 908.728 198.653 908.728 Q202.288 908.728 204.093 905.186 Q205.922 901.621 205.922 894.515 Q205.922 887.385 204.093 883.844 Q202.288 880.279 198.653 880.279 M198.653 876.575 Q204.464 876.575 207.519 881.181 Q210.598 885.765 210.598 894.515 Q210.598 903.242 207.519 907.848 Q204.464 912.431 198.653 912.431 Q192.843 912.431 189.765 907.848 Q186.709 903.242 186.709 894.515 Q186.709 885.765 189.765 881.181 Q192.843 876.575 198.653 876.575 Z" fill="#000000" fill-rule="evenodd" fill-opacity="1" /><path clip-path="url(#clip240)" d="M63.9319 590.028 Q60.3208 590.028 58.4921 593.593 Q56.6865 597.135 56.6865 604.264 Q56.6865 611.371 58.4921 614.936 Q60.3208 618.477 63.9319 618.477 Q67.5661 618.477 69.3717 614.936 Q71.2004 611.371 71.2004 604.264 Q71.2004 597.135 69.3717 593.593 Q67.5661 590.028 63.9319 590.028 M63.9319 586.325 Q69.742 586.325 72.7976 590.931 Q75.8763 595.514 75.8763 604.264 Q75.8763 612.991 72.7976 617.598 Q69.742 622.181 63.9319 622.181 Q58.1217 622.181 55.043 617.598 Q51.9875 612.991 51.9875 604.264 Q51.9875 595.514 55.043 590.931 Q58.1217 586.325 63.9319 586.325 Z" fill="#000000" fill-rule="evenodd" fill-opacity="1" /><path clip-path="url(#clip240)" d="M84.0938 615.63 L88.978 615.63 L88.978 621.51 L84.0938 621.51 L84.0938 615.63 Z" fill="#000000" fill-rule="evenodd" fill-opacity="1" /><path clip-path="url(#clip240)" d="M109.163 590.028 Q105.552 590.028 103.723 593.593 Q101.918 597.135 101.918 604.264 Q101.918 611.371 103.723 614.936 Q105.552 618.477 109.163 618.477 Q112.797 618.477 114.603 614.936 Q116.432 611.371 116.432 604.264 Q116.432 597.135 114.603 593.593 Q112.797 590.028 109.163 590.028 M109.163 586.325 Q114.973 586.325 118.029 590.931 Q121.107 595.514 121.107 604.264 Q121.107 612.991 118.029 617.598 Q114.973 622.181 109.163 622.181 Q103.353 622.181 100.274 617.598 Q97.2187 612.991 97.2187 604.264 Q97.2187 595.514 100.274 590.931 Q103.353 586.325 109.163 586.325 Z" fill="#000000" fill-rule="evenodd" fill-opacity="1" /><path clip-path="url(#clip240)" d="M139.325 590.028 Q135.714 590.028 133.885 593.593 Q132.08 597.135 132.08 604.264 Q132.08 611.371 133.885 614.936 Q135.714 618.477 139.325 618.477 Q142.959 618.477 144.765 614.936 Q146.593 611.371 146.593 604.264 Q146.593 597.135 144.765 593.593 Q142.959 590.028 139.325 590.028 M139.325 586.325 Q145.135 586.325 148.191 590.931 Q151.269 595.514 151.269 604.264 Q151.269 612.991 148.191 617.598 Q145.135 622.181 139.325 622.181 Q133.515 622.181 130.436 617.598 Q127.381 612.991 127.381 604.264 Q127.381 595.514 130.436 590.931 Q133.515 586.325 139.325 586.325 Z" fill="#000000" fill-rule="evenodd" fill-opacity="1" /><path clip-path="url(#clip240)" d="M160.297 617.574 L167.936 617.574 L167.936 591.209 L159.626 592.876 L159.626 588.616 L167.89 586.95 L172.566 586.95 L172.566 617.574 L180.204 617.574 L180.204 621.51 L160.297 621.51 L160.297 617.574 Z" fill="#000000" fill-rule="evenodd" fill-opacity="1" /><path clip-path="url(#clip240)" d="M189.695 586.95 L208.051 586.95 L208.051 590.885 L193.977 590.885 L193.977 599.357 Q194.996 599.01 196.014 598.848 Q197.033 598.663 198.052 598.663 Q203.839 598.663 207.218 601.834 Q210.598 605.005 210.598 610.422 Q210.598 616 207.126 619.102 Q203.653 622.181 197.334 622.181 Q195.158 622.181 192.89 621.811 Q190.644 621.44 188.237 620.699 L188.237 616 Q190.32 617.135 192.542 617.69 Q194.765 618.246 197.241 618.246 Q201.246 618.246 203.584 616.139 Q205.922 614.033 205.922 610.422 Q205.922 606.811 203.584 604.704 Q201.246 602.598 197.241 602.598 Q195.366 602.598 193.491 603.014 Q191.64 603.431 189.695 604.311 L189.695 586.95 Z" fill="#000000" fill-rule="evenodd" fill-opacity="1" /><path clip-path="url(#clip240)" d="M62.9365 299.778 Q59.3254 299.778 57.4967 303.343 Q55.6912 306.884 55.6912 314.014 Q55.6912 321.12 57.4967 324.685 Q59.3254 328.227 62.9365 328.227 Q66.5707 328.227 68.3763 324.685 Q70.205 321.12 70.205 314.014 Q70.205 306.884 68.3763 303.343 Q66.5707 299.778 62.9365 299.778 M62.9365 296.074 Q68.7467 296.074 71.8022 300.681 Q74.8809 305.264 74.8809 314.014 Q74.8809 322.741 71.8022 327.347 Q68.7467 331.931 62.9365 331.931 Q57.1264 331.931 54.0477 327.347 Q50.9921 322.741 50.9921 314.014 Q50.9921 305.264 54.0477 300.681 Q57.1264 296.074 62.9365 296.074 Z" fill="#000000" fill-rule="evenodd" fill-opacity="1" /><path clip-path="url(#clip240)" d="M83.0984 325.38 L87.9827 325.38 L87.9827 331.259 L83.0984 331.259 L83.0984 325.38 Z" fill="#000000" fill-rule="evenodd" fill-opacity="1" /><path clip-path="url(#clip240)" d="M108.168 299.778 Q104.557 299.778 102.728 303.343 Q100.922 306.884 100.922 314.014 Q100.922 321.12 102.728 324.685 Q104.557 328.227 108.168 328.227 Q111.802 328.227 113.608 324.685 Q115.436 321.12 115.436 314.014 Q115.436 306.884 113.608 303.343 Q111.802 299.778 108.168 299.778 M108.168 296.074 Q113.978 296.074 117.033 300.681 Q120.112 305.264 120.112 314.014 Q120.112 322.741 117.033 327.347 Q113.978 331.931 108.168 331.931 Q102.358 331.931 99.2789 327.347 Q96.2234 322.741 96.2234 314.014 Q96.2234 305.264 99.2789 300.681 Q102.358 296.074 108.168 296.074 Z" fill="#000000" fill-rule="evenodd" fill-opacity="1" /><path clip-path="url(#clip240)" d="M138.33 299.778 Q134.719 299.778 132.89 303.343 Q131.084 306.884 131.084 314.014 Q131.084 321.12 132.89 324.685 Q134.719 328.227 138.33 328.227 Q141.964 328.227 143.769 324.685 Q145.598 321.12 145.598 314.014 Q145.598 306.884 143.769 303.343 Q141.964 299.778 138.33 299.778 M138.33 296.074 Q144.14 296.074 147.195 300.681 Q150.274 305.264 150.274 314.014 Q150.274 322.741 147.195 327.347 Q144.14 331.931 138.33 331.931 Q132.519 331.931 129.441 327.347 Q126.385 322.741 126.385 314.014 Q126.385 305.264 129.441 300.681 Q132.519 296.074 138.33 296.074 Z" fill="#000000" fill-rule="evenodd" fill-opacity="1" /><path clip-path="url(#clip240)" d="M162.519 327.324 L178.839 327.324 L178.839 331.259 L156.894 331.259 L156.894 327.324 Q159.556 324.569 164.14 319.94 Q168.746 315.287 169.927 313.945 Q172.172 311.421 173.052 309.685 Q173.954 307.926 173.954 306.236 Q173.954 303.482 172.01 301.746 Q170.089 300.009 166.987 300.009 Q164.788 300.009 162.334 300.773 Q159.904 301.537 157.126 303.088 L157.126 298.366 Q159.95 297.232 162.404 296.653 Q164.857 296.074 166.894 296.074 Q172.265 296.074 175.459 298.759 Q178.653 301.445 178.653 305.935 Q178.653 308.065 177.843 309.986 Q177.056 311.884 174.95 314.477 Q174.371 315.148 171.269 318.366 Q168.167 321.56 162.519 327.324 Z" fill="#000000" fill-rule="evenodd" fill-opacity="1" /><path clip-path="url(#clip240)" d="M198.653 299.778 Q195.042 299.778 193.214 303.343 Q191.408 306.884 191.408 314.014 Q191.408 321.12 193.214 324.685 Q195.042 328.227 198.653 328.227 Q202.288 328.227 204.093 324.685 Q205.922 321.12 205.922 314.014 Q205.922 306.884 204.093 303.343 Q202.288 299.778 198.653 299.778 M198.653 296.074 Q204.464 296.074 207.519 300.681 Q210.598 305.264 210.598 314.014 Q210.598 322.741 207.519 327.347 Q204.464 331.931 198.653 331.931 Q192.843 331.931 189.765 327.347 Q186.709 322.741 186.709 314.014 Q186.709 305.264 189.765 300.681 Q192.843 296.074 198.653 296.074 Z" fill="#000000" fill-rule="evenodd" fill-opacity="1" /><path clip-path="url(#clip240)" d="M1073.41 12.096 L1081.6 12.096 L1081.6 72.576 L1073.41 72.576 L1073.41 12.096 Z" fill="#000000" fill-rule="evenodd" fill-opacity="1" /><path clip-path="url(#clip240)" d="M1135.27 45.1919 L1135.27 72.576 L1127.82 72.576 L1127.82 45.4349 Q1127.82 38.994 1125.31 35.7938 Q1122.79 32.5936 1117.77 32.5936 Q1111.74 32.5936 1108.25 36.4419 Q1104.77 40.2903 1104.77 46.9338 L1104.77 72.576 L1097.27 72.576 L1097.27 27.2059 L1104.77 27.2059 L1104.77 34.2544 Q1107.44 30.163 1111.05 28.1376 Q1114.69 26.1121 1119.43 26.1121 Q1127.25 26.1121 1131.26 30.9732 Q1135.27 35.7938 1135.27 45.1919 Z" fill="#000000" fill-rule="evenodd" fill-opacity="1" /><path clip-path="url(#clip240)" d="M1182.79 28.9478 L1182.79 35.9153 Q1179.63 34.1734 1176.43 33.3227 Q1173.27 32.4315 1170.03 32.4315 Q1162.78 32.4315 1158.77 37.0496 Q1154.76 41.6271 1154.76 49.9314 Q1154.76 58.2358 1158.77 62.8538 Q1162.78 67.4314 1170.03 67.4314 Q1173.27 67.4314 1176.43 66.5807 Q1179.63 65.6895 1182.79 63.9476 L1182.79 70.8341 Q1179.67 72.2924 1176.31 73.0216 Q1172.98 73.7508 1169.22 73.7508 Q1158.97 73.7508 1152.93 67.3098 Q1146.9 60.8689 1146.9 49.9314 Q1146.9 38.832 1152.97 32.472 Q1159.09 26.1121 1169.7 26.1121 Q1173.15 26.1121 1176.43 26.8413 Q1179.71 27.5299 1182.79 28.9478 Z" fill="#000000" fill-rule="evenodd" fill-opacity="1" /><path clip-path="url(#clip240)" d="M1195.75 27.2059 L1203.2 27.2059 L1203.2 72.576 L1195.75 72.576 L1195.75 27.2059 M1195.75 9.54393 L1203.2 9.54393 L1203.2 18.9825 L1195.75 18.9825 L1195.75 9.54393 Z" fill="#000000" fill-rule="evenodd" fill-opacity="1" /><path clip-path="url(#clip240)" d="M1248.66 34.0924 L1248.66 9.54393 L1256.11 9.54393 L1256.11 72.576 L1248.66 72.576 L1248.66 65.7705 Q1246.31 69.8214 1242.7 71.8063 Q1239.14 73.7508 1234.11 73.7508 Q1225.89 73.7508 1220.7 67.1883 Q1215.56 60.6258 1215.56 49.9314 Q1215.56 39.2371 1220.7 32.6746 Q1225.89 26.1121 1234.11 26.1121 Q1239.14 26.1121 1242.7 28.0971 Q1246.31 30.0415 1248.66 34.0924 M1223.26 49.9314 Q1223.26 58.1548 1226.62 62.8538 Q1230.02 67.5124 1235.94 67.5124 Q1241.85 67.5124 1245.25 62.8538 Q1248.66 58.1548 1248.66 49.9314 Q1248.66 41.7081 1245.25 37.0496 Q1241.85 32.3505 1235.94 32.3505 Q1230.02 32.3505 1226.62 37.0496 Q1223.26 41.7081 1223.26 49.9314 Z" fill="#000000" fill-rule="evenodd" fill-opacity="1" /><path clip-path="url(#clip240)" d="M1310.27 48.0275 L1310.27 51.6733 L1276 51.6733 Q1276.49 59.3701 1280.62 63.421 Q1284.79 67.4314 1292.2 67.4314 Q1296.5 67.4314 1300.51 66.3781 Q1304.56 65.3249 1308.53 63.2184 L1308.53 70.267 Q1304.52 71.9684 1300.3 72.8596 Q1296.09 73.7508 1291.76 73.7508 Q1280.9 73.7508 1274.54 67.4314 Q1268.22 61.1119 1268.22 50.3365 Q1268.22 39.1965 1274.22 32.6746 Q1280.25 26.1121 1290.46 26.1121 Q1299.62 26.1121 1304.92 32.0264 Q1310.27 37.9003 1310.27 48.0275 M1302.82 45.84 Q1302.74 39.7232 1299.37 36.0774 Q1296.05 32.4315 1290.54 32.4315 Q1284.3 32.4315 1280.54 35.9558 Q1276.81 39.4801 1276.24 45.8805 L1302.82 45.84 Z" fill="#000000" fill-rule="evenodd" fill-opacity="1" /><path clip-path="url(#clip240)" d="M1360.22 45.1919 L1360.22 72.576 L1352.76 72.576 L1352.76 45.4349 Q1352.76 38.994 1350.25 35.7938 Q1347.74 32.5936 1342.72 32.5936 Q1336.68 32.5936 1333.2 36.4419 Q1329.71 40.2903 1329.71 46.9338 L1329.71 72.576 L1322.22 72.576 L1322.22 27.2059 L1329.71 27.2059 L1329.71 34.2544 Q1332.39 30.163 1335.99 28.1376 Q1339.64 26.1121 1344.38 26.1121 Q1352.2 26.1121 1356.21 30.9732 Q1360.22 35.7938 1360.22 45.1919 Z" fill="#000000" fill-rule="evenodd" fill-opacity="1" /><path clip-path="url(#clip240)" d="M1407.73 28.9478 L1407.73 35.9153 Q1404.57 34.1734 1401.37 33.3227 Q1398.22 32.4315 1394.97 32.4315 Q1387.72 32.4315 1383.71 37.0496 Q1379.7 41.6271 1379.7 49.9314 Q1379.7 58.2358 1383.71 62.8538 Q1387.72 67.4314 1394.97 67.4314 Q1398.22 67.4314 1401.37 66.5807 Q1404.57 65.6895 1407.73 63.9476 L1407.73 70.8341 Q1404.62 72.2924 1401.25 73.0216 Q1397.93 73.7508 1394.16 73.7508 Q1383.92 73.7508 1377.88 67.3098 Q1371.84 60.8689 1371.84 49.9314 Q1371.84 38.832 1377.92 32.472 Q1384.04 26.1121 1394.65 26.1121 Q1398.09 26.1121 1401.37 26.8413 Q1404.66 27.5299 1407.73 28.9478 Z" fill="#000000" fill-rule="evenodd" fill-opacity="1" /><path clip-path="url(#clip240)" d="M1420.7 27.2059 L1428.15 27.2059 L1428.15 72.576 L1420.7 72.576 L1420.7 27.2059 M1420.7 9.54393 L1428.15 9.54393 L1428.15 18.9825 L1420.7 18.9825 L1420.7 9.54393 Z" fill="#000000" fill-rule="evenodd" fill-opacity="1" /><path clip-path="url(#clip240)" d="M1464.37 49.7694 Q1455.33 49.7694 1451.85 51.8354 Q1448.37 53.9013 1448.37 58.8839 Q1448.37 62.8538 1450.96 65.2034 Q1453.59 67.5124 1458.09 67.5124 Q1464.29 67.5124 1468.01 63.1374 Q1471.78 58.7219 1471.78 51.4303 L1471.78 49.7694 L1464.37 49.7694 M1479.23 46.6907 L1479.23 72.576 L1471.78 72.576 L1471.78 65.6895 Q1469.23 69.8214 1465.42 71.8063 Q1461.61 73.7508 1456.1 73.7508 Q1449.13 73.7508 1445 69.8619 Q1440.91 65.9325 1440.91 59.3701 Q1440.91 51.7138 1446.02 47.825 Q1451.16 43.9361 1461.33 43.9361 L1471.78 43.9361 L1471.78 43.2069 Q1471.78 38.0623 1468.38 35.2672 Q1465.01 32.4315 1458.9 32.4315 Q1455.01 32.4315 1451.32 33.3632 Q1447.64 34.295 1444.23 36.1584 L1444.23 29.2718 Q1448.32 27.692 1452.17 26.9223 Q1456.02 26.1121 1459.67 26.1121 Q1469.51 26.1121 1474.37 31.2163 Q1479.23 36.3204 1479.23 46.6907 Z" fill="#000000" fill-rule="evenodd" fill-opacity="1" /><path clip-path="url(#clip240)" d="M1523.51 28.5427 L1523.51 35.5912 Q1520.35 33.9709 1516.95 33.1607 Q1513.54 32.3505 1509.9 32.3505 Q1504.35 32.3505 1501.55 34.0519 Q1498.8 35.7533 1498.8 39.156 Q1498.8 41.7486 1500.78 43.2475 Q1502.77 44.7058 1508.76 46.0426 L1511.32 46.6097 Q1519.26 48.3111 1522.58 51.4303 Q1525.94 54.509 1525.94 60.0587 Q1525.94 66.3781 1520.92 70.0644 Q1515.93 73.7508 1507.18 73.7508 Q1503.54 73.7508 1499.57 73.0216 Q1495.64 72.3329 1491.26 70.9151 L1491.26 63.2184 Q1495.4 65.3654 1499.41 66.4591 Q1503.42 67.5124 1507.35 67.5124 Q1512.61 67.5124 1515.45 65.73 Q1518.28 63.9071 1518.28 60.6258 Q1518.28 57.5877 1516.22 55.9673 Q1514.19 54.3469 1507.27 52.8481 L1504.67 52.2405 Q1497.75 50.7821 1494.67 47.7845 Q1491.59 44.7463 1491.59 39.4801 Q1491.59 33.0797 1496.13 29.5959 Q1500.66 26.1121 1509.01 26.1121 Q1513.14 26.1121 1516.79 26.7198 Q1520.43 27.3274 1523.51 28.5427 Z" fill="#000000" fill-rule="evenodd" fill-opacity="1" /><polyline clip-path="url(#clip242)" style="stroke:#009af9; stroke-linecap:butt; stroke-linejoin:round; stroke-width:4; stroke-opacity:1; fill:none" points="
  306.206,1402.21 311.173,1376.32 316.141,1351.92 321.108,1328.61 326.075,1306.03 331.043,1283.91 336.01,1262.01 340.977,1240.34 345.945,1217.3 350.912,1193.15 
  355.88,1169.3 360.847,1145.5 365.814,1121.65 370.782,1097.72 375.749,1074.01 380.716,1046.73 385.684,1017 390.651,987.135 395.618,956.926 400.586,926.443 
  405.553,895.57 410.52,863.993 415.488,831.644 420.455,798.709 425.423,765.401 430.39,731.77 435.357,697.895 440.325,662.612 445.292,623.165 450.259,581.314 
  455.227,538.605 460.194,496.039 465.161,454.068 470.129,412.598 475.096,369.882 480.063,326.63 485.031,296.738 489.998,279.656 494.965,262.944 499.933,246.299 
  504.9,230.233 509.868,215 514.835,200.852 519.802,190.909 524.77,185.505 529.737,182.894 534.704,182.175 539.672,183.289 544.639,186.422 549.606,191.704 
  554.574,202.508 559.541,218.36 564.508,236.229 569.476,255.947 574.443,277.362 579.41,300.32 584.378,324.607 589.345,349.62 594.313,375.41 599.28,402.09 
  604.247,429.664 609.215,458.022 614.182,486.942 619.149,516.348 624.117,546.683 629.084,577.474 634.051,608.385 639.019,639.317 643.986,670.029 648.953,700.83 
  653.921,732.132 658.888,763.877 663.855,795.536 668.823,826.862 673.79,857.676 678.758,887.277 683.725,915.326 688.692,941.843 693.66,967.216 698.627,992.153 
  703.594,1016.79 708.562,1040.71 713.529,1063.69 718.496,1085.64 723.464,1106.67 728.431,1127.03 733.398,1147.03 738.366,1166.44 743.333,1184.95 748.301,1202.37 
  753.268,1218.7 758.235,1234.06 763.203,1248.74 768.17,1262.91 773.137,1276.49 778.105,1289.51 783.072,1302 788.039,1313.94 793.007,1325.32 797.974,1336.1 
  802.941,1346.12 807.909,1355.27 812.876,1363.5 817.843,1370.82 822.811,1377.24 827.778,1382.84 832.746,1387.7 837.713,1391.98 842.68,1395.76 847.648,1399.07 
  852.615,1401.98 857.582,1404.56 862.55,1406.84 867.517,1408.84 872.484,1410.54 877.452,1411.94 882.419,1413.08 887.386,1413.96 892.354,1414.57 897.321,1414.93 
  902.288,1415.03 907.256,1414.86 912.223,1414.42 917.191,1413.74 922.158,1412.8 927.125,1411.52 932.093,1409.87 937.06,1407.82 942.027,1405.37 946.995,1402.57 
  951.962,1399.55 956.929,1396.37 961.897,1392.99 966.864,1389.38 971.831,1385.53 976.799,1381.49 981.766,1377.34 986.734,1373.17 991.701,1369.22 996.668,1365.29 
  1001.64,1361.08 1006.6,1356.47 1011.57,1351.42 1016.54,1346.04 1021.5,1340.57 1026.47,1335.28 1031.44,1330.1 1036.41,1324.92 1041.37,1319.68 1046.34,1314.36 
  1051.31,1308.95 1056.28,1303.54 1061.24,1298.22 1066.21,1293.22 1071.18,1288.28 1076.15,1283.13 1081.11,1277.66 1086.08,1271.91 1091.05,1266.09 1096.02,1260.6 
  1100.98,1255.39 1105.95,1249.96 1110.92,1244.05 1115.88,1237.69 1120.85,1231.18 1125.82,1224.87 1130.79,1218.72 1135.75,1213.06 1140.72,1208.06 1145.69,1203.78 
  1150.66,1200.11 1155.62,1196.81 1160.59,1193.93 1165.56,1191.43 1170.53,1189.28 1175.49,1187.44 1180.46,1185.91 1185.43,1184.71 1190.4,1183.92 1195.36,1183.64 
  1200.33,1183.81 1205.3,1184.33 1210.26,1185.13 1215.23,1186.23 1220.2,1187.65 1225.17,1189.48 1230.13,1191.77 1235.1,1194.48 1240.07,1197.61 1245.04,1201.14 
  1250,1205.05 1254.97,1209.35 1259.94,1214.01 1264.91,1219.04 1269.87,1224.4 1274.84,1230.08 1279.81,1236.06 1284.77,1242.31 1289.74,1248.8 1294.71,1255.46 
  1299.68,1262.22 1304.64,1268.98 1309.61,1275.46 1314.58,1281.64 1319.55,1287.57 1324.51,1293.27 1329.48,1298.77 1334.45,1304.11 1339.42,1309.29 1344.38,1314.33 
  1349.35,1319.19 1354.32,1323.84 1359.29,1328.31 1364.25,1332.64 1369.22,1336.84 1374.19,1340.89 1379.15,1344.76 1384.12,1348.41 1389.09,1351.87 1394.06,1355.2 
  1399.02,1358.43 1403.99,1361.59 1408.96,1364.68 1413.93,1367.55 1418.89,1370.1 1423.86,1372.5 1428.83,1374.86 1433.8,1377.24 1438.76,1379.59 1443.73,1381.95 
  1448.7,1384.27 1453.66,1386.37 1458.63,1388.17 1463.6,1389.73 1468.57,1391.22 1473.53,1392.71 1478.5,1394.21 1483.47,1395.74 1488.44,1397.32 1493.4,1398.94 
  1498.37,1400.58 1503.34,1402.17 1508.31,1403.66 1513.27,1405.1 1518.24,1406.5 1523.21,1407.85 1528.18,1409.16 1533.14,1410.45 1538.11,1411.72 1543.08,1413 
  1548.04,1414.27 1553.01,1415.51 1557.98,1416.72 1562.95,1417.87 1567.91,1418.98 1572.88,1420.05 1577.85,1421.09 1582.82,1422.11 1587.78,1423.1 1592.75,1424.08 
  1597.72,1425.08 1602.69,1426.1 1607.65,1427.14 1612.62,1428.18 1617.59,1429.23 1622.55,1430.26 1627.52,1431.28 1632.49,1432.31 1637.46,1433.32 1642.42,1434.32 
  1647.39,1435.31 1652.36,1436.27 1657.33,1437.22 1662.29,1438.16 1667.26,1439.16 1672.23,1440.16 1677.2,1441.14 1682.16,1442.08 1687.13,1442.97 1692.1,1443.85 
  1697.07,1444.7 1702.03,1445.42 1707,1445.94 1711.97,1446.31 1716.93,1446.57 1721.9,1446.7 1726.87,1446.76 1731.84,1446.75 1736.8,1446.68 1741.77,1446.53 
  1746.74,1446.28 1751.71,1445.89 1756.67,1445.38 1761.64,1444.75 1766.61,1444.01 1771.58,1443.13 1776.54,1442.11 1781.51,1440.91 1786.48,1439.46 1791.44,1437.79 
  1796.41,1435.98 1801.38,1434.07 1806.35,1432.12 1811.31,1430.14 1816.28,1428.13 1821.25,1426.1 1826.22,1424.05 1831.18,1421.98 1836.15,1419.85 1841.12,1417.66 
  1846.09,1415.42 1851.05,1413.15 1856.02,1410.89 1860.99,1408.68 1865.96,1406.48 1870.92,1404.33 1875.89,1402.28 1880.86,1400.32 1885.82,1398.48 1890.79,1396.73 
  1895.76,1395.05 1900.73,1393.37 1905.69,1391.5 1910.66,1389.55 1915.63,1387.6 1920.6,1385.72 1925.56,1383.95 1930.53,1382.32 1935.5,1380.81 1940.47,1379.38 
  1945.43,1377.72 1950.4,1375.83 1955.37,1373.82 1960.33,1371.76 1965.3,1369.68 1970.27,1367.57 1975.24,1365.44 1980.2,1363.43 1985.17,1361.46 1990.14,1359.47 
  1995.11,1357.42 2000.07,1355.33 2005.04,1353.19 2010.01,1351.01 2014.98,1348.84 2019.94,1346.68 2024.91,1344.54 2029.88,1342.36 2034.85,1340.03 2039.81,1337.77 
  2044.78,1335.77 2049.75,1334.11 2054.71,1332.77 2059.68,1331.62 2064.65,1330.39 2069.62,1328.84 2074.58,1327.59 2079.55,1327.07 2084.52,1327.42 2089.49,1328.45 
  2094.45,1329.68 2099.42,1330.9 2104.39,1332.09 2109.36,1333.04 2114.32,1333.67 2119.29,1334.02 2124.26,1334.3 2129.22,1334.66 2134.19,1335.05 2139.16,1335.43 
  2144.13,1335.79 2149.09,1336.12 2154.06,1336.42 2159.03,1336.72 2164,1337.09 2168.96,1337.52 2173.93,1337.86 2178.9,1338.01 2183.87,1337.95 2188.83,1337.71 
  2193.8,1337.37 2198.77,1337.09 2203.74,1336.85 2208.7,1336.5 2213.67,1335.92 2218.64,1335.1 2223.6,1334.07 2228.57,1332.93 2233.54,1331.81 2238.51,1330.66 
  2243.47,1329.48 2248.44,1328.25 2253.41,1326.98 2258.38,1325.68 2263.34,1324.37 2268.31,1323.11 2273.28,1321.89 2278.25,1320.59 2283.21,1319.16 2288.18,1317.59 
  2293.15,1315.92 
  "/>
<polyline clip-path="url(#clip242)" style="stroke:#e26f46; stroke-linecap:butt; stroke-linejoin:round; stroke-width:4; stroke-opacity:1; fill:none" points="
  306.206,1321.42 311.173,1307.69 316.141,1293.24 321.108,1278.02 326.075,1262 331.043,1245.15 336.01,1227.45 340.977,1209.18 345.945,1188.31 350.912,1165.32 
  355.88,1142.21 360.847,1118.8 365.814,1095.04 370.782,1070.91 375.749,1046.48 380.716,1020.9 385.684,994.102 390.651,966.444 395.618,937.978 400.586,908.682 
  405.553,878.754 410.52,848.519 415.488,817.97 420.455,786.771 425.423,754.781 430.39,722.212 435.357,689.187 440.325,655.935 445.292,622.392 450.259,587.829 
  455.227,551.848 460.194,514.439 465.161,475.971 470.129,437.2 475.096,398.738 480.063,360.19 485.031,325.282 489.998,294.891 494.965,266.939 499.933,241.054 
  504.9,217.265 509.868,195.576 514.835,176.055 519.802,164.891 524.77,162.047 529.737,163.084 534.704,165.479 539.672,168.633 544.639,173.137 549.606,179.572 
  554.574,191.788 559.541,209.203 564.508,228.352 569.476,249.137 574.443,271.443 579.41,295.145 584.378,319.913 589.345,344.079 594.313,368.097 599.28,392.706 
  604.247,418.369 609.215,445.266 614.182,473.297 619.149,502.36 624.117,532.761 629.084,563.794 634.051,594.988 639.019,626.218 643.986,657.299 648.953,688.477 
  653.921,720.098 658.888,752.103 663.855,784.029 668.823,815.807 673.79,847.131 678.758,877.026 683.725,905.032 688.692,931.21 693.66,956.145 698.627,980.813 
  703.594,1005.03 708.562,1028.94 713.529,1052.75 718.496,1076.45 723.464,1099.78 728.431,1122.27 733.398,1143.74 738.366,1164.3 743.333,1183.78 748.301,1202.09 
  753.268,1219.25 758.235,1235.36 763.203,1250.65 768.17,1265.24 773.137,1279.12 778.105,1292.32 783.072,1304.9 788.039,1316.86 793.007,1328.2 797.974,1338.9 
  802.941,1348.87 807.909,1357.95 812.876,1366.09 817.843,1373.28 822.811,1379.53 827.778,1384.94 832.746,1389.61 837.713,1393.71 842.68,1397.38 847.648,1400.62 
  852.615,1403.43 857.582,1405.85 862.55,1407.91 867.517,1409.65 872.484,1411.1 877.452,1412.34 882.419,1413.36 887.386,1414.12 892.354,1414.59 897.321,1414.75 
  902.288,1414.62 907.256,1414.21 912.223,1413.55 917.191,1412.64 922.158,1411.47 927.125,1410.08 932.093,1408.48 937.06,1406.65 942.027,1404.53 946.995,1402.02 
  951.962,1399.19 956.929,1396.17 961.897,1392.95 966.864,1389.54 971.831,1385.94 976.799,1382.2 981.766,1378.35 986.734,1374.44 991.701,1370.61 996.668,1366.78 
  1001.64,1362.81 1006.6,1358.64 1011.57,1354.25 1016.54,1349.66 1021.5,1344.96 1026.47,1340.3 1031.44,1335.71 1036.41,1331.04 1041.37,1326.2 1046.34,1321.15 
  1051.31,1315.94 1056.28,1310.67 1061.24,1305.52 1066.21,1300.68 1071.18,1295.91 1076.15,1290.97 1081.11,1285.77 1086.08,1280.33 1091.05,1274.82 1096.02,1269.66 
  1100.98,1264.8 1105.95,1259.58 1110.92,1253.69 1115.88,1247.2 1120.85,1240.53 1125.82,1234.18 1130.79,1228.09 1135.75,1222.39 1140.72,1217.2 1145.69,1212.56 
  1150.66,1208.45 1155.62,1204.79 1160.59,1201.49 1165.56,1198.69 1170.53,1196.48 1175.49,1194.87 1180.46,1193.84 1185.43,1193.27 1190.4,1193.01 1195.36,1193.11 
  1200.33,1193.58 1205.3,1194.31 1210.26,1195.22 1215.23,1196.34 1220.2,1197.72 1225.17,1199.5 1230.13,1201.63 1235.1,1204.18 1240.07,1207.24 1245.04,1210.88 
  1250,1215.08 1254.97,1219.76 1259.94,1224.78 1264.91,1229.98 1269.87,1235.38 1274.84,1241.04 1279.81,1246.99 1284.77,1253.22 1289.74,1259.7 1294.71,1266.35 
  1299.68,1273.08 1304.64,1279.72 1309.61,1285.97 1314.58,1291.87 1319.55,1297.5 1324.51,1302.91 1329.48,1308.14 1334.45,1313.23 1339.42,1318.18 1344.38,1322.98 
  1349.35,1327.46 1354.32,1331.5 1359.29,1335.28 1364.25,1338.91 1369.22,1342.48 1374.19,1346.01 1379.15,1349.49 1384.12,1352.89 1389.09,1356.22 1394.06,1359.48 
  1399.02,1362.65 1403.99,1365.74 1408.96,1368.74 1413.93,1371.54 1418.89,1374.07 1423.86,1376.47 1428.83,1378.81 1433.8,1381.14 1438.76,1383.43 1443.73,1385.69 
  1448.7,1387.91 1453.66,1390.01 1458.63,1391.94 1463.6,1393.73 1468.57,1395.44 1473.53,1397.25 1478.5,1399.01 1483.47,1400.53 1488.44,1401.68 1493.4,1402.48 
  1498.37,1403.05 1503.34,1403.64 1508.31,1404.37 1513.27,1405.12 1518.24,1406.05 1523.21,1407.22 1528.18,1408.65 1533.14,1410.27 1538.11,1411.93 1543.08,1413.46 
  1548.04,1414.94 1553.01,1416.34 1557.98,1417.64 1562.95,1418.83 1567.91,1419.9 1572.88,1420.91 1577.85,1421.91 1582.82,1422.88 1587.78,1423.82 1592.75,1424.78 
  1597.72,1425.78 1602.69,1426.83 1607.65,1427.93 1612.62,1429.05 1617.59,1430.15 1622.55,1431.22 1627.52,1432.29 1632.49,1433.35 1637.46,1434.39 1642.42,1435.4 
  1647.39,1436.39 1652.36,1437.35 1657.33,1438.28 1662.29,1439.21 1667.26,1440.18 1672.23,1441.14 1677.2,1442.08 1682.16,1442.98 1687.13,1443.84 1692.1,1444.68 
  1697.07,1445.49 1702.03,1446.21 1707,1446.79 1711.97,1447.24 1716.93,1447.55 1721.9,1447.74 1726.87,1447.84 1731.84,1447.87 1736.8,1447.85 1741.77,1447.75 
  1746.74,1447.54 1751.71,1447.21 1756.67,1446.75 1761.64,1446.17 1766.61,1445.46 1771.58,1444.62 1776.54,1443.62 1781.51,1442.47 1786.48,1441.08 1791.44,1439.49 
  1796.41,1437.75 1801.38,1435.9 1806.35,1433.97 1811.31,1432 1816.28,1430.01 1821.25,1427.99 1826.22,1425.95 1831.18,1423.89 1836.15,1421.84 1841.12,1419.79 
  1846.09,1417.75 1851.05,1415.72 1856.02,1413.7 1860.99,1411.7 1865.96,1409.71 1870.92,1407.74 1875.89,1405.82 1880.86,1403.93 1885.82,1402.09 1890.79,1400.3 
  1895.76,1398.59 1900.73,1396.92 1905.69,1395.19 1910.66,1393.43 1915.63,1391.68 1920.6,1389.97 1925.56,1388.34 1930.53,1386.79 1935.5,1385.35 1940.47,1383.99 
  1945.43,1382.15 1950.4,1379.83 1955.37,1377.29 1960.33,1374.74 1965.3,1372.26 1970.27,1369.86 1975.24,1367.58 1980.2,1365.53 1985.17,1363.58 1990.14,1361.64 
  1995.11,1359.63 2000.07,1357.56 2005.04,1355.43 2010.01,1353.28 2014.98,1351.16 2019.94,1349.11 2024.91,1347.1 2029.88,1345.04 2034.85,1342.82 2039.81,1340.66 
  2044.78,1338.73 2049.75,1337.13 2054.71,1335.82 2059.68,1334.69 2064.65,1333.5 2069.62,1332.05 2074.58,1330.84 2079.55,1330.23 2084.52,1330.35 2089.49,1331.06 
  2094.45,1332 2099.42,1332.98 2104.39,1333.98 2109.36,1334.8 2114.32,1335.35 2119.29,1335.68 2124.26,1335.95 2129.22,1336.28 2134.19,1336.63 2139.16,1337.01 
  2144.13,1337.4 2149.09,1337.82 2154.06,1338.24 2159.03,1338.66 2164,1339.1 2168.96,1339.58 2173.93,1339.97 2178.9,1340.18 2183.87,1340.19 2188.83,1340.02 
  2193.8,1339.75 2198.77,1339.52 2203.74,1339.33 2208.7,1339.01 2213.67,1338.47 2218.64,1337.67 2223.6,1336.66 2228.57,1335.54 2233.54,1334.43 2238.51,1333.3 
  2243.47,1332.14 2248.44,1330.95 2253.41,1329.74 2258.38,1328.51 2263.34,1327.27 2268.31,1326.07 2273.28,1324.9 2278.25,1323.65 2283.21,1322.27 2288.18,1320.75 
  2293.15,1319.15 
  "/>
<path clip-path="url(#clip240)" d="
M1721.17 324.425 L2282.55 324.425 L2282.55 168.905 L1721.17 168.905  Z
  " fill="#ffffff" fill-rule="evenodd" fill-opacity="1"/>
<polyline clip-path="url(#clip240)" style="stroke:#000000; stroke-linecap:butt; stroke-linejoin:round; stroke-width:4; stroke-opacity:1; fill:none" points="
  1721.17,324.425 2282.55,324.425 2282.55,168.905 1721.17,168.905 1721.17,324.425 
  "/>
<polyline clip-path="url(#clip240)" style="stroke:#009af9; stroke-linecap:butt; stroke-linejoin:round; stroke-width:4; stroke-opacity:1; fill:none" points="
  1744.58,220.745 1884.99,220.745 
  "/>
<path clip-path="url(#clip240)" d="M1928.73 217.076 Q1930.33 214.205 1932.55 212.84 Q1934.78 211.474 1937.79 211.474 Q1941.84 211.474 1944.04 214.321 Q1946.23 217.145 1946.23 222.377 L1946.23 238.025 L1941.95 238.025 L1941.95 222.515 Q1941.95 218.789 1940.63 216.983 Q1939.31 215.178 1936.61 215.178 Q1933.3 215.178 1931.37 217.377 Q1929.45 219.576 1929.45 223.372 L1929.45 238.025 L1925.17 238.025 L1925.17 222.515 Q1925.17 218.765 1923.85 216.983 Q1922.53 215.178 1919.78 215.178 Q1916.51 215.178 1914.59 217.4 Q1912.67 219.599 1912.67 223.372 L1912.67 238.025 L1908.39 238.025 L1908.39 212.099 L1912.67 212.099 L1912.67 216.127 Q1914.13 213.742 1916.17 212.608 Q1918.2 211.474 1921 211.474 Q1923.83 211.474 1925.8 212.909 Q1927.79 214.344 1928.73 217.076 Z" fill="#000000" fill-rule="evenodd" fill-opacity="1" /><path clip-path="url(#clip240)" d="M1954.29 227.793 L1954.29 212.099 L1958.55 212.099 L1958.55 227.631 Q1958.55 231.312 1959.98 233.164 Q1961.42 234.992 1964.29 234.992 Q1967.74 234.992 1969.73 232.793 Q1971.74 230.594 1971.74 226.798 L1971.74 212.099 L1976 212.099 L1976 238.025 L1971.74 238.025 L1971.74 234.043 Q1970.19 236.404 1968.13 237.562 Q1966.1 238.696 1963.39 238.696 Q1958.92 238.696 1956.61 235.918 Q1954.29 233.14 1954.29 227.793 M1965.01 211.474 L1965.01 211.474 Z" fill="#000000" fill-rule="evenodd" fill-opacity="1" /><path clip-path="url(#clip240)" d="M2006.33 222.377 L2006.33 238.025 L2002.07 238.025 L2002.07 222.515 Q2002.07 218.835 2000.63 217.006 Q1999.2 215.178 1996.33 215.178 Q1992.88 215.178 1990.89 217.377 Q1988.9 219.576 1988.9 223.372 L1988.9 238.025 L1984.61 238.025 L1984.61 212.099 L1988.9 212.099 L1988.9 216.127 Q1990.42 213.789 1992.48 212.631 Q1994.57 211.474 1997.28 211.474 Q2001.74 211.474 2004.04 214.252 Q2006.33 217.006 2006.33 222.377 Z" fill="#000000" fill-rule="evenodd" fill-opacity="1" /><path clip-path="url(#clip240)" d="M2014.82 212.099 L2019.08 212.099 L2019.08 238.025 L2014.82 238.025 L2014.82 212.099 M2014.82 202.006 L2019.08 202.006 L2019.08 207.4 L2014.82 207.4 L2014.82 202.006 Z" fill="#000000" fill-rule="evenodd" fill-opacity="1" /><path clip-path="url(#clip240)" d="M2046.65 213.094 L2046.65 217.076 Q2044.85 216.08 2043.02 215.594 Q2041.21 215.085 2039.36 215.085 Q2035.22 215.085 2032.92 217.724 Q2030.63 220.34 2030.63 225.085 Q2030.63 229.83 2032.92 232.469 Q2035.22 235.085 2039.36 235.085 Q2041.21 235.085 2043.02 234.599 Q2044.85 234.089 2046.65 233.094 L2046.65 237.029 Q2044.87 237.863 2042.95 238.279 Q2041.05 238.696 2038.9 238.696 Q2033.04 238.696 2029.59 235.015 Q2026.14 231.335 2026.14 225.085 Q2026.14 218.742 2029.61 215.108 Q2033.11 211.474 2039.17 211.474 Q2041.14 211.474 2043.02 211.891 Q2044.89 212.284 2046.65 213.094 Z" fill="#000000" fill-rule="evenodd" fill-opacity="1" /><path clip-path="url(#clip240)" d="M2054.06 212.099 L2058.32 212.099 L2058.32 238.025 L2054.06 238.025 L2054.06 212.099 M2054.06 202.006 L2058.32 202.006 L2058.32 207.4 L2054.06 207.4 L2054.06 202.006 Z" fill="#000000" fill-rule="evenodd" fill-opacity="1" /><path clip-path="url(#clip240)" d="M2071.35 234.136 L2071.35 247.886 L2067.07 247.886 L2067.07 212.099 L2071.35 212.099 L2071.35 216.034 Q2072.69 213.719 2074.73 212.608 Q2076.79 211.474 2079.64 211.474 Q2084.36 211.474 2087.3 215.224 Q2090.26 218.974 2090.26 225.085 Q2090.26 231.196 2087.3 234.946 Q2084.36 238.696 2079.64 238.696 Q2076.79 238.696 2074.73 237.585 Q2072.69 236.451 2071.35 234.136 M2085.84 225.085 Q2085.84 220.386 2083.9 217.724 Q2081.97 215.039 2078.6 215.039 Q2075.22 215.039 2073.27 217.724 Q2071.35 220.386 2071.35 225.085 Q2071.35 229.784 2073.27 232.469 Q2075.22 235.131 2078.6 235.131 Q2081.97 235.131 2083.9 232.469 Q2085.84 229.784 2085.84 225.085 Z" fill="#000000" fill-rule="evenodd" fill-opacity="1" /><path clip-path="url(#clip240)" d="M2109.1 224.992 Q2103.94 224.992 2101.95 226.173 Q2099.96 227.353 2099.96 230.201 Q2099.96 232.469 2101.44 233.812 Q2102.95 235.131 2105.52 235.131 Q2109.06 235.131 2111.19 232.631 Q2113.34 230.108 2113.34 225.941 L2113.34 224.992 L2109.1 224.992 M2117.6 223.233 L2117.6 238.025 L2113.34 238.025 L2113.34 234.089 Q2111.88 236.451 2109.71 237.585 Q2107.53 238.696 2104.38 238.696 Q2100.4 238.696 2098.04 236.474 Q2095.7 234.228 2095.7 230.478 Q2095.7 226.103 2098.62 223.881 Q2101.56 221.659 2107.37 221.659 L2113.34 221.659 L2113.34 221.242 Q2113.34 218.303 2111.4 216.705 Q2109.47 215.085 2105.98 215.085 Q2103.76 215.085 2101.65 215.617 Q2099.54 216.15 2097.6 217.215 L2097.6 213.279 Q2099.94 212.377 2102.14 211.937 Q2104.34 211.474 2106.42 211.474 Q2112.04 211.474 2114.82 214.391 Q2117.6 217.307 2117.6 223.233 Z" fill="#000000" fill-rule="evenodd" fill-opacity="1" /><path clip-path="url(#clip240)" d="M2126.37 202.006 L2130.63 202.006 L2130.63 238.025 L2126.37 238.025 L2126.37 202.006 Z" fill="#000000" fill-rule="evenodd" fill-opacity="1" /><path clip-path="url(#clip240)" d="M2139.54 212.099 L2143.8 212.099 L2143.8 238.025 L2139.54 238.025 L2139.54 212.099 M2139.54 202.006 L2143.8 202.006 L2143.8 207.4 L2139.54 207.4 L2139.54 202.006 Z" fill="#000000" fill-rule="evenodd" fill-opacity="1" /><path clip-path="url(#clip240)" d="M2156.93 204.738 L2156.93 212.099 L2165.7 212.099 L2165.7 215.409 L2156.93 215.409 L2156.93 229.483 Q2156.93 232.654 2157.78 233.557 Q2158.66 234.46 2161.33 234.46 L2165.7 234.46 L2165.7 238.025 L2161.33 238.025 Q2156.4 238.025 2154.52 236.196 Q2152.65 234.344 2152.65 229.483 L2152.65 215.409 L2149.52 215.409 L2149.52 212.099 L2152.65 212.099 L2152.65 204.738 L2156.93 204.738 Z" fill="#000000" fill-rule="evenodd" fill-opacity="1" /><path clip-path="url(#clip240)" d="M2182.09 240.432 Q2180.28 245.062 2178.57 246.474 Q2176.86 247.886 2173.99 247.886 L2170.59 247.886 L2170.59 244.321 L2173.09 244.321 Q2174.84 244.321 2175.82 243.488 Q2176.79 242.654 2177.97 239.552 L2178.73 237.608 L2168.25 212.099 L2172.76 212.099 L2180.86 232.377 L2188.96 212.099 L2193.48 212.099 L2182.09 240.432 Z" fill="#000000" fill-rule="evenodd" fill-opacity="1" /><path clip-path="url(#clip240)" d="M2215.84 234.089 L2223.48 234.089 L2223.48 207.724 L2215.17 209.391 L2215.17 205.131 L2223.43 203.465 L2228.11 203.465 L2228.11 234.089 L2235.75 234.089 L2235.75 238.025 L2215.84 238.025 L2215.84 234.089 Z" fill="#000000" fill-rule="evenodd" fill-opacity="1" /><polyline clip-path="url(#clip240)" style="stroke:#e26f46; stroke-linecap:butt; stroke-linejoin:round; stroke-width:4; stroke-opacity:1; fill:none" points="
  1744.58,272.585 1884.99,272.585 
  "/>
<path clip-path="url(#clip240)" d="M1928.73 268.916 Q1930.33 266.045 1932.55 264.68 Q1934.78 263.314 1937.79 263.314 Q1941.84 263.314 1944.04 266.161 Q1946.23 268.985 1946.23 274.217 L1946.23 289.865 L1941.95 289.865 L1941.95 274.355 Q1941.95 270.629 1940.63 268.823 Q1939.31 267.018 1936.61 267.018 Q1933.3 267.018 1931.37 269.217 Q1929.45 271.416 1929.45 275.212 L1929.45 289.865 L1925.17 289.865 L1925.17 274.355 Q1925.17 270.605 1923.85 268.823 Q1922.53 267.018 1919.78 267.018 Q1916.51 267.018 1914.59 269.24 Q1912.67 271.439 1912.67 275.212 L1912.67 289.865 L1908.39 289.865 L1908.39 263.939 L1912.67 263.939 L1912.67 267.967 Q1914.13 265.582 1916.17 264.448 Q1918.2 263.314 1921 263.314 Q1923.83 263.314 1925.8 264.749 Q1927.79 266.184 1928.73 268.916 Z" fill="#000000" fill-rule="evenodd" fill-opacity="1" /><path clip-path="url(#clip240)" d="M1954.29 279.633 L1954.29 263.939 L1958.55 263.939 L1958.55 279.471 Q1958.55 283.152 1959.98 285.004 Q1961.42 286.832 1964.29 286.832 Q1967.74 286.832 1969.73 284.633 Q1971.74 282.434 1971.74 278.638 L1971.74 263.939 L1976 263.939 L1976 289.865 L1971.74 289.865 L1971.74 285.883 Q1970.19 288.244 1968.13 289.402 Q1966.1 290.536 1963.39 290.536 Q1958.92 290.536 1956.61 287.758 Q1954.29 284.98 1954.29 279.633 M1965.01 263.314 L1965.01 263.314 Z" fill="#000000" fill-rule="evenodd" fill-opacity="1" /><path clip-path="url(#clip240)" d="M2006.33 274.217 L2006.33 289.865 L2002.07 289.865 L2002.07 274.355 Q2002.07 270.675 2000.63 268.846 Q1999.2 267.018 1996.33 267.018 Q1992.88 267.018 1990.89 269.217 Q1988.9 271.416 1988.9 275.212 L1988.9 289.865 L1984.61 289.865 L1984.61 263.939 L1988.9 263.939 L1988.9 267.967 Q1990.42 265.629 1992.48 264.471 Q1994.57 263.314 1997.28 263.314 Q2001.74 263.314 2004.04 266.092 Q2006.33 268.846 2006.33 274.217 Z" fill="#000000" fill-rule="evenodd" fill-opacity="1" /><path clip-path="url(#clip240)" d="M2014.82 263.939 L2019.08 263.939 L2019.08 289.865 L2014.82 289.865 L2014.82 263.939 M2014.82 253.846 L2019.08 253.846 L2019.08 259.24 L2014.82 259.24 L2014.82 253.846 Z" fill="#000000" fill-rule="evenodd" fill-opacity="1" /><path clip-path="url(#clip240)" d="M2046.65 264.934 L2046.65 268.916 Q2044.85 267.92 2043.02 267.434 Q2041.21 266.925 2039.36 266.925 Q2035.22 266.925 2032.92 269.564 Q2030.63 272.18 2030.63 276.925 Q2030.63 281.67 2032.92 284.309 Q2035.22 286.925 2039.36 286.925 Q2041.21 286.925 2043.02 286.439 Q2044.85 285.929 2046.65 284.934 L2046.65 288.869 Q2044.87 289.703 2042.95 290.119 Q2041.05 290.536 2038.9 290.536 Q2033.04 290.536 2029.59 286.855 Q2026.14 283.175 2026.14 276.925 Q2026.14 270.582 2029.61 266.948 Q2033.11 263.314 2039.17 263.314 Q2041.14 263.314 2043.02 263.731 Q2044.89 264.124 2046.65 264.934 Z" fill="#000000" fill-rule="evenodd" fill-opacity="1" /><path clip-path="url(#clip240)" d="M2054.06 263.939 L2058.32 263.939 L2058.32 289.865 L2054.06 289.865 L2054.06 263.939 M2054.06 253.846 L2058.32 253.846 L2058.32 259.24 L2054.06 259.24 L2054.06 253.846 Z" fill="#000000" fill-rule="evenodd" fill-opacity="1" /><path clip-path="url(#clip240)" d="M2071.35 285.976 L2071.35 299.726 L2067.07 299.726 L2067.07 263.939 L2071.35 263.939 L2071.35 267.874 Q2072.69 265.559 2074.73 264.448 Q2076.79 263.314 2079.64 263.314 Q2084.36 263.314 2087.3 267.064 Q2090.26 270.814 2090.26 276.925 Q2090.26 283.036 2087.3 286.786 Q2084.36 290.536 2079.64 290.536 Q2076.79 290.536 2074.73 289.425 Q2072.69 288.291 2071.35 285.976 M2085.84 276.925 Q2085.84 272.226 2083.9 269.564 Q2081.97 266.879 2078.6 266.879 Q2075.22 266.879 2073.27 269.564 Q2071.35 272.226 2071.35 276.925 Q2071.35 281.624 2073.27 284.309 Q2075.22 286.971 2078.6 286.971 Q2081.97 286.971 2083.9 284.309 Q2085.84 281.624 2085.84 276.925 Z" fill="#000000" fill-rule="evenodd" fill-opacity="1" /><path clip-path="url(#clip240)" d="M2109.1 276.832 Q2103.94 276.832 2101.95 278.013 Q2099.96 279.193 2099.96 282.041 Q2099.96 284.309 2101.44 285.652 Q2102.95 286.971 2105.52 286.971 Q2109.06 286.971 2111.19 284.471 Q2113.34 281.948 2113.34 277.781 L2113.34 276.832 L2109.1 276.832 M2117.6 275.073 L2117.6 289.865 L2113.34 289.865 L2113.34 285.929 Q2111.88 288.291 2109.71 289.425 Q2107.53 290.536 2104.38 290.536 Q2100.4 290.536 2098.04 288.314 Q2095.7 286.068 2095.7 282.318 Q2095.7 277.943 2098.62 275.721 Q2101.56 273.499 2107.37 273.499 L2113.34 273.499 L2113.34 273.082 Q2113.34 270.143 2111.4 268.545 Q2109.47 266.925 2105.98 266.925 Q2103.76 266.925 2101.65 267.457 Q2099.54 267.99 2097.6 269.055 L2097.6 265.119 Q2099.94 264.217 2102.14 263.777 Q2104.34 263.314 2106.42 263.314 Q2112.04 263.314 2114.82 266.231 Q2117.6 269.147 2117.6 275.073 Z" fill="#000000" fill-rule="evenodd" fill-opacity="1" /><path clip-path="url(#clip240)" d="M2126.37 253.846 L2130.63 253.846 L2130.63 289.865 L2126.37 289.865 L2126.37 253.846 Z" fill="#000000" fill-rule="evenodd" fill-opacity="1" /><path clip-path="url(#clip240)" d="M2139.54 263.939 L2143.8 263.939 L2143.8 289.865 L2139.54 289.865 L2139.54 263.939 M2139.54 253.846 L2143.8 253.846 L2143.8 259.24 L2139.54 259.24 L2139.54 253.846 Z" fill="#000000" fill-rule="evenodd" fill-opacity="1" /><path clip-path="url(#clip240)" d="M2156.93 256.578 L2156.93 263.939 L2165.7 263.939 L2165.7 267.249 L2156.93 267.249 L2156.93 281.323 Q2156.93 284.494 2157.78 285.397 Q2158.66 286.3 2161.33 286.3 L2165.7 286.3 L2165.7 289.865 L2161.33 289.865 Q2156.4 289.865 2154.52 288.036 Q2152.65 286.184 2152.65 281.323 L2152.65 267.249 L2149.52 267.249 L2149.52 263.939 L2152.65 263.939 L2152.65 256.578 L2156.93 256.578 Z" fill="#000000" fill-rule="evenodd" fill-opacity="1" /><path clip-path="url(#clip240)" d="M2182.09 292.272 Q2180.28 296.902 2178.57 298.314 Q2176.86 299.726 2173.99 299.726 L2170.59 299.726 L2170.59 296.161 L2173.09 296.161 Q2174.84 296.161 2175.82 295.328 Q2176.79 294.494 2177.97 291.392 L2178.73 289.448 L2168.25 263.939 L2172.76 263.939 L2180.86 284.217 L2188.96 263.939 L2193.48 263.939 L2182.09 292.272 Z" fill="#000000" fill-rule="evenodd" fill-opacity="1" /><path clip-path="url(#clip240)" d="M2219.06 285.929 L2235.38 285.929 L2235.38 289.865 L2213.43 289.865 L2213.43 285.929 Q2216.09 283.175 2220.68 278.545 Q2225.28 273.893 2226.46 272.55 Q2228.71 270.027 2229.59 268.291 Q2230.49 266.531 2230.49 264.842 Q2230.49 262.087 2228.55 260.351 Q2226.63 258.615 2223.52 258.615 Q2221.33 258.615 2218.87 259.379 Q2216.44 260.143 2213.66 261.694 L2213.66 256.971 Q2216.49 255.837 2218.94 255.258 Q2221.4 254.68 2223.43 254.68 Q2228.8 254.68 2232 257.365 Q2235.19 260.05 2235.19 264.541 Q2235.19 266.67 2234.38 268.592 Q2233.59 270.49 2231.49 273.082 Q2230.91 273.754 2227.81 276.971 Q2224.71 280.166 2219.06 285.929 Z" fill="#000000" fill-rule="evenodd" fill-opacity="1" /></svg>
