<?xml version="1.0" encoding="utf-8"?>
<svg xmlns="http://www.w3.org/2000/svg" xmlns:xlink="http://www.w3.org/1999/xlink" width="600" height="400" viewBox="0 0 2400 1600">
<defs>
  <clipPath id="clip190">
    <rect x="0" y="0" width="2400" height="1600"/>
  </clipPath>
</defs>
<path clip-path="url(#clip190)" d="
M0 1600 L2400 1600 L2400 0 L0 0  Z
  " fill="#ffffff" fill-rule="evenodd" fill-opacity="1"/>
<defs>
  <clipPath id="clip191">
    <rect x="480" y="0" width="1681" height="1600"/>
  </clipPath>
</defs>
<path clip-path="url(#clip190)" d="
M247.084 1486.45 L2352.76 1486.45 L2352.76 123.472 L247.084 123.472  Z
  " fill="#ffffff" fill-rule="evenodd" fill-opacity="1"/>
<defs>
  <clipPath id="clip192">
    <rect x="247" y="123" width="2107" height="1364"/>
  </clipPath>
</defs>
<polyline clip-path="url(#clip192)" style="stroke:#000000; stroke-linecap:butt; stroke-linejoin:round; stroke-width:2; stroke-opacity:0.1; fill:none" points="
  301.712,1486.45 301.712,123.472 
  "/>
<polyline clip-path="url(#clip192)" style="stroke:#000000; stroke-linecap:butt; stroke-linejoin:round; stroke-width:2; stroke-opacity:0.1; fill:none" points="
  798.333,1486.45 798.333,123.472 
  "/>
<polyline clip-path="url(#clip192)" style="stroke:#000000; stroke-linecap:butt; stroke-linejoin:round; stroke-width:2; stroke-opacity:0.1; fill:none" points="
  1294.95,1486.45 1294.95,123.472 
  "/>
<polyline clip-path="url(#clip192)" style="stroke:#000000; stroke-linecap:butt; stroke-linejoin:round; stroke-width:2; stroke-opacity:0.1; fill:none" points="
  1791.57,1486.45 1791.57,123.472 
  "/>
<polyline clip-path="url(#clip192)" style="stroke:#000000; stroke-linecap:butt; stroke-linejoin:round; stroke-width:2; stroke-opacity:0.1; fill:none" points="
  2288.2,1486.45 2288.2,123.472 
  "/>
<polyline clip-path="url(#clip190)" style="stroke:#000000; stroke-linecap:butt; stroke-linejoin:round; stroke-width:4; stroke-opacity:1; fill:none" points="
  247.084,1486.45 2352.76,1486.45 
  "/>
<polyline clip-path="url(#clip190)" style="stroke:#000000; stroke-linecap:butt; stroke-linejoin:round; stroke-width:4; stroke-opacity:1; fill:none" points="
  301.712,1486.45 301.712,1467.55 
  "/>
<polyline clip-path="url(#clip190)" style="stroke:#000000; stroke-linecap:butt; stroke-linejoin:round; stroke-width:4; stroke-opacity:1; fill:none" points="
  798.333,1486.45 798.333,1467.55 
  "/>
<polyline clip-path="url(#clip190)" style="stroke:#000000; stroke-linecap:butt; stroke-linejoin:round; stroke-width:4; stroke-opacity:1; fill:none" points="
  1294.95,1486.45 1294.95,1467.55 
  "/>
<polyline clip-path="url(#clip190)" style="stroke:#000000; stroke-linecap:butt; stroke-linejoin:round; stroke-width:4; stroke-opacity:1; fill:none" points="
  1791.57,1486.45 1791.57,1467.55 
  "/>
<polyline clip-path="url(#clip190)" style="stroke:#000000; stroke-linecap:butt; stroke-linejoin:round; stroke-width:4; stroke-opacity:1; fill:none" points="
  2288.2,1486.45 2288.2,1467.55 
  "/>
<path clip-path="url(#clip190)" d="M301.712 1515.64 Q298.101 1515.64 296.272 1519.2 Q294.467 1522.75 294.467 1529.87 Q294.467 1536.98 296.272 1540.55 Q298.101 1544.09 301.712 1544.09 Q305.346 1544.09 307.152 1540.55 Q308.981 1536.98 308.981 1529.87 Q308.981 1522.75 307.152 1519.2 Q305.346 1515.64 301.712 1515.64 M301.712 1511.93 Q307.522 1511.93 310.578 1516.54 Q313.657 1521.12 313.657 1529.87 Q313.657 1538.6 310.578 1543.21 Q307.522 1547.79 301.712 1547.79 Q295.902 1547.79 292.823 1543.21 Q289.768 1538.6 289.768 1529.87 Q289.768 1521.12 292.823 1516.54 Q295.902 1511.93 301.712 1511.93 Z" fill="#000000" fill-rule="evenodd" fill-opacity="1" /><path clip-path="url(#clip190)" d="M757.94 1543.18 L765.578 1543.18 L765.578 1516.82 L757.268 1518.49 L757.268 1514.23 L765.532 1512.56 L770.208 1512.56 L770.208 1543.18 L777.847 1543.18 L777.847 1547.12 L757.94 1547.12 L757.94 1543.18 Z" fill="#000000" fill-rule="evenodd" fill-opacity="1" /><path clip-path="url(#clip190)" d="M797.291 1515.64 Q793.68 1515.64 791.851 1519.2 Q790.046 1522.75 790.046 1529.87 Q790.046 1536.98 791.851 1540.55 Q793.68 1544.09 797.291 1544.09 Q800.925 1544.09 802.731 1540.55 Q804.56 1536.98 804.56 1529.87 Q804.56 1522.75 802.731 1519.2 Q800.925 1515.64 797.291 1515.64 M797.291 1511.93 Q803.101 1511.93 806.157 1516.54 Q809.236 1521.12 809.236 1529.87 Q809.236 1538.6 806.157 1543.21 Q803.101 1547.79 797.291 1547.79 Q791.481 1547.79 788.402 1543.21 Q785.347 1538.6 785.347 1529.87 Q785.347 1521.12 788.402 1516.54 Q791.481 1511.93 797.291 1511.93 Z" fill="#000000" fill-rule="evenodd" fill-opacity="1" /><path clip-path="url(#clip190)" d="M827.453 1515.64 Q823.842 1515.64 822.013 1519.2 Q820.208 1522.75 820.208 1529.87 Q820.208 1536.98 822.013 1540.55 Q823.842 1544.09 827.453 1544.09 Q831.087 1544.09 832.893 1540.55 Q834.722 1536.98 834.722 1529.87 Q834.722 1522.75 832.893 1519.2 Q831.087 1515.64 827.453 1515.64 M827.453 1511.93 Q833.263 1511.93 836.319 1516.54 Q839.398 1521.12 839.398 1529.87 Q839.398 1538.6 836.319 1543.21 Q833.263 1547.79 827.453 1547.79 Q821.643 1547.79 818.564 1543.21 Q815.509 1538.6 815.509 1529.87 Q815.509 1521.12 818.564 1516.54 Q821.643 1511.93 827.453 1511.93 Z" fill="#000000" fill-rule="evenodd" fill-opacity="1" /><path clip-path="url(#clip190)" d="M1258.65 1543.18 L1274.97 1543.18 L1274.97 1547.12 L1253.02 1547.12 L1253.02 1543.18 Q1255.68 1540.43 1260.27 1535.8 Q1264.87 1531.15 1266.05 1529.81 Q1268.3 1527.28 1269.18 1525.55 Q1270.08 1523.79 1270.08 1522.1 Q1270.08 1519.34 1268.14 1517.61 Q1266.22 1515.87 1263.11 1515.87 Q1260.91 1515.87 1258.46 1516.63 Q1256.03 1517.4 1253.25 1518.95 L1253.25 1514.23 Q1256.08 1513.09 1258.53 1512.51 Q1260.98 1511.93 1263.02 1511.93 Q1268.39 1511.93 1271.59 1514.62 Q1274.78 1517.31 1274.78 1521.8 Q1274.78 1523.93 1273.97 1525.85 Q1273.18 1527.74 1271.08 1530.34 Q1270.5 1531.01 1267.4 1534.23 Q1264.29 1537.42 1258.65 1543.18 Z" fill="#000000" fill-rule="evenodd" fill-opacity="1" /><path clip-path="url(#clip190)" d="M1294.78 1515.64 Q1291.17 1515.64 1289.34 1519.2 Q1287.53 1522.75 1287.53 1529.87 Q1287.53 1536.98 1289.34 1540.55 Q1291.17 1544.09 1294.78 1544.09 Q1298.41 1544.09 1300.22 1540.55 Q1302.05 1536.98 1302.05 1529.87 Q1302.05 1522.75 1300.22 1519.2 Q1298.41 1515.64 1294.78 1515.64 M1294.78 1511.93 Q1300.59 1511.93 1303.65 1516.54 Q1306.72 1521.12 1306.72 1529.87 Q1306.72 1538.6 1303.65 1543.21 Q1300.59 1547.79 1294.78 1547.79 Q1288.97 1547.79 1285.89 1543.21 Q1282.84 1538.6 1282.84 1529.87 Q1282.84 1521.12 1285.89 1516.54 Q1288.97 1511.93 1294.78 1511.93 Z" fill="#000000" fill-rule="evenodd" fill-opacity="1" /><path clip-path="url(#clip190)" d="M1324.94 1515.64 Q1321.33 1515.64 1319.5 1519.2 Q1317.7 1522.75 1317.7 1529.87 Q1317.7 1536.98 1319.5 1540.55 Q1321.33 1544.09 1324.94 1544.09 Q1328.58 1544.09 1330.38 1540.55 Q1332.21 1536.98 1332.21 1529.87 Q1332.21 1522.75 1330.38 1519.2 Q1328.58 1515.64 1324.94 1515.64 M1324.94 1511.93 Q1330.75 1511.93 1333.81 1516.54 Q1336.89 1521.12 1336.89 1529.87 Q1336.89 1538.6 1333.81 1543.21 Q1330.75 1547.79 1324.94 1547.79 Q1319.13 1547.79 1316.05 1543.21 Q1313 1538.6 1313 1529.87 Q1313 1521.12 1316.05 1516.54 Q1319.13 1511.93 1324.94 1511.93 Z" fill="#000000" fill-rule="evenodd" fill-opacity="1" /><path clip-path="url(#clip190)" d="M1765.34 1528.49 Q1768.69 1529.2 1770.57 1531.47 Q1772.47 1533.74 1772.47 1537.07 Q1772.47 1542.19 1768.95 1544.99 Q1765.43 1547.79 1758.95 1547.79 Q1756.77 1547.79 1754.46 1547.35 Q1752.16 1546.93 1749.71 1546.08 L1749.71 1541.56 Q1751.66 1542.7 1753.97 1543.28 Q1756.29 1543.86 1758.81 1543.86 Q1763.21 1543.86 1765.5 1542.12 Q1767.81 1540.38 1767.81 1537.07 Q1767.81 1534.02 1765.66 1532.31 Q1763.53 1530.57 1759.71 1530.57 L1755.68 1530.57 L1755.68 1526.73 L1759.9 1526.73 Q1763.35 1526.73 1765.17 1525.36 Q1767 1523.97 1767 1521.38 Q1767 1518.72 1765.1 1517.31 Q1763.23 1515.87 1759.71 1515.87 Q1757.79 1515.87 1755.59 1516.29 Q1753.39 1516.7 1750.75 1517.58 L1750.75 1513.42 Q1753.41 1512.68 1755.73 1512.31 Q1758.07 1511.93 1760.13 1511.93 Q1765.45 1511.93 1768.55 1514.37 Q1771.66 1516.77 1771.66 1520.89 Q1771.66 1523.76 1770.01 1525.75 Q1768.37 1527.72 1765.34 1528.49 Z" fill="#000000" fill-rule="evenodd" fill-opacity="1" /><path clip-path="url(#clip190)" d="M1791.33 1515.64 Q1787.72 1515.64 1785.89 1519.2 Q1784.09 1522.75 1784.09 1529.87 Q1784.09 1536.98 1785.89 1540.55 Q1787.72 1544.09 1791.33 1544.09 Q1794.97 1544.09 1796.77 1540.55 Q1798.6 1536.98 1798.6 1529.87 Q1798.6 1522.75 1796.77 1519.2 Q1794.97 1515.64 1791.33 1515.64 M1791.33 1511.93 Q1797.14 1511.93 1800.2 1516.54 Q1803.28 1521.12 1803.28 1529.87 Q1803.28 1538.6 1800.2 1543.21 Q1797.14 1547.79 1791.33 1547.79 Q1785.52 1547.79 1782.44 1543.21 Q1779.39 1538.6 1779.39 1529.87 Q1779.39 1521.12 1782.44 1516.54 Q1785.52 1511.93 1791.33 1511.93 Z" fill="#000000" fill-rule="evenodd" fill-opacity="1" /><path clip-path="url(#clip190)" d="M1821.49 1515.64 Q1817.88 1515.64 1816.05 1519.2 Q1814.25 1522.75 1814.25 1529.87 Q1814.25 1536.98 1816.05 1540.55 Q1817.88 1544.09 1821.49 1544.09 Q1825.13 1544.09 1826.93 1540.55 Q1828.76 1536.98 1828.76 1529.87 Q1828.76 1522.75 1826.93 1519.2 Q1825.13 1515.64 1821.49 1515.64 M1821.49 1511.93 Q1827.3 1511.93 1830.36 1516.54 Q1833.44 1521.12 1833.44 1529.87 Q1833.44 1538.6 1830.36 1543.21 Q1827.3 1547.79 1821.49 1547.79 Q1815.68 1547.79 1812.6 1543.21 Q1809.55 1538.6 1809.55 1529.87 Q1809.55 1521.12 1812.6 1516.54 Q1815.68 1511.93 1821.49 1511.93 Z" fill="#000000" fill-rule="evenodd" fill-opacity="1" /><path clip-path="url(#clip190)" d="M2261.29 1516.63 L2249.48 1535.08 L2261.29 1535.08 L2261.29 1516.63 M2260.06 1512.56 L2265.94 1512.56 L2265.94 1535.08 L2270.87 1535.08 L2270.87 1538.97 L2265.94 1538.97 L2265.94 1547.12 L2261.29 1547.12 L2261.29 1538.97 L2245.68 1538.97 L2245.68 1534.46 L2260.06 1512.56 Z" fill="#000000" fill-rule="evenodd" fill-opacity="1" /><path clip-path="url(#clip190)" d="M2288.6 1515.64 Q2284.99 1515.64 2283.16 1519.2 Q2281.35 1522.75 2281.35 1529.87 Q2281.35 1536.98 2283.16 1540.55 Q2284.99 1544.09 2288.6 1544.09 Q2292.23 1544.09 2294.04 1540.55 Q2295.87 1536.98 2295.87 1529.87 Q2295.87 1522.75 2294.04 1519.2 Q2292.23 1515.64 2288.6 1515.64 M2288.6 1511.93 Q2294.41 1511.93 2297.47 1516.54 Q2300.54 1521.12 2300.54 1529.87 Q2300.54 1538.6 2297.47 1543.21 Q2294.41 1547.79 2288.6 1547.79 Q2282.79 1547.79 2279.71 1543.21 Q2276.66 1538.6 2276.66 1529.87 Q2276.66 1521.12 2279.71 1516.54 Q2282.79 1511.93 2288.6 1511.93 Z" fill="#000000" fill-rule="evenodd" fill-opacity="1" /><path clip-path="url(#clip190)" d="M2318.76 1515.64 Q2315.15 1515.64 2313.32 1519.2 Q2311.52 1522.75 2311.52 1529.87 Q2311.52 1536.98 2313.32 1540.55 Q2315.15 1544.09 2318.76 1544.09 Q2322.4 1544.09 2324.2 1540.55 Q2326.03 1536.98 2326.03 1529.87 Q2326.03 1522.75 2324.2 1519.2 Q2322.4 1515.64 2318.76 1515.64 M2318.76 1511.93 Q2324.57 1511.93 2327.63 1516.54 Q2330.71 1521.12 2330.71 1529.87 Q2330.71 1538.6 2327.63 1543.21 Q2324.57 1547.79 2318.76 1547.79 Q2312.95 1547.79 2309.87 1543.21 Q2306.82 1538.6 2306.82 1529.87 Q2306.82 1521.12 2309.87 1516.54 Q2312.95 1511.93 2318.76 1511.93 Z" fill="#000000" fill-rule="evenodd" fill-opacity="1" /><polyline clip-path="url(#clip192)" style="stroke:#000000; stroke-linecap:butt; stroke-linejoin:round; stroke-width:2; stroke-opacity:0.1; fill:none" points="
  247.084,1255.26 2352.76,1255.26 
  "/>
<polyline clip-path="url(#clip192)" style="stroke:#000000; stroke-linecap:butt; stroke-linejoin:round; stroke-width:2; stroke-opacity:0.1; fill:none" points="
  247.084,987.223 2352.76,987.223 
  "/>
<polyline clip-path="url(#clip192)" style="stroke:#000000; stroke-linecap:butt; stroke-linejoin:round; stroke-width:2; stroke-opacity:0.1; fill:none" points="
  247.084,719.185 2352.76,719.185 
  "/>
<polyline clip-path="url(#clip192)" style="stroke:#000000; stroke-linecap:butt; stroke-linejoin:round; stroke-width:2; stroke-opacity:0.1; fill:none" points="
  247.084,451.148 2352.76,451.148 
  "/>
<polyline clip-path="url(#clip192)" style="stroke:#000000; stroke-linecap:butt; stroke-linejoin:round; stroke-width:2; stroke-opacity:0.1; fill:none" points="
  247.084,183.11 2352.76,183.11 
  "/>
<polyline clip-path="url(#clip190)" style="stroke:#000000; stroke-linecap:butt; stroke-linejoin:round; stroke-width:4; stroke-opacity:1; fill:none" points="
  247.084,1486.45 247.084,123.472 
  "/>
<polyline clip-path="url(#clip190)" style="stroke:#000000; stroke-linecap:butt; stroke-linejoin:round; stroke-width:4; stroke-opacity:1; fill:none" points="
  247.084,1255.26 265.981,1255.26 
  "/>
<polyline clip-path="url(#clip190)" style="stroke:#000000; stroke-linecap:butt; stroke-linejoin:round; stroke-width:4; stroke-opacity:1; fill:none" points="
  247.084,987.223 265.981,987.223 
  "/>
<polyline clip-path="url(#clip190)" style="stroke:#000000; stroke-linecap:butt; stroke-linejoin:round; stroke-width:4; stroke-opacity:1; fill:none" points="
  247.084,719.185 265.981,719.185 
  "/>
<polyline clip-path="url(#clip190)" style="stroke:#000000; stroke-linecap:butt; stroke-linejoin:round; stroke-width:4; stroke-opacity:1; fill:none" points="
  247.084,451.148 265.981,451.148 
  "/>
<polyline clip-path="url(#clip190)" style="stroke:#000000; stroke-linecap:butt; stroke-linejoin:round; stroke-width:4; stroke-opacity:1; fill:none" points="
  247.084,183.11 265.981,183.11 
  "/>
<path clip-path="url(#clip190)" d="M65.0198 1241.06 Q61.4087 1241.06 59.58 1244.62 Q57.7745 1248.17 57.7745 1255.29 Q57.7745 1262.4 59.58 1265.97 Q61.4087 1269.51 65.0198 1269.51 Q68.6541 1269.51 70.4596 1265.97 Q72.2883 1262.4 72.2883 1255.29 Q72.2883 1248.17 70.4596 1244.62 Q68.6541 1241.06 65.0198 1241.06 M65.0198 1237.36 Q70.83 1237.36 73.8855 1241.96 Q76.9642 1246.55 76.9642 1255.29 Q76.9642 1264.02 73.8855 1268.63 Q70.83 1273.21 65.0198 1273.21 Q59.2097 1273.21 56.131 1268.63 Q53.0754 1264.02 53.0754 1255.29 Q53.0754 1246.55 56.131 1241.96 Q59.2097 1237.36 65.0198 1237.36 Z" fill="#000000" fill-rule="evenodd" fill-opacity="1" /><path clip-path="url(#clip190)" d="M85.1818 1266.66 L90.066 1266.66 L90.066 1272.54 L85.1818 1272.54 L85.1818 1266.66 Z" fill="#000000" fill-rule="evenodd" fill-opacity="1" /><path clip-path="url(#clip190)" d="M110.251 1241.06 Q106.64 1241.06 104.811 1244.62 Q103.006 1248.17 103.006 1255.29 Q103.006 1262.4 104.811 1265.97 Q106.64 1269.51 110.251 1269.51 Q113.885 1269.51 115.691 1265.97 Q117.52 1262.4 117.52 1255.29 Q117.52 1248.17 115.691 1244.62 Q113.885 1241.06 110.251 1241.06 M110.251 1237.36 Q116.061 1237.36 119.117 1241.96 Q122.195 1246.55 122.195 1255.29 Q122.195 1264.02 119.117 1268.63 Q116.061 1273.21 110.251 1273.21 Q104.441 1273.21 101.362 1268.63 Q98.3067 1264.02 98.3067 1255.29 Q98.3067 1246.55 101.362 1241.96 Q104.441 1237.36 110.251 1237.36 Z" fill="#000000" fill-rule="evenodd" fill-opacity="1" /><path clip-path="url(#clip190)" d="M140.413 1241.06 Q136.802 1241.06 134.973 1244.62 Q133.168 1248.17 133.168 1255.29 Q133.168 1262.4 134.973 1265.97 Q136.802 1269.51 140.413 1269.51 Q144.047 1269.51 145.853 1265.97 Q147.681 1262.4 147.681 1255.29 Q147.681 1248.17 145.853 1244.62 Q144.047 1241.06 140.413 1241.06 M140.413 1237.36 Q146.223 1237.36 149.279 1241.96 Q152.357 1246.55 152.357 1255.29 Q152.357 1264.02 149.279 1268.63 Q146.223 1273.21 140.413 1273.21 Q134.603 1273.21 131.524 1268.63 Q128.469 1264.02 128.469 1255.29 Q128.469 1246.55 131.524 1241.96 Q134.603 1237.36 140.413 1237.36 Z" fill="#000000" fill-rule="evenodd" fill-opacity="1" /><path clip-path="url(#clip190)" d="M170.575 1241.06 Q166.964 1241.06 165.135 1244.62 Q163.329 1248.17 163.329 1255.29 Q163.329 1262.4 165.135 1265.97 Q166.964 1269.51 170.575 1269.51 Q174.209 1269.51 176.015 1265.97 Q177.843 1262.4 177.843 1255.29 Q177.843 1248.17 176.015 1244.62 Q174.209 1241.06 170.575 1241.06 M170.575 1237.36 Q176.385 1237.36 179.441 1241.96 Q182.519 1246.55 182.519 1255.29 Q182.519 1264.02 179.441 1268.63 Q176.385 1273.21 170.575 1273.21 Q164.765 1273.21 161.686 1268.63 Q158.63 1264.02 158.63 1255.29 Q158.63 1246.55 161.686 1241.96 Q164.765 1237.36 170.575 1237.36 Z" fill="#000000" fill-rule="evenodd" fill-opacity="1" /><path clip-path="url(#clip190)" d="M194.765 1268.61 L211.084 1268.61 L211.084 1272.54 L189.14 1272.54 L189.14 1268.61 Q191.802 1265.85 196.385 1261.22 Q200.991 1256.57 202.172 1255.23 Q204.417 1252.7 205.297 1250.97 Q206.2 1249.21 206.2 1247.52 Q206.2 1244.76 204.255 1243.03 Q202.334 1241.29 199.232 1241.29 Q197.033 1241.29 194.579 1242.05 Q192.149 1242.82 189.371 1244.37 L189.371 1239.65 Q192.195 1238.51 194.649 1237.93 Q197.102 1237.36 199.139 1237.36 Q204.51 1237.36 207.704 1240.04 Q210.899 1242.73 210.899 1247.22 Q210.899 1249.35 210.088 1251.27 Q209.301 1253.17 207.195 1255.76 Q206.616 1256.43 203.514 1259.65 Q200.413 1262.84 194.765 1268.61 Z" fill="#000000" fill-rule="evenodd" fill-opacity="1" /><path clip-path="url(#clip190)" d="M62.9365 973.021 Q59.3254 973.021 57.4967 976.586 Q55.6912 980.128 55.6912 987.257 Q55.6912 994.364 57.4967 997.929 Q59.3254 1001.47 62.9365 1001.47 Q66.5707 1001.47 68.3763 997.929 Q70.205 994.364 70.205 987.257 Q70.205 980.128 68.3763 976.586 Q66.5707 973.021 62.9365 973.021 M62.9365 969.318 Q68.7467 969.318 71.8022 973.924 Q74.8809 978.508 74.8809 987.257 Q74.8809 995.984 71.8022 1000.59 Q68.7467 1005.17 62.9365 1005.17 Q57.1264 1005.17 54.0477 1000.59 Q50.9921 995.984 50.9921 987.257 Q50.9921 978.508 54.0477 973.924 Q57.1264 969.318 62.9365 969.318 Z" fill="#000000" fill-rule="evenodd" fill-opacity="1" /><path clip-path="url(#clip190)" d="M83.0984 998.623 L87.9827 998.623 L87.9827 1004.5 L83.0984 1004.5 L83.0984 998.623 Z" fill="#000000" fill-rule="evenodd" fill-opacity="1" /><path clip-path="url(#clip190)" d="M108.168 973.021 Q104.557 973.021 102.728 976.586 Q100.922 980.128 100.922 987.257 Q100.922 994.364 102.728 997.929 Q104.557 1001.47 108.168 1001.47 Q111.802 1001.47 113.608 997.929 Q115.436 994.364 115.436 987.257 Q115.436 980.128 113.608 976.586 Q111.802 973.021 108.168 973.021 M108.168 969.318 Q113.978 969.318 117.033 973.924 Q120.112 978.508 120.112 987.257 Q120.112 995.984 117.033 1000.59 Q113.978 1005.17 108.168 1005.17 Q102.358 1005.17 99.2789 1000.59 Q96.2234 995.984 96.2234 987.257 Q96.2234 978.508 99.2789 973.924 Q102.358 969.318 108.168 969.318 Z" fill="#000000" fill-rule="evenodd" fill-opacity="1" /><path clip-path="url(#clip190)" d="M138.33 973.021 Q134.719 973.021 132.89 976.586 Q131.084 980.128 131.084 987.257 Q131.084 994.364 132.89 997.929 Q134.719 1001.47 138.33 1001.47 Q141.964 1001.47 143.769 997.929 Q145.598 994.364 145.598 987.257 Q145.598 980.128 143.769 976.586 Q141.964 973.021 138.33 973.021 M138.33 969.318 Q144.14 969.318 147.195 973.924 Q150.274 978.508 150.274 987.257 Q150.274 995.984 147.195 1000.59 Q144.14 1005.17 138.33 1005.17 Q132.519 1005.17 129.441 1000.59 Q126.385 995.984 126.385 987.257 Q126.385 978.508 129.441 973.924 Q132.519 969.318 138.33 969.318 Z" fill="#000000" fill-rule="evenodd" fill-opacity="1" /><path clip-path="url(#clip190)" d="M168.491 973.021 Q164.88 973.021 163.052 976.586 Q161.246 980.128 161.246 987.257 Q161.246 994.364 163.052 997.929 Q164.88 1001.47 168.491 1001.47 Q172.126 1001.47 173.931 997.929 Q175.76 994.364 175.76 987.257 Q175.76 980.128 173.931 976.586 Q172.126 973.021 168.491 973.021 M168.491 969.318 Q174.302 969.318 177.357 973.924 Q180.436 978.508 180.436 987.257 Q180.436 995.984 177.357 1000.59 Q174.302 1005.17 168.491 1005.17 Q162.681 1005.17 159.603 1000.59 Q156.547 995.984 156.547 987.257 Q156.547 978.508 159.603 973.924 Q162.681 969.318 168.491 969.318 Z" fill="#000000" fill-rule="evenodd" fill-opacity="1" /><path clip-path="url(#clip190)" d="M201.501 974.017 L189.695 992.466 L201.501 992.466 L201.501 974.017 M200.274 969.943 L206.153 969.943 L206.153 992.466 L211.084 992.466 L211.084 996.355 L206.153 996.355 L206.153 1004.5 L201.501 1004.5 L201.501 996.355 L185.899 996.355 L185.899 991.841 L200.274 969.943 Z" fill="#000000" fill-rule="evenodd" fill-opacity="1" /><path clip-path="url(#clip190)" d="M63.2606 704.984 Q59.6495 704.984 57.8208 708.549 Q56.0152 712.09 56.0152 719.22 Q56.0152 726.326 57.8208 729.891 Q59.6495 733.433 63.2606 733.433 Q66.8948 733.433 68.7004 729.891 Q70.5291 726.326 70.5291 719.22 Q70.5291 712.09 68.7004 708.549 Q66.8948 704.984 63.2606 704.984 M63.2606 701.28 Q69.0707 701.28 72.1263 705.887 Q75.205 710.47 75.205 719.22 Q75.205 727.947 72.1263 732.553 Q69.0707 737.137 63.2606 737.137 Q57.4504 737.137 54.3717 732.553 Q51.3162 727.947 51.3162 719.22 Q51.3162 710.47 54.3717 705.887 Q57.4504 701.28 63.2606 701.28 Z" fill="#000000" fill-rule="evenodd" fill-opacity="1" /><path clip-path="url(#clip190)" d="M83.4225 730.586 L88.3067 730.586 L88.3067 736.465 L83.4225 736.465 L83.4225 730.586 Z" fill="#000000" fill-rule="evenodd" fill-opacity="1" /><path clip-path="url(#clip190)" d="M108.492 704.984 Q104.881 704.984 103.052 708.549 Q101.246 712.09 101.246 719.22 Q101.246 726.326 103.052 729.891 Q104.881 733.433 108.492 733.433 Q112.126 733.433 113.932 729.891 Q115.76 726.326 115.76 719.22 Q115.76 712.09 113.932 708.549 Q112.126 704.984 108.492 704.984 M108.492 701.28 Q114.302 701.28 117.358 705.887 Q120.436 710.47 120.436 719.22 Q120.436 727.947 117.358 732.553 Q114.302 737.137 108.492 737.137 Q102.682 737.137 99.603 732.553 Q96.5474 727.947 96.5474 719.22 Q96.5474 710.47 99.603 705.887 Q102.682 701.28 108.492 701.28 Z" fill="#000000" fill-rule="evenodd" fill-opacity="1" /><path clip-path="url(#clip190)" d="M138.654 704.984 Q135.043 704.984 133.214 708.549 Q131.408 712.09 131.408 719.22 Q131.408 726.326 133.214 729.891 Q135.043 733.433 138.654 733.433 Q142.288 733.433 144.093 729.891 Q145.922 726.326 145.922 719.22 Q145.922 712.09 144.093 708.549 Q142.288 704.984 138.654 704.984 M138.654 701.28 Q144.464 701.28 147.519 705.887 Q150.598 710.47 150.598 719.22 Q150.598 727.947 147.519 732.553 Q144.464 737.137 138.654 737.137 Q132.844 737.137 129.765 732.553 Q126.709 727.947 126.709 719.22 Q126.709 710.47 129.765 705.887 Q132.844 701.28 138.654 701.28 Z" fill="#000000" fill-rule="evenodd" fill-opacity="1" /><path clip-path="url(#clip190)" d="M168.816 704.984 Q165.204 704.984 163.376 708.549 Q161.57 712.09 161.57 719.22 Q161.57 726.326 163.376 729.891 Q165.204 733.433 168.816 733.433 Q172.45 733.433 174.255 729.891 Q176.084 726.326 176.084 719.22 Q176.084 712.09 174.255 708.549 Q172.45 704.984 168.816 704.984 M168.816 701.28 Q174.626 701.28 177.681 705.887 Q180.76 710.47 180.76 719.22 Q180.76 727.947 177.681 732.553 Q174.626 737.137 168.816 737.137 Q163.005 737.137 159.927 732.553 Q156.871 727.947 156.871 719.22 Q156.871 710.47 159.927 705.887 Q163.005 701.28 168.816 701.28 Z" fill="#000000" fill-rule="evenodd" fill-opacity="1" /><path clip-path="url(#clip190)" d="M199.556 717.322 Q196.408 717.322 194.556 719.475 Q192.727 721.627 192.727 725.377 Q192.727 729.104 194.556 731.28 Q196.408 733.433 199.556 733.433 Q202.704 733.433 204.533 731.28 Q206.385 729.104 206.385 725.377 Q206.385 721.627 204.533 719.475 Q202.704 717.322 199.556 717.322 M208.839 702.669 L208.839 706.928 Q207.079 706.095 205.274 705.655 Q203.491 705.215 201.732 705.215 Q197.102 705.215 194.649 708.34 Q192.218 711.465 191.871 717.785 Q193.237 715.771 195.297 714.706 Q197.357 713.618 199.834 713.618 Q205.042 713.618 208.051 716.789 Q211.084 719.938 211.084 725.377 Q211.084 730.701 207.936 733.919 Q204.788 737.137 199.556 737.137 Q193.561 737.137 190.39 732.553 Q187.218 727.947 187.218 719.22 Q187.218 711.026 191.107 706.165 Q194.996 701.28 201.547 701.28 Q203.306 701.28 205.089 701.627 Q206.894 701.975 208.839 702.669 Z" fill="#000000" fill-rule="evenodd" fill-opacity="1" /><path clip-path="url(#clip190)" d="M63.5152 436.946 Q59.9041 436.946 58.0754 440.511 Q56.2699 444.053 56.2699 451.182 Q56.2699 458.289 58.0754 461.854 Q59.9041 465.395 63.5152 465.395 Q67.1494 465.395 68.955 461.854 Q70.7837 458.289 70.7837 451.182 Q70.7837 444.053 68.955 440.511 Q67.1494 436.946 63.5152 436.946 M63.5152 433.243 Q69.3254 433.243 72.3809 437.849 Q75.4596 442.433 75.4596 451.182 Q75.4596 459.909 72.3809 464.516 Q69.3254 469.099 63.5152 469.099 Q57.7051 469.099 54.6264 464.516 Q51.5708 459.909 51.5708 451.182 Q51.5708 442.433 54.6264 437.849 Q57.7051 433.243 63.5152 433.243 Z" fill="#000000" fill-rule="evenodd" fill-opacity="1" /><path clip-path="url(#clip190)" d="M83.6771 462.548 L88.5614 462.548 L88.5614 468.428 L83.6771 468.428 L83.6771 462.548 Z" fill="#000000" fill-rule="evenodd" fill-opacity="1" /><path clip-path="url(#clip190)" d="M108.746 436.946 Q105.135 436.946 103.307 440.511 Q101.501 444.053 101.501 451.182 Q101.501 458.289 103.307 461.854 Q105.135 465.395 108.746 465.395 Q112.381 465.395 114.186 461.854 Q116.015 458.289 116.015 451.182 Q116.015 444.053 114.186 440.511 Q112.381 436.946 108.746 436.946 M108.746 433.243 Q114.557 433.243 117.612 437.849 Q120.691 442.433 120.691 451.182 Q120.691 459.909 117.612 464.516 Q114.557 469.099 108.746 469.099 Q102.936 469.099 99.8576 464.516 Q96.8021 459.909 96.8021 451.182 Q96.8021 442.433 99.8576 437.849 Q102.936 433.243 108.746 433.243 Z" fill="#000000" fill-rule="evenodd" fill-opacity="1" /><path clip-path="url(#clip190)" d="M138.908 436.946 Q135.297 436.946 133.469 440.511 Q131.663 444.053 131.663 451.182 Q131.663 458.289 133.469 461.854 Q135.297 465.395 138.908 465.395 Q142.543 465.395 144.348 461.854 Q146.177 458.289 146.177 451.182 Q146.177 444.053 144.348 440.511 Q142.543 436.946 138.908 436.946 M138.908 433.243 Q144.718 433.243 147.774 437.849 Q150.853 442.433 150.853 451.182 Q150.853 459.909 147.774 464.516 Q144.718 469.099 138.908 469.099 Q133.098 469.099 130.019 464.516 Q126.964 459.909 126.964 451.182 Q126.964 442.433 130.019 437.849 Q133.098 433.243 138.908 433.243 Z" fill="#000000" fill-rule="evenodd" fill-opacity="1" /><path clip-path="url(#clip190)" d="M169.07 436.946 Q165.459 436.946 163.63 440.511 Q161.825 444.053 161.825 451.182 Q161.825 458.289 163.63 461.854 Q165.459 465.395 169.07 465.395 Q172.704 465.395 174.51 461.854 Q176.339 458.289 176.339 451.182 Q176.339 444.053 174.51 440.511 Q172.704 436.946 169.07 436.946 M169.07 433.243 Q174.88 433.243 177.936 437.849 Q181.015 442.433 181.015 451.182 Q181.015 459.909 177.936 464.516 Q174.88 469.099 169.07 469.099 Q163.26 469.099 160.181 464.516 Q157.126 459.909 157.126 451.182 Q157.126 442.433 160.181 437.849 Q163.26 433.243 169.07 433.243 Z" fill="#000000" fill-rule="evenodd" fill-opacity="1" /><path clip-path="url(#clip190)" d="M199.232 452.016 Q195.899 452.016 193.977 453.798 Q192.079 455.581 192.079 458.706 Q192.079 461.831 193.977 463.613 Q195.899 465.395 199.232 465.395 Q202.565 465.395 204.487 463.613 Q206.408 461.807 206.408 458.706 Q206.408 455.581 204.487 453.798 Q202.589 452.016 199.232 452.016 M194.556 450.025 Q191.547 449.284 189.857 447.224 Q188.19 445.164 188.19 442.201 Q188.19 438.058 191.13 435.65 Q194.093 433.243 199.232 433.243 Q204.394 433.243 207.334 435.65 Q210.274 438.058 210.274 442.201 Q210.274 445.164 208.584 447.224 Q206.917 449.284 203.931 450.025 Q207.311 450.812 209.186 453.104 Q211.084 455.395 211.084 458.706 Q211.084 463.729 208.005 466.414 Q204.95 469.099 199.232 469.099 Q193.515 469.099 190.436 466.414 Q187.38 463.729 187.38 458.706 Q187.38 455.395 189.278 453.104 Q191.177 450.812 194.556 450.025 M192.843 442.641 Q192.843 445.326 194.51 446.831 Q196.2 448.335 199.232 448.335 Q202.241 448.335 203.931 446.831 Q205.644 445.326 205.644 442.641 Q205.644 439.956 203.931 438.451 Q202.241 436.946 199.232 436.946 Q196.2 436.946 194.51 438.451 Q192.843 439.956 192.843 442.641 Z" fill="#000000" fill-rule="evenodd" fill-opacity="1" /><path clip-path="url(#clip190)" d="M63.4226 168.909 Q59.8115 168.909 57.9828 172.474 Q56.1773 176.015 56.1773 183.145 Q56.1773 190.251 57.9828 193.816 Q59.8115 197.358 63.4226 197.358 Q67.0569 197.358 68.8624 193.816 Q70.6911 190.251 70.6911 183.145 Q70.6911 176.015 68.8624 172.474 Q67.0569 168.909 63.4226 168.909 M63.4226 165.205 Q69.2328 165.205 72.2883 169.812 Q75.367 174.395 75.367 183.145 Q75.367 191.872 72.2883 196.478 Q69.2328 201.062 63.4226 201.062 Q57.6125 201.062 54.5338 196.478 Q51.4782 191.872 51.4782 183.145 Q51.4782 174.395 54.5338 169.812 Q57.6125 165.205 63.4226 165.205 Z" fill="#000000" fill-rule="evenodd" fill-opacity="1" /><path clip-path="url(#clip190)" d="M83.5845 194.511 L88.4688 194.511 L88.4688 200.39 L83.5845 200.39 L83.5845 194.511 Z" fill="#000000" fill-rule="evenodd" fill-opacity="1" /><path clip-path="url(#clip190)" d="M108.654 168.909 Q105.043 168.909 103.214 172.474 Q101.409 176.015 101.409 183.145 Q101.409 190.251 103.214 193.816 Q105.043 197.358 108.654 197.358 Q112.288 197.358 114.094 193.816 Q115.922 190.251 115.922 183.145 Q115.922 176.015 114.094 172.474 Q112.288 168.909 108.654 168.909 M108.654 165.205 Q114.464 165.205 117.52 169.812 Q120.598 174.395 120.598 183.145 Q120.598 191.872 117.52 196.478 Q114.464 201.062 108.654 201.062 Q102.844 201.062 99.765 196.478 Q96.7095 191.872 96.7095 183.145 Q96.7095 174.395 99.765 169.812 Q102.844 165.205 108.654 165.205 Z" fill="#000000" fill-rule="evenodd" fill-opacity="1" /><path clip-path="url(#clip190)" d="M138.816 168.909 Q135.205 168.909 133.376 172.474 Q131.57 176.015 131.57 183.145 Q131.57 190.251 133.376 193.816 Q135.205 197.358 138.816 197.358 Q142.45 197.358 144.256 193.816 Q146.084 190.251 146.084 183.145 Q146.084 176.015 144.256 172.474 Q142.45 168.909 138.816 168.909 M138.816 165.205 Q144.626 165.205 147.681 169.812 Q150.76 174.395 150.76 183.145 Q150.76 191.872 147.681 196.478 Q144.626 201.062 138.816 201.062 Q133.006 201.062 129.927 196.478 Q126.871 191.872 126.871 183.145 Q126.871 174.395 129.927 169.812 Q133.006 165.205 138.816 165.205 Z" fill="#000000" fill-rule="evenodd" fill-opacity="1" /><path clip-path="url(#clip190)" d="M159.788 196.455 L167.427 196.455 L167.427 170.09 L159.117 171.756 L159.117 167.497 L167.38 165.83 L172.056 165.83 L172.056 196.455 L179.695 196.455 L179.695 200.39 L159.788 200.39 L159.788 196.455 Z" fill="#000000" fill-rule="evenodd" fill-opacity="1" /><path clip-path="url(#clip190)" d="M199.139 168.909 Q195.528 168.909 193.7 172.474 Q191.894 176.015 191.894 183.145 Q191.894 190.251 193.7 193.816 Q195.528 197.358 199.139 197.358 Q202.774 197.358 204.579 193.816 Q206.408 190.251 206.408 183.145 Q206.408 176.015 204.579 172.474 Q202.774 168.909 199.139 168.909 M199.139 165.205 Q204.95 165.205 208.005 169.812 Q211.084 174.395 211.084 183.145 Q211.084 191.872 208.005 196.478 Q204.95 201.062 199.139 201.062 Q193.329 201.062 190.251 196.478 Q187.195 191.872 187.195 183.145 Q187.195 174.395 190.251 169.812 Q193.329 165.205 199.139 165.205 Z" fill="#000000" fill-rule="evenodd" fill-opacity="1" /><path clip-path="url(#clip190)" d="M1073.66 12.096 L1081.84 12.096 L1081.84 72.576 L1073.66 72.576 L1073.66 12.096 Z" fill="#000000" fill-rule="evenodd" fill-opacity="1" /><path clip-path="url(#clip190)" d="M1135.51 45.1919 L1135.51 72.576 L1128.06 72.576 L1128.06 45.4349 Q1128.06 38.994 1125.55 35.7938 Q1123.04 32.5936 1118.01 32.5936 Q1111.98 32.5936 1108.49 36.4419 Q1105.01 40.2903 1105.01 46.9338 L1105.01 72.576 L1097.52 72.576 L1097.52 27.2059 L1105.01 27.2059 L1105.01 34.2544 Q1107.68 30.163 1111.29 28.1376 Q1114.94 26.1121 1119.67 26.1121 Q1127.49 26.1121 1131.5 30.9732 Q1135.51 35.7938 1135.51 45.1919 Z" fill="#000000" fill-rule="evenodd" fill-opacity="1" /><path clip-path="url(#clip190)" d="M1183.03 28.9478 L1183.03 35.9153 Q1179.87 34.1734 1176.67 33.3227 Q1173.51 32.4315 1170.27 32.4315 Q1163.02 32.4315 1159.01 37.0496 Q1155 41.6271 1155 49.9314 Q1155 58.2358 1159.01 62.8538 Q1163.02 67.4314 1170.27 67.4314 Q1173.51 67.4314 1176.67 66.5807 Q1179.87 65.6895 1183.03 63.9476 L1183.03 70.8341 Q1179.91 72.2924 1176.55 73.0216 Q1173.23 73.7508 1169.46 73.7508 Q1159.21 73.7508 1153.18 67.3098 Q1147.14 60.8689 1147.14 49.9314 Q1147.14 38.832 1153.22 32.472 Q1159.33 26.1121 1169.95 26.1121 Q1173.39 26.1121 1176.67 26.8413 Q1179.95 27.5299 1183.03 28.9478 Z" fill="#000000" fill-rule="evenodd" fill-opacity="1" /><path clip-path="url(#clip190)" d="M1195.99 27.2059 L1203.45 27.2059 L1203.45 72.576 L1195.99 72.576 L1195.99 27.2059 M1195.99 9.54393 L1203.45 9.54393 L1203.45 18.9825 L1195.99 18.9825 L1195.99 9.54393 Z" fill="#000000" fill-rule="evenodd" fill-opacity="1" /><path clip-path="url(#clip190)" d="M1248.9 34.0924 L1248.9 9.54393 L1256.35 9.54393 L1256.35 72.576 L1248.9 72.576 L1248.9 65.7705 Q1246.55 69.8214 1242.94 71.8063 Q1239.38 73.7508 1234.36 73.7508 Q1226.13 73.7508 1220.95 67.1883 Q1215.8 60.6258 1215.8 49.9314 Q1215.8 39.2371 1220.95 32.6746 Q1226.13 26.1121 1234.36 26.1121 Q1239.38 26.1121 1242.94 28.0971 Q1246.55 30.0415 1248.9 34.0924 M1223.5 49.9314 Q1223.5 58.1548 1226.86 62.8538 Q1230.26 67.5124 1236.18 67.5124 Q1242.09 67.5124 1245.5 62.8538 Q1248.9 58.1548 1248.9 49.9314 Q1248.9 41.7081 1245.5 37.0496 Q1242.09 32.3505 1236.18 32.3505 Q1230.26 32.3505 1226.86 37.0496 Q1223.5 41.7081 1223.5 49.9314 Z" fill="#000000" fill-rule="evenodd" fill-opacity="1" /><path clip-path="url(#clip190)" d="M1310.51 48.0275 L1310.51 51.6733 L1276.24 51.6733 Q1276.73 59.3701 1280.86 63.421 Q1285.03 67.4314 1292.45 67.4314 Q1296.74 67.4314 1300.75 66.3781 Q1304.8 65.3249 1308.77 63.2184 L1308.77 70.267 Q1304.76 71.9684 1300.55 72.8596 Q1296.33 73.7508 1292 73.7508 Q1281.14 73.7508 1274.78 67.4314 Q1268.46 61.1119 1268.46 50.3365 Q1268.46 39.1965 1274.46 32.6746 Q1280.5 26.1121 1290.7 26.1121 Q1299.86 26.1121 1305.17 32.0264 Q1310.51 37.9003 1310.51 48.0275 M1303.06 45.84 Q1302.98 39.7232 1299.62 36.0774 Q1296.29 32.4315 1290.79 32.4315 Q1284.55 32.4315 1280.78 35.9558 Q1277.05 39.4801 1276.49 45.8805 L1303.06 45.84 Z" fill="#000000" fill-rule="evenodd" fill-opacity="1" /><path clip-path="url(#clip190)" d="M1360.46 45.1919 L1360.46 72.576 L1353.01 72.576 L1353.01 45.4349 Q1353.01 38.994 1350.5 35.7938 Q1347.98 32.5936 1342.96 32.5936 Q1336.92 32.5936 1333.44 36.4419 Q1329.96 40.2903 1329.96 46.9338 L1329.96 72.576 L1322.46 72.576 L1322.46 27.2059 L1329.96 27.2059 L1329.96 34.2544 Q1332.63 30.163 1336.24 28.1376 Q1339.88 26.1121 1344.62 26.1121 Q1352.44 26.1121 1356.45 30.9732 Q1360.46 35.7938 1360.46 45.1919 Z" fill="#000000" fill-rule="evenodd" fill-opacity="1" /><path clip-path="url(#clip190)" d="M1407.98 28.9478 L1407.98 35.9153 Q1404.82 34.1734 1401.62 33.3227 Q1398.46 32.4315 1395.22 32.4315 Q1387.97 32.4315 1383.96 37.0496 Q1379.95 41.6271 1379.95 49.9314 Q1379.95 58.2358 1383.96 62.8538 Q1387.97 67.4314 1395.22 67.4314 Q1398.46 67.4314 1401.62 66.5807 Q1404.82 65.6895 1407.98 63.9476 L1407.98 70.8341 Q1404.86 72.2924 1401.5 73.0216 Q1398.17 73.7508 1394.41 73.7508 Q1384.16 73.7508 1378.12 67.3098 Q1372.09 60.8689 1372.09 49.9314 Q1372.09 38.832 1378.16 32.472 Q1384.28 26.1121 1394.89 26.1121 Q1398.34 26.1121 1401.62 26.8413 Q1404.9 27.5299 1407.98 28.9478 Z" fill="#000000" fill-rule="evenodd" fill-opacity="1" /><path clip-path="url(#clip190)" d="M1420.94 27.2059 L1428.39 27.2059 L1428.39 72.576 L1420.94 72.576 L1420.94 27.2059 M1420.94 9.54393 L1428.39 9.54393 L1428.39 18.9825 L1420.94 18.9825 L1420.94 9.54393 Z" fill="#000000" fill-rule="evenodd" fill-opacity="1" /><path clip-path="url(#clip190)" d="M1464.61 49.7694 Q1455.58 49.7694 1452.09 51.8354 Q1448.61 53.9013 1448.61 58.8839 Q1448.61 62.8538 1451.2 65.2034 Q1453.83 67.5124 1458.33 67.5124 Q1464.53 67.5124 1468.26 63.1374 Q1472.02 58.7219 1472.02 51.4303 L1472.02 49.7694 L1464.61 49.7694 M1479.48 46.6907 L1479.48 72.576 L1472.02 72.576 L1472.02 65.6895 Q1469.47 69.8214 1465.66 71.8063 Q1461.85 73.7508 1456.35 73.7508 Q1449.38 73.7508 1445.25 69.8619 Q1441.15 65.9325 1441.15 59.3701 Q1441.15 51.7138 1446.26 47.825 Q1451.4 43.9361 1461.57 43.9361 L1472.02 43.9361 L1472.02 43.2069 Q1472.02 38.0623 1468.62 35.2672 Q1465.26 32.4315 1459.14 32.4315 Q1455.25 32.4315 1451.57 33.3632 Q1447.88 34.295 1444.48 36.1584 L1444.48 29.2718 Q1448.57 27.692 1452.42 26.9223 Q1456.26 26.1121 1459.91 26.1121 Q1469.75 26.1121 1474.62 31.2163 Q1479.48 36.3204 1479.48 46.6907 Z" fill="#000000" fill-rule="evenodd" fill-opacity="1" /><path clip-path="url(#clip190)" d="M1523.75 28.5427 L1523.75 35.5912 Q1520.59 33.9709 1517.19 33.1607 Q1513.79 32.3505 1510.14 32.3505 Q1504.59 32.3505 1501.8 34.0519 Q1499.04 35.7533 1499.04 39.156 Q1499.04 41.7486 1501.03 43.2475 Q1503.01 44.7058 1509.01 46.0426 L1511.56 46.6097 Q1519.5 48.3111 1522.82 51.4303 Q1526.18 54.509 1526.18 60.0587 Q1526.18 66.3781 1521.16 70.0644 Q1516.18 73.7508 1507.43 73.7508 Q1503.78 73.7508 1499.81 73.0216 Q1495.88 72.3329 1491.51 70.9151 L1491.51 63.2184 Q1495.64 65.3654 1499.65 66.4591 Q1503.66 67.5124 1507.59 67.5124 Q1512.86 67.5124 1515.69 65.73 Q1518.53 63.9071 1518.53 60.6258 Q1518.53 57.5877 1516.46 55.9673 Q1514.44 54.3469 1507.51 52.8481 L1504.92 52.2405 Q1497.99 50.7821 1494.91 47.7845 Q1491.83 44.7463 1491.83 39.4801 Q1491.83 33.0797 1496.37 29.5959 Q1500.91 26.1121 1509.25 26.1121 Q1513.38 26.1121 1517.03 26.7198 Q1520.67 27.3274 1523.75 28.5427 Z" fill="#000000" fill-rule="evenodd" fill-opacity="1" /><polyline clip-path="url(#clip192)" style="stroke:#009af9; stroke-linecap:butt; stroke-linejoin:round; stroke-width:4; stroke-opacity:1; fill:none" points="
  306.678,1414.8 311.645,1404.2 316.611,1393.07 321.577,1381.36 326.543,1369.02 331.509,1356.04 336.476,1342.37 341.442,1327.76 346.408,1311.59 351.374,1294.52 
  356.34,1276.65 361.307,1257.89 366.273,1238.23 371.239,1217.45 376.205,1195.96 381.171,1174.1 386.138,1151.89 391.104,1129.01 396.07,1105.06 401.036,1080.15 
  406.003,1054.35 410.969,1027.87 415.935,1002.62 420.901,977.613 425.867,951.628 430.834,924.371 435.8,896.287 440.766,867.538 445.732,838.129 450.698,805.09 
  455.665,768.467 460.631,729.864 465.597,690.399 470.563,650.708 475.529,610.938 480.496,570.235 485.462,525.764 490.428,479.958 495.394,434.493 500.36,388.181 
  505.327,339.917 510.293,300.241 515.259,273.073 520.225,253.495 525.191,233.973 530.158,215.713 535.124,198.888 540.09,183.634 545.056,170.92 550.023,164.072 
  554.989,162.047 559.955,163.578 564.921,167.758 569.887,174.131 574.854,182.915 579.82,194.028 584.786,207.067 589.752,220.979 594.718,236.164 599.685,252.981 
  604.651,271.548 609.617,291.741 614.583,313.196 619.549,335.751 624.516,360.119 629.482,386.353 634.448,416.952 639.414,449.771 644.38,475.16 649.347,493.565 
  654.313,515.948 659.279,551.041 664.245,586.611 669.212,622.122 674.178,657.512 679.144,692.906 684.11,728.017 689.076,762.515 694.043,796.172 699.009,828.862 
  703.975,860.557 708.941,891.334 713.907,921.367 718.874,950.93 723.84,980.154 728.806,1008.84 733.772,1036.82 738.738,1063.97 743.705,1090.2 748.671,1115.51 
  753.637,1139.63 758.603,1161.78 763.569,1182.48 768.536,1202.21 773.502,1221.28 778.468,1239.79 783.434,1257.66 788.4,1274.81 793.367,1291.37 798.333,1307.11 
  803.299,1321.79 808.265,1335.25 813.232,1347.38 818.198,1358.16 823.164,1367.56 828.13,1375.72 833.096,1382.81 838.063,1388.98 843.029,1394.35 847.995,1399.02 
  852.961,1403.06 857.927,1406.52 862.894,1409.39 867.86,1411.68 872.826,1413.46 877.792,1414.77 882.758,1415.65 887.725,1416.11 892.691,1416.13 897.657,1415.58 
  902.623,1414.42 907.589,1412.66 912.556,1410.31 917.522,1407.38 922.488,1403.86 927.454,1399.73 932.421,1394.78 937.387,1388.92 942.353,1382.08 947.319,1374.18 
  952.285,1365.23 957.252,1355.66 962.218,1345.29 967.184,1334.03 972.15,1321.96 977.116,1309.34 982.083,1296.56 987.049,1283.25 992.015,1269.03 996.981,1253.75 
  1001.95,1237.47 1006.91,1220.47 1011.88,1202.44 1016.85,1183.74 1021.81,1165.52 1026.78,1148.06 1031.74,1130.85 1036.71,1112.54 1041.68,1092.26 1046.64,1071.72 
  1051.61,1051.06 1056.58,1030.33 1061.54,1009.59 1066.51,988.784 1071.47,967.246 1076.44,945.036 1081.41,922.381 1086.37,899.499 1091.34,876.608 1096.31,853.918 
  1101.27,831.636 1106.24,809.341 1111.2,782.305 1116.17,752.643 1121.14,722.922 1126.1,694.121 1131.07,665.722 1136.04,637.521 1141,610.249 1145.97,584.438 
  1150.93,560.386 1155.9,538.15 1160.87,517.754 1165.83,499.23 1170.8,481.985 1175.76,465.681 1180.73,450.287 1185.7,436.079 1190.66,423.772 1195.63,413.968 
  1200.6,405.464 1205.56,397.387 1210.53,389.437 1215.49,381.883 1220.46,375.565 1225.43,371.496 1230.39,369.462 1235.36,369.593 1240.33,371.998 1245.29,376.697 
  1250.26,383.626 1255.22,392.632 1260.19,403.335 1265.16,415.346 1270.12,429.174 1275.09,445.185 1280.06,463.526 1285.02,484.126 1289.99,506.692 1294.95,530.716 
  1299.92,555.467 1304.89,579.997 1309.85,603.375 1314.82,625.76 1319.78,647.198 1324.75,667.717 1329.72,687.39 1334.68,706.326 1339.65,724.679 1344.62,742.644 
  1349.58,760.175 1354.55,776.508 1359.51,791.975 1364.48,806.908 1369.45,821.509 1374.41,835.847 1379.38,849.864 1384.35,863.716 1389.31,877.982 1394.28,892.311 
  1399.24,906.454 1404.21,920.326 1409.18,934.002 1414.14,947.656 1419.11,960.128 1424.08,971.566 1429.04,982.634 1434.01,993.66 1438.97,1004.64 1443.94,1015.61 
  1448.91,1026.55 1453.87,1037.02 1458.84,1046.73 1463.8,1055.57 1468.77,1063.63 1473.74,1071.15 1478.7,1078.53 1483.67,1085.73 1488.64,1092.81 1493.6,1099.9 
  1498.57,1107.05 1503.53,1114.25 1508.5,1121.44 1513.47,1128.5 1518.43,1135.29 1523.4,1141.83 1528.37,1148.17 1533.33,1154.37 1538.3,1160.44 1543.26,1166.42 
  1548.23,1172.31 1553.2,1178.11 1558.16,1183.82 1563.13,1189.37 1568.1,1194.87 1573.06,1200.46 1578.03,1206.24 1582.99,1212.22 1587.96,1218.41 1592.93,1224.74 
  1597.89,1231.1 1602.86,1237.34 1607.82,1243.44 1612.79,1249.43 1617.76,1255.32 1622.72,1261.12 1627.69,1266.83 1632.66,1272.45 1637.62,1277.97 1642.59,1283.37 
  1647.55,1288.66 1652.52,1293.84 1657.49,1298.92 1662.45,1303.91 1667.42,1308.79 1672.39,1313.59 1677.35,1318.29 1682.32,1322.89 1687.28,1327.39 1692.25,1331.79 
  1697.22,1335.88 1702.18,1339.44 1707.15,1342.43 1712.12,1344.85 1717.08,1346.69 1722.05,1347.92 1727.01,1348.53 1731.98,1348.5 1736.95,1347.81 1741.91,1346.45 
  1746.88,1344.36 1751.84,1341.44 1756.81,1337.62 1761.78,1332.85 1766.74,1327.11 1771.71,1320.37 1776.68,1312.29 1781.64,1302.87 1786.61,1292.29 1791.57,1280.7 
  1796.54,1268.23 1801.51,1255.01 1806.47,1241.14 1811.44,1226.72 1816.41,1211.82 1821.37,1196.5 1826.34,1180.75 1831.3,1164.34 1836.27,1147.52 1841.24,1130.57 
  1846.2,1113.66 1851.17,1096.86 1856.14,1080.17 1861.1,1063.5 1866.07,1046.74 1871.03,1030.31 1876,1014.11 1880.97,997.953 1885.93,981.794 1890.9,965.734 
  1895.86,950.074 1900.83,935.219 1905.8,920.387 1910.76,904.972 1915.73,888.795 1920.7,872.109 1925.66,855.594 1930.63,840.224 1935.59,825.713 1940.56,811.278 
  1945.53,796.35 1950.49,780.572 1955.46,763.796 1960.43,746.089 1965.39,727.687 1970.36,708.61 1975.32,688.945 1980.29,668.796 1985.26,648.234 1990.22,627.295 
  1995.19,605.984 2000.16,584.286 2005.12,563.389 2010.09,543.658 2015.05,524.536 2020.02,505.584 2024.99,486.473 2029.95,466.988 2034.92,447.027 2039.88,426.602 
  2044.85,406.154 2049.82,389.694 2054.78,375.571 2059.75,361.389 2064.72,346.247 2069.68,330.172 2074.65,311.913 2079.61,296.461 2084.58,287.169 2089.55,284.118 
  2094.51,284.166 2099.48,285.091 2104.45,286.649 2109.41,288.248 2114.38,289.805 2119.34,291.68 2124.31,293.941 2129.28,296.506 2134.24,299.331 2139.21,302.376 
  2144.18,305.602 2149.14,308.969 2154.11,312.276 2159.07,315.532 2164.04,318.825 2169.01,322.191 2173.97,325.618 2178.94,327.98 2183.9,327.417 2188.87,326.165 
  2193.84,325.69 2198.8,326.388 2203.77,327.598 2208.74,329.552 2213.7,330.848 2218.67,329.971 2223.63,327.448 2228.6,325.084 2233.57,322.883 2238.53,320.791 
  2243.5,318.797 2248.47,316.889 2253.43,315.081 2258.4,315.12 2263.36,315.534 2268.33,313.878 2273.3,309.267 2278.26,301.227 2283.23,293.229 2288.2,287.578 
  2293.16,274.302 
  "/>
<polyline clip-path="url(#clip192)" style="stroke:#e26f46; stroke-linecap:butt; stroke-linejoin:round; stroke-width:4; stroke-opacity:1; fill:none" points="
  306.678,1439.63 311.645,1435.41 316.611,1430.41 321.577,1424.69 326.543,1418.27 331.509,1411.2 336.476,1403.48 341.442,1395.26 346.408,1386.79 351.374,1377.58 
  356.34,1367.6 361.307,1356.94 366.273,1345.62 371.239,1334.14 376.205,1321.52 381.171,1306.88 386.138,1290.22 391.104,1272.39 396.07,1254.55 401.036,1236.45 
  406.003,1218.03 410.969,1198.84 415.935,1174.05 420.901,1146.32 425.867,1118.93 430.834,1092.82 435.8,1067.09 440.766,1041.56 445.732,1016.16 450.698,988.769 
  455.665,959.327 460.631,928.85 465.597,898.025 470.563,867.206 475.529,836.417 480.496,805.47 485.462,774.616 490.428,743.464 495.394,711.826 500.36,679.683 
  505.327,646.951 510.293,615.737 515.259,587.431 520.225,562.289 525.191,539.68 530.158,519.31 535.124,501.092 540.09,484.959 545.056,476.006 550.023,489.285 
  554.989,510.295 559.955,528.861 564.921,543.145 569.887,558.047 574.854,573.23 579.82,588.385 584.786,602.711 589.752,612.92 594.718,621.2 599.685,629.684 
  604.651,639.714 609.617,651.845 614.583,665.782 619.549,680.464 624.516,698.395 629.482,719.623 634.448,741.875 639.414,764.626 644.38,786.039 649.347,806.054 
  654.313,826.506 659.279,849.157 664.245,872.293 669.212,895.719 674.178,919.326 679.144,943.082 684.11,966.817 689.076,990.348 694.043,1013.54 699.009,1036.28 
  703.975,1058.52 708.941,1080.24 713.907,1101.46 718.874,1122.28 723.84,1142.99 728.806,1163.4 733.772,1183.28 738.738,1202.49 743.705,1220.96 748.671,1238.72 
  753.637,1255.68 758.603,1271.32 763.569,1285.94 768.536,1299.85 773.502,1313.25 778.468,1326.21 783.434,1338.7 788.4,1350.69 793.367,1362.31 798.333,1373.35 
  803.299,1383.63 808.265,1393.03 813.232,1401.49 818.198,1409 823.164,1415.45 828.13,1420.89 833.096,1425.57 838.063,1429.64 843.029,1433.22 847.995,1436.4 
  852.961,1439.18 857.927,1441.53 862.894,1443.45 867.86,1444.97 872.826,1446.16 877.792,1447.02 882.758,1447.59 887.725,1447.87 892.691,1447.83 897.657,1446.86 
  902.623,1445.07 907.589,1442.82 912.556,1440.33 917.522,1437.66 922.488,1434.71 927.454,1431.18 932.421,1426.33 937.387,1420.52 942.353,1414.12 947.319,1407.14 
  952.285,1399.4 957.252,1391.22 962.218,1382.52 967.184,1373.24 972.15,1363.41 977.116,1353.19 982.083,1342.92 987.049,1332.21 992.015,1320.68 996.981,1308.15 
  1001.95,1294.71 1006.91,1280.71 1011.88,1266.61 1016.85,1252.22 1021.81,1237.18 1026.78,1221.49 1031.74,1205.41 1036.71,1189.53 1041.68,1174.15 1046.64,1158.5 
  1051.61,1142.63 1056.58,1126.58 1061.54,1110.43 1066.51,1093.94 1071.47,1075.42 1076.44,1055.54 1081.41,1035.23 1086.37,1015.13 1091.34,995.614 1096.31,976.769 
  1101.27,958.41 1106.24,939.586 1111.2,916.267 1116.17,890.636 1121.14,865.088 1126.1,840.527 1131.07,816.199 1136.04,791.298 1141,768.534 1145.97,749.581 
  1150.93,734.507 1155.9,721.772 1160.87,709.421 1165.83,698.061 1170.8,686.662 1175.76,674.671 1180.73,662.211 1185.7,650.082 1190.66,639.698 1195.63,631.437 
  1200.6,624.305 1205.56,617.64 1210.53,611.203 1215.49,605.18 1220.46,600.182 1225.43,596.962 1230.39,595.384 1235.36,595.509 1240.33,597.395 1245.29,601.054 
  1250.26,606.455 1255.22,613.521 1260.19,622.003 1265.16,631.578 1270.12,642.63 1275.09,655.434 1280.06,670.097 1285.02,686.557 1289.99,704.58 1294.95,723.763 
  1299.92,743.531 1304.89,763.143 1309.85,781.351 1314.82,796.944 1319.78,811.044 1324.75,824.624 1329.72,838.304 1334.68,852.359 1339.65,866.713 1344.62,880.942 
  1349.58,894.218 1354.55,906.065 1359.51,917.065 1364.48,927.703 1369.45,938.294 1374.41,948.978 1379.38,959.727 1384.35,971.507 1389.31,986.32 1394.28,1002.47 
  1399.24,1018.58 1404.21,1033.79 1409.18,1047.81 1414.14,1060.82 1419.11,1072.4 1424.08,1082.87 1429.04,1092.78 1434.01,1102.45 1438.97,1111.91 1443.94,1121.32 
  1448.91,1130.67 1453.87,1139.38 1458.84,1147.11 1463.8,1153.76 1468.77,1159.5 1473.74,1164.73 1478.7,1170.03 1483.67,1175.33 1488.64,1180.61 1493.6,1185.98 
  1498.57,1191.46 1503.53,1197.04 1508.5,1202.66 1513.47,1208.19 1518.43,1213.49 1523.4,1218.58 1528.37,1223.53 1533.33,1228.38 1538.3,1233.16 1543.26,1237.88 
  1548.23,1242.56 1553.2,1247.18 1558.16,1251.72 1563.13,1256.14 1568.1,1260.61 1573.06,1265.28 1578.03,1270.23 1582.99,1275.48 1587.96,1280.97 1592.93,1286.57 
  1597.89,1292.09 1602.86,1297.31 1607.82,1302.31 1612.79,1307.2 1617.76,1312.03 1622.72,1316.82 1627.69,1321.57 1632.66,1326.25 1637.62,1330.81 1642.59,1335.23 
  1647.55,1339.54 1652.52,1343.74 1657.49,1347.83 1662.45,1351.8 1667.42,1355.68 1672.39,1359.46 1677.35,1363.14 1682.32,1366.74 1687.28,1370.25 1692.25,1373.7 
  1697.22,1377 1702.18,1380.02 1707.15,1382.67 1712.12,1384.9 1717.08,1386.65 1722.05,1387.87 1727.01,1388.52 1731.98,1388.57 1736.95,1388.01 1741.91,1386.86 
  1746.88,1385.15 1751.84,1382.86 1756.81,1379.99 1761.78,1376.46 1766.74,1372.23 1771.71,1367.22 1776.68,1361.28 1781.64,1354.35 1786.61,1346.43 1791.57,1337.53 
  1796.54,1327.71 1801.51,1317.03 1806.47,1305.61 1811.44,1293.58 1816.41,1281.12 1821.37,1268.41 1826.34,1255.84 1831.3,1244.18 1836.27,1232.95 1841.24,1221.66 
  1846.2,1210.01 1851.17,1197.89 1856.14,1185.38 1861.1,1172.76 1866.07,1160.3 1871.03,1146.74 1876,1132.55 1880.97,1118.47 1885.93,1104.88 1890.9,1091.79 
  1895.86,1078.95 1900.83,1066.69 1905.8,1054.6 1910.76,1042.27 1915.73,1029.58 1920.7,1016.65 1925.66,1003.88 1930.63,992.396 1935.59,981.764 1940.56,970.503 
  1945.53,957.693 1950.49,942.978 1955.46,926.56 1960.43,909.202 1965.39,892 1970.36,874.552 1975.32,857.053 1980.29,839.805 1985.26,822.926 1990.22,806.346 
  1995.19,789.813 2000.16,772.903 2005.12,756.607 2010.09,741.355 2015.05,726.591 2020.02,711.888 2024.99,696.942 2029.95,681.577 2034.92,665.741 2039.88,649.508 
  2044.85,633.15 2049.82,617.764 2054.78,603.057 2059.75,588.537 2064.72,574.037 2069.68,558.462 2074.65,538.211 2079.61,526.428 2084.58,530.621 2089.55,548.556 
  2094.51,568.43 2099.48,584.19 2104.45,597.405 2109.41,607.537 2114.38,615.163 2119.34,621.808 2124.31,627.898 2129.28,633.422 2134.24,638.471 2139.21,643.127 
  2144.18,647.47 2149.14,651.552 2154.11,654.907 2159.07,657.686 2164.04,660.261 2169.01,662.849 2173.97,665.504 2178.94,670.121 2183.9,679.966 2188.87,690.813 
  2193.84,699.947 2198.8,706.72 2203.77,712.551 2208.74,718.958 2213.7,723.78 2218.67,725.795 2223.63,725.747 2228.6,725.556 2233.57,725.243 2238.53,724.795 
  2243.5,724.24 2248.47,723.6 2253.43,722.671 2258.4,700.963 2263.36,663.106 2268.33,626.195 2273.3,596.414 2278.26,572.403 2283.23,546.728 2288.2,514.801 
  2293.16,497.765 
  "/>
<path clip-path="url(#clip190)" d="
M1732.86 324.425 L2282.57 324.425 L2282.57 168.905 L1732.86 168.905  Z
  " fill="#ffffff" fill-rule="evenodd" fill-opacity="1"/>
<polyline clip-path="url(#clip190)" style="stroke:#000000; stroke-linecap:butt; stroke-linejoin:round; stroke-width:4; stroke-opacity:1; fill:none" points="
  1732.86,324.425 2282.57,324.425 2282.57,168.905 1732.86,168.905 1732.86,324.425 
  "/>
<polyline clip-path="url(#clip190)" style="stroke:#009af9; stroke-linecap:butt; stroke-linejoin:round; stroke-width:4; stroke-opacity:1; fill:none" points="
  1756.26,220.745 1896.64,220.745 
  "/>
<path clip-path="url(#clip190)" d="M1942.28 204.599 L1942.28 209.159 Q1939.62 207.886 1937.26 207.261 Q1934.9 206.636 1932.7 206.636 Q1928.88 206.636 1926.79 208.117 Q1924.73 209.599 1924.73 212.33 Q1924.73 214.622 1926.1 215.803 Q1927.49 216.96 1931.33 217.678 L1934.16 218.256 Q1939.39 219.252 1941.86 221.775 Q1944.36 224.275 1944.36 228.488 Q1944.36 233.511 1940.98 236.103 Q1937.63 238.696 1931.12 238.696 Q1928.67 238.696 1925.89 238.14 Q1923.14 237.585 1920.17 236.497 L1920.17 231.682 Q1923.02 233.279 1925.75 234.089 Q1928.48 234.9 1931.12 234.9 Q1935.13 234.9 1937.3 233.326 Q1939.48 231.752 1939.48 228.835 Q1939.48 226.289 1937.91 224.853 Q1936.35 223.418 1932.79 222.701 L1929.94 222.145 Q1924.71 221.103 1922.37 218.881 Q1920.04 216.659 1920.04 212.701 Q1920.04 208.117 1923.25 205.479 Q1926.49 202.84 1932.16 202.84 Q1934.6 202.84 1937.12 203.279 Q1939.64 203.719 1942.28 204.599 Z" fill="#000000" fill-rule="evenodd" fill-opacity="1" /><path clip-path="url(#clip190)" d="M1963.25 224.992 Q1958.09 224.992 1956.1 226.173 Q1954.11 227.353 1954.11 230.201 Q1954.11 232.469 1955.59 233.812 Q1957.1 235.131 1959.66 235.131 Q1963.21 235.131 1965.34 232.631 Q1967.49 230.108 1967.49 225.941 L1967.49 224.992 L1963.25 224.992 M1971.75 223.233 L1971.75 238.025 L1967.49 238.025 L1967.49 234.089 Q1966.03 236.451 1963.85 237.585 Q1961.68 238.696 1958.53 238.696 Q1954.55 238.696 1952.19 236.474 Q1949.85 234.228 1949.85 230.478 Q1949.85 226.103 1952.77 223.881 Q1955.71 221.659 1961.52 221.659 L1967.49 221.659 L1967.49 221.242 Q1967.49 218.303 1965.54 216.705 Q1963.62 215.085 1960.13 215.085 Q1957.91 215.085 1955.8 215.617 Q1953.69 216.15 1951.75 217.215 L1951.75 213.279 Q1954.09 212.377 1956.28 211.937 Q1958.48 211.474 1960.57 211.474 Q1966.19 211.474 1968.97 214.391 Q1971.75 217.307 1971.75 223.233 Z" fill="#000000" fill-rule="evenodd" fill-opacity="1" /><path clip-path="url(#clip190)" d="M2002.07 222.377 L2002.07 238.025 L1997.81 238.025 L1997.81 222.515 Q1997.81 218.835 1996.38 217.006 Q1994.94 215.178 1992.07 215.178 Q1988.62 215.178 1986.63 217.377 Q1984.64 219.576 1984.64 223.372 L1984.64 238.025 L1980.36 238.025 L1980.36 212.099 L1984.64 212.099 L1984.64 216.127 Q1986.17 213.789 1988.23 212.631 Q1990.31 211.474 1993.02 211.474 Q1997.49 211.474 1999.78 214.252 Q2002.07 217.006 2002.07 222.377 Z" fill="#000000" fill-rule="evenodd" fill-opacity="1" /><path clip-path="url(#clip190)" d="M2030.5 221.52 L2030.5 234.182 L2038 234.182 Q2041.77 234.182 2043.58 232.631 Q2045.4 231.057 2045.4 227.84 Q2045.4 224.599 2043.58 223.071 Q2041.77 221.52 2038 221.52 L2030.5 221.52 M2030.5 207.307 L2030.5 217.724 L2037.42 217.724 Q2040.84 217.724 2042.51 216.451 Q2044.2 215.154 2044.2 212.516 Q2044.2 209.9 2042.51 208.604 Q2040.84 207.307 2037.42 207.307 L2030.5 207.307 M2025.82 203.465 L2037.77 203.465 Q2043.11 203.465 2046.01 205.687 Q2048.9 207.909 2048.9 212.006 Q2048.9 215.178 2047.42 217.053 Q2045.94 218.928 2043.07 219.39 Q2046.52 220.131 2048.41 222.492 Q2050.34 224.83 2050.34 228.349 Q2050.34 232.978 2047.19 235.502 Q2044.04 238.025 2038.23 238.025 L2025.82 238.025 L2025.82 203.465 Z" fill="#000000" fill-rule="evenodd" fill-opacity="1" /><path clip-path="url(#clip190)" d="M2080.34 223.997 L2080.34 226.08 L2060.75 226.08 Q2061.03 230.478 2063.39 232.793 Q2065.78 235.085 2070.01 235.085 Q2072.46 235.085 2074.76 234.483 Q2077.07 233.881 2079.34 232.677 L2079.34 236.705 Q2077.05 237.677 2074.64 238.187 Q2072.23 238.696 2069.76 238.696 Q2063.55 238.696 2059.92 235.085 Q2056.31 231.474 2056.31 225.316 Q2056.31 218.951 2059.73 215.224 Q2063.18 211.474 2069.02 211.474 Q2074.25 211.474 2077.28 214.853 Q2080.34 218.21 2080.34 223.997 M2076.08 222.747 Q2076.03 219.252 2074.11 217.168 Q2072.21 215.085 2069.06 215.085 Q2065.5 215.085 2063.34 217.099 Q2061.21 219.113 2060.89 222.77 L2076.08 222.747 Z" fill="#000000" fill-rule="evenodd" fill-opacity="1" /><path clip-path="url(#clip190)" d="M2102.35 216.08 Q2101.63 215.664 2100.77 215.478 Q2099.94 215.27 2098.92 215.27 Q2095.31 215.27 2093.37 217.631 Q2091.45 219.969 2091.45 224.367 L2091.45 238.025 L2087.16 238.025 L2087.16 212.099 L2091.45 212.099 L2091.45 216.127 Q2092.79 213.766 2094.94 212.631 Q2097.09 211.474 2100.17 211.474 Q2100.61 211.474 2101.15 211.543 Q2101.68 211.59 2102.33 211.705 L2102.35 216.08 Z" fill="#000000" fill-rule="evenodd" fill-opacity="1" /><path clip-path="url(#clip190)" d="M2127.53 222.377 L2127.53 238.025 L2123.27 238.025 L2123.27 222.515 Q2123.27 218.835 2121.84 217.006 Q2120.4 215.178 2117.53 215.178 Q2114.08 215.178 2112.09 217.377 Q2110.1 219.576 2110.1 223.372 L2110.1 238.025 L2105.82 238.025 L2105.82 212.099 L2110.1 212.099 L2110.1 216.127 Q2111.63 213.789 2113.69 212.631 Q2115.77 211.474 2118.48 211.474 Q2122.95 211.474 2125.24 214.252 Q2127.53 217.006 2127.53 222.377 Z" fill="#000000" fill-rule="evenodd" fill-opacity="1" /><path clip-path="url(#clip190)" d="M2147.81 224.992 Q2142.65 224.992 2140.66 226.173 Q2138.67 227.353 2138.67 230.201 Q2138.67 232.469 2140.15 233.812 Q2141.65 235.131 2144.22 235.131 Q2147.77 235.131 2149.89 232.631 Q2152.05 230.108 2152.05 225.941 L2152.05 224.992 L2147.81 224.992 M2156.31 223.233 L2156.31 238.025 L2152.05 238.025 L2152.05 234.089 Q2150.59 236.451 2148.41 237.585 Q2146.24 238.696 2143.09 238.696 Q2139.11 238.696 2136.75 236.474 Q2134.41 234.228 2134.41 230.478 Q2134.41 226.103 2137.33 223.881 Q2140.27 221.659 2146.08 221.659 L2152.05 221.659 L2152.05 221.242 Q2152.05 218.303 2150.1 216.705 Q2148.18 215.085 2144.69 215.085 Q2142.46 215.085 2140.36 215.617 Q2138.25 216.15 2136.31 217.215 L2136.31 213.279 Q2138.65 212.377 2140.84 211.937 Q2143.04 211.474 2145.13 211.474 Q2150.75 211.474 2153.53 214.391 Q2156.31 217.307 2156.31 223.233 Z" fill="#000000" fill-rule="evenodd" fill-opacity="1" /><path clip-path="url(#clip190)" d="M2180.1 216.08 Q2179.39 215.664 2178.53 215.478 Q2177.7 215.27 2176.68 215.27 Q2173.07 215.27 2171.12 217.631 Q2169.2 219.969 2169.2 224.367 L2169.2 238.025 L2164.92 238.025 L2164.92 212.099 L2169.2 212.099 L2169.2 216.127 Q2170.54 213.766 2172.7 212.631 Q2174.85 211.474 2177.93 211.474 Q2178.37 211.474 2178.9 211.543 Q2179.43 211.59 2180.08 211.705 L2180.1 216.08 Z" fill="#000000" fill-rule="evenodd" fill-opacity="1" /><path clip-path="url(#clip190)" d="M2200.8 216.034 L2200.8 202.006 L2205.06 202.006 L2205.06 238.025 L2200.8 238.025 L2200.8 234.136 Q2199.45 236.451 2197.39 237.585 Q2195.36 238.696 2192.49 238.696 Q2187.79 238.696 2184.83 234.946 Q2181.89 231.196 2181.89 225.085 Q2181.89 218.974 2184.83 215.224 Q2187.79 211.474 2192.49 211.474 Q2195.36 211.474 2197.39 212.608 Q2199.45 213.719 2200.8 216.034 M2186.28 225.085 Q2186.28 229.784 2188.2 232.469 Q2190.15 235.131 2193.53 235.131 Q2196.91 235.131 2198.85 232.469 Q2200.8 229.784 2200.8 225.085 Q2200.8 220.386 2198.85 217.724 Q2196.91 215.039 2193.53 215.039 Q2190.15 215.039 2188.2 217.724 Q2186.28 220.386 2186.28 225.085 Z" fill="#000000" fill-rule="evenodd" fill-opacity="1" /><path clip-path="url(#clip190)" d="M2223.88 215.085 Q2220.45 215.085 2218.46 217.77 Q2216.47 220.432 2216.47 225.085 Q2216.47 229.738 2218.44 232.423 Q2220.43 235.085 2223.88 235.085 Q2227.28 235.085 2229.27 232.4 Q2231.26 229.715 2231.26 225.085 Q2231.26 220.478 2229.27 217.793 Q2227.28 215.085 2223.88 215.085 M2223.88 211.474 Q2229.43 211.474 2232.6 215.085 Q2235.77 218.696 2235.77 225.085 Q2235.77 231.451 2232.6 235.085 Q2229.43 238.696 2223.88 238.696 Q2218.3 238.696 2215.13 235.085 Q2211.98 231.451 2211.98 225.085 Q2211.98 218.696 2215.13 215.085 Q2218.3 211.474 2223.88 211.474 Z" fill="#000000" fill-rule="evenodd" fill-opacity="1" /><polyline clip-path="url(#clip190)" style="stroke:#e26f46; stroke-linecap:butt; stroke-linejoin:round; stroke-width:4; stroke-opacity:1; fill:none" points="
  1756.26,272.585 1896.64,272.585 
  "/>
<path clip-path="url(#clip190)" d="M1920.04 255.305 L1924.71 255.305 L1924.71 285.929 L1941.54 285.929 L1941.54 289.865 L1920.04 289.865 L1920.04 255.305 Z" fill="#000000" fill-rule="evenodd" fill-opacity="1" /><path clip-path="url(#clip190)" d="M1958.04 276.832 Q1952.88 276.832 1950.89 278.013 Q1948.9 279.193 1948.9 282.041 Q1948.9 284.309 1950.38 285.652 Q1951.89 286.971 1954.46 286.971 Q1958 286.971 1960.13 284.471 Q1962.28 281.948 1962.28 277.781 L1962.28 276.832 L1958.04 276.832 M1966.54 275.073 L1966.54 289.865 L1962.28 289.865 L1962.28 285.929 Q1960.82 288.291 1958.65 289.425 Q1956.47 290.536 1953.32 290.536 Q1949.34 290.536 1946.98 288.314 Q1944.64 286.068 1944.64 282.318 Q1944.64 277.943 1947.56 275.721 Q1950.5 273.499 1956.31 273.499 L1962.28 273.499 L1962.28 273.082 Q1962.28 270.143 1960.34 268.545 Q1958.41 266.925 1954.92 266.925 Q1952.7 266.925 1950.59 267.457 Q1948.48 267.99 1946.54 269.055 L1946.54 265.119 Q1948.88 264.217 1951.08 263.777 Q1953.28 263.314 1955.36 263.314 Q1960.98 263.314 1963.76 266.231 Q1966.54 269.147 1966.54 275.073 Z" fill="#000000" fill-rule="evenodd" fill-opacity="1" /><path clip-path="url(#clip190)" d="M1991.84 264.703 L1991.84 268.731 Q1990.03 267.805 1988.09 267.342 Q1986.15 266.879 1984.06 266.879 Q1980.89 266.879 1979.29 267.851 Q1977.72 268.823 1977.72 270.768 Q1977.72 272.249 1978.85 273.105 Q1979.99 273.939 1983.41 274.703 L1984.87 275.027 Q1989.41 275.999 1991.31 277.781 Q1993.23 279.541 1993.23 282.712 Q1993.23 286.323 1990.36 288.429 Q1987.51 290.536 1982.51 290.536 Q1980.43 290.536 1978.16 290.119 Q1975.91 289.726 1973.41 288.916 L1973.41 284.517 Q1975.78 285.744 1978.07 286.369 Q1980.36 286.971 1982.6 286.971 Q1985.61 286.971 1987.23 285.953 Q1988.85 284.911 1988.85 283.036 Q1988.85 281.3 1987.67 280.374 Q1986.52 279.448 1982.56 278.592 L1981.08 278.244 Q1977.12 277.411 1975.36 275.698 Q1973.6 273.962 1973.6 270.953 Q1973.6 267.295 1976.19 265.305 Q1978.78 263.314 1983.55 263.314 Q1985.91 263.314 1988 263.661 Q1990.08 264.008 1991.84 264.703 Z" fill="#000000" fill-rule="evenodd" fill-opacity="1" /><path clip-path="url(#clip190)" d="M2041.15 257.967 L2041.15 262.897 Q2038.78 260.698 2036.1 259.61 Q2033.44 258.522 2030.43 258.522 Q2024.5 258.522 2021.35 262.156 Q2018.21 265.768 2018.21 272.619 Q2018.21 279.448 2021.35 283.082 Q2024.5 286.693 2030.43 286.693 Q2033.44 286.693 2036.1 285.605 Q2038.78 284.517 2041.15 282.318 L2041.15 287.203 Q2038.69 288.869 2035.94 289.703 Q2033.21 290.536 2030.15 290.536 Q2022.3 290.536 2017.79 285.744 Q2013.28 280.93 2013.28 272.619 Q2013.28 264.286 2017.79 259.494 Q2022.3 254.68 2030.15 254.68 Q2033.25 254.68 2035.98 255.513 Q2038.74 256.323 2041.15 257.967 Z" fill="#000000" fill-rule="evenodd" fill-opacity="1" /><path clip-path="url(#clip190)" d="M2058.23 266.925 Q2054.8 266.925 2052.81 269.61 Q2050.82 272.272 2050.82 276.925 Q2050.82 281.578 2052.79 284.263 Q2054.78 286.925 2058.23 286.925 Q2061.63 286.925 2063.62 284.24 Q2065.61 281.555 2065.61 276.925 Q2065.61 272.318 2063.62 269.633 Q2061.63 266.925 2058.23 266.925 M2058.23 263.314 Q2063.78 263.314 2066.96 266.925 Q2070.13 270.536 2070.13 276.925 Q2070.13 283.291 2066.96 286.925 Q2063.78 290.536 2058.23 290.536 Q2052.65 290.536 2049.48 286.925 Q2046.33 283.291 2046.33 276.925 Q2046.33 270.536 2049.48 266.925 Q2052.65 263.314 2058.23 263.314 Z" fill="#000000" fill-rule="evenodd" fill-opacity="1" /><path clip-path="url(#clip190)" d="M2098.74 274.217 L2098.74 289.865 L2094.48 289.865 L2094.48 274.355 Q2094.48 270.675 2093.04 268.846 Q2091.61 267.018 2088.74 267.018 Q2085.29 267.018 2083.3 269.217 Q2081.31 271.416 2081.31 275.212 L2081.31 289.865 L2077.02 289.865 L2077.02 263.939 L2081.31 263.939 L2081.31 267.967 Q2082.84 265.629 2084.9 264.471 Q2086.98 263.314 2089.69 263.314 Q2094.15 263.314 2096.45 266.092 Q2098.74 268.846 2098.74 274.217 Z" fill="#000000" fill-rule="evenodd" fill-opacity="1" /><path clip-path="url(#clip190)" d="M2124.29 267.874 L2124.29 253.846 L2128.55 253.846 L2128.55 289.865 L2124.29 289.865 L2124.29 285.976 Q2122.95 288.291 2120.89 289.425 Q2118.85 290.536 2115.98 290.536 Q2111.28 290.536 2108.32 286.786 Q2105.38 283.036 2105.38 276.925 Q2105.38 270.814 2108.32 267.064 Q2111.28 263.314 2115.98 263.314 Q2118.85 263.314 2120.89 264.448 Q2122.95 265.559 2124.29 267.874 M2109.78 276.925 Q2109.78 281.624 2111.7 284.309 Q2113.65 286.971 2117.02 286.971 Q2120.4 286.971 2122.35 284.309 Q2124.29 281.624 2124.29 276.925 Q2124.29 272.226 2122.35 269.564 Q2120.4 266.879 2117.02 266.879 Q2113.65 266.879 2111.7 269.564 Q2109.78 272.226 2109.78 276.925 Z" fill="#000000" fill-rule="evenodd" fill-opacity="1" /><path clip-path="url(#clip190)" d="M2159.5 275.837 L2159.5 277.92 L2139.92 277.92 Q2140.2 282.318 2142.56 284.633 Q2144.94 286.925 2149.18 286.925 Q2151.63 286.925 2153.92 286.323 Q2156.24 285.721 2158.51 284.517 L2158.51 288.545 Q2156.21 289.517 2153.81 290.027 Q2151.4 290.536 2148.92 290.536 Q2142.72 290.536 2139.08 286.925 Q2135.47 283.314 2135.47 277.156 Q2135.47 270.791 2138.9 267.064 Q2142.35 263.314 2148.18 263.314 Q2153.41 263.314 2156.45 266.693 Q2159.5 270.05 2159.5 275.837 M2155.24 274.587 Q2155.2 271.092 2153.27 269.008 Q2151.38 266.925 2148.23 266.925 Q2144.66 266.925 2142.51 268.939 Q2140.38 270.953 2140.06 274.61 L2155.24 274.587 Z" fill="#000000" fill-rule="evenodd" fill-opacity="1" /><path clip-path="url(#clip190)" d="M2183.02 264.703 L2183.02 268.731 Q2181.21 267.805 2179.27 267.342 Q2177.33 266.879 2175.24 266.879 Q2172.07 266.879 2170.47 267.851 Q2168.9 268.823 2168.9 270.768 Q2168.9 272.249 2170.03 273.105 Q2171.17 273.939 2174.59 274.703 L2176.05 275.027 Q2180.59 275.999 2182.49 277.781 Q2184.41 279.541 2184.41 282.712 Q2184.41 286.323 2181.54 288.429 Q2178.69 290.536 2173.69 290.536 Q2171.61 290.536 2169.34 290.119 Q2167.09 289.726 2164.59 288.916 L2164.59 284.517 Q2166.96 285.744 2169.25 286.369 Q2171.54 286.971 2173.78 286.971 Q2176.79 286.971 2178.41 285.953 Q2180.03 284.911 2180.03 283.036 Q2180.03 281.3 2178.85 280.374 Q2177.7 279.448 2173.74 278.592 L2172.26 278.244 Q2168.3 277.411 2166.54 275.698 Q2164.78 273.962 2164.78 270.953 Q2164.78 267.295 2167.37 265.305 Q2169.96 263.314 2174.73 263.314 Q2177.09 263.314 2179.18 263.661 Q2181.26 264.008 2183.02 264.703 Z" fill="#000000" fill-rule="evenodd" fill-opacity="1" /></svg>
