<?xml version="1.0" encoding="utf-8"?>
<svg xmlns="http://www.w3.org/2000/svg" xmlns:xlink="http://www.w3.org/1999/xlink" width="600" height="400" viewBox="0 0 2400 1600">
<defs>
  <clipPath id="clip980">
    <rect x="0" y="0" width="2400" height="1600"/>
  </clipPath>
</defs>
<path clip-path="url(#clip980)" d="
M0 1600 L2400 1600 L2400 0 L0 0  Z
  " fill="#ffffff" fill-rule="evenodd" fill-opacity="1"/>
<defs>
  <clipPath id="clip981">
    <rect x="480" y="0" width="1681" height="1600"/>
  </clipPath>
</defs>
<path clip-path="url(#clip980)" d="
M247.084 1486.45 L2352.76 1486.45 L2352.76 123.472 L247.084 123.472  Z
  " fill="#ffffff" fill-rule="evenodd" fill-opacity="1"/>
<defs>
  <clipPath id="clip982">
    <rect x="247" y="123" width="2107" height="1364"/>
  </clipPath>
</defs>
<polyline clip-path="url(#clip982)" style="stroke:#000000; stroke-linecap:butt; stroke-linejoin:round; stroke-width:2; stroke-opacity:0.1; fill:none" points="
  301.712,1486.45 301.712,123.472 
  "/>
<polyline clip-path="url(#clip982)" style="stroke:#000000; stroke-linecap:butt; stroke-linejoin:round; stroke-width:2; stroke-opacity:0.1; fill:none" points="
  798.333,1486.45 798.333,123.472 
  "/>
<polyline clip-path="url(#clip982)" style="stroke:#000000; stroke-linecap:butt; stroke-linejoin:round; stroke-width:2; stroke-opacity:0.1; fill:none" points="
  1294.95,1486.45 1294.95,123.472 
  "/>
<polyline clip-path="url(#clip982)" style="stroke:#000000; stroke-linecap:butt; stroke-linejoin:round; stroke-width:2; stroke-opacity:0.1; fill:none" points="
  1791.57,1486.45 1791.57,123.472 
  "/>
<polyline clip-path="url(#clip982)" style="stroke:#000000; stroke-linecap:butt; stroke-linejoin:round; stroke-width:2; stroke-opacity:0.1; fill:none" points="
  2288.2,1486.45 2288.2,123.472 
  "/>
<polyline clip-path="url(#clip980)" style="stroke:#000000; stroke-linecap:butt; stroke-linejoin:round; stroke-width:4; stroke-opacity:1; fill:none" points="
  247.084,1486.45 2352.76,1486.45 
  "/>
<polyline clip-path="url(#clip980)" style="stroke:#000000; stroke-linecap:butt; stroke-linejoin:round; stroke-width:4; stroke-opacity:1; fill:none" points="
  301.712,1486.45 301.712,1467.55 
  "/>
<polyline clip-path="url(#clip980)" style="stroke:#000000; stroke-linecap:butt; stroke-linejoin:round; stroke-width:4; stroke-opacity:1; fill:none" points="
  798.333,1486.45 798.333,1467.55 
  "/>
<polyline clip-path="url(#clip980)" style="stroke:#000000; stroke-linecap:butt; stroke-linejoin:round; stroke-width:4; stroke-opacity:1; fill:none" points="
  1294.95,1486.45 1294.95,1467.55 
  "/>
<polyline clip-path="url(#clip980)" style="stroke:#000000; stroke-linecap:butt; stroke-linejoin:round; stroke-width:4; stroke-opacity:1; fill:none" points="
  1791.57,1486.45 1791.57,1467.55 
  "/>
<polyline clip-path="url(#clip980)" style="stroke:#000000; stroke-linecap:butt; stroke-linejoin:round; stroke-width:4; stroke-opacity:1; fill:none" points="
  2288.2,1486.45 2288.2,1467.55 
  "/>
<path clip-path="url(#clip980)" d="M301.712 1515.64 Q298.101 1515.64 296.272 1519.2 Q294.467 1522.75 294.467 1529.87 Q294.467 1536.98 296.272 1540.55 Q298.101 1544.09 301.712 1544.09 Q305.346 1544.09 307.152 1540.55 Q308.981 1536.98 308.981 1529.87 Q308.981 1522.75 307.152 1519.2 Q305.346 1515.64 301.712 1515.64 M301.712 1511.93 Q307.522 1511.93 310.578 1516.54 Q313.657 1521.12 313.657 1529.87 Q313.657 1538.6 310.578 1543.21 Q307.522 1547.79 301.712 1547.79 Q295.902 1547.79 292.823 1543.21 Q289.768 1538.6 289.768 1529.87 Q289.768 1521.12 292.823 1516.54 Q295.902 1511.93 301.712 1511.93 Z" fill="#000000" fill-rule="evenodd" fill-opacity="1" /><path clip-path="url(#clip980)" d="M757.94 1543.18 L765.578 1543.18 L765.578 1516.82 L757.268 1518.49 L757.268 1514.23 L765.532 1512.56 L770.208 1512.56 L770.208 1543.18 L777.847 1543.18 L777.847 1547.12 L757.94 1547.12 L757.94 1543.18 Z" fill="#000000" fill-rule="evenodd" fill-opacity="1" /><path clip-path="url(#clip980)" d="M797.291 1515.64 Q793.68 1515.64 791.851 1519.2 Q790.046 1522.75 790.046 1529.87 Q790.046 1536.98 791.851 1540.55 Q793.68 1544.09 797.291 1544.09 Q800.925 1544.09 802.731 1540.55 Q804.56 1536.98 804.56 1529.87 Q804.56 1522.75 802.731 1519.2 Q800.925 1515.64 797.291 1515.64 M797.291 1511.93 Q803.101 1511.93 806.157 1516.54 Q809.236 1521.12 809.236 1529.87 Q809.236 1538.6 806.157 1543.21 Q803.101 1547.79 797.291 1547.79 Q791.481 1547.79 788.402 1543.21 Q785.347 1538.6 785.347 1529.87 Q785.347 1521.12 788.402 1516.54 Q791.481 1511.93 797.291 1511.93 Z" fill="#000000" fill-rule="evenodd" fill-opacity="1" /><path clip-path="url(#clip980)" d="M827.453 1515.64 Q823.842 1515.64 822.013 1519.2 Q820.208 1522.75 820.208 1529.87 Q820.208 1536.98 822.013 1540.55 Q823.842 1544.09 827.453 1544.09 Q831.087 1544.09 832.893 1540.55 Q834.722 1536.98 834.722 1529.87 Q834.722 1522.75 832.893 1519.2 Q831.087 1515.64 827.453 1515.64 M827.453 1511.93 Q833.263 1511.93 836.319 1516.54 Q839.398 1521.12 839.398 1529.87 Q839.398 1538.6 836.319 1543.21 Q833.263 1547.79 827.453 1547.79 Q821.643 1547.79 818.564 1543.21 Q815.509 1538.6 815.509 1529.87 Q815.509 1521.12 818.564 1516.54 Q821.643 1511.93 827.453 1511.93 Z" fill="#000000" fill-rule="evenodd" fill-opacity="1" /><path clip-path="url(#clip980)" d="M1258.65 1543.18 L1274.97 1543.18 L1274.97 1547.12 L1253.02 1547.12 L1253.02 1543.18 Q1255.68 1540.43 1260.27 1535.8 Q1264.87 1531.15 1266.05 1529.81 Q1268.3 1527.28 1269.18 1525.55 Q1270.08 1523.79 1270.08 1522.1 Q1270.08 1519.34 1268.14 1517.61 Q1266.22 1515.87 1263.11 1515.87 Q1260.91 1515.87 1258.46 1516.63 Q1256.03 1517.4 1253.25 1518.95 L1253.25 1514.23 Q1256.08 1513.09 1258.53 1512.51 Q1260.98 1511.93 1263.02 1511.93 Q1268.39 1511.93 1271.59 1514.62 Q1274.78 1517.31 1274.78 1521.8 Q1274.78 1523.93 1273.97 1525.85 Q1273.18 1527.74 1271.08 1530.34 Q1270.5 1531.01 1267.4 1534.23 Q1264.29 1537.42 1258.65 1543.18 Z" fill="#000000" fill-rule="evenodd" fill-opacity="1" /><path clip-path="url(#clip980)" d="M1294.78 1515.64 Q1291.17 1515.64 1289.34 1519.2 Q1287.53 1522.75 1287.53 1529.87 Q1287.53 1536.98 1289.34 1540.55 Q1291.17 1544.09 1294.78 1544.09 Q1298.41 1544.09 1300.22 1540.55 Q1302.05 1536.98 1302.05 1529.87 Q1302.05 1522.75 1300.22 1519.2 Q1298.41 1515.64 1294.78 1515.64 M1294.78 1511.93 Q1300.59 1511.93 1303.65 1516.54 Q1306.72 1521.12 1306.72 1529.87 Q1306.72 1538.6 1303.65 1543.21 Q1300.59 1547.79 1294.78 1547.79 Q1288.97 1547.79 1285.89 1543.21 Q1282.84 1538.6 1282.84 1529.87 Q1282.84 1521.12 1285.89 1516.54 Q1288.97 1511.93 1294.78 1511.93 Z" fill="#000000" fill-rule="evenodd" fill-opacity="1" /><path clip-path="url(#clip980)" d="M1324.94 1515.64 Q1321.33 1515.64 1319.5 1519.2 Q1317.7 1522.75 1317.7 1529.87 Q1317.7 1536.98 1319.5 1540.55 Q1321.33 1544.09 1324.94 1544.09 Q1328.58 1544.09 1330.38 1540.55 Q1332.21 1536.98 1332.21 1529.87 Q1332.21 1522.75 1330.38 1519.2 Q1328.58 1515.64 1324.94 1515.64 M1324.94 1511.93 Q1330.75 1511.93 1333.81 1516.54 Q1336.89 1521.12 1336.89 1529.87 Q1336.89 1538.6 1333.81 1543.21 Q1330.75 1547.79 1324.94 1547.79 Q1319.13 1547.79 1316.05 1543.21 Q1313 1538.6 1313 1529.87 Q1313 1521.12 1316.05 1516.54 Q1319.13 1511.93 1324.94 1511.93 Z" fill="#000000" fill-rule="evenodd" fill-opacity="1" /><path clip-path="url(#clip980)" d="M1765.34 1528.49 Q1768.69 1529.2 1770.57 1531.47 Q1772.47 1533.74 1772.47 1537.07 Q1772.47 1542.19 1768.95 1544.99 Q1765.43 1547.79 1758.95 1547.79 Q1756.77 1547.79 1754.46 1547.35 Q1752.16 1546.93 1749.71 1546.08 L1749.71 1541.56 Q1751.66 1542.7 1753.97 1543.28 Q1756.29 1543.86 1758.81 1543.86 Q1763.21 1543.86 1765.5 1542.12 Q1767.81 1540.38 1767.81 1537.07 Q1767.81 1534.02 1765.66 1532.31 Q1763.53 1530.57 1759.71 1530.57 L1755.68 1530.57 L1755.68 1526.73 L1759.9 1526.73 Q1763.35 1526.73 1765.17 1525.36 Q1767 1523.97 1767 1521.38 Q1767 1518.72 1765.1 1517.31 Q1763.23 1515.87 1759.71 1515.87 Q1757.79 1515.87 1755.59 1516.29 Q1753.39 1516.7 1750.75 1517.58 L1750.75 1513.42 Q1753.41 1512.68 1755.73 1512.31 Q1758.07 1511.93 1760.13 1511.93 Q1765.45 1511.93 1768.55 1514.37 Q1771.66 1516.77 1771.66 1520.89 Q1771.66 1523.76 1770.01 1525.75 Q1768.37 1527.72 1765.34 1528.49 Z" fill="#000000" fill-rule="evenodd" fill-opacity="1" /><path clip-path="url(#clip980)" d="M1791.33 1515.64 Q1787.72 1515.64 1785.89 1519.2 Q1784.09 1522.75 1784.09 1529.87 Q1784.09 1536.98 1785.89 1540.55 Q1787.72 1544.09 1791.33 1544.09 Q1794.97 1544.09 1796.77 1540.55 Q1798.6 1536.98 1798.6 1529.87 Q1798.6 1522.75 1796.77 1519.2 Q1794.97 1515.64 1791.33 1515.64 M1791.33 1511.93 Q1797.14 1511.93 1800.2 1516.54 Q1803.28 1521.12 1803.28 1529.87 Q1803.28 1538.6 1800.2 1543.21 Q1797.14 1547.79 1791.33 1547.79 Q1785.52 1547.79 1782.44 1543.21 Q1779.39 1538.6 1779.39 1529.87 Q1779.39 1521.12 1782.44 1516.54 Q1785.52 1511.93 1791.33 1511.93 Z" fill="#000000" fill-rule="evenodd" fill-opacity="1" /><path clip-path="url(#clip980)" d="M1821.49 1515.64 Q1817.88 1515.64 1816.05 1519.2 Q1814.25 1522.75 1814.25 1529.87 Q1814.25 1536.98 1816.05 1540.55 Q1817.88 1544.09 1821.49 1544.09 Q1825.13 1544.09 1826.93 1540.55 Q1828.76 1536.98 1828.76 1529.87 Q1828.76 1522.75 1826.93 1519.2 Q1825.13 1515.64 1821.49 1515.64 M1821.49 1511.93 Q1827.3 1511.93 1830.36 1516.54 Q1833.44 1521.12 1833.44 1529.87 Q1833.44 1538.6 1830.36 1543.21 Q1827.3 1547.79 1821.49 1547.79 Q1815.68 1547.79 1812.6 1543.21 Q1809.55 1538.6 1809.55 1529.87 Q1809.55 1521.12 1812.6 1516.54 Q1815.68 1511.93 1821.49 1511.93 Z" fill="#000000" fill-rule="evenodd" fill-opacity="1" /><path clip-path="url(#clip980)" d="M2261.29 1516.63 L2249.48 1535.08 L2261.29 1535.08 L2261.29 1516.63 M2260.06 1512.56 L2265.94 1512.56 L2265.94 1535.08 L2270.87 1535.08 L2270.87 1538.97 L2265.94 1538.97 L2265.94 1547.12 L2261.29 1547.12 L2261.29 1538.97 L2245.68 1538.97 L2245.68 1534.46 L2260.06 1512.56 Z" fill="#000000" fill-rule="evenodd" fill-opacity="1" /><path clip-path="url(#clip980)" d="M2288.6 1515.64 Q2284.99 1515.64 2283.16 1519.2 Q2281.35 1522.75 2281.35 1529.87 Q2281.35 1536.98 2283.16 1540.55 Q2284.99 1544.09 2288.6 1544.09 Q2292.23 1544.09 2294.04 1540.55 Q2295.87 1536.98 2295.87 1529.87 Q2295.87 1522.75 2294.04 1519.2 Q2292.23 1515.64 2288.6 1515.64 M2288.6 1511.93 Q2294.41 1511.93 2297.47 1516.54 Q2300.54 1521.12 2300.54 1529.87 Q2300.54 1538.6 2297.47 1543.21 Q2294.41 1547.79 2288.6 1547.79 Q2282.79 1547.79 2279.71 1543.21 Q2276.66 1538.6 2276.66 1529.87 Q2276.66 1521.12 2279.71 1516.54 Q2282.79 1511.93 2288.6 1511.93 Z" fill="#000000" fill-rule="evenodd" fill-opacity="1" /><path clip-path="url(#clip980)" d="M2318.76 1515.64 Q2315.15 1515.64 2313.32 1519.2 Q2311.52 1522.75 2311.52 1529.87 Q2311.52 1536.98 2313.32 1540.55 Q2315.15 1544.09 2318.76 1544.09 Q2322.4 1544.09 2324.2 1540.55 Q2326.03 1536.98 2326.03 1529.87 Q2326.03 1522.75 2324.2 1519.2 Q2322.4 1515.64 2318.76 1515.64 M2318.76 1511.93 Q2324.57 1511.93 2327.63 1516.54 Q2330.71 1521.12 2330.71 1529.87 Q2330.71 1538.6 2327.63 1543.21 Q2324.57 1547.79 2318.76 1547.79 Q2312.95 1547.79 2309.87 1543.21 Q2306.82 1538.6 2306.82 1529.87 Q2306.82 1521.12 2309.87 1516.54 Q2312.95 1511.93 2318.76 1511.93 Z" fill="#000000" fill-rule="evenodd" fill-opacity="1" /><polyline clip-path="url(#clip982)" style="stroke:#000000; stroke-linecap:butt; stroke-linejoin:round; stroke-width:2; stroke-opacity:0.1; fill:none" points="
  247.084,1245.39 2352.76,1245.39 
  "/>
<polyline clip-path="url(#clip982)" style="stroke:#000000; stroke-linecap:butt; stroke-linejoin:round; stroke-width:2; stroke-opacity:0.1; fill:none" points="
  247.084,968.839 2352.76,968.839 
  "/>
<polyline clip-path="url(#clip982)" style="stroke:#000000; stroke-linecap:butt; stroke-linejoin:round; stroke-width:2; stroke-opacity:0.1; fill:none" points="
  247.084,692.293 2352.76,692.293 
  "/>
<polyline clip-path="url(#clip982)" style="stroke:#000000; stroke-linecap:butt; stroke-linejoin:round; stroke-width:2; stroke-opacity:0.1; fill:none" points="
  247.084,415.747 2352.76,415.747 
  "/>
<polyline clip-path="url(#clip982)" style="stroke:#000000; stroke-linecap:butt; stroke-linejoin:round; stroke-width:2; stroke-opacity:0.1; fill:none" points="
  247.084,139.201 2352.76,139.201 
  "/>
<polyline clip-path="url(#clip980)" style="stroke:#000000; stroke-linecap:butt; stroke-linejoin:round; stroke-width:4; stroke-opacity:1; fill:none" points="
  247.084,1486.45 247.084,123.472 
  "/>
<polyline clip-path="url(#clip980)" style="stroke:#000000; stroke-linecap:butt; stroke-linejoin:round; stroke-width:4; stroke-opacity:1; fill:none" points="
  247.084,1245.39 265.981,1245.39 
  "/>
<polyline clip-path="url(#clip980)" style="stroke:#000000; stroke-linecap:butt; stroke-linejoin:round; stroke-width:4; stroke-opacity:1; fill:none" points="
  247.084,968.839 265.981,968.839 
  "/>
<polyline clip-path="url(#clip980)" style="stroke:#000000; stroke-linecap:butt; stroke-linejoin:round; stroke-width:4; stroke-opacity:1; fill:none" points="
  247.084,692.293 265.981,692.293 
  "/>
<polyline clip-path="url(#clip980)" style="stroke:#000000; stroke-linecap:butt; stroke-linejoin:round; stroke-width:4; stroke-opacity:1; fill:none" points="
  247.084,415.747 265.981,415.747 
  "/>
<polyline clip-path="url(#clip980)" style="stroke:#000000; stroke-linecap:butt; stroke-linejoin:round; stroke-width:4; stroke-opacity:1; fill:none" points="
  247.084,139.201 265.981,139.201 
  "/>
<path clip-path="url(#clip980)" d="M65.0198 1231.18 Q61.4087 1231.18 59.58 1234.75 Q57.7745 1238.29 57.7745 1245.42 Q57.7745 1252.53 59.58 1256.09 Q61.4087 1259.63 65.0198 1259.63 Q68.6541 1259.63 70.4596 1256.09 Q72.2883 1252.53 72.2883 1245.42 Q72.2883 1238.29 70.4596 1234.75 Q68.6541 1231.18 65.0198 1231.18 M65.0198 1227.48 Q70.83 1227.48 73.8855 1232.09 Q76.9642 1236.67 76.9642 1245.42 Q76.9642 1254.15 73.8855 1258.75 Q70.83 1263.34 65.0198 1263.34 Q59.2097 1263.34 56.131 1258.75 Q53.0754 1254.15 53.0754 1245.42 Q53.0754 1236.67 56.131 1232.09 Q59.2097 1227.48 65.0198 1227.48 Z" fill="#000000" fill-rule="evenodd" fill-opacity="1" /><path clip-path="url(#clip980)" d="M85.1818 1256.79 L90.066 1256.79 L90.066 1262.67 L85.1818 1262.67 L85.1818 1256.79 Z" fill="#000000" fill-rule="evenodd" fill-opacity="1" /><path clip-path="url(#clip980)" d="M110.251 1231.18 Q106.64 1231.18 104.811 1234.75 Q103.006 1238.29 103.006 1245.42 Q103.006 1252.53 104.811 1256.09 Q106.64 1259.63 110.251 1259.63 Q113.885 1259.63 115.691 1256.09 Q117.52 1252.53 117.52 1245.42 Q117.52 1238.29 115.691 1234.75 Q113.885 1231.18 110.251 1231.18 M110.251 1227.48 Q116.061 1227.48 119.117 1232.09 Q122.195 1236.67 122.195 1245.42 Q122.195 1254.15 119.117 1258.75 Q116.061 1263.34 110.251 1263.34 Q104.441 1263.34 101.362 1258.75 Q98.3067 1254.15 98.3067 1245.42 Q98.3067 1236.67 101.362 1232.09 Q104.441 1227.48 110.251 1227.48 Z" fill="#000000" fill-rule="evenodd" fill-opacity="1" /><path clip-path="url(#clip980)" d="M140.413 1231.18 Q136.802 1231.18 134.973 1234.75 Q133.168 1238.29 133.168 1245.42 Q133.168 1252.53 134.973 1256.09 Q136.802 1259.63 140.413 1259.63 Q144.047 1259.63 145.853 1256.09 Q147.681 1252.53 147.681 1245.42 Q147.681 1238.29 145.853 1234.75 Q144.047 1231.18 140.413 1231.18 M140.413 1227.48 Q146.223 1227.48 149.279 1232.09 Q152.357 1236.67 152.357 1245.42 Q152.357 1254.15 149.279 1258.75 Q146.223 1263.34 140.413 1263.34 Q134.603 1263.34 131.524 1258.75 Q128.469 1254.15 128.469 1245.42 Q128.469 1236.67 131.524 1232.09 Q134.603 1227.48 140.413 1227.48 Z" fill="#000000" fill-rule="evenodd" fill-opacity="1" /><path clip-path="url(#clip980)" d="M170.575 1231.18 Q166.964 1231.18 165.135 1234.75 Q163.329 1238.29 163.329 1245.42 Q163.329 1252.53 165.135 1256.09 Q166.964 1259.63 170.575 1259.63 Q174.209 1259.63 176.015 1256.09 Q177.843 1252.53 177.843 1245.42 Q177.843 1238.29 176.015 1234.75 Q174.209 1231.18 170.575 1231.18 M170.575 1227.48 Q176.385 1227.48 179.441 1232.09 Q182.519 1236.67 182.519 1245.42 Q182.519 1254.15 179.441 1258.75 Q176.385 1263.34 170.575 1263.34 Q164.765 1263.34 161.686 1258.75 Q158.63 1254.15 158.63 1245.42 Q158.63 1236.67 161.686 1232.09 Q164.765 1227.48 170.575 1227.48 Z" fill="#000000" fill-rule="evenodd" fill-opacity="1" /><path clip-path="url(#clip980)" d="M194.765 1258.73 L211.084 1258.73 L211.084 1262.67 L189.14 1262.67 L189.14 1258.73 Q191.802 1255.98 196.385 1251.35 Q200.991 1246.69 202.172 1245.35 Q204.417 1242.83 205.297 1241.09 Q206.2 1239.33 206.2 1237.64 Q206.2 1234.89 204.255 1233.15 Q202.334 1231.42 199.232 1231.42 Q197.033 1231.42 194.579 1232.18 Q192.149 1232.94 189.371 1234.49 L189.371 1229.77 Q192.195 1228.64 194.649 1228.06 Q197.102 1227.48 199.139 1227.48 Q204.51 1227.48 207.704 1230.17 Q210.899 1232.85 210.899 1237.34 Q210.899 1239.47 210.088 1241.39 Q209.301 1243.29 207.195 1245.88 Q206.616 1246.55 203.514 1249.77 Q200.413 1252.97 194.765 1258.73 Z" fill="#000000" fill-rule="evenodd" fill-opacity="1" /><path clip-path="url(#clip980)" d="M62.9365 954.638 Q59.3254 954.638 57.4967 958.203 Q55.6912 961.745 55.6912 968.874 Q55.6912 975.981 57.4967 979.545 Q59.3254 983.087 62.9365 983.087 Q66.5707 983.087 68.3763 979.545 Q70.205 975.981 70.205 968.874 Q70.205 961.745 68.3763 958.203 Q66.5707 954.638 62.9365 954.638 M62.9365 950.934 Q68.7467 950.934 71.8022 955.541 Q74.8809 960.124 74.8809 968.874 Q74.8809 977.601 71.8022 982.207 Q68.7467 986.791 62.9365 986.791 Q57.1264 986.791 54.0477 982.207 Q50.9921 977.601 50.9921 968.874 Q50.9921 960.124 54.0477 955.541 Q57.1264 950.934 62.9365 950.934 Z" fill="#000000" fill-rule="evenodd" fill-opacity="1" /><path clip-path="url(#clip980)" d="M83.0984 980.24 L87.9827 980.24 L87.9827 986.119 L83.0984 986.119 L83.0984 980.24 Z" fill="#000000" fill-rule="evenodd" fill-opacity="1" /><path clip-path="url(#clip980)" d="M108.168 954.638 Q104.557 954.638 102.728 958.203 Q100.922 961.745 100.922 968.874 Q100.922 975.981 102.728 979.545 Q104.557 983.087 108.168 983.087 Q111.802 983.087 113.608 979.545 Q115.436 975.981 115.436 968.874 Q115.436 961.745 113.608 958.203 Q111.802 954.638 108.168 954.638 M108.168 950.934 Q113.978 950.934 117.033 955.541 Q120.112 960.124 120.112 968.874 Q120.112 977.601 117.033 982.207 Q113.978 986.791 108.168 986.791 Q102.358 986.791 99.2789 982.207 Q96.2234 977.601 96.2234 968.874 Q96.2234 960.124 99.2789 955.541 Q102.358 950.934 108.168 950.934 Z" fill="#000000" fill-rule="evenodd" fill-opacity="1" /><path clip-path="url(#clip980)" d="M138.33 954.638 Q134.719 954.638 132.89 958.203 Q131.084 961.745 131.084 968.874 Q131.084 975.981 132.89 979.545 Q134.719 983.087 138.33 983.087 Q141.964 983.087 143.769 979.545 Q145.598 975.981 145.598 968.874 Q145.598 961.745 143.769 958.203 Q141.964 954.638 138.33 954.638 M138.33 950.934 Q144.14 950.934 147.195 955.541 Q150.274 960.124 150.274 968.874 Q150.274 977.601 147.195 982.207 Q144.14 986.791 138.33 986.791 Q132.519 986.791 129.441 982.207 Q126.385 977.601 126.385 968.874 Q126.385 960.124 129.441 955.541 Q132.519 950.934 138.33 950.934 Z" fill="#000000" fill-rule="evenodd" fill-opacity="1" /><path clip-path="url(#clip980)" d="M168.491 954.638 Q164.88 954.638 163.052 958.203 Q161.246 961.745 161.246 968.874 Q161.246 975.981 163.052 979.545 Q164.88 983.087 168.491 983.087 Q172.126 983.087 173.931 979.545 Q175.76 975.981 175.76 968.874 Q175.76 961.745 173.931 958.203 Q172.126 954.638 168.491 954.638 M168.491 950.934 Q174.302 950.934 177.357 955.541 Q180.436 960.124 180.436 968.874 Q180.436 977.601 177.357 982.207 Q174.302 986.791 168.491 986.791 Q162.681 986.791 159.603 982.207 Q156.547 977.601 156.547 968.874 Q156.547 960.124 159.603 955.541 Q162.681 950.934 168.491 950.934 Z" fill="#000000" fill-rule="evenodd" fill-opacity="1" /><path clip-path="url(#clip980)" d="M201.501 955.634 L189.695 974.082 L201.501 974.082 L201.501 955.634 M200.274 951.559 L206.153 951.559 L206.153 974.082 L211.084 974.082 L211.084 977.971 L206.153 977.971 L206.153 986.119 L201.501 986.119 L201.501 977.971 L185.899 977.971 L185.899 973.457 L200.274 951.559 Z" fill="#000000" fill-rule="evenodd" fill-opacity="1" /><path clip-path="url(#clip980)" d="M63.2606 678.092 Q59.6495 678.092 57.8208 681.657 Q56.0152 685.198 56.0152 692.328 Q56.0152 699.434 57.8208 702.999 Q59.6495 706.541 63.2606 706.541 Q66.8948 706.541 68.7004 702.999 Q70.5291 699.434 70.5291 692.328 Q70.5291 685.198 68.7004 681.657 Q66.8948 678.092 63.2606 678.092 M63.2606 674.388 Q69.0707 674.388 72.1263 678.995 Q75.205 683.578 75.205 692.328 Q75.205 701.055 72.1263 705.661 Q69.0707 710.244 63.2606 710.244 Q57.4504 710.244 54.3717 705.661 Q51.3162 701.055 51.3162 692.328 Q51.3162 683.578 54.3717 678.995 Q57.4504 674.388 63.2606 674.388 Z" fill="#000000" fill-rule="evenodd" fill-opacity="1" /><path clip-path="url(#clip980)" d="M83.4225 703.694 L88.3067 703.694 L88.3067 709.573 L83.4225 709.573 L83.4225 703.694 Z" fill="#000000" fill-rule="evenodd" fill-opacity="1" /><path clip-path="url(#clip980)" d="M108.492 678.092 Q104.881 678.092 103.052 681.657 Q101.246 685.198 101.246 692.328 Q101.246 699.434 103.052 702.999 Q104.881 706.541 108.492 706.541 Q112.126 706.541 113.932 702.999 Q115.76 699.434 115.76 692.328 Q115.76 685.198 113.932 681.657 Q112.126 678.092 108.492 678.092 M108.492 674.388 Q114.302 674.388 117.358 678.995 Q120.436 683.578 120.436 692.328 Q120.436 701.055 117.358 705.661 Q114.302 710.244 108.492 710.244 Q102.682 710.244 99.603 705.661 Q96.5474 701.055 96.5474 692.328 Q96.5474 683.578 99.603 678.995 Q102.682 674.388 108.492 674.388 Z" fill="#000000" fill-rule="evenodd" fill-opacity="1" /><path clip-path="url(#clip980)" d="M138.654 678.092 Q135.043 678.092 133.214 681.657 Q131.408 685.198 131.408 692.328 Q131.408 699.434 133.214 702.999 Q135.043 706.541 138.654 706.541 Q142.288 706.541 144.093 702.999 Q145.922 699.434 145.922 692.328 Q145.922 685.198 144.093 681.657 Q142.288 678.092 138.654 678.092 M138.654 674.388 Q144.464 674.388 147.519 678.995 Q150.598 683.578 150.598 692.328 Q150.598 701.055 147.519 705.661 Q144.464 710.244 138.654 710.244 Q132.844 710.244 129.765 705.661 Q126.709 701.055 126.709 692.328 Q126.709 683.578 129.765 678.995 Q132.844 674.388 138.654 674.388 Z" fill="#000000" fill-rule="evenodd" fill-opacity="1" /><path clip-path="url(#clip980)" d="M168.816 678.092 Q165.204 678.092 163.376 681.657 Q161.57 685.198 161.57 692.328 Q161.57 699.434 163.376 702.999 Q165.204 706.541 168.816 706.541 Q172.45 706.541 174.255 702.999 Q176.084 699.434 176.084 692.328 Q176.084 685.198 174.255 681.657 Q172.45 678.092 168.816 678.092 M168.816 674.388 Q174.626 674.388 177.681 678.995 Q180.76 683.578 180.76 692.328 Q180.76 701.055 177.681 705.661 Q174.626 710.244 168.816 710.244 Q163.005 710.244 159.927 705.661 Q156.871 701.055 156.871 692.328 Q156.871 683.578 159.927 678.995 Q163.005 674.388 168.816 674.388 Z" fill="#000000" fill-rule="evenodd" fill-opacity="1" /><path clip-path="url(#clip980)" d="M199.556 690.43 Q196.408 690.43 194.556 692.583 Q192.727 694.735 192.727 698.485 Q192.727 702.212 194.556 704.388 Q196.408 706.541 199.556 706.541 Q202.704 706.541 204.533 704.388 Q206.385 702.212 206.385 698.485 Q206.385 694.735 204.533 692.583 Q202.704 690.43 199.556 690.43 M208.839 675.777 L208.839 680.036 Q207.079 679.203 205.274 678.763 Q203.491 678.323 201.732 678.323 Q197.102 678.323 194.649 681.448 Q192.218 684.573 191.871 690.893 Q193.237 688.879 195.297 687.814 Q197.357 686.726 199.834 686.726 Q205.042 686.726 208.051 689.897 Q211.084 693.046 211.084 698.485 Q211.084 703.809 207.936 707.027 Q204.788 710.244 199.556 710.244 Q193.561 710.244 190.39 705.661 Q187.218 701.055 187.218 692.328 Q187.218 684.134 191.107 679.272 Q194.996 674.388 201.547 674.388 Q203.306 674.388 205.089 674.735 Q206.894 675.083 208.839 675.777 Z" fill="#000000" fill-rule="evenodd" fill-opacity="1" /><path clip-path="url(#clip980)" d="M63.5152 401.546 Q59.9041 401.546 58.0754 405.11 Q56.2699 408.652 56.2699 415.782 Q56.2699 422.888 58.0754 426.453 Q59.9041 429.995 63.5152 429.995 Q67.1494 429.995 68.955 426.453 Q70.7837 422.888 70.7837 415.782 Q70.7837 408.652 68.955 405.11 Q67.1494 401.546 63.5152 401.546 M63.5152 397.842 Q69.3254 397.842 72.3809 402.448 Q75.4596 407.032 75.4596 415.782 Q75.4596 424.508 72.3809 429.115 Q69.3254 433.698 63.5152 433.698 Q57.7051 433.698 54.6264 429.115 Q51.5708 424.508 51.5708 415.782 Q51.5708 407.032 54.6264 402.448 Q57.7051 397.842 63.5152 397.842 Z" fill="#000000" fill-rule="evenodd" fill-opacity="1" /><path clip-path="url(#clip980)" d="M83.6771 427.147 L88.5614 427.147 L88.5614 433.027 L83.6771 433.027 L83.6771 427.147 Z" fill="#000000" fill-rule="evenodd" fill-opacity="1" /><path clip-path="url(#clip980)" d="M108.746 401.546 Q105.135 401.546 103.307 405.11 Q101.501 408.652 101.501 415.782 Q101.501 422.888 103.307 426.453 Q105.135 429.995 108.746 429.995 Q112.381 429.995 114.186 426.453 Q116.015 422.888 116.015 415.782 Q116.015 408.652 114.186 405.11 Q112.381 401.546 108.746 401.546 M108.746 397.842 Q114.557 397.842 117.612 402.448 Q120.691 407.032 120.691 415.782 Q120.691 424.508 117.612 429.115 Q114.557 433.698 108.746 433.698 Q102.936 433.698 99.8576 429.115 Q96.8021 424.508 96.8021 415.782 Q96.8021 407.032 99.8576 402.448 Q102.936 397.842 108.746 397.842 Z" fill="#000000" fill-rule="evenodd" fill-opacity="1" /><path clip-path="url(#clip980)" d="M138.908 401.546 Q135.297 401.546 133.469 405.11 Q131.663 408.652 131.663 415.782 Q131.663 422.888 133.469 426.453 Q135.297 429.995 138.908 429.995 Q142.543 429.995 144.348 426.453 Q146.177 422.888 146.177 415.782 Q146.177 408.652 144.348 405.11 Q142.543 401.546 138.908 401.546 M138.908 397.842 Q144.718 397.842 147.774 402.448 Q150.853 407.032 150.853 415.782 Q150.853 424.508 147.774 429.115 Q144.718 433.698 138.908 433.698 Q133.098 433.698 130.019 429.115 Q126.964 424.508 126.964 415.782 Q126.964 407.032 130.019 402.448 Q133.098 397.842 138.908 397.842 Z" fill="#000000" fill-rule="evenodd" fill-opacity="1" /><path clip-path="url(#clip980)" d="M169.07 401.546 Q165.459 401.546 163.63 405.11 Q161.825 408.652 161.825 415.782 Q161.825 422.888 163.63 426.453 Q165.459 429.995 169.07 429.995 Q172.704 429.995 174.51 426.453 Q176.339 422.888 176.339 415.782 Q176.339 408.652 174.51 405.11 Q172.704 401.546 169.07 401.546 M169.07 397.842 Q174.88 397.842 177.936 402.448 Q181.015 407.032 181.015 415.782 Q181.015 424.508 177.936 429.115 Q174.88 433.698 169.07 433.698 Q163.26 433.698 160.181 429.115 Q157.126 424.508 157.126 415.782 Q157.126 407.032 160.181 402.448 Q163.26 397.842 169.07 397.842 Z" fill="#000000" fill-rule="evenodd" fill-opacity="1" /><path clip-path="url(#clip980)" d="M199.232 416.615 Q195.899 416.615 193.977 418.397 Q192.079 420.18 192.079 423.305 Q192.079 426.43 193.977 428.212 Q195.899 429.995 199.232 429.995 Q202.565 429.995 204.487 428.212 Q206.408 426.407 206.408 423.305 Q206.408 420.18 204.487 418.397 Q202.589 416.615 199.232 416.615 M194.556 414.624 Q191.547 413.884 189.857 411.823 Q188.19 409.763 188.19 406.8 Q188.19 402.657 191.13 400.249 Q194.093 397.842 199.232 397.842 Q204.394 397.842 207.334 400.249 Q210.274 402.657 210.274 406.8 Q210.274 409.763 208.584 411.823 Q206.917 413.884 203.931 414.624 Q207.311 415.411 209.186 417.703 Q211.084 419.995 211.084 423.305 Q211.084 428.328 208.005 431.013 Q204.95 433.698 199.232 433.698 Q193.515 433.698 190.436 431.013 Q187.38 428.328 187.38 423.305 Q187.38 419.995 189.278 417.703 Q191.177 415.411 194.556 414.624 M192.843 407.24 Q192.843 409.925 194.51 411.43 Q196.2 412.934 199.232 412.934 Q202.241 412.934 203.931 411.43 Q205.644 409.925 205.644 407.24 Q205.644 404.555 203.931 403.05 Q202.241 401.546 199.232 401.546 Q196.2 401.546 194.51 403.05 Q192.843 404.555 192.843 407.24 Z" fill="#000000" fill-rule="evenodd" fill-opacity="1" /><path clip-path="url(#clip980)" d="M63.4226 124.999 Q59.8115 124.999 57.9828 128.564 Q56.1773 132.106 56.1773 139.235 Q56.1773 146.342 57.9828 149.907 Q59.8115 153.448 63.4226 153.448 Q67.0569 153.448 68.8624 149.907 Q70.6911 146.342 70.6911 139.235 Q70.6911 132.106 68.8624 128.564 Q67.0569 124.999 63.4226 124.999 M63.4226 121.296 Q69.2328 121.296 72.2883 125.902 Q75.367 130.485 75.367 139.235 Q75.367 147.962 72.2883 152.569 Q69.2328 157.152 63.4226 157.152 Q57.6125 157.152 54.5338 152.569 Q51.4782 147.962 51.4782 139.235 Q51.4782 130.485 54.5338 125.902 Q57.6125 121.296 63.4226 121.296 Z" fill="#000000" fill-rule="evenodd" fill-opacity="1" /><path clip-path="url(#clip980)" d="M83.5845 150.601 L88.4688 150.601 L88.4688 156.481 L83.5845 156.481 L83.5845 150.601 Z" fill="#000000" fill-rule="evenodd" fill-opacity="1" /><path clip-path="url(#clip980)" d="M108.654 124.999 Q105.043 124.999 103.214 128.564 Q101.409 132.106 101.409 139.235 Q101.409 146.342 103.214 149.907 Q105.043 153.448 108.654 153.448 Q112.288 153.448 114.094 149.907 Q115.922 146.342 115.922 139.235 Q115.922 132.106 114.094 128.564 Q112.288 124.999 108.654 124.999 M108.654 121.296 Q114.464 121.296 117.52 125.902 Q120.598 130.485 120.598 139.235 Q120.598 147.962 117.52 152.569 Q114.464 157.152 108.654 157.152 Q102.844 157.152 99.765 152.569 Q96.7095 147.962 96.7095 139.235 Q96.7095 130.485 99.765 125.902 Q102.844 121.296 108.654 121.296 Z" fill="#000000" fill-rule="evenodd" fill-opacity="1" /><path clip-path="url(#clip980)" d="M138.816 124.999 Q135.205 124.999 133.376 128.564 Q131.57 132.106 131.57 139.235 Q131.57 146.342 133.376 149.907 Q135.205 153.448 138.816 153.448 Q142.45 153.448 144.256 149.907 Q146.084 146.342 146.084 139.235 Q146.084 132.106 144.256 128.564 Q142.45 124.999 138.816 124.999 M138.816 121.296 Q144.626 121.296 147.681 125.902 Q150.76 130.485 150.76 139.235 Q150.76 147.962 147.681 152.569 Q144.626 157.152 138.816 157.152 Q133.006 157.152 129.927 152.569 Q126.871 147.962 126.871 139.235 Q126.871 130.485 129.927 125.902 Q133.006 121.296 138.816 121.296 Z" fill="#000000" fill-rule="evenodd" fill-opacity="1" /><path clip-path="url(#clip980)" d="M159.788 152.546 L167.427 152.546 L167.427 126.18 L159.117 127.847 L159.117 123.587 L167.38 121.921 L172.056 121.921 L172.056 152.546 L179.695 152.546 L179.695 156.481 L159.788 156.481 L159.788 152.546 Z" fill="#000000" fill-rule="evenodd" fill-opacity="1" /><path clip-path="url(#clip980)" d="M199.139 124.999 Q195.528 124.999 193.7 128.564 Q191.894 132.106 191.894 139.235 Q191.894 146.342 193.7 149.907 Q195.528 153.448 199.139 153.448 Q202.774 153.448 204.579 149.907 Q206.408 146.342 206.408 139.235 Q206.408 132.106 204.579 128.564 Q202.774 124.999 199.139 124.999 M199.139 121.296 Q204.95 121.296 208.005 125.902 Q211.084 130.485 211.084 139.235 Q211.084 147.962 208.005 152.569 Q204.95 157.152 199.139 157.152 Q193.329 157.152 190.251 152.569 Q187.195 147.962 187.195 139.235 Q187.195 130.485 190.251 125.902 Q193.329 121.296 199.139 121.296 Z" fill="#000000" fill-rule="evenodd" fill-opacity="1" /><path clip-path="url(#clip980)" d="M1073.66 12.096 L1081.84 12.096 L1081.84 72.576 L1073.66 72.576 L1073.66 12.096 Z" fill="#000000" fill-rule="evenodd" fill-opacity="1" /><path clip-path="url(#clip980)" d="M1135.51 45.1919 L1135.51 72.576 L1128.06 72.576 L1128.06 45.4349 Q1128.06 38.994 1125.55 35.7938 Q1123.04 32.5936 1118.01 32.5936 Q1111.98 32.5936 1108.49 36.4419 Q1105.01 40.2903 1105.01 46.9338 L1105.01 72.576 L1097.52 72.576 L1097.52 27.2059 L1105.01 27.2059 L1105.01 34.2544 Q1107.68 30.163 1111.29 28.1376 Q1114.94 26.1121 1119.67 26.1121 Q1127.49 26.1121 1131.5 30.9732 Q1135.51 35.7938 1135.51 45.1919 Z" fill="#000000" fill-rule="evenodd" fill-opacity="1" /><path clip-path="url(#clip980)" d="M1183.03 28.9478 L1183.03 35.9153 Q1179.87 34.1734 1176.67 33.3227 Q1173.51 32.4315 1170.27 32.4315 Q1163.02 32.4315 1159.01 37.0496 Q1155 41.6271 1155 49.9314 Q1155 58.2358 1159.01 62.8538 Q1163.02 67.4314 1170.27 67.4314 Q1173.51 67.4314 1176.67 66.5807 Q1179.87 65.6895 1183.03 63.9476 L1183.03 70.8341 Q1179.91 72.2924 1176.55 73.0216 Q1173.23 73.7508 1169.46 73.7508 Q1159.21 73.7508 1153.18 67.3098 Q1147.14 60.8689 1147.14 49.9314 Q1147.14 38.832 1153.22 32.472 Q1159.33 26.1121 1169.95 26.1121 Q1173.39 26.1121 1176.67 26.8413 Q1179.95 27.5299 1183.03 28.9478 Z" fill="#000000" fill-rule="evenodd" fill-opacity="1" /><path clip-path="url(#clip980)" d="M1195.99 27.2059 L1203.45 27.2059 L1203.45 72.576 L1195.99 72.576 L1195.99 27.2059 M1195.99 9.54393 L1203.45 9.54393 L1203.45 18.9825 L1195.99 18.9825 L1195.99 9.54393 Z" fill="#000000" fill-rule="evenodd" fill-opacity="1" /><path clip-path="url(#clip980)" d="M1248.9 34.0924 L1248.9 9.54393 L1256.35 9.54393 L1256.35 72.576 L1248.9 72.576 L1248.9 65.7705 Q1246.55 69.8214 1242.94 71.8063 Q1239.38 73.7508 1234.36 73.7508 Q1226.13 73.7508 1220.95 67.1883 Q1215.8 60.6258 1215.8 49.9314 Q1215.8 39.2371 1220.95 32.6746 Q1226.13 26.1121 1234.36 26.1121 Q1239.38 26.1121 1242.94 28.0971 Q1246.55 30.0415 1248.9 34.0924 M1223.5 49.9314 Q1223.5 58.1548 1226.86 62.8538 Q1230.26 67.5124 1236.18 67.5124 Q1242.09 67.5124 1245.5 62.8538 Q1248.9 58.1548 1248.9 49.9314 Q1248.9 41.7081 1245.5 37.0496 Q1242.09 32.3505 1236.18 32.3505 Q1230.26 32.3505 1226.86 37.0496 Q1223.5 41.7081 1223.5 49.9314 Z" fill="#000000" fill-rule="evenodd" fill-opacity="1" /><path clip-path="url(#clip980)" d="M1310.51 48.0275 L1310.51 51.6733 L1276.24 51.6733 Q1276.73 59.3701 1280.86 63.421 Q1285.03 67.4314 1292.45 67.4314 Q1296.74 67.4314 1300.75 66.3781 Q1304.8 65.3249 1308.77 63.2184 L1308.77 70.267 Q1304.76 71.9684 1300.55 72.8596 Q1296.33 73.7508 1292 73.7508 Q1281.14 73.7508 1274.78 67.4314 Q1268.46 61.1119 1268.46 50.3365 Q1268.46 39.1965 1274.46 32.6746 Q1280.5 26.1121 1290.7 26.1121 Q1299.86 26.1121 1305.17 32.0264 Q1310.51 37.9003 1310.51 48.0275 M1303.06 45.84 Q1302.98 39.7232 1299.62 36.0774 Q1296.29 32.4315 1290.79 32.4315 Q1284.55 32.4315 1280.78 35.9558 Q1277.05 39.4801 1276.49 45.8805 L1303.06 45.84 Z" fill="#000000" fill-rule="evenodd" fill-opacity="1" /><path clip-path="url(#clip980)" d="M1360.46 45.1919 L1360.46 72.576 L1353.01 72.576 L1353.01 45.4349 Q1353.01 38.994 1350.5 35.7938 Q1347.98 32.5936 1342.96 32.5936 Q1336.92 32.5936 1333.44 36.4419 Q1329.96 40.2903 1329.96 46.9338 L1329.96 72.576 L1322.46 72.576 L1322.46 27.2059 L1329.96 27.2059 L1329.96 34.2544 Q1332.63 30.163 1336.24 28.1376 Q1339.88 26.1121 1344.62 26.1121 Q1352.44 26.1121 1356.45 30.9732 Q1360.46 35.7938 1360.46 45.1919 Z" fill="#000000" fill-rule="evenodd" fill-opacity="1" /><path clip-path="url(#clip980)" d="M1407.98 28.9478 L1407.98 35.9153 Q1404.82 34.1734 1401.62 33.3227 Q1398.46 32.4315 1395.22 32.4315 Q1387.97 32.4315 1383.96 37.0496 Q1379.95 41.6271 1379.95 49.9314 Q1379.95 58.2358 1383.96 62.8538 Q1387.97 67.4314 1395.22 67.4314 Q1398.46 67.4314 1401.62 66.5807 Q1404.82 65.6895 1407.98 63.9476 L1407.98 70.8341 Q1404.86 72.2924 1401.5 73.0216 Q1398.17 73.7508 1394.41 73.7508 Q1384.16 73.7508 1378.12 67.3098 Q1372.09 60.8689 1372.09 49.9314 Q1372.09 38.832 1378.16 32.472 Q1384.28 26.1121 1394.89 26.1121 Q1398.34 26.1121 1401.62 26.8413 Q1404.9 27.5299 1407.98 28.9478 Z" fill="#000000" fill-rule="evenodd" fill-opacity="1" /><path clip-path="url(#clip980)" d="M1420.94 27.2059 L1428.39 27.2059 L1428.39 72.576 L1420.94 72.576 L1420.94 27.2059 M1420.94 9.54393 L1428.39 9.54393 L1428.39 18.9825 L1420.94 18.9825 L1420.94 9.54393 Z" fill="#000000" fill-rule="evenodd" fill-opacity="1" /><path clip-path="url(#clip980)" d="M1464.61 49.7694 Q1455.58 49.7694 1452.09 51.8354 Q1448.61 53.9013 1448.61 58.8839 Q1448.61 62.8538 1451.2 65.2034 Q1453.83 67.5124 1458.33 67.5124 Q1464.53 67.5124 1468.26 63.1374 Q1472.02 58.7219 1472.02 51.4303 L1472.02 49.7694 L1464.61 49.7694 M1479.48 46.6907 L1479.48 72.576 L1472.02 72.576 L1472.02 65.6895 Q1469.47 69.8214 1465.66 71.8063 Q1461.85 73.7508 1456.35 73.7508 Q1449.38 73.7508 1445.25 69.8619 Q1441.15 65.9325 1441.15 59.3701 Q1441.15 51.7138 1446.26 47.825 Q1451.4 43.9361 1461.57 43.9361 L1472.02 43.9361 L1472.02 43.2069 Q1472.02 38.0623 1468.62 35.2672 Q1465.26 32.4315 1459.14 32.4315 Q1455.25 32.4315 1451.57 33.3632 Q1447.88 34.295 1444.48 36.1584 L1444.48 29.2718 Q1448.57 27.692 1452.42 26.9223 Q1456.26 26.1121 1459.91 26.1121 Q1469.75 26.1121 1474.62 31.2163 Q1479.48 36.3204 1479.48 46.6907 Z" fill="#000000" fill-rule="evenodd" fill-opacity="1" /><path clip-path="url(#clip980)" d="M1523.75 28.5427 L1523.75 35.5912 Q1520.59 33.9709 1517.19 33.1607 Q1513.79 32.3505 1510.14 32.3505 Q1504.59 32.3505 1501.8 34.0519 Q1499.04 35.7533 1499.04 39.156 Q1499.04 41.7486 1501.03 43.2475 Q1503.01 44.7058 1509.01 46.0426 L1511.56 46.6097 Q1519.5 48.3111 1522.82 51.4303 Q1526.18 54.509 1526.18 60.0587 Q1526.18 66.3781 1521.16 70.0644 Q1516.18 73.7508 1507.43 73.7508 Q1503.78 73.7508 1499.81 73.0216 Q1495.88 72.3329 1491.51 70.9151 L1491.51 63.2184 Q1495.64 65.3654 1499.65 66.4591 Q1503.66 67.5124 1507.59 67.5124 Q1512.86 67.5124 1515.69 65.73 Q1518.53 63.9071 1518.53 60.6258 Q1518.53 57.5877 1516.46 55.9673 Q1514.44 54.3469 1507.51 52.8481 L1504.92 52.2405 Q1497.99 50.7821 1494.91 47.7845 Q1491.83 44.7463 1491.83 39.4801 Q1491.83 33.0797 1496.37 29.5959 Q1500.91 26.1121 1509.25 26.1121 Q1513.38 26.1121 1517.03 26.7198 Q1520.67 27.3274 1523.75 28.5427 Z" fill="#000000" fill-rule="evenodd" fill-opacity="1" /><polyline clip-path="url(#clip982)" style="stroke:#009af9; stroke-linecap:butt; stroke-linejoin:round; stroke-width:4; stroke-opacity:1; fill:none" points="
  306.678,1431.88 311.645,1419.15 316.611,1406.34 321.577,1393.32 326.543,1380 331.509,1366.24 336.476,1351.41 341.442,1339.64 346.408,1323.44 351.374,1306.49 
  356.34,1288.84 361.307,1270.44 366.273,1251.27 371.239,1231.23 376.205,1210.42 381.171,1189.63 386.138,1168.39 391.104,1146.16 396.07,1123.03 401.036,1099.01 
  406.003,1073.67 410.969,1047.89 415.935,1022.48 420.901,997.666 425.867,973.024 430.834,947.628 435.8,922.041 440.766,893.407 445.732,860.352 450.698,825.018 
  455.665,788.981 460.631,752.142 465.597,714.613 470.563,676.511 475.529,636.473 480.496,593.948 485.462,550.124 490.428,505.871 495.394,461.744 500.36,417.98 
  505.327,374.499 510.293,328.979 515.259,283.942 520.225,249.567 525.191,227.713 530.158,211.421 535.124,194.275 540.09,179.413 545.056,168.965 550.023,163.503 
  554.989,162.047 559.955,163.366 564.921,167.383 569.887,173.951 574.854,182.927 579.82,194.121 584.786,206.749 589.752,220.613 594.718,235.765 599.685,252.282 
  604.651,270.267 609.617,289.845 614.583,311.239 619.549,334.771 624.516,360.004 629.482,386.539 634.448,414.13 639.414,442.355 644.38,471.287 649.347,501.942 
  654.313,534.638 659.279,568.955 664.245,603.753 669.212,638.619 674.178,673.367 679.144,707.468 684.11,740.638 689.076,772.842 694.043,804.289 699.009,835.408 
  703.975,866.144 708.941,896.42 713.907,926.273 718.874,955.693 723.84,984.631 728.806,1012.99 733.772,1040.65 738.738,1067.5 743.705,1093.73 748.671,1119.03 
  753.637,1143.12 758.603,1165.83 763.569,1187.14 768.536,1207.11 773.502,1225.93 778.468,1243.9 783.434,1261.38 788.4,1278.34 793.367,1294.57 798.333,1309.88 
  803.299,1324.13 808.265,1337.23 813.232,1349.09 818.198,1359.68 823.164,1368.99 828.13,1377.06 833.096,1384.04 838.063,1390.1 843.029,1395.37 847.995,1399.95 
  852.961,1403.91 857.927,1407.3 862.894,1410.1 867.86,1412.34 872.826,1414.08 877.792,1415.37 882.758,1416.22 887.725,1416.66 892.691,1416.67 897.657,1416.11 
  902.623,1414.95 907.589,1413.22 912.556,1410.9 917.522,1408 922.488,1404.51 927.454,1400.44 932.421,1395.59 937.387,1389.84 942.353,1383.11 947.319,1375.34 
  952.285,1366.5 957.252,1357.07 962.218,1346.92 967.184,1335.89 972.15,1324.03 977.116,1311.58 982.083,1298.98 987.049,1285.89 992.015,1271.94 996.981,1256.94 
  1001.95,1240.94 1006.91,1224.19 1011.88,1206.5 1016.85,1188.04 1021.81,1169.99 1026.78,1152.71 1031.74,1135.74 1036.71,1117.79 1041.68,1097.83 1046.64,1077.57 
  1051.61,1057.18 1056.58,1036.72 1061.54,1016.24 1066.51,995.715 1071.47,974.469 1076.44,952.537 1081.41,930.155 1086.37,907.549 1091.34,884.936 1096.31,862.527 
  1101.27,840.52 1106.24,818.093 1111.2,790.795 1116.17,761.284 1121.14,731.927 1126.1,703.465 1131.07,675.221 1136.04,647.277 1141,620.363 1145.97,594.964 
  1150.93,571.313 1155.9,549.391 1160.87,529.355 1165.83,510.916 1170.8,493.535 1175.76,476.989 1180.73,461.375 1185.7,447.108 1190.66,435.196 1195.63,425.238 
  1200.6,416.035 1205.56,406.983 1210.53,398.07 1215.49,389.88 1220.46,383.552 1225.43,379.347 1230.39,377.213 1235.36,377.305 1240.33,379.69 1245.29,384.343 
  1250.26,391.148 1255.22,399.93 1260.19,410.877 1265.16,423.837 1270.12,438.545 1275.09,454.783 1280.06,472.387 1285.02,491.246 1289.99,511.3 1294.95,532.541 
  1299.92,555.013 1304.89,578.609 1309.85,602.03 1314.82,624.825 1319.78,646.827 1324.75,667.952 1329.72,688.195 1334.68,707.635 1339.65,726.407 1344.62,744.215 
  1349.58,761.036 1354.55,777.026 1359.51,792.327 1364.48,807.067 1369.45,821.363 1374.41,835.317 1379.38,849.018 1384.35,862.632 1389.31,876.673 1394.28,890.861 
  1399.24,904.917 1404.21,918.722 1409.18,932.322 1414.14,945.897 1419.11,958.419 1424.08,969.845 1429.04,980.833 1434.01,991.744 1438.97,1002.64 1443.94,1013.45 
  1448.91,1024.34 1453.87,1034.87 1458.84,1044.71 1463.8,1053.7 1468.77,1061.87 1473.74,1069.42 1478.7,1076.73 1483.67,1084.18 1488.64,1091.73 1493.6,1099.27 
  1498.57,1106.7 1503.53,1113.98 1508.5,1121.09 1513.47,1128.06 1518.43,1134.85 1523.4,1141.37 1528.37,1147.67 1533.33,1153.81 1538.3,1159.82 1543.26,1165.73 
  1548.23,1171.56 1553.2,1177.3 1558.16,1182.96 1563.13,1188.46 1568.1,1193.88 1573.06,1199.37 1578.03,1205.03 1582.99,1210.91 1587.96,1217 1592.93,1223.26 
  1597.89,1229.56 1602.86,1235.76 1607.82,1241.82 1612.79,1247.77 1617.76,1253.62 1622.72,1259.39 1627.69,1265.06 1632.66,1270.65 1637.62,1276.13 1642.59,1281.51 
  1647.55,1286.77 1652.52,1291.93 1657.49,1296.99 1662.45,1301.95 1667.42,1306.82 1672.39,1311.6 1677.35,1316.28 1682.32,1320.86 1687.28,1325.35 1692.25,1329.73 
  1697.22,1333.89 1702.18,1337.6 1707.15,1340.69 1712.12,1343.03 1717.08,1344.58 1722.05,1345.35 1727.01,1345.41 1731.98,1345.03 1736.95,1344.28 1741.91,1342.91 
  1746.88,1340.79 1751.84,1337.84 1756.81,1334.06 1761.78,1329.33 1766.74,1323.54 1771.71,1316.69 1776.68,1308.75 1781.64,1299.63 1786.61,1289.2 1791.57,1277.29 
  1796.54,1264.22 1801.51,1250.36 1806.47,1235.87 1811.44,1220.85 1816.41,1205.41 1821.37,1189.62 1826.34,1173.53 1831.3,1157.25 1836.27,1140.63 1841.24,1123.57 
  1846.2,1106.07 1851.17,1088.28 1856.14,1070.5 1861.1,1052.79 1866.07,1035.19 1871.03,1017.83 1876,1000.79 1880.97,984.096 1885.93,967.723 1890.9,951.585 
  1895.86,935.355 1900.83,917.958 1905.8,899.804 1910.76,881.445 1915.73,863.296 1920.7,845.638 1925.66,828.617 1930.63,812.241 1935.59,796.28 1940.56,779.937 
  1945.53,762.898 1950.49,745.033 1955.46,726.307 1960.43,706.791 1965.39,686.653 1970.36,666.157 1975.32,645.384 1980.29,624.28 1985.26,602.818 1990.22,580.953 
  1995.19,558.625 2000.16,535.78 2005.12,513.961 2010.09,493.501 2015.05,473.6 2020.02,453.675 2024.99,433.358 2029.95,412.5 2034.92,391.168 2039.88,371.143 
  2044.85,354.42 2049.82,339.236 2054.78,324.261 2059.75,308.7 2064.72,292.297 2069.68,275.333 2074.65,260.348 2079.61,253.861 2084.58,252.769 2089.55,254.045 
  2094.51,255.92 2099.48,257.907 2104.45,260.643 2109.41,263.568 2114.38,266.192 2119.34,268.616 2124.31,271.317 2129.28,274.255 2134.24,277.309 2139.21,280.399 
  2144.18,283.484 2149.14,286.562 2154.11,289.696 2159.07,293.592 2164.04,297.526 2169.01,300.498 2173.97,301.999 2178.94,302.004 2183.9,300.981 2188.87,299.881 
  2193.84,300.053 2198.8,301.438 2203.77,302.733 2208.74,303.065 2213.7,302.051 2218.67,299.803 2223.63,296.924 2228.6,294.15 2233.57,291.2 2238.53,288.973 
  2243.5,287.94 2248.47,287.912 2253.43,288.042 2258.4,286.822 2263.36,282.352 2268.33,275.602 2273.3,266.915 2278.26,256.242 2283.23,243.789 2288.2,230.02 
  2293.16,215.624 
  "/>
<polyline clip-path="url(#clip982)" style="stroke:#e26f46; stroke-linecap:butt; stroke-linejoin:round; stroke-width:4; stroke-opacity:1; fill:none" points="
  306.678,1399.49 311.645,1402.6 316.611,1403.73 321.577,1403.13 326.543,1401.02 331.509,1397.6 336.476,1393.34 341.442,1385.97 346.408,1380.15 351.374,1373.27 
  356.34,1365.36 361.307,1356.49 366.273,1346.74 371.239,1336.35 376.205,1325.04 381.171,1310.81 386.138,1294.9 391.104,1278.8 396.07,1262.33 401.036,1245.56 
  406.003,1229.67 410.969,1212.53 415.935,1192.11 420.901,1167.98 425.867,1141.34 430.834,1114.98 435.8,1090.2 440.766,1064.25 445.732,1036.05 450.698,1006.79 
  455.665,977.401 460.631,947.765 465.597,917.907 470.563,887.86 475.529,857.981 480.496,828.161 485.462,797.916 490.428,767.007 495.394,735.441 500.36,703.47 
  505.327,671.591 510.293,639.836 515.259,608.211 520.225,578.825 525.191,552.783 530.158,529.876 535.124,504.572 540.09,486.892 545.056,485.832 550.023,500.288 
  554.989,519.113 559.955,534.519 564.921,549.238 569.887,563.589 574.854,577.844 579.82,591.804 584.786,601.334 589.752,608.338 594.718,615.661 599.685,624.988 
  604.651,636.839 609.617,650.577 614.583,665.309 619.549,683.789 624.516,704.126 629.482,724.714 634.448,745.297 639.414,766.398 644.38,787.828 649.347,809.795 
  654.313,832.385 659.279,855.533 664.245,879.027 669.212,902.776 674.178,926.578 679.144,950.16 684.11,973.35 689.076,996.084 694.043,1018.4 699.009,1040.42 
  703.975,1062.05 708.941,1083.34 713.907,1104.37 718.874,1125.17 723.84,1145.7 728.806,1165.86 733.772,1185.51 738.738,1204.5 743.705,1222.99 748.671,1240.78 
  753.637,1257.71 758.603,1273.68 763.569,1288.66 768.536,1302.71 773.502,1315.94 778.468,1328.57 783.434,1340.83 788.4,1352.75 793.367,1364.15 798.333,1374.9 
  803.299,1384.88 808.265,1394.02 813.232,1402.28 818.198,1409.64 823.164,1416.1 828.13,1421.54 833.096,1426.15 838.063,1430.13 843.029,1433.62 847.995,1436.71 
  852.961,1439.41 857.927,1441.7 862.894,1443.56 867.86,1445.05 872.826,1446.21 877.792,1447.05 882.758,1447.61 887.725,1447.87 892.691,1447.8 897.657,1446.79 
  902.623,1445.01 907.589,1442.8 912.556,1440.34 917.522,1437.71 922.488,1434.82 927.454,1431.43 932.421,1426.8 937.387,1421.1 942.353,1414.75 947.319,1407.86 
  952.285,1400.21 957.252,1392.13 962.218,1383.59 967.184,1374.48 972.15,1364.82 977.116,1354.74 982.083,1344.6 987.049,1334.09 992.015,1322.77 996.981,1310.48 
  1001.95,1297.28 1006.91,1283.48 1011.88,1269.57 1016.85,1255.39 1021.81,1240.6 1026.78,1225.15 1031.74,1209.29 1036.71,1193.58 1041.68,1178.39 1046.64,1162.96 
  1051.61,1147.31 1056.58,1131.47 1061.54,1115.54 1066.51,1099.32 1071.47,1081.11 1076.44,1061.51 1081.41,1041.46 1086.37,1021.6 1091.34,1002.32 1096.31,983.684 
  1101.27,965.501 1106.24,946.488 1111.2,922.927 1116.17,897.441 1121.14,872.242 1126.1,848.003 1131.07,823.632 1136.04,799.083 1141,777.181 1145.97,759.257 
  1150.93,744.924 1155.9,732.078 1160.87,719.82 1165.83,708.186 1170.8,696.177 1175.76,683.497 1180.73,670.547 1185.7,658.431 1190.66,648.483 1195.63,640.153 
  1200.6,632.534 1205.56,625.163 1210.53,618.018 1215.49,611.519 1220.46,606.499 1225.43,603.184 1230.39,601.514 1235.36,601.573 1240.33,603.401 1245.29,606.989 
  1250.26,612.281 1255.22,619.198 1260.19,627.909 1265.16,638.262 1270.12,650.019 1275.09,662.991 1280.06,677.039 1285.02,692.072 1289.99,708.049 1294.95,724.979 
  1299.92,742.919 1304.89,761.921 1309.85,781.237 1314.82,799.769 1319.78,816.835 1324.75,832.184 1329.72,845.999 1334.68,858.892 1339.65,871.806 1344.62,883.848 
  1349.58,894.925 1354.55,905.548 1359.51,916.086 1364.48,926.757 1369.45,937.637 1374.41,948.652 1379.38,959.584 1384.35,970.63 1389.31,984.708 1394.28,1000.56 
  1399.24,1016.6 1404.21,1031.82 1409.18,1045.85 1414.14,1058.87 1419.11,1070.55 1424.08,1081.06 1429.04,1090.96 1434.01,1100.57 1438.97,1109.98 1443.94,1119.25 
  1448.91,1128.58 1453.87,1137.42 1458.84,1145.36 1463.8,1152.23 1468.77,1158.13 1473.74,1163.37 1478.7,1168.54 1483.67,1174.03 1488.64,1179.71 1493.6,1185.45 
  1498.57,1191.16 1503.53,1196.78 1508.5,1202.3 1513.47,1207.72 1518.43,1213.02 1523.4,1218.09 1528.37,1222.99 1533.33,1227.78 1538.3,1232.5 1543.26,1237.16 
  1548.23,1241.78 1553.2,1246.34 1558.16,1250.83 1563.13,1255.2 1568.1,1259.58 1573.06,1264.15 1578.03,1268.99 1582.99,1274.12 1587.96,1279.52 1592.93,1285.06 
  1597.89,1290.55 1602.86,1295.77 1607.82,1300.75 1612.79,1305.61 1617.76,1310.4 1622.72,1315.16 1627.69,1319.89 1632.66,1324.55 1637.62,1329.09 1642.59,1333.5 
  1647.55,1337.79 1652.52,1341.97 1657.49,1346.04 1662.45,1350 1667.42,1353.86 1672.39,1357.62 1677.35,1361.3 1682.32,1364.88 1687.28,1368.39 1692.25,1371.82 
  1697.22,1375.24 1702.18,1378.48 1707.15,1381.32 1712.12,1383.59 1717.08,1385.21 1722.05,1386.14 1727.01,1386.42 1731.98,1386.17 1736.95,1385.44 1741.91,1384.2 
  1746.88,1382.43 1751.84,1380.08 1756.81,1377.1 1761.78,1373.48 1766.74,1369.17 1771.71,1364.09 1776.68,1358.14 1781.64,1351.23 1786.61,1343.27 1791.57,1334.18 
  1796.54,1323.66 1801.51,1312.04 1806.47,1299.84 1811.44,1287.39 1816.41,1274.88 1821.37,1262.28 1826.34,1249.4 1831.3,1235.9 1836.27,1222.36 1841.24,1209.39 
  1846.2,1197.18 1851.17,1185.5 1856.14,1173.75 1861.1,1161.94 1866.07,1150.05 1871.03,1137.67 1876,1124.61 1880.97,1110.89 1885.93,1096.73 1890.9,1082.56 
  1895.86,1068.81 1900.83,1054.64 1905.8,1040.14 1910.76,1025.6 1915.73,1011.26 1920.7,997.288 1925.66,983.794 1930.63,970.832 1935.59,957.806 1940.56,942.242 
  1945.53,925.119 1950.49,907.513 1955.46,890.06 1960.43,872.955 1965.39,855.958 1970.36,838.46 1975.32,821.42 1980.29,804.835 1985.26,788.094 1990.22,770.851 
  1995.19,753.022 2000.16,734.803 2005.12,717.663 2010.09,701.74 2015.05,686.267 2020.02,670.7 2024.99,654.717 2029.95,638.216 2034.92,621.316 2039.88,604.463 
  2044.85,588.149 2049.82,572.448 2054.78,557.328 2059.75,542.659 2064.72,528.217 2069.68,513.679 2074.65,504.417 2079.61,517.464 2084.58,538.734 2089.55,557.524 
  2094.51,570.542 2099.48,581.727 2104.45,593.252 2109.41,602.7 2114.38,609.533 2119.34,614.572 2124.31,619.406 2129.28,623.994 2134.24,628.073 2139.21,631.536 
  2144.18,634.427 2149.14,636.935 2154.11,639.342 2159.07,640.555 2164.04,641.79 2169.01,644.8 2173.97,650.456 2178.94,658.745 2183.9,668.766 2188.87,678.736 
  2193.84,686.784 2198.8,694.198 2203.77,700.304 2208.74,704.479 2213.7,706.572 2218.67,706.906 2223.63,706.279 2228.6,707.524 2233.57,713.749 2238.53,715.655 
  2243.5,706.717 2248.47,684.711 2253.43,651.711 2258.4,614.094 2263.36,581.531 2268.33,552.953 2273.3,527.111 2278.26,504.278 2283.23,484.186 2288.2,466.02 
  2293.16,448.477 
  "/>
<path clip-path="url(#clip980)" d="
M1721.24 324.425 L2282.57 324.425 L2282.57 168.905 L1721.24 168.905  Z
  " fill="#ffffff" fill-rule="evenodd" fill-opacity="1"/>
<polyline clip-path="url(#clip980)" style="stroke:#000000; stroke-linecap:butt; stroke-linejoin:round; stroke-width:4; stroke-opacity:1; fill:none" points="
  1721.24,324.425 2282.57,324.425 2282.57,168.905 1721.24,168.905 1721.24,324.425 
  "/>
<polyline clip-path="url(#clip980)" style="stroke:#009af9; stroke-linecap:butt; stroke-linejoin:round; stroke-width:4; stroke-opacity:1; fill:none" points="
  1744.64,220.745 1885.02,220.745 
  "/>
<path clip-path="url(#clip980)" d="M1928.76 217.076 Q1930.36 214.205 1932.58 212.84 Q1934.8 211.474 1937.81 211.474 Q1941.86 211.474 1944.06 214.321 Q1946.26 217.145 1946.26 222.377 L1946.26 238.025 L1941.98 238.025 L1941.98 222.515 Q1941.98 218.789 1940.66 216.983 Q1939.34 215.178 1936.63 215.178 Q1933.32 215.178 1931.4 217.377 Q1929.48 219.576 1929.48 223.372 L1929.48 238.025 L1925.2 238.025 L1925.2 222.515 Q1925.2 218.765 1923.88 216.983 Q1922.56 215.178 1919.8 215.178 Q1916.54 215.178 1914.62 217.4 Q1912.7 219.599 1912.7 223.372 L1912.7 238.025 L1908.41 238.025 L1908.41 212.099 L1912.7 212.099 L1912.7 216.127 Q1914.16 213.742 1916.19 212.608 Q1918.23 211.474 1921.03 211.474 Q1923.85 211.474 1925.82 212.909 Q1927.81 214.344 1928.76 217.076 Z" fill="#000000" fill-rule="evenodd" fill-opacity="1" /><path clip-path="url(#clip980)" d="M1954.32 227.793 L1954.32 212.099 L1958.58 212.099 L1958.58 227.631 Q1958.58 231.312 1960.01 233.164 Q1961.45 234.992 1964.32 234.992 Q1967.77 234.992 1969.76 232.793 Q1971.77 230.594 1971.77 226.798 L1971.77 212.099 L1976.03 212.099 L1976.03 238.025 L1971.77 238.025 L1971.77 234.043 Q1970.22 236.404 1968.16 237.562 Q1966.12 238.696 1963.41 238.696 Q1958.95 238.696 1956.63 235.918 Q1954.32 233.14 1954.32 227.793 M1965.03 211.474 L1965.03 211.474 Z" fill="#000000" fill-rule="evenodd" fill-opacity="1" /><path clip-path="url(#clip980)" d="M2006.35 222.377 L2006.35 238.025 L2002.09 238.025 L2002.09 222.515 Q2002.09 218.835 2000.66 217.006 Q1999.22 215.178 1996.35 215.178 Q1992.91 215.178 1990.91 217.377 Q1988.92 219.576 1988.92 223.372 L1988.92 238.025 L1984.64 238.025 L1984.64 212.099 L1988.92 212.099 L1988.92 216.127 Q1990.45 213.789 1992.51 212.631 Q1994.59 211.474 1997.3 211.474 Q2001.77 211.474 2004.06 214.252 Q2006.35 217.006 2006.35 222.377 Z" fill="#000000" fill-rule="evenodd" fill-opacity="1" /><path clip-path="url(#clip980)" d="M2014.85 212.099 L2019.11 212.099 L2019.11 238.025 L2014.85 238.025 L2014.85 212.099 M2014.85 202.006 L2019.11 202.006 L2019.11 207.4 L2014.85 207.4 L2014.85 202.006 Z" fill="#000000" fill-rule="evenodd" fill-opacity="1" /><path clip-path="url(#clip980)" d="M2046.68 213.094 L2046.68 217.076 Q2044.87 216.08 2043.04 215.594 Q2041.24 215.085 2039.39 215.085 Q2035.24 215.085 2032.95 217.724 Q2030.66 220.34 2030.66 225.085 Q2030.66 229.83 2032.95 232.469 Q2035.24 235.085 2039.39 235.085 Q2041.24 235.085 2043.04 234.599 Q2044.87 234.089 2046.68 233.094 L2046.68 237.029 Q2044.9 237.863 2042.97 238.279 Q2041.08 238.696 2038.92 238.696 Q2033.07 238.696 2029.62 235.015 Q2026.17 231.335 2026.17 225.085 Q2026.17 218.742 2029.64 215.108 Q2033.14 211.474 2039.2 211.474 Q2041.17 211.474 2043.04 211.891 Q2044.92 212.284 2046.68 213.094 Z" fill="#000000" fill-rule="evenodd" fill-opacity="1" /><path clip-path="url(#clip980)" d="M2054.09 212.099 L2058.34 212.099 L2058.34 238.025 L2054.09 238.025 L2054.09 212.099 M2054.09 202.006 L2058.34 202.006 L2058.34 207.4 L2054.09 207.4 L2054.09 202.006 Z" fill="#000000" fill-rule="evenodd" fill-opacity="1" /><path clip-path="url(#clip980)" d="M2071.38 234.136 L2071.38 247.886 L2067.09 247.886 L2067.09 212.099 L2071.38 212.099 L2071.38 216.034 Q2072.72 213.719 2074.76 212.608 Q2076.82 211.474 2079.66 211.474 Q2084.39 211.474 2087.33 215.224 Q2090.29 218.974 2090.29 225.085 Q2090.29 231.196 2087.33 234.946 Q2084.39 238.696 2079.66 238.696 Q2076.82 238.696 2074.76 237.585 Q2072.72 236.451 2071.38 234.136 M2085.87 225.085 Q2085.87 220.386 2083.92 217.724 Q2082 215.039 2078.62 215.039 Q2075.24 215.039 2073.3 217.724 Q2071.38 220.386 2071.38 225.085 Q2071.38 229.784 2073.3 232.469 Q2075.24 235.131 2078.62 235.131 Q2082 235.131 2083.92 232.469 Q2085.87 229.784 2085.87 225.085 Z" fill="#000000" fill-rule="evenodd" fill-opacity="1" /><path clip-path="url(#clip980)" d="M2109.13 224.992 Q2103.97 224.992 2101.98 226.173 Q2099.99 227.353 2099.99 230.201 Q2099.99 232.469 2101.47 233.812 Q2102.97 235.131 2105.54 235.131 Q2109.08 235.131 2111.21 232.631 Q2113.37 230.108 2113.37 225.941 L2113.37 224.992 L2109.13 224.992 M2117.63 223.233 L2117.63 238.025 L2113.37 238.025 L2113.37 234.089 Q2111.91 236.451 2109.73 237.585 Q2107.56 238.696 2104.41 238.696 Q2100.43 238.696 2098.07 236.474 Q2095.73 234.228 2095.73 230.478 Q2095.73 226.103 2098.65 223.881 Q2101.59 221.659 2107.4 221.659 L2113.37 221.659 L2113.37 221.242 Q2113.37 218.303 2111.42 216.705 Q2109.5 215.085 2106.01 215.085 Q2103.78 215.085 2101.68 215.617 Q2099.57 216.15 2097.63 217.215 L2097.63 213.279 Q2099.96 212.377 2102.16 211.937 Q2104.36 211.474 2106.45 211.474 Q2112.07 211.474 2114.85 214.391 Q2117.63 217.307 2117.63 223.233 Z" fill="#000000" fill-rule="evenodd" fill-opacity="1" /><path clip-path="url(#clip980)" d="M2126.4 202.006 L2130.66 202.006 L2130.66 238.025 L2126.4 238.025 L2126.4 202.006 Z" fill="#000000" fill-rule="evenodd" fill-opacity="1" /><path clip-path="url(#clip980)" d="M2139.57 212.099 L2143.83 212.099 L2143.83 238.025 L2139.57 238.025 L2139.57 212.099 M2139.57 202.006 L2143.83 202.006 L2143.83 207.4 L2139.57 207.4 L2139.57 202.006 Z" fill="#000000" fill-rule="evenodd" fill-opacity="1" /><path clip-path="url(#clip980)" d="M2156.96 204.738 L2156.96 212.099 L2165.73 212.099 L2165.73 215.409 L2156.96 215.409 L2156.96 229.483 Q2156.96 232.654 2157.81 233.557 Q2158.69 234.46 2161.35 234.46 L2165.73 234.46 L2165.73 238.025 L2161.35 238.025 Q2156.42 238.025 2154.55 236.196 Q2152.67 234.344 2152.67 229.483 L2152.67 215.409 L2149.55 215.409 L2149.55 212.099 L2152.67 212.099 L2152.67 204.738 L2156.96 204.738 Z" fill="#000000" fill-rule="evenodd" fill-opacity="1" /><path clip-path="url(#clip980)" d="M2182.12 240.432 Q2180.31 245.062 2178.6 246.474 Q2176.89 247.886 2174.02 247.886 L2170.61 247.886 L2170.61 244.321 L2173.11 244.321 Q2174.87 244.321 2175.84 243.488 Q2176.82 242.654 2178 239.552 L2178.76 237.608 L2168.27 212.099 L2172.79 212.099 L2180.89 232.377 L2188.99 212.099 L2193.51 212.099 L2182.12 240.432 Z" fill="#000000" fill-rule="evenodd" fill-opacity="1" /><path clip-path="url(#clip980)" d="M2215.87 234.089 L2223.51 234.089 L2223.51 207.724 L2215.2 209.391 L2215.2 205.131 L2223.46 203.465 L2228.14 203.465 L2228.14 234.089 L2235.77 234.089 L2235.77 238.025 L2215.87 238.025 L2215.87 234.089 Z" fill="#000000" fill-rule="evenodd" fill-opacity="1" /><polyline clip-path="url(#clip980)" style="stroke:#e26f46; stroke-linecap:butt; stroke-linejoin:round; stroke-width:4; stroke-opacity:1; fill:none" points="
  1744.64,272.585 1885.02,272.585 
  "/>
<path clip-path="url(#clip980)" d="M1928.76 268.916 Q1930.36 266.045 1932.58 264.68 Q1934.8 263.314 1937.81 263.314 Q1941.86 263.314 1944.06 266.161 Q1946.26 268.985 1946.26 274.217 L1946.26 289.865 L1941.98 289.865 L1941.98 274.355 Q1941.98 270.629 1940.66 268.823 Q1939.34 267.018 1936.63 267.018 Q1933.32 267.018 1931.4 269.217 Q1929.48 271.416 1929.48 275.212 L1929.48 289.865 L1925.2 289.865 L1925.2 274.355 Q1925.2 270.605 1923.88 268.823 Q1922.56 267.018 1919.8 267.018 Q1916.54 267.018 1914.62 269.24 Q1912.7 271.439 1912.7 275.212 L1912.7 289.865 L1908.41 289.865 L1908.41 263.939 L1912.7 263.939 L1912.7 267.967 Q1914.16 265.582 1916.19 264.448 Q1918.23 263.314 1921.03 263.314 Q1923.85 263.314 1925.82 264.749 Q1927.81 266.184 1928.76 268.916 Z" fill="#000000" fill-rule="evenodd" fill-opacity="1" /><path clip-path="url(#clip980)" d="M1954.32 279.633 L1954.32 263.939 L1958.58 263.939 L1958.58 279.471 Q1958.58 283.152 1960.01 285.004 Q1961.45 286.832 1964.32 286.832 Q1967.77 286.832 1969.76 284.633 Q1971.77 282.434 1971.77 278.638 L1971.77 263.939 L1976.03 263.939 L1976.03 289.865 L1971.77 289.865 L1971.77 285.883 Q1970.22 288.244 1968.16 289.402 Q1966.12 290.536 1963.41 290.536 Q1958.95 290.536 1956.63 287.758 Q1954.32 284.98 1954.32 279.633 M1965.03 263.314 L1965.03 263.314 Z" fill="#000000" fill-rule="evenodd" fill-opacity="1" /><path clip-path="url(#clip980)" d="M2006.35 274.217 L2006.35 289.865 L2002.09 289.865 L2002.09 274.355 Q2002.09 270.675 2000.66 268.846 Q1999.22 267.018 1996.35 267.018 Q1992.91 267.018 1990.91 269.217 Q1988.92 271.416 1988.92 275.212 L1988.92 289.865 L1984.64 289.865 L1984.64 263.939 L1988.92 263.939 L1988.92 267.967 Q1990.45 265.629 1992.51 264.471 Q1994.59 263.314 1997.3 263.314 Q2001.77 263.314 2004.06 266.092 Q2006.35 268.846 2006.35 274.217 Z" fill="#000000" fill-rule="evenodd" fill-opacity="1" /><path clip-path="url(#clip980)" d="M2014.85 263.939 L2019.11 263.939 L2019.11 289.865 L2014.85 289.865 L2014.85 263.939 M2014.85 253.846 L2019.11 253.846 L2019.11 259.24 L2014.85 259.24 L2014.85 253.846 Z" fill="#000000" fill-rule="evenodd" fill-opacity="1" /><path clip-path="url(#clip980)" d="M2046.68 264.934 L2046.68 268.916 Q2044.87 267.92 2043.04 267.434 Q2041.24 266.925 2039.39 266.925 Q2035.24 266.925 2032.95 269.564 Q2030.66 272.18 2030.66 276.925 Q2030.66 281.67 2032.95 284.309 Q2035.24 286.925 2039.39 286.925 Q2041.24 286.925 2043.04 286.439 Q2044.87 285.929 2046.68 284.934 L2046.68 288.869 Q2044.9 289.703 2042.97 290.119 Q2041.08 290.536 2038.92 290.536 Q2033.07 290.536 2029.62 286.855 Q2026.17 283.175 2026.17 276.925 Q2026.17 270.582 2029.64 266.948 Q2033.14 263.314 2039.2 263.314 Q2041.17 263.314 2043.04 263.731 Q2044.92 264.124 2046.68 264.934 Z" fill="#000000" fill-rule="evenodd" fill-opacity="1" /><path clip-path="url(#clip980)" d="M2054.09 263.939 L2058.34 263.939 L2058.34 289.865 L2054.09 289.865 L2054.09 263.939 M2054.09 253.846 L2058.34 253.846 L2058.34 259.24 L2054.09 259.24 L2054.09 253.846 Z" fill="#000000" fill-rule="evenodd" fill-opacity="1" /><path clip-path="url(#clip980)" d="M2071.38 285.976 L2071.38 299.726 L2067.09 299.726 L2067.09 263.939 L2071.38 263.939 L2071.38 267.874 Q2072.72 265.559 2074.76 264.448 Q2076.82 263.314 2079.66 263.314 Q2084.39 263.314 2087.33 267.064 Q2090.29 270.814 2090.29 276.925 Q2090.29 283.036 2087.33 286.786 Q2084.39 290.536 2079.66 290.536 Q2076.82 290.536 2074.76 289.425 Q2072.72 288.291 2071.38 285.976 M2085.87 276.925 Q2085.87 272.226 2083.92 269.564 Q2082 266.879 2078.62 266.879 Q2075.24 266.879 2073.3 269.564 Q2071.38 272.226 2071.38 276.925 Q2071.38 281.624 2073.3 284.309 Q2075.24 286.971 2078.62 286.971 Q2082 286.971 2083.92 284.309 Q2085.87 281.624 2085.87 276.925 Z" fill="#000000" fill-rule="evenodd" fill-opacity="1" /><path clip-path="url(#clip980)" d="M2109.13 276.832 Q2103.97 276.832 2101.98 278.013 Q2099.99 279.193 2099.99 282.041 Q2099.99 284.309 2101.47 285.652 Q2102.97 286.971 2105.54 286.971 Q2109.08 286.971 2111.21 284.471 Q2113.37 281.948 2113.37 277.781 L2113.37 276.832 L2109.13 276.832 M2117.63 275.073 L2117.63 289.865 L2113.37 289.865 L2113.37 285.929 Q2111.91 288.291 2109.73 289.425 Q2107.56 290.536 2104.41 290.536 Q2100.43 290.536 2098.07 288.314 Q2095.73 286.068 2095.73 282.318 Q2095.73 277.943 2098.65 275.721 Q2101.59 273.499 2107.4 273.499 L2113.37 273.499 L2113.37 273.082 Q2113.37 270.143 2111.42 268.545 Q2109.5 266.925 2106.01 266.925 Q2103.78 266.925 2101.68 267.457 Q2099.57 267.99 2097.63 269.055 L2097.63 265.119 Q2099.96 264.217 2102.16 263.777 Q2104.36 263.314 2106.45 263.314 Q2112.07 263.314 2114.85 266.231 Q2117.63 269.147 2117.63 275.073 Z" fill="#000000" fill-rule="evenodd" fill-opacity="1" /><path clip-path="url(#clip980)" d="M2126.4 253.846 L2130.66 253.846 L2130.66 289.865 L2126.4 289.865 L2126.4 253.846 Z" fill="#000000" fill-rule="evenodd" fill-opacity="1" /><path clip-path="url(#clip980)" d="M2139.57 263.939 L2143.83 263.939 L2143.83 289.865 L2139.57 289.865 L2139.57 263.939 M2139.57 253.846 L2143.83 253.846 L2143.83 259.24 L2139.57 259.24 L2139.57 253.846 Z" fill="#000000" fill-rule="evenodd" fill-opacity="1" /><path clip-path="url(#clip980)" d="M2156.96 256.578 L2156.96 263.939 L2165.73 263.939 L2165.73 267.249 L2156.96 267.249 L2156.96 281.323 Q2156.96 284.494 2157.81 285.397 Q2158.69 286.3 2161.35 286.3 L2165.73 286.3 L2165.73 289.865 L2161.35 289.865 Q2156.42 289.865 2154.55 288.036 Q2152.67 286.184 2152.67 281.323 L2152.67 267.249 L2149.55 267.249 L2149.55 263.939 L2152.67 263.939 L2152.67 256.578 L2156.96 256.578 Z" fill="#000000" fill-rule="evenodd" fill-opacity="1" /><path clip-path="url(#clip980)" d="M2182.12 292.272 Q2180.31 296.902 2178.6 298.314 Q2176.89 299.726 2174.02 299.726 L2170.61 299.726 L2170.61 296.161 L2173.11 296.161 Q2174.87 296.161 2175.84 295.328 Q2176.82 294.494 2178 291.392 L2178.76 289.448 L2168.27 263.939 L2172.79 263.939 L2180.89 284.217 L2188.99 263.939 L2193.51 263.939 L2182.12 292.272 Z" fill="#000000" fill-rule="evenodd" fill-opacity="1" /><path clip-path="url(#clip980)" d="M2219.08 285.929 L2235.4 285.929 L2235.4 289.865 L2213.46 289.865 L2213.46 285.929 Q2216.12 283.175 2220.7 278.545 Q2225.31 273.893 2226.49 272.55 Q2228.74 270.027 2229.62 268.291 Q2230.52 266.531 2230.52 264.842 Q2230.52 262.087 2228.58 260.351 Q2226.65 258.615 2223.55 258.615 Q2221.35 258.615 2218.9 259.379 Q2216.47 260.143 2213.69 261.694 L2213.69 256.971 Q2216.51 255.837 2218.97 255.258 Q2221.42 254.68 2223.46 254.68 Q2228.83 254.68 2232.02 257.365 Q2235.22 260.05 2235.22 264.541 Q2235.22 266.67 2234.41 268.592 Q2233.62 270.49 2231.51 273.082 Q2230.94 273.754 2227.83 276.971 Q2224.73 280.166 2219.08 285.929 Z" fill="#000000" fill-rule="evenodd" fill-opacity="1" /></svg>
