<?xml version="1.0" encoding="utf-8"?>
<svg xmlns="http://www.w3.org/2000/svg" xmlns:xlink="http://www.w3.org/1999/xlink" width="600" height="400" viewBox="0 0 2400 1600">
<defs>
  <clipPath id="clip700">
    <rect x="0" y="0" width="2400" height="1600"/>
  </clipPath>
</defs>
<path clip-path="url(#clip700)" d="
M0 1600 L2400 1600 L2400 0 L0 0  Z
  " fill="#ffffff" fill-rule="evenodd" fill-opacity="1"/>
<defs>
  <clipPath id="clip701">
    <rect x="480" y="0" width="1681" height="1600"/>
  </clipPath>
</defs>
<path clip-path="url(#clip700)" d="
M235.283 1423.18 L2352.76 1423.18 L2352.76 123.472 L235.283 123.472  Z
  " fill="#ffffff" fill-rule="evenodd" fill-opacity="1"/>
<defs>
  <clipPath id="clip702">
    <rect x="235" y="123" width="2118" height="1301"/>
  </clipPath>
</defs>
<polyline clip-path="url(#clip702)" style="stroke:#000000; stroke-linecap:butt; stroke-linejoin:round; stroke-width:2; stroke-opacity:0.1; fill:none" points="
  235.283,1423.18 235.283,123.472 
  "/>
<polyline clip-path="url(#clip702)" style="stroke:#000000; stroke-linecap:butt; stroke-linejoin:round; stroke-width:2; stroke-opacity:0.1; fill:none" points="
  764.651,1423.18 764.651,123.472 
  "/>
<polyline clip-path="url(#clip702)" style="stroke:#000000; stroke-linecap:butt; stroke-linejoin:round; stroke-width:2; stroke-opacity:0.1; fill:none" points="
  1294.02,1423.18 1294.02,123.472 
  "/>
<polyline clip-path="url(#clip702)" style="stroke:#000000; stroke-linecap:butt; stroke-linejoin:round; stroke-width:2; stroke-opacity:0.1; fill:none" points="
  1823.39,1423.18 1823.39,123.472 
  "/>
<polyline clip-path="url(#clip702)" style="stroke:#000000; stroke-linecap:butt; stroke-linejoin:round; stroke-width:2; stroke-opacity:0.1; fill:none" points="
  2352.76,1423.18 2352.76,123.472 
  "/>
<polyline clip-path="url(#clip700)" style="stroke:#000000; stroke-linecap:butt; stroke-linejoin:round; stroke-width:4; stroke-opacity:1; fill:none" points="
  235.283,1423.18 2352.76,1423.18 
  "/>
<polyline clip-path="url(#clip700)" style="stroke:#000000; stroke-linecap:butt; stroke-linejoin:round; stroke-width:4; stroke-opacity:1; fill:none" points="
  235.283,1423.18 235.283,1404.28 
  "/>
<polyline clip-path="url(#clip700)" style="stroke:#000000; stroke-linecap:butt; stroke-linejoin:round; stroke-width:4; stroke-opacity:1; fill:none" points="
  764.651,1423.18 764.651,1404.28 
  "/>
<polyline clip-path="url(#clip700)" style="stroke:#000000; stroke-linecap:butt; stroke-linejoin:round; stroke-width:4; stroke-opacity:1; fill:none" points="
  1294.02,1423.18 1294.02,1404.28 
  "/>
<polyline clip-path="url(#clip700)" style="stroke:#000000; stroke-linecap:butt; stroke-linejoin:round; stroke-width:4; stroke-opacity:1; fill:none" points="
  1823.39,1423.18 1823.39,1404.28 
  "/>
<polyline clip-path="url(#clip700)" style="stroke:#000000; stroke-linecap:butt; stroke-linejoin:round; stroke-width:4; stroke-opacity:1; fill:none" points="
  2352.76,1423.18 2352.76,1404.28 
  "/>
<path clip-path="url(#clip700)" d="M235.283 1452.37 Q231.672 1452.37 229.843 1455.94 Q228.038 1459.48 228.038 1466.61 Q228.038 1473.71 229.843 1477.28 Q231.672 1480.82 235.283 1480.82 Q238.917 1480.82 240.723 1477.28 Q242.551 1473.71 242.551 1466.61 Q242.551 1459.48 240.723 1455.94 Q238.917 1452.37 235.283 1452.37 M235.283 1448.67 Q241.093 1448.67 244.149 1453.27 Q247.227 1457.86 247.227 1466.61 Q247.227 1475.33 244.149 1479.94 Q241.093 1484.52 235.283 1484.52 Q229.473 1484.52 226.394 1479.94 Q223.338 1475.33 223.338 1466.61 Q223.338 1457.86 226.394 1453.27 Q229.473 1448.67 235.283 1448.67 Z" fill="#000000" fill-rule="evenodd" fill-opacity="1" /><path clip-path="url(#clip700)" d="M724.258 1479.92 L731.897 1479.92 L731.897 1453.55 L723.587 1455.22 L723.587 1450.96 L731.85 1449.29 L736.526 1449.29 L736.526 1479.92 L744.165 1479.92 L744.165 1483.85 L724.258 1483.85 L724.258 1479.92 Z" fill="#000000" fill-rule="evenodd" fill-opacity="1" /><path clip-path="url(#clip700)" d="M763.609 1452.37 Q759.998 1452.37 758.17 1455.94 Q756.364 1459.48 756.364 1466.61 Q756.364 1473.71 758.17 1477.28 Q759.998 1480.82 763.609 1480.82 Q767.244 1480.82 769.049 1477.28 Q770.878 1473.71 770.878 1466.61 Q770.878 1459.48 769.049 1455.94 Q767.244 1452.37 763.609 1452.37 M763.609 1448.67 Q769.42 1448.67 772.475 1453.27 Q775.554 1457.86 775.554 1466.61 Q775.554 1475.33 772.475 1479.94 Q769.42 1484.52 763.609 1484.52 Q757.799 1484.52 754.721 1479.94 Q751.665 1475.33 751.665 1466.61 Q751.665 1457.86 754.721 1453.27 Q757.799 1448.67 763.609 1448.67 Z" fill="#000000" fill-rule="evenodd" fill-opacity="1" /><path clip-path="url(#clip700)" d="M793.771 1452.37 Q790.16 1452.37 788.332 1455.94 Q786.526 1459.48 786.526 1466.61 Q786.526 1473.71 788.332 1477.28 Q790.16 1480.82 793.771 1480.82 Q797.406 1480.82 799.211 1477.28 Q801.04 1473.71 801.04 1466.61 Q801.04 1459.48 799.211 1455.94 Q797.406 1452.37 793.771 1452.37 M793.771 1448.67 Q799.581 1448.67 802.637 1453.27 Q805.716 1457.86 805.716 1466.61 Q805.716 1475.33 802.637 1479.94 Q799.581 1484.52 793.771 1484.52 Q787.961 1484.52 784.882 1479.94 Q781.827 1475.33 781.827 1466.61 Q781.827 1457.86 784.882 1453.27 Q787.961 1448.67 793.771 1448.67 Z" fill="#000000" fill-rule="evenodd" fill-opacity="1" /><path clip-path="url(#clip700)" d="M1257.71 1479.92 L1274.03 1479.92 L1274.03 1483.85 L1252.09 1483.85 L1252.09 1479.92 Q1254.75 1477.16 1259.33 1472.53 Q1263.94 1467.88 1265.12 1466.54 Q1267.36 1464.01 1268.24 1462.28 Q1269.15 1460.52 1269.15 1458.83 Q1269.15 1456.07 1267.2 1454.34 Q1265.28 1452.6 1262.18 1452.6 Q1259.98 1452.6 1257.53 1453.37 Q1255.1 1454.13 1252.32 1455.68 L1252.32 1450.96 Q1255.14 1449.82 1257.6 1449.25 Q1260.05 1448.67 1262.09 1448.67 Q1267.46 1448.67 1270.65 1451.35 Q1273.85 1454.04 1273.85 1458.53 Q1273.85 1460.66 1273.04 1462.58 Q1272.25 1464.48 1270.14 1467.07 Q1269.56 1467.74 1266.46 1470.96 Q1263.36 1474.15 1257.71 1479.92 Z" fill="#000000" fill-rule="evenodd" fill-opacity="1" /><path clip-path="url(#clip700)" d="M1293.85 1452.37 Q1290.23 1452.37 1288.41 1455.94 Q1286.6 1459.48 1286.6 1466.61 Q1286.6 1473.71 1288.41 1477.28 Q1290.23 1480.82 1293.85 1480.82 Q1297.48 1480.82 1299.29 1477.28 Q1301.11 1473.71 1301.11 1466.61 Q1301.11 1459.48 1299.29 1455.94 Q1297.48 1452.37 1293.85 1452.37 M1293.85 1448.67 Q1299.66 1448.67 1302.71 1453.27 Q1305.79 1457.86 1305.79 1466.61 Q1305.79 1475.33 1302.71 1479.94 Q1299.66 1484.52 1293.85 1484.52 Q1288.04 1484.52 1284.96 1479.94 Q1281.9 1475.33 1281.9 1466.61 Q1281.9 1457.86 1284.96 1453.27 Q1288.04 1448.67 1293.85 1448.67 Z" fill="#000000" fill-rule="evenodd" fill-opacity="1" /><path clip-path="url(#clip700)" d="M1324.01 1452.37 Q1320.4 1452.37 1318.57 1455.94 Q1316.76 1459.48 1316.76 1466.61 Q1316.76 1473.71 1318.57 1477.28 Q1320.4 1480.82 1324.01 1480.82 Q1327.64 1480.82 1329.45 1477.28 Q1331.28 1473.71 1331.28 1466.61 Q1331.28 1459.48 1329.45 1455.94 Q1327.64 1452.37 1324.01 1452.37 M1324.01 1448.67 Q1329.82 1448.67 1332.87 1453.27 Q1335.95 1457.86 1335.95 1466.61 Q1335.95 1475.33 1332.87 1479.94 Q1329.82 1484.52 1324.01 1484.52 Q1318.2 1484.52 1315.12 1479.94 Q1312.06 1475.33 1312.06 1466.61 Q1312.06 1457.86 1315.12 1453.27 Q1318.2 1448.67 1324.01 1448.67 Z" fill="#000000" fill-rule="evenodd" fill-opacity="1" /><path clip-path="url(#clip700)" d="M1797.15 1465.22 Q1800.51 1465.94 1802.38 1468.2 Q1804.28 1470.47 1804.28 1473.81 Q1804.28 1478.92 1800.76 1481.72 Q1797.24 1484.52 1790.76 1484.52 Q1788.58 1484.52 1786.27 1484.08 Q1783.98 1483.67 1781.52 1482.81 L1781.52 1478.3 Q1783.47 1479.43 1785.78 1480.01 Q1788.1 1480.59 1790.62 1480.59 Q1795.02 1480.59 1797.31 1478.85 Q1799.63 1477.12 1799.63 1473.81 Q1799.63 1470.75 1797.47 1469.04 Q1795.34 1467.3 1791.52 1467.3 L1787.5 1467.3 L1787.5 1463.46 L1791.71 1463.46 Q1795.16 1463.46 1796.99 1462.09 Q1798.82 1460.7 1798.82 1458.11 Q1798.82 1455.45 1796.92 1454.04 Q1795.04 1452.6 1791.52 1452.6 Q1789.6 1452.6 1787.4 1453.02 Q1785.2 1453.44 1782.57 1454.31 L1782.57 1450.15 Q1785.23 1449.41 1787.54 1449.04 Q1789.88 1448.67 1791.94 1448.67 Q1797.27 1448.67 1800.37 1451.1 Q1803.47 1453.5 1803.47 1457.63 Q1803.47 1460.5 1801.83 1462.49 Q1800.18 1464.45 1797.15 1465.22 Z" fill="#000000" fill-rule="evenodd" fill-opacity="1" /><path clip-path="url(#clip700)" d="M1823.14 1452.37 Q1819.53 1452.37 1817.7 1455.94 Q1815.9 1459.48 1815.9 1466.61 Q1815.9 1473.71 1817.7 1477.28 Q1819.53 1480.82 1823.14 1480.82 Q1826.78 1480.82 1828.58 1477.28 Q1830.41 1473.71 1830.41 1466.61 Q1830.41 1459.48 1828.58 1455.94 Q1826.78 1452.37 1823.14 1452.37 M1823.14 1448.67 Q1828.95 1448.67 1832.01 1453.27 Q1835.09 1457.86 1835.09 1466.61 Q1835.09 1475.33 1832.01 1479.94 Q1828.95 1484.52 1823.14 1484.52 Q1817.33 1484.52 1814.26 1479.94 Q1811.2 1475.33 1811.2 1466.61 Q1811.2 1457.86 1814.26 1453.27 Q1817.33 1448.67 1823.14 1448.67 Z" fill="#000000" fill-rule="evenodd" fill-opacity="1" /><path clip-path="url(#clip700)" d="M1853.31 1452.37 Q1849.7 1452.37 1847.87 1455.94 Q1846.06 1459.48 1846.06 1466.61 Q1846.06 1473.71 1847.87 1477.28 Q1849.7 1480.82 1853.31 1480.82 Q1856.94 1480.82 1858.75 1477.28 Q1860.57 1473.71 1860.57 1466.61 Q1860.57 1459.48 1858.75 1455.94 Q1856.94 1452.37 1853.31 1452.37 M1853.31 1448.67 Q1859.12 1448.67 1862.17 1453.27 Q1865.25 1457.86 1865.25 1466.61 Q1865.25 1475.33 1862.17 1479.94 Q1859.12 1484.52 1853.31 1484.52 Q1847.5 1484.52 1844.42 1479.94 Q1841.36 1475.33 1841.36 1466.61 Q1841.36 1457.86 1844.42 1453.27 Q1847.5 1448.67 1853.31 1448.67 Z" fill="#000000" fill-rule="evenodd" fill-opacity="1" /><path clip-path="url(#clip700)" d="M2325.85 1453.37 L2314.04 1471.81 L2325.85 1471.81 L2325.85 1453.37 M2324.62 1449.29 L2330.5 1449.29 L2330.5 1471.81 L2335.43 1471.81 L2335.43 1475.7 L2330.5 1475.7 L2330.5 1483.85 L2325.85 1483.85 L2325.85 1475.7 L2310.24 1475.7 L2310.24 1471.19 L2324.62 1449.29 Z" fill="#000000" fill-rule="evenodd" fill-opacity="1" /><path clip-path="url(#clip700)" d="M2353.16 1452.37 Q2349.55 1452.37 2347.72 1455.94 Q2345.92 1459.48 2345.92 1466.61 Q2345.92 1473.71 2347.72 1477.28 Q2349.55 1480.82 2353.16 1480.82 Q2356.8 1480.82 2358.6 1477.28 Q2360.43 1473.71 2360.43 1466.61 Q2360.43 1459.48 2358.6 1455.94 Q2356.8 1452.37 2353.16 1452.37 M2353.16 1448.67 Q2358.97 1448.67 2362.03 1453.27 Q2365.11 1457.86 2365.11 1466.61 Q2365.11 1475.33 2362.03 1479.94 Q2358.97 1484.52 2353.16 1484.52 Q2347.35 1484.52 2344.27 1479.94 Q2341.22 1475.33 2341.22 1466.61 Q2341.22 1457.86 2344.27 1453.27 Q2347.35 1448.67 2353.16 1448.67 Z" fill="#000000" fill-rule="evenodd" fill-opacity="1" /><path clip-path="url(#clip700)" d="M2383.32 1452.37 Q2379.71 1452.37 2377.88 1455.94 Q2376.08 1459.48 2376.08 1466.61 Q2376.08 1473.71 2377.88 1477.28 Q2379.71 1480.82 2383.32 1480.82 Q2386.96 1480.82 2388.76 1477.28 Q2390.59 1473.71 2390.59 1466.61 Q2390.59 1459.48 2388.76 1455.94 Q2386.96 1452.37 2383.32 1452.37 M2383.32 1448.67 Q2389.13 1448.67 2392.19 1453.27 Q2395.27 1457.86 2395.27 1466.61 Q2395.27 1475.33 2392.19 1479.94 Q2389.13 1484.52 2383.32 1484.52 Q2377.51 1484.52 2374.43 1479.94 Q2371.38 1475.33 2371.38 1466.61 Q2371.38 1457.86 2374.43 1453.27 Q2377.51 1448.67 2383.32 1448.67 Z" fill="#000000" fill-rule="evenodd" fill-opacity="1" /><path clip-path="url(#clip700)" d="M1293.08 1522.27 L1293.08 1532.4 L1305.14 1532.4 L1305.14 1536.95 L1293.08 1536.95 L1293.08 1556.3 Q1293.08 1560.66 1294.26 1561.9 Q1295.47 1563.14 1299.13 1563.14 L1305.14 1563.14 L1305.14 1568.04 L1299.13 1568.04 Q1292.35 1568.04 1289.77 1565.53 Q1287.19 1562.98 1287.19 1556.3 L1287.19 1536.95 L1282.9 1536.95 L1282.9 1532.4 L1287.19 1532.4 L1287.19 1522.27 L1293.08 1522.27 Z" fill="#000000" fill-rule="evenodd" fill-opacity="1" /><polyline clip-path="url(#clip702)" style="stroke:#000000; stroke-linecap:butt; stroke-linejoin:round; stroke-width:2; stroke-opacity:0.1; fill:none" points="
  235.283,1386.65 2352.76,1386.65 
  "/>
<polyline clip-path="url(#clip702)" style="stroke:#000000; stroke-linecap:butt; stroke-linejoin:round; stroke-width:2; stroke-opacity:0.1; fill:none" points="
  235.283,1131.78 2352.76,1131.78 
  "/>
<polyline clip-path="url(#clip702)" style="stroke:#000000; stroke-linecap:butt; stroke-linejoin:round; stroke-width:2; stroke-opacity:0.1; fill:none" points="
  235.283,876.918 2352.76,876.918 
  "/>
<polyline clip-path="url(#clip702)" style="stroke:#000000; stroke-linecap:butt; stroke-linejoin:round; stroke-width:2; stroke-opacity:0.1; fill:none" points="
  235.283,622.052 2352.76,622.052 
  "/>
<polyline clip-path="url(#clip702)" style="stroke:#000000; stroke-linecap:butt; stroke-linejoin:round; stroke-width:2; stroke-opacity:0.1; fill:none" points="
  235.283,367.186 2352.76,367.186 
  "/>
<polyline clip-path="url(#clip700)" style="stroke:#000000; stroke-linecap:butt; stroke-linejoin:round; stroke-width:4; stroke-opacity:1; fill:none" points="
  235.283,1423.18 235.283,123.472 
  "/>
<polyline clip-path="url(#clip700)" style="stroke:#000000; stroke-linecap:butt; stroke-linejoin:round; stroke-width:4; stroke-opacity:1; fill:none" points="
  235.283,1386.65 254.18,1386.65 
  "/>
<polyline clip-path="url(#clip700)" style="stroke:#000000; stroke-linecap:butt; stroke-linejoin:round; stroke-width:4; stroke-opacity:1; fill:none" points="
  235.283,1131.78 254.18,1131.78 
  "/>
<polyline clip-path="url(#clip700)" style="stroke:#000000; stroke-linecap:butt; stroke-linejoin:round; stroke-width:4; stroke-opacity:1; fill:none" points="
  235.283,876.918 254.18,876.918 
  "/>
<polyline clip-path="url(#clip700)" style="stroke:#000000; stroke-linecap:butt; stroke-linejoin:round; stroke-width:4; stroke-opacity:1; fill:none" points="
  235.283,622.052 254.18,622.052 
  "/>
<polyline clip-path="url(#clip700)" style="stroke:#000000; stroke-linecap:butt; stroke-linejoin:round; stroke-width:4; stroke-opacity:1; fill:none" points="
  235.283,367.186 254.18,367.186 
  "/>
<path clip-path="url(#clip700)" d="M187.338 1372.45 Q183.727 1372.45 181.899 1376.01 Q180.093 1379.56 180.093 1386.69 Q180.093 1393.79 181.899 1397.36 Q183.727 1400.9 187.338 1400.9 Q190.973 1400.9 192.778 1397.36 Q194.607 1393.79 194.607 1386.69 Q194.607 1379.56 192.778 1376.01 Q190.973 1372.45 187.338 1372.45 M187.338 1368.75 Q193.149 1368.75 196.204 1373.35 Q199.283 1377.94 199.283 1386.69 Q199.283 1395.41 196.204 1400.02 Q193.149 1404.6 187.338 1404.6 Q181.528 1404.6 178.45 1400.02 Q175.394 1395.41 175.394 1386.69 Q175.394 1377.94 178.45 1373.35 Q181.528 1368.75 187.338 1368.75 Z" fill="#000000" fill-rule="evenodd" fill-opacity="1" /><path clip-path="url(#clip700)" d="M117.825 1145.13 L125.464 1145.13 L125.464 1118.76 L117.154 1120.43 L117.154 1116.17 L125.418 1114.5 L130.093 1114.5 L130.093 1145.13 L137.732 1145.13 L137.732 1149.06 L117.825 1149.06 L117.825 1145.13 Z" fill="#000000" fill-rule="evenodd" fill-opacity="1" /><path clip-path="url(#clip700)" d="M157.177 1117.58 Q153.566 1117.58 151.737 1121.15 Q149.931 1124.69 149.931 1131.82 Q149.931 1138.93 151.737 1142.49 Q153.566 1146.03 157.177 1146.03 Q160.811 1146.03 162.616 1142.49 Q164.445 1138.93 164.445 1131.82 Q164.445 1124.69 162.616 1121.15 Q160.811 1117.58 157.177 1117.58 M157.177 1113.88 Q162.987 1113.88 166.042 1118.49 Q169.121 1123.07 169.121 1131.82 Q169.121 1140.55 166.042 1145.15 Q162.987 1149.74 157.177 1149.74 Q151.366 1149.74 148.288 1145.15 Q145.232 1140.55 145.232 1131.82 Q145.232 1123.07 148.288 1118.49 Q151.366 1113.88 157.177 1113.88 Z" fill="#000000" fill-rule="evenodd" fill-opacity="1" /><path clip-path="url(#clip700)" d="M187.338 1117.58 Q183.727 1117.58 181.899 1121.15 Q180.093 1124.69 180.093 1131.82 Q180.093 1138.93 181.899 1142.49 Q183.727 1146.03 187.338 1146.03 Q190.973 1146.03 192.778 1142.49 Q194.607 1138.93 194.607 1131.82 Q194.607 1124.69 192.778 1121.15 Q190.973 1117.58 187.338 1117.58 M187.338 1113.88 Q193.149 1113.88 196.204 1118.49 Q199.283 1123.07 199.283 1131.82 Q199.283 1140.55 196.204 1145.15 Q193.149 1149.74 187.338 1149.74 Q181.528 1149.74 178.45 1145.15 Q175.394 1140.55 175.394 1131.82 Q175.394 1123.07 178.45 1118.49 Q181.528 1113.88 187.338 1113.88 Z" fill="#000000" fill-rule="evenodd" fill-opacity="1" /><path clip-path="url(#clip700)" d="M121.043 890.263 L137.362 890.263 L137.362 894.198 L115.418 894.198 L115.418 890.263 Q118.08 887.508 122.663 882.879 Q127.269 878.226 128.45 876.883 Q130.695 874.36 131.575 872.624 Q132.478 870.865 132.478 869.175 Q132.478 866.421 130.533 864.684 Q128.612 862.948 125.51 862.948 Q123.311 862.948 120.857 863.712 Q118.427 864.476 115.649 866.027 L115.649 861.305 Q118.473 860.171 120.927 859.592 Q123.38 859.013 125.418 859.013 Q130.788 859.013 133.982 861.698 Q137.177 864.384 137.177 868.874 Q137.177 871.004 136.367 872.925 Q135.579 874.823 133.473 877.416 Q132.894 878.087 129.792 881.305 Q126.691 884.499 121.043 890.263 Z" fill="#000000" fill-rule="evenodd" fill-opacity="1" /><path clip-path="url(#clip700)" d="M157.177 862.717 Q153.566 862.717 151.737 866.282 Q149.931 869.823 149.931 876.953 Q149.931 884.059 151.737 887.624 Q153.566 891.166 157.177 891.166 Q160.811 891.166 162.616 887.624 Q164.445 884.059 164.445 876.953 Q164.445 869.823 162.616 866.282 Q160.811 862.717 157.177 862.717 M157.177 859.013 Q162.987 859.013 166.042 863.62 Q169.121 868.203 169.121 876.953 Q169.121 885.68 166.042 890.286 Q162.987 894.87 157.177 894.87 Q151.366 894.87 148.288 890.286 Q145.232 885.68 145.232 876.953 Q145.232 868.203 148.288 863.62 Q151.366 859.013 157.177 859.013 Z" fill="#000000" fill-rule="evenodd" fill-opacity="1" /><path clip-path="url(#clip700)" d="M187.338 862.717 Q183.727 862.717 181.899 866.282 Q180.093 869.823 180.093 876.953 Q180.093 884.059 181.899 887.624 Q183.727 891.166 187.338 891.166 Q190.973 891.166 192.778 887.624 Q194.607 884.059 194.607 876.953 Q194.607 869.823 192.778 866.282 Q190.973 862.717 187.338 862.717 M187.338 859.013 Q193.149 859.013 196.204 863.62 Q199.283 868.203 199.283 876.953 Q199.283 885.68 196.204 890.286 Q193.149 894.87 187.338 894.87 Q181.528 894.87 178.45 890.286 Q175.394 885.68 175.394 876.953 Q175.394 868.203 178.45 863.62 Q181.528 859.013 187.338 859.013 Z" fill="#000000" fill-rule="evenodd" fill-opacity="1" /><path clip-path="url(#clip700)" d="M131.181 620.698 Q134.538 621.415 136.413 623.684 Q138.311 625.953 138.311 629.286 Q138.311 634.402 134.792 637.202 Q131.274 640.003 124.793 640.003 Q122.617 640.003 120.302 639.564 Q118.01 639.147 115.556 638.29 L115.556 633.777 Q117.501 634.911 119.816 635.489 Q122.13 636.068 124.654 636.068 Q129.052 636.068 131.343 634.332 Q133.658 632.596 133.658 629.286 Q133.658 626.23 131.505 624.517 Q129.376 622.781 125.556 622.781 L121.529 622.781 L121.529 618.939 L125.742 618.939 Q129.191 618.939 131.019 617.573 Q132.848 616.184 132.848 613.591 Q132.848 610.929 130.95 609.517 Q129.075 608.082 125.556 608.082 Q123.635 608.082 121.436 608.499 Q119.237 608.916 116.598 609.795 L116.598 605.629 Q119.26 604.888 121.575 604.517 Q123.913 604.147 125.973 604.147 Q131.297 604.147 134.399 606.578 Q137.501 608.985 137.501 613.105 Q137.501 615.976 135.857 617.966 Q134.214 619.934 131.181 620.698 Z" fill="#000000" fill-rule="evenodd" fill-opacity="1" /><path clip-path="url(#clip700)" d="M157.177 607.851 Q153.566 607.851 151.737 611.416 Q149.931 614.957 149.931 622.087 Q149.931 629.193 151.737 632.758 Q153.566 636.3 157.177 636.3 Q160.811 636.3 162.616 632.758 Q164.445 629.193 164.445 622.087 Q164.445 614.957 162.616 611.416 Q160.811 607.851 157.177 607.851 M157.177 604.147 Q162.987 604.147 166.042 608.754 Q169.121 613.337 169.121 622.087 Q169.121 630.814 166.042 635.42 Q162.987 640.003 157.177 640.003 Q151.366 640.003 148.288 635.42 Q145.232 630.814 145.232 622.087 Q145.232 613.337 148.288 608.754 Q151.366 604.147 157.177 604.147 Z" fill="#000000" fill-rule="evenodd" fill-opacity="1" /><path clip-path="url(#clip700)" d="M187.338 607.851 Q183.727 607.851 181.899 611.416 Q180.093 614.957 180.093 622.087 Q180.093 629.193 181.899 632.758 Q183.727 636.3 187.338 636.3 Q190.973 636.3 192.778 632.758 Q194.607 629.193 194.607 622.087 Q194.607 614.957 192.778 611.416 Q190.973 607.851 187.338 607.851 M187.338 604.147 Q193.149 604.147 196.204 608.754 Q199.283 613.337 199.283 622.087 Q199.283 630.814 196.204 635.42 Q193.149 640.003 187.338 640.003 Q181.528 640.003 178.45 635.42 Q175.394 630.814 175.394 622.087 Q175.394 613.337 178.45 608.754 Q181.528 604.147 187.338 604.147 Z" fill="#000000" fill-rule="evenodd" fill-opacity="1" /><path clip-path="url(#clip700)" d="M129.862 353.98 L118.056 372.429 L129.862 372.429 L129.862 353.98 M128.635 349.906 L134.515 349.906 L134.515 372.429 L139.445 372.429 L139.445 376.318 L134.515 376.318 L134.515 384.466 L129.862 384.466 L129.862 376.318 L114.26 376.318 L114.26 371.804 L128.635 349.906 Z" fill="#000000" fill-rule="evenodd" fill-opacity="1" /><path clip-path="url(#clip700)" d="M157.177 352.985 Q153.566 352.985 151.737 356.549 Q149.931 360.091 149.931 367.221 Q149.931 374.327 151.737 377.892 Q153.566 381.434 157.177 381.434 Q160.811 381.434 162.616 377.892 Q164.445 374.327 164.445 367.221 Q164.445 360.091 162.616 356.549 Q160.811 352.985 157.177 352.985 M157.177 349.281 Q162.987 349.281 166.042 353.887 Q169.121 358.471 169.121 367.221 Q169.121 375.947 166.042 380.554 Q162.987 385.137 157.177 385.137 Q151.366 385.137 148.288 380.554 Q145.232 375.947 145.232 367.221 Q145.232 358.471 148.288 353.887 Q151.366 349.281 157.177 349.281 Z" fill="#000000" fill-rule="evenodd" fill-opacity="1" /><path clip-path="url(#clip700)" d="M187.338 352.985 Q183.727 352.985 181.899 356.549 Q180.093 360.091 180.093 367.221 Q180.093 374.327 181.899 377.892 Q183.727 381.434 187.338 381.434 Q190.973 381.434 192.778 377.892 Q194.607 374.327 194.607 367.221 Q194.607 360.091 192.778 356.549 Q190.973 352.985 187.338 352.985 M187.338 349.281 Q193.149 349.281 196.204 353.887 Q199.283 358.471 199.283 367.221 Q199.283 375.947 196.204 380.554 Q193.149 385.137 187.338 385.137 Q181.528 385.137 178.45 380.554 Q175.394 375.947 175.394 367.221 Q175.394 358.471 178.45 353.887 Q181.528 349.281 187.338 349.281 Z" fill="#000000" fill-rule="evenodd" fill-opacity="1" /><path clip-path="url(#clip700)" d="M58.657 873.22 L77.5631 873.22 L77.5631 879.108 L28.3562 879.108 L28.3562 873.22 L33.7671 873.22 Q30.5842 871.374 29.0564 868.573 Q27.4968 865.74 27.4968 861.825 Q27.4968 855.332 32.6531 851.29 Q37.8093 847.216 46.212 847.216 Q54.6147 847.216 59.771 851.29 Q64.9272 855.332 64.9272 861.825 Q64.9272 865.74 63.3994 868.573 Q61.8398 871.374 58.657 873.22 M46.212 853.295 Q39.7508 853.295 36.0905 855.969 Q32.3984 858.611 32.3984 863.258 Q32.3984 867.904 36.0905 870.578 Q39.7508 873.22 46.212 873.22 Q52.6732 873.22 56.3653 870.578 Q60.0256 867.904 60.0256 863.258 Q60.0256 858.611 56.3653 855.969 Q52.6732 853.295 46.212 853.295 Z" fill="#000000" fill-rule="evenodd" fill-opacity="1" /><path clip-path="url(#clip700)" d="M44.7161 807.016 L47.5806 807.016 L47.5806 833.943 Q53.6281 833.561 56.8109 830.315 Q59.9619 827.037 59.9619 821.212 Q59.9619 817.838 59.1344 814.687 Q58.3069 811.504 56.6518 808.385 L62.1899 808.385 Q63.5267 811.536 64.227 814.846 Q64.9272 818.156 64.9272 821.562 Q64.9272 830.092 59.9619 835.089 Q54.9967 840.055 46.5303 840.055 Q37.7774 840.055 32.6531 835.344 Q27.4968 830.601 27.4968 822.581 Q27.4968 815.387 32.1438 811.218 Q36.7589 807.016 44.7161 807.016 M42.9973 812.873 Q38.1912 812.937 35.3266 815.578 Q32.4621 818.188 32.4621 822.517 Q32.4621 827.419 35.2312 830.379 Q38.0002 833.307 43.0292 833.752 L42.9973 812.873 Z" fill="#000000" fill-rule="evenodd" fill-opacity="1" /><path clip-path="url(#clip700)" d="M32.4621 783.591 Q32.4621 788.301 36.1542 791.039 Q39.8145 793.776 46.212 793.776 Q52.6095 793.776 56.3017 791.07 Q59.9619 788.333 59.9619 783.591 Q59.9619 778.912 56.2698 776.175 Q52.5777 773.437 46.212 773.437 Q39.8781 773.437 36.186 776.175 Q32.4621 778.912 32.4621 783.591 M27.4968 783.591 Q27.4968 775.952 32.4621 771.591 Q37.4273 767.231 46.212 767.231 Q54.9649 767.231 59.9619 771.591 Q64.9272 775.952 64.9272 783.591 Q64.9272 791.261 59.9619 795.622 Q54.9649 799.951 46.212 799.951 Q37.4273 799.951 32.4621 795.622 Q27.4968 791.261 27.4968 783.591 Z" fill="#000000" fill-rule="evenodd" fill-opacity="1" /><path clip-path="url(#clip700)" d="M58.657 751.858 L77.5631 751.858 L77.5631 757.746 L28.3562 757.746 L28.3562 751.858 L33.7671 751.858 Q30.5842 750.012 29.0564 747.211 Q27.4968 744.378 27.4968 740.463 Q27.4968 733.97 32.6531 729.928 Q37.8093 725.854 46.212 725.854 Q54.6147 725.854 59.771 729.928 Q64.9272 733.97 64.9272 740.463 Q64.9272 744.378 63.3994 747.211 Q61.8398 750.012 58.657 751.858 M46.212 731.933 Q39.7508 731.933 36.0905 734.607 Q32.3984 737.248 32.3984 741.895 Q32.3984 746.542 36.0905 749.216 Q39.7508 751.858 46.212 751.858 Q52.6732 751.858 56.3653 749.216 Q60.0256 746.542 60.0256 741.895 Q60.0256 737.248 56.3653 734.607 Q52.6732 731.933 46.212 731.933 Z" fill="#000000" fill-rule="evenodd" fill-opacity="1" /><path clip-path="url(#clip700)" d="M14.479 716.146 L14.479 710.29 L64.0042 710.29 L64.0042 716.146 L14.479 716.146 Z" fill="#000000" fill-rule="evenodd" fill-opacity="1" /><path clip-path="url(#clip700)" d="M44.7161 667.544 L47.5806 667.544 L47.5806 694.471 Q53.6281 694.089 56.8109 690.842 Q59.9619 687.564 59.9619 681.739 Q59.9619 678.366 59.1344 675.215 Q58.3069 672.032 56.6518 668.912 L62.1899 668.912 Q63.5267 672.064 64.227 675.374 Q64.9272 678.684 64.9272 682.089 Q64.9272 690.62 59.9619 695.617 Q54.9967 700.582 46.5303 700.582 Q37.7774 700.582 32.6531 695.871 Q27.4968 691.129 27.4968 683.108 Q27.4968 675.915 32.1438 671.745 Q36.7589 667.544 44.7161 667.544 M42.9973 673.4 Q38.1912 673.464 35.3266 676.106 Q32.4621 678.716 32.4621 683.044 Q32.4621 687.946 35.2312 690.906 Q38.0002 693.834 43.0292 694.28 L42.9973 673.4 Z" fill="#000000" fill-rule="evenodd" fill-opacity="1" /><path clip-path="url(#clip700)" d="M851.944 12.096 L860.127 12.096 L860.127 72.576 L851.944 72.576 L851.944 12.096 Z" fill="#000000" fill-rule="evenodd" fill-opacity="1" /><path clip-path="url(#clip700)" d="M913.802 45.1919 L913.802 72.576 L906.348 72.576 L906.348 45.4349 Q906.348 38.994 903.836 35.7938 Q901.325 32.5936 896.302 32.5936 Q890.266 32.5936 886.782 36.4419 Q883.298 40.2903 883.298 46.9338 L883.298 72.576 L875.804 72.576 L875.804 27.2059 L883.298 27.2059 L883.298 34.2544 Q885.972 30.163 889.577 28.1376 Q893.223 26.1121 897.962 26.1121 Q905.781 26.1121 909.791 30.9732 Q913.802 35.7938 913.802 45.1919 Z" fill="#000000" fill-rule="evenodd" fill-opacity="1" /><path clip-path="url(#clip700)" d="M951.637 9.54393 L951.637 15.7418 L944.507 15.7418 Q940.497 15.7418 938.917 17.3622 Q937.378 18.9825 937.378 23.1955 L937.378 27.2059 L949.652 27.2059 L949.652 32.9987 L937.378 32.9987 L937.378 72.576 L929.884 72.576 L929.884 32.9987 L922.754 32.9987 L922.754 27.2059 L929.884 27.2059 L929.884 24.0462 Q929.884 16.471 933.408 13.0277 Q936.932 9.54393 944.588 9.54393 L951.637 9.54393 Z" fill="#000000" fill-rule="evenodd" fill-opacity="1" /><path clip-path="url(#clip700)" d="M996.683 48.0275 L996.683 51.6733 L962.412 51.6733 Q962.898 59.3701 967.03 63.421 Q971.203 67.4314 978.616 67.4314 Q982.91 67.4314 986.92 66.3781 Q990.971 65.3249 994.941 63.2184 L994.941 70.267 Q990.931 71.9684 986.718 72.8596 Q982.505 73.7508 978.17 73.7508 Q967.314 73.7508 960.954 67.4314 Q954.635 61.1119 954.635 50.3365 Q954.635 39.1965 960.63 32.6746 Q966.666 26.1121 976.874 26.1121 Q986.029 26.1121 991.336 32.0264 Q996.683 37.9003 996.683 48.0275 M989.229 45.84 Q989.148 39.7232 985.786 36.0774 Q982.464 32.4315 976.955 32.4315 Q970.717 32.4315 966.949 35.9558 Q963.223 39.4801 962.655 45.8805 L989.229 45.84 Z" fill="#000000" fill-rule="evenodd" fill-opacity="1" /><path clip-path="url(#clip700)" d="M1041.57 28.9478 L1041.57 35.9153 Q1038.41 34.1734 1035.21 33.3227 Q1032.05 32.4315 1028.81 32.4315 Q1021.56 32.4315 1017.55 37.0496 Q1013.53 41.6271 1013.53 49.9314 Q1013.53 58.2358 1017.55 62.8538 Q1021.56 67.4314 1028.81 67.4314 Q1032.05 67.4314 1035.21 66.5807 Q1038.41 65.6895 1041.57 63.9476 L1041.57 70.8341 Q1038.45 72.2924 1035.09 73.0216 Q1031.76 73.7508 1028 73.7508 Q1017.75 73.7508 1011.71 67.3098 Q1005.68 60.8689 1005.68 49.9314 Q1005.68 38.832 1011.75 32.472 Q1017.87 26.1121 1028.48 26.1121 Q1031.93 26.1121 1035.21 26.8413 Q1038.49 27.5299 1041.57 28.9478 Z" fill="#000000" fill-rule="evenodd" fill-opacity="1" /><path clip-path="url(#clip700)" d="M1061.9 14.324 L1061.9 27.2059 L1077.26 27.2059 L1077.26 32.9987 L1061.9 32.9987 L1061.9 57.6282 Q1061.9 63.1779 1063.4 64.7578 Q1064.94 66.3376 1069.6 66.3376 L1077.26 66.3376 L1077.26 72.576 L1069.6 72.576 Q1060.97 72.576 1057.69 69.3758 Q1054.41 66.1351 1054.41 57.6282 L1054.41 32.9987 L1048.94 32.9987 L1048.94 27.2059 L1054.41 27.2059 L1054.41 14.324 L1061.9 14.324 Z" fill="#000000" fill-rule="evenodd" fill-opacity="1" /><path clip-path="url(#clip700)" d="M1125.87 48.0275 L1125.87 51.6733 L1091.6 51.6733 Q1092.08 59.3701 1096.21 63.421 Q1100.39 67.4314 1107.8 67.4314 Q1112.09 67.4314 1116.1 66.3781 Q1120.15 65.3249 1124.12 63.2184 L1124.12 70.267 Q1120.11 71.9684 1115.9 72.8596 Q1111.69 73.7508 1107.35 73.7508 Q1096.5 73.7508 1090.14 67.4314 Q1083.82 61.1119 1083.82 50.3365 Q1083.82 39.1965 1089.81 32.6746 Q1095.85 26.1121 1106.06 26.1121 Q1115.21 26.1121 1120.52 32.0264 Q1125.87 37.9003 1125.87 48.0275 M1118.41 45.84 Q1118.33 39.7232 1114.97 36.0774 Q1111.65 32.4315 1106.14 32.4315 Q1099.9 32.4315 1096.13 35.9558 Q1092.41 39.4801 1091.84 45.8805 L1118.41 45.84 Z" fill="#000000" fill-rule="evenodd" fill-opacity="1" /><path clip-path="url(#clip700)" d="M1167.96 34.0924 L1167.96 9.54393 L1175.41 9.54393 L1175.41 72.576 L1167.96 72.576 L1167.96 65.7705 Q1165.61 69.8214 1162 71.8063 Q1158.44 73.7508 1153.41 73.7508 Q1145.19 73.7508 1140 67.1883 Q1134.86 60.6258 1134.86 49.9314 Q1134.86 39.2371 1140 32.6746 Q1145.19 26.1121 1153.41 26.1121 Q1158.44 26.1121 1162 28.0971 Q1165.61 30.0415 1167.96 34.0924 M1142.56 49.9314 Q1142.56 58.1548 1145.92 62.8538 Q1149.32 67.5124 1155.24 67.5124 Q1161.15 67.5124 1164.55 62.8538 Q1167.96 58.1548 1167.96 49.9314 Q1167.96 41.7081 1164.55 37.0496 Q1161.15 32.3505 1155.24 32.3505 Q1149.32 32.3505 1145.92 37.0496 Q1142.56 41.7081 1142.56 49.9314 Z" fill="#000000" fill-rule="evenodd" fill-opacity="1" /><path clip-path="url(#clip700)" d="M1237.75 49.7694 Q1228.72 49.7694 1225.24 51.8354 Q1221.75 53.9013 1221.75 58.8839 Q1221.75 62.8538 1224.34 65.2034 Q1226.98 67.5124 1231.47 67.5124 Q1237.67 67.5124 1241.4 63.1374 Q1245.17 58.7219 1245.17 51.4303 L1245.17 49.7694 L1237.75 49.7694 M1252.62 46.6907 L1252.62 72.576 L1245.17 72.576 L1245.17 65.6895 Q1242.61 69.8214 1238.81 71.8063 Q1235 73.7508 1229.49 73.7508 Q1222.52 73.7508 1218.39 69.8619 Q1214.3 65.9325 1214.3 59.3701 Q1214.3 51.7138 1219.4 47.825 Q1224.55 43.9361 1234.71 43.9361 L1245.17 43.9361 L1245.17 43.2069 Q1245.17 38.0623 1241.76 35.2672 Q1238.4 32.4315 1232.28 32.4315 Q1228.39 32.4315 1224.71 33.3632 Q1221.02 34.295 1217.62 36.1584 L1217.62 29.2718 Q1221.71 27.692 1225.56 26.9223 Q1229.41 26.1121 1233.05 26.1121 Q1242.9 26.1121 1247.76 31.2163 Q1252.62 36.3204 1252.62 46.6907 Z" fill="#000000" fill-rule="evenodd" fill-opacity="1" /><path clip-path="url(#clip700)" d="M1305.69 45.1919 L1305.69 72.576 L1298.23 72.576 L1298.23 45.4349 Q1298.23 38.994 1295.72 35.7938 Q1293.21 32.5936 1288.19 32.5936 Q1282.15 32.5936 1278.67 36.4419 Q1275.18 40.2903 1275.18 46.9338 L1275.18 72.576 L1267.69 72.576 L1267.69 27.2059 L1275.18 27.2059 L1275.18 34.2544 Q1277.86 30.163 1281.46 28.1376 Q1285.11 26.1121 1289.85 26.1121 Q1297.67 26.1121 1301.68 30.9732 Q1305.69 35.7938 1305.69 45.1919 Z" fill="#000000" fill-rule="evenodd" fill-opacity="1" /><path clip-path="url(#clip700)" d="M1350.41 34.0924 L1350.41 9.54393 L1357.86 9.54393 L1357.86 72.576 L1350.41 72.576 L1350.41 65.7705 Q1348.06 69.8214 1344.45 71.8063 Q1340.89 73.7508 1335.87 73.7508 Q1327.64 73.7508 1322.46 67.1883 Q1317.31 60.6258 1317.31 49.9314 Q1317.31 39.2371 1322.46 32.6746 Q1327.64 26.1121 1335.87 26.1121 Q1340.89 26.1121 1344.45 28.0971 Q1348.06 30.0415 1350.41 34.0924 M1325.01 49.9314 Q1325.01 58.1548 1328.37 62.8538 Q1331.77 67.5124 1337.69 67.5124 Q1343.6 67.5124 1347.01 62.8538 Q1350.41 58.1548 1350.41 49.9314 Q1350.41 41.7081 1347.01 37.0496 Q1343.6 32.3505 1337.69 32.3505 Q1331.77 32.3505 1328.37 37.0496 Q1325.01 41.7081 1325.01 49.9314 Z" fill="#000000" fill-rule="evenodd" fill-opacity="1" /><path clip-path="url(#clip700)" d="M1399.91 12.096 L1438.15 12.096 L1438.15 18.9825 L1408.09 18.9825 L1408.09 36.8875 L1436.89 36.8875 L1436.89 43.7741 L1408.09 43.7741 L1408.09 65.6895 L1438.88 65.6895 L1438.88 72.576 L1399.91 72.576 L1399.91 12.096 Z" fill="#000000" fill-rule="evenodd" fill-opacity="1" /><path clip-path="url(#clip700)" d="M1489.72 27.2059 L1473.31 49.2833 L1490.57 72.576 L1481.78 72.576 L1468.57 54.752 L1455.37 72.576 L1446.58 72.576 L1464.2 48.8377 L1448.08 27.2059 L1456.87 27.2059 L1468.9 43.369 L1480.93 27.2059 L1489.72 27.2059 Z" fill="#000000" fill-rule="evenodd" fill-opacity="1" /><path clip-path="url(#clip700)" d="M1508.31 65.7705 L1508.31 89.8329 L1500.82 89.8329 L1500.82 27.2059 L1508.31 27.2059 L1508.31 34.0924 Q1510.66 30.0415 1514.23 28.0971 Q1517.83 26.1121 1522.81 26.1121 Q1531.08 26.1121 1536.22 32.6746 Q1541.41 39.2371 1541.41 49.9314 Q1541.41 60.6258 1536.22 67.1883 Q1531.08 73.7508 1522.81 73.7508 Q1517.83 73.7508 1514.23 71.8063 Q1510.66 69.8214 1508.31 65.7705 M1533.67 49.9314 Q1533.67 41.7081 1530.27 37.0496 Q1526.91 32.3505 1520.99 32.3505 Q1515.08 32.3505 1511.67 37.0496 Q1508.31 41.7081 1508.31 49.9314 Q1508.31 58.1548 1511.67 62.8538 Q1515.08 67.5124 1520.99 67.5124 Q1526.91 67.5124 1530.27 62.8538 Q1533.67 58.1548 1533.67 49.9314 Z" fill="#000000" fill-rule="evenodd" fill-opacity="1" /><path clip-path="url(#clip700)" d="M1571.34 32.4315 Q1565.35 32.4315 1561.87 37.1306 Q1558.38 41.7891 1558.38 49.9314 Q1558.38 58.0738 1561.82 62.7728 Q1565.31 67.4314 1571.34 67.4314 Q1577.3 67.4314 1580.78 62.7323 Q1584.27 58.0333 1584.27 49.9314 Q1584.27 41.8701 1580.78 37.1711 Q1577.3 32.4315 1571.34 32.4315 M1571.34 26.1121 Q1581.07 26.1121 1586.62 32.4315 Q1592.17 38.7509 1592.17 49.9314 Q1592.17 61.0714 1586.62 67.4314 Q1581.07 73.7508 1571.34 73.7508 Q1561.58 73.7508 1556.03 67.4314 Q1550.52 61.0714 1550.52 49.9314 Q1550.52 38.7509 1556.03 32.4315 Q1561.58 26.1121 1571.34 26.1121 Z" fill="#000000" fill-rule="evenodd" fill-opacity="1" /><path clip-path="url(#clip700)" d="M1633.44 28.5427 L1633.44 35.5912 Q1630.28 33.9709 1626.88 33.1607 Q1623.48 32.3505 1619.83 32.3505 Q1614.28 32.3505 1611.49 34.0519 Q1608.73 35.7533 1608.73 39.156 Q1608.73 41.7486 1610.72 43.2475 Q1612.7 44.7058 1618.7 46.0426 L1621.25 46.6097 Q1629.19 48.3111 1632.51 51.4303 Q1635.88 54.509 1635.88 60.0587 Q1635.88 66.3781 1630.85 70.0644 Q1625.87 73.7508 1617.12 73.7508 Q1613.47 73.7508 1609.5 73.0216 Q1605.57 72.3329 1601.2 70.9151 L1601.2 63.2184 Q1605.33 65.3654 1609.34 66.4591 Q1613.35 67.5124 1617.28 67.5124 Q1622.55 67.5124 1625.38 65.73 Q1628.22 63.9071 1628.22 60.6258 Q1628.22 57.5877 1626.15 55.9673 Q1624.13 54.3469 1617.2 52.8481 L1614.61 52.2405 Q1607.68 50.7821 1604.6 47.7845 Q1601.52 44.7463 1601.52 39.4801 Q1601.52 33.0797 1606.06 29.5959 Q1610.6 26.1121 1618.94 26.1121 Q1623.07 26.1121 1626.72 26.7198 Q1630.37 27.3274 1633.44 28.5427 Z" fill="#000000" fill-rule="evenodd" fill-opacity="1" /><path clip-path="url(#clip700)" d="M1686.55 48.0275 L1686.55 51.6733 L1652.28 51.6733 Q1652.77 59.3701 1656.9 63.421 Q1661.07 67.4314 1668.48 67.4314 Q1672.78 67.4314 1676.79 66.3781 Q1680.84 65.3249 1684.81 63.2184 L1684.81 70.267 Q1680.8 71.9684 1676.59 72.8596 Q1672.37 73.7508 1668.04 73.7508 Q1657.18 73.7508 1650.82 67.4314 Q1644.5 61.1119 1644.5 50.3365 Q1644.5 39.1965 1650.5 32.6746 Q1656.53 26.1121 1666.74 26.1121 Q1675.9 26.1121 1681.2 32.0264 Q1686.55 37.9003 1686.55 48.0275 M1679.1 45.84 Q1679.02 39.7232 1675.66 36.0774 Q1672.33 32.4315 1666.82 32.4315 Q1660.59 32.4315 1656.82 35.9558 Q1653.09 39.4801 1652.52 45.8805 L1679.1 45.84 Z" fill="#000000" fill-rule="evenodd" fill-opacity="1" /><path clip-path="url(#clip700)" d="M1728.64 34.0924 L1728.64 9.54393 L1736.09 9.54393 L1736.09 72.576 L1728.64 72.576 L1728.64 65.7705 Q1726.29 69.8214 1722.69 71.8063 Q1719.12 73.7508 1714.1 73.7508 Q1705.87 73.7508 1700.69 67.1883 Q1695.55 60.6258 1695.55 49.9314 Q1695.55 39.2371 1700.69 32.6746 Q1705.87 26.1121 1714.1 26.1121 Q1719.12 26.1121 1722.69 28.0971 Q1726.29 30.0415 1728.64 34.0924 M1703.24 49.9314 Q1703.24 58.1548 1706.6 62.8538 Q1710.01 67.5124 1715.92 67.5124 Q1721.84 67.5124 1725.24 62.8538 Q1728.64 58.1548 1728.64 49.9314 Q1728.64 41.7081 1725.24 37.0496 Q1721.84 32.3505 1715.92 32.3505 Q1710.01 32.3505 1706.6 37.0496 Q1703.24 41.7081 1703.24 49.9314 Z" fill="#000000" fill-rule="evenodd" fill-opacity="1" /><polyline clip-path="url(#clip702)" style="stroke:#009af9; stroke-linecap:butt; stroke-linejoin:round; stroke-width:4; stroke-opacity:1; fill:none" points="
  235.283,1331.07 240.577,1323.22 245.87,1315.31 251.164,1307.28 256.458,1299.06 261.751,1290.56 267.045,1281.41 272.339,1274.15 277.632,1264.15 282.926,1253.69 
  288.22,1242.79 293.513,1231.44 298.807,1219.61 304.101,1207.24 309.394,1194.39 314.688,1181.56 319.982,1168.45 325.275,1154.73 330.569,1140.46 335.863,1125.63 
  341.157,1110 346.45,1094.08 351.744,1078.4 357.038,1063.09 362.331,1047.88 367.625,1032.21 372.919,1016.41 378.212,998.742 383.506,978.341 388.8,956.535 
  394.093,934.294 399.387,911.557 404.681,888.395 409.974,864.88 415.268,840.17 420.562,813.924 425.855,786.877 431.149,759.566 436.443,732.332 441.736,705.321 
  447.03,678.487 452.324,650.393 457.618,622.597 462.911,601.382 468.205,587.894 473.499,577.839 478.792,567.257 484.086,558.085 489.38,551.636 494.673,548.265 
  499.967,547.367 505.261,548.181 510.554,550.66 515.848,554.714 521.142,560.253 526.435,567.162 531.729,574.956 537.023,583.512 542.316,592.864 547.61,603.058 
  552.904,614.157 558.197,626.241 563.491,639.444 568.785,653.968 574.079,669.541 579.372,685.917 584.666,702.946 589.96,720.365 595.253,738.222 600.547,757.141 
  605.841,777.32 611.134,798.499 616.428,819.976 621.722,841.494 627.015,862.94 632.309,883.986 637.603,904.458 642.896,924.333 648.19,943.741 653.484,962.947 
  658.777,981.916 664.071,1000.6 669.365,1019.03 674.659,1037.18 679.952,1055.04 685.246,1072.55 690.54,1089.62 695.833,1106.19 701.127,1122.38 706.421,1137.99 
  711.714,1152.86 717.008,1166.88 722.302,1180.03 727.595,1192.35 732.889,1203.96 738.183,1215.06 743.476,1225.85 748.77,1236.31 754.064,1246.33 759.357,1255.78 
  764.651,1264.58 769.945,1272.66 775.238,1279.98 780.532,1286.51 785.826,1292.26 791.12,1297.24 796.413,1301.55 801.707,1305.29 807.001,1308.54 812.294,1311.37 
  817.588,1313.81 822.882,1315.9 828.175,1317.63 833.469,1319.01 838.763,1320.09 844.056,1320.88 849.35,1321.41 854.644,1321.68 859.937,1321.68 865.231,1321.34 
  870.525,1320.63 875.818,1319.55 881.112,1318.12 886.406,1316.33 891.699,1314.18 896.993,1311.67 902.287,1308.68 907.581,1305.12 912.874,1300.97 918.168,1296.18 
  923.462,1290.72 928.755,1284.9 934.049,1278.64 939.343,1271.83 944.636,1264.51 949.93,1256.83 955.224,1249.05 960.517,1240.97 965.811,1232.36 971.105,1223.11 
  976.398,1213.23 981.692,1202.89 986.986,1191.97 992.279,1180.58 997.573,1169.44 1002.87,1158.78 1008.16,1148.3 1013.45,1137.22 1018.75,1124.91 1024.04,1112.4 
  1029.34,1099.82 1034.63,1087.19 1039.92,1074.55 1045.22,1061.88 1050.51,1048.77 1055.8,1035.24 1061.1,1021.42 1066.39,1007.47 1071.68,993.514 1076.98,979.684 
  1082.27,966.102 1087.57,952.261 1092.86,935.413 1098.15,917.199 1103.45,899.081 1108.74,881.515 1114.03,864.084 1119.33,846.838 1124.62,830.227 1129.92,814.551 
  1135.21,799.955 1140.5,786.425 1145.8,774.06 1151.09,762.68 1156.38,751.952 1161.68,741.74 1166.97,732.104 1172.26,723.299 1177.56,715.947 1182.85,709.801 
  1188.15,704.121 1193.44,698.535 1198.73,693.034 1204.03,687.979 1209.32,684.073 1214.61,681.479 1219.91,680.161 1225.2,680.218 1230.5,681.69 1235.79,684.562 
  1241.08,688.762 1246.38,694.182 1251.67,700.938 1256.96,708.937 1262.26,718.014 1267.55,728.035 1272.84,738.9 1278.14,750.54 1283.43,762.917 1288.73,776.026 
  1294.02,789.895 1299.31,804.458 1304.61,818.912 1309.9,832.981 1315.19,846.56 1320.49,859.598 1325.78,872.091 1331.08,884.089 1336.37,895.675 1341.66,906.665 
  1346.96,917.047 1352.25,926.915 1357.54,936.358 1362.84,945.456 1368.13,954.279 1373.42,962.891 1378.72,971.347 1384.01,979.749 1389.31,988.414 1394.6,997.171 
  1399.89,1005.85 1405.19,1014.37 1410.48,1022.76 1415.77,1031.14 1421.07,1038.87 1426.36,1045.92 1431.66,1052.7 1436.95,1059.43 1442.24,1066.16 1447.54,1072.83 
  1452.83,1079.55 1458.12,1086.05 1463.42,1092.12 1468.71,1097.67 1474,1102.72 1479.3,1107.37 1484.59,1111.88 1489.89,1116.48 1495.18,1121.14 1500.47,1125.79 
  1505.77,1130.38 1511.06,1134.87 1516.35,1139.26 1521.65,1143.56 1526.94,1147.75 1532.24,1151.78 1537.53,1155.67 1542.82,1159.46 1548.12,1163.17 1553.41,1166.81 
  1558.7,1170.41 1564,1173.95 1569.29,1177.44 1574.58,1180.84 1579.88,1184.18 1585.17,1187.57 1590.47,1191.07 1595.76,1194.7 1601.05,1198.46 1606.35,1202.32 
  1611.64,1206.21 1616.93,1210.03 1622.23,1213.77 1627.52,1217.45 1632.82,1221.06 1638.11,1224.61 1643.4,1228.12 1648.7,1231.56 1653.99,1234.95 1659.28,1238.27 
  1664.58,1241.52 1669.87,1244.7 1675.16,1247.82 1680.46,1250.88 1685.75,1253.89 1691.05,1256.84 1696.34,1259.73 1701.63,1262.56 1706.93,1265.32 1712.22,1268.03 
  1717.51,1270.6 1722.81,1272.89 1728.1,1274.79 1733.4,1276.24 1738.69,1277.19 1743.98,1277.67 1749.28,1277.7 1754.57,1277.47 1759.86,1277.01 1765.16,1276.16 
  1770.45,1274.86 1775.74,1273.04 1781.04,1270.7 1786.33,1267.78 1791.63,1264.21 1796.92,1259.98 1802.21,1255.08 1807.51,1249.45 1812.8,1243.01 1818.09,1235.67 
  1823.39,1227.6 1828.68,1219.05 1833.98,1210.1 1839.27,1200.83 1844.56,1191.3 1849.86,1181.55 1855.15,1171.63 1860.44,1161.58 1865.74,1151.32 1871.03,1140.79 
  1876.32,1129.99 1881.62,1119.01 1886.91,1108.04 1892.21,1097.11 1897.5,1086.25 1902.79,1075.53 1908.09,1065.01 1913.38,1054.71 1918.67,1044.61 1923.97,1034.65 
  1929.26,1024.63 1934.55,1013.89 1939.85,1002.69 1945.14,991.36 1950.44,980.159 1955.73,969.261 1961.02,958.755 1966.32,948.649 1971.61,938.798 1976.9,928.712 
  1982.2,918.196 1987.49,907.17 1992.79,895.613 1998.08,883.568 2003.37,871.14 2008.67,858.49 2013.96,845.669 2019.25,832.645 2024.55,819.399 2029.84,805.904 
  2035.13,792.124 2040.43,778.025 2045.72,764.558 2051.02,751.931 2056.31,739.649 2061.6,727.352 2066.9,714.812 2072.19,701.939 2077.48,688.774 2082.78,676.415 
  2088.07,666.095 2093.37,656.723 2098.66,647.481 2103.95,637.877 2109.25,627.754 2114.54,617.284 2119.83,608.036 2125.13,604.032 2130.42,603.358 2135.71,604.145 
  2141.01,605.303 2146.3,606.529 2151.6,608.218 2156.89,610.023 2162.18,611.642 2167.48,613.139 2172.77,614.806 2178.06,616.619 2183.36,618.503 2188.65,620.41 
  2193.95,622.315 2199.24,624.214 2204.53,626.148 2209.83,628.553 2215.12,630.981 2220.41,632.815 2225.71,633.741 2231,633.745 2236.29,633.113 2241.59,632.435 
  2246.88,632.541 2252.18,633.396 2257.47,634.195 2262.76,634.399 2268.06,633.773 2273.35,632.386 2278.64,630.609 2283.94,628.897 2289.23,627.077 2294.53,625.702 
  2299.82,625.065 2305.11,625.048 2310.41,625.128 2315.7,624.374 2320.99,621.616 2326.29,617.45 2331.58,612.089 2336.87,605.501 2342.17,597.816 2347.46,589.318 
  2352.76,580.433 
  "/>
<polyline clip-path="url(#clip702)" style="stroke:#e26f46; stroke-linecap:butt; stroke-linejoin:round; stroke-width:4; stroke-opacity:1; fill:none" points="
  235.283,1312 240.577,1313.9 245.87,1314.59 251.164,1314.22 256.458,1312.93 261.751,1310.85 267.045,1308.25 272.339,1303.76 277.632,1300.21 282.926,1296.02 
  288.22,1291.19 293.513,1285.79 298.807,1279.84 304.101,1273.51 309.394,1266.61 314.688,1257.94 319.982,1248.24 325.275,1238.42 330.569,1228.38 335.863,1218.16 
  341.157,1208.47 346.45,1198.02 351.744,1185.57 357.038,1170.86 362.331,1154.62 367.625,1138.55 372.919,1123.44 378.212,1107.62 383.506,1090.43 388.8,1072.59 
  394.093,1054.67 399.387,1036.61 404.681,1018.4 409.974,1000.08 415.268,981.868 420.562,963.687 425.855,945.248 431.149,926.405 436.443,907.16 441.736,887.669 
  447.03,868.233 452.324,848.874 457.618,829.594 462.911,811.678 468.205,795.802 473.499,781.836 478.792,766.409 484.086,755.631 489.38,754.984 494.673,763.798 
  499.967,775.274 505.261,784.666 510.554,793.64 515.848,802.389 521.142,811.08 526.435,819.591 531.729,825.401 537.023,829.671 542.316,834.136 547.61,839.821 
  552.904,847.047 558.197,855.422 563.491,864.404 568.785,875.67 574.079,888.069 579.372,900.621 584.666,913.169 589.96,926.033 595.253,939.098 600.547,952.491 
  605.841,966.263 611.134,980.375 616.428,994.698 621.722,1009.18 627.015,1023.69 632.309,1038.07 637.603,1052.2 642.896,1066.06 648.19,1079.67 653.484,1093.09 
  658.777,1106.28 664.071,1119.26 669.365,1132.08 674.659,1144.76 679.952,1157.28 685.246,1169.57 690.54,1181.55 695.833,1193.13 701.127,1204.4 706.421,1215.24 
  711.714,1225.57 717.008,1235.3 722.302,1244.44 727.595,1253 732.889,1261.07 738.183,1268.76 743.476,1276.24 748.77,1283.51 754.064,1290.46 759.357,1297.01 
  764.651,1303.1 769.945,1308.67 775.238,1313.7 780.532,1318.19 785.826,1322.13 791.12,1325.45 796.413,1328.26 801.707,1330.69 807.001,1332.81 812.294,1334.69 
  817.588,1336.34 822.882,1337.74 828.175,1338.87 833.469,1339.78 838.763,1340.49 844.056,1341 849.35,1341.34 854.644,1341.5 859.937,1341.46 865.231,1340.84 
  870.525,1339.75 875.818,1338.4 881.112,1336.91 886.406,1335.3 891.699,1333.54 896.993,1331.48 902.287,1328.65 907.581,1325.18 912.874,1321.31 918.168,1317.1 
  923.462,1312.44 928.755,1307.52 934.049,1302.31 939.343,1296.76 944.636,1290.86 949.93,1284.72 955.224,1278.54 960.517,1272.13 965.811,1265.23 971.105,1257.74 
  976.398,1249.69 981.692,1241.28 986.986,1232.8 992.279,1224.15 997.573,1215.14 1002.87,1205.72 1008.16,1196.05 1013.45,1186.47 1018.75,1177.21 1024.04,1167.8 
  1029.34,1158.26 1034.63,1148.61 1039.92,1138.89 1045.22,1129 1050.51,1117.9 1055.8,1105.95 1061.1,1093.73 1066.39,1081.62 1071.68,1069.86 1076.98,1058.5 
  1082.27,1047.42 1087.57,1035.83 1092.86,1021.46 1098.15,1005.93 1103.45,990.562 1108.74,975.785 1114.03,960.926 1119.33,945.96 1124.62,932.608 1129.92,921.68 
  1135.21,912.941 1140.5,905.11 1145.8,897.637 1151.09,890.544 1156.38,883.223 1161.68,875.492 1166.97,867.597 1172.26,860.21 1177.56,854.146 1182.85,849.067 
  1188.15,844.422 1193.44,839.929 1198.73,835.573 1204.03,831.61 1209.32,828.55 1214.61,826.529 1219.91,825.51 1225.2,825.547 1230.5,826.661 1235.79,828.848 
  1241.08,832.075 1246.38,836.292 1251.67,841.602 1256.96,847.914 1262.26,855.082 1267.55,862.991 1272.84,871.555 1278.14,880.72 1283.43,890.461 1288.73,900.782 
  1294.02,911.719 1299.31,923.304 1304.61,935.08 1309.9,946.378 1315.19,956.783 1320.49,966.14 1325.78,974.563 1331.08,982.423 1336.37,990.296 1341.66,997.638 
  1346.96,1004.39 1352.25,1010.87 1357.54,1017.29 1362.84,1023.8 1368.13,1030.43 1373.42,1037.15 1378.72,1043.81 1384.01,1050.55 1389.31,1059.13 1394.6,1068.79 
  1399.89,1078.57 1405.19,1087.85 1410.48,1096.41 1415.77,1104.34 1421.07,1111.46 1426.36,1117.87 1431.66,1123.9 1436.95,1129.76 1442.24,1135.5 1447.54,1141.15 
  1452.83,1146.84 1458.12,1152.23 1463.42,1157.07 1468.71,1161.26 1474,1164.85 1479.3,1168.05 1484.59,1171.2 1489.89,1174.55 1495.18,1178.01 1500.47,1181.51 
  1505.77,1184.99 1511.06,1188.42 1516.35,1191.78 1521.65,1195.09 1526.94,1198.32 1532.24,1201.41 1537.53,1204.4 1542.82,1207.32 1548.12,1210.2 1553.41,1213.04 
  1558.7,1215.85 1564,1218.63 1569.29,1221.37 1574.58,1224.04 1579.88,1226.71 1585.17,1229.49 1590.47,1232.44 1595.76,1235.57 1601.05,1238.86 1606.35,1242.24 
  1611.64,1245.59 1616.93,1248.77 1622.23,1251.81 1627.52,1254.77 1632.82,1257.69 1638.11,1260.59 1643.4,1263.47 1648.7,1266.31 1653.99,1269.08 1659.28,1271.77 
  1664.58,1274.38 1669.87,1276.93 1675.16,1279.41 1680.46,1281.83 1685.75,1284.18 1691.05,1286.48 1696.34,1288.72 1701.63,1290.9 1706.93,1293.04 1712.22,1295.14 
  1717.51,1297.22 1722.81,1299.2 1728.1,1300.93 1733.4,1302.31 1738.69,1303.3 1743.98,1303.86 1749.28,1304.04 1754.57,1303.88 1759.86,1303.44 1765.16,1302.68 
  1770.45,1301.6 1775.74,1300.17 1781.04,1298.35 1786.33,1296.14 1791.63,1293.52 1796.92,1290.42 1802.21,1286.79 1807.51,1282.58 1812.8,1277.73 1818.09,1272.19 
  1823.39,1265.78 1828.68,1258.69 1833.98,1251.25 1839.27,1243.66 1844.56,1236.03 1849.86,1228.35 1855.15,1220.5 1860.44,1212.27 1865.74,1204.02 1871.03,1196.11 
  1876.32,1188.66 1881.62,1181.55 1886.91,1174.38 1892.21,1167.18 1897.5,1159.93 1902.79,1152.38 1908.09,1144.42 1913.38,1136.05 1918.67,1127.42 1923.97,1118.78 
  1929.26,1110.4 1934.55,1101.76 1939.85,1092.92 1945.14,1084.06 1950.44,1075.32 1955.73,1066.8 1961.02,1058.57 1966.32,1050.67 1971.61,1042.73 1976.9,1033.24 
  1982.2,1022.8 1987.49,1012.07 1992.79,1001.42 1998.08,990.997 2003.37,980.634 2008.67,969.967 2013.96,959.578 2019.25,949.467 2024.55,939.261 2029.84,928.748 
  2035.13,917.879 2040.43,906.771 2045.72,896.322 2051.02,886.614 2056.31,877.181 2061.6,867.691 2066.9,857.947 2072.19,847.886 2077.48,837.583 2082.78,827.308 
  2088.07,817.363 2093.37,807.79 2098.66,798.572 2103.95,789.629 2109.25,780.824 2114.54,771.961 2119.83,766.315 2125.13,774.269 2130.42,787.237 2135.71,798.692 
  2141.01,806.628 2146.3,813.447 2151.6,820.474 2156.89,826.233 2162.18,830.399 2167.48,833.472 2172.77,836.419 2178.06,839.216 2183.36,841.702 2188.65,843.814 
  2193.95,845.576 2199.24,847.105 2204.53,848.573 2209.83,849.313 2215.12,850.065 2220.41,851.9 2225.71,855.349 2231,860.402 2236.29,866.511 2241.59,872.59 
  2246.88,877.496 2252.18,882.016 2257.47,885.739 2262.76,888.284 2268.06,889.56 2273.35,889.764 2278.64,889.382 2283.94,890.14 2289.23,893.935 2294.53,895.097 
  2299.82,889.648 2305.11,876.232 2310.41,856.114 2315.7,833.18 2320.99,813.328 2326.29,795.905 2331.58,780.15 2336.87,766.23 2342.17,753.981 2347.46,742.906 
  2352.76,732.21 
  "/>
<polyline clip-path="url(#clip702)" style="stroke:#3da44d; stroke-linecap:butt; stroke-linejoin:round; stroke-width:4; stroke-opacity:1; fill:none" points="
  235.283,1386.4 240.577,1375.83 245.87,1365.07 251.164,1354.11 256.458,1342.95 261.751,1331.58 267.045,1319.97 272.339,1308.11 277.632,1296.13 282.926,1283.68 
  288.22,1270.76 293.513,1257.32 298.807,1243.34 304.101,1228.8 309.394,1213.67 314.688,1197.97 319.982,1181.74 325.275,1164.98 330.569,1147.63 335.863,1129.66 
  341.157,1111.01 346.45,1091.7 351.744,1071.8 357.038,1051.36 362.331,1030.49 367.625,1009.26 372.919,987.654 378.212,965.517 383.506,942.578 388.8,918.47 
  394.093,893.147 399.387,866.699 404.681,839.173 409.974,810.621 415.268,781.18 420.562,750.696 425.855,718.908 431.149,685.719 436.443,651.195 441.736,615.571 
  447.03,579.244 452.324,542.461 457.618,504.966 462.911,467.4 468.205,430.717 473.499,396.122 478.792,363.821 484.086,333.466 489.38,305.147 494.673,279.077 
  499.967,255.589 505.261,234.839 510.554,216.739 515.848,201.273 521.142,188.415 526.435,178.12 531.729,170.202 537.023,164.612 542.316,161.321 547.61,160.256 
  552.904,161.302 558.197,164.299 563.491,169.087 568.785,175.781 574.079,184.383 579.372,194.842 584.666,207.088 589.96,221.014 595.253,236.509 600.547,253.54 
  605.841,272.09 611.134,292.158 616.428,313.754 621.722,336.757 627.015,360.951 632.309,386.162 637.603,412.213 642.896,438.928 648.19,466.131 653.484,493.649 
  658.777,521.414 664.071,549.378 669.365,577.472 674.659,605.631 679.952,633.791 685.246,661.89 690.54,689.867 695.833,717.666 701.127,745.217 706.421,772.444 
  711.714,799.271 717.008,825.621 722.302,851.42 727.595,876.596 732.889,901.076 738.183,924.788 743.476,947.701 748.77,969.902 754.064,991.396 759.357,1012.17 
  764.651,1032.21 769.945,1051.48 775.238,1069.94 780.532,1087.54 785.826,1104.23 791.12,1119.96 796.413,1134.73 801.707,1148.54 807.001,1161.41 812.294,1173.37 
  817.588,1184.43 822.882,1194.63 828.175,1204.01 833.469,1212.61 838.763,1220.44 844.056,1227.55 849.35,1233.97 854.644,1239.73 859.937,1244.86 865.231,1249.34 
  870.525,1253.22 875.818,1256.51 881.112,1259.24 886.406,1261.39 891.699,1262.97 896.993,1263.92 902.287,1264.25 907.581,1263.96 912.874,1263.03 918.168,1261.42 
  923.462,1259.07 928.755,1255.97 934.049,1252.15 939.343,1247.6 944.636,1242.33 949.93,1236.32 955.224,1229.6 960.517,1222.23 965.811,1214.2 971.105,1205.51 
  976.398,1196.13 981.692,1186.02 986.986,1175.19 992.279,1163.68 997.573,1151.47 1002.87,1138.61 1008.16,1125.18 1013.45,1111.34 1018.75,1097.13 1024.04,1082.33 
  1029.34,1066.98 1034.63,1051.14 1039.92,1034.84 1045.22,1018.14 1050.51,1000.99 1055.8,983.392 1061.1,965.393 1066.39,947.021 1071.68,928.308 1076.98,909.281 
  1082.27,889.964 1087.57,870.354 1092.86,850.199 1098.15,829.266 1103.45,807.486 1108.74,784.953 1114.03,761.875 1119.33,738.344 1124.62,714.48 1129.92,690.439 
  1135.21,666.41 1140.5,642.61 1145.8,619.24 1151.09,596.403 1156.38,574.179 1161.68,552.63 1166.97,531.794 1172.26,511.688 1177.56,492.411 1182.85,474.101 
  1188.15,456.775 1193.44,440.427 1198.73,425.021 1204.03,410.497 1209.32,396.776 1214.61,383.994 1219.91,372.325 1225.2,361.874 1230.5,352.74 1235.79,345.018 
  1241.08,338.793 1246.38,334.136 1251.67,330.985 1256.96,329.419 1262.26,329.537 1267.55,331.398 1272.84,335.014 1278.14,340.358 1283.43,347.357 1288.73,355.896 
  1294.02,365.817 1299.31,376.963 1304.61,389.377 1309.9,402.91 1315.19,417.369 1320.49,432.573 1325.78,448.345 1331.08,464.514 1336.37,480.915 1341.66,497.379 
  1346.96,513.836 1352.25,530.244 1357.54,546.557 1362.84,562.727 1368.13,578.708 1373.42,594.449 1378.72,609.897 1384.01,624.981 1389.31,639.666 1394.6,654.23 
  1399.89,668.852 1405.19,683.559 1410.48,698.225 1415.77,712.577 1421.07,726.629 1426.36,740.411 1431.66,753.836 1436.95,766.89 1442.24,779.631 1447.54,792.163 
  1452.83,804.476 1458.12,816.544 1463.42,828.344 1468.71,839.846 1474,851.013 1479.3,861.804 1484.59,872.169 1489.89,882.132 1495.18,891.778 1500.47,901.157 
  1505.77,910.304 1511.06,919.236 1516.35,927.959 1521.65,936.461 1526.94,944.736 1532.24,952.808 1537.53,960.671 1542.82,968.321 1548.12,975.763 1553.41,983.004 
  1558.7,990.056 1564,996.937 1569.29,1003.67 1574.58,1010.24 1579.88,1016.64 1585.17,1022.92 1590.47,1029.13 1595.76,1035.29 1601.05,1041.42 1606.35,1047.54 
  1611.64,1053.64 1616.93,1059.71 1622.23,1065.77 1627.52,1071.8 1632.82,1077.79 1638.11,1083.74 1643.4,1089.63 1648.7,1095.48 1653.99,1101.27 1659.28,1107 
  1664.58,1112.66 1669.87,1118.26 1675.16,1123.78 1680.46,1129.23 1685.75,1134.59 1691.05,1139.87 1696.34,1145.06 1701.63,1150.17 1706.93,1155.2 1712.22,1160.14 
  1717.51,1164.99 1722.81,1169.7 1728.1,1174.26 1733.4,1178.61 1738.69,1182.71 1743.98,1186.49 1749.28,1189.87 1754.57,1192.82 1759.86,1195.36 1765.16,1197.49 
  1770.45,1199.22 1775.74,1200.48 1781.04,1201.23 1786.33,1201.42 1791.63,1201.01 1796.92,1199.96 1802.21,1198.21 1807.51,1195.7 1812.8,1192.39 1818.09,1188.25 
  1823.39,1183.13 1828.68,1177.08 1833.98,1170.2 1839.27,1162.56 1844.56,1154.19 1849.86,1145.08 1855.15,1135.19 1860.44,1124.61 1865.74,1113.42 1871.03,1101.64 
  1876.32,1089.31 1881.62,1076.45 1886.91,1063.09 1892.21,1049.31 1897.5,1035.15 1902.79,1020.7 1908.09,1005.99 1913.38,991.084 1918.67,976.045 1923.97,960.925 
  1929.26,945.784 1934.55,930.609 1939.85,915.248 1945.14,899.604 1950.44,883.647 1955.73,867.422 1961.02,851.04 1966.32,834.687 1971.61,818.532 1976.9,802.35 
  1982.2,786.151 1987.49,769.95 1992.79,753.708 1998.08,737.333 2003.37,720.683 2008.67,703.57 2013.96,686.093 2019.25,668.309 2024.55,650.184 2029.84,631.705 
  2035.13,612.878 2040.43,593.73 2045.72,574.271 2051.02,554.66 2056.31,535.058 2061.6,515.55 2066.9,496.139 2072.19,476.753 2077.48,457.238 2082.78,437.403 
  2088.07,417.558 2093.37,398.202 2098.66,379.6 2103.95,361.787 2109.25,344.558 2114.54,327.478 2119.83,310.192 2125.13,293.798 2130.42,278.72 2135.71,265.163 
  2141.01,253.258 2146.3,243.054 2151.6,234.337 2156.89,226.913 2162.18,220.648 2167.48,215.385 2172.77,210.986 2178.06,207.398 2183.36,204.543 2188.65,202.347 
  2193.95,200.74 2199.24,199.656 2204.53,199.037 2209.83,198.898 2215.12,199.17 2220.41,199.729 2225.71,200.459 2231,201.244 2236.29,201.973 2241.59,202.539 
  2246.88,202.905 2252.18,203.325 2257.47,203.798 2262.76,204.27 2268.06,204.667 2273.35,204.902 2278.64,204.869 2283.94,204.456 2289.23,203.724 2294.53,202.854 
  2299.82,201.969 2305.11,201.13 2310.41,200.333 2315.7,199.51 2320.99,198.509 2326.29,196.974 2331.58,194.751 2336.87,191.749 2342.17,187.876 2347.46,183.04 
  2352.76,177.156 
  "/>
<polyline clip-path="url(#clip702)" style="stroke:#c271d2; stroke-linecap:butt; stroke-linejoin:round; stroke-width:4; stroke-opacity:1; fill:none" points="
  235.283,1386.4 240.577,1373.35 245.87,1362 251.164,1351.97 256.458,1342.93 261.751,1334.61 267.045,1326.79 272.339,1319.29 277.632,1311.89 282.926,1304.64 
  288.22,1297.4 293.513,1290.09 298.807,1282.59 304.101,1274.84 309.394,1266.8 314.688,1258.3 319.982,1249.13 325.275,1239.25 330.569,1228.73 335.863,1217.6 
  341.157,1205.99 346.45,1193.84 351.744,1180.98 357.038,1167.24 362.331,1152.43 367.625,1136.37 372.919,1119.3 378.212,1101.41 383.506,1082.66 388.8,1062.92 
  394.093,1042.22 399.387,1020.67 404.681,998.337 409.974,975.294 415.268,951.431 420.562,926.856 425.855,901.87 431.149,876.634 436.443,851.172 441.736,825.367 
  447.03,798.964 452.324,771.801 457.618,744.276 462.911,716.55 468.205,688.9 473.499,661.741 478.792,635.067 484.086,609.334 489.38,585.491 494.673,564.622 
  499.967,547.937 505.261,535.301 510.554,525.731 515.848,518.843 521.142,514.298 526.435,511.851 531.729,511.525 537.023,512.347 542.316,513.536 547.61,514.813 
  552.904,516.403 558.197,519.036 563.491,523.657 568.785,529.648 574.079,537.118 579.372,546.131 584.666,556.434 589.96,567.676 595.253,579.939 600.547,593.169 
  605.841,607.309 611.134,622.312 616.428,638.142 621.722,654.747 627.015,672.04 632.309,689.929 637.603,708.323 642.896,727.129 648.19,746.252 653.484,765.598 
  658.777,785.101 664.071,804.72 669.365,824.414 674.659,844.145 679.952,863.871 685.246,883.554 690.54,903.153 695.833,922.627 701.127,941.911 706.421,960.953 
  711.714,979.706 717.008,998.122 722.302,1016.15 727.595,1033.73 732.889,1050.83 738.183,1067.37 743.476,1083.34 748.77,1098.79 754.064,1113.74 759.357,1128.2 
  764.651,1142.15 769.945,1155.57 775.238,1168.43 780.532,1180.68 785.826,1192.26 791.12,1203.19 796.413,1213.44 801.707,1222.97 807.001,1231.8 812.294,1239.95 
  817.588,1247.47 822.882,1254.44 828.175,1260.86 833.469,1266.73 838.763,1272.08 844.056,1276.93 849.35,1281.3 854.644,1285.22 859.937,1288.71 865.231,1291.83 
  870.525,1294.49 875.818,1296.59 881.112,1298.11 886.406,1299.07 891.699,1299.58 896.993,1299.77 902.287,1299.6 907.581,1298.9 912.874,1297.59 918.168,1295.66 
  923.462,1293.19 928.755,1290.17 934.049,1286.58 939.343,1282.44 944.636,1277.77 949.93,1272.55 955.224,1266.83 960.517,1260.63 965.811,1253.93 971.105,1246.73 
  976.398,1238.99 981.692,1230.67 986.986,1221.76 992.279,1212.32 997.573,1202.37 1002.87,1191.94 1008.16,1181.04 1013.45,1169.67 1018.75,1157.88 1024.04,1145.77 
  1029.34,1133.34 1034.63,1120.62 1039.92,1107.63 1045.22,1094.41 1050.51,1081.11 1055.8,1067.41 1061.1,1053.02 1066.39,1037.83 1071.68,1021.91 1076.98,1005.46 
  1082.27,988.897 1087.57,972.604 1092.86,955.884 1098.15,938.47 1103.45,920.334 1108.74,901.545 1114.03,882.224 1119.33,862.453 1124.62,842.473 1129.92,822.568 
  1135.21,803.056 1140.5,784.289 1145.8,766.378 1151.09,749.176 1156.38,732.625 1161.68,716.656 1166.97,701.183 1172.26,686.106 1177.56,671.488 1182.85,657.524 
  1188.15,644.249 1193.44,631.675 1198.73,619.793 1204.03,608.574 1209.32,597.969 1214.61,588.088 1219.91,579.064 1225.2,570.98 1230.5,563.913 1235.79,557.935 
  1241.08,553.115 1246.38,549.505 1251.67,547.073 1256.96,545.886 1262.26,546.02 1267.55,547.521 1272.84,550.399 1278.14,554.632 1283.43,560.166 1288.73,566.91 
  1294.02,574.745 1299.31,583.557 1304.61,593.424 1309.9,604.18 1315.19,615.62 1320.49,627.545 1325.78,639.764 1331.08,652.094 1336.37,664.382 1341.66,676.817 
  1346.96,689.246 1352.25,701.428 1357.54,713.22 1362.84,724.577 1368.13,735.55 1373.42,746.288 1378.72,757.039 1384.01,768.18 1389.31,779.988 1394.6,792.022 
  1399.89,803.976 1405.19,815.79 1410.48,827.646 1415.77,839.958 1421.07,852.499 1426.36,864.825 1431.66,876.846 1436.95,888.528 1442.24,899.894 1447.54,911.012 
  1452.83,921.878 1458.12,932.466 1463.42,942.745 1468.71,952.678 1474,962.221 1479.3,971.324 1484.59,979.933 1489.89,988.097 1495.18,995.934 1500.47,1003.5 
  1505.77,1010.83 1511.06,1017.96 1516.35,1024.9 1521.65,1031.64 1526.94,1038.19 1532.24,1044.57 1537.53,1050.78 1542.82,1056.8 1548.12,1062.63 1553.41,1068.29 
  1558.7,1073.79 1564,1079.15 1569.29,1084.42 1574.58,1089.65 1579.88,1094.83 1585.17,1099.91 1590.47,1104.88 1595.76,1109.74 1601.05,1114.53 1606.35,1119.3 
  1611.64,1124.13 1616.93,1129.1 1622.23,1134.1 1627.52,1139.06 1632.82,1143.99 1638.11,1148.88 1643.4,1153.72 1648.7,1158.52 1653.99,1163.28 1659.28,1167.97 
  1664.58,1172.59 1669.87,1177.14 1675.16,1181.62 1680.46,1186.04 1685.75,1190.39 1691.05,1194.67 1696.34,1198.88 1701.63,1203.01 1706.93,1207.05 1712.22,1211 
  1717.51,1214.91 1722.81,1218.78 1728.1,1222.51 1733.4,1226.02 1738.69,1229.3 1743.98,1232.31 1749.28,1235.09 1754.57,1237.61 1759.86,1239.79 1765.16,1241.61 
  1770.45,1243.05 1775.74,1244.09 1781.04,1244.73 1786.33,1244.94 1791.63,1244.68 1796.92,1243.95 1802.21,1242.72 1807.51,1240.95 1812.8,1238.59 1818.09,1235.55 
  1823.39,1231.84 1828.68,1227.39 1833.98,1222.13 1839.27,1216.07 1844.56,1209.26 1849.86,1201.8 1855.15,1193.87 1860.44,1185.47 1865.74,1176.57 1871.03,1167.26 
  1876.32,1157.63 1881.62,1147.75 1886.91,1137.74 1892.21,1127.61 1897.5,1117.33 1902.79,1106.87 1908.09,1096.23 1913.38,1085.37 1918.67,1074.28 1923.97,1062.93 
  1929.26,1051.32 1934.55,1039.52 1939.85,1027.53 1945.14,1015.32 1950.44,1002.91 1955.73,990.327 1961.02,977.653 1966.32,964.981 1971.61,952.484 1976.9,940.22 
  1982.2,927.659 1987.49,914.438 1992.79,900.429 1998.08,885.74 2003.37,870.716 2008.67,855.905 2013.96,841.06 2019.25,826.053 2024.55,810.996 2029.84,795.904 
  2035.13,780.702 2040.43,765.218 2045.72,749.426 2051.02,733.574 2056.31,717.831 2061.6,702.276 2066.9,686.9 2072.19,671.606 2077.48,656.209 2082.78,640.702 
  2088.07,625.339 2093.37,609.96 2098.66,594.481 2103.95,578.914 2109.25,563.362 2114.54,548.025 2119.83,532.924 2125.13,518.792 2130.42,508.453 2135.71,502.929 
  2141.01,501.138 2146.3,500.028 2151.6,499.414 2156.89,499.991 2162.18,501.414 2167.48,503.348 2172.77,505.543 2178.06,507.983 2183.36,510.609 2188.65,513.36 
  2193.95,516.17 2199.24,518.975 2204.53,521.705 2209.83,524.248 2215.12,526.694 2220.41,529.203 2225.71,531.927 2231,535.008 2236.29,538.579 2241.59,542.762 
  2246.88,547.589 2252.18,552.682 2257.47,557.885 2262.76,563.071 2268.06,568.092 2273.35,572.78 2278.64,576.949 2283.94,580.591 2289.23,584.285 2294.53,587.575 
  2299.82,589.833 2305.11,590.389 2310.41,588.533 2315.7,583.517 2320.99,574.712 2326.29,563.441 2331.58,550.53 2336.87,536.393 2342.17,521.428 2347.46,506.019 
  2352.76,490.52 
  "/>
<path clip-path="url(#clip700)" d="
M1831.71 425.996 L2282.17 425.996 L2282.17 166.796 L1831.71 166.796  Z
  " fill="#ffffff" fill-rule="evenodd" fill-opacity="1"/>
<polyline clip-path="url(#clip700)" style="stroke:#000000; stroke-linecap:butt; stroke-linejoin:round; stroke-width:4; stroke-opacity:1; fill:none" points="
  1831.71,425.996 2282.17,425.996 2282.17,166.796 1831.71,166.796 1831.71,425.996 
  "/>
<polyline clip-path="url(#clip700)" style="stroke:#009af9; stroke-linecap:butt; stroke-linejoin:round; stroke-width:4; stroke-opacity:1; fill:none" points="
  1855.24,218.636 1996.41,218.636 
  "/>
<path clip-path="url(#clip700)" d="M2030.56 199.944 Q2027.46 205.268 2025.95 210.476 Q2024.45 215.684 2024.45 221.032 Q2024.45 226.379 2025.95 231.633 Q2027.48 236.865 2030.56 242.166 L2026.86 242.166 Q2023.38 236.726 2021.65 231.471 Q2019.93 226.217 2019.93 221.032 Q2019.93 215.87 2021.65 210.638 Q2023.36 205.407 2026.86 199.944 L2030.56 199.944 Z" fill="#000000" fill-rule="evenodd" fill-opacity="1" /><path clip-path="url(#clip700)" d="M2043.04 202.629 L2043.04 209.99 L2051.81 209.99 L2051.81 213.3 L2043.04 213.3 L2043.04 227.374 Q2043.04 230.545 2043.89 231.448 Q2044.77 232.351 2047.43 232.351 L2051.81 232.351 L2051.81 235.916 L2047.43 235.916 Q2042.5 235.916 2040.63 234.087 Q2038.75 232.235 2038.75 227.374 L2038.75 213.3 L2035.63 213.3 L2035.63 209.99 L2038.75 209.99 L2038.75 202.629 L2043.04 202.629 Z" fill="#000000" fill-rule="evenodd" fill-opacity="1" /><path clip-path="url(#clip700)" d="M2058.5 230.036 L2063.38 230.036 L2063.38 234.018 L2059.59 241.425 L2056.6 241.425 L2058.5 234.018 L2058.5 230.036 Z" fill="#000000" fill-rule="evenodd" fill-opacity="1" /><path clip-path="url(#clip700)" d="M2072.67 201.356 L2094.52 201.356 L2094.52 205.291 L2077.34 205.291 L2077.34 215.522 L2093.8 215.522 L2093.8 219.457 L2077.34 219.457 L2077.34 231.981 L2094.93 231.981 L2094.93 235.916 L2072.67 235.916 L2072.67 201.356 Z" fill="#000000" fill-rule="evenodd" fill-opacity="1" /><path clip-path="url(#clip700)" d="M2102.04 199.897 L2111.86 199.897 L2111.86 203.208 L2106.3 203.208 L2106.3 238.856 L2111.86 238.856 L2111.86 242.166 L2102.04 242.166 L2102.04 199.897 Z" fill="#000000" fill-rule="evenodd" fill-opacity="1" /><path clip-path="url(#clip700)" d="M2122.34 231.981 L2129.98 231.981 L2129.98 205.615 L2121.67 207.282 L2121.67 203.022 L2129.93 201.356 L2134.61 201.356 L2134.61 231.981 L2142.25 231.981 L2142.25 235.916 L2122.34 235.916 L2122.34 231.981 Z" fill="#000000" fill-rule="evenodd" fill-opacity="1" /><path clip-path="url(#clip700)" d="M2161.04 199.897 L2161.04 242.166 L2151.23 242.166 L2151.23 238.856 L2156.76 238.856 L2156.76 203.208 L2151.23 203.208 L2151.23 199.897 L2161.04 199.897 Z" fill="#000000" fill-rule="evenodd" fill-opacity="1" /><path clip-path="url(#clip700)" d="M2179.82 199.944 Q2176.72 205.268 2175.21 210.476 Q2173.71 215.684 2173.71 221.032 Q2173.71 226.379 2175.21 231.633 Q2176.74 236.865 2179.82 242.166 L2176.11 242.166 Q2172.64 236.726 2170.91 231.471 Q2169.19 226.217 2169.19 221.032 Q2169.19 215.87 2170.91 210.638 Q2172.62 205.407 2176.11 199.944 L2179.82 199.944 Z" fill="#000000" fill-rule="evenodd" fill-opacity="1" /><path clip-path="url(#clip700)" d="M2192.29 202.629 L2192.29 209.99 L2201.07 209.99 L2201.07 213.3 L2192.29 213.3 L2192.29 227.374 Q2192.29 230.545 2193.15 231.448 Q2194.03 232.351 2196.69 232.351 L2201.07 232.351 L2201.07 235.916 L2196.69 235.916 Q2191.76 235.916 2189.89 234.087 Q2188.01 232.235 2188.01 227.374 L2188.01 213.3 L2184.89 213.3 L2184.89 209.99 L2188.01 209.99 L2188.01 202.629 L2192.29 202.629 Z" fill="#000000" fill-rule="evenodd" fill-opacity="1" /><path clip-path="url(#clip700)" d="M2206 199.944 L2209.7 199.944 Q2213.17 205.407 2214.89 210.638 Q2216.62 215.87 2216.62 221.032 Q2216.62 226.217 2214.89 231.471 Q2213.17 236.726 2209.7 242.166 L2206 242.166 Q2209.08 236.865 2210.58 231.633 Q2212.11 226.379 2212.11 221.032 Q2212.11 215.684 2210.58 210.476 Q2209.08 205.268 2206 199.944 Z" fill="#000000" fill-rule="evenodd" fill-opacity="1" /><path clip-path="url(#clip700)" d="M2224.49 199.944 L2228.2 199.944 Q2231.67 205.407 2233.38 210.638 Q2235.12 215.87 2235.12 221.032 Q2235.12 226.217 2233.38 231.471 Q2231.67 236.726 2228.2 242.166 L2224.49 242.166 Q2227.57 236.865 2229.08 231.633 Q2230.6 226.379 2230.6 221.032 Q2230.6 215.684 2229.08 210.476 Q2227.57 205.268 2224.49 199.944 Z" fill="#000000" fill-rule="evenodd" fill-opacity="1" /><polyline clip-path="url(#clip700)" style="stroke:#e26f46; stroke-linecap:butt; stroke-linejoin:round; stroke-width:4; stroke-opacity:1; fill:none" points="
  1855.24,270.476 1996.41,270.476 
  "/>
<path clip-path="url(#clip700)" d="M2030.56 251.784 Q2027.46 257.108 2025.95 262.316 Q2024.45 267.524 2024.45 272.872 Q2024.45 278.219 2025.95 283.473 Q2027.48 288.705 2030.56 294.006 L2026.86 294.006 Q2023.38 288.566 2021.65 283.311 Q2019.93 278.057 2019.93 272.872 Q2019.93 267.71 2021.65 262.478 Q2023.36 257.247 2026.86 251.784 L2030.56 251.784 Z" fill="#000000" fill-rule="evenodd" fill-opacity="1" /><path clip-path="url(#clip700)" d="M2043.04 254.469 L2043.04 261.83 L2051.81 261.83 L2051.81 265.14 L2043.04 265.14 L2043.04 279.214 Q2043.04 282.385 2043.89 283.288 Q2044.77 284.191 2047.43 284.191 L2051.81 284.191 L2051.81 287.756 L2047.43 287.756 Q2042.5 287.756 2040.63 285.927 Q2038.75 284.075 2038.75 279.214 L2038.75 265.14 L2035.63 265.14 L2035.63 261.83 L2038.75 261.83 L2038.75 254.469 L2043.04 254.469 Z" fill="#000000" fill-rule="evenodd" fill-opacity="1" /><path clip-path="url(#clip700)" d="M2058.5 281.876 L2063.38 281.876 L2063.38 285.858 L2059.59 293.265 L2056.6 293.265 L2058.5 285.858 L2058.5 281.876 Z" fill="#000000" fill-rule="evenodd" fill-opacity="1" /><path clip-path="url(#clip700)" d="M2072.67 253.196 L2094.52 253.196 L2094.52 257.131 L2077.34 257.131 L2077.34 267.362 L2093.8 267.362 L2093.8 271.297 L2077.34 271.297 L2077.34 283.821 L2094.93 283.821 L2094.93 287.756 L2072.67 287.756 L2072.67 253.196 Z" fill="#000000" fill-rule="evenodd" fill-opacity="1" /><path clip-path="url(#clip700)" d="M2102.04 251.737 L2111.86 251.737 L2111.86 255.048 L2106.3 255.048 L2106.3 290.696 L2111.86 290.696 L2111.86 294.006 L2102.04 294.006 L2102.04 251.737 Z" fill="#000000" fill-rule="evenodd" fill-opacity="1" /><path clip-path="url(#clip700)" d="M2125.56 283.821 L2141.88 283.821 L2141.88 287.756 L2119.93 287.756 L2119.93 283.821 Q2122.6 281.066 2127.18 276.436 Q2131.79 271.784 2132.97 270.441 Q2135.21 267.918 2136.09 266.182 Q2136.99 264.423 2136.99 262.733 Q2136.99 259.978 2135.05 258.242 Q2133.13 256.506 2130.03 256.506 Q2127.83 256.506 2125.37 257.27 Q2122.94 258.034 2120.17 259.585 L2120.17 254.862 Q2122.99 253.728 2125.44 253.149 Q2127.9 252.571 2129.93 252.571 Q2135.3 252.571 2138.5 255.256 Q2141.69 257.941 2141.69 262.432 Q2141.69 264.561 2140.88 266.483 Q2140.1 268.381 2137.99 270.973 Q2137.41 271.645 2134.31 274.862 Q2131.21 278.057 2125.56 283.821 Z" fill="#000000" fill-rule="evenodd" fill-opacity="1" /><path clip-path="url(#clip700)" d="M2161.04 251.737 L2161.04 294.006 L2151.23 294.006 L2151.23 290.696 L2156.76 290.696 L2156.76 255.048 L2151.23 255.048 L2151.23 251.737 L2161.04 251.737 Z" fill="#000000" fill-rule="evenodd" fill-opacity="1" /><path clip-path="url(#clip700)" d="M2179.82 251.784 Q2176.72 257.108 2175.21 262.316 Q2173.71 267.524 2173.71 272.872 Q2173.71 278.219 2175.21 283.473 Q2176.74 288.705 2179.82 294.006 L2176.11 294.006 Q2172.64 288.566 2170.91 283.311 Q2169.19 278.057 2169.19 272.872 Q2169.19 267.71 2170.91 262.478 Q2172.62 257.247 2176.11 251.784 L2179.82 251.784 Z" fill="#000000" fill-rule="evenodd" fill-opacity="1" /><path clip-path="url(#clip700)" d="M2192.29 254.469 L2192.29 261.83 L2201.07 261.83 L2201.07 265.14 L2192.29 265.14 L2192.29 279.214 Q2192.29 282.385 2193.15 283.288 Q2194.03 284.191 2196.69 284.191 L2201.07 284.191 L2201.07 287.756 L2196.69 287.756 Q2191.76 287.756 2189.89 285.927 Q2188.01 284.075 2188.01 279.214 L2188.01 265.14 L2184.89 265.14 L2184.89 261.83 L2188.01 261.83 L2188.01 254.469 L2192.29 254.469 Z" fill="#000000" fill-rule="evenodd" fill-opacity="1" /><path clip-path="url(#clip700)" d="M2206 251.784 L2209.7 251.784 Q2213.17 257.247 2214.89 262.478 Q2216.62 267.71 2216.62 272.872 Q2216.62 278.057 2214.89 283.311 Q2213.17 288.566 2209.7 294.006 L2206 294.006 Q2209.08 288.705 2210.58 283.473 Q2212.11 278.219 2212.11 272.872 Q2212.11 267.524 2210.58 262.316 Q2209.08 257.108 2206 251.784 Z" fill="#000000" fill-rule="evenodd" fill-opacity="1" /><path clip-path="url(#clip700)" d="M2224.49 251.784 L2228.2 251.784 Q2231.67 257.247 2233.38 262.478 Q2235.12 267.71 2235.12 272.872 Q2235.12 278.057 2233.38 283.311 Q2231.67 288.566 2228.2 294.006 L2224.49 294.006 Q2227.57 288.705 2229.08 283.473 Q2230.6 278.219 2230.6 272.872 Q2230.6 267.524 2229.08 262.316 Q2227.57 257.108 2224.49 251.784 Z" fill="#000000" fill-rule="evenodd" fill-opacity="1" /><polyline clip-path="url(#clip700)" style="stroke:#3da44d; stroke-linecap:butt; stroke-linejoin:round; stroke-width:4; stroke-opacity:1; fill:none" points="
  1855.24,322.316 1996.41,322.316 
  "/>
<path clip-path="url(#clip700)" d="M2030.56 303.624 Q2027.46 308.948 2025.95 314.156 Q2024.45 319.364 2024.45 324.712 Q2024.45 330.059 2025.95 335.313 Q2027.48 340.545 2030.56 345.846 L2026.86 345.846 Q2023.38 340.406 2021.65 335.151 Q2019.93 329.897 2019.93 324.712 Q2019.93 319.55 2021.65 314.318 Q2023.36 309.087 2026.86 303.624 L2030.56 303.624 Z" fill="#000000" fill-rule="evenodd" fill-opacity="1" /><path clip-path="url(#clip700)" d="M2043.04 306.309 L2043.04 313.67 L2051.81 313.67 L2051.81 316.98 L2043.04 316.98 L2043.04 331.054 Q2043.04 334.225 2043.89 335.128 Q2044.77 336.031 2047.43 336.031 L2051.81 336.031 L2051.81 339.596 L2047.43 339.596 Q2042.5 339.596 2040.63 337.767 Q2038.75 335.915 2038.75 331.054 L2038.75 316.98 L2035.63 316.98 L2035.63 313.67 L2038.75 313.67 L2038.75 306.309 L2043.04 306.309 Z" fill="#000000" fill-rule="evenodd" fill-opacity="1" /><path clip-path="url(#clip700)" d="M2058.5 333.716 L2063.38 333.716 L2063.38 337.698 L2059.59 345.105 L2056.6 345.105 L2058.5 337.698 L2058.5 333.716 Z" fill="#000000" fill-rule="evenodd" fill-opacity="1" /><path clip-path="url(#clip700)" d="M2072.67 305.036 L2077.34 305.036 L2077.34 339.596 L2072.67 339.596 L2072.67 305.036 Z" fill="#000000" fill-rule="evenodd" fill-opacity="1" /><path clip-path="url(#clip700)" d="M2086.07 303.577 L2095.88 303.577 L2095.88 306.888 L2090.33 306.888 L2090.33 342.536 L2095.88 342.536 L2095.88 345.846 L2086.07 345.846 L2086.07 303.577 Z" fill="#000000" fill-rule="evenodd" fill-opacity="1" /><path clip-path="url(#clip700)" d="M2106.37 335.661 L2114.01 335.661 L2114.01 309.295 L2105.7 310.962 L2105.7 306.702 L2113.96 305.036 L2118.64 305.036 L2118.64 335.661 L2126.28 335.661 L2126.28 339.596 L2106.37 339.596 L2106.37 335.661 Z" fill="#000000" fill-rule="evenodd" fill-opacity="1" /><path clip-path="url(#clip700)" d="M2145.07 303.577 L2145.07 345.846 L2135.26 345.846 L2135.26 342.536 L2140.79 342.536 L2140.79 306.888 L2135.26 306.888 L2135.26 303.577 L2145.07 303.577 Z" fill="#000000" fill-rule="evenodd" fill-opacity="1" /><path clip-path="url(#clip700)" d="M2163.85 303.624 Q2160.74 308.948 2159.24 314.156 Q2157.73 319.364 2157.73 324.712 Q2157.73 330.059 2159.24 335.313 Q2160.77 340.545 2163.85 345.846 L2160.14 345.846 Q2156.67 340.406 2154.93 335.151 Q2153.22 329.897 2153.22 324.712 Q2153.22 319.55 2154.93 314.318 Q2156.65 309.087 2160.14 303.624 L2163.85 303.624 Z" fill="#000000" fill-rule="evenodd" fill-opacity="1" /><path clip-path="url(#clip700)" d="M2176.32 306.309 L2176.32 313.67 L2185.1 313.67 L2185.1 316.98 L2176.32 316.98 L2176.32 331.054 Q2176.32 334.225 2177.18 335.128 Q2178.06 336.031 2180.72 336.031 L2185.1 336.031 L2185.1 339.596 L2180.72 339.596 Q2175.79 339.596 2173.92 337.767 Q2172.04 335.915 2172.04 331.054 L2172.04 316.98 L2168.92 316.98 L2168.92 313.67 L2172.04 313.67 L2172.04 306.309 L2176.32 306.309 Z" fill="#000000" fill-rule="evenodd" fill-opacity="1" /><path clip-path="url(#clip700)" d="M2190.03 303.624 L2193.73 303.624 Q2197.2 309.087 2198.92 314.318 Q2200.65 319.55 2200.65 324.712 Q2200.65 329.897 2198.92 335.151 Q2197.2 340.406 2193.73 345.846 L2190.03 345.846 Q2193.1 340.545 2194.61 335.313 Q2196.14 330.059 2196.14 324.712 Q2196.14 319.364 2194.61 314.156 Q2193.1 308.948 2190.03 303.624 Z" fill="#000000" fill-rule="evenodd" fill-opacity="1" /><path clip-path="url(#clip700)" d="M2208.52 303.624 L2212.23 303.624 Q2215.7 309.087 2217.41 314.318 Q2219.15 319.55 2219.15 324.712 Q2219.15 329.897 2217.41 335.151 Q2215.7 340.406 2212.23 345.846 L2208.52 345.846 Q2211.6 340.545 2213.1 335.313 Q2214.63 330.059 2214.63 324.712 Q2214.63 319.364 2213.1 314.156 Q2211.6 308.948 2208.52 303.624 Z" fill="#000000" fill-rule="evenodd" fill-opacity="1" /><polyline clip-path="url(#clip700)" style="stroke:#c271d2; stroke-linecap:butt; stroke-linejoin:round; stroke-width:4; stroke-opacity:1; fill:none" points="
  1855.24,374.156 1996.41,374.156 
  "/>
<path clip-path="url(#clip700)" d="M2030.56 355.464 Q2027.46 360.788 2025.95 365.996 Q2024.45 371.204 2024.45 376.552 Q2024.45 381.899 2025.95 387.153 Q2027.48 392.385 2030.56 397.686 L2026.86 397.686 Q2023.38 392.246 2021.65 386.991 Q2019.93 381.737 2019.93 376.552 Q2019.93 371.39 2021.65 366.158 Q2023.36 360.927 2026.86 355.464 L2030.56 355.464 Z" fill="#000000" fill-rule="evenodd" fill-opacity="1" /><path clip-path="url(#clip700)" d="M2043.04 358.149 L2043.04 365.51 L2051.81 365.51 L2051.81 368.82 L2043.04 368.82 L2043.04 382.894 Q2043.04 386.065 2043.89 386.968 Q2044.77 387.871 2047.43 387.871 L2051.81 387.871 L2051.81 391.436 L2047.43 391.436 Q2042.5 391.436 2040.63 389.607 Q2038.75 387.755 2038.75 382.894 L2038.75 368.82 L2035.63 368.82 L2035.63 365.51 L2038.75 365.51 L2038.75 358.149 L2043.04 358.149 Z" fill="#000000" fill-rule="evenodd" fill-opacity="1" /><path clip-path="url(#clip700)" d="M2058.5 385.556 L2063.38 385.556 L2063.38 389.538 L2059.59 396.945 L2056.6 396.945 L2058.5 389.538 L2058.5 385.556 Z" fill="#000000" fill-rule="evenodd" fill-opacity="1" /><path clip-path="url(#clip700)" d="M2072.67 356.876 L2077.34 356.876 L2077.34 391.436 L2072.67 391.436 L2072.67 356.876 Z" fill="#000000" fill-rule="evenodd" fill-opacity="1" /><path clip-path="url(#clip700)" d="M2086.07 355.417 L2095.88 355.417 L2095.88 358.728 L2090.33 358.728 L2090.33 394.376 L2095.88 394.376 L2095.88 397.686 L2086.07 397.686 L2086.07 355.417 Z" fill="#000000" fill-rule="evenodd" fill-opacity="1" /><path clip-path="url(#clip700)" d="M2109.59 387.501 L2125.91 387.501 L2125.91 391.436 L2103.96 391.436 L2103.96 387.501 Q2106.62 384.746 2111.21 380.116 Q2115.81 375.464 2116.99 374.121 Q2119.24 371.598 2120.12 369.862 Q2121.02 368.103 2121.02 366.413 Q2121.02 363.658 2119.08 361.922 Q2117.16 360.186 2114.05 360.186 Q2111.86 360.186 2109.4 360.95 Q2106.97 361.714 2104.19 363.265 L2104.19 358.542 Q2107.02 357.408 2109.47 356.829 Q2111.92 356.251 2113.96 356.251 Q2119.33 356.251 2122.53 358.936 Q2125.72 361.621 2125.72 366.112 Q2125.72 368.241 2124.91 370.163 Q2124.12 372.061 2122.02 374.653 Q2121.44 375.325 2118.34 378.542 Q2115.23 381.737 2109.59 387.501 Z" fill="#000000" fill-rule="evenodd" fill-opacity="1" /><path clip-path="url(#clip700)" d="M2145.07 355.417 L2145.07 397.686 L2135.26 397.686 L2135.26 394.376 L2140.79 394.376 L2140.79 358.728 L2135.26 358.728 L2135.26 355.417 L2145.07 355.417 Z" fill="#000000" fill-rule="evenodd" fill-opacity="1" /><path clip-path="url(#clip700)" d="M2163.85 355.464 Q2160.74 360.788 2159.24 365.996 Q2157.73 371.204 2157.73 376.552 Q2157.73 381.899 2159.24 387.153 Q2160.77 392.385 2163.85 397.686 L2160.14 397.686 Q2156.67 392.246 2154.93 386.991 Q2153.22 381.737 2153.22 376.552 Q2153.22 371.39 2154.93 366.158 Q2156.65 360.927 2160.14 355.464 L2163.85 355.464 Z" fill="#000000" fill-rule="evenodd" fill-opacity="1" /><path clip-path="url(#clip700)" d="M2176.32 358.149 L2176.32 365.51 L2185.1 365.51 L2185.1 368.82 L2176.32 368.82 L2176.32 382.894 Q2176.32 386.065 2177.18 386.968 Q2178.06 387.871 2180.72 387.871 L2185.1 387.871 L2185.1 391.436 L2180.72 391.436 Q2175.79 391.436 2173.92 389.607 Q2172.04 387.755 2172.04 382.894 L2172.04 368.82 L2168.92 368.82 L2168.92 365.51 L2172.04 365.51 L2172.04 358.149 L2176.32 358.149 Z" fill="#000000" fill-rule="evenodd" fill-opacity="1" /><path clip-path="url(#clip700)" d="M2190.03 355.464 L2193.73 355.464 Q2197.2 360.927 2198.92 366.158 Q2200.65 371.39 2200.65 376.552 Q2200.65 381.737 2198.92 386.991 Q2197.2 392.246 2193.73 397.686 L2190.03 397.686 Q2193.1 392.385 2194.61 387.153 Q2196.14 381.899 2196.14 376.552 Q2196.14 371.204 2194.61 365.996 Q2193.1 360.788 2190.03 355.464 Z" fill="#000000" fill-rule="evenodd" fill-opacity="1" /><path clip-path="url(#clip700)" d="M2208.52 355.464 L2212.23 355.464 Q2215.7 360.927 2217.41 366.158 Q2219.15 371.39 2219.15 376.552 Q2219.15 381.737 2217.41 386.991 Q2215.7 392.246 2212.23 397.686 L2208.52 397.686 Q2211.6 392.385 2213.1 387.153 Q2214.63 381.899 2214.63 376.552 Q2214.63 371.204 2213.1 365.996 Q2211.6 360.788 2208.52 355.464 Z" fill="#000000" fill-rule="evenodd" fill-opacity="1" /></svg>
