<?xml version="1.0" encoding="utf-8"?>
<svg xmlns="http://www.w3.org/2000/svg" xmlns:xlink="http://www.w3.org/1999/xlink" width="600" height="400" viewBox="0 0 2400 1600">
<defs>
  <clipPath id="clip950">
    <rect x="0" y="0" width="2400" height="1600"/>
  </clipPath>
</defs>
<path clip-path="url(#clip950)" d="
M0 1600 L2400 1600 L2400 0 L0 0  Z
  " fill="#ffffff" fill-rule="evenodd" fill-opacity="1"/>
<defs>
  <clipPath id="clip951">
    <rect x="480" y="0" width="1681" height="1600"/>
  </clipPath>
</defs>
<path clip-path="url(#clip950)" d="
M235.283 1423.18 L2352.76 1423.18 L2352.76 123.472 L235.283 123.472  Z
  " fill="#ffffff" fill-rule="evenodd" fill-opacity="1"/>
<defs>
  <clipPath id="clip952">
    <rect x="235" y="123" width="2118" height="1301"/>
  </clipPath>
</defs>
<polyline clip-path="url(#clip952)" style="stroke:#000000; stroke-linecap:butt; stroke-linejoin:round; stroke-width:2; stroke-opacity:0.1; fill:none" points="
  235.283,1423.18 235.283,123.472 
  "/>
<polyline clip-path="url(#clip952)" style="stroke:#000000; stroke-linecap:butt; stroke-linejoin:round; stroke-width:2; stroke-opacity:0.1; fill:none" points="
  764.651,1423.18 764.651,123.472 
  "/>
<polyline clip-path="url(#clip952)" style="stroke:#000000; stroke-linecap:butt; stroke-linejoin:round; stroke-width:2; stroke-opacity:0.1; fill:none" points="
  1294.02,1423.18 1294.02,123.472 
  "/>
<polyline clip-path="url(#clip952)" style="stroke:#000000; stroke-linecap:butt; stroke-linejoin:round; stroke-width:2; stroke-opacity:0.1; fill:none" points="
  1823.39,1423.18 1823.39,123.472 
  "/>
<polyline clip-path="url(#clip952)" style="stroke:#000000; stroke-linecap:butt; stroke-linejoin:round; stroke-width:2; stroke-opacity:0.1; fill:none" points="
  2352.76,1423.18 2352.76,123.472 
  "/>
<polyline clip-path="url(#clip950)" style="stroke:#000000; stroke-linecap:butt; stroke-linejoin:round; stroke-width:4; stroke-opacity:1; fill:none" points="
  235.283,1423.18 2352.76,1423.18 
  "/>
<polyline clip-path="url(#clip950)" style="stroke:#000000; stroke-linecap:butt; stroke-linejoin:round; stroke-width:4; stroke-opacity:1; fill:none" points="
  235.283,1423.18 235.283,1404.28 
  "/>
<polyline clip-path="url(#clip950)" style="stroke:#000000; stroke-linecap:butt; stroke-linejoin:round; stroke-width:4; stroke-opacity:1; fill:none" points="
  764.651,1423.18 764.651,1404.28 
  "/>
<polyline clip-path="url(#clip950)" style="stroke:#000000; stroke-linecap:butt; stroke-linejoin:round; stroke-width:4; stroke-opacity:1; fill:none" points="
  1294.02,1423.18 1294.02,1404.28 
  "/>
<polyline clip-path="url(#clip950)" style="stroke:#000000; stroke-linecap:butt; stroke-linejoin:round; stroke-width:4; stroke-opacity:1; fill:none" points="
  1823.39,1423.18 1823.39,1404.28 
  "/>
<polyline clip-path="url(#clip950)" style="stroke:#000000; stroke-linecap:butt; stroke-linejoin:round; stroke-width:4; stroke-opacity:1; fill:none" points="
  2352.76,1423.18 2352.76,1404.28 
  "/>
<path clip-path="url(#clip950)" d="M235.283 1452.37 Q231.672 1452.37 229.843 1455.94 Q228.038 1459.48 228.038 1466.61 Q228.038 1473.71 229.843 1477.28 Q231.672 1480.82 235.283 1480.82 Q238.917 1480.82 240.723 1477.28 Q242.551 1473.71 242.551 1466.61 Q242.551 1459.48 240.723 1455.94 Q238.917 1452.37 235.283 1452.37 M235.283 1448.67 Q241.093 1448.67 244.149 1453.27 Q247.227 1457.86 247.227 1466.61 Q247.227 1475.33 244.149 1479.94 Q241.093 1484.52 235.283 1484.52 Q229.473 1484.52 226.394 1479.94 Q223.338 1475.33 223.338 1466.61 Q223.338 1457.86 226.394 1453.27 Q229.473 1448.67 235.283 1448.67 Z" fill="#000000" fill-rule="evenodd" fill-opacity="1" /><path clip-path="url(#clip950)" d="M724.258 1479.92 L731.897 1479.92 L731.897 1453.55 L723.587 1455.22 L723.587 1450.96 L731.85 1449.29 L736.526 1449.29 L736.526 1479.92 L744.165 1479.92 L744.165 1483.85 L724.258 1483.85 L724.258 1479.92 Z" fill="#000000" fill-rule="evenodd" fill-opacity="1" /><path clip-path="url(#clip950)" d="M763.609 1452.37 Q759.998 1452.37 758.17 1455.94 Q756.364 1459.48 756.364 1466.61 Q756.364 1473.71 758.17 1477.28 Q759.998 1480.82 763.609 1480.82 Q767.244 1480.82 769.049 1477.28 Q770.878 1473.71 770.878 1466.61 Q770.878 1459.48 769.049 1455.94 Q767.244 1452.37 763.609 1452.37 M763.609 1448.67 Q769.42 1448.67 772.475 1453.27 Q775.554 1457.86 775.554 1466.61 Q775.554 1475.33 772.475 1479.94 Q769.42 1484.52 763.609 1484.52 Q757.799 1484.52 754.721 1479.94 Q751.665 1475.33 751.665 1466.61 Q751.665 1457.86 754.721 1453.27 Q757.799 1448.67 763.609 1448.67 Z" fill="#000000" fill-rule="evenodd" fill-opacity="1" /><path clip-path="url(#clip950)" d="M793.771 1452.37 Q790.16 1452.37 788.332 1455.94 Q786.526 1459.48 786.526 1466.61 Q786.526 1473.71 788.332 1477.28 Q790.16 1480.82 793.771 1480.82 Q797.406 1480.82 799.211 1477.28 Q801.04 1473.71 801.04 1466.61 Q801.04 1459.48 799.211 1455.94 Q797.406 1452.37 793.771 1452.37 M793.771 1448.67 Q799.581 1448.67 802.637 1453.27 Q805.716 1457.86 805.716 1466.61 Q805.716 1475.33 802.637 1479.94 Q799.581 1484.52 793.771 1484.52 Q787.961 1484.52 784.882 1479.94 Q781.827 1475.33 781.827 1466.61 Q781.827 1457.86 784.882 1453.27 Q787.961 1448.67 793.771 1448.67 Z" fill="#000000" fill-rule="evenodd" fill-opacity="1" /><path clip-path="url(#clip950)" d="M1257.71 1479.92 L1274.03 1479.92 L1274.03 1483.85 L1252.09 1483.85 L1252.09 1479.92 Q1254.75 1477.16 1259.33 1472.53 Q1263.94 1467.88 1265.12 1466.54 Q1267.36 1464.01 1268.24 1462.28 Q1269.15 1460.52 1269.15 1458.83 Q1269.15 1456.07 1267.2 1454.34 Q1265.28 1452.6 1262.18 1452.6 Q1259.98 1452.6 1257.53 1453.37 Q1255.1 1454.13 1252.32 1455.68 L1252.32 1450.96 Q1255.14 1449.82 1257.6 1449.25 Q1260.05 1448.67 1262.09 1448.67 Q1267.46 1448.67 1270.65 1451.35 Q1273.85 1454.04 1273.85 1458.53 Q1273.85 1460.66 1273.04 1462.58 Q1272.25 1464.48 1270.14 1467.07 Q1269.56 1467.74 1266.46 1470.96 Q1263.36 1474.15 1257.71 1479.92 Z" fill="#000000" fill-rule="evenodd" fill-opacity="1" /><path clip-path="url(#clip950)" d="M1293.85 1452.37 Q1290.23 1452.37 1288.41 1455.94 Q1286.6 1459.48 1286.6 1466.61 Q1286.6 1473.71 1288.41 1477.28 Q1290.23 1480.82 1293.85 1480.82 Q1297.48 1480.82 1299.29 1477.28 Q1301.11 1473.71 1301.11 1466.61 Q1301.11 1459.48 1299.29 1455.94 Q1297.48 1452.37 1293.85 1452.37 M1293.85 1448.67 Q1299.66 1448.67 1302.71 1453.27 Q1305.79 1457.86 1305.79 1466.61 Q1305.79 1475.33 1302.71 1479.94 Q1299.66 1484.52 1293.85 1484.52 Q1288.04 1484.52 1284.96 1479.94 Q1281.9 1475.33 1281.9 1466.61 Q1281.9 1457.86 1284.96 1453.27 Q1288.04 1448.67 1293.85 1448.67 Z" fill="#000000" fill-rule="evenodd" fill-opacity="1" /><path clip-path="url(#clip950)" d="M1324.01 1452.37 Q1320.4 1452.37 1318.57 1455.94 Q1316.76 1459.48 1316.76 1466.61 Q1316.76 1473.71 1318.57 1477.28 Q1320.4 1480.82 1324.01 1480.82 Q1327.64 1480.82 1329.45 1477.28 Q1331.28 1473.71 1331.28 1466.61 Q1331.28 1459.48 1329.45 1455.94 Q1327.64 1452.37 1324.01 1452.37 M1324.01 1448.67 Q1329.82 1448.67 1332.87 1453.27 Q1335.95 1457.86 1335.95 1466.61 Q1335.95 1475.33 1332.87 1479.94 Q1329.82 1484.52 1324.01 1484.52 Q1318.2 1484.52 1315.12 1479.94 Q1312.06 1475.33 1312.06 1466.61 Q1312.06 1457.86 1315.12 1453.27 Q1318.2 1448.67 1324.01 1448.67 Z" fill="#000000" fill-rule="evenodd" fill-opacity="1" /><path clip-path="url(#clip950)" d="M1797.15 1465.22 Q1800.51 1465.94 1802.38 1468.2 Q1804.28 1470.47 1804.28 1473.81 Q1804.28 1478.92 1800.76 1481.72 Q1797.24 1484.52 1790.76 1484.52 Q1788.58 1484.52 1786.27 1484.08 Q1783.98 1483.67 1781.52 1482.81 L1781.52 1478.3 Q1783.47 1479.43 1785.78 1480.01 Q1788.1 1480.59 1790.62 1480.59 Q1795.02 1480.59 1797.31 1478.85 Q1799.63 1477.12 1799.63 1473.81 Q1799.63 1470.75 1797.47 1469.04 Q1795.34 1467.3 1791.52 1467.3 L1787.5 1467.3 L1787.5 1463.46 L1791.71 1463.46 Q1795.16 1463.46 1796.99 1462.09 Q1798.82 1460.7 1798.82 1458.11 Q1798.82 1455.45 1796.92 1454.04 Q1795.04 1452.6 1791.52 1452.6 Q1789.6 1452.6 1787.4 1453.02 Q1785.2 1453.44 1782.57 1454.31 L1782.57 1450.15 Q1785.23 1449.41 1787.54 1449.04 Q1789.88 1448.67 1791.94 1448.67 Q1797.27 1448.67 1800.37 1451.1 Q1803.47 1453.5 1803.47 1457.63 Q1803.47 1460.5 1801.83 1462.49 Q1800.18 1464.45 1797.15 1465.22 Z" fill="#000000" fill-rule="evenodd" fill-opacity="1" /><path clip-path="url(#clip950)" d="M1823.14 1452.37 Q1819.53 1452.37 1817.7 1455.94 Q1815.9 1459.48 1815.9 1466.61 Q1815.9 1473.71 1817.7 1477.28 Q1819.53 1480.82 1823.14 1480.82 Q1826.78 1480.82 1828.58 1477.28 Q1830.41 1473.71 1830.41 1466.61 Q1830.41 1459.48 1828.58 1455.94 Q1826.78 1452.37 1823.14 1452.37 M1823.14 1448.67 Q1828.95 1448.67 1832.01 1453.27 Q1835.09 1457.86 1835.09 1466.61 Q1835.09 1475.33 1832.01 1479.94 Q1828.95 1484.52 1823.14 1484.52 Q1817.33 1484.52 1814.26 1479.94 Q1811.2 1475.33 1811.2 1466.61 Q1811.2 1457.86 1814.26 1453.27 Q1817.33 1448.67 1823.14 1448.67 Z" fill="#000000" fill-rule="evenodd" fill-opacity="1" /><path clip-path="url(#clip950)" d="M1853.31 1452.37 Q1849.7 1452.37 1847.87 1455.94 Q1846.06 1459.48 1846.06 1466.61 Q1846.06 1473.71 1847.87 1477.28 Q1849.7 1480.82 1853.31 1480.82 Q1856.94 1480.82 1858.75 1477.28 Q1860.57 1473.71 1860.57 1466.61 Q1860.57 1459.48 1858.75 1455.94 Q1856.94 1452.37 1853.31 1452.37 M1853.31 1448.67 Q1859.12 1448.67 1862.17 1453.27 Q1865.25 1457.86 1865.25 1466.61 Q1865.25 1475.33 1862.17 1479.94 Q1859.12 1484.52 1853.31 1484.52 Q1847.5 1484.52 1844.42 1479.94 Q1841.36 1475.33 1841.36 1466.61 Q1841.36 1457.86 1844.42 1453.27 Q1847.5 1448.67 1853.31 1448.67 Z" fill="#000000" fill-rule="evenodd" fill-opacity="1" /><path clip-path="url(#clip950)" d="M2325.85 1453.37 L2314.04 1471.81 L2325.85 1471.81 L2325.85 1453.37 M2324.62 1449.29 L2330.5 1449.29 L2330.5 1471.81 L2335.43 1471.81 L2335.43 1475.7 L2330.5 1475.7 L2330.5 1483.85 L2325.85 1483.85 L2325.85 1475.7 L2310.24 1475.7 L2310.24 1471.19 L2324.62 1449.29 Z" fill="#000000" fill-rule="evenodd" fill-opacity="1" /><path clip-path="url(#clip950)" d="M2353.16 1452.37 Q2349.55 1452.37 2347.72 1455.94 Q2345.92 1459.48 2345.92 1466.61 Q2345.92 1473.71 2347.72 1477.28 Q2349.55 1480.82 2353.16 1480.82 Q2356.8 1480.82 2358.6 1477.28 Q2360.43 1473.71 2360.43 1466.61 Q2360.43 1459.48 2358.6 1455.94 Q2356.8 1452.37 2353.16 1452.37 M2353.16 1448.67 Q2358.97 1448.67 2362.03 1453.27 Q2365.11 1457.86 2365.11 1466.61 Q2365.11 1475.33 2362.03 1479.94 Q2358.97 1484.52 2353.16 1484.52 Q2347.35 1484.52 2344.27 1479.94 Q2341.22 1475.33 2341.22 1466.61 Q2341.22 1457.86 2344.27 1453.27 Q2347.35 1448.67 2353.16 1448.67 Z" fill="#000000" fill-rule="evenodd" fill-opacity="1" /><path clip-path="url(#clip950)" d="M2383.32 1452.37 Q2379.71 1452.37 2377.88 1455.94 Q2376.08 1459.48 2376.08 1466.61 Q2376.08 1473.71 2377.88 1477.28 Q2379.71 1480.82 2383.32 1480.82 Q2386.96 1480.82 2388.76 1477.28 Q2390.59 1473.71 2390.59 1466.61 Q2390.59 1459.48 2388.76 1455.94 Q2386.96 1452.37 2383.32 1452.37 M2383.32 1448.67 Q2389.13 1448.67 2392.19 1453.27 Q2395.27 1457.86 2395.27 1466.61 Q2395.27 1475.33 2392.19 1479.94 Q2389.13 1484.52 2383.32 1484.52 Q2377.51 1484.52 2374.43 1479.94 Q2371.38 1475.33 2371.38 1466.61 Q2371.38 1457.86 2374.43 1453.27 Q2377.51 1448.67 2383.32 1448.67 Z" fill="#000000" fill-rule="evenodd" fill-opacity="1" /><path clip-path="url(#clip950)" d="M1293.08 1522.27 L1293.08 1532.4 L1305.14 1532.4 L1305.14 1536.95 L1293.08 1536.95 L1293.08 1556.3 Q1293.08 1560.66 1294.26 1561.9 Q1295.47 1563.14 1299.13 1563.14 L1305.14 1563.14 L1305.14 1568.04 L1299.13 1568.04 Q1292.35 1568.04 1289.77 1565.53 Q1287.19 1562.98 1287.19 1556.3 L1287.19 1536.95 L1282.9 1536.95 L1282.9 1532.4 L1287.19 1532.4 L1287.19 1522.27 L1293.08 1522.27 Z" fill="#000000" fill-rule="evenodd" fill-opacity="1" /><polyline clip-path="url(#clip952)" style="stroke:#000000; stroke-linecap:butt; stroke-linejoin:round; stroke-width:2; stroke-opacity:0.1; fill:none" points="
  235.283,1386.62 2352.76,1386.62 
  "/>
<polyline clip-path="url(#clip952)" style="stroke:#000000; stroke-linecap:butt; stroke-linejoin:round; stroke-width:2; stroke-opacity:0.1; fill:none" points="
  235.283,1157.35 2352.76,1157.35 
  "/>
<polyline clip-path="url(#clip952)" style="stroke:#000000; stroke-linecap:butt; stroke-linejoin:round; stroke-width:2; stroke-opacity:0.1; fill:none" points="
  235.283,928.073 2352.76,928.073 
  "/>
<polyline clip-path="url(#clip952)" style="stroke:#000000; stroke-linecap:butt; stroke-linejoin:round; stroke-width:2; stroke-opacity:0.1; fill:none" points="
  235.283,698.797 2352.76,698.797 
  "/>
<polyline clip-path="url(#clip952)" style="stroke:#000000; stroke-linecap:butt; stroke-linejoin:round; stroke-width:2; stroke-opacity:0.1; fill:none" points="
  235.283,469.521 2352.76,469.521 
  "/>
<polyline clip-path="url(#clip952)" style="stroke:#000000; stroke-linecap:butt; stroke-linejoin:round; stroke-width:2; stroke-opacity:0.1; fill:none" points="
  235.283,240.245 2352.76,240.245 
  "/>
<polyline clip-path="url(#clip950)" style="stroke:#000000; stroke-linecap:butt; stroke-linejoin:round; stroke-width:4; stroke-opacity:1; fill:none" points="
  235.283,1423.18 235.283,123.472 
  "/>
<polyline clip-path="url(#clip950)" style="stroke:#000000; stroke-linecap:butt; stroke-linejoin:round; stroke-width:4; stroke-opacity:1; fill:none" points="
  235.283,1386.62 254.18,1386.62 
  "/>
<polyline clip-path="url(#clip950)" style="stroke:#000000; stroke-linecap:butt; stroke-linejoin:round; stroke-width:4; stroke-opacity:1; fill:none" points="
  235.283,1157.35 254.18,1157.35 
  "/>
<polyline clip-path="url(#clip950)" style="stroke:#000000; stroke-linecap:butt; stroke-linejoin:round; stroke-width:4; stroke-opacity:1; fill:none" points="
  235.283,928.073 254.18,928.073 
  "/>
<polyline clip-path="url(#clip950)" style="stroke:#000000; stroke-linecap:butt; stroke-linejoin:round; stroke-width:4; stroke-opacity:1; fill:none" points="
  235.283,698.797 254.18,698.797 
  "/>
<polyline clip-path="url(#clip950)" style="stroke:#000000; stroke-linecap:butt; stroke-linejoin:round; stroke-width:4; stroke-opacity:1; fill:none" points="
  235.283,469.521 254.18,469.521 
  "/>
<polyline clip-path="url(#clip950)" style="stroke:#000000; stroke-linecap:butt; stroke-linejoin:round; stroke-width:4; stroke-opacity:1; fill:none" points="
  235.283,240.245 254.18,240.245 
  "/>
<path clip-path="url(#clip950)" d="M187.338 1372.42 Q183.727 1372.42 181.899 1375.99 Q180.093 1379.53 180.093 1386.66 Q180.093 1393.77 181.899 1397.33 Q183.727 1400.87 187.338 1400.87 Q190.973 1400.87 192.778 1397.33 Q194.607 1393.77 194.607 1386.66 Q194.607 1379.53 192.778 1375.99 Q190.973 1372.42 187.338 1372.42 M187.338 1368.72 Q193.149 1368.72 196.204 1373.33 Q199.283 1377.91 199.283 1386.66 Q199.283 1395.39 196.204 1399.99 Q193.149 1404.58 187.338 1404.58 Q181.528 1404.58 178.45 1399.99 Q175.394 1395.39 175.394 1386.66 Q175.394 1377.91 178.45 1373.33 Q181.528 1368.72 187.338 1368.72 Z" fill="#000000" fill-rule="evenodd" fill-opacity="1" /><path clip-path="url(#clip950)" d="M117.825 1170.69 L125.464 1170.69 L125.464 1144.33 L117.154 1145.99 L117.154 1141.74 L125.418 1140.07 L130.093 1140.07 L130.093 1170.69 L137.732 1170.69 L137.732 1174.63 L117.825 1174.63 L117.825 1170.69 Z" fill="#000000" fill-rule="evenodd" fill-opacity="1" /><path clip-path="url(#clip950)" d="M157.177 1143.15 Q153.566 1143.15 151.737 1146.71 Q149.931 1150.25 149.931 1157.38 Q149.931 1164.49 151.737 1168.05 Q153.566 1171.6 157.177 1171.6 Q160.811 1171.6 162.616 1168.05 Q164.445 1164.49 164.445 1157.38 Q164.445 1150.25 162.616 1146.71 Q160.811 1143.15 157.177 1143.15 M157.177 1139.44 Q162.987 1139.44 166.042 1144.05 Q169.121 1148.63 169.121 1157.38 Q169.121 1166.11 166.042 1170.72 Q162.987 1175.3 157.177 1175.3 Q151.366 1175.3 148.288 1170.72 Q145.232 1166.11 145.232 1157.38 Q145.232 1148.63 148.288 1144.05 Q151.366 1139.44 157.177 1139.44 Z" fill="#000000" fill-rule="evenodd" fill-opacity="1" /><path clip-path="url(#clip950)" d="M187.338 1143.15 Q183.727 1143.15 181.899 1146.71 Q180.093 1150.25 180.093 1157.38 Q180.093 1164.49 181.899 1168.05 Q183.727 1171.6 187.338 1171.6 Q190.973 1171.6 192.778 1168.05 Q194.607 1164.49 194.607 1157.38 Q194.607 1150.25 192.778 1146.71 Q190.973 1143.15 187.338 1143.15 M187.338 1139.44 Q193.149 1139.44 196.204 1144.05 Q199.283 1148.63 199.283 1157.38 Q199.283 1166.11 196.204 1170.72 Q193.149 1175.3 187.338 1175.3 Q181.528 1175.3 178.45 1170.72 Q175.394 1166.11 175.394 1157.38 Q175.394 1148.63 178.45 1144.05 Q181.528 1139.44 187.338 1139.44 Z" fill="#000000" fill-rule="evenodd" fill-opacity="1" /><path clip-path="url(#clip950)" d="M121.043 941.418 L137.362 941.418 L137.362 945.353 L115.418 945.353 L115.418 941.418 Q118.08 938.663 122.663 934.034 Q127.269 929.381 128.45 928.038 Q130.695 925.515 131.575 923.779 Q132.478 922.02 132.478 920.33 Q132.478 917.575 130.533 915.839 Q128.612 914.103 125.51 914.103 Q123.311 914.103 120.857 914.867 Q118.427 915.631 115.649 917.182 L115.649 912.46 Q118.473 911.325 120.927 910.747 Q123.38 910.168 125.418 910.168 Q130.788 910.168 133.982 912.853 Q137.177 915.538 137.177 920.029 Q137.177 922.159 136.367 924.08 Q135.579 925.978 133.473 928.571 Q132.894 929.242 129.792 932.459 Q126.691 935.654 121.043 941.418 Z" fill="#000000" fill-rule="evenodd" fill-opacity="1" /><path clip-path="url(#clip950)" d="M157.177 913.872 Q153.566 913.872 151.737 917.436 Q149.931 920.978 149.931 928.108 Q149.931 935.214 151.737 938.779 Q153.566 942.321 157.177 942.321 Q160.811 942.321 162.616 938.779 Q164.445 935.214 164.445 928.108 Q164.445 920.978 162.616 917.436 Q160.811 913.872 157.177 913.872 M157.177 910.168 Q162.987 910.168 166.042 914.774 Q169.121 919.358 169.121 928.108 Q169.121 936.834 166.042 941.441 Q162.987 946.024 157.177 946.024 Q151.366 946.024 148.288 941.441 Q145.232 936.834 145.232 928.108 Q145.232 919.358 148.288 914.774 Q151.366 910.168 157.177 910.168 Z" fill="#000000" fill-rule="evenodd" fill-opacity="1" /><path clip-path="url(#clip950)" d="M187.338 913.872 Q183.727 913.872 181.899 917.436 Q180.093 920.978 180.093 928.108 Q180.093 935.214 181.899 938.779 Q183.727 942.321 187.338 942.321 Q190.973 942.321 192.778 938.779 Q194.607 935.214 194.607 928.108 Q194.607 920.978 192.778 917.436 Q190.973 913.872 187.338 913.872 M187.338 910.168 Q193.149 910.168 196.204 914.774 Q199.283 919.358 199.283 928.108 Q199.283 936.834 196.204 941.441 Q193.149 946.024 187.338 946.024 Q181.528 946.024 178.45 941.441 Q175.394 936.834 175.394 928.108 Q175.394 919.358 178.45 914.774 Q181.528 910.168 187.338 910.168 Z" fill="#000000" fill-rule="evenodd" fill-opacity="1" /><path clip-path="url(#clip950)" d="M131.181 697.443 Q134.538 698.16 136.413 700.429 Q138.311 702.697 138.311 706.031 Q138.311 711.146 134.792 713.947 Q131.274 716.748 124.793 716.748 Q122.617 716.748 120.302 716.308 Q118.01 715.892 115.556 715.035 L115.556 710.521 Q117.501 711.656 119.816 712.234 Q122.13 712.813 124.654 712.813 Q129.052 712.813 131.343 711.077 Q133.658 709.341 133.658 706.031 Q133.658 702.975 131.505 701.262 Q129.376 699.526 125.556 699.526 L121.529 699.526 L121.529 695.683 L125.742 695.683 Q129.191 695.683 131.019 694.318 Q132.848 692.929 132.848 690.336 Q132.848 687.674 130.95 686.262 Q129.075 684.827 125.556 684.827 Q123.635 684.827 121.436 685.244 Q119.237 685.66 116.598 686.54 L116.598 682.373 Q119.26 681.633 121.575 681.262 Q123.913 680.892 125.973 680.892 Q131.297 680.892 134.399 683.322 Q137.501 685.73 137.501 689.85 Q137.501 692.721 135.857 694.711 Q134.214 696.679 131.181 697.443 Z" fill="#000000" fill-rule="evenodd" fill-opacity="1" /><path clip-path="url(#clip950)" d="M157.177 684.596 Q153.566 684.596 151.737 688.16 Q149.931 691.702 149.931 698.832 Q149.931 705.938 151.737 709.503 Q153.566 713.044 157.177 713.044 Q160.811 713.044 162.616 709.503 Q164.445 705.938 164.445 698.832 Q164.445 691.702 162.616 688.16 Q160.811 684.596 157.177 684.596 M157.177 680.892 Q162.987 680.892 166.042 685.498 Q169.121 690.082 169.121 698.832 Q169.121 707.558 166.042 712.165 Q162.987 716.748 157.177 716.748 Q151.366 716.748 148.288 712.165 Q145.232 707.558 145.232 698.832 Q145.232 690.082 148.288 685.498 Q151.366 680.892 157.177 680.892 Z" fill="#000000" fill-rule="evenodd" fill-opacity="1" /><path clip-path="url(#clip950)" d="M187.338 684.596 Q183.727 684.596 181.899 688.16 Q180.093 691.702 180.093 698.832 Q180.093 705.938 181.899 709.503 Q183.727 713.044 187.338 713.044 Q190.973 713.044 192.778 709.503 Q194.607 705.938 194.607 698.832 Q194.607 691.702 192.778 688.16 Q190.973 684.596 187.338 684.596 M187.338 680.892 Q193.149 680.892 196.204 685.498 Q199.283 690.082 199.283 698.832 Q199.283 707.558 196.204 712.165 Q193.149 716.748 187.338 716.748 Q181.528 716.748 178.45 712.165 Q175.394 707.558 175.394 698.832 Q175.394 690.082 178.45 685.498 Q181.528 680.892 187.338 680.892 Z" fill="#000000" fill-rule="evenodd" fill-opacity="1" /><path clip-path="url(#clip950)" d="M129.862 456.315 L118.056 474.764 L129.862 474.764 L129.862 456.315 M128.635 452.241 L134.515 452.241 L134.515 474.764 L139.445 474.764 L139.445 478.653 L134.515 478.653 L134.515 486.801 L129.862 486.801 L129.862 478.653 L114.26 478.653 L114.26 474.139 L128.635 452.241 Z" fill="#000000" fill-rule="evenodd" fill-opacity="1" /><path clip-path="url(#clip950)" d="M157.177 455.32 Q153.566 455.32 151.737 458.884 Q149.931 462.426 149.931 469.556 Q149.931 476.662 151.737 480.227 Q153.566 483.768 157.177 483.768 Q160.811 483.768 162.616 480.227 Q164.445 476.662 164.445 469.556 Q164.445 462.426 162.616 458.884 Q160.811 455.32 157.177 455.32 M157.177 451.616 Q162.987 451.616 166.042 456.222 Q169.121 460.806 169.121 469.556 Q169.121 478.282 166.042 482.889 Q162.987 487.472 157.177 487.472 Q151.366 487.472 148.288 482.889 Q145.232 478.282 145.232 469.556 Q145.232 460.806 148.288 456.222 Q151.366 451.616 157.177 451.616 Z" fill="#000000" fill-rule="evenodd" fill-opacity="1" /><path clip-path="url(#clip950)" d="M187.338 455.32 Q183.727 455.32 181.899 458.884 Q180.093 462.426 180.093 469.556 Q180.093 476.662 181.899 480.227 Q183.727 483.768 187.338 483.768 Q190.973 483.768 192.778 480.227 Q194.607 476.662 194.607 469.556 Q194.607 462.426 192.778 458.884 Q190.973 455.32 187.338 455.32 M187.338 451.616 Q193.149 451.616 196.204 456.222 Q199.283 460.806 199.283 469.556 Q199.283 478.282 196.204 482.889 Q193.149 487.472 187.338 487.472 Q181.528 487.472 178.45 482.889 Q175.394 478.282 175.394 469.556 Q175.394 460.806 178.45 456.222 Q181.528 451.616 187.338 451.616 Z" fill="#000000" fill-rule="evenodd" fill-opacity="1" /><path clip-path="url(#clip950)" d="M117.061 222.965 L135.417 222.965 L135.417 226.9 L121.343 226.9 L121.343 235.372 Q122.362 235.025 123.38 234.863 Q124.399 234.678 125.418 234.678 Q131.205 234.678 134.584 237.849 Q137.964 241.02 137.964 246.437 Q137.964 252.016 134.492 255.117 Q131.019 258.196 124.7 258.196 Q122.524 258.196 120.255 257.826 Q118.01 257.455 115.603 256.715 L115.603 252.016 Q117.686 253.15 119.908 253.705 Q122.13 254.261 124.607 254.261 Q128.612 254.261 130.95 252.155 Q133.288 250.048 133.288 246.437 Q133.288 242.826 130.95 240.719 Q128.612 238.613 124.607 238.613 Q122.732 238.613 120.857 239.03 Q119.006 239.446 117.061 240.326 L117.061 222.965 Z" fill="#000000" fill-rule="evenodd" fill-opacity="1" /><path clip-path="url(#clip950)" d="M157.177 226.044 Q153.566 226.044 151.737 229.608 Q149.931 233.15 149.931 240.28 Q149.931 247.386 151.737 250.951 Q153.566 254.492 157.177 254.492 Q160.811 254.492 162.616 250.951 Q164.445 247.386 164.445 240.28 Q164.445 233.15 162.616 229.608 Q160.811 226.044 157.177 226.044 M157.177 222.34 Q162.987 222.34 166.042 226.946 Q169.121 231.53 169.121 240.28 Q169.121 249.006 166.042 253.613 Q162.987 258.196 157.177 258.196 Q151.366 258.196 148.288 253.613 Q145.232 249.006 145.232 240.28 Q145.232 231.53 148.288 226.946 Q151.366 222.34 157.177 222.34 Z" fill="#000000" fill-rule="evenodd" fill-opacity="1" /><path clip-path="url(#clip950)" d="M187.338 226.044 Q183.727 226.044 181.899 229.608 Q180.093 233.15 180.093 240.28 Q180.093 247.386 181.899 250.951 Q183.727 254.492 187.338 254.492 Q190.973 254.492 192.778 250.951 Q194.607 247.386 194.607 240.28 Q194.607 233.15 192.778 229.608 Q190.973 226.044 187.338 226.044 M187.338 222.34 Q193.149 222.34 196.204 226.946 Q199.283 231.53 199.283 240.28 Q199.283 249.006 196.204 253.613 Q193.149 258.196 187.338 258.196 Q181.528 258.196 178.45 253.613 Q175.394 249.006 175.394 240.28 Q175.394 231.53 178.45 226.946 Q181.528 222.34 187.338 222.34 Z" fill="#000000" fill-rule="evenodd" fill-opacity="1" /><path clip-path="url(#clip950)" d="M58.657 873.22 L77.5631 873.22 L77.5631 879.108 L28.3562 879.108 L28.3562 873.22 L33.7671 873.22 Q30.5842 871.374 29.0564 868.573 Q27.4968 865.74 27.4968 861.825 Q27.4968 855.332 32.6531 851.29 Q37.8093 847.216 46.212 847.216 Q54.6147 847.216 59.771 851.29 Q64.9272 855.332 64.9272 861.825 Q64.9272 865.74 63.3994 868.573 Q61.8398 871.374 58.657 873.22 M46.212 853.295 Q39.7508 853.295 36.0905 855.969 Q32.3984 858.611 32.3984 863.258 Q32.3984 867.904 36.0905 870.578 Q39.7508 873.22 46.212 873.22 Q52.6732 873.22 56.3653 870.578 Q60.0256 867.904 60.0256 863.258 Q60.0256 858.611 56.3653 855.969 Q52.6732 853.295 46.212 853.295 Z" fill="#000000" fill-rule="evenodd" fill-opacity="1" /><path clip-path="url(#clip950)" d="M44.7161 807.016 L47.5806 807.016 L47.5806 833.943 Q53.6281 833.561 56.8109 830.315 Q59.9619 827.037 59.9619 821.212 Q59.9619 817.838 59.1344 814.687 Q58.3069 811.504 56.6518 808.385 L62.1899 808.385 Q63.5267 811.536 64.227 814.846 Q64.9272 818.156 64.9272 821.562 Q64.9272 830.092 59.9619 835.089 Q54.9967 840.055 46.5303 840.055 Q37.7774 840.055 32.6531 835.344 Q27.4968 830.601 27.4968 822.581 Q27.4968 815.387 32.1438 811.218 Q36.7589 807.016 44.7161 807.016 M42.9973 812.873 Q38.1912 812.937 35.3266 815.578 Q32.4621 818.188 32.4621 822.517 Q32.4621 827.419 35.2312 830.379 Q38.0002 833.307 43.0292 833.752 L42.9973 812.873 Z" fill="#000000" fill-rule="evenodd" fill-opacity="1" /><path clip-path="url(#clip950)" d="M32.4621 783.591 Q32.4621 788.301 36.1542 791.039 Q39.8145 793.776 46.212 793.776 Q52.6095 793.776 56.3017 791.07 Q59.9619 788.333 59.9619 783.591 Q59.9619 778.912 56.2698 776.175 Q52.5777 773.437 46.212 773.437 Q39.8781 773.437 36.186 776.175 Q32.4621 778.912 32.4621 783.591 M27.4968 783.591 Q27.4968 775.952 32.4621 771.591 Q37.4273 767.231 46.212 767.231 Q54.9649 767.231 59.9619 771.591 Q64.9272 775.952 64.9272 783.591 Q64.9272 791.261 59.9619 795.622 Q54.9649 799.951 46.212 799.951 Q37.4273 799.951 32.4621 795.622 Q27.4968 791.261 27.4968 783.591 Z" fill="#000000" fill-rule="evenodd" fill-opacity="1" /><path clip-path="url(#clip950)" d="M58.657 751.858 L77.5631 751.858 L77.5631 757.746 L28.3562 757.746 L28.3562 751.858 L33.7671 751.858 Q30.5842 750.012 29.0564 747.211 Q27.4968 744.378 27.4968 740.463 Q27.4968 733.97 32.6531 729.928 Q37.8093 725.854 46.212 725.854 Q54.6147 725.854 59.771 729.928 Q64.9272 733.97 64.9272 740.463 Q64.9272 744.378 63.3994 747.211 Q61.8398 750.012 58.657 751.858 M46.212 731.933 Q39.7508 731.933 36.0905 734.607 Q32.3984 737.248 32.3984 741.895 Q32.3984 746.542 36.0905 749.216 Q39.7508 751.858 46.212 751.858 Q52.6732 751.858 56.3653 749.216 Q60.0256 746.542 60.0256 741.895 Q60.0256 737.248 56.3653 734.607 Q52.6732 731.933 46.212 731.933 Z" fill="#000000" fill-rule="evenodd" fill-opacity="1" /><path clip-path="url(#clip950)" d="M14.479 716.146 L14.479 710.29 L64.0042 710.29 L64.0042 716.146 L14.479 716.146 Z" fill="#000000" fill-rule="evenodd" fill-opacity="1" /><path clip-path="url(#clip950)" d="M44.7161 667.544 L47.5806 667.544 L47.5806 694.471 Q53.6281 694.089 56.8109 690.842 Q59.9619 687.564 59.9619 681.739 Q59.9619 678.366 59.1344 675.215 Q58.3069 672.032 56.6518 668.912 L62.1899 668.912 Q63.5267 672.064 64.227 675.374 Q64.9272 678.684 64.9272 682.089 Q64.9272 690.62 59.9619 695.617 Q54.9967 700.582 46.5303 700.582 Q37.7774 700.582 32.6531 695.871 Q27.4968 691.129 27.4968 683.108 Q27.4968 675.915 32.1438 671.745 Q36.7589 667.544 44.7161 667.544 M42.9973 673.4 Q38.1912 673.464 35.3266 676.106 Q32.4621 678.716 32.4621 683.044 Q32.4621 687.946 35.2312 690.906 Q38.0002 693.834 43.0292 694.28 L42.9973 673.4 Z" fill="#000000" fill-rule="evenodd" fill-opacity="1" /><path clip-path="url(#clip950)" d="M851.944 12.096 L860.127 12.096 L860.127 72.576 L851.944 72.576 L851.944 12.096 Z" fill="#000000" fill-rule="evenodd" fill-opacity="1" /><path clip-path="url(#clip950)" d="M913.802 45.1919 L913.802 72.576 L906.348 72.576 L906.348 45.4349 Q906.348 38.994 903.836 35.7938 Q901.325 32.5936 896.302 32.5936 Q890.266 32.5936 886.782 36.4419 Q883.298 40.2903 883.298 46.9338 L883.298 72.576 L875.804 72.576 L875.804 27.2059 L883.298 27.2059 L883.298 34.2544 Q885.972 30.163 889.577 28.1376 Q893.223 26.1121 897.962 26.1121 Q905.781 26.1121 909.791 30.9732 Q913.802 35.7938 913.802 45.1919 Z" fill="#000000" fill-rule="evenodd" fill-opacity="1" /><path clip-path="url(#clip950)" d="M951.637 9.54393 L951.637 15.7418 L944.507 15.7418 Q940.497 15.7418 938.917 17.3622 Q937.378 18.9825 937.378 23.1955 L937.378 27.2059 L949.652 27.2059 L949.652 32.9987 L937.378 32.9987 L937.378 72.576 L929.884 72.576 L929.884 32.9987 L922.754 32.9987 L922.754 27.2059 L929.884 27.2059 L929.884 24.0462 Q929.884 16.471 933.408 13.0277 Q936.932 9.54393 944.588 9.54393 L951.637 9.54393 Z" fill="#000000" fill-rule="evenodd" fill-opacity="1" /><path clip-path="url(#clip950)" d="M996.683 48.0275 L996.683 51.6733 L962.412 51.6733 Q962.898 59.3701 967.03 63.421 Q971.203 67.4314 978.616 67.4314 Q982.91 67.4314 986.92 66.3781 Q990.971 65.3249 994.941 63.2184 L994.941 70.267 Q990.931 71.9684 986.718 72.8596 Q982.505 73.7508 978.17 73.7508 Q967.314 73.7508 960.954 67.4314 Q954.635 61.1119 954.635 50.3365 Q954.635 39.1965 960.63 32.6746 Q966.666 26.1121 976.874 26.1121 Q986.029 26.1121 991.336 32.0264 Q996.683 37.9003 996.683 48.0275 M989.229 45.84 Q989.148 39.7232 985.786 36.0774 Q982.464 32.4315 976.955 32.4315 Q970.717 32.4315 966.949 35.9558 Q963.223 39.4801 962.655 45.8805 L989.229 45.84 Z" fill="#000000" fill-rule="evenodd" fill-opacity="1" /><path clip-path="url(#clip950)" d="M1041.57 28.9478 L1041.57 35.9153 Q1038.41 34.1734 1035.21 33.3227 Q1032.05 32.4315 1028.81 32.4315 Q1021.56 32.4315 1017.55 37.0496 Q1013.53 41.6271 1013.53 49.9314 Q1013.53 58.2358 1017.55 62.8538 Q1021.56 67.4314 1028.81 67.4314 Q1032.05 67.4314 1035.21 66.5807 Q1038.41 65.6895 1041.57 63.9476 L1041.57 70.8341 Q1038.45 72.2924 1035.09 73.0216 Q1031.76 73.7508 1028 73.7508 Q1017.75 73.7508 1011.71 67.3098 Q1005.68 60.8689 1005.68 49.9314 Q1005.68 38.832 1011.75 32.472 Q1017.87 26.1121 1028.48 26.1121 Q1031.93 26.1121 1035.21 26.8413 Q1038.49 27.5299 1041.57 28.9478 Z" fill="#000000" fill-rule="evenodd" fill-opacity="1" /><path clip-path="url(#clip950)" d="M1061.9 14.324 L1061.9 27.2059 L1077.26 27.2059 L1077.26 32.9987 L1061.9 32.9987 L1061.9 57.6282 Q1061.9 63.1779 1063.4 64.7578 Q1064.94 66.3376 1069.6 66.3376 L1077.26 66.3376 L1077.26 72.576 L1069.6 72.576 Q1060.97 72.576 1057.69 69.3758 Q1054.41 66.1351 1054.41 57.6282 L1054.41 32.9987 L1048.94 32.9987 L1048.94 27.2059 L1054.41 27.2059 L1054.41 14.324 L1061.9 14.324 Z" fill="#000000" fill-rule="evenodd" fill-opacity="1" /><path clip-path="url(#clip950)" d="M1125.87 48.0275 L1125.87 51.6733 L1091.6 51.6733 Q1092.08 59.3701 1096.21 63.421 Q1100.39 67.4314 1107.8 67.4314 Q1112.09 67.4314 1116.1 66.3781 Q1120.15 65.3249 1124.12 63.2184 L1124.12 70.267 Q1120.11 71.9684 1115.9 72.8596 Q1111.69 73.7508 1107.35 73.7508 Q1096.5 73.7508 1090.14 67.4314 Q1083.82 61.1119 1083.82 50.3365 Q1083.82 39.1965 1089.81 32.6746 Q1095.85 26.1121 1106.06 26.1121 Q1115.21 26.1121 1120.52 32.0264 Q1125.87 37.9003 1125.87 48.0275 M1118.41 45.84 Q1118.33 39.7232 1114.97 36.0774 Q1111.65 32.4315 1106.14 32.4315 Q1099.9 32.4315 1096.13 35.9558 Q1092.41 39.4801 1091.84 45.8805 L1118.41 45.84 Z" fill="#000000" fill-rule="evenodd" fill-opacity="1" /><path clip-path="url(#clip950)" d="M1167.96 34.0924 L1167.96 9.54393 L1175.41 9.54393 L1175.41 72.576 L1167.96 72.576 L1167.96 65.7705 Q1165.61 69.8214 1162 71.8063 Q1158.44 73.7508 1153.41 73.7508 Q1145.19 73.7508 1140 67.1883 Q1134.86 60.6258 1134.86 49.9314 Q1134.86 39.2371 1140 32.6746 Q1145.19 26.1121 1153.41 26.1121 Q1158.44 26.1121 1162 28.0971 Q1165.61 30.0415 1167.96 34.0924 M1142.56 49.9314 Q1142.56 58.1548 1145.92 62.8538 Q1149.32 67.5124 1155.24 67.5124 Q1161.15 67.5124 1164.55 62.8538 Q1167.96 58.1548 1167.96 49.9314 Q1167.96 41.7081 1164.55 37.0496 Q1161.15 32.3505 1155.24 32.3505 Q1149.32 32.3505 1145.92 37.0496 Q1142.56 41.7081 1142.56 49.9314 Z" fill="#000000" fill-rule="evenodd" fill-opacity="1" /><path clip-path="url(#clip950)" d="M1237.75 49.7694 Q1228.72 49.7694 1225.24 51.8354 Q1221.75 53.9013 1221.75 58.8839 Q1221.75 62.8538 1224.34 65.2034 Q1226.98 67.5124 1231.47 67.5124 Q1237.67 67.5124 1241.4 63.1374 Q1245.17 58.7219 1245.17 51.4303 L1245.17 49.7694 L1237.75 49.7694 M1252.62 46.6907 L1252.62 72.576 L1245.17 72.576 L1245.17 65.6895 Q1242.61 69.8214 1238.81 71.8063 Q1235 73.7508 1229.49 73.7508 Q1222.52 73.7508 1218.39 69.8619 Q1214.3 65.9325 1214.3 59.3701 Q1214.3 51.7138 1219.4 47.825 Q1224.55 43.9361 1234.71 43.9361 L1245.17 43.9361 L1245.17 43.2069 Q1245.17 38.0623 1241.76 35.2672 Q1238.4 32.4315 1232.28 32.4315 Q1228.39 32.4315 1224.71 33.3632 Q1221.02 34.295 1217.62 36.1584 L1217.62 29.2718 Q1221.71 27.692 1225.56 26.9223 Q1229.41 26.1121 1233.05 26.1121 Q1242.9 26.1121 1247.76 31.2163 Q1252.62 36.3204 1252.62 46.6907 Z" fill="#000000" fill-rule="evenodd" fill-opacity="1" /><path clip-path="url(#clip950)" d="M1305.69 45.1919 L1305.69 72.576 L1298.23 72.576 L1298.23 45.4349 Q1298.23 38.994 1295.72 35.7938 Q1293.21 32.5936 1288.19 32.5936 Q1282.15 32.5936 1278.67 36.4419 Q1275.18 40.2903 1275.18 46.9338 L1275.18 72.576 L1267.69 72.576 L1267.69 27.2059 L1275.18 27.2059 L1275.18 34.2544 Q1277.86 30.163 1281.46 28.1376 Q1285.11 26.1121 1289.85 26.1121 Q1297.67 26.1121 1301.68 30.9732 Q1305.69 35.7938 1305.69 45.1919 Z" fill="#000000" fill-rule="evenodd" fill-opacity="1" /><path clip-path="url(#clip950)" d="M1350.41 34.0924 L1350.41 9.54393 L1357.86 9.54393 L1357.86 72.576 L1350.41 72.576 L1350.41 65.7705 Q1348.06 69.8214 1344.45 71.8063 Q1340.89 73.7508 1335.87 73.7508 Q1327.64 73.7508 1322.46 67.1883 Q1317.31 60.6258 1317.31 49.9314 Q1317.31 39.2371 1322.46 32.6746 Q1327.64 26.1121 1335.87 26.1121 Q1340.89 26.1121 1344.45 28.0971 Q1348.06 30.0415 1350.41 34.0924 M1325.01 49.9314 Q1325.01 58.1548 1328.37 62.8538 Q1331.77 67.5124 1337.69 67.5124 Q1343.6 67.5124 1347.01 62.8538 Q1350.41 58.1548 1350.41 49.9314 Q1350.41 41.7081 1347.01 37.0496 Q1343.6 32.3505 1337.69 32.3505 Q1331.77 32.3505 1328.37 37.0496 Q1325.01 41.7081 1325.01 49.9314 Z" fill="#000000" fill-rule="evenodd" fill-opacity="1" /><path clip-path="url(#clip950)" d="M1399.91 12.096 L1438.15 12.096 L1438.15 18.9825 L1408.09 18.9825 L1408.09 36.8875 L1436.89 36.8875 L1436.89 43.7741 L1408.09 43.7741 L1408.09 65.6895 L1438.88 65.6895 L1438.88 72.576 L1399.91 72.576 L1399.91 12.096 Z" fill="#000000" fill-rule="evenodd" fill-opacity="1" /><path clip-path="url(#clip950)" d="M1489.72 27.2059 L1473.31 49.2833 L1490.57 72.576 L1481.78 72.576 L1468.57 54.752 L1455.37 72.576 L1446.58 72.576 L1464.2 48.8377 L1448.08 27.2059 L1456.87 27.2059 L1468.9 43.369 L1480.93 27.2059 L1489.72 27.2059 Z" fill="#000000" fill-rule="evenodd" fill-opacity="1" /><path clip-path="url(#clip950)" d="M1508.31 65.7705 L1508.31 89.8329 L1500.82 89.8329 L1500.82 27.2059 L1508.31 27.2059 L1508.31 34.0924 Q1510.66 30.0415 1514.23 28.0971 Q1517.83 26.1121 1522.81 26.1121 Q1531.08 26.1121 1536.22 32.6746 Q1541.41 39.2371 1541.41 49.9314 Q1541.41 60.6258 1536.22 67.1883 Q1531.08 73.7508 1522.81 73.7508 Q1517.83 73.7508 1514.23 71.8063 Q1510.66 69.8214 1508.31 65.7705 M1533.67 49.9314 Q1533.67 41.7081 1530.27 37.0496 Q1526.91 32.3505 1520.99 32.3505 Q1515.08 32.3505 1511.67 37.0496 Q1508.31 41.7081 1508.31 49.9314 Q1508.31 58.1548 1511.67 62.8538 Q1515.08 67.5124 1520.99 67.5124 Q1526.91 67.5124 1530.27 62.8538 Q1533.67 58.1548 1533.67 49.9314 Z" fill="#000000" fill-rule="evenodd" fill-opacity="1" /><path clip-path="url(#clip950)" d="M1571.34 32.4315 Q1565.35 32.4315 1561.87 37.1306 Q1558.38 41.7891 1558.38 49.9314 Q1558.38 58.0738 1561.82 62.7728 Q1565.31 67.4314 1571.34 67.4314 Q1577.3 67.4314 1580.78 62.7323 Q1584.27 58.0333 1584.27 49.9314 Q1584.27 41.8701 1580.78 37.1711 Q1577.3 32.4315 1571.34 32.4315 M1571.34 26.1121 Q1581.07 26.1121 1586.62 32.4315 Q1592.17 38.7509 1592.17 49.9314 Q1592.17 61.0714 1586.62 67.4314 Q1581.07 73.7508 1571.34 73.7508 Q1561.58 73.7508 1556.03 67.4314 Q1550.52 61.0714 1550.52 49.9314 Q1550.52 38.7509 1556.03 32.4315 Q1561.58 26.1121 1571.34 26.1121 Z" fill="#000000" fill-rule="evenodd" fill-opacity="1" /><path clip-path="url(#clip950)" d="M1633.44 28.5427 L1633.44 35.5912 Q1630.28 33.9709 1626.88 33.1607 Q1623.48 32.3505 1619.83 32.3505 Q1614.28 32.3505 1611.49 34.0519 Q1608.73 35.7533 1608.73 39.156 Q1608.73 41.7486 1610.72 43.2475 Q1612.7 44.7058 1618.7 46.0426 L1621.25 46.6097 Q1629.19 48.3111 1632.51 51.4303 Q1635.88 54.509 1635.88 60.0587 Q1635.88 66.3781 1630.85 70.0644 Q1625.87 73.7508 1617.12 73.7508 Q1613.47 73.7508 1609.5 73.0216 Q1605.57 72.3329 1601.2 70.9151 L1601.2 63.2184 Q1605.33 65.3654 1609.34 66.4591 Q1613.35 67.5124 1617.28 67.5124 Q1622.55 67.5124 1625.38 65.73 Q1628.22 63.9071 1628.22 60.6258 Q1628.22 57.5877 1626.15 55.9673 Q1624.13 54.3469 1617.2 52.8481 L1614.61 52.2405 Q1607.68 50.7821 1604.6 47.7845 Q1601.52 44.7463 1601.52 39.4801 Q1601.52 33.0797 1606.06 29.5959 Q1610.6 26.1121 1618.94 26.1121 Q1623.07 26.1121 1626.72 26.7198 Q1630.37 27.3274 1633.44 28.5427 Z" fill="#000000" fill-rule="evenodd" fill-opacity="1" /><path clip-path="url(#clip950)" d="M1686.55 48.0275 L1686.55 51.6733 L1652.28 51.6733 Q1652.77 59.3701 1656.9 63.421 Q1661.07 67.4314 1668.48 67.4314 Q1672.78 67.4314 1676.79 66.3781 Q1680.84 65.3249 1684.81 63.2184 L1684.81 70.267 Q1680.8 71.9684 1676.59 72.8596 Q1672.37 73.7508 1668.04 73.7508 Q1657.18 73.7508 1650.82 67.4314 Q1644.5 61.1119 1644.5 50.3365 Q1644.5 39.1965 1650.5 32.6746 Q1656.53 26.1121 1666.74 26.1121 Q1675.9 26.1121 1681.2 32.0264 Q1686.55 37.9003 1686.55 48.0275 M1679.1 45.84 Q1679.02 39.7232 1675.66 36.0774 Q1672.33 32.4315 1666.82 32.4315 Q1660.59 32.4315 1656.82 35.9558 Q1653.09 39.4801 1652.52 45.8805 L1679.1 45.84 Z" fill="#000000" fill-rule="evenodd" fill-opacity="1" /><path clip-path="url(#clip950)" d="M1728.64 34.0924 L1728.64 9.54393 L1736.09 9.54393 L1736.09 72.576 L1728.64 72.576 L1728.64 65.7705 Q1726.29 69.8214 1722.69 71.8063 Q1719.12 73.7508 1714.1 73.7508 Q1705.87 73.7508 1700.69 67.1883 Q1695.55 60.6258 1695.55 49.9314 Q1695.55 39.2371 1700.69 32.6746 Q1705.87 26.1121 1714.1 26.1121 Q1719.12 26.1121 1722.69 28.0971 Q1726.29 30.0415 1728.64 34.0924 M1703.24 49.9314 Q1703.24 58.1548 1706.6 62.8538 Q1710.01 67.5124 1715.92 67.5124 Q1721.84 67.5124 1725.24 62.8538 Q1728.64 58.1548 1728.64 49.9314 Q1728.64 41.7081 1725.24 37.0496 Q1721.84 32.3505 1715.92 32.3505 Q1710.01 32.3505 1706.6 37.0496 Q1703.24 41.7081 1703.24 49.9314 Z" fill="#000000" fill-rule="evenodd" fill-opacity="1" /><polyline clip-path="url(#clip952)" style="stroke:#009af9; stroke-linecap:butt; stroke-linejoin:round; stroke-width:4; stroke-opacity:1; fill:none" points="
  235.283,1324.47 240.577,1318.4 245.87,1312.03 251.164,1305.32 256.458,1298.25 261.751,1290.81 267.045,1282.98 272.339,1274.61 277.632,1265.35 282.926,1255.57 
  288.22,1245.34 293.513,1234.59 298.807,1223.33 304.101,1211.43 309.394,1199.12 314.688,1186.59 319.982,1173.87 325.275,1160.77 330.569,1147.05 335.863,1132.78 
  341.157,1118 346.45,1102.83 351.744,1088.37 357.038,1074.04 362.331,1059.16 367.625,1043.54 372.919,1027.45 378.212,1010.99 383.506,994.14 388.8,975.215 
  394.093,954.236 399.387,932.123 404.681,909.516 409.974,886.78 415.268,863.998 420.562,840.683 425.855,815.208 431.149,788.969 436.443,762.926 441.736,736.397 
  447.03,708.75 452.324,686.022 457.618,670.459 462.911,659.245 468.205,648.062 473.499,637.602 478.792,627.964 484.086,619.226 489.38,611.943 494.673,608.021 
  499.967,606.861 505.261,607.738 510.554,610.132 515.848,613.783 521.142,618.815 526.435,625.18 531.729,632.65 537.023,640.619 542.316,649.317 547.61,658.95 
  552.904,669.586 558.197,681.153 563.491,693.443 568.785,706.363 574.079,720.322 579.372,735.35 584.666,752.878 589.96,771.677 595.253,786.221 600.547,796.764 
  605.841,809.586 611.134,829.688 616.428,850.063 621.722,870.405 627.015,890.677 632.309,910.952 637.603,931.065 642.896,950.826 648.19,970.106 653.484,988.832 
  658.777,1006.99 664.071,1024.62 669.365,1041.82 674.659,1058.76 679.952,1075.5 685.246,1091.93 690.54,1107.96 695.833,1123.51 701.127,1138.54 706.421,1153.03 
  711.714,1166.85 717.008,1179.54 722.302,1191.4 727.595,1202.7 732.889,1213.62 738.183,1224.22 743.476,1234.46 748.77,1244.28 754.064,1253.77 759.357,1262.79 
  764.651,1271.2 769.945,1278.91 775.238,1285.86 780.532,1292.03 785.826,1297.42 791.12,1302.09 796.413,1306.15 801.707,1309.68 807.001,1312.76 812.294,1315.44 
  817.588,1317.75 822.882,1319.73 828.175,1321.37 833.469,1322.69 838.763,1323.71 844.056,1324.46 849.35,1324.96 854.644,1325.22 859.937,1325.23 865.231,1324.92 
  870.525,1324.25 875.818,1323.25 881.112,1321.9 886.406,1320.22 891.699,1318.21 896.993,1315.84 902.287,1313.01 907.581,1309.65 912.874,1305.73 918.168,1301.21 
  923.462,1296.08 928.755,1290.6 934.049,1284.66 939.343,1278.21 944.636,1271.29 949.93,1264.06 955.224,1256.74 960.517,1249.12 965.811,1240.97 971.105,1232.22 
  976.398,1222.89 981.692,1213.15 986.986,1202.83 992.279,1192.12 997.573,1181.68 1002.87,1171.68 1008.16,1161.82 1013.45,1151.33 1018.75,1139.71 1024.04,1127.95 
  1029.34,1116.11 1034.63,1104.24 1039.92,1092.36 1045.22,1080.44 1050.51,1068.1 1055.8,1055.38 1061.1,1042.4 1066.39,1029.29 1071.68,1016.18 1076.98,1003.18 
  1082.27,990.421 1087.57,977.65 1092.86,962.162 1098.15,945.172 1103.45,928.146 1108.74,911.648 1114.03,895.381 1119.33,879.226 1124.62,863.604 1129.92,848.819 
  1135.21,835.041 1140.5,822.304 1145.8,810.62 1151.09,800.009 1156.38,790.131 1161.68,780.791 1166.97,771.973 1172.26,763.834 1177.56,756.784 1182.85,751.168 
  1188.15,746.297 1193.44,741.67 1198.73,737.116 1204.03,732.789 1209.32,729.17 1214.61,726.839 1219.91,725.674 1225.2,725.749 1230.5,727.126 1235.79,729.818 
  1241.08,733.787 1246.38,738.946 1251.67,745.077 1256.96,751.958 1262.26,759.879 1267.55,769.05 1272.84,779.557 1278.14,791.357 1283.43,804.284 1288.73,818.045 
  1294.02,832.223 1299.31,846.275 1304.61,859.666 1309.9,872.489 1315.19,884.769 1320.49,896.524 1325.78,907.792 1331.08,918.639 1336.37,929.153 1341.66,939.444 
  1346.96,949.486 1352.25,958.842 1357.54,967.702 1362.84,976.256 1368.13,984.62 1373.42,992.833 1378.72,1000.86 1384.01,1008.8 1389.31,1016.97 1394.6,1025.18 
  1399.89,1033.28 1405.19,1041.22 1410.48,1049.06 1415.77,1056.88 1421.07,1064.02 1426.36,1070.58 1431.66,1076.92 1436.95,1083.23 1442.24,1089.52 1447.54,1095.8 
  1452.83,1102.08 1458.12,1108.07 1463.42,1113.63 1468.71,1118.7 1474,1123.31 1479.3,1127.62 1484.59,1131.85 1489.89,1135.97 1495.18,1140.03 1500.47,1144.09 
  1505.77,1148.19 1511.06,1152.31 1516.35,1156.43 1521.65,1160.47 1526.94,1164.36 1532.24,1168.11 1537.53,1171.74 1542.82,1175.29 1548.12,1178.77 1553.41,1182.19 
  1558.7,1185.57 1564,1188.89 1569.29,1192.16 1574.58,1195.34 1579.88,1198.49 1585.17,1201.7 1590.47,1205 1595.76,1208.43 1601.05,1211.98 1606.35,1215.6 
  1611.64,1219.25 1616.93,1222.82 1622.23,1226.32 1627.52,1229.75 1632.82,1233.12 1638.11,1236.44 1643.4,1239.71 1648.7,1242.93 1653.99,1246.09 1659.28,1249.19 
  1664.58,1252.22 1669.87,1255.18 1675.16,1258.1 1680.46,1260.95 1685.75,1263.75 1691.05,1266.5 1696.34,1269.19 1701.63,1271.83 1706.93,1274.4 1712.22,1276.92 
  1717.51,1279.27 1722.81,1281.3 1728.1,1283.02 1733.4,1284.41 1738.69,1285.46 1743.98,1286.16 1749.28,1286.51 1754.57,1286.5 1759.86,1286.1 1765.16,1285.32 
  1770.45,1284.12 1775.74,1282.45 1781.04,1280.26 1786.33,1277.53 1791.63,1274.24 1796.92,1270.38 1802.21,1265.75 1807.51,1260.36 1812.8,1254.3 1818.09,1247.66 
  1823.39,1240.51 1828.68,1232.94 1833.98,1225 1839.27,1216.74 1844.56,1208.2 1849.86,1199.43 1855.15,1190.4 1860.44,1181 1865.74,1171.37 1871.03,1161.66 
  1876.32,1151.97 1881.62,1142.35 1886.91,1132.79 1892.21,1123.24 1897.5,1113.64 1902.79,1104.23 1908.09,1094.95 1913.38,1085.69 1918.67,1076.44 1923.97,1067.24 
  1929.26,1058.27 1934.55,1049.76 1939.85,1041.26 1945.14,1032.43 1950.44,1023.16 1955.73,1013.61 1961.02,1004.14 1966.32,995.34 1971.61,987.028 1976.9,978.759 
  1982.2,970.208 1987.49,961.17 1992.79,951.56 1998.08,941.417 2003.37,930.876 2008.67,919.948 2013.96,908.683 2019.25,897.141 2024.55,885.363 2029.84,873.368 
  2035.13,861.161 2040.43,848.731 2045.72,836.761 2051.02,825.458 2056.31,814.505 2061.6,803.649 2066.9,792.701 2072.19,781.54 2077.48,770.106 2082.78,758.406 
  2088.07,746.692 2093.37,737.263 2098.66,729.174 2103.95,721.05 2109.25,712.376 2114.54,703.167 2119.83,692.708 2125.13,683.857 2130.42,678.534 2135.71,676.786 
  2141.01,676.814 2146.3,677.344 2151.6,678.236 2156.89,679.152 2162.18,680.044 2167.48,681.118 2172.77,682.414 2178.06,683.883 2183.36,685.501 2188.65,687.245 
  2193.95,689.093 2199.24,691.022 2204.53,692.916 2209.83,694.781 2215.12,696.668 2220.41,698.596 2225.71,700.559 2231,701.912 2236.29,701.589 2241.59,700.872 
  2246.88,700.6 2252.18,701 2257.47,701.693 2262.76,702.813 2268.06,703.555 2273.35,703.052 2278.64,701.607 2283.94,700.253 2289.23,698.992 2294.53,697.794 
  2299.82,696.652 2305.11,695.559 2310.41,694.523 2315.7,694.545 2320.99,694.783 2326.29,693.834 2331.58,691.192 2336.87,686.587 2342.17,682.005 2347.46,678.769 
  2352.76,671.163 
  "/>
<polyline clip-path="url(#clip952)" style="stroke:#e26f46; stroke-linecap:butt; stroke-linejoin:round; stroke-width:4; stroke-opacity:1; fill:none" points="
  235.283,1339.28 240.577,1336.89 245.87,1334.07 251.164,1330.83 256.458,1327.2 261.751,1323.19 267.045,1318.83 272.339,1314.18 277.632,1309.38 282.926,1304.17 
  288.22,1298.53 293.513,1292.49 298.807,1286.08 304.101,1279.59 309.394,1272.45 314.688,1264.16 319.982,1254.74 325.275,1244.65 330.569,1234.56 335.863,1224.31 
  341.157,1213.89 346.45,1203.03 351.744,1189 357.038,1173.31 362.331,1157.81 367.625,1143.04 372.919,1128.48 378.212,1114.03 383.506,1099.66 388.8,1084.16 
  394.093,1067.5 399.387,1050.25 404.681,1032.81 409.974,1015.37 415.268,997.95 420.562,980.439 425.855,962.98 431.149,945.353 436.443,927.45 441.736,909.262 
  447.03,890.74 452.324,873.078 457.618,857.061 462.911,842.834 468.205,830.041 473.499,818.514 478.792,808.205 484.086,799.076 489.38,794.01 494.673,801.524 
  499.967,813.413 505.261,823.918 510.554,832.001 515.848,840.433 521.142,849.025 526.435,857.6 531.729,865.707 537.023,871.484 542.316,876.169 547.61,880.97 
  552.904,886.645 558.197,893.509 563.491,901.396 568.785,909.704 574.079,919.85 579.372,931.862 584.666,944.453 589.96,957.327 595.253,969.444 600.547,980.769 
  605.841,992.342 611.134,1005.16 616.428,1018.25 621.722,1031.51 627.015,1044.86 632.309,1058.31 637.603,1071.74 642.896,1085.05 648.19,1098.17 653.484,1111.04 
  658.777,1123.63 664.071,1135.92 669.365,1147.92 674.659,1159.71 679.952,1171.43 685.246,1182.98 690.54,1194.23 695.833,1205.09 701.127,1215.54 706.421,1225.59 
  711.714,1235.19 717.008,1244.04 722.302,1252.31 727.595,1260.19 732.889,1267.77 738.183,1275.1 743.476,1282.17 748.77,1288.96 754.064,1295.53 759.357,1301.78 
  764.651,1307.59 769.945,1312.91 775.238,1317.7 780.532,1321.95 785.826,1325.6 791.12,1328.68 796.413,1331.32 801.707,1333.63 807.001,1335.66 812.294,1337.45 
  817.588,1339.03 822.882,1340.36 828.175,1341.44 833.469,1342.31 838.763,1342.97 844.056,1343.47 849.35,1343.79 854.644,1343.95 859.937,1343.92 865.231,1343.37 
  870.525,1342.36 875.818,1341.09 881.112,1339.68 886.406,1338.17 891.699,1336.5 896.993,1334.5 902.287,1331.75 907.581,1328.47 912.874,1324.84 918.168,1320.9 
  923.462,1316.52 928.755,1311.89 934.049,1306.97 939.343,1301.71 944.636,1296.15 949.93,1290.37 955.224,1284.56 960.517,1278.5 965.811,1271.97 971.105,1264.88 
  976.398,1257.28 981.692,1249.36 986.986,1241.38 992.279,1233.23 997.573,1224.73 1002.87,1215.85 1008.16,1206.75 1013.45,1197.76 1018.75,1189.06 1024.04,1180.21 
  1029.34,1171.22 1034.63,1162.14 1039.92,1153 1045.22,1143.67 1050.51,1133.19 1055.8,1121.94 1061.1,1110.45 1066.39,1099.08 1071.68,1088.03 1076.98,1077.37 
  1082.27,1066.98 1087.57,1056.33 1092.86,1043.13 1098.15,1028.63 1103.45,1014.17 1108.74,1000.28 1114.03,986.51 1119.33,972.42 1124.62,959.538 1129.92,948.814 
  1135.21,940.284 1140.5,933.078 1145.8,926.089 1151.09,919.661 1156.38,913.211 1161.68,906.426 1166.97,899.375 1172.26,892.512 1177.56,886.636 1182.85,881.962 
  1188.15,877.926 1193.44,874.154 1198.73,870.512 1204.03,867.104 1209.32,864.276 1214.61,862.453 1219.91,861.561 1225.2,861.632 1230.5,862.699 1235.79,864.769 
  1241.08,867.826 1246.38,871.824 1251.67,876.623 1256.96,882.042 1262.26,888.295 1267.55,895.54 1272.84,903.838 1278.14,913.151 1283.43,923.35 1288.73,934.204 
  1294.02,945.391 1299.31,956.488 1304.61,966.791 1309.9,975.614 1315.19,983.593 1320.49,991.277 1325.78,999.018 1331.08,1006.97 1336.37,1015.09 1341.66,1023.15 
  1346.96,1030.66 1352.25,1037.36 1357.54,1043.59 1362.84,1049.61 1368.13,1055.6 1373.42,1061.64 1378.72,1067.73 1384.01,1074.39 1389.31,1082.77 1394.6,1091.91 
  1399.89,1101.03 1405.19,1109.64 1410.48,1117.57 1415.77,1124.93 1421.07,1131.48 1426.36,1137.4 1431.66,1143.02 1436.95,1148.49 1442.24,1153.84 1447.54,1159.17 
  1452.83,1164.46 1458.12,1169.38 1463.42,1173.76 1468.71,1177.52 1474,1180.77 1479.3,1183.73 1484.59,1186.73 1489.89,1189.72 1495.18,1192.72 1500.47,1195.75 
  1505.77,1198.85 1511.06,1202.01 1516.35,1205.19 1521.65,1208.32 1526.94,1211.32 1532.24,1214.2 1537.53,1217 1542.82,1219.74 1548.12,1222.45 1553.41,1225.12 
  1558.7,1227.77 1564,1230.38 1569.29,1232.95 1574.58,1235.45 1579.88,1237.98 1585.17,1240.62 1590.47,1243.43 1595.76,1246.4 1601.05,1249.5 1606.35,1252.67 
  1611.64,1255.8 1616.93,1258.75 1622.23,1261.58 1627.52,1264.35 1632.82,1267.08 1638.11,1269.79 1643.4,1272.47 1648.7,1275.13 1653.99,1277.71 1659.28,1280.21 
  1664.58,1282.65 1669.87,1285.02 1675.16,1287.33 1680.46,1289.58 1685.75,1291.78 1691.05,1293.92 1696.34,1296 1701.63,1298.03 1706.93,1300.02 1712.22,1301.97 
  1717.51,1303.84 1722.81,1305.55 1728.1,1307.05 1733.4,1308.31 1738.69,1309.3 1743.98,1309.99 1749.28,1310.36 1754.57,1310.39 1759.86,1310.07 1765.16,1309.42 
  1770.45,1308.45 1775.74,1307.16 1781.04,1305.53 1786.33,1303.54 1791.63,1301.15 1796.92,1298.31 1802.21,1294.95 1807.51,1291.03 1812.8,1286.55 1818.09,1281.51 
  1823.39,1275.95 1828.68,1269.91 1833.98,1263.45 1839.27,1256.64 1844.56,1249.59 1849.86,1242.4 1855.15,1235.28 1860.44,1228.68 1865.74,1222.33 1871.03,1215.94 
  1876.32,1209.35 1881.62,1202.49 1886.91,1195.42 1892.21,1188.27 1897.5,1181.22 1902.79,1173.55 1908.09,1165.52 1913.38,1157.55 1918.67,1149.86 1923.97,1142.45 
  1929.26,1135.19 1934.55,1128.25 1939.85,1121.41 1945.14,1114.43 1950.44,1107.25 1955.73,1099.93 1961.02,1092.71 1966.32,1086.21 1971.61,1080.2 1976.9,1073.82 
  1982.2,1066.58 1987.49,1058.25 1992.79,1048.96 1998.08,1039.14 2003.37,1029.4 2008.67,1019.53 2013.96,1009.63 2019.25,999.868 2024.55,990.316 2029.84,980.934 
  2035.13,971.579 2040.43,962.011 2045.72,952.79 2051.02,944.159 2056.31,935.805 2061.6,927.485 2066.9,919.028 2072.19,910.334 2077.48,901.373 2082.78,892.187 
  2088.07,882.931 2093.37,874.224 2098.66,865.902 2103.95,857.686 2109.25,849.481 2114.54,840.668 2119.83,829.209 2125.13,822.542 2130.42,824.914 2135.71,835.063 
  2141.01,846.309 2146.3,855.226 2151.6,862.705 2156.89,868.438 2162.18,872.753 2167.48,876.513 2172.77,879.959 2178.06,883.085 2183.36,885.942 2188.65,888.576 
  2193.95,891.034 2199.24,893.344 2204.53,895.242 2209.83,896.814 2215.12,898.272 2220.41,899.736 2225.71,901.238 2231,903.851 2236.29,909.422 2241.59,915.56 
  2246.88,920.728 2252.18,924.561 2257.47,927.86 2262.76,931.486 2268.06,934.214 2273.35,935.355 2278.64,935.327 2283.94,935.219 2289.23,935.042 2294.53,934.789 
  2299.82,934.475 2305.11,934.113 2310.41,933.587 2315.7,921.303 2320.99,899.882 2326.29,878.995 2331.58,862.144 2336.87,848.557 2342.17,834.029 2347.46,815.963 
  2352.76,806.323 
  "/>
<polyline clip-path="url(#clip952)" style="stroke:#3da44d; stroke-linecap:butt; stroke-linejoin:round; stroke-width:4; stroke-opacity:1; fill:none" points="
  235.283,1386.4 240.577,1374.77 245.87,1363.26 251.164,1351.79 256.458,1340.3 261.751,1328.72 267.045,1316.99 272.339,1305.06 277.632,1292.81 282.926,1280.13 
  288.22,1267 293.513,1253.38 298.807,1239.23 304.101,1224.49 309.394,1209.15 314.688,1193.21 319.982,1176.67 325.275,1159.56 330.569,1141.86 335.863,1123.53 
  341.157,1104.53 346.45,1084.86 351.744,1064.72 357.038,1044.07 362.331,1022.85 367.625,1001.1 372.919,978.912 378.212,956.156 383.506,932.816 388.8,908.632 
  394.093,883.41 399.387,857.091 404.681,829.647 409.974,801.076 415.268,771.406 420.562,740.676 425.855,708.78 431.149,675.659 436.443,641.356 441.736,605.958 
  447.03,569.466 452.324,532.394 457.618,495.577 462.911,460.107 468.205,426.618 473.499,394.72 478.792,364.384 484.086,335.6 489.38,308.436 494.673,283.253 
  499.967,260.173 505.261,239.334 510.554,220.929 515.848,205.137 521.142,191.81 526.435,180.906 531.729,172.435 537.023,166.381 542.316,162.446 547.61,160.429 
  552.904,160.256 558.197,161.987 563.491,165.799 568.785,171.562 574.079,179.12 579.372,188.462 584.666,199.505 589.96,212.278 595.253,226.902 600.547,243.035 
  605.841,259.849 611.134,277.142 616.428,296.214 621.722,316.917 627.015,339.069 632.309,362.501 637.603,387.055 642.896,412.572 648.19,438.895 653.484,465.87 
  658.777,493.34 664.071,521.154 669.365,549.159 674.659,577.214 679.952,605.298 685.246,633.385 690.54,661.422 695.833,689.345 701.127,717.077 706.421,744.532 
  711.714,771.63 717.008,798.292 722.302,824.354 727.595,849.706 732.889,874.303 738.183,898.162 743.476,921.37 748.77,944.016 754.064,966.015 759.357,987.348 
  764.651,1007.99 769.945,1027.9 775.238,1047.04 780.532,1065.33 785.826,1082.71 791.12,1099.16 796.413,1114.66 801.707,1129.22 807.001,1142.85 812.294,1155.56 
  817.588,1167.37 822.882,1178.32 828.175,1188.43 833.469,1197.74 838.763,1206.28 844.056,1214.09 849.35,1221.18 854.644,1227.6 859.937,1233.36 865.231,1238.46 
  870.525,1242.93 875.818,1246.8 881.112,1250.08 886.406,1252.76 891.699,1254.84 896.993,1256.28 902.287,1257.08 907.581,1257.25 912.874,1256.77 918.168,1255.59 
  923.462,1253.66 928.755,1250.98 934.049,1247.55 939.343,1243.38 944.636,1238.48 949.93,1232.81 955.224,1226.44 960.517,1219.39 965.811,1211.67 971.105,1203.26 
  976.398,1194.15 981.692,1184.29 986.986,1173.71 992.279,1162.42 997.573,1150.42 1002.87,1137.77 1008.16,1124.53 1013.45,1110.86 1018.75,1096.78 1024.04,1082.1 
  1029.34,1066.86 1034.63,1051.1 1039.92,1034.87 1045.22,1018.22 1050.51,1001.09 1055.8,983.511 1061.1,965.512 1066.39,947.131 1071.68,928.399 1076.98,909.341 
  1082.27,889.978 1087.57,870.318 1092.86,850.163 1098.15,829.266 1103.45,807.541 1108.74,785.055 1114.03,762.008 1119.33,738.504 1124.62,714.641 1129.92,690.564 
  1135.21,666.443 1140.5,642.478 1145.8,618.881 1151.09,595.78 1156.38,573.262 1161.68,551.397 1166.97,530.236 1172.26,509.81 1177.56,490.152 1182.85,471.428 
  1188.15,453.692 1193.44,436.956 1198.73,421.203 1204.03,406.393 1209.32,392.461 1214.61,379.383 1219.91,367.364 1225.2,356.521 1230.5,346.95 1235.79,338.741 
  1241.08,331.979 1246.38,326.742 1251.67,323.078 1256.96,320.971 1262.26,320.462 1267.55,321.59 1272.84,324.377 1278.14,328.831 1283.43,334.947 1288.73,342.705 
  1294.02,352.072 1299.31,362.999 1304.61,375.319 1309.9,388.565 1315.19,402.637 1320.49,417.446 1325.78,432.879 1331.08,448.793 1336.37,465.017 1341.66,481.355 
  1346.96,497.645 1352.25,513.954 1357.54,530.184 1362.84,546.249 1368.13,562.1 1373.42,577.727 1378.72,593.157 1384.01,608.347 1389.31,623.218 1394.6,638.027 
  1399.89,652.912 1405.19,667.871 1410.48,682.764 1415.77,697.325 1421.07,711.608 1426.36,725.617 1431.66,739.283 1436.95,752.6 1442.24,765.634 1447.54,778.459 
  1452.83,791.054 1458.12,803.398 1463.42,815.467 1468.71,827.232 1474,838.654 1479.3,849.691 1484.59,860.301 1489.89,870.527 1495.18,880.413 1500.47,889.989 
  1505.77,899.283 1511.06,908.326 1516.35,917.148 1521.65,925.776 1526.94,934.215 1532.24,942.452 1537.53,950.484 1542.82,958.31 1548.12,965.933 1553.41,973.362 
  1558.7,980.608 1564,987.69 1569.29,994.623 1574.58,1001.38 1579.88,1007.97 1585.17,1014.46 1590.47,1020.87 1595.76,1027.23 1601.05,1033.56 1606.35,1039.86 
  1611.64,1046.14 1616.93,1052.38 1622.23,1058.6 1627.52,1064.78 1632.82,1070.92 1638.11,1077.01 1643.4,1083.05 1648.7,1089.03 1653.99,1094.95 1659.28,1100.82 
  1664.58,1106.61 1669.87,1112.33 1675.16,1117.98 1680.46,1123.54 1685.75,1129.02 1691.05,1134.42 1696.34,1139.73 1701.63,1144.95 1706.93,1150.1 1712.22,1155.16 
  1717.51,1160.09 1722.81,1164.87 1728.1,1169.47 1733.4,1173.89 1738.69,1178.11 1743.98,1182.08 1749.28,1185.75 1754.57,1189.08 1759.86,1191.97 1765.16,1194.43 
  1770.45,1196.44 1775.74,1197.99 1781.04,1199.03 1786.33,1199.53 1791.63,1199.44 1796.92,1198.71 1802.21,1197.31 1807.51,1195.16 1812.8,1192.23 1818.09,1188.47 
  1823.39,1183.88 1828.68,1178.44 1833.98,1172.17 1839.27,1165.09 1844.56,1157.24 1849.86,1148.67 1855.15,1139.47 1860.44,1129.72 1865.74,1119.34 1871.03,1108.28 
  1876.32,1096.54 1881.62,1084.17 1886.91,1071.28 1892.21,1058.03 1897.5,1044.62 1902.79,1030.92 1908.09,1016.98 1913.38,1002.91 1918.67,988.725 1923.97,974.418 
  1929.26,959.935 1934.55,945.392 1939.85,930.834 1945.14,916.251 1950.44,901.617 1955.73,886.89 1961.02,872.009 1966.32,857.022 1971.61,842.075 1976.9,827.194 
  1982.2,812.373 1987.49,797.568 1992.79,782.702 1998.08,767.66 2003.37,752.308 2008.67,736.63 2013.96,720.621 2019.25,704.266 2024.55,687.553 2029.84,670.474 
  2035.13,653.026 2040.43,635.209 2045.72,617.036 2051.02,598.647 2056.31,580.184 2061.6,561.737 2066.9,543.35 2072.19,525.012 2077.48,506.663 2082.78,488.195 
  2088.07,469.476 2093.37,450.879 2098.66,432.62 2103.95,414.731 2109.25,397.214 2114.54,380.014 2119.83,362.902 2125.13,345.946 2130.42,329.435 2135.71,313.827 
  2141.01,299.748 2146.3,287.334 2151.6,276.346 2156.89,266.678 2162.18,258.205 2167.48,250.793 2172.77,244.374 2178.06,238.877 2183.36,234.23 2188.65,230.365 
  2193.95,227.225 2199.24,224.759 2204.53,222.91 2209.83,221.594 2215.12,220.739 2220.41,220.297 2225.71,220.244 2231,220.615 2236.29,221.215 2241.59,221.585 
  2246.88,221.563 2252.18,221.3 2257.47,221.266 2262.76,221.6 2268.06,222.047 2273.35,222.496 2278.64,222.77 2283.94,222.715 2289.23,222.431 2294.53,221.955 
  2299.82,221.319 2305.11,220.55 2310.41,219.679 2315.7,219.331 2320.99,218.969 2326.29,217.907 2331.58,216.259 2336.87,214.686 2342.17,212.567 2347.46,209.809 
  2352.76,206.472 
  "/>
<polyline clip-path="url(#clip952)" style="stroke:#c271d2; stroke-linecap:butt; stroke-linejoin:round; stroke-width:4; stroke-opacity:1; fill:none" points="
  235.283,1386.4 240.577,1377.75 245.87,1369.56 251.164,1361.68 256.458,1354.01 261.751,1346.47 267.045,1338.97 272.339,1331.45 277.632,1323.88 282.926,1316.22 
  288.22,1308.4 293.513,1300.35 298.807,1292.03 304.101,1283.45 309.394,1274.52 314.688,1265.15 319.982,1255.22 325.275,1244.62 330.569,1233.29 335.863,1221.33 
  341.157,1208.78 346.45,1195.63 351.744,1181.38 357.038,1166.12 362.331,1150 367.625,1132.94 372.919,1114.81 378.212,1095.98 383.506,1076.56 388.8,1056.53 
  394.093,1035.75 399.387,1014.14 404.681,991.691 409.974,968.436 415.268,944.477 420.562,919.974 425.855,894.99 431.149,869.439 436.443,843.34 441.736,816.813 
  447.03,789.83 452.324,762.446 457.618,734.878 462.911,707.482 468.205,680.614 473.499,654.404 478.792,628.997 484.086,604.527 489.38,580.992 494.673,559.404 
  499.967,542.205 505.261,530.083 510.554,521.748 515.848,514.681 521.142,509.621 526.435,506.626 531.729,505.251 537.023,504.598 542.316,505.095 547.61,507.026 
  552.904,510.347 558.197,514.683 563.491,519.364 568.785,524.665 574.079,531.058 579.372,538.722 584.666,547.766 589.96,558.062 595.253,569.562 600.547,582.112 
  605.841,595.442 611.134,609.401 616.428,624.202 621.722,639.8 627.015,656.137 632.309,673.17 637.603,690.817 642.896,708.985 648.19,727.587 653.484,746.54 
  658.777,765.768 664.071,785.198 669.365,804.762 674.659,824.394 679.952,844.029 685.246,863.666 690.54,883.292 695.833,902.869 701.127,922.327 706.421,941.575 
  711.714,960.518 717.008,979.133 722.302,997.327 727.595,1015.03 732.889,1032.21 738.183,1048.88 743.476,1065.08 748.77,1080.86 754.064,1096.17 759.357,1111.01 
  764.651,1125.37 769.945,1139.22 775.238,1152.53 780.532,1165.25 785.826,1177.33 791.12,1188.77 796.413,1199.52 801.707,1209.56 807.001,1218.9 812.294,1227.56 
  817.588,1235.6 822.882,1243.08 828.175,1250.02 833.469,1256.4 838.763,1262.24 844.056,1267.57 849.35,1272.42 854.644,1276.8 859.937,1280.73 865.231,1284.26 
  870.525,1287.31 875.818,1289.81 881.112,1291.74 886.406,1293.11 891.699,1294.03 896.993,1294.6 902.287,1294.76 907.581,1294.36 912.874,1293.34 918.168,1291.73 
  923.462,1289.56 928.755,1286.83 934.049,1283.53 939.343,1279.67 944.636,1275.26 949.93,1270.3 955.224,1264.82 960.517,1258.84 965.811,1252.36 971.105,1245.36 
  976.398,1237.81 981.692,1229.67 986.986,1220.93 992.279,1211.65 997.573,1201.85 1002.87,1191.56 1008.16,1180.79 1013.45,1169.53 1018.75,1157.85 1024.04,1145.82 
  1029.34,1133.47 1034.63,1120.8 1039.92,1107.84 1045.22,1094.64 1050.51,1081.33 1055.8,1067.6 1061.1,1053.2 1066.39,1038.02 1071.68,1022.12 1076.98,1005.7 
  1082.27,989.105 1087.57,972.74 1092.86,956.036 1098.15,938.665 1103.45,920.584 1108.74,901.847 1114.03,882.581 1119.33,862.848 1124.62,842.847 1129.92,822.839 
  1135.21,803.113 1140.5,783.989 1145.8,765.716 1151.09,748.163 1156.38,731.274 1161.68,714.994 1166.97,699.255 1172.26,683.975 1177.56,669.1 1182.85,654.836 
  1188.15,641.262 1193.44,628.404 1198.73,616.266 1204.03,604.832 1209.32,594.067 1214.61,583.962 1219.91,574.675 1225.2,566.295 1230.5,558.9 1235.79,552.558 
  1241.08,547.336 1246.38,543.292 1251.67,540.47 1256.96,538.869 1262.26,538.524 1267.55,539.462 1272.84,541.702 1278.14,545.249 1283.43,550.102 1288.73,556.246 
  1294.02,563.656 1299.31,572.3 1304.61,582.152 1309.9,592.984 1315.19,604.272 1320.49,615.64 1325.78,626.89 1331.08,637.997 1336.37,649.114 1341.66,660.567 
  1346.96,672.598 1352.25,684.562 1357.54,696.443 1362.84,708.283 1368.13,720.077 1373.42,731.776 1378.72,743.289 1384.01,754.799 1389.31,766.837 1394.6,779.014 
  1399.89,791.099 1405.19,803.071 1410.48,815.126 1415.77,827.642 1421.07,840.31 1426.36,852.764 1431.66,864.925 1436.95,876.769 1442.24,888.325 1447.54,899.645 
  1452.83,910.713 1458.12,921.503 1463.42,931.981 1468.71,942.11 1474,951.846 1479.3,961.137 1484.59,969.94 1489.89,978.338 1495.18,986.393 1500.47,994.14 
  1505.77,1001.61 1511.06,1008.85 1516.35,1015.89 1521.65,1022.75 1526.94,1029.47 1532.24,1036.01 1537.53,1042.38 1542.82,1048.56 1548.12,1054.56 1553.41,1060.38 
  1558.7,1066.06 1564,1071.61 1569.29,1077.06 1574.58,1082.47 1579.88,1087.82 1585.17,1093.05 1590.47,1098.18 1595.76,1103.21 1601.05,1108.16 1606.35,1113.1 
  1611.64,1118.1 1616.93,1123.22 1622.23,1128.34 1627.52,1133.42 1632.82,1138.46 1638.11,1143.46 1643.4,1148.42 1648.7,1153.32 1653.99,1158.18 1659.28,1162.97 
  1664.58,1167.69 1669.87,1172.35 1675.16,1176.93 1680.46,1181.44 1685.75,1185.89 1691.05,1190.27 1696.34,1194.57 1701.63,1198.79 1706.93,1202.92 1712.22,1206.96 
  1717.51,1210.98 1722.81,1214.98 1728.1,1218.84 1733.4,1222.49 1738.69,1225.87 1743.98,1228.95 1749.28,1231.73 1754.57,1234.25 1759.86,1236.56 1765.16,1238.61 
  1770.45,1240.31 1775.74,1241.62 1781.04,1242.54 1786.33,1243.04 1791.63,1243.09 1796.92,1242.66 1802.21,1241.74 1807.51,1240.25 1812.8,1238.16 1818.09,1235.43 
  1823.39,1232.05 1828.68,1227.99 1833.98,1223.24 1839.27,1217.83 1844.56,1211.75 1849.86,1205.04 1855.15,1197.68 1860.44,1189.65 1865.74,1181.22 1871.03,1172.62 
  1876.32,1163.97 1881.62,1155.28 1886.91,1146.46 1892.21,1137.31 1897.5,1127.58 1902.79,1117.56 1908.09,1107.2 1913.38,1096.42 1918.67,1085.24 1923.97,1073.82 
  1929.26,1062.4 1934.55,1050.97 1939.85,1039.49 1945.14,1027.97 1950.44,1016.42 1955.73,1004.82 1961.02,993.143 1966.32,981.458 1971.61,969.867 1976.9,958.325 
  1982.2,946.76 1987.49,935.073 1992.79,923.141 1998.08,910.813 2003.37,897.942 2008.67,884.655 2013.96,871.018 2019.25,857.067 2024.55,842.839 2029.84,828.379 
  2035.13,813.738 2040.43,798.97 2045.72,784.01 2051.02,768.942 2056.31,753.923 2061.6,739.053 2066.9,724.363 2072.19,709.829 2077.48,695.358 2082.78,680.8 
  2088.07,665.95 2093.37,650.896 2098.66,635.926 2103.95,621.165 2109.25,606.572 2114.54,591.922 2119.83,576.956 2125.13,562.217 2130.42,548.532 2135.71,536.908 
  2141.01,528.511 2146.3,523.078 2151.6,519.662 2156.89,517.81 2162.18,517.093 2167.48,517.127 2172.77,517.767 2178.06,518.928 2183.36,520.517 2188.65,522.446 
  2193.95,524.634 2199.24,527.001 2204.53,529.442 2209.83,531.937 2215.12,534.486 2220.41,537.067 2225.71,539.642 2231,542.058 2236.29,544.583 2241.59,548.047 
  2246.88,552.707 2252.18,558.195 2257.47,563.525 2262.76,568.489 2268.06,573.48 2273.35,578.317 2278.64,582.788 2283.94,586.724 2289.23,590.214 2294.53,593.301 
  2299.82,596.014 2305.11,598.383 2310.41,600.416 2315.7,600.252 2320.99,597.291 2326.29,592.014 2331.58,584.322 2336.87,573.816 2342.17,561.758 2347.46,548.404 
  2352.76,533.764 
  "/>
<path clip-path="url(#clip950)" d="
M1831.71 425.996 L2282.17 425.996 L2282.17 166.796 L1831.71 166.796  Z
  " fill="#ffffff" fill-rule="evenodd" fill-opacity="1"/>
<polyline clip-path="url(#clip950)" style="stroke:#000000; stroke-linecap:butt; stroke-linejoin:round; stroke-width:4; stroke-opacity:1; fill:none" points="
  1831.71,425.996 2282.17,425.996 2282.17,166.796 1831.71,166.796 1831.71,425.996 
  "/>
<polyline clip-path="url(#clip950)" style="stroke:#009af9; stroke-linecap:butt; stroke-linejoin:round; stroke-width:4; stroke-opacity:1; fill:none" points="
  1855.24,218.636 1996.41,218.636 
  "/>
<path clip-path="url(#clip950)" d="M2030.56 199.944 Q2027.46 205.268 2025.95 210.476 Q2024.45 215.684 2024.45 221.032 Q2024.45 226.379 2025.95 231.633 Q2027.48 236.865 2030.56 242.166 L2026.86 242.166 Q2023.38 236.726 2021.65 231.471 Q2019.93 226.217 2019.93 221.032 Q2019.93 215.87 2021.65 210.638 Q2023.36 205.407 2026.86 199.944 L2030.56 199.944 Z" fill="#000000" fill-rule="evenodd" fill-opacity="1" /><path clip-path="url(#clip950)" d="M2043.04 202.629 L2043.04 209.99 L2051.81 209.99 L2051.81 213.3 L2043.04 213.3 L2043.04 227.374 Q2043.04 230.545 2043.89 231.448 Q2044.77 232.351 2047.43 232.351 L2051.81 232.351 L2051.81 235.916 L2047.43 235.916 Q2042.5 235.916 2040.63 234.087 Q2038.75 232.235 2038.75 227.374 L2038.75 213.3 L2035.63 213.3 L2035.63 209.99 L2038.75 209.99 L2038.75 202.629 L2043.04 202.629 Z" fill="#000000" fill-rule="evenodd" fill-opacity="1" /><path clip-path="url(#clip950)" d="M2058.5 230.036 L2063.38 230.036 L2063.38 234.018 L2059.59 241.425 L2056.6 241.425 L2058.5 234.018 L2058.5 230.036 Z" fill="#000000" fill-rule="evenodd" fill-opacity="1" /><path clip-path="url(#clip950)" d="M2072.67 201.356 L2094.52 201.356 L2094.52 205.291 L2077.34 205.291 L2077.34 215.522 L2093.8 215.522 L2093.8 219.457 L2077.34 219.457 L2077.34 231.981 L2094.93 231.981 L2094.93 235.916 L2072.67 235.916 L2072.67 201.356 Z" fill="#000000" fill-rule="evenodd" fill-opacity="1" /><path clip-path="url(#clip950)" d="M2102.04 199.897 L2111.86 199.897 L2111.86 203.208 L2106.3 203.208 L2106.3 238.856 L2111.86 238.856 L2111.86 242.166 L2102.04 242.166 L2102.04 199.897 Z" fill="#000000" fill-rule="evenodd" fill-opacity="1" /><path clip-path="url(#clip950)" d="M2122.34 231.981 L2129.98 231.981 L2129.98 205.615 L2121.67 207.282 L2121.67 203.022 L2129.93 201.356 L2134.61 201.356 L2134.61 231.981 L2142.25 231.981 L2142.25 235.916 L2122.34 235.916 L2122.34 231.981 Z" fill="#000000" fill-rule="evenodd" fill-opacity="1" /><path clip-path="url(#clip950)" d="M2161.04 199.897 L2161.04 242.166 L2151.23 242.166 L2151.23 238.856 L2156.76 238.856 L2156.76 203.208 L2151.23 203.208 L2151.23 199.897 L2161.04 199.897 Z" fill="#000000" fill-rule="evenodd" fill-opacity="1" /><path clip-path="url(#clip950)" d="M2179.82 199.944 Q2176.72 205.268 2175.21 210.476 Q2173.71 215.684 2173.71 221.032 Q2173.71 226.379 2175.21 231.633 Q2176.74 236.865 2179.82 242.166 L2176.11 242.166 Q2172.64 236.726 2170.91 231.471 Q2169.19 226.217 2169.19 221.032 Q2169.19 215.87 2170.91 210.638 Q2172.62 205.407 2176.11 199.944 L2179.82 199.944 Z" fill="#000000" fill-rule="evenodd" fill-opacity="1" /><path clip-path="url(#clip950)" d="M2192.29 202.629 L2192.29 209.99 L2201.07 209.99 L2201.07 213.3 L2192.29 213.3 L2192.29 227.374 Q2192.29 230.545 2193.15 231.448 Q2194.03 232.351 2196.69 232.351 L2201.07 232.351 L2201.07 235.916 L2196.69 235.916 Q2191.76 235.916 2189.89 234.087 Q2188.01 232.235 2188.01 227.374 L2188.01 213.3 L2184.89 213.3 L2184.89 209.99 L2188.01 209.99 L2188.01 202.629 L2192.29 202.629 Z" fill="#000000" fill-rule="evenodd" fill-opacity="1" /><path clip-path="url(#clip950)" d="M2206 199.944 L2209.7 199.944 Q2213.17 205.407 2214.89 210.638 Q2216.62 215.87 2216.62 221.032 Q2216.62 226.217 2214.89 231.471 Q2213.17 236.726 2209.7 242.166 L2206 242.166 Q2209.08 236.865 2210.58 231.633 Q2212.11 226.379 2212.11 221.032 Q2212.11 215.684 2210.58 210.476 Q2209.08 205.268 2206 199.944 Z" fill="#000000" fill-rule="evenodd" fill-opacity="1" /><path clip-path="url(#clip950)" d="M2224.49 199.944 L2228.2 199.944 Q2231.67 205.407 2233.38 210.638 Q2235.12 215.87 2235.12 221.032 Q2235.12 226.217 2233.38 231.471 Q2231.67 236.726 2228.2 242.166 L2224.49 242.166 Q2227.57 236.865 2229.08 231.633 Q2230.6 226.379 2230.6 221.032 Q2230.6 215.684 2229.08 210.476 Q2227.57 205.268 2224.49 199.944 Z" fill="#000000" fill-rule="evenodd" fill-opacity="1" /><polyline clip-path="url(#clip950)" style="stroke:#e26f46; stroke-linecap:butt; stroke-linejoin:round; stroke-width:4; stroke-opacity:1; fill:none" points="
  1855.24,270.476 1996.41,270.476 
  "/>
<path clip-path="url(#clip950)" d="M2030.56 251.784 Q2027.46 257.108 2025.95 262.316 Q2024.45 267.524 2024.45 272.872 Q2024.45 278.219 2025.95 283.473 Q2027.48 288.705 2030.56 294.006 L2026.86 294.006 Q2023.38 288.566 2021.65 283.311 Q2019.93 278.057 2019.93 272.872 Q2019.93 267.71 2021.65 262.478 Q2023.36 257.247 2026.86 251.784 L2030.56 251.784 Z" fill="#000000" fill-rule="evenodd" fill-opacity="1" /><path clip-path="url(#clip950)" d="M2043.04 254.469 L2043.04 261.83 L2051.81 261.83 L2051.81 265.14 L2043.04 265.14 L2043.04 279.214 Q2043.04 282.385 2043.89 283.288 Q2044.77 284.191 2047.43 284.191 L2051.81 284.191 L2051.81 287.756 L2047.43 287.756 Q2042.5 287.756 2040.63 285.927 Q2038.75 284.075 2038.75 279.214 L2038.75 265.14 L2035.63 265.14 L2035.63 261.83 L2038.75 261.83 L2038.75 254.469 L2043.04 254.469 Z" fill="#000000" fill-rule="evenodd" fill-opacity="1" /><path clip-path="url(#clip950)" d="M2058.5 281.876 L2063.38 281.876 L2063.38 285.858 L2059.59 293.265 L2056.6 293.265 L2058.5 285.858 L2058.5 281.876 Z" fill="#000000" fill-rule="evenodd" fill-opacity="1" /><path clip-path="url(#clip950)" d="M2072.67 253.196 L2094.52 253.196 L2094.52 257.131 L2077.34 257.131 L2077.34 267.362 L2093.8 267.362 L2093.8 271.297 L2077.34 271.297 L2077.34 283.821 L2094.93 283.821 L2094.93 287.756 L2072.67 287.756 L2072.67 253.196 Z" fill="#000000" fill-rule="evenodd" fill-opacity="1" /><path clip-path="url(#clip950)" d="M2102.04 251.737 L2111.86 251.737 L2111.86 255.048 L2106.3 255.048 L2106.3 290.696 L2111.86 290.696 L2111.86 294.006 L2102.04 294.006 L2102.04 251.737 Z" fill="#000000" fill-rule="evenodd" fill-opacity="1" /><path clip-path="url(#clip950)" d="M2125.56 283.821 L2141.88 283.821 L2141.88 287.756 L2119.93 287.756 L2119.93 283.821 Q2122.6 281.066 2127.18 276.436 Q2131.79 271.784 2132.97 270.441 Q2135.21 267.918 2136.09 266.182 Q2136.99 264.423 2136.99 262.733 Q2136.99 259.978 2135.05 258.242 Q2133.13 256.506 2130.03 256.506 Q2127.83 256.506 2125.37 257.27 Q2122.94 258.034 2120.17 259.585 L2120.17 254.862 Q2122.99 253.728 2125.44 253.149 Q2127.9 252.571 2129.93 252.571 Q2135.3 252.571 2138.5 255.256 Q2141.69 257.941 2141.69 262.432 Q2141.69 264.561 2140.88 266.483 Q2140.1 268.381 2137.99 270.973 Q2137.41 271.645 2134.31 274.862 Q2131.21 278.057 2125.56 283.821 Z" fill="#000000" fill-rule="evenodd" fill-opacity="1" /><path clip-path="url(#clip950)" d="M2161.04 251.737 L2161.04 294.006 L2151.23 294.006 L2151.23 290.696 L2156.76 290.696 L2156.76 255.048 L2151.23 255.048 L2151.23 251.737 L2161.04 251.737 Z" fill="#000000" fill-rule="evenodd" fill-opacity="1" /><path clip-path="url(#clip950)" d="M2179.82 251.784 Q2176.72 257.108 2175.21 262.316 Q2173.71 267.524 2173.71 272.872 Q2173.71 278.219 2175.21 283.473 Q2176.74 288.705 2179.82 294.006 L2176.11 294.006 Q2172.64 288.566 2170.91 283.311 Q2169.19 278.057 2169.19 272.872 Q2169.19 267.71 2170.91 262.478 Q2172.62 257.247 2176.11 251.784 L2179.82 251.784 Z" fill="#000000" fill-rule="evenodd" fill-opacity="1" /><path clip-path="url(#clip950)" d="M2192.29 254.469 L2192.29 261.83 L2201.07 261.83 L2201.07 265.14 L2192.29 265.14 L2192.29 279.214 Q2192.29 282.385 2193.15 283.288 Q2194.03 284.191 2196.69 284.191 L2201.07 284.191 L2201.07 287.756 L2196.69 287.756 Q2191.76 287.756 2189.89 285.927 Q2188.01 284.075 2188.01 279.214 L2188.01 265.14 L2184.89 265.14 L2184.89 261.83 L2188.01 261.83 L2188.01 254.469 L2192.29 254.469 Z" fill="#000000" fill-rule="evenodd" fill-opacity="1" /><path clip-path="url(#clip950)" d="M2206 251.784 L2209.7 251.784 Q2213.17 257.247 2214.89 262.478 Q2216.62 267.71 2216.62 272.872 Q2216.62 278.057 2214.89 283.311 Q2213.17 288.566 2209.7 294.006 L2206 294.006 Q2209.08 288.705 2210.58 283.473 Q2212.11 278.219 2212.11 272.872 Q2212.11 267.524 2210.58 262.316 Q2209.08 257.108 2206 251.784 Z" fill="#000000" fill-rule="evenodd" fill-opacity="1" /><path clip-path="url(#clip950)" d="M2224.49 251.784 L2228.2 251.784 Q2231.67 257.247 2233.38 262.478 Q2235.12 267.71 2235.12 272.872 Q2235.12 278.057 2233.38 283.311 Q2231.67 288.566 2228.2 294.006 L2224.49 294.006 Q2227.57 288.705 2229.08 283.473 Q2230.6 278.219 2230.6 272.872 Q2230.6 267.524 2229.08 262.316 Q2227.57 257.108 2224.49 251.784 Z" fill="#000000" fill-rule="evenodd" fill-opacity="1" /><polyline clip-path="url(#clip950)" style="stroke:#3da44d; stroke-linecap:butt; stroke-linejoin:round; stroke-width:4; stroke-opacity:1; fill:none" points="
  1855.24,322.316 1996.41,322.316 
  "/>
<path clip-path="url(#clip950)" d="M2030.56 303.624 Q2027.46 308.948 2025.95 314.156 Q2024.45 319.364 2024.45 324.712 Q2024.45 330.059 2025.95 335.313 Q2027.48 340.545 2030.56 345.846 L2026.86 345.846 Q2023.38 340.406 2021.65 335.151 Q2019.93 329.897 2019.93 324.712 Q2019.93 319.55 2021.65 314.318 Q2023.36 309.087 2026.86 303.624 L2030.56 303.624 Z" fill="#000000" fill-rule="evenodd" fill-opacity="1" /><path clip-path="url(#clip950)" d="M2043.04 306.309 L2043.04 313.67 L2051.81 313.67 L2051.81 316.98 L2043.04 316.98 L2043.04 331.054 Q2043.04 334.225 2043.89 335.128 Q2044.77 336.031 2047.43 336.031 L2051.81 336.031 L2051.81 339.596 L2047.43 339.596 Q2042.5 339.596 2040.63 337.767 Q2038.75 335.915 2038.75 331.054 L2038.75 316.98 L2035.63 316.98 L2035.63 313.67 L2038.75 313.67 L2038.75 306.309 L2043.04 306.309 Z" fill="#000000" fill-rule="evenodd" fill-opacity="1" /><path clip-path="url(#clip950)" d="M2058.5 333.716 L2063.38 333.716 L2063.38 337.698 L2059.59 345.105 L2056.6 345.105 L2058.5 337.698 L2058.5 333.716 Z" fill="#000000" fill-rule="evenodd" fill-opacity="1" /><path clip-path="url(#clip950)" d="M2072.67 305.036 L2077.34 305.036 L2077.34 339.596 L2072.67 339.596 L2072.67 305.036 Z" fill="#000000" fill-rule="evenodd" fill-opacity="1" /><path clip-path="url(#clip950)" d="M2086.07 303.577 L2095.88 303.577 L2095.88 306.888 L2090.33 306.888 L2090.33 342.536 L2095.88 342.536 L2095.88 345.846 L2086.07 345.846 L2086.07 303.577 Z" fill="#000000" fill-rule="evenodd" fill-opacity="1" /><path clip-path="url(#clip950)" d="M2106.37 335.661 L2114.01 335.661 L2114.01 309.295 L2105.7 310.962 L2105.7 306.702 L2113.96 305.036 L2118.64 305.036 L2118.64 335.661 L2126.28 335.661 L2126.28 339.596 L2106.37 339.596 L2106.37 335.661 Z" fill="#000000" fill-rule="evenodd" fill-opacity="1" /><path clip-path="url(#clip950)" d="M2145.07 303.577 L2145.07 345.846 L2135.26 345.846 L2135.26 342.536 L2140.79 342.536 L2140.79 306.888 L2135.26 306.888 L2135.26 303.577 L2145.07 303.577 Z" fill="#000000" fill-rule="evenodd" fill-opacity="1" /><path clip-path="url(#clip950)" d="M2163.85 303.624 Q2160.74 308.948 2159.24 314.156 Q2157.73 319.364 2157.73 324.712 Q2157.73 330.059 2159.24 335.313 Q2160.77 340.545 2163.85 345.846 L2160.14 345.846 Q2156.67 340.406 2154.93 335.151 Q2153.22 329.897 2153.22 324.712 Q2153.22 319.55 2154.93 314.318 Q2156.65 309.087 2160.14 303.624 L2163.85 303.624 Z" fill="#000000" fill-rule="evenodd" fill-opacity="1" /><path clip-path="url(#clip950)" d="M2176.32 306.309 L2176.32 313.67 L2185.1 313.67 L2185.1 316.98 L2176.32 316.98 L2176.32 331.054 Q2176.32 334.225 2177.18 335.128 Q2178.06 336.031 2180.72 336.031 L2185.1 336.031 L2185.1 339.596 L2180.72 339.596 Q2175.79 339.596 2173.92 337.767 Q2172.04 335.915 2172.04 331.054 L2172.04 316.98 L2168.92 316.98 L2168.92 313.67 L2172.04 313.67 L2172.04 306.309 L2176.32 306.309 Z" fill="#000000" fill-rule="evenodd" fill-opacity="1" /><path clip-path="url(#clip950)" d="M2190.03 303.624 L2193.73 303.624 Q2197.2 309.087 2198.92 314.318 Q2200.65 319.55 2200.65 324.712 Q2200.65 329.897 2198.92 335.151 Q2197.2 340.406 2193.73 345.846 L2190.03 345.846 Q2193.1 340.545 2194.61 335.313 Q2196.14 330.059 2196.14 324.712 Q2196.14 319.364 2194.61 314.156 Q2193.1 308.948 2190.03 303.624 Z" fill="#000000" fill-rule="evenodd" fill-opacity="1" /><path clip-path="url(#clip950)" d="M2208.52 303.624 L2212.23 303.624 Q2215.7 309.087 2217.41 314.318 Q2219.15 319.55 2219.15 324.712 Q2219.15 329.897 2217.41 335.151 Q2215.7 340.406 2212.23 345.846 L2208.52 345.846 Q2211.6 340.545 2213.1 335.313 Q2214.63 330.059 2214.63 324.712 Q2214.63 319.364 2213.1 314.156 Q2211.6 308.948 2208.52 303.624 Z" fill="#000000" fill-rule="evenodd" fill-opacity="1" /><polyline clip-path="url(#clip950)" style="stroke:#c271d2; stroke-linecap:butt; stroke-linejoin:round; stroke-width:4; stroke-opacity:1; fill:none" points="
  1855.24,374.156 1996.41,374.156 
  "/>
<path clip-path="url(#clip950)" d="M2030.56 355.464 Q2027.46 360.788 2025.95 365.996 Q2024.45 371.204 2024.45 376.552 Q2024.45 381.899 2025.95 387.153 Q2027.48 392.385 2030.56 397.686 L2026.86 397.686 Q2023.38 392.246 2021.65 386.991 Q2019.93 381.737 2019.93 376.552 Q2019.93 371.39 2021.65 366.158 Q2023.36 360.927 2026.86 355.464 L2030.56 355.464 Z" fill="#000000" fill-rule="evenodd" fill-opacity="1" /><path clip-path="url(#clip950)" d="M2043.04 358.149 L2043.04 365.51 L2051.81 365.51 L2051.81 368.82 L2043.04 368.82 L2043.04 382.894 Q2043.04 386.065 2043.89 386.968 Q2044.77 387.871 2047.43 387.871 L2051.81 387.871 L2051.81 391.436 L2047.43 391.436 Q2042.5 391.436 2040.63 389.607 Q2038.75 387.755 2038.75 382.894 L2038.75 368.82 L2035.63 368.82 L2035.63 365.51 L2038.75 365.51 L2038.75 358.149 L2043.04 358.149 Z" fill="#000000" fill-rule="evenodd" fill-opacity="1" /><path clip-path="url(#clip950)" d="M2058.5 385.556 L2063.38 385.556 L2063.38 389.538 L2059.59 396.945 L2056.6 396.945 L2058.5 389.538 L2058.5 385.556 Z" fill="#000000" fill-rule="evenodd" fill-opacity="1" /><path clip-path="url(#clip950)" d="M2072.67 356.876 L2077.34 356.876 L2077.34 391.436 L2072.67 391.436 L2072.67 356.876 Z" fill="#000000" fill-rule="evenodd" fill-opacity="1" /><path clip-path="url(#clip950)" d="M2086.07 355.417 L2095.88 355.417 L2095.88 358.728 L2090.33 358.728 L2090.33 394.376 L2095.88 394.376 L2095.88 397.686 L2086.07 397.686 L2086.07 355.417 Z" fill="#000000" fill-rule="evenodd" fill-opacity="1" /><path clip-path="url(#clip950)" d="M2109.59 387.501 L2125.91 387.501 L2125.91 391.436 L2103.96 391.436 L2103.96 387.501 Q2106.62 384.746 2111.21 380.116 Q2115.81 375.464 2116.99 374.121 Q2119.24 371.598 2120.12 369.862 Q2121.02 368.103 2121.02 366.413 Q2121.02 363.658 2119.08 361.922 Q2117.16 360.186 2114.05 360.186 Q2111.86 360.186 2109.4 360.95 Q2106.97 361.714 2104.19 363.265 L2104.19 358.542 Q2107.02 357.408 2109.47 356.829 Q2111.92 356.251 2113.96 356.251 Q2119.33 356.251 2122.53 358.936 Q2125.72 361.621 2125.72 366.112 Q2125.72 368.241 2124.91 370.163 Q2124.12 372.061 2122.02 374.653 Q2121.44 375.325 2118.34 378.542 Q2115.23 381.737 2109.59 387.501 Z" fill="#000000" fill-rule="evenodd" fill-opacity="1" /><path clip-path="url(#clip950)" d="M2145.07 355.417 L2145.07 397.686 L2135.26 397.686 L2135.26 394.376 L2140.79 394.376 L2140.79 358.728 L2135.26 358.728 L2135.26 355.417 L2145.07 355.417 Z" fill="#000000" fill-rule="evenodd" fill-opacity="1" /><path clip-path="url(#clip950)" d="M2163.85 355.464 Q2160.74 360.788 2159.24 365.996 Q2157.73 371.204 2157.73 376.552 Q2157.73 381.899 2159.24 387.153 Q2160.77 392.385 2163.85 397.686 L2160.14 397.686 Q2156.67 392.246 2154.93 386.991 Q2153.22 381.737 2153.22 376.552 Q2153.22 371.39 2154.93 366.158 Q2156.65 360.927 2160.14 355.464 L2163.85 355.464 Z" fill="#000000" fill-rule="evenodd" fill-opacity="1" /><path clip-path="url(#clip950)" d="M2176.32 358.149 L2176.32 365.51 L2185.1 365.51 L2185.1 368.82 L2176.32 368.82 L2176.32 382.894 Q2176.32 386.065 2177.18 386.968 Q2178.06 387.871 2180.72 387.871 L2185.1 387.871 L2185.1 391.436 L2180.72 391.436 Q2175.79 391.436 2173.92 389.607 Q2172.04 387.755 2172.04 382.894 L2172.04 368.82 L2168.92 368.82 L2168.92 365.51 L2172.04 365.51 L2172.04 358.149 L2176.32 358.149 Z" fill="#000000" fill-rule="evenodd" fill-opacity="1" /><path clip-path="url(#clip950)" d="M2190.03 355.464 L2193.73 355.464 Q2197.2 360.927 2198.92 366.158 Q2200.65 371.39 2200.65 376.552 Q2200.65 381.737 2198.92 386.991 Q2197.2 392.246 2193.73 397.686 L2190.03 397.686 Q2193.1 392.385 2194.61 387.153 Q2196.14 381.899 2196.14 376.552 Q2196.14 371.204 2194.61 365.996 Q2193.1 360.788 2190.03 355.464 Z" fill="#000000" fill-rule="evenodd" fill-opacity="1" /><path clip-path="url(#clip950)" d="M2208.52 355.464 L2212.23 355.464 Q2215.7 360.927 2217.41 366.158 Q2219.15 371.39 2219.15 376.552 Q2219.15 381.737 2217.41 386.991 Q2215.7 392.246 2212.23 397.686 L2208.52 397.686 Q2211.6 392.385 2213.1 387.153 Q2214.63 381.899 2214.63 376.552 Q2214.63 371.204 2213.1 365.996 Q2211.6 360.788 2208.52 355.464 Z" fill="#000000" fill-rule="evenodd" fill-opacity="1" /></svg>
