<?xml version="1.0" encoding="utf-8"?>
<svg xmlns="http://www.w3.org/2000/svg" xmlns:xlink="http://www.w3.org/1999/xlink" width="600" height="400" viewBox="0 0 2400 1600">
<defs>
  <clipPath id="clip430">
    <rect x="0" y="0" width="2400" height="1600"/>
  </clipPath>
</defs>
<path clip-path="url(#clip430)" d="
M0 1600 L2400 1600 L2400 0 L0 0  Z
  " fill="#ffffff" fill-rule="evenodd" fill-opacity="1"/>
<defs>
  <clipPath id="clip431">
    <rect x="480" y="0" width="1681" height="1600"/>
  </clipPath>
</defs>
<path clip-path="url(#clip430)" d="
M292.713 1423.18 L2352.76 1423.18 L2352.76 123.472 L292.713 123.472  Z
  " fill="#ffffff" fill-rule="evenodd" fill-opacity="1"/>
<defs>
  <clipPath id="clip432">
    <rect x="292" y="123" width="2061" height="1301"/>
  </clipPath>
</defs>
<polyline clip-path="url(#clip432)" style="stroke:#000000; stroke-linecap:butt; stroke-linejoin:round; stroke-width:2; stroke-opacity:0.1; fill:none" points="
  292.713,1423.18 292.713,123.472 
  "/>
<polyline clip-path="url(#clip432)" style="stroke:#000000; stroke-linecap:butt; stroke-linejoin:round; stroke-width:2; stroke-opacity:0.1; fill:none" points="
  807.724,1423.18 807.724,123.472 
  "/>
<polyline clip-path="url(#clip432)" style="stroke:#000000; stroke-linecap:butt; stroke-linejoin:round; stroke-width:2; stroke-opacity:0.1; fill:none" points="
  1322.73,1423.18 1322.73,123.472 
  "/>
<polyline clip-path="url(#clip432)" style="stroke:#000000; stroke-linecap:butt; stroke-linejoin:round; stroke-width:2; stroke-opacity:0.1; fill:none" points="
  1837.75,1423.18 1837.75,123.472 
  "/>
<polyline clip-path="url(#clip432)" style="stroke:#000000; stroke-linecap:butt; stroke-linejoin:round; stroke-width:2; stroke-opacity:0.1; fill:none" points="
  2352.76,1423.18 2352.76,123.472 
  "/>
<polyline clip-path="url(#clip430)" style="stroke:#000000; stroke-linecap:butt; stroke-linejoin:round; stroke-width:4; stroke-opacity:1; fill:none" points="
  292.713,1423.18 2352.76,1423.18 
  "/>
<polyline clip-path="url(#clip430)" style="stroke:#000000; stroke-linecap:butt; stroke-linejoin:round; stroke-width:4; stroke-opacity:1; fill:none" points="
  292.713,1423.18 292.713,1404.28 
  "/>
<polyline clip-path="url(#clip430)" style="stroke:#000000; stroke-linecap:butt; stroke-linejoin:round; stroke-width:4; stroke-opacity:1; fill:none" points="
  807.724,1423.18 807.724,1404.28 
  "/>
<polyline clip-path="url(#clip430)" style="stroke:#000000; stroke-linecap:butt; stroke-linejoin:round; stroke-width:4; stroke-opacity:1; fill:none" points="
  1322.73,1423.18 1322.73,1404.28 
  "/>
<polyline clip-path="url(#clip430)" style="stroke:#000000; stroke-linecap:butt; stroke-linejoin:round; stroke-width:4; stroke-opacity:1; fill:none" points="
  1837.75,1423.18 1837.75,1404.28 
  "/>
<polyline clip-path="url(#clip430)" style="stroke:#000000; stroke-linecap:butt; stroke-linejoin:round; stroke-width:4; stroke-opacity:1; fill:none" points="
  2352.76,1423.18 2352.76,1404.28 
  "/>
<path clip-path="url(#clip430)" d="M292.713 1452.37 Q289.102 1452.37 287.273 1455.94 Q285.468 1459.48 285.468 1466.61 Q285.468 1473.71 287.273 1477.28 Q289.102 1480.82 292.713 1480.82 Q296.347 1480.82 298.153 1477.28 Q299.982 1473.71 299.982 1466.61 Q299.982 1459.48 298.153 1455.94 Q296.347 1452.37 292.713 1452.37 M292.713 1448.67 Q298.523 1448.67 301.579 1453.27 Q304.657 1457.86 304.657 1466.61 Q304.657 1475.33 301.579 1479.94 Q298.523 1484.52 292.713 1484.52 Q286.903 1484.52 283.824 1479.94 Q280.769 1475.33 280.769 1466.61 Q280.769 1457.86 283.824 1453.27 Q286.903 1448.67 292.713 1448.67 Z" fill="#000000" fill-rule="evenodd" fill-opacity="1" /><path clip-path="url(#clip430)" d="M767.33 1479.92 L774.969 1479.92 L774.969 1453.55 L766.659 1455.22 L766.659 1450.96 L774.923 1449.29 L779.599 1449.29 L779.599 1479.92 L787.238 1479.92 L787.238 1483.85 L767.33 1483.85 L767.33 1479.92 Z" fill="#000000" fill-rule="evenodd" fill-opacity="1" /><path clip-path="url(#clip430)" d="M806.682 1452.37 Q803.071 1452.37 801.242 1455.94 Q799.437 1459.48 799.437 1466.61 Q799.437 1473.71 801.242 1477.28 Q803.071 1480.82 806.682 1480.82 Q810.316 1480.82 812.122 1477.28 Q813.951 1473.71 813.951 1466.61 Q813.951 1459.48 812.122 1455.94 Q810.316 1452.37 806.682 1452.37 M806.682 1448.67 Q812.492 1448.67 815.548 1453.27 Q818.627 1457.86 818.627 1466.61 Q818.627 1475.33 815.548 1479.94 Q812.492 1484.52 806.682 1484.52 Q800.872 1484.52 797.793 1479.94 Q794.738 1475.33 794.738 1466.61 Q794.738 1457.86 797.793 1453.27 Q800.872 1448.67 806.682 1448.67 Z" fill="#000000" fill-rule="evenodd" fill-opacity="1" /><path clip-path="url(#clip430)" d="M836.844 1452.37 Q833.233 1452.37 831.404 1455.94 Q829.599 1459.48 829.599 1466.61 Q829.599 1473.71 831.404 1477.28 Q833.233 1480.82 836.844 1480.82 Q840.478 1480.82 842.284 1477.28 Q844.112 1473.71 844.112 1466.61 Q844.112 1459.48 842.284 1455.94 Q840.478 1452.37 836.844 1452.37 M836.844 1448.67 Q842.654 1448.67 845.71 1453.27 Q848.788 1457.86 848.788 1466.61 Q848.788 1475.33 845.71 1479.94 Q842.654 1484.52 836.844 1484.52 Q831.034 1484.52 827.955 1479.94 Q824.9 1475.33 824.9 1466.61 Q824.9 1457.86 827.955 1453.27 Q831.034 1448.67 836.844 1448.67 Z" fill="#000000" fill-rule="evenodd" fill-opacity="1" /><path clip-path="url(#clip430)" d="M1286.43 1479.92 L1302.75 1479.92 L1302.75 1483.85 L1280.8 1483.85 L1280.8 1479.92 Q1283.46 1477.16 1288.05 1472.53 Q1292.65 1467.88 1293.83 1466.54 Q1296.08 1464.01 1296.96 1462.28 Q1297.86 1460.52 1297.86 1458.83 Q1297.86 1456.07 1295.92 1454.34 Q1294 1452.6 1290.89 1452.6 Q1288.7 1452.6 1286.24 1453.37 Q1283.81 1454.13 1281.03 1455.68 L1281.03 1450.96 Q1283.86 1449.82 1286.31 1449.25 Q1288.76 1448.67 1290.8 1448.67 Q1296.17 1448.67 1299.37 1451.35 Q1302.56 1454.04 1302.56 1458.53 Q1302.56 1460.66 1301.75 1462.58 Q1300.96 1464.48 1298.86 1467.07 Q1298.28 1467.74 1295.18 1470.96 Q1292.07 1474.15 1286.43 1479.92 Z" fill="#000000" fill-rule="evenodd" fill-opacity="1" /><path clip-path="url(#clip430)" d="M1322.56 1452.37 Q1318.95 1452.37 1317.12 1455.94 Q1315.32 1459.48 1315.32 1466.61 Q1315.32 1473.71 1317.12 1477.28 Q1318.95 1480.82 1322.56 1480.82 Q1326.2 1480.82 1328 1477.28 Q1329.83 1473.71 1329.83 1466.61 Q1329.83 1459.48 1328 1455.94 Q1326.2 1452.37 1322.56 1452.37 M1322.56 1448.67 Q1328.37 1448.67 1331.43 1453.27 Q1334.51 1457.86 1334.51 1466.61 Q1334.51 1475.33 1331.43 1479.94 Q1328.37 1484.52 1322.56 1484.52 Q1316.75 1484.52 1313.67 1479.94 Q1310.62 1475.33 1310.62 1466.61 Q1310.62 1457.86 1313.67 1453.27 Q1316.75 1448.67 1322.56 1448.67 Z" fill="#000000" fill-rule="evenodd" fill-opacity="1" /><path clip-path="url(#clip430)" d="M1352.72 1452.37 Q1349.11 1452.37 1347.28 1455.94 Q1345.48 1459.48 1345.48 1466.61 Q1345.48 1473.71 1347.28 1477.28 Q1349.11 1480.82 1352.72 1480.82 Q1356.36 1480.82 1358.16 1477.28 Q1359.99 1473.71 1359.99 1466.61 Q1359.99 1459.48 1358.16 1455.94 Q1356.36 1452.37 1352.72 1452.37 M1352.72 1448.67 Q1358.53 1448.67 1361.59 1453.27 Q1364.67 1457.86 1364.67 1466.61 Q1364.67 1475.33 1361.59 1479.94 Q1358.53 1484.52 1352.72 1484.52 Q1346.91 1484.52 1343.83 1479.94 Q1340.78 1475.33 1340.78 1466.61 Q1340.78 1457.86 1343.83 1453.27 Q1346.91 1448.67 1352.72 1448.67 Z" fill="#000000" fill-rule="evenodd" fill-opacity="1" /><path clip-path="url(#clip430)" d="M1811.51 1465.22 Q1814.86 1465.94 1816.74 1468.2 Q1818.64 1470.47 1818.64 1473.81 Q1818.64 1478.92 1815.12 1481.72 Q1811.6 1484.52 1805.12 1484.52 Q1802.94 1484.52 1800.63 1484.08 Q1798.34 1483.67 1795.88 1482.81 L1795.88 1478.3 Q1797.83 1479.43 1800.14 1480.01 Q1802.46 1480.59 1804.98 1480.59 Q1809.38 1480.59 1811.67 1478.85 Q1813.98 1477.12 1813.98 1473.81 Q1813.98 1470.75 1811.83 1469.04 Q1809.7 1467.3 1805.88 1467.3 L1801.85 1467.3 L1801.85 1463.46 L1806.07 1463.46 Q1809.52 1463.46 1811.34 1462.09 Q1813.17 1460.7 1813.17 1458.11 Q1813.17 1455.45 1811.28 1454.04 Q1809.4 1452.6 1805.88 1452.6 Q1803.96 1452.6 1801.76 1453.02 Q1799.56 1453.44 1796.92 1454.31 L1796.92 1450.15 Q1799.59 1449.41 1801.9 1449.04 Q1804.24 1448.67 1806.3 1448.67 Q1811.62 1448.67 1814.72 1451.1 Q1817.83 1453.5 1817.83 1457.63 Q1817.83 1460.5 1816.18 1462.49 Q1814.54 1464.45 1811.51 1465.22 Z" fill="#000000" fill-rule="evenodd" fill-opacity="1" /><path clip-path="url(#clip430)" d="M1837.5 1452.37 Q1833.89 1452.37 1832.06 1455.94 Q1830.26 1459.48 1830.26 1466.61 Q1830.26 1473.71 1832.06 1477.28 Q1833.89 1480.82 1837.5 1480.82 Q1841.14 1480.82 1842.94 1477.28 Q1844.77 1473.71 1844.77 1466.61 Q1844.77 1459.48 1842.94 1455.94 Q1841.14 1452.37 1837.5 1452.37 M1837.5 1448.67 Q1843.31 1448.67 1846.37 1453.27 Q1849.45 1457.86 1849.45 1466.61 Q1849.45 1475.33 1846.37 1479.94 Q1843.31 1484.52 1837.5 1484.52 Q1831.69 1484.52 1828.61 1479.94 Q1825.56 1475.33 1825.56 1466.61 Q1825.56 1457.86 1828.61 1453.27 Q1831.69 1448.67 1837.5 1448.67 Z" fill="#000000" fill-rule="evenodd" fill-opacity="1" /><path clip-path="url(#clip430)" d="M1867.66 1452.37 Q1864.05 1452.37 1862.22 1455.94 Q1860.42 1459.48 1860.42 1466.61 Q1860.42 1473.71 1862.22 1477.28 Q1864.05 1480.82 1867.66 1480.82 Q1871.3 1480.82 1873.1 1477.28 Q1874.93 1473.71 1874.93 1466.61 Q1874.93 1459.48 1873.1 1455.94 Q1871.3 1452.37 1867.66 1452.37 M1867.66 1448.67 Q1873.47 1448.67 1876.53 1453.27 Q1879.61 1457.86 1879.61 1466.61 Q1879.61 1475.33 1876.53 1479.94 Q1873.47 1484.52 1867.66 1484.52 Q1861.85 1484.52 1858.78 1479.94 Q1855.72 1475.33 1855.72 1466.61 Q1855.72 1457.86 1858.78 1453.27 Q1861.85 1448.67 1867.66 1448.67 Z" fill="#000000" fill-rule="evenodd" fill-opacity="1" /><path clip-path="url(#clip430)" d="M2325.85 1453.37 L2314.04 1471.81 L2325.85 1471.81 L2325.85 1453.37 M2324.62 1449.29 L2330.5 1449.29 L2330.5 1471.81 L2335.43 1471.81 L2335.43 1475.7 L2330.5 1475.7 L2330.5 1483.85 L2325.85 1483.85 L2325.85 1475.7 L2310.24 1475.7 L2310.24 1471.19 L2324.62 1449.29 Z" fill="#000000" fill-rule="evenodd" fill-opacity="1" /><path clip-path="url(#clip430)" d="M2353.16 1452.37 Q2349.55 1452.37 2347.72 1455.94 Q2345.92 1459.48 2345.92 1466.61 Q2345.92 1473.71 2347.72 1477.28 Q2349.55 1480.82 2353.16 1480.82 Q2356.8 1480.82 2358.6 1477.28 Q2360.43 1473.71 2360.43 1466.61 Q2360.43 1459.48 2358.6 1455.94 Q2356.8 1452.37 2353.16 1452.37 M2353.16 1448.67 Q2358.97 1448.67 2362.03 1453.27 Q2365.11 1457.86 2365.11 1466.61 Q2365.11 1475.33 2362.03 1479.94 Q2358.97 1484.52 2353.16 1484.52 Q2347.35 1484.52 2344.27 1479.94 Q2341.22 1475.33 2341.22 1466.61 Q2341.22 1457.86 2344.27 1453.27 Q2347.35 1448.67 2353.16 1448.67 Z" fill="#000000" fill-rule="evenodd" fill-opacity="1" /><path clip-path="url(#clip430)" d="M2383.32 1452.37 Q2379.71 1452.37 2377.88 1455.94 Q2376.08 1459.48 2376.08 1466.61 Q2376.08 1473.71 2377.88 1477.28 Q2379.71 1480.82 2383.32 1480.82 Q2386.96 1480.82 2388.76 1477.28 Q2390.59 1473.71 2390.59 1466.61 Q2390.59 1459.48 2388.76 1455.94 Q2386.96 1452.37 2383.32 1452.37 M2383.32 1448.67 Q2389.13 1448.67 2392.19 1453.27 Q2395.27 1457.86 2395.27 1466.61 Q2395.27 1475.33 2392.19 1479.94 Q2389.13 1484.52 2383.32 1484.52 Q2377.51 1484.52 2374.43 1479.94 Q2371.38 1475.33 2371.38 1466.61 Q2371.38 1457.86 2374.43 1453.27 Q2377.51 1448.67 2383.32 1448.67 Z" fill="#000000" fill-rule="evenodd" fill-opacity="1" /><path clip-path="url(#clip430)" d="M1321.8 1522.27 L1321.8 1532.4 L1333.86 1532.4 L1333.86 1536.95 L1321.8 1536.95 L1321.8 1556.3 Q1321.8 1560.66 1322.97 1561.9 Q1324.18 1563.14 1327.84 1563.14 L1333.86 1563.14 L1333.86 1568.04 L1327.84 1568.04 Q1321.06 1568.04 1318.49 1565.53 Q1315.91 1562.98 1315.91 1556.3 L1315.91 1536.95 L1311.61 1536.95 L1311.61 1532.4 L1315.91 1532.4 L1315.91 1522.27 L1321.8 1522.27 Z" fill="#000000" fill-rule="evenodd" fill-opacity="1" /><polyline clip-path="url(#clip432)" style="stroke:#000000; stroke-linecap:butt; stroke-linejoin:round; stroke-width:2; stroke-opacity:0.1; fill:none" points="
  292.713,1386.41 2352.76,1386.41 
  "/>
<polyline clip-path="url(#clip432)" style="stroke:#000000; stroke-linecap:butt; stroke-linejoin:round; stroke-width:2; stroke-opacity:0.1; fill:none" points="
  292.713,1131.39 2352.76,1131.39 
  "/>
<polyline clip-path="url(#clip432)" style="stroke:#000000; stroke-linecap:butt; stroke-linejoin:round; stroke-width:2; stroke-opacity:0.1; fill:none" points="
  292.713,876.365 2352.76,876.365 
  "/>
<polyline clip-path="url(#clip432)" style="stroke:#000000; stroke-linecap:butt; stroke-linejoin:round; stroke-width:2; stroke-opacity:0.1; fill:none" points="
  292.713,621.345 2352.76,621.345 
  "/>
<polyline clip-path="url(#clip432)" style="stroke:#000000; stroke-linecap:butt; stroke-linejoin:round; stroke-width:2; stroke-opacity:0.1; fill:none" points="
  292.713,366.324 2352.76,366.324 
  "/>
<polyline clip-path="url(#clip430)" style="stroke:#000000; stroke-linecap:butt; stroke-linejoin:round; stroke-width:4; stroke-opacity:1; fill:none" points="
  292.713,1423.18 292.713,123.472 
  "/>
<polyline clip-path="url(#clip430)" style="stroke:#000000; stroke-linecap:butt; stroke-linejoin:round; stroke-width:4; stroke-opacity:1; fill:none" points="
  292.713,1386.41 311.611,1386.41 
  "/>
<polyline clip-path="url(#clip430)" style="stroke:#000000; stroke-linecap:butt; stroke-linejoin:round; stroke-width:4; stroke-opacity:1; fill:none" points="
  292.713,1131.39 311.611,1131.39 
  "/>
<polyline clip-path="url(#clip430)" style="stroke:#000000; stroke-linecap:butt; stroke-linejoin:round; stroke-width:4; stroke-opacity:1; fill:none" points="
  292.713,876.365 311.611,876.365 
  "/>
<polyline clip-path="url(#clip430)" style="stroke:#000000; stroke-linecap:butt; stroke-linejoin:round; stroke-width:4; stroke-opacity:1; fill:none" points="
  292.713,621.345 311.611,621.345 
  "/>
<polyline clip-path="url(#clip430)" style="stroke:#000000; stroke-linecap:butt; stroke-linejoin:round; stroke-width:4; stroke-opacity:1; fill:none" points="
  292.713,366.324 311.611,366.324 
  "/>
<path clip-path="url(#clip430)" d="M244.769 1372.2 Q241.158 1372.2 239.329 1375.77 Q237.523 1379.31 237.523 1386.44 Q237.523 1393.55 239.329 1397.11 Q241.158 1400.65 244.769 1400.65 Q248.403 1400.65 250.209 1397.11 Q252.037 1393.55 252.037 1386.44 Q252.037 1379.31 250.209 1375.77 Q248.403 1372.2 244.769 1372.2 M244.769 1368.5 Q250.579 1368.5 253.634 1373.11 Q256.713 1377.69 256.713 1386.44 Q256.713 1395.17 253.634 1399.77 Q250.579 1404.36 244.769 1404.36 Q238.959 1404.36 235.88 1399.77 Q232.824 1395.17 232.824 1386.44 Q232.824 1377.69 235.88 1373.11 Q238.959 1368.5 244.769 1368.5 Z" fill="#000000" fill-rule="evenodd" fill-opacity="1" /><path clip-path="url(#clip430)" d="M148.311 1144.73 L164.63 1144.73 L164.63 1148.67 L142.686 1148.67 L142.686 1144.73 Q145.348 1141.98 149.931 1137.35 Q154.538 1132.69 155.718 1131.35 Q157.964 1128.83 158.843 1127.09 Q159.746 1125.33 159.746 1123.64 Q159.746 1120.89 157.802 1119.15 Q155.88 1117.42 152.778 1117.42 Q150.579 1117.42 148.126 1118.18 Q145.695 1118.94 142.917 1120.49 L142.917 1115.77 Q145.741 1114.64 148.195 1114.06 Q150.649 1113.48 152.686 1113.48 Q158.056 1113.48 161.251 1116.17 Q164.445 1118.85 164.445 1123.34 Q164.445 1125.47 163.635 1127.39 Q162.848 1129.29 160.741 1131.88 Q160.163 1132.55 157.061 1135.77 Q153.959 1138.97 148.311 1144.73 Z" fill="#000000" fill-rule="evenodd" fill-opacity="1" /><path clip-path="url(#clip430)" d="M174.491 1114.11 L192.848 1114.11 L192.848 1118.04 L178.774 1118.04 L178.774 1126.51 Q179.792 1126.17 180.811 1126 Q181.829 1125.82 182.848 1125.82 Q188.635 1125.82 192.014 1128.99 Q195.394 1132.16 195.394 1137.58 Q195.394 1143.16 191.922 1146.26 Q188.45 1149.34 182.13 1149.34 Q179.954 1149.34 177.686 1148.97 Q175.44 1148.6 173.033 1147.86 L173.033 1143.16 Q175.116 1144.29 177.339 1144.85 Q179.561 1145.4 182.038 1145.4 Q186.042 1145.4 188.38 1143.3 Q190.718 1141.19 190.718 1137.58 Q190.718 1133.97 188.38 1131.86 Q186.042 1129.75 182.038 1129.75 Q180.163 1129.75 178.288 1130.17 Q176.436 1130.59 174.491 1131.47 L174.491 1114.11 Z" fill="#000000" fill-rule="evenodd" fill-opacity="1" /><path clip-path="url(#clip430)" d="M214.607 1117.18 Q210.996 1117.18 209.167 1120.75 Q207.362 1124.29 207.362 1131.42 Q207.362 1138.53 209.167 1142.09 Q210.996 1145.63 214.607 1145.63 Q218.241 1145.63 220.047 1142.09 Q221.875 1138.53 221.875 1131.42 Q221.875 1124.29 220.047 1120.75 Q218.241 1117.18 214.607 1117.18 M214.607 1113.48 Q220.417 1113.48 223.473 1118.09 Q226.551 1122.67 226.551 1131.42 Q226.551 1140.15 223.473 1144.75 Q220.417 1149.34 214.607 1149.34 Q208.797 1149.34 205.718 1144.75 Q202.662 1140.15 202.662 1131.42 Q202.662 1122.67 205.718 1118.09 Q208.797 1113.48 214.607 1113.48 Z" fill="#000000" fill-rule="evenodd" fill-opacity="1" /><path clip-path="url(#clip430)" d="M244.769 1117.18 Q241.158 1117.18 239.329 1120.75 Q237.523 1124.29 237.523 1131.42 Q237.523 1138.53 239.329 1142.09 Q241.158 1145.63 244.769 1145.63 Q248.403 1145.63 250.209 1142.09 Q252.037 1138.53 252.037 1131.42 Q252.037 1124.29 250.209 1120.75 Q248.403 1117.18 244.769 1117.18 M244.769 1113.48 Q250.579 1113.48 253.634 1118.09 Q256.713 1122.67 256.713 1131.42 Q256.713 1140.15 253.634 1144.75 Q250.579 1149.34 244.769 1149.34 Q238.959 1149.34 235.88 1144.75 Q232.824 1140.15 232.824 1131.42 Q232.824 1122.67 235.88 1118.09 Q238.959 1113.48 244.769 1113.48 Z" fill="#000000" fill-rule="evenodd" fill-opacity="1" /><path clip-path="url(#clip430)" d="M144.329 859.085 L162.686 859.085 L162.686 863.02 L148.612 863.02 L148.612 871.492 Q149.63 871.145 150.649 870.983 Q151.667 870.798 152.686 870.798 Q158.473 870.798 161.852 873.969 Q165.232 877.14 165.232 882.557 Q165.232 888.136 161.76 891.238 Q158.288 894.316 151.968 894.316 Q149.792 894.316 147.524 893.946 Q145.279 893.576 142.871 892.835 L142.871 888.136 Q144.954 889.27 147.177 889.826 Q149.399 890.381 151.876 890.381 Q155.88 890.381 158.218 888.275 Q160.556 886.168 160.556 882.557 Q160.556 878.946 158.218 876.84 Q155.88 874.733 151.876 874.733 Q150.001 874.733 148.126 875.15 Q146.274 875.566 144.329 876.446 L144.329 859.085 Z" fill="#000000" fill-rule="evenodd" fill-opacity="1" /><path clip-path="url(#clip430)" d="M184.445 862.164 Q180.834 862.164 179.005 865.729 Q177.2 869.27 177.2 876.4 Q177.2 883.506 179.005 887.071 Q180.834 890.613 184.445 890.613 Q188.079 890.613 189.885 887.071 Q191.713 883.506 191.713 876.4 Q191.713 869.27 189.885 865.729 Q188.079 862.164 184.445 862.164 M184.445 858.46 Q190.255 858.46 193.311 863.066 Q196.389 867.65 196.389 876.4 Q196.389 885.127 193.311 889.733 Q190.255 894.316 184.445 894.316 Q178.635 894.316 175.556 889.733 Q172.501 885.127 172.501 876.4 Q172.501 867.65 175.556 863.066 Q178.635 858.46 184.445 858.46 Z" fill="#000000" fill-rule="evenodd" fill-opacity="1" /><path clip-path="url(#clip430)" d="M214.607 862.164 Q210.996 862.164 209.167 865.729 Q207.362 869.27 207.362 876.4 Q207.362 883.506 209.167 887.071 Q210.996 890.613 214.607 890.613 Q218.241 890.613 220.047 887.071 Q221.875 883.506 221.875 876.4 Q221.875 869.27 220.047 865.729 Q218.241 862.164 214.607 862.164 M214.607 858.46 Q220.417 858.46 223.473 863.066 Q226.551 867.65 226.551 876.4 Q226.551 885.127 223.473 889.733 Q220.417 894.316 214.607 894.316 Q208.797 894.316 205.718 889.733 Q202.662 885.127 202.662 876.4 Q202.662 867.65 205.718 863.066 Q208.797 858.46 214.607 858.46 Z" fill="#000000" fill-rule="evenodd" fill-opacity="1" /><path clip-path="url(#clip430)" d="M244.769 862.164 Q241.158 862.164 239.329 865.729 Q237.523 869.27 237.523 876.4 Q237.523 883.506 239.329 887.071 Q241.158 890.613 244.769 890.613 Q248.403 890.613 250.209 887.071 Q252.037 883.506 252.037 876.4 Q252.037 869.27 250.209 865.729 Q248.403 862.164 244.769 862.164 M244.769 858.46 Q250.579 858.46 253.634 863.066 Q256.713 867.65 256.713 876.4 Q256.713 885.127 253.634 889.733 Q250.579 894.316 244.769 894.316 Q238.959 894.316 235.88 889.733 Q232.824 885.127 232.824 876.4 Q232.824 867.65 235.88 863.066 Q238.959 858.46 244.769 858.46 Z" fill="#000000" fill-rule="evenodd" fill-opacity="1" /><path clip-path="url(#clip430)" d="M143.103 604.065 L165.325 604.065 L165.325 606.055 L152.778 638.625 L147.894 638.625 L159.7 608 L143.103 608 L143.103 604.065 Z" fill="#000000" fill-rule="evenodd" fill-opacity="1" /><path clip-path="url(#clip430)" d="M174.491 604.065 L192.848 604.065 L192.848 608 L178.774 608 L178.774 616.472 Q179.792 616.125 180.811 615.963 Q181.829 615.778 182.848 615.778 Q188.635 615.778 192.014 618.949 Q195.394 622.12 195.394 627.537 Q195.394 633.115 191.922 636.217 Q188.45 639.296 182.13 639.296 Q179.954 639.296 177.686 638.926 Q175.44 638.555 173.033 637.814 L173.033 633.115 Q175.116 634.25 177.339 634.805 Q179.561 635.361 182.038 635.361 Q186.042 635.361 188.38 633.254 Q190.718 631.148 190.718 627.537 Q190.718 623.926 188.38 621.819 Q186.042 619.713 182.038 619.713 Q180.163 619.713 178.288 620.129 Q176.436 620.546 174.491 621.426 L174.491 604.065 Z" fill="#000000" fill-rule="evenodd" fill-opacity="1" /><path clip-path="url(#clip430)" d="M214.607 607.143 Q210.996 607.143 209.167 610.708 Q207.362 614.25 207.362 621.379 Q207.362 628.486 209.167 632.051 Q210.996 635.592 214.607 635.592 Q218.241 635.592 220.047 632.051 Q221.875 628.486 221.875 621.379 Q221.875 614.25 220.047 610.708 Q218.241 607.143 214.607 607.143 M214.607 603.44 Q220.417 603.44 223.473 608.046 Q226.551 612.629 226.551 621.379 Q226.551 630.106 223.473 634.713 Q220.417 639.296 214.607 639.296 Q208.797 639.296 205.718 634.713 Q202.662 630.106 202.662 621.379 Q202.662 612.629 205.718 608.046 Q208.797 603.44 214.607 603.44 Z" fill="#000000" fill-rule="evenodd" fill-opacity="1" /><path clip-path="url(#clip430)" d="M244.769 607.143 Q241.158 607.143 239.329 610.708 Q237.523 614.25 237.523 621.379 Q237.523 628.486 239.329 632.051 Q241.158 635.592 244.769 635.592 Q248.403 635.592 250.209 632.051 Q252.037 628.486 252.037 621.379 Q252.037 614.25 250.209 610.708 Q248.403 607.143 244.769 607.143 M244.769 603.44 Q250.579 603.44 253.634 608.046 Q256.713 612.629 256.713 621.379 Q256.713 630.106 253.634 634.713 Q250.579 639.296 244.769 639.296 Q238.959 639.296 235.88 634.713 Q232.824 630.106 232.824 621.379 Q232.824 612.629 235.88 608.046 Q238.959 603.44 244.769 603.44 Z" fill="#000000" fill-rule="evenodd" fill-opacity="1" /><path clip-path="url(#clip430)" d="M114.931 379.669 L122.57 379.669 L122.57 353.303 L114.26 354.97 L114.26 350.711 L122.524 349.044 L127.2 349.044 L127.2 379.669 L134.839 379.669 L134.839 383.604 L114.931 383.604 L114.931 379.669 Z" fill="#000000" fill-rule="evenodd" fill-opacity="1" /><path clip-path="url(#clip430)" d="M154.283 352.123 Q150.672 352.123 148.843 355.688 Q147.038 359.229 147.038 366.359 Q147.038 373.465 148.843 377.03 Q150.672 380.572 154.283 380.572 Q157.917 380.572 159.723 377.03 Q161.552 373.465 161.552 366.359 Q161.552 359.229 159.723 355.688 Q157.917 352.123 154.283 352.123 M154.283 348.419 Q160.093 348.419 163.149 353.026 Q166.227 357.609 166.227 366.359 Q166.227 375.086 163.149 379.692 Q160.093 384.275 154.283 384.275 Q148.473 384.275 145.394 379.692 Q142.339 375.086 142.339 366.359 Q142.339 357.609 145.394 353.026 Q148.473 348.419 154.283 348.419 Z" fill="#000000" fill-rule="evenodd" fill-opacity="1" /><path clip-path="url(#clip430)" d="M184.445 352.123 Q180.834 352.123 179.005 355.688 Q177.2 359.229 177.2 366.359 Q177.2 373.465 179.005 377.03 Q180.834 380.572 184.445 380.572 Q188.079 380.572 189.885 377.03 Q191.713 373.465 191.713 366.359 Q191.713 359.229 189.885 355.688 Q188.079 352.123 184.445 352.123 M184.445 348.419 Q190.255 348.419 193.311 353.026 Q196.389 357.609 196.389 366.359 Q196.389 375.086 193.311 379.692 Q190.255 384.275 184.445 384.275 Q178.635 384.275 175.556 379.692 Q172.501 375.086 172.501 366.359 Q172.501 357.609 175.556 353.026 Q178.635 348.419 184.445 348.419 Z" fill="#000000" fill-rule="evenodd" fill-opacity="1" /><path clip-path="url(#clip430)" d="M214.607 352.123 Q210.996 352.123 209.167 355.688 Q207.362 359.229 207.362 366.359 Q207.362 373.465 209.167 377.03 Q210.996 380.572 214.607 380.572 Q218.241 380.572 220.047 377.03 Q221.875 373.465 221.875 366.359 Q221.875 359.229 220.047 355.688 Q218.241 352.123 214.607 352.123 M214.607 348.419 Q220.417 348.419 223.473 353.026 Q226.551 357.609 226.551 366.359 Q226.551 375.086 223.473 379.692 Q220.417 384.275 214.607 384.275 Q208.797 384.275 205.718 379.692 Q202.662 375.086 202.662 366.359 Q202.662 357.609 205.718 353.026 Q208.797 348.419 214.607 348.419 Z" fill="#000000" fill-rule="evenodd" fill-opacity="1" /><path clip-path="url(#clip430)" d="M244.769 352.123 Q241.158 352.123 239.329 355.688 Q237.523 359.229 237.523 366.359 Q237.523 373.465 239.329 377.03 Q241.158 380.572 244.769 380.572 Q248.403 380.572 250.209 377.03 Q252.037 373.465 252.037 366.359 Q252.037 359.229 250.209 355.688 Q248.403 352.123 244.769 352.123 M244.769 348.419 Q250.579 348.419 253.634 353.026 Q256.713 357.609 256.713 366.359 Q256.713 375.086 253.634 379.692 Q250.579 384.275 244.769 384.275 Q238.959 384.275 235.88 379.692 Q232.824 375.086 232.824 366.359 Q232.824 357.609 235.88 353.026 Q238.959 348.419 244.769 348.419 Z" fill="#000000" fill-rule="evenodd" fill-opacity="1" /><path clip-path="url(#clip430)" d="M58.657 873.22 L77.5631 873.22 L77.5631 879.108 L28.3562 879.108 L28.3562 873.22 L33.7671 873.22 Q30.5842 871.374 29.0564 868.573 Q27.4968 865.74 27.4968 861.825 Q27.4968 855.332 32.6531 851.29 Q37.8093 847.216 46.212 847.216 Q54.6147 847.216 59.771 851.29 Q64.9272 855.332 64.9272 861.825 Q64.9272 865.74 63.3994 868.573 Q61.8398 871.374 58.657 873.22 M46.212 853.295 Q39.7508 853.295 36.0905 855.969 Q32.3984 858.611 32.3984 863.258 Q32.3984 867.904 36.0905 870.578 Q39.7508 873.22 46.212 873.22 Q52.6732 873.22 56.3653 870.578 Q60.0256 867.904 60.0256 863.258 Q60.0256 858.611 56.3653 855.969 Q52.6732 853.295 46.212 853.295 Z" fill="#000000" fill-rule="evenodd" fill-opacity="1" /><path clip-path="url(#clip430)" d="M44.7161 807.016 L47.5806 807.016 L47.5806 833.943 Q53.6281 833.561 56.8109 830.315 Q59.9619 827.037 59.9619 821.212 Q59.9619 817.838 59.1344 814.687 Q58.3069 811.504 56.6518 808.385 L62.1899 808.385 Q63.5267 811.536 64.227 814.846 Q64.9272 818.156 64.9272 821.562 Q64.9272 830.092 59.9619 835.089 Q54.9967 840.055 46.5303 840.055 Q37.7774 840.055 32.6531 835.344 Q27.4968 830.601 27.4968 822.581 Q27.4968 815.387 32.1438 811.218 Q36.7589 807.016 44.7161 807.016 M42.9973 812.873 Q38.1912 812.937 35.3266 815.578 Q32.4621 818.188 32.4621 822.517 Q32.4621 827.419 35.2312 830.379 Q38.0002 833.307 43.0292 833.752 L42.9973 812.873 Z" fill="#000000" fill-rule="evenodd" fill-opacity="1" /><path clip-path="url(#clip430)" d="M32.4621 783.591 Q32.4621 788.301 36.1542 791.039 Q39.8145 793.776 46.212 793.776 Q52.6095 793.776 56.3017 791.07 Q59.9619 788.333 59.9619 783.591 Q59.9619 778.912 56.2698 776.175 Q52.5777 773.437 46.212 773.437 Q39.8781 773.437 36.186 776.175 Q32.4621 778.912 32.4621 783.591 M27.4968 783.591 Q27.4968 775.952 32.4621 771.591 Q37.4273 767.231 46.212 767.231 Q54.9649 767.231 59.9619 771.591 Q64.9272 775.952 64.9272 783.591 Q64.9272 791.261 59.9619 795.622 Q54.9649 799.951 46.212 799.951 Q37.4273 799.951 32.4621 795.622 Q27.4968 791.261 27.4968 783.591 Z" fill="#000000" fill-rule="evenodd" fill-opacity="1" /><path clip-path="url(#clip430)" d="M58.657 751.858 L77.5631 751.858 L77.5631 757.746 L28.3562 757.746 L28.3562 751.858 L33.7671 751.858 Q30.5842 750.012 29.0564 747.211 Q27.4968 744.378 27.4968 740.463 Q27.4968 733.97 32.6531 729.928 Q37.8093 725.854 46.212 725.854 Q54.6147 725.854 59.771 729.928 Q64.9272 733.97 64.9272 740.463 Q64.9272 744.378 63.3994 747.211 Q61.8398 750.012 58.657 751.858 M46.212 731.933 Q39.7508 731.933 36.0905 734.607 Q32.3984 737.248 32.3984 741.895 Q32.3984 746.542 36.0905 749.216 Q39.7508 751.858 46.212 751.858 Q52.6732 751.858 56.3653 749.216 Q60.0256 746.542 60.0256 741.895 Q60.0256 737.248 56.3653 734.607 Q52.6732 731.933 46.212 731.933 Z" fill="#000000" fill-rule="evenodd" fill-opacity="1" /><path clip-path="url(#clip430)" d="M14.479 716.146 L14.479 710.29 L64.0042 710.29 L64.0042 716.146 L14.479 716.146 Z" fill="#000000" fill-rule="evenodd" fill-opacity="1" /><path clip-path="url(#clip430)" d="M44.7161 667.544 L47.5806 667.544 L47.5806 694.471 Q53.6281 694.089 56.8109 690.842 Q59.9619 687.564 59.9619 681.739 Q59.9619 678.366 59.1344 675.215 Q58.3069 672.032 56.6518 668.912 L62.1899 668.912 Q63.5267 672.064 64.227 675.374 Q64.9272 678.684 64.9272 682.089 Q64.9272 690.62 59.9619 695.617 Q54.9967 700.582 46.5303 700.582 Q37.7774 700.582 32.6531 695.871 Q27.4968 691.129 27.4968 683.108 Q27.4968 675.915 32.1438 671.745 Q36.7589 667.544 44.7161 667.544 M42.9973 673.4 Q38.1912 673.464 35.3266 676.106 Q32.4621 678.716 32.4621 683.044 Q32.4621 687.946 35.2312 690.906 Q38.0002 693.834 43.0292 694.28 L42.9973 673.4 Z" fill="#000000" fill-rule="evenodd" fill-opacity="1" /><path clip-path="url(#clip430)" d="M1140.52 44.2197 Q1143.16 45.1109 1145.63 48.0275 Q1148.14 50.9442 1150.65 56.0483 L1158.96 72.576 L1150.17 72.576 L1142.43 57.061 Q1139.43 50.9847 1136.6 48.9997 Q1133.8 47.0148 1128.94 47.0148 L1120.03 47.0148 L1120.03 72.576 L1111.84 72.576 L1111.84 12.096 L1130.32 12.096 Q1140.69 12.096 1145.79 16.4305 Q1150.9 20.7649 1150.9 29.5149 Q1150.9 35.2267 1148.22 38.994 Q1145.59 42.7613 1140.52 44.2197 M1120.03 18.8205 L1120.03 40.2903 L1130.32 40.2903 Q1136.23 40.2903 1139.23 37.5762 Q1142.27 34.8216 1142.27 29.5149 Q1142.27 24.2082 1139.23 21.5346 Q1136.23 18.8205 1130.32 18.8205 L1120.03 18.8205 Z" fill="#000000" fill-rule="evenodd" fill-opacity="1" /><path clip-path="url(#clip430)" d="M1204.25 48.0275 L1204.25 51.6733 L1169.97 51.6733 Q1170.46 59.3701 1174.59 63.421 Q1178.77 67.4314 1186.18 67.4314 Q1190.47 67.4314 1194.48 66.3781 Q1198.53 65.3249 1202.5 63.2184 L1202.5 70.267 Q1198.49 71.9684 1194.28 72.8596 Q1190.07 73.7508 1185.73 73.7508 Q1174.88 73.7508 1168.52 67.4314 Q1162.2 61.1119 1162.2 50.3365 Q1162.2 39.1965 1168.19 32.6746 Q1174.23 26.1121 1184.44 26.1121 Q1193.59 26.1121 1198.9 32.0264 Q1204.25 37.9003 1204.25 48.0275 M1196.79 45.84 Q1196.71 39.7232 1193.35 36.0774 Q1190.03 32.4315 1184.52 32.4315 Q1178.28 32.4315 1174.51 35.9558 Q1170.79 39.4801 1170.22 45.8805 L1196.79 45.84 Z" fill="#000000" fill-rule="evenodd" fill-opacity="1" /><path clip-path="url(#clip430)" d="M1249.13 28.9478 L1249.13 35.9153 Q1245.97 34.1734 1242.77 33.3227 Q1239.61 32.4315 1236.37 32.4315 Q1229.12 32.4315 1225.11 37.0496 Q1221.1 41.6271 1221.1 49.9314 Q1221.1 58.2358 1225.11 62.8538 Q1229.12 67.4314 1236.37 67.4314 Q1239.61 67.4314 1242.77 66.5807 Q1245.97 65.6895 1249.13 63.9476 L1249.13 70.8341 Q1246.01 72.2924 1242.65 73.0216 Q1239.33 73.7508 1235.56 73.7508 Q1225.31 73.7508 1219.27 67.3098 Q1213.24 60.8689 1213.24 49.9314 Q1213.24 38.832 1219.31 32.472 Q1225.43 26.1121 1236.05 26.1121 Q1239.49 26.1121 1242.77 26.8413 Q1246.05 27.5299 1249.13 28.9478 Z" fill="#000000" fill-rule="evenodd" fill-opacity="1" /><path clip-path="url(#clip430)" d="M1279.67 32.4315 Q1273.68 32.4315 1270.19 37.1306 Q1266.71 41.7891 1266.71 49.9314 Q1266.71 58.0738 1270.15 62.7728 Q1273.64 67.4314 1279.67 67.4314 Q1285.63 67.4314 1289.11 62.7323 Q1292.6 58.0333 1292.6 49.9314 Q1292.6 41.8701 1289.11 37.1711 Q1285.63 32.4315 1279.67 32.4315 M1279.67 26.1121 Q1289.4 26.1121 1294.95 32.4315 Q1300.5 38.7509 1300.5 49.9314 Q1300.5 61.0714 1294.95 67.4314 Q1289.4 73.7508 1279.67 73.7508 Q1269.91 73.7508 1264.36 67.4314 Q1258.85 61.0714 1258.85 49.9314 Q1258.85 38.7509 1264.36 32.4315 Q1269.91 26.1121 1279.67 26.1121 Z" fill="#000000" fill-rule="evenodd" fill-opacity="1" /><path clip-path="url(#clip430)" d="M1307.5 27.2059 L1315.4 27.2059 L1329.58 65.2844 L1343.76 27.2059 L1351.66 27.2059 L1334.64 72.576 L1324.52 72.576 L1307.5 27.2059 Z" fill="#000000" fill-rule="evenodd" fill-opacity="1" /><path clip-path="url(#clip430)" d="M1400.75 48.0275 L1400.75 51.6733 L1366.48 51.6733 Q1366.97 59.3701 1371.1 63.421 Q1375.27 67.4314 1382.69 67.4314 Q1386.98 67.4314 1390.99 66.3781 Q1395.04 65.3249 1399.01 63.2184 L1399.01 70.267 Q1395 71.9684 1390.79 72.8596 Q1386.58 73.7508 1382.24 73.7508 Q1371.39 73.7508 1365.03 67.4314 Q1358.71 61.1119 1358.71 50.3365 Q1358.71 39.1965 1364.7 32.6746 Q1370.74 26.1121 1380.95 26.1121 Q1390.1 26.1121 1395.41 32.0264 Q1400.75 37.9003 1400.75 48.0275 M1393.3 45.84 Q1393.22 39.7232 1389.86 36.0774 Q1386.54 32.4315 1381.03 32.4315 Q1374.79 32.4315 1371.02 35.9558 Q1367.29 39.4801 1366.73 45.8805 L1393.3 45.84 Z" fill="#000000" fill-rule="evenodd" fill-opacity="1" /><path clip-path="url(#clip430)" d="M1439.28 34.1734 Q1438.02 33.4443 1436.52 33.1202 Q1435.07 32.7556 1433.28 32.7556 Q1426.96 32.7556 1423.56 36.8875 Q1420.2 40.9789 1420.2 48.6757 L1420.2 72.576 L1412.71 72.576 L1412.71 27.2059 L1420.2 27.2059 L1420.2 34.2544 Q1422.55 30.1225 1426.32 28.1376 Q1430.08 26.1121 1435.47 26.1121 Q1436.24 26.1121 1437.17 26.2337 Q1438.1 26.3147 1439.24 26.5172 L1439.28 34.1734 Z" fill="#000000" fill-rule="evenodd" fill-opacity="1" /><path clip-path="url(#clip430)" d="M1484.08 48.0275 L1484.08 51.6733 L1449.81 51.6733 Q1450.3 59.3701 1454.43 63.421 Q1458.6 67.4314 1466.01 67.4314 Q1470.31 67.4314 1474.32 66.3781 Q1478.37 65.3249 1482.34 63.2184 L1482.34 70.267 Q1478.33 71.9684 1474.12 72.8596 Q1469.9 73.7508 1465.57 73.7508 Q1454.71 73.7508 1448.35 67.4314 Q1442.03 61.1119 1442.03 50.3365 Q1442.03 39.1965 1448.03 32.6746 Q1454.06 26.1121 1464.27 26.1121 Q1473.43 26.1121 1478.73 32.0264 Q1484.08 37.9003 1484.08 48.0275 M1476.63 45.84 Q1476.55 39.7232 1473.19 36.0774 Q1469.86 32.4315 1464.35 32.4315 Q1458.12 32.4315 1454.35 35.9558 Q1450.62 39.4801 1450.05 45.8805 L1476.63 45.84 Z" fill="#000000" fill-rule="evenodd" fill-opacity="1" /><path clip-path="url(#clip430)" d="M1526.17 34.0924 L1526.17 9.54393 L1533.62 9.54393 L1533.62 72.576 L1526.17 72.576 L1526.17 65.7705 Q1523.82 69.8214 1520.22 71.8063 Q1516.65 73.7508 1511.63 73.7508 Q1503.4 73.7508 1498.22 67.1883 Q1493.08 60.6258 1493.08 49.9314 Q1493.08 39.2371 1498.22 32.6746 Q1503.4 26.1121 1511.63 26.1121 Q1516.65 26.1121 1520.22 28.0971 Q1523.82 30.0415 1526.17 34.0924 M1500.77 49.9314 Q1500.77 58.1548 1504.13 62.8538 Q1507.54 67.5124 1513.45 67.5124 Q1519.37 67.5124 1522.77 62.8538 Q1526.17 58.1548 1526.17 49.9314 Q1526.17 41.7081 1522.77 37.0496 Q1519.37 32.3505 1513.45 32.3505 Q1507.54 32.3505 1504.13 37.0496 Q1500.77 41.7081 1500.77 49.9314 Z" fill="#000000" fill-rule="evenodd" fill-opacity="1" /><polyline clip-path="url(#clip432)" style="stroke:#009af9; stroke-linecap:butt; stroke-linejoin:round; stroke-width:4; stroke-opacity:1; fill:none" points="
  292.713,1386.4 297.863,1386.37 303.013,1386.28 308.163,1386.13 313.314,1385.93 318.464,1385.68 323.614,1385.36 328.764,1384.99 333.914,1384.55 339.064,1384.06 
  344.214,1383.5 349.364,1382.88 354.514,1382.18 359.664,1381.42 364.815,1380.58 369.965,1379.66 375.115,1378.67 380.265,1377.59 385.415,1376.42 390.565,1375.16 
  395.715,1373.82 400.865,1372.37 406.015,1370.83 411.166,1369.19 416.316,1367.44 421.466,1365.59 426.616,1363.63 431.766,1361.56 436.916,1359.38 442.066,1357.08 
  447.216,1354.66 452.366,1352.11 457.517,1349.42 462.667,1346.59 467.817,1343.62 472.967,1340.5 478.117,1337.23 483.267,1333.8 488.417,1330.2 493.567,1326.43 
  498.717,1322.48 503.867,1318.35 509.018,1314.03 514.168,1309.54 519.318,1304.88 524.468,1300.05 529.618,1295.07 534.768,1289.95 539.918,1284.68 545.068,1279.29 
  550.218,1273.77 555.369,1268.15 560.519,1262.44 565.669,1256.64 570.819,1250.76 575.969,1244.83 581.119,1238.84 586.269,1232.82 591.419,1226.78 596.569,1220.72 
  601.72,1214.66 606.87,1208.6 612.02,1202.56 617.17,1196.54 622.32,1190.55 627.47,1184.6 632.62,1178.7 637.77,1172.87 642.92,1167.1 648.07,1161.4 
  653.221,1155.79 658.371,1150.26 663.521,1144.83 668.671,1139.49 673.821,1134.25 678.971,1129.13 684.121,1124.13 689.271,1119.25 694.421,1114.5 699.572,1109.88 
  704.722,1105.4 709.872,1101.05 715.022,1096.84 720.172,1092.77 725.322,1088.84 730.472,1085.05 735.622,1081.39 740.772,1077.88 745.923,1074.5 751.073,1071.25 
  756.223,1068.15 761.373,1065.17 766.523,1062.32 771.673,1059.61 776.823,1057.01 781.973,1054.54 787.123,1052.19 792.273,1049.94 797.424,1047.81 802.574,1045.79 
  807.724,1043.86 812.874,1042.04 818.024,1040.31 823.174,1038.68 828.324,1037.14 833.474,1035.68 838.624,1034.29 843.775,1032.99 848.925,1031.75 854.075,1030.57 
  859.225,1029.46 864.375,1028.4 869.525,1027.4 874.675,1026.44 879.825,1025.53 884.975,1024.66 890.126,1023.82 895.276,1023.02 900.426,1022.25 905.576,1021.51 
  910.726,1020.78 915.876,1020.08 921.026,1019.4 926.176,1018.73 931.326,1018.08 936.476,1017.43 941.627,1016.79 946.777,1016.15 951.927,1015.51 957.077,1014.86 
  962.227,1014.21 967.377,1013.55 972.527,1012.87 977.677,1012.17 982.827,1011.45 987.978,1010.7 993.128,1009.93 998.278,1009.12 1003.43,1008.27 1008.58,1007.39 
  1013.73,1006.46 1018.88,1005.48 1024.03,1004.46 1029.18,1003.38 1034.33,1002.24 1039.48,1001.04 1044.63,999.778 1049.78,998.449 1054.93,997.051 1060.08,995.582 
  1065.23,994.039 1070.38,992.42 1075.53,990.721 1080.68,988.941 1085.83,987.079 1090.98,985.131 1096.13,983.094 1101.28,980.967 1106.43,978.748 1111.58,976.435 
  1116.73,974.027 1121.88,971.523 1127.03,968.924 1132.18,966.222 1137.33,963.412 1142.48,960.491 1147.63,957.46 1152.78,954.315 1157.93,951.052 1163.08,947.67 
  1168.23,944.17 1173.38,940.55 1178.53,936.813 1183.68,932.96 1188.83,928.994 1193.98,924.919 1199.13,920.738 1204.28,916.454 1209.43,912.07 1214.58,907.591 
  1219.73,903.022 1224.88,898.368 1230.03,893.635 1235.18,888.826 1240.33,883.946 1245.48,878.998 1250.63,873.989 1255.78,868.922 1260.93,863.806 1266.08,858.646 
  1271.23,853.448 1276.38,848.221 1281.53,842.972 1286.68,837.709 1291.83,832.439 1296.98,827.172 1302.13,821.913 1307.28,816.673 1312.43,811.458 1317.58,806.277 
  1322.73,801.138 1327.88,796.049 1333.03,791.019 1338.18,786.055 1343.33,781.159 1348.49,776.333 1353.64,771.58 1358.79,766.902 1363.94,762.303 1369.09,757.784 
  1374.24,753.349 1379.39,748.995 1384.54,744.722 1389.69,740.527 1394.84,736.412 1399.99,732.374 1405.14,728.413 1410.29,724.53 1415.44,720.723 1420.59,716.989 
  1425.74,713.326 1430.89,709.733 1436.04,706.212 1441.19,702.767 1446.34,699.394 1451.49,696.091 1456.64,692.857 1461.79,689.691 1466.94,686.59 1472.09,683.552 
  1477.24,680.576 1482.39,677.662 1487.54,674.809 1492.69,672.015 1497.84,669.278 1502.99,666.597 1508.14,663.969 1513.29,661.393 1518.44,658.866 1523.59,656.387 
  1528.74,653.955 1533.89,651.569 1539.04,649.226 1544.19,646.926 1549.34,644.669 1554.49,642.452 1559.64,640.276 1564.79,638.139 1569.94,636.04 1575.09,633.979 
  1580.24,631.955 1585.39,629.966 1590.54,628.011 1595.69,626.091 1600.84,624.204 1605.99,622.349 1611.14,620.525 1616.29,618.733 1621.44,616.971 1626.59,615.24 
  1631.74,613.541 1636.89,611.873 1642.04,610.236 1647.19,608.63 1652.34,607.054 1657.49,605.508 1662.64,603.993 1667.79,602.507 1672.94,601.05 1678.09,599.623 
  1683.24,598.224 1688.39,596.854 1693.54,595.512 1698.69,594.198 1703.84,592.911 1708.99,591.651 1714.14,590.417 1719.29,589.21 1724.44,588.028 1729.59,586.871 
  1734.74,585.739 1739.89,584.632 1745.04,583.548 1750.19,582.486 1755.34,581.445 1760.49,580.424 1765.64,579.421 1770.79,578.436 1775.94,577.466 1781.09,576.51 
  1786.24,575.565 1791.39,574.629 1796.54,573.699 1801.69,572.773 1806.84,571.848 1811.99,570.922 1817.14,569.989 1822.29,569.048 1827.44,568.094 1832.6,567.123 
  1837.75,566.132 1842.9,565.116 1848.05,564.072 1853.2,562.996 1858.35,561.882 1863.5,560.728 1868.65,559.529 1873.8,558.28 1878.95,556.98 1884.1,555.628 
  1889.25,554.223 1894.4,552.761 1899.55,551.238 1904.7,549.651 1909.85,547.995 1915,546.272 1920.15,544.481 1925.3,542.619 1930.45,540.686 1935.6,538.682 
  1940.75,536.608 1945.9,534.463 1951.05,532.245 1956.2,529.956 1961.35,527.595 1966.5,525.161 1971.65,522.654 1976.8,520.072 1981.95,517.417 1987.1,514.688 
  1992.25,511.886 1997.4,509.011 2002.55,506.063 2007.7,503.04 2012.85,499.943 2018,496.769 2023.15,493.516 2028.3,490.184 2033.45,486.769 2038.6,483.271 
  2043.75,479.687 2048.9,476.017 2054.05,472.26 2059.2,468.415 2064.35,464.479 2069.5,460.45 2074.65,456.327 2079.8,452.11 2084.95,447.799 2090.1,443.398 
  2095.25,438.909 2100.4,434.325 2105.55,429.651 2110.7,424.892 2115.85,420.048 2121,415.116 2126.15,410.098 2131.3,404.996 2136.45,399.81 2141.6,394.544 
  2146.75,389.204 2151.9,383.8 2157.05,378.338 2162.2,372.825 2167.35,367.267 2172.5,361.67 2177.65,356.039 2182.8,350.378 2187.95,344.692 2193.1,338.986 
  2198.25,333.262 2203.4,327.524 2208.55,321.775 2213.7,316.019 2218.85,310.257 2224,304.493 2229.15,298.727 2234.3,292.96 2239.45,287.191 2244.6,281.427 
  2249.75,275.669 2254.9,269.915 2260.05,264.158 2265.2,258.398 2270.35,252.64 2275.5,246.884 2280.65,241.13 2285.8,235.376 2290.95,229.622 2296.1,223.866 
  2301.25,218.107 2306.4,212.344 2311.56,206.577 2316.71,200.798 2321.86,195.017 2327.01,189.246 2332.16,183.477 2337.31,177.691 2342.46,171.892 2347.61,166.082 
  2352.76,160.256 
  "/>
<polyline clip-path="url(#clip432)" style="stroke:#e26f46; stroke-linecap:butt; stroke-linejoin:round; stroke-width:4; stroke-opacity:1; fill:none" points="
  292.713,1386.4 297.863,1386.37 303.013,1386.31 308.163,1386.2 313.314,1386.06 318.464,1385.88 323.614,1385.67 328.764,1385.41 333.914,1385.12 339.064,1384.79 
  344.214,1384.42 349.364,1384.02 354.514,1383.57 359.664,1383.08 364.815,1382.55 369.965,1381.97 375.115,1381.35 380.265,1380.67 385.415,1379.94 390.565,1379.15 
  395.715,1378.31 400.865,1377.4 406.015,1376.42 411.166,1375.38 416.316,1374.24 421.466,1373.02 426.616,1371.73 431.766,1370.34 436.916,1368.85 442.066,1367.27 
  447.216,1365.59 452.366,1363.8 457.517,1361.9 462.667,1359.89 467.817,1357.77 472.967,1355.52 478.117,1353.15 483.267,1350.66 488.417,1348.04 493.567,1345.29 
  498.717,1342.4 503.867,1339.38 509.018,1336.23 514.168,1332.94 519.318,1329.52 524.468,1325.96 529.618,1322.28 534.768,1318.47 539.918,1314.55 545.068,1310.54 
  550.218,1306.42 555.369,1302.2 560.519,1297.92 565.669,1293.62 570.819,1289.3 575.969,1284.95 581.119,1280.6 586.269,1276.27 591.419,1271.93 596.569,1267.58 
  601.72,1263.22 606.87,1258.87 612.02,1254.57 617.17,1250.29 622.32,1246.05 627.47,1241.83 632.62,1237.66 637.77,1233.54 642.92,1229.48 648.07,1225.47 
  653.221,1221.52 658.371,1217.64 663.521,1213.84 668.671,1210.11 673.821,1206.46 678.971,1202.89 684.121,1199.4 689.271,1196.01 694.421,1192.7 699.572,1189.49 
  704.722,1186.37 709.872,1183.35 715.022,1180.43 720.172,1177.6 725.322,1174.87 730.472,1172.24 735.622,1169.7 740.772,1167.26 745.923,1164.92 751.073,1162.67 
  756.223,1160.52 761.373,1158.46 766.523,1156.48 771.673,1154.6 776.823,1152.81 781.973,1151.1 787.123,1149.47 792.273,1147.92 797.424,1146.45 802.574,1145.05 
  807.724,1143.72 812.874,1142.47 818.024,1141.28 823.174,1140.15 828.324,1139.09 833.474,1138.08 838.624,1137.13 843.775,1136.23 848.925,1135.37 854.075,1134.57 
  859.225,1133.8 864.375,1133.08 869.525,1132.38 874.675,1131.72 879.825,1131.09 884.975,1130.49 890.126,1129.92 895.276,1129.36 900.426,1128.83 905.576,1128.31 
  910.726,1127.81 915.876,1127.33 921.026,1126.85 926.176,1126.39 931.326,1125.93 936.476,1125.48 941.627,1125.02 946.777,1124.57 951.927,1124.11 957.077,1123.65 
  962.227,1123.17 967.377,1122.68 972.527,1122.18 977.677,1121.66 982.827,1121.13 987.978,1120.56 993.128,1119.97 998.278,1119.36 1003.43,1118.71 1008.58,1118.03 
  1013.73,1117.31 1018.88,1116.56 1024.03,1115.76 1029.18,1114.92 1034.33,1114.03 1039.48,1113.09 1044.63,1112.1 1049.78,1111.05 1054.93,1109.95 1060.08,1108.79 
  1065.23,1107.57 1070.38,1106.29 1075.53,1104.94 1080.68,1103.53 1085.83,1102.05 1090.98,1100.49 1096.13,1098.87 1101.28,1097.18 1106.43,1095.43 1111.58,1093.6 
  1116.73,1091.68 1121.88,1089.68 1127.03,1087.6 1132.18,1085.43 1137.33,1083.17 1142.48,1080.81 1147.63,1078.37 1152.78,1075.83 1157.93,1073.19 1163.08,1070.45 
  1168.23,1067.62 1173.38,1064.68 1178.53,1061.66 1183.68,1058.55 1188.83,1055.35 1193.98,1052.07 1199.13,1048.71 1204.28,1045.27 1209.43,1041.76 1214.58,1038.18 
  1219.73,1034.53 1224.88,1030.81 1230.03,1027.03 1235.18,1023.2 1240.33,1019.3 1245.48,1015.36 1250.63,1011.37 1255.78,1007.33 1260.93,1003.26 1266.08,999.152 
  1271.23,995.016 1276.38,990.856 1281.53,986.68 1286.68,982.493 1291.83,978.301 1296.98,974.11 1302.13,969.928 1307.28,965.759 1312.43,961.611 1317.58,957.49 
  1322.73,953.403 1327.88,949.355 1333.03,945.351 1338.18,941.39 1343.33,937.483 1348.49,933.635 1353.64,929.851 1358.79,926.13 1363.94,922.47 1369.09,918.863 
  1374.24,915.306 1379.39,911.811 1384.54,908.375 1389.69,904.994 1394.84,901.667 1399.99,898.396 1405.14,895.182 1410.29,892.025 1415.44,888.916 1420.59,885.869 
  1425.74,882.894 1430.89,879.991 1436.04,877.152 1441.19,874.364 1446.34,871.632 1451.49,868.962 1456.64,866.353 1461.79,863.804 1466.94,861.312 1472.09,858.877 
  1477.24,856.497 1482.39,854.171 1487.54,851.898 1492.69,849.675 1497.84,847.502 1502.99,845.376 1508.14,843.295 1513.29,841.256 1518.44,839.257 1523.59,837.298 
  1528.74,835.376 1533.89,833.491 1539.04,831.641 1544.19,829.825 1549.34,828.043 1554.49,826.292 1559.64,824.574 1564.79,822.887 1569.94,821.231 1575.09,819.604 
  1580.24,818.007 1585.39,816.437 1590.54,814.893 1595.69,813.374 1600.84,811.881 1605.99,810.414 1611.14,808.974 1616.29,807.561 1621.44,806.174 1626.59,804.813 
  1631.74,803.476 1636.89,802.162 1642.04,800.873 1647.19,799.609 1652.34,798.369 1657.49,797.155 1662.64,795.965 1667.79,794.799 1672.94,793.658 1678.09,792.541 
  1683.24,791.447 1688.39,790.377 1693.54,789.33 1698.69,788.305 1703.84,787.302 1708.99,786.32 1714.14,785.359 1719.29,784.42 1724.44,783.501 1729.59,782.602 
  1734.74,781.722 1739.89,780.86 1745.04,780.016 1750.19,779.193 1755.34,778.39 1760.49,777.605 1765.64,776.837 1770.79,776.082 1775.94,775.337 1781.09,774.601 
  1786.24,773.873 1791.39,773.153 1796.54,772.439 1801.69,771.728 1806.84,771.019 1811.99,770.308 1817.14,769.595 1822.29,768.875 1827.44,768.146 1832.6,767.406 
  1837.75,766.65 1842.9,765.875 1848.05,765.08 1853.2,764.259 1858.35,763.41 1863.5,762.53 1868.65,761.615 1873.8,760.668 1878.95,759.682 1884.1,758.651 
  1889.25,757.574 1894.4,756.447 1899.55,755.274 1904.7,754.055 1909.85,752.796 1915,751.489 1920.15,750.13 1925.3,748.722 1930.45,747.262 1935.6,745.747 
  1940.75,744.173 1945.9,742.542 1951.05,740.854 1956.2,739.11 1961.35,737.308 1966.5,735.45 1971.65,733.534 1976.8,731.559 1981.95,729.527 1987.1,727.437 
  1992.25,725.292 1997.4,723.089 2002.55,720.828 2007.7,718.507 2012.85,716.123 2018,713.674 2023.15,711.159 2028.3,708.576 2033.45,705.923 2038.6,703.199 
  2043.75,700.404 2048.9,697.535 2054.05,694.597 2059.2,691.587 2064.35,688.503 2069.5,685.342 2074.65,682.105 2079.8,678.791 2084.95,675.402 2090.1,671.942 
  2095.25,668.414 2100.4,664.815 2105.55,661.142 2110.7,657.394 2115.85,653.572 2121,649.68 2126.15,645.716 2131.3,641.678 2136.45,637.568 2141.6,633.393 
  2146.75,629.169 2151.9,624.913 2157.05,620.635 2162.2,616.344 2167.35,612.047 2172.5,607.748 2177.65,603.451 2182.8,599.159 2187.95,594.874 2193.1,590.596 
  2198.25,586.329 2203.4,582.073 2208.55,577.831 2213.7,573.601 2218.85,569.382 2224,565.175 2229.15,560.98 2234.3,556.803 2239.45,552.646 2244.6,548.5 
  2249.75,544.362 2254.9,540.24 2260.05,536.15 2265.2,532.093 2270.35,528.061 2275.5,524.054 2280.65,520.069 2285.8,516.105 2290.95,512.16 2296.1,508.23 
  2301.25,504.316 2306.4,500.413 2311.56,496.522 2316.71,492.66 2321.86,488.788 2327.01,484.864 2332.16,480.888 2337.31,476.891 2342.46,472.843 2347.61,468.733 
  2352.76,464.553 
  "/>
<path clip-path="url(#clip430)" d="
M1837.02 322.316 L2284.09 322.316 L2284.09 166.796 L1837.02 166.796  Z
  " fill="#ffffff" fill-rule="evenodd" fill-opacity="1"/>
<polyline clip-path="url(#clip430)" style="stroke:#000000; stroke-linecap:butt; stroke-linejoin:round; stroke-width:4; stroke-opacity:1; fill:none" points="
  1837.02,322.316 2284.09,322.316 2284.09,166.796 1837.02,166.796 1837.02,322.316 
  "/>
<polyline clip-path="url(#clip430)" style="stroke:#009af9; stroke-linecap:butt; stroke-linejoin:round; stroke-width:4; stroke-opacity:1; fill:none" points="
  1859.91,218.636 1997.25,218.636 
  "/>
<path clip-path="url(#clip430)" d="M2030.76 199.944 Q2027.66 205.268 2026.16 210.476 Q2024.65 215.684 2024.65 221.032 Q2024.65 226.379 2026.16 231.633 Q2027.69 236.865 2030.76 242.166 L2027.06 242.166 Q2023.59 236.726 2021.85 231.471 Q2020.14 226.217 2020.14 221.032 Q2020.14 215.87 2021.85 210.638 Q2023.56 205.407 2027.06 199.944 L2030.76 199.944 Z" fill="#000000" fill-rule="evenodd" fill-opacity="1" /><path clip-path="url(#clip430)" d="M2043.24 202.629 L2043.24 209.99 L2052.01 209.99 L2052.01 213.3 L2043.24 213.3 L2043.24 227.374 Q2043.24 230.545 2044.1 231.448 Q2044.98 232.351 2047.64 232.351 L2052.01 232.351 L2052.01 235.916 L2047.64 235.916 Q2042.71 235.916 2040.83 234.087 Q2038.96 232.235 2038.96 227.374 L2038.96 213.3 L2035.83 213.3 L2035.83 209.99 L2038.96 209.99 L2038.96 202.629 L2043.24 202.629 Z" fill="#000000" fill-rule="evenodd" fill-opacity="1" /><path clip-path="url(#clip430)" d="M2058.7 230.036 L2063.59 230.036 L2063.59 234.018 L2059.79 241.425 L2056.81 241.425 L2058.7 234.018 L2058.7 230.036 Z" fill="#000000" fill-rule="evenodd" fill-opacity="1" /><path clip-path="url(#clip430)" d="M2089.26 219.712 Q2090.76 220.221 2092.18 221.888 Q2093.61 223.555 2095.05 226.471 L2099.79 235.916 L2094.77 235.916 L2090.35 227.05 Q2088.63 223.578 2087.01 222.444 Q2085.42 221.309 2082.64 221.309 L2077.55 221.309 L2077.55 235.916 L2072.87 235.916 L2072.87 201.356 L2083.43 201.356 Q2089.35 201.356 2092.27 203.833 Q2095.18 206.309 2095.18 211.309 Q2095.18 214.573 2093.66 216.726 Q2092.15 218.879 2089.26 219.712 M2077.55 205.198 L2077.55 217.467 L2083.43 217.467 Q2086.81 217.467 2088.52 215.916 Q2090.25 214.342 2090.25 211.309 Q2090.25 208.277 2088.52 206.749 Q2086.81 205.198 2083.43 205.198 L2077.55 205.198 Z" fill="#000000" fill-rule="evenodd" fill-opacity="1" /><path clip-path="url(#clip430)" d="M2105.23 199.897 L2115.05 199.897 L2115.05 203.208 L2109.49 203.208 L2109.49 238.856 L2115.05 238.856 L2115.05 242.166 L2105.23 242.166 L2105.23 199.897 Z" fill="#000000" fill-rule="evenodd" fill-opacity="1" /><path clip-path="url(#clip430)" d="M2125.53 231.981 L2133.17 231.981 L2133.17 205.615 L2124.86 207.282 L2124.86 203.022 L2133.12 201.356 L2137.8 201.356 L2137.8 231.981 L2145.44 231.981 L2145.44 235.916 L2125.53 235.916 L2125.53 231.981 Z" fill="#000000" fill-rule="evenodd" fill-opacity="1" /><path clip-path="url(#clip430)" d="M2164.24 199.897 L2164.24 242.166 L2154.42 242.166 L2154.42 238.856 L2159.95 238.856 L2159.95 203.208 L2154.42 203.208 L2154.42 199.897 L2164.24 199.897 Z" fill="#000000" fill-rule="evenodd" fill-opacity="1" /><path clip-path="url(#clip430)" d="M2183.01 199.944 Q2179.91 205.268 2178.4 210.476 Q2176.9 215.684 2176.9 221.032 Q2176.9 226.379 2178.4 231.633 Q2179.93 236.865 2183.01 242.166 L2179.3 242.166 Q2175.83 236.726 2174.1 231.471 Q2172.38 226.217 2172.38 221.032 Q2172.38 215.87 2174.1 210.638 Q2175.81 205.407 2179.3 199.944 L2183.01 199.944 Z" fill="#000000" fill-rule="evenodd" fill-opacity="1" /><path clip-path="url(#clip430)" d="M2195.49 202.629 L2195.49 209.99 L2204.26 209.99 L2204.26 213.3 L2195.49 213.3 L2195.49 227.374 Q2195.49 230.545 2196.34 231.448 Q2197.22 232.351 2199.88 232.351 L2204.26 232.351 L2204.26 235.916 L2199.88 235.916 Q2194.95 235.916 2193.08 234.087 Q2191.2 232.235 2191.2 227.374 L2191.2 213.3 L2188.08 213.3 L2188.08 209.99 L2191.2 209.99 L2191.2 202.629 L2195.49 202.629 Z" fill="#000000" fill-rule="evenodd" fill-opacity="1" /><path clip-path="url(#clip430)" d="M2209.19 199.944 L2212.89 199.944 Q2216.36 205.407 2218.08 210.638 Q2219.81 215.87 2219.81 221.032 Q2219.81 226.217 2218.08 231.471 Q2216.36 236.726 2212.89 242.166 L2209.19 242.166 Q2212.27 236.865 2213.77 231.633 Q2215.3 226.379 2215.3 221.032 Q2215.3 215.684 2213.77 210.476 Q2212.27 205.268 2209.19 199.944 Z" fill="#000000" fill-rule="evenodd" fill-opacity="1" /><path clip-path="url(#clip430)" d="M2227.68 199.944 L2231.39 199.944 Q2234.86 205.407 2236.57 210.638 Q2238.31 215.87 2238.31 221.032 Q2238.31 226.217 2236.57 231.471 Q2234.86 236.726 2231.39 242.166 L2227.68 242.166 Q2230.76 236.865 2232.27 231.633 Q2233.8 226.379 2233.8 221.032 Q2233.8 215.684 2232.27 210.476 Q2230.76 205.268 2227.68 199.944 Z" fill="#000000" fill-rule="evenodd" fill-opacity="1" /><polyline clip-path="url(#clip430)" style="stroke:#e26f46; stroke-linecap:butt; stroke-linejoin:round; stroke-width:4; stroke-opacity:1; fill:none" points="
  1859.91,270.476 1997.25,270.476 
  "/>
<path clip-path="url(#clip430)" d="M2030.76 251.784 Q2027.66 257.108 2026.16 262.316 Q2024.65 267.524 2024.65 272.872 Q2024.65 278.219 2026.16 283.473 Q2027.69 288.705 2030.76 294.006 L2027.06 294.006 Q2023.59 288.566 2021.85 283.311 Q2020.14 278.057 2020.14 272.872 Q2020.14 267.71 2021.85 262.478 Q2023.56 257.247 2027.06 251.784 L2030.76 251.784 Z" fill="#000000" fill-rule="evenodd" fill-opacity="1" /><path clip-path="url(#clip430)" d="M2043.24 254.469 L2043.24 261.83 L2052.01 261.83 L2052.01 265.14 L2043.24 265.14 L2043.24 279.214 Q2043.24 282.385 2044.1 283.288 Q2044.98 284.191 2047.64 284.191 L2052.01 284.191 L2052.01 287.756 L2047.64 287.756 Q2042.71 287.756 2040.83 285.927 Q2038.96 284.075 2038.96 279.214 L2038.96 265.14 L2035.83 265.14 L2035.83 261.83 L2038.96 261.83 L2038.96 254.469 L2043.24 254.469 Z" fill="#000000" fill-rule="evenodd" fill-opacity="1" /><path clip-path="url(#clip430)" d="M2058.7 281.876 L2063.59 281.876 L2063.59 285.858 L2059.79 293.265 L2056.81 293.265 L2058.7 285.858 L2058.7 281.876 Z" fill="#000000" fill-rule="evenodd" fill-opacity="1" /><path clip-path="url(#clip430)" d="M2089.26 271.552 Q2090.76 272.061 2092.18 273.728 Q2093.61 275.395 2095.05 278.311 L2099.79 287.756 L2094.77 287.756 L2090.35 278.89 Q2088.63 275.418 2087.01 274.284 Q2085.42 273.149 2082.64 273.149 L2077.55 273.149 L2077.55 287.756 L2072.87 287.756 L2072.87 253.196 L2083.43 253.196 Q2089.35 253.196 2092.27 255.673 Q2095.18 258.149 2095.18 263.149 Q2095.18 266.413 2093.66 268.566 Q2092.15 270.719 2089.26 271.552 M2077.55 257.038 L2077.55 269.307 L2083.43 269.307 Q2086.81 269.307 2088.52 267.756 Q2090.25 266.182 2090.25 263.149 Q2090.25 260.117 2088.52 258.589 Q2086.81 257.038 2083.43 257.038 L2077.55 257.038 Z" fill="#000000" fill-rule="evenodd" fill-opacity="1" /><path clip-path="url(#clip430)" d="M2105.23 251.737 L2115.05 251.737 L2115.05 255.048 L2109.49 255.048 L2109.49 290.696 L2115.05 290.696 L2115.05 294.006 L2105.23 294.006 L2105.23 251.737 Z" fill="#000000" fill-rule="evenodd" fill-opacity="1" /><path clip-path="url(#clip430)" d="M2128.75 283.821 L2145.07 283.821 L2145.07 287.756 L2123.12 287.756 L2123.12 283.821 Q2125.79 281.066 2130.37 276.436 Q2134.98 271.784 2136.16 270.441 Q2138.4 267.918 2139.28 266.182 Q2140.18 264.423 2140.18 262.733 Q2140.18 259.978 2138.24 258.242 Q2136.32 256.506 2133.22 256.506 Q2131.02 256.506 2128.56 257.27 Q2126.13 258.034 2123.36 259.585 L2123.36 254.862 Q2126.18 253.728 2128.63 253.149 Q2131.09 252.571 2133.12 252.571 Q2138.49 252.571 2141.69 255.256 Q2144.88 257.941 2144.88 262.432 Q2144.88 264.561 2144.07 266.483 Q2143.29 268.381 2141.18 270.973 Q2140.6 271.645 2137.5 274.862 Q2134.4 278.057 2128.75 283.821 Z" fill="#000000" fill-rule="evenodd" fill-opacity="1" /><path clip-path="url(#clip430)" d="M2164.24 251.737 L2164.24 294.006 L2154.42 294.006 L2154.42 290.696 L2159.95 290.696 L2159.95 255.048 L2154.42 255.048 L2154.42 251.737 L2164.24 251.737 Z" fill="#000000" fill-rule="evenodd" fill-opacity="1" /><path clip-path="url(#clip430)" d="M2183.01 251.784 Q2179.91 257.108 2178.4 262.316 Q2176.9 267.524 2176.9 272.872 Q2176.9 278.219 2178.4 283.473 Q2179.93 288.705 2183.01 294.006 L2179.3 294.006 Q2175.83 288.566 2174.1 283.311 Q2172.38 278.057 2172.38 272.872 Q2172.38 267.71 2174.1 262.478 Q2175.81 257.247 2179.3 251.784 L2183.01 251.784 Z" fill="#000000" fill-rule="evenodd" fill-opacity="1" /><path clip-path="url(#clip430)" d="M2195.49 254.469 L2195.49 261.83 L2204.26 261.83 L2204.26 265.14 L2195.49 265.14 L2195.49 279.214 Q2195.49 282.385 2196.34 283.288 Q2197.22 284.191 2199.88 284.191 L2204.26 284.191 L2204.26 287.756 L2199.88 287.756 Q2194.95 287.756 2193.08 285.927 Q2191.2 284.075 2191.2 279.214 L2191.2 265.14 L2188.08 265.14 L2188.08 261.83 L2191.2 261.83 L2191.2 254.469 L2195.49 254.469 Z" fill="#000000" fill-rule="evenodd" fill-opacity="1" /><path clip-path="url(#clip430)" d="M2209.19 251.784 L2212.89 251.784 Q2216.36 257.247 2218.08 262.478 Q2219.81 267.71 2219.81 272.872 Q2219.81 278.057 2218.08 283.311 Q2216.36 288.566 2212.89 294.006 L2209.19 294.006 Q2212.27 288.705 2213.77 283.473 Q2215.3 278.219 2215.3 272.872 Q2215.3 267.524 2213.77 262.316 Q2212.27 257.108 2209.19 251.784 Z" fill="#000000" fill-rule="evenodd" fill-opacity="1" /><path clip-path="url(#clip430)" d="M2227.68 251.784 L2231.39 251.784 Q2234.86 257.247 2236.57 262.478 Q2238.31 267.71 2238.31 272.872 Q2238.31 278.057 2236.57 283.311 Q2234.86 288.566 2231.39 294.006 L2227.68 294.006 Q2230.76 288.705 2232.27 283.473 Q2233.8 278.219 2233.8 272.872 Q2233.8 267.524 2232.27 262.316 Q2230.76 257.108 2227.68 251.784 Z" fill="#000000" fill-rule="evenodd" fill-opacity="1" /></svg>
