<?xml version="1.0" encoding="utf-8"?>
<svg xmlns="http://www.w3.org/2000/svg" xmlns:xlink="http://www.w3.org/1999/xlink" width="600" height="400" viewBox="0 0 2400 1600">
<defs>
  <clipPath id="clip780">
    <rect x="0" y="0" width="2400" height="1600"/>
  </clipPath>
</defs>
<path clip-path="url(#clip780)" d="
M0 1600 L2400 1600 L2400 0 L0 0  Z
  " fill="#ffffff" fill-rule="evenodd" fill-opacity="1"/>
<defs>
  <clipPath id="clip781">
    <rect x="480" y="0" width="1681" height="1600"/>
  </clipPath>
</defs>
<path clip-path="url(#clip780)" d="
M292.713 1423.18 L2352.76 1423.18 L2352.76 123.472 L292.713 123.472  Z
  " fill="#ffffff" fill-rule="evenodd" fill-opacity="1"/>
<defs>
  <clipPath id="clip782">
    <rect x="292" y="123" width="2061" height="1301"/>
  </clipPath>
</defs>
<polyline clip-path="url(#clip782)" style="stroke:#000000; stroke-linecap:butt; stroke-linejoin:round; stroke-width:2; stroke-opacity:0.1; fill:none" points="
  292.713,1423.18 292.713,123.472 
  "/>
<polyline clip-path="url(#clip782)" style="stroke:#000000; stroke-linecap:butt; stroke-linejoin:round; stroke-width:2; stroke-opacity:0.1; fill:none" points="
  807.724,1423.18 807.724,123.472 
  "/>
<polyline clip-path="url(#clip782)" style="stroke:#000000; stroke-linecap:butt; stroke-linejoin:round; stroke-width:2; stroke-opacity:0.1; fill:none" points="
  1322.73,1423.18 1322.73,123.472 
  "/>
<polyline clip-path="url(#clip782)" style="stroke:#000000; stroke-linecap:butt; stroke-linejoin:round; stroke-width:2; stroke-opacity:0.1; fill:none" points="
  1837.75,1423.18 1837.75,123.472 
  "/>
<polyline clip-path="url(#clip782)" style="stroke:#000000; stroke-linecap:butt; stroke-linejoin:round; stroke-width:2; stroke-opacity:0.1; fill:none" points="
  2352.76,1423.18 2352.76,123.472 
  "/>
<polyline clip-path="url(#clip780)" style="stroke:#000000; stroke-linecap:butt; stroke-linejoin:round; stroke-width:4; stroke-opacity:1; fill:none" points="
  292.713,1423.18 2352.76,1423.18 
  "/>
<polyline clip-path="url(#clip780)" style="stroke:#000000; stroke-linecap:butt; stroke-linejoin:round; stroke-width:4; stroke-opacity:1; fill:none" points="
  292.713,1423.18 292.713,1404.28 
  "/>
<polyline clip-path="url(#clip780)" style="stroke:#000000; stroke-linecap:butt; stroke-linejoin:round; stroke-width:4; stroke-opacity:1; fill:none" points="
  807.724,1423.18 807.724,1404.28 
  "/>
<polyline clip-path="url(#clip780)" style="stroke:#000000; stroke-linecap:butt; stroke-linejoin:round; stroke-width:4; stroke-opacity:1; fill:none" points="
  1322.73,1423.18 1322.73,1404.28 
  "/>
<polyline clip-path="url(#clip780)" style="stroke:#000000; stroke-linecap:butt; stroke-linejoin:round; stroke-width:4; stroke-opacity:1; fill:none" points="
  1837.75,1423.18 1837.75,1404.28 
  "/>
<polyline clip-path="url(#clip780)" style="stroke:#000000; stroke-linecap:butt; stroke-linejoin:round; stroke-width:4; stroke-opacity:1; fill:none" points="
  2352.76,1423.18 2352.76,1404.28 
  "/>
<path clip-path="url(#clip780)" d="M292.713 1452.37 Q289.102 1452.37 287.273 1455.94 Q285.468 1459.48 285.468 1466.61 Q285.468 1473.71 287.273 1477.28 Q289.102 1480.82 292.713 1480.82 Q296.347 1480.82 298.153 1477.28 Q299.982 1473.71 299.982 1466.61 Q299.982 1459.48 298.153 1455.94 Q296.347 1452.37 292.713 1452.37 M292.713 1448.67 Q298.523 1448.67 301.579 1453.27 Q304.657 1457.86 304.657 1466.61 Q304.657 1475.33 301.579 1479.94 Q298.523 1484.52 292.713 1484.52 Q286.903 1484.52 283.824 1479.94 Q280.769 1475.33 280.769 1466.61 Q280.769 1457.86 283.824 1453.27 Q286.903 1448.67 292.713 1448.67 Z" fill="#000000" fill-rule="evenodd" fill-opacity="1" /><path clip-path="url(#clip780)" d="M767.33 1479.92 L774.969 1479.92 L774.969 1453.55 L766.659 1455.22 L766.659 1450.96 L774.923 1449.29 L779.599 1449.29 L779.599 1479.92 L787.238 1479.92 L787.238 1483.85 L767.33 1483.85 L767.33 1479.92 Z" fill="#000000" fill-rule="evenodd" fill-opacity="1" /><path clip-path="url(#clip780)" d="M806.682 1452.37 Q803.071 1452.37 801.242 1455.94 Q799.437 1459.48 799.437 1466.61 Q799.437 1473.71 801.242 1477.28 Q803.071 1480.82 806.682 1480.82 Q810.316 1480.82 812.122 1477.28 Q813.951 1473.71 813.951 1466.61 Q813.951 1459.48 812.122 1455.94 Q810.316 1452.37 806.682 1452.37 M806.682 1448.67 Q812.492 1448.67 815.548 1453.27 Q818.627 1457.86 818.627 1466.61 Q818.627 1475.33 815.548 1479.94 Q812.492 1484.52 806.682 1484.52 Q800.872 1484.52 797.793 1479.94 Q794.738 1475.33 794.738 1466.61 Q794.738 1457.86 797.793 1453.27 Q800.872 1448.67 806.682 1448.67 Z" fill="#000000" fill-rule="evenodd" fill-opacity="1" /><path clip-path="url(#clip780)" d="M836.844 1452.37 Q833.233 1452.37 831.404 1455.94 Q829.599 1459.48 829.599 1466.61 Q829.599 1473.71 831.404 1477.28 Q833.233 1480.82 836.844 1480.82 Q840.478 1480.82 842.284 1477.28 Q844.112 1473.71 844.112 1466.61 Q844.112 1459.48 842.284 1455.94 Q840.478 1452.37 836.844 1452.37 M836.844 1448.67 Q842.654 1448.67 845.71 1453.27 Q848.788 1457.86 848.788 1466.61 Q848.788 1475.33 845.71 1479.94 Q842.654 1484.52 836.844 1484.52 Q831.034 1484.52 827.955 1479.94 Q824.9 1475.33 824.9 1466.61 Q824.9 1457.86 827.955 1453.27 Q831.034 1448.67 836.844 1448.67 Z" fill="#000000" fill-rule="evenodd" fill-opacity="1" /><path clip-path="url(#clip780)" d="M1286.43 1479.92 L1302.75 1479.92 L1302.75 1483.85 L1280.8 1483.85 L1280.8 1479.92 Q1283.46 1477.16 1288.05 1472.53 Q1292.65 1467.88 1293.83 1466.54 Q1296.08 1464.01 1296.96 1462.28 Q1297.86 1460.52 1297.86 1458.83 Q1297.86 1456.07 1295.92 1454.34 Q1294 1452.6 1290.89 1452.6 Q1288.7 1452.6 1286.24 1453.37 Q1283.81 1454.13 1281.03 1455.68 L1281.03 1450.96 Q1283.86 1449.82 1286.31 1449.25 Q1288.76 1448.67 1290.8 1448.67 Q1296.17 1448.67 1299.37 1451.35 Q1302.56 1454.04 1302.56 1458.53 Q1302.56 1460.66 1301.75 1462.58 Q1300.96 1464.48 1298.86 1467.07 Q1298.28 1467.74 1295.18 1470.96 Q1292.07 1474.15 1286.43 1479.92 Z" fill="#000000" fill-rule="evenodd" fill-opacity="1" /><path clip-path="url(#clip780)" d="M1322.56 1452.37 Q1318.95 1452.37 1317.12 1455.94 Q1315.32 1459.48 1315.32 1466.61 Q1315.32 1473.71 1317.12 1477.28 Q1318.95 1480.82 1322.56 1480.82 Q1326.2 1480.82 1328 1477.28 Q1329.83 1473.71 1329.83 1466.61 Q1329.83 1459.48 1328 1455.94 Q1326.2 1452.37 1322.56 1452.37 M1322.56 1448.67 Q1328.37 1448.67 1331.43 1453.27 Q1334.51 1457.86 1334.51 1466.61 Q1334.51 1475.33 1331.43 1479.94 Q1328.37 1484.52 1322.56 1484.52 Q1316.75 1484.52 1313.67 1479.94 Q1310.62 1475.33 1310.62 1466.61 Q1310.62 1457.86 1313.67 1453.27 Q1316.75 1448.67 1322.56 1448.67 Z" fill="#000000" fill-rule="evenodd" fill-opacity="1" /><path clip-path="url(#clip780)" d="M1352.72 1452.37 Q1349.11 1452.37 1347.28 1455.94 Q1345.48 1459.48 1345.48 1466.61 Q1345.48 1473.71 1347.28 1477.28 Q1349.11 1480.82 1352.72 1480.82 Q1356.36 1480.82 1358.16 1477.28 Q1359.99 1473.71 1359.99 1466.61 Q1359.99 1459.48 1358.16 1455.94 Q1356.36 1452.37 1352.72 1452.37 M1352.72 1448.67 Q1358.53 1448.67 1361.59 1453.27 Q1364.67 1457.86 1364.67 1466.61 Q1364.67 1475.33 1361.59 1479.94 Q1358.53 1484.52 1352.72 1484.52 Q1346.91 1484.52 1343.83 1479.94 Q1340.78 1475.33 1340.78 1466.61 Q1340.78 1457.86 1343.83 1453.27 Q1346.91 1448.67 1352.72 1448.67 Z" fill="#000000" fill-rule="evenodd" fill-opacity="1" /><path clip-path="url(#clip780)" d="M1811.51 1465.22 Q1814.86 1465.94 1816.74 1468.2 Q1818.64 1470.47 1818.64 1473.81 Q1818.64 1478.92 1815.12 1481.72 Q1811.6 1484.52 1805.12 1484.52 Q1802.94 1484.52 1800.63 1484.08 Q1798.34 1483.67 1795.88 1482.81 L1795.88 1478.3 Q1797.83 1479.43 1800.14 1480.01 Q1802.46 1480.59 1804.98 1480.59 Q1809.38 1480.59 1811.67 1478.85 Q1813.98 1477.12 1813.98 1473.81 Q1813.98 1470.75 1811.83 1469.04 Q1809.7 1467.3 1805.88 1467.3 L1801.85 1467.3 L1801.85 1463.46 L1806.07 1463.46 Q1809.52 1463.46 1811.34 1462.09 Q1813.17 1460.7 1813.17 1458.11 Q1813.17 1455.45 1811.28 1454.04 Q1809.4 1452.6 1805.88 1452.6 Q1803.96 1452.6 1801.76 1453.02 Q1799.56 1453.44 1796.92 1454.31 L1796.92 1450.15 Q1799.59 1449.41 1801.9 1449.04 Q1804.24 1448.67 1806.3 1448.67 Q1811.62 1448.67 1814.72 1451.1 Q1817.83 1453.5 1817.83 1457.63 Q1817.83 1460.5 1816.18 1462.49 Q1814.54 1464.45 1811.51 1465.22 Z" fill="#000000" fill-rule="evenodd" fill-opacity="1" /><path clip-path="url(#clip780)" d="M1837.5 1452.37 Q1833.89 1452.37 1832.06 1455.94 Q1830.26 1459.48 1830.26 1466.61 Q1830.26 1473.71 1832.06 1477.28 Q1833.89 1480.82 1837.5 1480.82 Q1841.14 1480.82 1842.94 1477.28 Q1844.77 1473.71 1844.77 1466.61 Q1844.77 1459.48 1842.94 1455.94 Q1841.14 1452.37 1837.5 1452.37 M1837.5 1448.67 Q1843.31 1448.67 1846.37 1453.27 Q1849.45 1457.86 1849.45 1466.61 Q1849.45 1475.33 1846.37 1479.94 Q1843.31 1484.52 1837.5 1484.52 Q1831.69 1484.52 1828.61 1479.94 Q1825.56 1475.33 1825.56 1466.61 Q1825.56 1457.86 1828.61 1453.27 Q1831.69 1448.67 1837.5 1448.67 Z" fill="#000000" fill-rule="evenodd" fill-opacity="1" /><path clip-path="url(#clip780)" d="M1867.66 1452.37 Q1864.05 1452.37 1862.22 1455.94 Q1860.42 1459.48 1860.42 1466.61 Q1860.42 1473.71 1862.22 1477.28 Q1864.05 1480.82 1867.66 1480.82 Q1871.3 1480.82 1873.1 1477.28 Q1874.93 1473.71 1874.93 1466.61 Q1874.93 1459.48 1873.1 1455.94 Q1871.3 1452.37 1867.66 1452.37 M1867.66 1448.67 Q1873.47 1448.67 1876.53 1453.27 Q1879.61 1457.86 1879.61 1466.61 Q1879.61 1475.33 1876.53 1479.94 Q1873.47 1484.52 1867.66 1484.52 Q1861.85 1484.52 1858.78 1479.94 Q1855.72 1475.33 1855.72 1466.61 Q1855.72 1457.86 1858.78 1453.27 Q1861.85 1448.67 1867.66 1448.67 Z" fill="#000000" fill-rule="evenodd" fill-opacity="1" /><path clip-path="url(#clip780)" d="M2325.85 1453.37 L2314.04 1471.81 L2325.85 1471.81 L2325.85 1453.37 M2324.62 1449.29 L2330.5 1449.29 L2330.5 1471.81 L2335.43 1471.81 L2335.43 1475.7 L2330.5 1475.7 L2330.5 1483.85 L2325.85 1483.85 L2325.85 1475.7 L2310.24 1475.7 L2310.24 1471.19 L2324.62 1449.29 Z" fill="#000000" fill-rule="evenodd" fill-opacity="1" /><path clip-path="url(#clip780)" d="M2353.16 1452.37 Q2349.55 1452.37 2347.72 1455.94 Q2345.92 1459.48 2345.92 1466.61 Q2345.92 1473.71 2347.72 1477.28 Q2349.55 1480.82 2353.16 1480.82 Q2356.8 1480.82 2358.6 1477.28 Q2360.43 1473.71 2360.43 1466.61 Q2360.43 1459.48 2358.6 1455.94 Q2356.8 1452.37 2353.16 1452.37 M2353.16 1448.67 Q2358.97 1448.67 2362.03 1453.27 Q2365.11 1457.86 2365.11 1466.61 Q2365.11 1475.33 2362.03 1479.94 Q2358.97 1484.52 2353.16 1484.52 Q2347.35 1484.52 2344.27 1479.94 Q2341.22 1475.33 2341.22 1466.61 Q2341.22 1457.86 2344.27 1453.27 Q2347.35 1448.67 2353.16 1448.67 Z" fill="#000000" fill-rule="evenodd" fill-opacity="1" /><path clip-path="url(#clip780)" d="M2383.32 1452.37 Q2379.71 1452.37 2377.88 1455.94 Q2376.08 1459.48 2376.08 1466.61 Q2376.08 1473.71 2377.88 1477.28 Q2379.71 1480.82 2383.32 1480.82 Q2386.96 1480.82 2388.76 1477.28 Q2390.59 1473.71 2390.59 1466.61 Q2390.59 1459.48 2388.76 1455.94 Q2386.96 1452.37 2383.32 1452.37 M2383.32 1448.67 Q2389.13 1448.67 2392.19 1453.27 Q2395.27 1457.86 2395.27 1466.61 Q2395.27 1475.33 2392.19 1479.94 Q2389.13 1484.52 2383.32 1484.52 Q2377.51 1484.52 2374.43 1479.94 Q2371.38 1475.33 2371.38 1466.61 Q2371.38 1457.86 2374.43 1453.27 Q2377.51 1448.67 2383.32 1448.67 Z" fill="#000000" fill-rule="evenodd" fill-opacity="1" /><path clip-path="url(#clip780)" d="M1321.8 1522.27 L1321.8 1532.4 L1333.86 1532.4 L1333.86 1536.95 L1321.8 1536.95 L1321.8 1556.3 Q1321.8 1560.66 1322.97 1561.9 Q1324.18 1563.14 1327.84 1563.14 L1333.86 1563.14 L1333.86 1568.04 L1327.84 1568.04 Q1321.06 1568.04 1318.49 1565.53 Q1315.91 1562.98 1315.91 1556.3 L1315.91 1536.95 L1311.61 1536.95 L1311.61 1532.4 L1315.91 1532.4 L1315.91 1522.27 L1321.8 1522.27 Z" fill="#000000" fill-rule="evenodd" fill-opacity="1" /><polyline clip-path="url(#clip782)" style="stroke:#000000; stroke-linecap:butt; stroke-linejoin:round; stroke-width:2; stroke-opacity:0.1; fill:none" points="
  292.713,1386.41 2352.76,1386.41 
  "/>
<polyline clip-path="url(#clip782)" style="stroke:#000000; stroke-linecap:butt; stroke-linejoin:round; stroke-width:2; stroke-opacity:0.1; fill:none" points="
  292.713,1124.94 2352.76,1124.94 
  "/>
<polyline clip-path="url(#clip782)" style="stroke:#000000; stroke-linecap:butt; stroke-linejoin:round; stroke-width:2; stroke-opacity:0.1; fill:none" points="
  292.713,863.475 2352.76,863.475 
  "/>
<polyline clip-path="url(#clip782)" style="stroke:#000000; stroke-linecap:butt; stroke-linejoin:round; stroke-width:2; stroke-opacity:0.1; fill:none" points="
  292.713,602.009 2352.76,602.009 
  "/>
<polyline clip-path="url(#clip782)" style="stroke:#000000; stroke-linecap:butt; stroke-linejoin:round; stroke-width:2; stroke-opacity:0.1; fill:none" points="
  292.713,340.543 2352.76,340.543 
  "/>
<polyline clip-path="url(#clip780)" style="stroke:#000000; stroke-linecap:butt; stroke-linejoin:round; stroke-width:4; stroke-opacity:1; fill:none" points="
  292.713,1423.18 292.713,123.472 
  "/>
<polyline clip-path="url(#clip780)" style="stroke:#000000; stroke-linecap:butt; stroke-linejoin:round; stroke-width:4; stroke-opacity:1; fill:none" points="
  292.713,1386.41 311.611,1386.41 
  "/>
<polyline clip-path="url(#clip780)" style="stroke:#000000; stroke-linecap:butt; stroke-linejoin:round; stroke-width:4; stroke-opacity:1; fill:none" points="
  292.713,1124.94 311.611,1124.94 
  "/>
<polyline clip-path="url(#clip780)" style="stroke:#000000; stroke-linecap:butt; stroke-linejoin:round; stroke-width:4; stroke-opacity:1; fill:none" points="
  292.713,863.475 311.611,863.475 
  "/>
<polyline clip-path="url(#clip780)" style="stroke:#000000; stroke-linecap:butt; stroke-linejoin:round; stroke-width:4; stroke-opacity:1; fill:none" points="
  292.713,602.009 311.611,602.009 
  "/>
<polyline clip-path="url(#clip780)" style="stroke:#000000; stroke-linecap:butt; stroke-linejoin:round; stroke-width:4; stroke-opacity:1; fill:none" points="
  292.713,340.543 311.611,340.543 
  "/>
<path clip-path="url(#clip780)" d="M244.769 1372.2 Q241.158 1372.2 239.329 1375.77 Q237.523 1379.31 237.523 1386.44 Q237.523 1393.55 239.329 1397.11 Q241.158 1400.65 244.769 1400.65 Q248.403 1400.65 250.209 1397.11 Q252.037 1393.55 252.037 1386.44 Q252.037 1379.31 250.209 1375.77 Q248.403 1372.2 244.769 1372.2 M244.769 1368.5 Q250.579 1368.5 253.634 1373.11 Q256.713 1377.69 256.713 1386.44 Q256.713 1395.17 253.634 1399.77 Q250.579 1404.36 244.769 1404.36 Q238.959 1404.36 235.88 1399.77 Q232.824 1395.17 232.824 1386.44 Q232.824 1377.69 235.88 1373.11 Q238.959 1368.5 244.769 1368.5 Z" fill="#000000" fill-rule="evenodd" fill-opacity="1" /><path clip-path="url(#clip780)" d="M148.311 1138.29 L164.63 1138.29 L164.63 1142.22 L142.686 1142.22 L142.686 1138.29 Q145.348 1135.53 149.931 1130.9 Q154.538 1126.25 155.718 1124.91 Q157.964 1122.38 158.843 1120.65 Q159.746 1118.89 159.746 1117.2 Q159.746 1114.44 157.802 1112.71 Q155.88 1110.97 152.778 1110.97 Q150.579 1110.97 148.126 1111.73 Q145.695 1112.5 142.917 1114.05 L142.917 1109.33 Q145.741 1108.19 148.195 1107.61 Q150.649 1107.04 152.686 1107.04 Q158.056 1107.04 161.251 1109.72 Q164.445 1112.41 164.445 1116.9 Q164.445 1119.03 163.635 1120.95 Q162.848 1122.85 160.741 1125.44 Q160.163 1126.11 157.061 1129.33 Q153.959 1132.52 148.311 1138.29 Z" fill="#000000" fill-rule="evenodd" fill-opacity="1" /><path clip-path="url(#clip780)" d="M174.491 1107.66 L192.848 1107.66 L192.848 1111.6 L178.774 1111.6 L178.774 1120.07 Q179.792 1119.72 180.811 1119.56 Q181.829 1119.37 182.848 1119.37 Q188.635 1119.37 192.014 1122.54 Q195.394 1125.72 195.394 1131.13 Q195.394 1136.71 191.922 1139.81 Q188.45 1142.89 182.13 1142.89 Q179.954 1142.89 177.686 1142.52 Q175.44 1142.15 173.033 1141.41 L173.033 1136.71 Q175.116 1137.85 177.339 1138.4 Q179.561 1138.96 182.038 1138.96 Q186.042 1138.96 188.38 1136.85 Q190.718 1134.74 190.718 1131.13 Q190.718 1127.52 188.38 1125.41 Q186.042 1123.31 182.038 1123.31 Q180.163 1123.31 178.288 1123.73 Q176.436 1124.14 174.491 1125.02 L174.491 1107.66 Z" fill="#000000" fill-rule="evenodd" fill-opacity="1" /><path clip-path="url(#clip780)" d="M214.607 1110.74 Q210.996 1110.74 209.167 1114.3 Q207.362 1117.85 207.362 1124.98 Q207.362 1132.08 209.167 1135.65 Q210.996 1139.19 214.607 1139.19 Q218.241 1139.19 220.047 1135.65 Q221.875 1132.08 221.875 1124.98 Q221.875 1117.85 220.047 1114.3 Q218.241 1110.74 214.607 1110.74 M214.607 1107.04 Q220.417 1107.04 223.473 1111.64 Q226.551 1116.23 226.551 1124.98 Q226.551 1133.7 223.473 1138.31 Q220.417 1142.89 214.607 1142.89 Q208.797 1142.89 205.718 1138.31 Q202.662 1133.7 202.662 1124.98 Q202.662 1116.23 205.718 1111.64 Q208.797 1107.04 214.607 1107.04 Z" fill="#000000" fill-rule="evenodd" fill-opacity="1" /><path clip-path="url(#clip780)" d="M244.769 1110.74 Q241.158 1110.74 239.329 1114.3 Q237.523 1117.85 237.523 1124.98 Q237.523 1132.08 239.329 1135.65 Q241.158 1139.19 244.769 1139.19 Q248.403 1139.19 250.209 1135.65 Q252.037 1132.08 252.037 1124.98 Q252.037 1117.85 250.209 1114.3 Q248.403 1110.74 244.769 1110.74 M244.769 1107.04 Q250.579 1107.04 253.634 1111.64 Q256.713 1116.23 256.713 1124.98 Q256.713 1133.7 253.634 1138.31 Q250.579 1142.89 244.769 1142.89 Q238.959 1142.89 235.88 1138.31 Q232.824 1133.7 232.824 1124.98 Q232.824 1116.23 235.88 1111.64 Q238.959 1107.04 244.769 1107.04 Z" fill="#000000" fill-rule="evenodd" fill-opacity="1" /><path clip-path="url(#clip780)" d="M144.329 846.195 L162.686 846.195 L162.686 850.13 L148.612 850.13 L148.612 858.602 Q149.63 858.255 150.649 858.093 Q151.667 857.907 152.686 857.907 Q158.473 857.907 161.852 861.079 Q165.232 864.25 165.232 869.667 Q165.232 875.245 161.76 878.347 Q158.288 881.426 151.968 881.426 Q149.792 881.426 147.524 881.055 Q145.279 880.685 142.871 879.944 L142.871 875.245 Q144.954 876.38 147.177 876.935 Q149.399 877.491 151.876 877.491 Q155.88 877.491 158.218 875.384 Q160.556 873.278 160.556 869.667 Q160.556 866.056 158.218 863.949 Q155.88 861.843 151.876 861.843 Q150.001 861.843 148.126 862.259 Q146.274 862.676 144.329 863.556 L144.329 846.195 Z" fill="#000000" fill-rule="evenodd" fill-opacity="1" /><path clip-path="url(#clip780)" d="M184.445 849.273 Q180.834 849.273 179.005 852.838 Q177.2 856.38 177.2 863.509 Q177.2 870.616 179.005 874.18 Q180.834 877.722 184.445 877.722 Q188.079 877.722 189.885 874.18 Q191.713 870.616 191.713 863.509 Q191.713 856.38 189.885 852.838 Q188.079 849.273 184.445 849.273 M184.445 845.57 Q190.255 845.57 193.311 850.176 Q196.389 854.759 196.389 863.509 Q196.389 872.236 193.311 876.842 Q190.255 881.426 184.445 881.426 Q178.635 881.426 175.556 876.842 Q172.501 872.236 172.501 863.509 Q172.501 854.759 175.556 850.176 Q178.635 845.57 184.445 845.57 Z" fill="#000000" fill-rule="evenodd" fill-opacity="1" /><path clip-path="url(#clip780)" d="M214.607 849.273 Q210.996 849.273 209.167 852.838 Q207.362 856.38 207.362 863.509 Q207.362 870.616 209.167 874.18 Q210.996 877.722 214.607 877.722 Q218.241 877.722 220.047 874.18 Q221.875 870.616 221.875 863.509 Q221.875 856.38 220.047 852.838 Q218.241 849.273 214.607 849.273 M214.607 845.57 Q220.417 845.57 223.473 850.176 Q226.551 854.759 226.551 863.509 Q226.551 872.236 223.473 876.842 Q220.417 881.426 214.607 881.426 Q208.797 881.426 205.718 876.842 Q202.662 872.236 202.662 863.509 Q202.662 854.759 205.718 850.176 Q208.797 845.57 214.607 845.57 Z" fill="#000000" fill-rule="evenodd" fill-opacity="1" /><path clip-path="url(#clip780)" d="M244.769 849.273 Q241.158 849.273 239.329 852.838 Q237.523 856.38 237.523 863.509 Q237.523 870.616 239.329 874.18 Q241.158 877.722 244.769 877.722 Q248.403 877.722 250.209 874.18 Q252.037 870.616 252.037 863.509 Q252.037 856.38 250.209 852.838 Q248.403 849.273 244.769 849.273 M244.769 845.57 Q250.579 845.57 253.634 850.176 Q256.713 854.759 256.713 863.509 Q256.713 872.236 253.634 876.842 Q250.579 881.426 244.769 881.426 Q238.959 881.426 235.88 876.842 Q232.824 872.236 232.824 863.509 Q232.824 854.759 235.88 850.176 Q238.959 845.57 244.769 845.57 Z" fill="#000000" fill-rule="evenodd" fill-opacity="1" /><path clip-path="url(#clip780)" d="M143.103 584.729 L165.325 584.729 L165.325 586.719 L152.778 619.289 L147.894 619.289 L159.7 588.664 L143.103 588.664 L143.103 584.729 Z" fill="#000000" fill-rule="evenodd" fill-opacity="1" /><path clip-path="url(#clip780)" d="M174.491 584.729 L192.848 584.729 L192.848 588.664 L178.774 588.664 L178.774 597.136 Q179.792 596.789 180.811 596.627 Q181.829 596.442 182.848 596.442 Q188.635 596.442 192.014 599.613 Q195.394 602.784 195.394 608.201 Q195.394 613.779 191.922 616.881 Q188.45 619.96 182.13 619.96 Q179.954 619.96 177.686 619.59 Q175.44 619.219 173.033 618.479 L173.033 613.779 Q175.116 614.914 177.339 615.469 Q179.561 616.025 182.038 616.025 Q186.042 616.025 188.38 613.918 Q190.718 611.812 190.718 608.201 Q190.718 604.59 188.38 602.483 Q186.042 600.377 182.038 600.377 Q180.163 600.377 178.288 600.793 Q176.436 601.21 174.491 602.09 L174.491 584.729 Z" fill="#000000" fill-rule="evenodd" fill-opacity="1" /><path clip-path="url(#clip780)" d="M214.607 587.807 Q210.996 587.807 209.167 591.372 Q207.362 594.914 207.362 602.043 Q207.362 609.15 209.167 612.715 Q210.996 616.256 214.607 616.256 Q218.241 616.256 220.047 612.715 Q221.875 609.15 221.875 602.043 Q221.875 594.914 220.047 591.372 Q218.241 587.807 214.607 587.807 M214.607 584.104 Q220.417 584.104 223.473 588.71 Q226.551 593.293 226.551 602.043 Q226.551 610.77 223.473 615.377 Q220.417 619.96 214.607 619.96 Q208.797 619.96 205.718 615.377 Q202.662 610.77 202.662 602.043 Q202.662 593.293 205.718 588.71 Q208.797 584.104 214.607 584.104 Z" fill="#000000" fill-rule="evenodd" fill-opacity="1" /><path clip-path="url(#clip780)" d="M244.769 587.807 Q241.158 587.807 239.329 591.372 Q237.523 594.914 237.523 602.043 Q237.523 609.15 239.329 612.715 Q241.158 616.256 244.769 616.256 Q248.403 616.256 250.209 612.715 Q252.037 609.15 252.037 602.043 Q252.037 594.914 250.209 591.372 Q248.403 587.807 244.769 587.807 M244.769 584.104 Q250.579 584.104 253.634 588.71 Q256.713 593.293 256.713 602.043 Q256.713 610.77 253.634 615.377 Q250.579 619.96 244.769 619.96 Q238.959 619.96 235.88 615.377 Q232.824 610.77 232.824 602.043 Q232.824 593.293 235.88 588.71 Q238.959 584.104 244.769 584.104 Z" fill="#000000" fill-rule="evenodd" fill-opacity="1" /><path clip-path="url(#clip780)" d="M114.931 353.888 L122.57 353.888 L122.57 327.522 L114.26 329.189 L114.26 324.93 L122.524 323.263 L127.2 323.263 L127.2 353.888 L134.839 353.888 L134.839 357.823 L114.931 357.823 L114.931 353.888 Z" fill="#000000" fill-rule="evenodd" fill-opacity="1" /><path clip-path="url(#clip780)" d="M154.283 326.342 Q150.672 326.342 148.843 329.906 Q147.038 333.448 147.038 340.578 Q147.038 347.684 148.843 351.249 Q150.672 354.791 154.283 354.791 Q157.917 354.791 159.723 351.249 Q161.552 347.684 161.552 340.578 Q161.552 333.448 159.723 329.906 Q157.917 326.342 154.283 326.342 M154.283 322.638 Q160.093 322.638 163.149 327.244 Q166.227 331.828 166.227 340.578 Q166.227 349.304 163.149 353.911 Q160.093 358.494 154.283 358.494 Q148.473 358.494 145.394 353.911 Q142.339 349.304 142.339 340.578 Q142.339 331.828 145.394 327.244 Q148.473 322.638 154.283 322.638 Z" fill="#000000" fill-rule="evenodd" fill-opacity="1" /><path clip-path="url(#clip780)" d="M184.445 326.342 Q180.834 326.342 179.005 329.906 Q177.2 333.448 177.2 340.578 Q177.2 347.684 179.005 351.249 Q180.834 354.791 184.445 354.791 Q188.079 354.791 189.885 351.249 Q191.713 347.684 191.713 340.578 Q191.713 333.448 189.885 329.906 Q188.079 326.342 184.445 326.342 M184.445 322.638 Q190.255 322.638 193.311 327.244 Q196.389 331.828 196.389 340.578 Q196.389 349.304 193.311 353.911 Q190.255 358.494 184.445 358.494 Q178.635 358.494 175.556 353.911 Q172.501 349.304 172.501 340.578 Q172.501 331.828 175.556 327.244 Q178.635 322.638 184.445 322.638 Z" fill="#000000" fill-rule="evenodd" fill-opacity="1" /><path clip-path="url(#clip780)" d="M214.607 326.342 Q210.996 326.342 209.167 329.906 Q207.362 333.448 207.362 340.578 Q207.362 347.684 209.167 351.249 Q210.996 354.791 214.607 354.791 Q218.241 354.791 220.047 351.249 Q221.875 347.684 221.875 340.578 Q221.875 333.448 220.047 329.906 Q218.241 326.342 214.607 326.342 M214.607 322.638 Q220.417 322.638 223.473 327.244 Q226.551 331.828 226.551 340.578 Q226.551 349.304 223.473 353.911 Q220.417 358.494 214.607 358.494 Q208.797 358.494 205.718 353.911 Q202.662 349.304 202.662 340.578 Q202.662 331.828 205.718 327.244 Q208.797 322.638 214.607 322.638 Z" fill="#000000" fill-rule="evenodd" fill-opacity="1" /><path clip-path="url(#clip780)" d="M244.769 326.342 Q241.158 326.342 239.329 329.906 Q237.523 333.448 237.523 340.578 Q237.523 347.684 239.329 351.249 Q241.158 354.791 244.769 354.791 Q248.403 354.791 250.209 351.249 Q252.037 347.684 252.037 340.578 Q252.037 333.448 250.209 329.906 Q248.403 326.342 244.769 326.342 M244.769 322.638 Q250.579 322.638 253.634 327.244 Q256.713 331.828 256.713 340.578 Q256.713 349.304 253.634 353.911 Q250.579 358.494 244.769 358.494 Q238.959 358.494 235.88 353.911 Q232.824 349.304 232.824 340.578 Q232.824 331.828 235.88 327.244 Q238.959 322.638 244.769 322.638 Z" fill="#000000" fill-rule="evenodd" fill-opacity="1" /><path clip-path="url(#clip780)" d="M58.657 873.22 L77.5631 873.22 L77.5631 879.108 L28.3562 879.108 L28.3562 873.22 L33.7671 873.22 Q30.5842 871.374 29.0564 868.573 Q27.4968 865.74 27.4968 861.825 Q27.4968 855.332 32.6531 851.29 Q37.8093 847.216 46.212 847.216 Q54.6147 847.216 59.771 851.29 Q64.9272 855.332 64.9272 861.825 Q64.9272 865.74 63.3994 868.573 Q61.8398 871.374 58.657 873.22 M46.212 853.295 Q39.7508 853.295 36.0905 855.969 Q32.3984 858.611 32.3984 863.258 Q32.3984 867.904 36.0905 870.578 Q39.7508 873.22 46.212 873.22 Q52.6732 873.22 56.3653 870.578 Q60.0256 867.904 60.0256 863.258 Q60.0256 858.611 56.3653 855.969 Q52.6732 853.295 46.212 853.295 Z" fill="#000000" fill-rule="evenodd" fill-opacity="1" /><path clip-path="url(#clip780)" d="M44.7161 807.016 L47.5806 807.016 L47.5806 833.943 Q53.6281 833.561 56.8109 830.315 Q59.9619 827.037 59.9619 821.212 Q59.9619 817.838 59.1344 814.687 Q58.3069 811.504 56.6518 808.385 L62.1899 808.385 Q63.5267 811.536 64.227 814.846 Q64.9272 818.156 64.9272 821.562 Q64.9272 830.092 59.9619 835.089 Q54.9967 840.055 46.5303 840.055 Q37.7774 840.055 32.6531 835.344 Q27.4968 830.601 27.4968 822.581 Q27.4968 815.387 32.1438 811.218 Q36.7589 807.016 44.7161 807.016 M42.9973 812.873 Q38.1912 812.937 35.3266 815.578 Q32.4621 818.188 32.4621 822.517 Q32.4621 827.419 35.2312 830.379 Q38.0002 833.307 43.0292 833.752 L42.9973 812.873 Z" fill="#000000" fill-rule="evenodd" fill-opacity="1" /><path clip-path="url(#clip780)" d="M32.4621 783.591 Q32.4621 788.301 36.1542 791.039 Q39.8145 793.776 46.212 793.776 Q52.6095 793.776 56.3017 791.07 Q59.9619 788.333 59.9619 783.591 Q59.9619 778.912 56.2698 776.175 Q52.5777 773.437 46.212 773.437 Q39.8781 773.437 36.186 776.175 Q32.4621 778.912 32.4621 783.591 M27.4968 783.591 Q27.4968 775.952 32.4621 771.591 Q37.4273 767.231 46.212 767.231 Q54.9649 767.231 59.9619 771.591 Q64.9272 775.952 64.9272 783.591 Q64.9272 791.261 59.9619 795.622 Q54.9649 799.951 46.212 799.951 Q37.4273 799.951 32.4621 795.622 Q27.4968 791.261 27.4968 783.591 Z" fill="#000000" fill-rule="evenodd" fill-opacity="1" /><path clip-path="url(#clip780)" d="M58.657 751.858 L77.5631 751.858 L77.5631 757.746 L28.3562 757.746 L28.3562 751.858 L33.7671 751.858 Q30.5842 750.012 29.0564 747.211 Q27.4968 744.378 27.4968 740.463 Q27.4968 733.97 32.6531 729.928 Q37.8093 725.854 46.212 725.854 Q54.6147 725.854 59.771 729.928 Q64.9272 733.97 64.9272 740.463 Q64.9272 744.378 63.3994 747.211 Q61.8398 750.012 58.657 751.858 M46.212 731.933 Q39.7508 731.933 36.0905 734.607 Q32.3984 737.248 32.3984 741.895 Q32.3984 746.542 36.0905 749.216 Q39.7508 751.858 46.212 751.858 Q52.6732 751.858 56.3653 749.216 Q60.0256 746.542 60.0256 741.895 Q60.0256 737.248 56.3653 734.607 Q52.6732 731.933 46.212 731.933 Z" fill="#000000" fill-rule="evenodd" fill-opacity="1" /><path clip-path="url(#clip780)" d="M14.479 716.146 L14.479 710.29 L64.0042 710.29 L64.0042 716.146 L14.479 716.146 Z" fill="#000000" fill-rule="evenodd" fill-opacity="1" /><path clip-path="url(#clip780)" d="M44.7161 667.544 L47.5806 667.544 L47.5806 694.471 Q53.6281 694.089 56.8109 690.842 Q59.9619 687.564 59.9619 681.739 Q59.9619 678.366 59.1344 675.215 Q58.3069 672.032 56.6518 668.912 L62.1899 668.912 Q63.5267 672.064 64.227 675.374 Q64.9272 678.684 64.9272 682.089 Q64.9272 690.62 59.9619 695.617 Q54.9967 700.582 46.5303 700.582 Q37.7774 700.582 32.6531 695.871 Q27.4968 691.129 27.4968 683.108 Q27.4968 675.915 32.1438 671.745 Q36.7589 667.544 44.7161 667.544 M42.9973 673.4 Q38.1912 673.464 35.3266 676.106 Q32.4621 678.716 32.4621 683.044 Q32.4621 687.946 35.2312 690.906 Q38.0002 693.834 43.0292 694.28 L42.9973 673.4 Z" fill="#000000" fill-rule="evenodd" fill-opacity="1" /><path clip-path="url(#clip780)" d="M1140.52 44.2197 Q1143.16 45.1109 1145.63 48.0275 Q1148.14 50.9442 1150.65 56.0483 L1158.96 72.576 L1150.17 72.576 L1142.43 57.061 Q1139.43 50.9847 1136.6 48.9997 Q1133.8 47.0148 1128.94 47.0148 L1120.03 47.0148 L1120.03 72.576 L1111.84 72.576 L1111.84 12.096 L1130.32 12.096 Q1140.69 12.096 1145.79 16.4305 Q1150.9 20.7649 1150.9 29.5149 Q1150.9 35.2267 1148.22 38.994 Q1145.59 42.7613 1140.52 44.2197 M1120.03 18.8205 L1120.03 40.2903 L1130.32 40.2903 Q1136.23 40.2903 1139.23 37.5762 Q1142.27 34.8216 1142.27 29.5149 Q1142.27 24.2082 1139.23 21.5346 Q1136.23 18.8205 1130.32 18.8205 L1120.03 18.8205 Z" fill="#000000" fill-rule="evenodd" fill-opacity="1" /><path clip-path="url(#clip780)" d="M1204.25 48.0275 L1204.25 51.6733 L1169.97 51.6733 Q1170.46 59.3701 1174.59 63.421 Q1178.77 67.4314 1186.18 67.4314 Q1190.47 67.4314 1194.48 66.3781 Q1198.53 65.3249 1202.5 63.2184 L1202.5 70.267 Q1198.49 71.9684 1194.28 72.8596 Q1190.07 73.7508 1185.73 73.7508 Q1174.88 73.7508 1168.52 67.4314 Q1162.2 61.1119 1162.2 50.3365 Q1162.2 39.1965 1168.19 32.6746 Q1174.23 26.1121 1184.44 26.1121 Q1193.59 26.1121 1198.9 32.0264 Q1204.25 37.9003 1204.25 48.0275 M1196.79 45.84 Q1196.71 39.7232 1193.35 36.0774 Q1190.03 32.4315 1184.52 32.4315 Q1178.28 32.4315 1174.51 35.9558 Q1170.79 39.4801 1170.22 45.8805 L1196.79 45.84 Z" fill="#000000" fill-rule="evenodd" fill-opacity="1" /><path clip-path="url(#clip780)" d="M1249.13 28.9478 L1249.13 35.9153 Q1245.97 34.1734 1242.77 33.3227 Q1239.61 32.4315 1236.37 32.4315 Q1229.12 32.4315 1225.11 37.0496 Q1221.1 41.6271 1221.1 49.9314 Q1221.1 58.2358 1225.11 62.8538 Q1229.12 67.4314 1236.37 67.4314 Q1239.61 67.4314 1242.77 66.5807 Q1245.97 65.6895 1249.13 63.9476 L1249.13 70.8341 Q1246.01 72.2924 1242.65 73.0216 Q1239.33 73.7508 1235.56 73.7508 Q1225.31 73.7508 1219.27 67.3098 Q1213.24 60.8689 1213.24 49.9314 Q1213.24 38.832 1219.31 32.472 Q1225.43 26.1121 1236.05 26.1121 Q1239.49 26.1121 1242.77 26.8413 Q1246.05 27.5299 1249.13 28.9478 Z" fill="#000000" fill-rule="evenodd" fill-opacity="1" /><path clip-path="url(#clip780)" d="M1279.67 32.4315 Q1273.68 32.4315 1270.19 37.1306 Q1266.71 41.7891 1266.71 49.9314 Q1266.71 58.0738 1270.15 62.7728 Q1273.64 67.4314 1279.67 67.4314 Q1285.63 67.4314 1289.11 62.7323 Q1292.6 58.0333 1292.6 49.9314 Q1292.6 41.8701 1289.11 37.1711 Q1285.63 32.4315 1279.67 32.4315 M1279.67 26.1121 Q1289.4 26.1121 1294.95 32.4315 Q1300.5 38.7509 1300.5 49.9314 Q1300.5 61.0714 1294.95 67.4314 Q1289.4 73.7508 1279.67 73.7508 Q1269.91 73.7508 1264.36 67.4314 Q1258.85 61.0714 1258.85 49.9314 Q1258.85 38.7509 1264.36 32.4315 Q1269.91 26.1121 1279.67 26.1121 Z" fill="#000000" fill-rule="evenodd" fill-opacity="1" /><path clip-path="url(#clip780)" d="M1307.5 27.2059 L1315.4 27.2059 L1329.58 65.2844 L1343.76 27.2059 L1351.66 27.2059 L1334.64 72.576 L1324.52 72.576 L1307.5 27.2059 Z" fill="#000000" fill-rule="evenodd" fill-opacity="1" /><path clip-path="url(#clip780)" d="M1400.75 48.0275 L1400.75 51.6733 L1366.48 51.6733 Q1366.97 59.3701 1371.1 63.421 Q1375.27 67.4314 1382.69 67.4314 Q1386.98 67.4314 1390.99 66.3781 Q1395.04 65.3249 1399.01 63.2184 L1399.01 70.267 Q1395 71.9684 1390.79 72.8596 Q1386.58 73.7508 1382.24 73.7508 Q1371.39 73.7508 1365.03 67.4314 Q1358.71 61.1119 1358.71 50.3365 Q1358.71 39.1965 1364.7 32.6746 Q1370.74 26.1121 1380.95 26.1121 Q1390.1 26.1121 1395.41 32.0264 Q1400.75 37.9003 1400.75 48.0275 M1393.3 45.84 Q1393.22 39.7232 1389.86 36.0774 Q1386.54 32.4315 1381.03 32.4315 Q1374.79 32.4315 1371.02 35.9558 Q1367.29 39.4801 1366.73 45.8805 L1393.3 45.84 Z" fill="#000000" fill-rule="evenodd" fill-opacity="1" /><path clip-path="url(#clip780)" d="M1439.28 34.1734 Q1438.02 33.4443 1436.52 33.1202 Q1435.07 32.7556 1433.28 32.7556 Q1426.96 32.7556 1423.56 36.8875 Q1420.2 40.9789 1420.2 48.6757 L1420.2 72.576 L1412.71 72.576 L1412.71 27.2059 L1420.2 27.2059 L1420.2 34.2544 Q1422.55 30.1225 1426.32 28.1376 Q1430.08 26.1121 1435.47 26.1121 Q1436.24 26.1121 1437.17 26.2337 Q1438.1 26.3147 1439.24 26.5172 L1439.28 34.1734 Z" fill="#000000" fill-rule="evenodd" fill-opacity="1" /><path clip-path="url(#clip780)" d="M1484.08 48.0275 L1484.08 51.6733 L1449.81 51.6733 Q1450.3 59.3701 1454.43 63.421 Q1458.6 67.4314 1466.01 67.4314 Q1470.31 67.4314 1474.32 66.3781 Q1478.37 65.3249 1482.34 63.2184 L1482.34 70.267 Q1478.33 71.9684 1474.12 72.8596 Q1469.9 73.7508 1465.57 73.7508 Q1454.71 73.7508 1448.35 67.4314 Q1442.03 61.1119 1442.03 50.3365 Q1442.03 39.1965 1448.03 32.6746 Q1454.06 26.1121 1464.27 26.1121 Q1473.43 26.1121 1478.73 32.0264 Q1484.08 37.9003 1484.08 48.0275 M1476.63 45.84 Q1476.55 39.7232 1473.19 36.0774 Q1469.86 32.4315 1464.35 32.4315 Q1458.12 32.4315 1454.35 35.9558 Q1450.62 39.4801 1450.05 45.8805 L1476.63 45.84 Z" fill="#000000" fill-rule="evenodd" fill-opacity="1" /><path clip-path="url(#clip780)" d="M1526.17 34.0924 L1526.17 9.54393 L1533.62 9.54393 L1533.62 72.576 L1526.17 72.576 L1526.17 65.7705 Q1523.82 69.8214 1520.22 71.8063 Q1516.65 73.7508 1511.63 73.7508 Q1503.4 73.7508 1498.22 67.1883 Q1493.08 60.6258 1493.08 49.9314 Q1493.08 39.2371 1498.22 32.6746 Q1503.4 26.1121 1511.63 26.1121 Q1516.65 26.1121 1520.22 28.0971 Q1523.82 30.0415 1526.17 34.0924 M1500.77 49.9314 Q1500.77 58.1548 1504.13 62.8538 Q1507.54 67.5124 1513.45 67.5124 Q1519.37 67.5124 1522.77 62.8538 Q1526.17 58.1548 1526.17 49.9314 Q1526.17 41.7081 1522.77 37.0496 Q1519.37 32.3505 1513.45 32.3505 Q1507.54 32.3505 1504.13 37.0496 Q1500.77 41.7081 1500.77 49.9314 Z" fill="#000000" fill-rule="evenodd" fill-opacity="1" /><polyline clip-path="url(#clip782)" style="stroke:#009af9; stroke-linecap:butt; stroke-linejoin:round; stroke-width:4; stroke-opacity:1; fill:none" points="
  292.713,1386.4 297.863,1386.37 303.013,1386.29 308.163,1386.15 313.314,1385.97 318.464,1385.72 323.614,1385.42 328.764,1385.06 333.914,1384.64 339.064,1384.17 
  344.214,1383.63 349.364,1383.02 354.514,1382.35 359.664,1381.6 364.815,1380.78 369.965,1379.89 375.115,1378.92 380.265,1377.86 385.415,1376.72 390.565,1375.5 
  395.715,1374.18 400.865,1372.77 406.015,1371.27 411.166,1369.66 416.316,1367.95 421.466,1366.14 426.616,1364.22 431.766,1362.19 436.916,1360.05 442.066,1357.8 
  447.216,1355.42 452.366,1352.91 457.517,1350.28 462.667,1347.5 467.817,1344.58 472.967,1341.5 478.117,1338.27 483.267,1334.89 488.417,1331.34 493.567,1327.62 
  498.717,1323.73 503.867,1319.65 509.018,1315.38 514.168,1310.93 519.318,1306.29 524.468,1301.48 529.618,1296.5 534.768,1291.37 539.918,1286.09 545.068,1280.68 
  550.218,1275.14 555.369,1269.5 560.519,1263.76 565.669,1257.94 570.819,1252.04 575.969,1246.09 581.119,1240.1 586.269,1234.07 591.419,1228.02 596.569,1221.96 
  601.72,1215.9 606.87,1209.84 612.02,1203.81 617.17,1197.8 622.32,1191.84 627.47,1185.92 632.62,1180.06 637.77,1174.26 642.92,1168.53 648.07,1162.89 
  653.221,1157.33 658.371,1151.87 663.521,1146.51 668.671,1141.26 673.821,1136.13 678.971,1131.12 684.121,1126.24 689.271,1121.49 694.421,1116.87 699.572,1112.39 
  704.722,1108.04 709.872,1103.83 715.022,1099.76 720.172,1095.83 725.322,1092.04 730.472,1088.39 735.622,1084.87 740.772,1081.5 745.923,1078.26 751.073,1075.15 
  756.223,1072.18 761.373,1069.35 766.523,1066.64 771.673,1064.05 776.823,1061.59 781.973,1059.25 787.123,1057.02 792.273,1054.91 797.424,1052.9 802.574,1051 
  807.724,1049.2 812.874,1047.49 818.024,1045.88 823.174,1044.36 828.324,1042.92 833.474,1041.56 838.624,1040.28 843.775,1039.07 848.925,1037.93 854.075,1036.84 
  859.225,1035.82 864.375,1034.84 869.525,1033.92 874.675,1033.03 879.825,1032.19 884.975,1031.39 890.126,1030.62 895.276,1029.88 900.426,1029.16 905.576,1028.48 
  910.726,1027.81 915.876,1027.16 921.026,1026.52 926.176,1025.89 931.326,1025.28 936.476,1024.67 941.627,1024.06 946.777,1023.46 951.927,1022.85 957.077,1022.24 
  962.227,1021.61 967.377,1020.97 972.527,1020.32 977.677,1019.64 982.827,1018.94 987.978,1018.21 993.128,1017.45 998.278,1016.66 1003.43,1015.83 1008.58,1014.95 
  1013.73,1014.03 1018.88,1013.07 1024.03,1012.05 1029.18,1010.98 1034.33,1009.84 1039.48,1008.65 1044.63,1007.39 1049.78,1006.06 1054.93,1004.67 1060.08,1003.2 
  1065.23,1001.66 1070.38,1000.04 1075.53,998.338 1080.68,996.558 1085.83,994.694 1090.98,992.745 1096.13,990.707 1101.28,988.579 1106.43,986.359 1111.58,984.046 
  1116.73,981.637 1121.88,979.134 1127.03,976.534 1132.18,973.832 1137.33,971.021 1142.48,968.099 1147.63,965.067 1152.78,961.921 1157.93,958.656 1163.08,955.274 
  1168.23,951.772 1173.38,948.152 1178.53,944.415 1183.68,940.564 1188.83,936.602 1193.98,932.531 1199.13,928.357 1204.28,924.08 1209.43,919.706 1214.58,915.239 
  1219.73,910.683 1224.88,906.045 1230.03,901.329 1235.18,896.539 1240.33,891.679 1245.48,886.753 1250.63,881.766 1255.78,876.725 1260.93,871.635 1266.08,866.504 
  1271.23,861.338 1276.38,856.145 1281.53,850.933 1286.68,845.71 1291.83,840.483 1296.98,835.262 1302.13,830.054 1307.28,824.868 1312.43,819.711 1317.58,814.591 
  1322.73,809.517 1327.88,804.497 1333.03,799.536 1338.18,794.639 1343.33,789.811 1348.49,785.056 1353.64,780.377 1358.79,775.777 1363.94,771.258 1369.09,766.822 
  1374.24,762.467 1379.39,758.193 1384.54,753.999 1389.69,749.886 1394.84,745.851 1399.99,741.895 1405.14,738.016 1410.29,734.213 1415.44,730.487 1420.59,726.834 
  1425.74,723.25 1430.89,719.735 1436.04,716.291 1441.19,712.921 1446.34,709.622 1451.49,706.392 1456.64,703.23 1461.79,700.134 1466.94,697.103 1472.09,694.133 
  1477.24,691.224 1482.39,688.375 1487.54,685.586 1492.69,682.854 1497.84,680.179 1502.99,677.558 1508.14,674.989 1513.29,672.471 1518.44,670.001 1523.59,667.578 
  1528.74,665.201 1533.89,662.867 1539.04,660.577 1544.19,658.33 1549.34,656.124 1554.49,653.959 1559.64,651.833 1564.79,649.745 1569.94,647.695 1575.09,645.682 
  1580.24,643.705 1585.39,641.762 1590.54,639.852 1595.69,637.975 1600.84,636.131 1605.99,634.318 1611.14,632.536 1616.29,630.783 1621.44,629.061 1626.59,627.368 
  1631.74,625.706 1636.89,624.074 1642.04,622.473 1647.19,620.901 1652.34,619.359 1657.49,617.847 1662.64,616.364 1667.79,614.91 1672.94,613.485 1678.09,612.088 
  1683.24,610.719 1688.39,609.378 1693.54,608.065 1698.69,606.779 1703.84,605.519 1708.99,604.286 1714.14,603.079 1719.29,601.897 1724.44,600.741 1729.59,599.609 
  1734.74,598.501 1739.89,597.417 1745.04,596.355 1750.19,595.316 1755.34,594.298 1760.49,593.299 1765.64,592.318 1770.79,591.353 1775.94,590.402 1781.09,589.462 
  1786.24,588.531 1791.39,587.607 1796.54,586.688 1801.69,585.772 1806.84,584.855 1811.99,583.934 1817.14,583.007 1822.29,582.07 1827.44,581.119 1832.6,580.148 
  1837.75,579.157 1842.9,578.14 1848.05,577.089 1853.2,576 1858.35,574.87 1863.5,573.695 1868.65,572.475 1873.8,571.206 1878.95,569.882 1884.1,568.503 
  1889.25,567.063 1894.4,565.562 1899.55,563.995 1904.7,562.361 1909.85,560.658 1915,558.885 1920.15,557.039 1925.3,555.12 1930.45,553.128 1935.6,551.061 
  1940.75,548.918 1945.9,546.698 1951.05,544.4 1956.2,542.028 1961.35,539.58 1966.5,537.055 1971.65,534.453 1976.8,531.769 1981.95,529.001 1987.1,526.153 
  1992.25,523.226 1997.4,520.219 2002.55,517.129 2007.7,513.958 2012.85,510.705 2018,507.369 2023.15,503.948 2028.3,500.44 2033.45,496.844 2038.6,493.157 
  2043.75,489.379 2048.9,485.507 2054.05,481.541 2059.2,477.48 2064.35,473.321 2069.5,469.063 2074.65,464.706 2079.8,460.251 2084.95,455.701 2090.1,451.061 
  2095.25,446.33 2100.4,441.501 2105.55,436.572 2110.7,431.544 2115.85,426.422 2121,421.216 2126.15,415.935 2131.3,410.57 2136.45,405.129 2141.6,399.618 
  2146.75,394.044 2151.9,388.415 2157.05,382.739 2162.2,377.022 2167.35,371.273 2172.5,365.495 2177.65,359.693 2182.8,353.871 2187.95,348.033 2193.1,342.183 
  2198.25,336.324 2203.4,330.458 2208.55,324.587 2213.7,318.715 2218.85,312.843 2224,306.973 2229.15,301.106 2234.3,295.244 2239.45,289.385 2244.6,283.53 
  2249.75,277.676 2254.9,271.823 2260.05,265.973 2265.2,260.126 2270.35,254.282 2275.5,248.44 2280.65,242.598 2285.8,236.755 2290.95,230.908 2296.1,225.057 
  2301.25,219.202 2306.4,213.343 2311.56,207.48 2316.71,201.613 2321.86,195.741 2327.01,189.865 2332.16,183.979 2337.31,178.079 2342.46,172.161 2347.61,166.222 
  2352.76,160.256 
  "/>
<polyline clip-path="url(#clip782)" style="stroke:#e26f46; stroke-linecap:butt; stroke-linejoin:round; stroke-width:4; stroke-opacity:1; fill:none" points="
  292.713,1386.4 297.863,1386.36 303.013,1386.27 308.163,1386.12 313.314,1385.93 318.464,1385.69 323.614,1385.41 328.764,1385.1 333.914,1384.75 339.064,1384.36 
  344.214,1383.94 349.364,1383.48 354.514,1382.98 359.664,1382.45 364.815,1381.87 369.965,1381.26 375.115,1380.6 380.265,1379.9 385.415,1379.15 390.565,1378.34 
  395.715,1377.47 400.865,1376.55 406.015,1375.56 411.166,1374.51 416.316,1373.39 421.466,1372.2 426.616,1370.92 431.766,1369.55 436.916,1368.1 442.066,1366.54 
  447.216,1364.89 452.366,1363.14 457.517,1361.27 462.667,1359.3 467.817,1357.21 472.967,1355 478.117,1352.67 483.267,1350.22 488.417,1347.63 493.567,1344.91 
  498.717,1342.06 503.867,1339.09 509.018,1335.98 514.168,1332.74 519.318,1329.36 524.468,1325.84 529.618,1322.19 534.768,1318.41 539.918,1314.51 545.068,1310.49 
  550.218,1306.38 555.369,1302.21 560.519,1297.97 565.669,1293.7 570.819,1289.39 575.969,1285.07 581.119,1280.73 586.269,1276.39 591.419,1272.06 596.569,1267.75 
  601.72,1263.46 606.87,1259.18 612.02,1254.91 617.17,1250.66 622.32,1246.44 627.47,1242.26 632.62,1238.13 637.77,1234.05 642.92,1230.03 648.07,1226.07 
  653.221,1222.18 658.371,1218.37 663.521,1214.63 668.671,1210.97 673.821,1207.39 678.971,1203.9 684.121,1200.5 689.271,1197.2 694.421,1193.98 699.572,1190.86 
  704.722,1187.84 709.872,1184.92 715.022,1182.09 720.172,1179.36 725.322,1176.72 730.472,1174.19 735.622,1171.75 740.772,1169.41 745.923,1167.16 751.073,1165.01 
  756.223,1162.95 761.373,1160.99 766.523,1159.11 771.673,1157.32 776.823,1155.62 781.973,1154 787.123,1152.46 792.273,1151 797.424,1149.61 802.574,1148.3 
  807.724,1147.06 812.874,1145.88 818.024,1144.77 823.174,1143.72 828.324,1142.73 833.474,1141.8 838.624,1140.91 843.775,1140.08 848.925,1139.29 854.075,1138.55 
  859.225,1137.84 864.375,1137.17 869.525,1136.54 874.675,1135.93 879.825,1135.35 884.975,1134.8 890.126,1134.26 895.276,1133.75 900.426,1133.26 905.576,1132.78 
  910.726,1132.32 915.876,1131.86 921.026,1131.42 926.176,1130.99 931.326,1130.56 936.476,1130.13 941.627,1129.7 946.777,1129.27 951.927,1128.83 957.077,1128.39 
  962.227,1127.94 967.377,1127.47 972.527,1126.98 977.677,1126.48 982.827,1125.95 987.978,1125.4 993.128,1124.82 998.278,1124.21 1003.43,1123.57 1008.58,1122.9 
  1013.73,1122.19 1018.88,1121.44 1024.03,1120.65 1029.18,1119.81 1034.33,1118.92 1039.48,1117.98 1044.63,1116.99 1049.78,1115.95 1054.93,1114.85 1060.08,1113.69 
  1065.23,1112.47 1070.38,1111.18 1075.53,1109.84 1080.68,1108.42 1085.83,1106.94 1090.98,1105.38 1096.13,1103.76 1101.28,1102.07 1106.43,1100.31 1111.58,1098.48 
  1116.73,1096.57 1121.88,1094.56 1127.03,1092.48 1132.18,1090.31 1137.33,1088.04 1142.48,1085.69 1147.63,1083.24 1152.78,1080.7 1157.93,1078.06 1163.08,1075.32 
  1168.23,1072.48 1173.38,1069.55 1178.53,1066.53 1183.68,1063.42 1188.83,1060.22 1193.98,1056.95 1199.13,1053.6 1204.28,1050.17 1209.43,1046.67 1214.58,1043.1 
  1219.73,1039.46 1224.88,1035.76 1230.03,1032 1235.18,1028.18 1240.33,1024.31 1245.48,1020.38 1250.63,1016.41 1255.78,1012.4 1260.93,1008.35 1266.08,1004.27 
  1271.23,1000.16 1276.38,996.027 1281.53,991.881 1286.68,987.727 1291.83,983.57 1296.98,979.418 1302.13,975.277 1307.28,971.153 1312.43,967.052 1317.58,962.981 
  1322.73,958.946 1327.88,954.953 1333.03,951.007 1338.18,947.111 1343.33,943.271 1348.49,939.488 1353.64,935.765 1358.79,932.103 1363.94,928.501 1369.09,924.954 
  1374.24,921.465 1379.39,918.038 1384.54,914.674 1389.69,911.373 1394.84,908.135 1399.99,904.954 1405.14,901.825 1410.29,898.739 1415.44,895.696 1420.59,892.712 
  1425.74,889.798 1430.89,886.956 1436.04,884.18 1441.19,881.454 1446.34,878.782 1451.49,876.171 1456.64,873.621 1461.79,871.13 1466.94,868.696 1472.09,866.317 
  1477.24,863.992 1482.39,861.72 1487.54,859.5 1492.69,857.33 1497.84,855.209 1502.99,853.133 1508.14,851.101 1513.29,849.111 1518.44,847.161 1523.59,845.248 
  1528.74,843.372 1533.89,841.531 1539.04,839.725 1544.19,837.953 1549.34,836.214 1554.49,834.506 1559.64,832.829 1564.79,831.183 1569.94,829.566 1575.09,827.979 
  1580.24,826.419 1585.39,824.887 1590.54,823.38 1595.69,821.897 1600.84,820.439 1605.99,819.005 1611.14,817.598 1616.29,816.217 1621.44,814.862 1626.59,813.532 
  1631.74,812.225 1636.89,810.94 1642.04,809.68 1647.19,808.443 1652.34,807.232 1657.49,806.044 1662.64,804.88 1667.79,803.74 1672.94,802.624 1678.09,801.532 
  1683.24,800.462 1688.39,799.416 1693.54,798.392 1698.69,797.389 1703.84,796.408 1708.99,795.449 1714.14,794.509 1719.29,793.59 1724.44,792.692 1729.59,791.814 
  1734.74,790.953 1739.89,790.111 1745.04,789.288 1750.19,788.486 1755.34,787.701 1760.49,786.934 1765.64,786.179 1770.79,785.436 1775.94,784.705 1781.09,783.983 
  1786.24,783.27 1791.39,782.563 1796.54,781.86 1801.69,781.159 1806.84,780.459 1811.99,779.756 1817.14,779.047 1822.29,778.331 1827.44,777.605 1832.6,776.865 
  1837.75,776.108 1842.9,775.331 1848.05,774.529 1853.2,773.701 1858.35,772.842 1863.5,771.949 1868.65,771.017 1873.8,770.043 1878.95,769.027 1884.1,767.965 
  1889.25,766.857 1894.4,765.7 1899.55,764.494 1904.7,763.238 1909.85,761.933 1915,760.575 1920.15,759.166 1925.3,757.703 1930.45,756.186 1935.6,754.614 
  1940.75,752.984 1945.9,751.296 1951.05,749.548 1956.2,747.741 1961.35,745.874 1966.5,743.947 1971.65,741.958 1976.8,739.907 1981.95,737.789 1987.1,735.601 
  1992.25,733.35 1997.4,731.041 2002.55,728.674 2007.7,726.246 2012.85,723.747 2018,721.165 2023.15,718.506 2028.3,715.774 2033.45,712.966 2038.6,710.081 
  2043.75,707.121 2048.9,704.085 2054.05,700.976 2059.2,697.791 2064.35,694.527 2069.5,691.182 2074.65,687.758 2079.8,684.256 2084.95,680.679 2090.1,677.027 
  2095.25,673.296 2100.4,669.49 2105.55,665.61 2110.7,661.657 2115.85,657.63 2121,653.527 2126.15,649.352 2131.3,645.127 2136.45,640.831 2141.6,636.464 
  2146.75,632.054 2151.9,627.656 2157.05,623.271 2162.2,618.885 2167.35,614.505 2172.5,610.133 2177.65,605.771 2182.8,601.421 2187.95,597.084 2193.1,592.759 
  2198.25,588.448 2203.4,584.151 2208.55,579.868 2213.7,575.598 2218.85,571.342 2224,567.097 2229.15,562.864 2234.3,558.646 2239.45,554.443 2244.6,550.259 
  2249.75,546.098 2254.9,541.964 2260.05,537.854 2265.2,533.77 2270.35,529.711 2275.5,525.674 2280.65,521.66 2285.8,517.664 2290.95,513.685 2296.1,509.723 
  2301.25,505.777 2306.4,501.841 2311.56,497.904 2316.71,493.951 2321.86,489.96 2327.01,485.917 2332.16,481.814 2337.31,477.645 2342.46,473.406 2347.61,469.093 
  2352.76,464.701 
  "/>
<path clip-path="url(#clip780)" d="
M1837.02 322.316 L2284.09 322.316 L2284.09 166.796 L1837.02 166.796  Z
  " fill="#ffffff" fill-rule="evenodd" fill-opacity="1"/>
<polyline clip-path="url(#clip780)" style="stroke:#000000; stroke-linecap:butt; stroke-linejoin:round; stroke-width:4; stroke-opacity:1; fill:none" points="
  1837.02,322.316 2284.09,322.316 2284.09,166.796 1837.02,166.796 1837.02,322.316 
  "/>
<polyline clip-path="url(#clip780)" style="stroke:#009af9; stroke-linecap:butt; stroke-linejoin:round; stroke-width:4; stroke-opacity:1; fill:none" points="
  1859.91,218.636 1997.25,218.636 
  "/>
<path clip-path="url(#clip780)" d="M2030.76 199.944 Q2027.66 205.268 2026.16 210.476 Q2024.65 215.684 2024.65 221.032 Q2024.65 226.379 2026.16 231.633 Q2027.69 236.865 2030.76 242.166 L2027.06 242.166 Q2023.59 236.726 2021.85 231.471 Q2020.14 226.217 2020.14 221.032 Q2020.14 215.87 2021.85 210.638 Q2023.56 205.407 2027.06 199.944 L2030.76 199.944 Z" fill="#000000" fill-rule="evenodd" fill-opacity="1" /><path clip-path="url(#clip780)" d="M2043.24 202.629 L2043.24 209.99 L2052.01 209.99 L2052.01 213.3 L2043.24 213.3 L2043.24 227.374 Q2043.24 230.545 2044.1 231.448 Q2044.98 232.351 2047.64 232.351 L2052.01 232.351 L2052.01 235.916 L2047.64 235.916 Q2042.71 235.916 2040.83 234.087 Q2038.96 232.235 2038.96 227.374 L2038.96 213.3 L2035.83 213.3 L2035.83 209.99 L2038.96 209.99 L2038.96 202.629 L2043.24 202.629 Z" fill="#000000" fill-rule="evenodd" fill-opacity="1" /><path clip-path="url(#clip780)" d="M2058.7 230.036 L2063.59 230.036 L2063.59 234.018 L2059.79 241.425 L2056.81 241.425 L2058.7 234.018 L2058.7 230.036 Z" fill="#000000" fill-rule="evenodd" fill-opacity="1" /><path clip-path="url(#clip780)" d="M2089.26 219.712 Q2090.76 220.221 2092.18 221.888 Q2093.61 223.555 2095.05 226.471 L2099.79 235.916 L2094.77 235.916 L2090.35 227.05 Q2088.63 223.578 2087.01 222.444 Q2085.42 221.309 2082.64 221.309 L2077.55 221.309 L2077.55 235.916 L2072.87 235.916 L2072.87 201.356 L2083.43 201.356 Q2089.35 201.356 2092.27 203.833 Q2095.18 206.309 2095.18 211.309 Q2095.18 214.573 2093.66 216.726 Q2092.15 218.879 2089.26 219.712 M2077.55 205.198 L2077.55 217.467 L2083.43 217.467 Q2086.81 217.467 2088.52 215.916 Q2090.25 214.342 2090.25 211.309 Q2090.25 208.277 2088.52 206.749 Q2086.81 205.198 2083.43 205.198 L2077.55 205.198 Z" fill="#000000" fill-rule="evenodd" fill-opacity="1" /><path clip-path="url(#clip780)" d="M2105.23 199.897 L2115.05 199.897 L2115.05 203.208 L2109.49 203.208 L2109.49 238.856 L2115.05 238.856 L2115.05 242.166 L2105.23 242.166 L2105.23 199.897 Z" fill="#000000" fill-rule="evenodd" fill-opacity="1" /><path clip-path="url(#clip780)" d="M2125.53 231.981 L2133.17 231.981 L2133.17 205.615 L2124.86 207.282 L2124.86 203.022 L2133.12 201.356 L2137.8 201.356 L2137.8 231.981 L2145.44 231.981 L2145.44 235.916 L2125.53 235.916 L2125.53 231.981 Z" fill="#000000" fill-rule="evenodd" fill-opacity="1" /><path clip-path="url(#clip780)" d="M2164.24 199.897 L2164.24 242.166 L2154.42 242.166 L2154.42 238.856 L2159.95 238.856 L2159.95 203.208 L2154.42 203.208 L2154.42 199.897 L2164.24 199.897 Z" fill="#000000" fill-rule="evenodd" fill-opacity="1" /><path clip-path="url(#clip780)" d="M2183.01 199.944 Q2179.91 205.268 2178.4 210.476 Q2176.9 215.684 2176.9 221.032 Q2176.9 226.379 2178.4 231.633 Q2179.93 236.865 2183.01 242.166 L2179.3 242.166 Q2175.83 236.726 2174.1 231.471 Q2172.38 226.217 2172.38 221.032 Q2172.38 215.87 2174.1 210.638 Q2175.81 205.407 2179.3 199.944 L2183.01 199.944 Z" fill="#000000" fill-rule="evenodd" fill-opacity="1" /><path clip-path="url(#clip780)" d="M2195.49 202.629 L2195.49 209.99 L2204.26 209.99 L2204.26 213.3 L2195.49 213.3 L2195.49 227.374 Q2195.49 230.545 2196.34 231.448 Q2197.22 232.351 2199.88 232.351 L2204.26 232.351 L2204.26 235.916 L2199.88 235.916 Q2194.95 235.916 2193.08 234.087 Q2191.2 232.235 2191.2 227.374 L2191.2 213.3 L2188.08 213.3 L2188.08 209.99 L2191.2 209.99 L2191.2 202.629 L2195.49 202.629 Z" fill="#000000" fill-rule="evenodd" fill-opacity="1" /><path clip-path="url(#clip780)" d="M2209.19 199.944 L2212.89 199.944 Q2216.36 205.407 2218.08 210.638 Q2219.81 215.87 2219.81 221.032 Q2219.81 226.217 2218.08 231.471 Q2216.36 236.726 2212.89 242.166 L2209.19 242.166 Q2212.27 236.865 2213.77 231.633 Q2215.3 226.379 2215.3 221.032 Q2215.3 215.684 2213.77 210.476 Q2212.27 205.268 2209.19 199.944 Z" fill="#000000" fill-rule="evenodd" fill-opacity="1" /><path clip-path="url(#clip780)" d="M2227.68 199.944 L2231.39 199.944 Q2234.86 205.407 2236.57 210.638 Q2238.31 215.87 2238.31 221.032 Q2238.31 226.217 2236.57 231.471 Q2234.86 236.726 2231.39 242.166 L2227.68 242.166 Q2230.76 236.865 2232.27 231.633 Q2233.8 226.379 2233.8 221.032 Q2233.8 215.684 2232.27 210.476 Q2230.76 205.268 2227.68 199.944 Z" fill="#000000" fill-rule="evenodd" fill-opacity="1" /><polyline clip-path="url(#clip780)" style="stroke:#e26f46; stroke-linecap:butt; stroke-linejoin:round; stroke-width:4; stroke-opacity:1; fill:none" points="
  1859.91,270.476 1997.25,270.476 
  "/>
<path clip-path="url(#clip780)" d="M2030.76 251.784 Q2027.66 257.108 2026.16 262.316 Q2024.65 267.524 2024.65 272.872 Q2024.65 278.219 2026.16 283.473 Q2027.69 288.705 2030.76 294.006 L2027.06 294.006 Q2023.59 288.566 2021.85 283.311 Q2020.14 278.057 2020.14 272.872 Q2020.14 267.71 2021.85 262.478 Q2023.56 257.247 2027.06 251.784 L2030.76 251.784 Z" fill="#000000" fill-rule="evenodd" fill-opacity="1" /><path clip-path="url(#clip780)" d="M2043.24 254.469 L2043.24 261.83 L2052.01 261.83 L2052.01 265.14 L2043.24 265.14 L2043.24 279.214 Q2043.24 282.385 2044.1 283.288 Q2044.98 284.191 2047.64 284.191 L2052.01 284.191 L2052.01 287.756 L2047.64 287.756 Q2042.71 287.756 2040.83 285.927 Q2038.96 284.075 2038.96 279.214 L2038.96 265.14 L2035.83 265.14 L2035.83 261.83 L2038.96 261.83 L2038.96 254.469 L2043.24 254.469 Z" fill="#000000" fill-rule="evenodd" fill-opacity="1" /><path clip-path="url(#clip780)" d="M2058.7 281.876 L2063.59 281.876 L2063.59 285.858 L2059.79 293.265 L2056.81 293.265 L2058.7 285.858 L2058.7 281.876 Z" fill="#000000" fill-rule="evenodd" fill-opacity="1" /><path clip-path="url(#clip780)" d="M2089.26 271.552 Q2090.76 272.061 2092.18 273.728 Q2093.61 275.395 2095.05 278.311 L2099.79 287.756 L2094.77 287.756 L2090.35 278.89 Q2088.63 275.418 2087.01 274.284 Q2085.42 273.149 2082.64 273.149 L2077.55 273.149 L2077.55 287.756 L2072.87 287.756 L2072.87 253.196 L2083.43 253.196 Q2089.35 253.196 2092.27 255.673 Q2095.18 258.149 2095.18 263.149 Q2095.18 266.413 2093.66 268.566 Q2092.15 270.719 2089.26 271.552 M2077.55 257.038 L2077.55 269.307 L2083.43 269.307 Q2086.81 269.307 2088.52 267.756 Q2090.25 266.182 2090.25 263.149 Q2090.25 260.117 2088.52 258.589 Q2086.81 257.038 2083.43 257.038 L2077.55 257.038 Z" fill="#000000" fill-rule="evenodd" fill-opacity="1" /><path clip-path="url(#clip780)" d="M2105.23 251.737 L2115.05 251.737 L2115.05 255.048 L2109.49 255.048 L2109.49 290.696 L2115.05 290.696 L2115.05 294.006 L2105.23 294.006 L2105.23 251.737 Z" fill="#000000" fill-rule="evenodd" fill-opacity="1" /><path clip-path="url(#clip780)" d="M2128.75 283.821 L2145.07 283.821 L2145.07 287.756 L2123.12 287.756 L2123.12 283.821 Q2125.79 281.066 2130.37 276.436 Q2134.98 271.784 2136.16 270.441 Q2138.4 267.918 2139.28 266.182 Q2140.18 264.423 2140.18 262.733 Q2140.18 259.978 2138.24 258.242 Q2136.32 256.506 2133.22 256.506 Q2131.02 256.506 2128.56 257.27 Q2126.13 258.034 2123.36 259.585 L2123.36 254.862 Q2126.18 253.728 2128.63 253.149 Q2131.09 252.571 2133.12 252.571 Q2138.49 252.571 2141.69 255.256 Q2144.88 257.941 2144.88 262.432 Q2144.88 264.561 2144.07 266.483 Q2143.29 268.381 2141.18 270.973 Q2140.6 271.645 2137.5 274.862 Q2134.4 278.057 2128.75 283.821 Z" fill="#000000" fill-rule="evenodd" fill-opacity="1" /><path clip-path="url(#clip780)" d="M2164.24 251.737 L2164.24 294.006 L2154.42 294.006 L2154.42 290.696 L2159.95 290.696 L2159.95 255.048 L2154.42 255.048 L2154.42 251.737 L2164.24 251.737 Z" fill="#000000" fill-rule="evenodd" fill-opacity="1" /><path clip-path="url(#clip780)" d="M2183.01 251.784 Q2179.91 257.108 2178.4 262.316 Q2176.9 267.524 2176.9 272.872 Q2176.9 278.219 2178.4 283.473 Q2179.93 288.705 2183.01 294.006 L2179.3 294.006 Q2175.83 288.566 2174.1 283.311 Q2172.38 278.057 2172.38 272.872 Q2172.38 267.71 2174.1 262.478 Q2175.81 257.247 2179.3 251.784 L2183.01 251.784 Z" fill="#000000" fill-rule="evenodd" fill-opacity="1" /><path clip-path="url(#clip780)" d="M2195.49 254.469 L2195.49 261.83 L2204.26 261.83 L2204.26 265.14 L2195.49 265.14 L2195.49 279.214 Q2195.49 282.385 2196.34 283.288 Q2197.22 284.191 2199.88 284.191 L2204.26 284.191 L2204.26 287.756 L2199.88 287.756 Q2194.95 287.756 2193.08 285.927 Q2191.2 284.075 2191.2 279.214 L2191.2 265.14 L2188.08 265.14 L2188.08 261.83 L2191.2 261.83 L2191.2 254.469 L2195.49 254.469 Z" fill="#000000" fill-rule="evenodd" fill-opacity="1" /><path clip-path="url(#clip780)" d="M2209.19 251.784 L2212.89 251.784 Q2216.36 257.247 2218.08 262.478 Q2219.81 267.71 2219.81 272.872 Q2219.81 278.057 2218.08 283.311 Q2216.36 288.566 2212.89 294.006 L2209.19 294.006 Q2212.27 288.705 2213.77 283.473 Q2215.3 278.219 2215.3 272.872 Q2215.3 267.524 2213.77 262.316 Q2212.27 257.108 2209.19 251.784 Z" fill="#000000" fill-rule="evenodd" fill-opacity="1" /><path clip-path="url(#clip780)" d="M2227.68 251.784 L2231.39 251.784 Q2234.86 257.247 2236.57 262.478 Q2238.31 267.71 2238.31 272.872 Q2238.31 278.057 2236.57 283.311 Q2234.86 288.566 2231.39 294.006 L2227.68 294.006 Q2230.76 288.705 2232.27 283.473 Q2233.8 278.219 2233.8 272.872 Q2233.8 267.524 2232.27 262.316 Q2230.76 257.108 2227.68 251.784 Z" fill="#000000" fill-rule="evenodd" fill-opacity="1" /></svg>
