<?xml version="1.0" encoding="utf-8"?>
<svg xmlns="http://www.w3.org/2000/svg" xmlns:xlink="http://www.w3.org/1999/xlink" width="600" height="400" viewBox="0 0 2400 1600">
<defs>
  <clipPath id="clip270">
    <rect x="0" y="0" width="2400" height="1600"/>
  </clipPath>
</defs>
<path clip-path="url(#clip270)" d="
M0 1600 L2400 1600 L2400 0 L0 0  Z
  " fill="#ffffff" fill-rule="evenodd" fill-opacity="1"/>
<defs>
  <clipPath id="clip271">
    <rect x="480" y="0" width="1681" height="1600"/>
  </clipPath>
</defs>
<path clip-path="url(#clip270)" d="
M397.432 1423.18 L2352.76 1423.18 L2352.76 123.472 L397.432 123.472  Z
  " fill="#ffffff" fill-rule="evenodd" fill-opacity="1"/>
<defs>
  <clipPath id="clip272">
    <rect x="397" y="123" width="1956" height="1301"/>
  </clipPath>
</defs>
<polyline clip-path="url(#clip272)" style="stroke:#000000; stroke-linecap:butt; stroke-linejoin:round; stroke-width:2; stroke-opacity:0.1; fill:none" points="
  397.432,1423.18 397.432,123.472 
  "/>
<polyline clip-path="url(#clip272)" style="stroke:#000000; stroke-linecap:butt; stroke-linejoin:round; stroke-width:2; stroke-opacity:0.1; fill:none" points="
  886.263,1423.18 886.263,123.472 
  "/>
<polyline clip-path="url(#clip272)" style="stroke:#000000; stroke-linecap:butt; stroke-linejoin:round; stroke-width:2; stroke-opacity:0.1; fill:none" points="
  1375.09,1423.18 1375.09,123.472 
  "/>
<polyline clip-path="url(#clip272)" style="stroke:#000000; stroke-linecap:butt; stroke-linejoin:round; stroke-width:2; stroke-opacity:0.1; fill:none" points="
  1863.92,1423.18 1863.92,123.472 
  "/>
<polyline clip-path="url(#clip272)" style="stroke:#000000; stroke-linecap:butt; stroke-linejoin:round; stroke-width:2; stroke-opacity:0.1; fill:none" points="
  2352.76,1423.18 2352.76,123.472 
  "/>
<polyline clip-path="url(#clip270)" style="stroke:#000000; stroke-linecap:butt; stroke-linejoin:round; stroke-width:4; stroke-opacity:1; fill:none" points="
  397.432,1423.18 2352.76,1423.18 
  "/>
<polyline clip-path="url(#clip270)" style="stroke:#000000; stroke-linecap:butt; stroke-linejoin:round; stroke-width:4; stroke-opacity:1; fill:none" points="
  397.432,1423.18 397.432,1404.28 
  "/>
<polyline clip-path="url(#clip270)" style="stroke:#000000; stroke-linecap:butt; stroke-linejoin:round; stroke-width:4; stroke-opacity:1; fill:none" points="
  886.263,1423.18 886.263,1404.28 
  "/>
<polyline clip-path="url(#clip270)" style="stroke:#000000; stroke-linecap:butt; stroke-linejoin:round; stroke-width:4; stroke-opacity:1; fill:none" points="
  1375.09,1423.18 1375.09,1404.28 
  "/>
<polyline clip-path="url(#clip270)" style="stroke:#000000; stroke-linecap:butt; stroke-linejoin:round; stroke-width:4; stroke-opacity:1; fill:none" points="
  1863.92,1423.18 1863.92,1404.28 
  "/>
<polyline clip-path="url(#clip270)" style="stroke:#000000; stroke-linecap:butt; stroke-linejoin:round; stroke-width:4; stroke-opacity:1; fill:none" points="
  2352.76,1423.18 2352.76,1404.28 
  "/>
<path clip-path="url(#clip270)" d="M397.432 1452.37 Q393.821 1452.37 391.992 1455.94 Q390.187 1459.48 390.187 1466.61 Q390.187 1473.71 391.992 1477.28 Q393.821 1480.82 397.432 1480.82 Q401.066 1480.82 402.872 1477.28 Q404.7 1473.71 404.7 1466.61 Q404.7 1459.48 402.872 1455.94 Q401.066 1452.37 397.432 1452.37 M397.432 1448.67 Q403.242 1448.67 406.298 1453.27 Q409.376 1457.86 409.376 1466.61 Q409.376 1475.33 406.298 1479.94 Q403.242 1484.52 397.432 1484.52 Q391.622 1484.52 388.543 1479.94 Q385.487 1475.33 385.487 1466.61 Q385.487 1457.86 388.543 1453.27 Q391.622 1448.67 397.432 1448.67 Z" fill="#000000" fill-rule="evenodd" fill-opacity="1" /><path clip-path="url(#clip270)" d="M845.87 1479.92 L853.508 1479.92 L853.508 1453.55 L845.198 1455.22 L845.198 1450.96 L853.462 1449.29 L858.138 1449.29 L858.138 1479.92 L865.777 1479.92 L865.777 1483.85 L845.87 1483.85 L845.87 1479.92 Z" fill="#000000" fill-rule="evenodd" fill-opacity="1" /><path clip-path="url(#clip270)" d="M885.221 1452.37 Q881.61 1452.37 879.781 1455.94 Q877.976 1459.48 877.976 1466.61 Q877.976 1473.71 879.781 1477.28 Q881.61 1480.82 885.221 1480.82 Q888.855 1480.82 890.661 1477.28 Q892.49 1473.71 892.49 1466.61 Q892.49 1459.48 890.661 1455.94 Q888.855 1452.37 885.221 1452.37 M885.221 1448.67 Q891.031 1448.67 894.087 1453.27 Q897.166 1457.86 897.166 1466.61 Q897.166 1475.33 894.087 1479.94 Q891.031 1484.52 885.221 1484.52 Q879.411 1484.52 876.332 1479.94 Q873.277 1475.33 873.277 1466.61 Q873.277 1457.86 876.332 1453.27 Q879.411 1448.67 885.221 1448.67 Z" fill="#000000" fill-rule="evenodd" fill-opacity="1" /><path clip-path="url(#clip270)" d="M915.383 1452.37 Q911.772 1452.37 909.943 1455.94 Q908.138 1459.48 908.138 1466.61 Q908.138 1473.71 909.943 1477.28 Q911.772 1480.82 915.383 1480.82 Q919.017 1480.82 920.823 1477.28 Q922.652 1473.71 922.652 1466.61 Q922.652 1459.48 920.823 1455.94 Q919.017 1452.37 915.383 1452.37 M915.383 1448.67 Q921.193 1448.67 924.249 1453.27 Q927.327 1457.86 927.327 1466.61 Q927.327 1475.33 924.249 1479.94 Q921.193 1484.52 915.383 1484.52 Q909.573 1484.52 906.494 1479.94 Q903.439 1475.33 903.439 1466.61 Q903.439 1457.86 906.494 1453.27 Q909.573 1448.67 915.383 1448.67 Z" fill="#000000" fill-rule="evenodd" fill-opacity="1" /><path clip-path="url(#clip270)" d="M1338.79 1479.92 L1355.11 1479.92 L1355.11 1483.85 L1333.16 1483.85 L1333.16 1479.92 Q1335.82 1477.16 1340.41 1472.53 Q1345.01 1467.88 1346.19 1466.54 Q1348.44 1464.01 1349.32 1462.28 Q1350.22 1460.52 1350.22 1458.83 Q1350.22 1456.07 1348.28 1454.34 Q1346.36 1452.6 1343.25 1452.6 Q1341.05 1452.6 1338.6 1453.37 Q1336.17 1454.13 1333.39 1455.68 L1333.39 1450.96 Q1336.22 1449.82 1338.67 1449.25 Q1341.12 1448.67 1343.16 1448.67 Q1348.53 1448.67 1351.73 1451.35 Q1354.92 1454.04 1354.92 1458.53 Q1354.92 1460.66 1354.11 1462.58 Q1353.32 1464.48 1351.22 1467.07 Q1350.64 1467.74 1347.54 1470.96 Q1344.43 1474.15 1338.79 1479.92 Z" fill="#000000" fill-rule="evenodd" fill-opacity="1" /><path clip-path="url(#clip270)" d="M1374.92 1452.37 Q1371.31 1452.37 1369.48 1455.94 Q1367.67 1459.48 1367.67 1466.61 Q1367.67 1473.71 1369.48 1477.28 Q1371.31 1480.82 1374.92 1480.82 Q1378.55 1480.82 1380.36 1477.28 Q1382.19 1473.71 1382.19 1466.61 Q1382.19 1459.48 1380.36 1455.94 Q1378.55 1452.37 1374.92 1452.37 M1374.92 1448.67 Q1380.73 1448.67 1383.79 1453.27 Q1386.86 1457.86 1386.86 1466.61 Q1386.86 1475.33 1383.79 1479.94 Q1380.73 1484.52 1374.92 1484.52 Q1369.11 1484.52 1366.03 1479.94 Q1362.98 1475.33 1362.98 1466.61 Q1362.98 1457.86 1366.03 1453.27 Q1369.11 1448.67 1374.92 1448.67 Z" fill="#000000" fill-rule="evenodd" fill-opacity="1" /><path clip-path="url(#clip270)" d="M1405.08 1452.37 Q1401.47 1452.37 1399.64 1455.94 Q1397.84 1459.48 1397.84 1466.61 Q1397.84 1473.71 1399.64 1477.28 Q1401.47 1480.82 1405.08 1480.82 Q1408.72 1480.82 1410.52 1477.28 Q1412.35 1473.71 1412.35 1466.61 Q1412.35 1459.48 1410.52 1455.94 Q1408.72 1452.37 1405.08 1452.37 M1405.08 1448.67 Q1410.89 1448.67 1413.95 1453.27 Q1417.03 1457.86 1417.03 1466.61 Q1417.03 1475.33 1413.95 1479.94 Q1410.89 1484.52 1405.08 1484.52 Q1399.27 1484.52 1396.19 1479.94 Q1393.14 1475.33 1393.14 1466.61 Q1393.14 1457.86 1396.19 1453.27 Q1399.27 1448.67 1405.08 1448.67 Z" fill="#000000" fill-rule="evenodd" fill-opacity="1" /><path clip-path="url(#clip270)" d="M1837.69 1465.22 Q1841.04 1465.94 1842.92 1468.2 Q1844.82 1470.47 1844.82 1473.81 Q1844.82 1478.92 1841.3 1481.72 Q1837.78 1484.52 1831.3 1484.52 Q1829.12 1484.52 1826.81 1484.08 Q1824.52 1483.67 1822.06 1482.81 L1822.06 1478.3 Q1824.01 1479.43 1826.32 1480.01 Q1828.64 1480.59 1831.16 1480.59 Q1835.56 1480.59 1837.85 1478.85 Q1840.16 1477.12 1840.16 1473.81 Q1840.16 1470.75 1838.01 1469.04 Q1835.88 1467.3 1832.06 1467.3 L1828.03 1467.3 L1828.03 1463.46 L1832.25 1463.46 Q1835.7 1463.46 1837.52 1462.09 Q1839.35 1460.7 1839.35 1458.11 Q1839.35 1455.45 1837.46 1454.04 Q1835.58 1452.6 1832.06 1452.6 Q1830.14 1452.6 1827.94 1453.02 Q1825.74 1453.44 1823.1 1454.31 L1823.1 1450.15 Q1825.77 1449.41 1828.08 1449.04 Q1830.42 1448.67 1832.48 1448.67 Q1837.8 1448.67 1840.9 1451.1 Q1844.01 1453.5 1844.01 1457.63 Q1844.01 1460.5 1842.36 1462.49 Q1840.72 1464.45 1837.69 1465.22 Z" fill="#000000" fill-rule="evenodd" fill-opacity="1" /><path clip-path="url(#clip270)" d="M1863.68 1452.37 Q1860.07 1452.37 1858.24 1455.94 Q1856.44 1459.48 1856.44 1466.61 Q1856.44 1473.71 1858.24 1477.28 Q1860.07 1480.82 1863.68 1480.82 Q1867.32 1480.82 1869.12 1477.28 Q1870.95 1473.71 1870.95 1466.61 Q1870.95 1459.48 1869.12 1455.94 Q1867.32 1452.37 1863.68 1452.37 M1863.68 1448.67 Q1869.49 1448.67 1872.55 1453.27 Q1875.63 1457.86 1875.63 1466.61 Q1875.63 1475.33 1872.55 1479.94 Q1869.49 1484.52 1863.68 1484.52 Q1857.87 1484.52 1854.79 1479.94 Q1851.74 1475.33 1851.74 1466.61 Q1851.74 1457.86 1854.79 1453.27 Q1857.87 1448.67 1863.68 1448.67 Z" fill="#000000" fill-rule="evenodd" fill-opacity="1" /><path clip-path="url(#clip270)" d="M1893.84 1452.37 Q1890.23 1452.37 1888.4 1455.94 Q1886.6 1459.48 1886.6 1466.61 Q1886.6 1473.71 1888.4 1477.28 Q1890.23 1480.82 1893.84 1480.82 Q1897.48 1480.82 1899.28 1477.28 Q1901.11 1473.71 1901.11 1466.61 Q1901.11 1459.48 1899.28 1455.94 Q1897.48 1452.37 1893.84 1452.37 M1893.84 1448.67 Q1899.65 1448.67 1902.71 1453.27 Q1905.79 1457.86 1905.79 1466.61 Q1905.79 1475.33 1902.71 1479.94 Q1899.65 1484.52 1893.84 1484.52 Q1888.03 1484.52 1884.95 1479.94 Q1881.9 1475.33 1881.9 1466.61 Q1881.9 1457.86 1884.95 1453.27 Q1888.03 1448.67 1893.84 1448.67 Z" fill="#000000" fill-rule="evenodd" fill-opacity="1" /><path clip-path="url(#clip270)" d="M2325.85 1453.37 L2314.04 1471.81 L2325.85 1471.81 L2325.85 1453.37 M2324.62 1449.29 L2330.5 1449.29 L2330.5 1471.81 L2335.43 1471.81 L2335.43 1475.7 L2330.5 1475.7 L2330.5 1483.85 L2325.85 1483.85 L2325.85 1475.7 L2310.24 1475.7 L2310.24 1471.19 L2324.62 1449.29 Z" fill="#000000" fill-rule="evenodd" fill-opacity="1" /><path clip-path="url(#clip270)" d="M2353.16 1452.37 Q2349.55 1452.37 2347.72 1455.94 Q2345.92 1459.48 2345.92 1466.61 Q2345.92 1473.71 2347.72 1477.28 Q2349.55 1480.82 2353.16 1480.82 Q2356.8 1480.82 2358.6 1477.28 Q2360.43 1473.71 2360.43 1466.61 Q2360.43 1459.48 2358.6 1455.94 Q2356.8 1452.37 2353.16 1452.37 M2353.16 1448.67 Q2358.97 1448.67 2362.03 1453.27 Q2365.11 1457.86 2365.11 1466.61 Q2365.11 1475.33 2362.03 1479.94 Q2358.97 1484.52 2353.16 1484.52 Q2347.35 1484.52 2344.27 1479.94 Q2341.22 1475.33 2341.22 1466.61 Q2341.22 1457.86 2344.27 1453.27 Q2347.35 1448.67 2353.16 1448.67 Z" fill="#000000" fill-rule="evenodd" fill-opacity="1" /><path clip-path="url(#clip270)" d="M2383.32 1452.37 Q2379.71 1452.37 2377.88 1455.94 Q2376.08 1459.48 2376.08 1466.61 Q2376.08 1473.71 2377.88 1477.28 Q2379.71 1480.82 2383.32 1480.82 Q2386.96 1480.82 2388.76 1477.28 Q2390.59 1473.71 2390.59 1466.61 Q2390.59 1459.48 2388.76 1455.94 Q2386.96 1452.37 2383.32 1452.37 M2383.32 1448.67 Q2389.13 1448.67 2392.19 1453.27 Q2395.27 1457.86 2395.27 1466.61 Q2395.27 1475.33 2392.19 1479.94 Q2389.13 1484.52 2383.32 1484.52 Q2377.51 1484.52 2374.43 1479.94 Q2371.38 1475.33 2371.38 1466.61 Q2371.38 1457.86 2374.43 1453.27 Q2377.51 1448.67 2383.32 1448.67 Z" fill="#000000" fill-rule="evenodd" fill-opacity="1" /><path clip-path="url(#clip270)" d="M1374.15 1522.27 L1374.15 1532.4 L1386.22 1532.4 L1386.22 1536.95 L1374.15 1536.95 L1374.15 1556.3 Q1374.15 1560.66 1375.33 1561.9 Q1376.54 1563.14 1380.2 1563.14 L1386.22 1563.14 L1386.22 1568.04 L1380.2 1568.04 Q1373.42 1568.04 1370.84 1565.53 Q1368.27 1562.98 1368.27 1556.3 L1368.27 1536.95 L1363.97 1536.95 L1363.97 1532.4 L1368.27 1532.4 L1368.27 1522.27 L1374.15 1522.27 Z" fill="#000000" fill-rule="evenodd" fill-opacity="1" /><polyline clip-path="url(#clip272)" style="stroke:#000000; stroke-linecap:butt; stroke-linejoin:round; stroke-width:2; stroke-opacity:0.1; fill:none" points="
  397.432,1307.54 2352.76,1307.54 
  "/>
<polyline clip-path="url(#clip272)" style="stroke:#000000; stroke-linecap:butt; stroke-linejoin:round; stroke-width:2; stroke-opacity:0.1; fill:none" points="
  397.432,1128.78 2352.76,1128.78 
  "/>
<polyline clip-path="url(#clip272)" style="stroke:#000000; stroke-linecap:butt; stroke-linejoin:round; stroke-width:2; stroke-opacity:0.1; fill:none" points="
  397.432,950.018 2352.76,950.018 
  "/>
<polyline clip-path="url(#clip272)" style="stroke:#000000; stroke-linecap:butt; stroke-linejoin:round; stroke-width:2; stroke-opacity:0.1; fill:none" points="
  397.432,771.258 2352.76,771.258 
  "/>
<polyline clip-path="url(#clip272)" style="stroke:#000000; stroke-linecap:butt; stroke-linejoin:round; stroke-width:2; stroke-opacity:0.1; fill:none" points="
  397.432,592.498 2352.76,592.498 
  "/>
<polyline clip-path="url(#clip272)" style="stroke:#000000; stroke-linecap:butt; stroke-linejoin:round; stroke-width:2; stroke-opacity:0.1; fill:none" points="
  397.432,413.738 2352.76,413.738 
  "/>
<polyline clip-path="url(#clip272)" style="stroke:#000000; stroke-linecap:butt; stroke-linejoin:round; stroke-width:2; stroke-opacity:0.1; fill:none" points="
  397.432,234.978 2352.76,234.978 
  "/>
<polyline clip-path="url(#clip270)" style="stroke:#000000; stroke-linecap:butt; stroke-linejoin:round; stroke-width:4; stroke-opacity:1; fill:none" points="
  397.432,1423.18 397.432,123.472 
  "/>
<polyline clip-path="url(#clip270)" style="stroke:#000000; stroke-linecap:butt; stroke-linejoin:round; stroke-width:4; stroke-opacity:1; fill:none" points="
  397.432,1307.54 416.33,1307.54 
  "/>
<polyline clip-path="url(#clip270)" style="stroke:#000000; stroke-linecap:butt; stroke-linejoin:round; stroke-width:4; stroke-opacity:1; fill:none" points="
  397.432,1128.78 416.33,1128.78 
  "/>
<polyline clip-path="url(#clip270)" style="stroke:#000000; stroke-linecap:butt; stroke-linejoin:round; stroke-width:4; stroke-opacity:1; fill:none" points="
  397.432,950.018 416.33,950.018 
  "/>
<polyline clip-path="url(#clip270)" style="stroke:#000000; stroke-linecap:butt; stroke-linejoin:round; stroke-width:4; stroke-opacity:1; fill:none" points="
  397.432,771.258 416.33,771.258 
  "/>
<polyline clip-path="url(#clip270)" style="stroke:#000000; stroke-linecap:butt; stroke-linejoin:round; stroke-width:4; stroke-opacity:1; fill:none" points="
  397.432,592.498 416.33,592.498 
  "/>
<polyline clip-path="url(#clip270)" style="stroke:#000000; stroke-linecap:butt; stroke-linejoin:round; stroke-width:4; stroke-opacity:1; fill:none" points="
  397.432,413.738 416.33,413.738 
  "/>
<polyline clip-path="url(#clip270)" style="stroke:#000000; stroke-linecap:butt; stroke-linejoin:round; stroke-width:4; stroke-opacity:1; fill:none" points="
  397.432,234.978 416.33,234.978 
  "/>
<path clip-path="url(#clip270)" d="M129.885 1312.63 Q133.242 1313.35 135.117 1315.62 Q137.015 1317.89 137.015 1321.22 Q137.015 1326.33 133.496 1329.14 Q129.978 1331.94 123.496 1331.94 Q121.32 1331.94 119.006 1331.5 Q116.714 1331.08 114.26 1330.22 L114.26 1325.71 Q116.205 1326.84 118.519 1327.42 Q120.834 1328 123.357 1328 Q127.755 1328 130.047 1326.27 Q132.362 1324.53 132.362 1321.22 Q132.362 1318.16 130.209 1316.45 Q128.08 1314.71 124.26 1314.71 L120.232 1314.71 L120.232 1310.87 L124.445 1310.87 Q127.894 1310.87 129.723 1309.51 Q131.552 1308.12 131.552 1305.52 Q131.552 1302.86 129.654 1301.45 Q127.779 1300.02 124.26 1300.02 Q122.339 1300.02 120.14 1300.43 Q117.941 1300.85 115.302 1301.73 L115.302 1297.56 Q117.964 1296.82 120.279 1296.45 Q122.617 1296.08 124.677 1296.08 Q130.001 1296.08 133.103 1298.51 Q136.204 1300.92 136.204 1305.04 Q136.204 1307.91 134.561 1309.9 Q132.917 1311.87 129.885 1312.63 Z" fill="#000000" fill-rule="evenodd" fill-opacity="1" /><path clip-path="url(#clip270)" d="M145.88 1325.39 L150.765 1325.39 L150.765 1331.27 L145.88 1331.27 L145.88 1325.39 Z" fill="#000000" fill-rule="evenodd" fill-opacity="1" /><path clip-path="url(#clip270)" d="M164.977 1327.33 L181.297 1327.33 L181.297 1331.27 L159.353 1331.27 L159.353 1327.33 Q162.015 1324.58 166.598 1319.95 Q171.204 1315.29 172.385 1313.95 Q174.63 1311.43 175.51 1309.69 Q176.413 1307.93 176.413 1306.24 Q176.413 1303.49 174.468 1301.75 Q172.547 1300.02 169.445 1300.02 Q167.246 1300.02 164.792 1300.78 Q162.362 1301.54 159.584 1303.09 L159.584 1298.37 Q162.408 1297.24 164.862 1296.66 Q167.315 1296.08 169.352 1296.08 Q174.723 1296.08 177.917 1298.77 Q181.112 1301.45 181.112 1305.94 Q181.112 1308.07 180.301 1309.99 Q179.514 1311.89 177.408 1314.48 Q176.829 1315.15 173.727 1318.37 Q170.626 1321.57 164.977 1327.33 Z" fill="#000000" fill-rule="evenodd" fill-opacity="1" /><path clip-path="url(#clip270)" d="M195.139 1327.33 L211.459 1327.33 L211.459 1331.27 L189.514 1331.27 L189.514 1327.33 Q192.176 1324.58 196.76 1319.95 Q201.366 1315.29 202.547 1313.95 Q204.792 1311.43 205.672 1309.69 Q206.574 1307.93 206.574 1306.24 Q206.574 1303.49 204.63 1301.75 Q202.709 1300.02 199.607 1300.02 Q197.408 1300.02 194.954 1300.78 Q192.524 1301.54 189.746 1303.09 L189.746 1298.37 Q192.57 1297.24 195.024 1296.66 Q197.477 1296.08 199.514 1296.08 Q204.885 1296.08 208.079 1298.77 Q211.274 1301.45 211.274 1305.94 Q211.274 1308.07 210.463 1309.99 Q209.676 1311.89 207.57 1314.48 Q206.991 1315.15 203.889 1318.37 Q200.787 1321.57 195.139 1327.33 Z" fill="#000000" fill-rule="evenodd" fill-opacity="1" /><path clip-path="url(#clip270)" d="M231.273 1299.78 Q227.662 1299.78 225.834 1303.35 Q224.028 1306.89 224.028 1314.02 Q224.028 1321.13 225.834 1324.69 Q227.662 1328.23 231.273 1328.23 Q234.908 1328.23 236.713 1324.69 Q238.542 1321.13 238.542 1314.02 Q238.542 1306.89 236.713 1303.35 Q234.908 1299.78 231.273 1299.78 M231.273 1296.08 Q237.084 1296.08 240.139 1300.69 Q243.218 1305.27 243.218 1314.02 Q243.218 1322.75 240.139 1327.35 Q237.084 1331.94 231.273 1331.94 Q225.463 1331.94 222.385 1327.35 Q219.329 1322.75 219.329 1314.02 Q219.329 1305.27 222.385 1300.69 Q225.463 1296.08 231.273 1296.08 Z" fill="#000000" fill-rule="evenodd" fill-opacity="1" /><path clip-path="url(#clip270)" d="M279.606 1305.8 L269.028 1316.43 L279.606 1327.01 L276.852 1329.81 L266.227 1319.18 L255.602 1329.81 L252.871 1327.01 L263.426 1316.43 L252.871 1305.8 L255.602 1303 L266.227 1313.63 L276.852 1303 L279.606 1305.8 Z" fill="#000000" fill-rule="evenodd" fill-opacity="1" /><path clip-path="url(#clip270)" d="M291.968 1327.33 L299.606 1327.33 L299.606 1300.96 L291.296 1302.63 L291.296 1298.37 L299.56 1296.71 L304.236 1296.71 L304.236 1327.33 L311.875 1327.33 L311.875 1331.27 L291.968 1331.27 L291.968 1327.33 Z" fill="#000000" fill-rule="evenodd" fill-opacity="1" /><path clip-path="url(#clip270)" d="M331.319 1299.78 Q327.708 1299.78 325.879 1303.35 Q324.074 1306.89 324.074 1314.02 Q324.074 1321.13 325.879 1324.69 Q327.708 1328.23 331.319 1328.23 Q334.953 1328.23 336.759 1324.69 Q338.588 1321.13 338.588 1314.02 Q338.588 1306.89 336.759 1303.35 Q334.953 1299.78 331.319 1299.78 M331.319 1296.08 Q337.129 1296.08 340.185 1300.69 Q343.264 1305.27 343.264 1314.02 Q343.264 1322.75 340.185 1327.35 Q337.129 1331.94 331.319 1331.94 Q325.509 1331.94 322.43 1327.35 Q319.375 1322.75 319.375 1314.02 Q319.375 1305.27 322.43 1300.69 Q325.509 1296.08 331.319 1296.08 Z" fill="#000000" fill-rule="evenodd" fill-opacity="1" /><path clip-path="url(#clip270)" d="M344.448 1275.77 L359.363 1275.77 L359.363 1278.97 L347.928 1278.97 L347.928 1285.86 Q348.755 1285.57 349.583 1285.44 Q350.411 1285.29 351.238 1285.29 Q355.94 1285.29 358.686 1287.87 Q361.432 1290.44 361.432 1294.85 Q361.432 1299.38 358.611 1301.9 Q355.79 1304.4 350.655 1304.4 Q348.887 1304.4 347.044 1304.1 Q345.22 1303.8 343.264 1303.2 L343.264 1299.38 Q344.956 1300.3 346.762 1300.75 Q348.567 1301.2 350.58 1301.2 Q353.834 1301.2 355.733 1299.49 Q357.633 1297.78 357.633 1294.85 Q357.633 1291.91 355.733 1290.2 Q353.834 1288.49 350.58 1288.49 Q349.056 1288.49 347.533 1288.83 Q346.028 1289.17 344.448 1289.88 L344.448 1275.77 Z" fill="#000000" fill-rule="evenodd" fill-opacity="1" /><path clip-path="url(#clip270)" d="M129.885 1133.87 Q133.242 1134.59 135.117 1136.86 Q137.015 1139.13 137.015 1142.46 Q137.015 1147.57 133.496 1150.38 Q129.978 1153.18 123.496 1153.18 Q121.32 1153.18 119.006 1152.74 Q116.714 1152.32 114.26 1151.46 L114.26 1146.95 Q116.205 1148.08 118.519 1148.66 Q120.834 1149.24 123.357 1149.24 Q127.755 1149.24 130.047 1147.51 Q132.362 1145.77 132.362 1142.46 Q132.362 1139.4 130.209 1137.69 Q128.08 1135.95 124.26 1135.95 L120.232 1135.95 L120.232 1132.11 L124.445 1132.11 Q127.894 1132.11 129.723 1130.75 Q131.552 1129.36 131.552 1126.76 Q131.552 1124.1 129.654 1122.69 Q127.779 1121.26 124.26 1121.26 Q122.339 1121.26 120.14 1121.67 Q117.941 1122.09 115.302 1122.97 L115.302 1118.8 Q117.964 1118.06 120.279 1117.69 Q122.617 1117.32 124.677 1117.32 Q130.001 1117.32 133.103 1119.75 Q136.204 1122.16 136.204 1126.28 Q136.204 1129.15 134.561 1131.14 Q132.917 1133.11 129.885 1133.87 Z" fill="#000000" fill-rule="evenodd" fill-opacity="1" /><path clip-path="url(#clip270)" d="M145.88 1146.63 L150.765 1146.63 L150.765 1152.51 L145.88 1152.51 L145.88 1146.63 Z" fill="#000000" fill-rule="evenodd" fill-opacity="1" /><path clip-path="url(#clip270)" d="M164.977 1148.57 L181.297 1148.57 L181.297 1152.51 L159.353 1152.51 L159.353 1148.57 Q162.015 1145.82 166.598 1141.19 Q171.204 1136.53 172.385 1135.19 Q174.63 1132.67 175.51 1130.93 Q176.413 1129.17 176.413 1127.48 Q176.413 1124.73 174.468 1122.99 Q172.547 1121.26 169.445 1121.26 Q167.246 1121.26 164.792 1122.02 Q162.362 1122.78 159.584 1124.33 L159.584 1119.61 Q162.408 1118.48 164.862 1117.9 Q167.315 1117.32 169.352 1117.32 Q174.723 1117.32 177.917 1120.01 Q181.112 1122.69 181.112 1127.18 Q181.112 1129.31 180.301 1131.23 Q179.514 1133.13 177.408 1135.72 Q176.829 1136.39 173.727 1139.61 Q170.626 1142.81 164.977 1148.57 Z" fill="#000000" fill-rule="evenodd" fill-opacity="1" /><path clip-path="url(#clip270)" d="M203.959 1122.02 L192.153 1140.47 L203.959 1140.47 L203.959 1122.02 M202.732 1117.95 L208.612 1117.95 L208.612 1140.47 L213.542 1140.47 L213.542 1144.36 L208.612 1144.36 L208.612 1152.51 L203.959 1152.51 L203.959 1144.36 L188.357 1144.36 L188.357 1139.84 L202.732 1117.95 Z" fill="#000000" fill-rule="evenodd" fill-opacity="1" /><path clip-path="url(#clip270)" d="M231.273 1121.02 Q227.662 1121.02 225.834 1124.59 Q224.028 1128.13 224.028 1135.26 Q224.028 1142.37 225.834 1145.93 Q227.662 1149.47 231.273 1149.47 Q234.908 1149.47 236.713 1145.93 Q238.542 1142.37 238.542 1135.26 Q238.542 1128.13 236.713 1124.59 Q234.908 1121.02 231.273 1121.02 M231.273 1117.32 Q237.084 1117.32 240.139 1121.93 Q243.218 1126.51 243.218 1135.26 Q243.218 1143.99 240.139 1148.59 Q237.084 1153.18 231.273 1153.18 Q225.463 1153.18 222.385 1148.59 Q219.329 1143.99 219.329 1135.26 Q219.329 1126.51 222.385 1121.93 Q225.463 1117.32 231.273 1117.32 Z" fill="#000000" fill-rule="evenodd" fill-opacity="1" /><path clip-path="url(#clip270)" d="M279.606 1127.04 L269.028 1137.67 L279.606 1148.25 L276.852 1151.05 L266.227 1140.42 L255.602 1151.05 L252.871 1148.25 L263.426 1137.67 L252.871 1127.04 L255.602 1124.24 L266.227 1134.87 L276.852 1124.24 L279.606 1127.04 Z" fill="#000000" fill-rule="evenodd" fill-opacity="1" /><path clip-path="url(#clip270)" d="M291.968 1148.57 L299.606 1148.57 L299.606 1122.2 L291.296 1123.87 L291.296 1119.61 L299.56 1117.95 L304.236 1117.95 L304.236 1148.57 L311.875 1148.57 L311.875 1152.51 L291.968 1152.51 L291.968 1148.57 Z" fill="#000000" fill-rule="evenodd" fill-opacity="1" /><path clip-path="url(#clip270)" d="M331.319 1121.02 Q327.708 1121.02 325.879 1124.59 Q324.074 1128.13 324.074 1135.26 Q324.074 1142.37 325.879 1145.93 Q327.708 1149.47 331.319 1149.47 Q334.953 1149.47 336.759 1145.93 Q338.588 1142.37 338.588 1135.26 Q338.588 1128.13 336.759 1124.59 Q334.953 1121.02 331.319 1121.02 M331.319 1117.32 Q337.129 1117.32 340.185 1121.93 Q343.264 1126.51 343.264 1135.26 Q343.264 1143.99 340.185 1148.59 Q337.129 1153.18 331.319 1153.18 Q325.509 1153.18 322.43 1148.59 Q319.375 1143.99 319.375 1135.26 Q319.375 1126.51 322.43 1121.93 Q325.509 1117.32 331.319 1117.32 Z" fill="#000000" fill-rule="evenodd" fill-opacity="1" /><path clip-path="url(#clip270)" d="M344.448 1097.01 L359.363 1097.01 L359.363 1100.21 L347.928 1100.21 L347.928 1107.1 Q348.755 1106.81 349.583 1106.68 Q350.411 1106.53 351.238 1106.53 Q355.94 1106.53 358.686 1109.11 Q361.432 1111.68 361.432 1116.09 Q361.432 1120.62 358.611 1123.14 Q355.79 1125.64 350.655 1125.64 Q348.887 1125.64 347.044 1125.34 Q345.22 1125.04 343.264 1124.44 L343.264 1120.62 Q344.956 1121.54 346.762 1121.99 Q348.567 1122.44 350.58 1122.44 Q353.834 1122.44 355.733 1120.73 Q357.633 1119.02 357.633 1116.09 Q357.633 1113.15 355.733 1111.44 Q353.834 1109.73 350.58 1109.73 Q349.056 1109.73 347.533 1110.07 Q346.028 1110.41 344.448 1111.12 L344.448 1097.01 Z" fill="#000000" fill-rule="evenodd" fill-opacity="1" /><path clip-path="url(#clip270)" d="M129.885 955.111 Q133.242 955.829 135.117 958.097 Q137.015 960.366 137.015 963.699 Q137.015 968.815 133.496 971.616 Q129.978 974.417 123.496 974.417 Q121.32 974.417 119.006 973.977 Q116.714 973.56 114.26 972.704 L114.26 968.19 Q116.205 969.324 118.519 969.903 Q120.834 970.481 123.357 970.481 Q127.755 970.481 130.047 968.745 Q132.362 967.009 132.362 963.699 Q132.362 960.644 130.209 958.931 Q128.08 957.195 124.26 957.195 L120.232 957.195 L120.232 953.352 L124.445 953.352 Q127.894 953.352 129.723 951.986 Q131.552 950.597 131.552 948.005 Q131.552 945.343 129.654 943.931 Q127.779 942.496 124.26 942.496 Q122.339 942.496 120.14 942.912 Q117.941 943.329 115.302 944.208 L115.302 940.042 Q117.964 939.301 120.279 938.931 Q122.617 938.56 124.677 938.56 Q130.001 938.56 133.103 940.991 Q136.204 943.398 136.204 947.519 Q136.204 950.389 134.561 952.38 Q132.917 954.347 129.885 955.111 Z" fill="#000000" fill-rule="evenodd" fill-opacity="1" /><path clip-path="url(#clip270)" d="M145.88 967.866 L150.765 967.866 L150.765 973.745 L145.88 973.745 L145.88 967.866 Z" fill="#000000" fill-rule="evenodd" fill-opacity="1" /><path clip-path="url(#clip270)" d="M164.977 969.81 L181.297 969.81 L181.297 973.745 L159.353 973.745 L159.353 969.81 Q162.015 967.056 166.598 962.426 Q171.204 957.773 172.385 956.431 Q174.63 953.907 175.51 952.171 Q176.413 950.412 176.413 948.722 Q176.413 945.968 174.468 944.232 Q172.547 942.496 169.445 942.496 Q167.246 942.496 164.792 943.259 Q162.362 944.023 159.584 945.574 L159.584 940.852 Q162.408 939.718 164.862 939.139 Q167.315 938.56 169.352 938.56 Q174.723 938.56 177.917 941.246 Q181.112 943.931 181.112 948.421 Q181.112 950.551 180.301 952.472 Q179.514 954.37 177.408 956.963 Q176.829 957.634 173.727 960.852 Q170.626 964.046 164.977 969.81 Z" fill="#000000" fill-rule="evenodd" fill-opacity="1" /><path clip-path="url(#clip270)" d="M201.69 954.602 Q198.542 954.602 196.69 956.755 Q194.862 958.907 194.862 962.657 Q194.862 966.384 196.69 968.56 Q198.542 970.713 201.69 970.713 Q204.838 970.713 206.667 968.56 Q208.519 966.384 208.519 962.657 Q208.519 958.907 206.667 956.755 Q204.838 954.602 201.69 954.602 M210.973 939.949 L210.973 944.208 Q209.213 943.375 207.408 942.935 Q205.625 942.496 203.866 942.496 Q199.237 942.496 196.783 945.62 Q194.352 948.745 194.005 955.065 Q195.371 953.051 197.431 951.986 Q199.491 950.898 201.968 950.898 Q207.176 950.898 210.186 954.07 Q213.218 957.218 213.218 962.657 Q213.218 967.981 210.07 971.199 Q206.922 974.417 201.69 974.417 Q195.695 974.417 192.524 969.833 Q189.352 965.227 189.352 956.5 Q189.352 948.306 193.241 943.445 Q197.13 938.56 203.681 938.56 Q205.44 938.56 207.223 938.908 Q209.028 939.255 210.973 939.949 Z" fill="#000000" fill-rule="evenodd" fill-opacity="1" /><path clip-path="url(#clip270)" d="M231.273 942.264 Q227.662 942.264 225.834 945.829 Q224.028 949.37 224.028 956.5 Q224.028 963.607 225.834 967.171 Q227.662 970.713 231.273 970.713 Q234.908 970.713 236.713 967.171 Q238.542 963.607 238.542 956.5 Q238.542 949.37 236.713 945.829 Q234.908 942.264 231.273 942.264 M231.273 938.56 Q237.084 938.56 240.139 943.167 Q243.218 947.75 243.218 956.5 Q243.218 965.227 240.139 969.833 Q237.084 974.417 231.273 974.417 Q225.463 974.417 222.385 969.833 Q219.329 965.227 219.329 956.5 Q219.329 947.75 222.385 943.167 Q225.463 938.56 231.273 938.56 Z" fill="#000000" fill-rule="evenodd" fill-opacity="1" /><path clip-path="url(#clip270)" d="M279.606 948.283 L269.028 958.907 L279.606 969.486 L276.852 972.287 L266.227 961.662 L255.602 972.287 L252.871 969.486 L263.426 958.907 L252.871 948.283 L255.602 945.482 L266.227 956.107 L276.852 945.482 L279.606 948.283 Z" fill="#000000" fill-rule="evenodd" fill-opacity="1" /><path clip-path="url(#clip270)" d="M291.968 969.81 L299.606 969.81 L299.606 943.445 L291.296 945.111 L291.296 940.852 L299.56 939.185 L304.236 939.185 L304.236 969.81 L311.875 969.81 L311.875 973.745 L291.968 973.745 L291.968 969.81 Z" fill="#000000" fill-rule="evenodd" fill-opacity="1" /><path clip-path="url(#clip270)" d="M331.319 942.264 Q327.708 942.264 325.879 945.829 Q324.074 949.37 324.074 956.5 Q324.074 963.607 325.879 967.171 Q327.708 970.713 331.319 970.713 Q334.953 970.713 336.759 967.171 Q338.588 963.607 338.588 956.5 Q338.588 949.37 336.759 945.829 Q334.953 942.264 331.319 942.264 M331.319 938.56 Q337.129 938.56 340.185 943.167 Q343.264 947.75 343.264 956.5 Q343.264 965.227 340.185 969.833 Q337.129 974.417 331.319 974.417 Q325.509 974.417 322.43 969.833 Q319.375 965.227 319.375 956.5 Q319.375 947.75 322.43 943.167 Q325.509 938.56 331.319 938.56 Z" fill="#000000" fill-rule="evenodd" fill-opacity="1" /><path clip-path="url(#clip270)" d="M344.448 918.255 L359.363 918.255 L359.363 921.452 L347.928 921.452 L347.928 928.336 Q348.755 928.054 349.583 927.922 Q350.411 927.772 351.238 927.772 Q355.94 927.772 358.686 930.348 Q361.432 932.925 361.432 937.326 Q361.432 941.859 358.611 944.379 Q355.79 946.88 350.655 946.88 Q348.887 946.88 347.044 946.579 Q345.22 946.279 343.264 945.677 L343.264 941.859 Q344.956 942.78 346.762 943.232 Q348.567 943.683 350.58 943.683 Q353.834 943.683 355.733 941.972 Q357.633 940.26 357.633 937.326 Q357.633 934.392 355.733 932.681 Q353.834 930.969 350.58 930.969 Q349.056 930.969 347.533 931.308 Q346.028 931.646 344.448 932.361 L344.448 918.255 Z" fill="#000000" fill-rule="evenodd" fill-opacity="1" /><path clip-path="url(#clip270)" d="M129.885 776.351 Q133.242 777.069 135.117 779.337 Q137.015 781.606 137.015 784.939 Q137.015 790.055 133.496 792.856 Q129.978 795.657 123.496 795.657 Q121.32 795.657 119.006 795.217 Q116.714 794.8 114.26 793.944 L114.26 789.43 Q116.205 790.564 118.519 791.143 Q120.834 791.722 123.357 791.722 Q127.755 791.722 130.047 789.985 Q132.362 788.249 132.362 784.939 Q132.362 781.884 130.209 780.171 Q128.08 778.435 124.26 778.435 L120.232 778.435 L120.232 774.592 L124.445 774.592 Q127.894 774.592 129.723 773.226 Q131.552 771.837 131.552 769.245 Q131.552 766.583 129.654 765.171 Q127.779 763.736 124.26 763.736 Q122.339 763.736 120.14 764.152 Q117.941 764.569 115.302 765.449 L115.302 761.282 Q117.964 760.541 120.279 760.171 Q122.617 759.8 124.677 759.8 Q130.001 759.8 133.103 762.231 Q136.204 764.638 136.204 768.759 Q136.204 771.629 134.561 773.62 Q132.917 775.587 129.885 776.351 Z" fill="#000000" fill-rule="evenodd" fill-opacity="1" /><path clip-path="url(#clip270)" d="M145.88 789.106 L150.765 789.106 L150.765 794.985 L145.88 794.985 L145.88 789.106 Z" fill="#000000" fill-rule="evenodd" fill-opacity="1" /><path clip-path="url(#clip270)" d="M164.977 791.05 L181.297 791.05 L181.297 794.985 L159.353 794.985 L159.353 791.05 Q162.015 788.296 166.598 783.666 Q171.204 779.013 172.385 777.671 Q174.63 775.148 175.51 773.411 Q176.413 771.652 176.413 769.962 Q176.413 767.208 174.468 765.472 Q172.547 763.736 169.445 763.736 Q167.246 763.736 164.792 764.499 Q162.362 765.263 159.584 766.814 L159.584 762.092 Q162.408 760.958 164.862 760.379 Q167.315 759.8 169.352 759.8 Q174.723 759.8 177.917 762.486 Q181.112 765.171 181.112 769.661 Q181.112 771.791 180.301 773.712 Q179.514 775.611 177.408 778.203 Q176.829 778.874 173.727 782.092 Q170.626 785.286 164.977 791.05 Z" fill="#000000" fill-rule="evenodd" fill-opacity="1" /><path clip-path="url(#clip270)" d="M201.112 778.573 Q197.778 778.573 195.857 780.356 Q193.959 782.138 193.959 785.263 Q193.959 788.388 195.857 790.171 Q197.778 791.953 201.112 791.953 Q204.445 791.953 206.366 790.171 Q208.287 788.365 208.287 785.263 Q208.287 782.138 206.366 780.356 Q204.468 778.573 201.112 778.573 M196.436 776.583 Q193.426 775.842 191.737 773.782 Q190.07 771.722 190.07 768.759 Q190.07 764.615 193.01 762.208 Q195.973 759.8 201.112 759.8 Q206.274 759.8 209.213 762.208 Q212.153 764.615 212.153 768.759 Q212.153 771.722 210.463 773.782 Q208.797 775.842 205.811 776.583 Q209.19 777.37 211.065 779.661 Q212.963 781.953 212.963 785.263 Q212.963 790.286 209.885 792.972 Q206.829 795.657 201.112 795.657 Q195.394 795.657 192.315 792.972 Q189.26 790.286 189.26 785.263 Q189.26 781.953 191.158 779.661 Q193.056 777.37 196.436 776.583 M194.723 769.198 Q194.723 771.884 196.389 773.388 Q198.079 774.893 201.112 774.893 Q204.121 774.893 205.811 773.388 Q207.524 771.884 207.524 769.198 Q207.524 766.513 205.811 765.009 Q204.121 763.504 201.112 763.504 Q198.079 763.504 196.389 765.009 Q194.723 766.513 194.723 769.198 Z" fill="#000000" fill-rule="evenodd" fill-opacity="1" /><path clip-path="url(#clip270)" d="M231.273 763.504 Q227.662 763.504 225.834 767.069 Q224.028 770.611 224.028 777.74 Q224.028 784.847 225.834 788.411 Q227.662 791.953 231.273 791.953 Q234.908 791.953 236.713 788.411 Q238.542 784.847 238.542 777.74 Q238.542 770.611 236.713 767.069 Q234.908 763.504 231.273 763.504 M231.273 759.8 Q237.084 759.8 240.139 764.407 Q243.218 768.99 243.218 777.74 Q243.218 786.467 240.139 791.073 Q237.084 795.657 231.273 795.657 Q225.463 795.657 222.385 791.073 Q219.329 786.467 219.329 777.74 Q219.329 768.99 222.385 764.407 Q225.463 759.8 231.273 759.8 Z" fill="#000000" fill-rule="evenodd" fill-opacity="1" /><path clip-path="url(#clip270)" d="M279.606 769.523 L269.028 780.148 L279.606 790.726 L276.852 793.527 L266.227 782.902 L255.602 793.527 L252.871 790.726 L263.426 780.148 L252.871 769.523 L255.602 766.722 L266.227 777.347 L276.852 766.722 L279.606 769.523 Z" fill="#000000" fill-rule="evenodd" fill-opacity="1" /><path clip-path="url(#clip270)" d="M291.968 791.05 L299.606 791.05 L299.606 764.685 L291.296 766.351 L291.296 762.092 L299.56 760.425 L304.236 760.425 L304.236 791.05 L311.875 791.05 L311.875 794.985 L291.968 794.985 L291.968 791.05 Z" fill="#000000" fill-rule="evenodd" fill-opacity="1" /><path clip-path="url(#clip270)" d="M331.319 763.504 Q327.708 763.504 325.879 767.069 Q324.074 770.611 324.074 777.74 Q324.074 784.847 325.879 788.411 Q327.708 791.953 331.319 791.953 Q334.953 791.953 336.759 788.411 Q338.588 784.847 338.588 777.74 Q338.588 770.611 336.759 767.069 Q334.953 763.504 331.319 763.504 M331.319 759.8 Q337.129 759.8 340.185 764.407 Q343.264 768.99 343.264 777.74 Q343.264 786.467 340.185 791.073 Q337.129 795.657 331.319 795.657 Q325.509 795.657 322.43 791.073 Q319.375 786.467 319.375 777.74 Q319.375 768.99 322.43 764.407 Q325.509 759.8 331.319 759.8 Z" fill="#000000" fill-rule="evenodd" fill-opacity="1" /><path clip-path="url(#clip270)" d="M344.448 739.495 L359.363 739.495 L359.363 742.692 L347.928 742.692 L347.928 749.576 Q348.755 749.294 349.583 749.162 Q350.411 749.012 351.238 749.012 Q355.94 749.012 358.686 751.588 Q361.432 754.165 361.432 758.566 Q361.432 763.099 358.611 765.619 Q355.79 768.12 350.655 768.12 Q348.887 768.12 347.044 767.819 Q345.22 767.519 343.264 766.917 L343.264 763.099 Q344.956 764.02 346.762 764.472 Q348.567 764.923 350.58 764.923 Q353.834 764.923 355.733 763.212 Q357.633 761.5 357.633 758.566 Q357.633 755.632 355.733 753.921 Q353.834 752.209 350.58 752.209 Q349.056 752.209 347.533 752.548 Q346.028 752.886 344.448 753.601 L344.448 739.495 Z" fill="#000000" fill-rule="evenodd" fill-opacity="1" /><path clip-path="url(#clip270)" d="M129.885 597.591 Q133.242 598.309 135.117 600.577 Q137.015 602.846 137.015 606.179 Q137.015 611.295 133.496 614.096 Q129.978 616.897 123.496 616.897 Q121.32 616.897 119.006 616.457 Q116.714 616.04 114.26 615.184 L114.26 610.67 Q116.205 611.804 118.519 612.383 Q120.834 612.962 123.357 612.962 Q127.755 612.962 130.047 611.225 Q132.362 609.489 132.362 606.179 Q132.362 603.124 130.209 601.411 Q128.08 599.675 124.26 599.675 L120.232 599.675 L120.232 595.832 L124.445 595.832 Q127.894 595.832 129.723 594.466 Q131.552 593.077 131.552 590.485 Q131.552 587.823 129.654 586.411 Q127.779 584.976 124.26 584.976 Q122.339 584.976 120.14 585.392 Q117.941 585.809 115.302 586.689 L115.302 582.522 Q117.964 581.781 120.279 581.411 Q122.617 581.04 124.677 581.04 Q130.001 581.04 133.103 583.471 Q136.204 585.878 136.204 589.999 Q136.204 592.869 134.561 594.86 Q132.917 596.827 129.885 597.591 Z" fill="#000000" fill-rule="evenodd" fill-opacity="1" /><path clip-path="url(#clip270)" d="M145.88 610.346 L150.765 610.346 L150.765 616.225 L145.88 616.225 L145.88 610.346 Z" fill="#000000" fill-rule="evenodd" fill-opacity="1" /><path clip-path="url(#clip270)" d="M175.116 597.591 Q178.473 598.309 180.348 600.577 Q182.246 602.846 182.246 606.179 Q182.246 611.295 178.727 614.096 Q175.209 616.897 168.727 616.897 Q166.552 616.897 164.237 616.457 Q161.945 616.04 159.491 615.184 L159.491 610.67 Q161.436 611.804 163.751 612.383 Q166.065 612.962 168.589 612.962 Q172.987 612.962 175.278 611.225 Q177.593 609.489 177.593 606.179 Q177.593 603.124 175.44 601.411 Q173.311 599.675 169.491 599.675 L165.464 599.675 L165.464 595.832 L169.677 595.832 Q173.126 595.832 174.954 594.466 Q176.783 593.077 176.783 590.485 Q176.783 587.823 174.885 586.411 Q173.01 584.976 169.491 584.976 Q167.57 584.976 165.371 585.392 Q163.172 585.809 160.533 586.689 L160.533 582.522 Q163.195 581.781 165.51 581.411 Q167.848 581.04 169.908 581.04 Q175.232 581.04 178.334 583.471 Q181.436 585.878 181.436 589.999 Q181.436 592.869 179.792 594.86 Q178.149 596.827 175.116 597.591 Z" fill="#000000" fill-rule="evenodd" fill-opacity="1" /><path clip-path="url(#clip270)" d="M201.112 584.744 Q197.5 584.744 195.672 588.309 Q193.866 591.851 193.866 598.98 Q193.866 606.087 195.672 609.651 Q197.5 613.193 201.112 613.193 Q204.746 613.193 206.551 609.651 Q208.38 606.087 208.38 598.98 Q208.38 591.851 206.551 588.309 Q204.746 584.744 201.112 584.744 M201.112 581.04 Q206.922 581.04 209.977 585.647 Q213.056 590.23 213.056 598.98 Q213.056 607.707 209.977 612.313 Q206.922 616.897 201.112 616.897 Q195.301 616.897 192.223 612.313 Q189.167 607.707 189.167 598.98 Q189.167 590.23 192.223 585.647 Q195.301 581.04 201.112 581.04 Z" fill="#000000" fill-rule="evenodd" fill-opacity="1" /><path clip-path="url(#clip270)" d="M231.273 584.744 Q227.662 584.744 225.834 588.309 Q224.028 591.851 224.028 598.98 Q224.028 606.087 225.834 609.651 Q227.662 613.193 231.273 613.193 Q234.908 613.193 236.713 609.651 Q238.542 606.087 238.542 598.98 Q238.542 591.851 236.713 588.309 Q234.908 584.744 231.273 584.744 M231.273 581.04 Q237.084 581.04 240.139 585.647 Q243.218 590.23 243.218 598.98 Q243.218 607.707 240.139 612.313 Q237.084 616.897 231.273 616.897 Q225.463 616.897 222.385 612.313 Q219.329 607.707 219.329 598.98 Q219.329 590.23 222.385 585.647 Q225.463 581.04 231.273 581.04 Z" fill="#000000" fill-rule="evenodd" fill-opacity="1" /><path clip-path="url(#clip270)" d="M279.606 590.763 L269.028 601.388 L279.606 611.966 L276.852 614.767 L266.227 604.142 L255.602 614.767 L252.871 611.966 L263.426 601.388 L252.871 590.763 L255.602 587.962 L266.227 598.587 L276.852 587.962 L279.606 590.763 Z" fill="#000000" fill-rule="evenodd" fill-opacity="1" /><path clip-path="url(#clip270)" d="M291.968 612.29 L299.606 612.29 L299.606 585.925 L291.296 587.591 L291.296 583.332 L299.56 581.665 L304.236 581.665 L304.236 612.29 L311.875 612.29 L311.875 616.225 L291.968 616.225 L291.968 612.29 Z" fill="#000000" fill-rule="evenodd" fill-opacity="1" /><path clip-path="url(#clip270)" d="M331.319 584.744 Q327.708 584.744 325.879 588.309 Q324.074 591.851 324.074 598.98 Q324.074 606.087 325.879 609.651 Q327.708 613.193 331.319 613.193 Q334.953 613.193 336.759 609.651 Q338.588 606.087 338.588 598.98 Q338.588 591.851 336.759 588.309 Q334.953 584.744 331.319 584.744 M331.319 581.04 Q337.129 581.04 340.185 585.647 Q343.264 590.23 343.264 598.98 Q343.264 607.707 340.185 612.313 Q337.129 616.897 331.319 616.897 Q325.509 616.897 322.43 612.313 Q319.375 607.707 319.375 598.98 Q319.375 590.23 322.43 585.647 Q325.509 581.04 331.319 581.04 Z" fill="#000000" fill-rule="evenodd" fill-opacity="1" /><path clip-path="url(#clip270)" d="M344.448 560.735 L359.363 560.735 L359.363 563.932 L347.928 563.932 L347.928 570.816 Q348.755 570.534 349.583 570.402 Q350.411 570.252 351.238 570.252 Q355.94 570.252 358.686 572.828 Q361.432 575.405 361.432 579.806 Q361.432 584.339 358.611 586.859 Q355.79 589.36 350.655 589.36 Q348.887 589.36 347.044 589.06 Q345.22 588.759 343.264 588.157 L343.264 584.339 Q344.956 585.26 346.762 585.712 Q348.567 586.163 350.58 586.163 Q353.834 586.163 355.733 584.452 Q357.633 582.74 357.633 579.806 Q357.633 576.872 355.733 575.161 Q353.834 573.449 350.58 573.449 Q349.056 573.449 347.533 573.788 Q346.028 574.126 344.448 574.841 L344.448 560.735 Z" fill="#000000" fill-rule="evenodd" fill-opacity="1" /><path clip-path="url(#clip270)" d="M129.885 418.831 Q133.242 419.549 135.117 421.817 Q137.015 424.086 137.015 427.419 Q137.015 432.535 133.496 435.336 Q129.978 438.137 123.496 438.137 Q121.32 438.137 119.006 437.697 Q116.714 437.28 114.26 436.424 L114.26 431.91 Q116.205 433.044 118.519 433.623 Q120.834 434.202 123.357 434.202 Q127.755 434.202 130.047 432.466 Q132.362 430.729 132.362 427.419 Q132.362 424.364 130.209 422.651 Q128.08 420.915 124.26 420.915 L120.232 420.915 L120.232 417.072 L124.445 417.072 Q127.894 417.072 129.723 415.706 Q131.552 414.317 131.552 411.725 Q131.552 409.063 129.654 407.651 Q127.779 406.216 124.26 406.216 Q122.339 406.216 120.14 406.632 Q117.941 407.049 115.302 407.929 L115.302 403.762 Q117.964 403.021 120.279 402.651 Q122.617 402.281 124.677 402.281 Q130.001 402.281 133.103 404.711 Q136.204 407.118 136.204 411.239 Q136.204 414.109 134.561 416.1 Q132.917 418.067 129.885 418.831 Z" fill="#000000" fill-rule="evenodd" fill-opacity="1" /><path clip-path="url(#clip270)" d="M145.88 431.586 L150.765 431.586 L150.765 437.466 L145.88 437.466 L145.88 431.586 Z" fill="#000000" fill-rule="evenodd" fill-opacity="1" /><path clip-path="url(#clip270)" d="M175.116 418.831 Q178.473 419.549 180.348 421.817 Q182.246 424.086 182.246 427.419 Q182.246 432.535 178.727 435.336 Q175.209 438.137 168.727 438.137 Q166.552 438.137 164.237 437.697 Q161.945 437.28 159.491 436.424 L159.491 431.91 Q161.436 433.044 163.751 433.623 Q166.065 434.202 168.589 434.202 Q172.987 434.202 175.278 432.466 Q177.593 430.729 177.593 427.419 Q177.593 424.364 175.44 422.651 Q173.311 420.915 169.491 420.915 L165.464 420.915 L165.464 417.072 L169.677 417.072 Q173.126 417.072 174.954 415.706 Q176.783 414.317 176.783 411.725 Q176.783 409.063 174.885 407.651 Q173.01 406.216 169.491 406.216 Q167.57 406.216 165.371 406.632 Q163.172 407.049 160.533 407.929 L160.533 403.762 Q163.195 403.021 165.51 402.651 Q167.848 402.281 169.908 402.281 Q175.232 402.281 178.334 404.711 Q181.436 407.118 181.436 411.239 Q181.436 414.109 179.792 416.1 Q178.149 418.067 175.116 418.831 Z" fill="#000000" fill-rule="evenodd" fill-opacity="1" /><path clip-path="url(#clip270)" d="M195.139 433.53 L211.459 433.53 L211.459 437.466 L189.514 437.466 L189.514 433.53 Q192.176 430.776 196.76 426.146 Q201.366 421.493 202.547 420.151 Q204.792 417.628 205.672 415.892 Q206.574 414.132 206.574 412.442 Q206.574 409.688 204.63 407.952 Q202.709 406.216 199.607 406.216 Q197.408 406.216 194.954 406.98 Q192.524 407.743 189.746 409.294 L189.746 404.572 Q192.57 403.438 195.024 402.859 Q197.477 402.281 199.514 402.281 Q204.885 402.281 208.079 404.966 Q211.274 407.651 211.274 412.142 Q211.274 414.271 210.463 416.192 Q209.676 418.091 207.57 420.683 Q206.991 421.354 203.889 424.572 Q200.787 427.766 195.139 433.53 Z" fill="#000000" fill-rule="evenodd" fill-opacity="1" /><path clip-path="url(#clip270)" d="M231.273 405.984 Q227.662 405.984 225.834 409.549 Q224.028 413.091 224.028 420.22 Q224.028 427.327 225.834 430.891 Q227.662 434.433 231.273 434.433 Q234.908 434.433 236.713 430.891 Q238.542 427.327 238.542 420.22 Q238.542 413.091 236.713 409.549 Q234.908 405.984 231.273 405.984 M231.273 402.281 Q237.084 402.281 240.139 406.887 Q243.218 411.47 243.218 420.22 Q243.218 428.947 240.139 433.553 Q237.084 438.137 231.273 438.137 Q225.463 438.137 222.385 433.553 Q219.329 428.947 219.329 420.22 Q219.329 411.47 222.385 406.887 Q225.463 402.281 231.273 402.281 Z" fill="#000000" fill-rule="evenodd" fill-opacity="1" /><path clip-path="url(#clip270)" d="M279.606 412.003 L269.028 422.628 L279.606 433.206 L276.852 436.007 L266.227 425.382 L255.602 436.007 L252.871 433.206 L263.426 422.628 L252.871 412.003 L255.602 409.202 L266.227 419.827 L276.852 409.202 L279.606 412.003 Z" fill="#000000" fill-rule="evenodd" fill-opacity="1" /><path clip-path="url(#clip270)" d="M291.968 433.53 L299.606 433.53 L299.606 407.165 L291.296 408.831 L291.296 404.572 L299.56 402.906 L304.236 402.906 L304.236 433.53 L311.875 433.53 L311.875 437.466 L291.968 437.466 L291.968 433.53 Z" fill="#000000" fill-rule="evenodd" fill-opacity="1" /><path clip-path="url(#clip270)" d="M331.319 405.984 Q327.708 405.984 325.879 409.549 Q324.074 413.091 324.074 420.22 Q324.074 427.327 325.879 430.891 Q327.708 434.433 331.319 434.433 Q334.953 434.433 336.759 430.891 Q338.588 427.327 338.588 420.22 Q338.588 413.091 336.759 409.549 Q334.953 405.984 331.319 405.984 M331.319 402.281 Q337.129 402.281 340.185 406.887 Q343.264 411.47 343.264 420.22 Q343.264 428.947 340.185 433.553 Q337.129 438.137 331.319 438.137 Q325.509 438.137 322.43 433.553 Q319.375 428.947 319.375 420.22 Q319.375 411.47 322.43 406.887 Q325.509 402.281 331.319 402.281 Z" fill="#000000" fill-rule="evenodd" fill-opacity="1" /><path clip-path="url(#clip270)" d="M344.448 381.975 L359.363 381.975 L359.363 385.172 L347.928 385.172 L347.928 392.056 Q348.755 391.774 349.583 391.642 Q350.411 391.492 351.238 391.492 Q355.94 391.492 358.686 394.069 Q361.432 396.645 361.432 401.046 Q361.432 405.579 358.611 408.099 Q355.79 410.601 350.655 410.601 Q348.887 410.601 347.044 410.3 Q345.22 409.999 343.264 409.397 L343.264 405.579 Q344.956 406.5 346.762 406.952 Q348.567 407.403 350.58 407.403 Q353.834 407.403 355.733 405.692 Q357.633 403.98 357.633 401.046 Q357.633 398.112 355.733 396.401 Q353.834 394.689 350.58 394.689 Q349.056 394.689 347.533 395.028 Q346.028 395.366 344.448 396.081 L344.448 381.975 Z" fill="#000000" fill-rule="evenodd" fill-opacity="1" /><path clip-path="url(#clip270)" d="M129.885 240.071 Q133.242 240.789 135.117 243.057 Q137.015 245.326 137.015 248.659 Q137.015 253.775 133.496 256.576 Q129.978 259.377 123.496 259.377 Q121.32 259.377 119.006 258.937 Q116.714 258.52 114.26 257.664 L114.26 253.15 Q116.205 254.284 118.519 254.863 Q120.834 255.442 123.357 255.442 Q127.755 255.442 130.047 253.706 Q132.362 251.969 132.362 248.659 Q132.362 245.604 130.209 243.891 Q128.08 242.155 124.26 242.155 L120.232 242.155 L120.232 238.312 L124.445 238.312 Q127.894 238.312 129.723 236.946 Q131.552 235.558 131.552 232.965 Q131.552 230.303 129.654 228.891 Q127.779 227.456 124.26 227.456 Q122.339 227.456 120.14 227.872 Q117.941 228.289 115.302 229.169 L115.302 225.002 Q117.964 224.261 120.279 223.891 Q122.617 223.521 124.677 223.521 Q130.001 223.521 133.103 225.951 Q136.204 228.359 136.204 232.479 Q136.204 235.349 134.561 237.34 Q132.917 239.308 129.885 240.071 Z" fill="#000000" fill-rule="evenodd" fill-opacity="1" /><path clip-path="url(#clip270)" d="M145.88 252.826 L150.765 252.826 L150.765 258.706 L145.88 258.706 L145.88 252.826 Z" fill="#000000" fill-rule="evenodd" fill-opacity="1" /><path clip-path="url(#clip270)" d="M175.116 240.071 Q178.473 240.789 180.348 243.057 Q182.246 245.326 182.246 248.659 Q182.246 253.775 178.727 256.576 Q175.209 259.377 168.727 259.377 Q166.552 259.377 164.237 258.937 Q161.945 258.52 159.491 257.664 L159.491 253.15 Q161.436 254.284 163.751 254.863 Q166.065 255.442 168.589 255.442 Q172.987 255.442 175.278 253.706 Q177.593 251.969 177.593 248.659 Q177.593 245.604 175.44 243.891 Q173.311 242.155 169.491 242.155 L165.464 242.155 L165.464 238.312 L169.677 238.312 Q173.126 238.312 174.954 236.946 Q176.783 235.558 176.783 232.965 Q176.783 230.303 174.885 228.891 Q173.01 227.456 169.491 227.456 Q167.57 227.456 165.371 227.872 Q163.172 228.289 160.533 229.169 L160.533 225.002 Q163.195 224.261 165.51 223.891 Q167.848 223.521 169.908 223.521 Q175.232 223.521 178.334 225.951 Q181.436 228.359 181.436 232.479 Q181.436 235.349 179.792 237.34 Q178.149 239.308 175.116 240.071 Z" fill="#000000" fill-rule="evenodd" fill-opacity="1" /><path clip-path="url(#clip270)" d="M203.959 228.22 L192.153 246.669 L203.959 246.669 L203.959 228.22 M202.732 224.146 L208.612 224.146 L208.612 246.669 L213.542 246.669 L213.542 250.557 L208.612 250.557 L208.612 258.706 L203.959 258.706 L203.959 250.557 L188.357 250.557 L188.357 246.044 L202.732 224.146 Z" fill="#000000" fill-rule="evenodd" fill-opacity="1" /><path clip-path="url(#clip270)" d="M231.273 227.224 Q227.662 227.224 225.834 230.789 Q224.028 234.331 224.028 241.46 Q224.028 248.567 225.834 252.132 Q227.662 255.673 231.273 255.673 Q234.908 255.673 236.713 252.132 Q238.542 248.567 238.542 241.46 Q238.542 234.331 236.713 230.789 Q234.908 227.224 231.273 227.224 M231.273 223.521 Q237.084 223.521 240.139 228.127 Q243.218 232.71 243.218 241.46 Q243.218 250.187 240.139 254.794 Q237.084 259.377 231.273 259.377 Q225.463 259.377 222.385 254.794 Q219.329 250.187 219.329 241.46 Q219.329 232.71 222.385 228.127 Q225.463 223.521 231.273 223.521 Z" fill="#000000" fill-rule="evenodd" fill-opacity="1" /><path clip-path="url(#clip270)" d="M279.606 233.243 L269.028 243.868 L279.606 254.446 L276.852 257.247 L266.227 246.622 L255.602 257.247 L252.871 254.446 L263.426 243.868 L252.871 233.243 L255.602 230.442 L266.227 241.067 L276.852 230.442 L279.606 233.243 Z" fill="#000000" fill-rule="evenodd" fill-opacity="1" /><path clip-path="url(#clip270)" d="M291.968 254.77 L299.606 254.77 L299.606 228.405 L291.296 230.071 L291.296 225.812 L299.56 224.146 L304.236 224.146 L304.236 254.77 L311.875 254.77 L311.875 258.706 L291.968 258.706 L291.968 254.77 Z" fill="#000000" fill-rule="evenodd" fill-opacity="1" /><path clip-path="url(#clip270)" d="M331.319 227.224 Q327.708 227.224 325.879 230.789 Q324.074 234.331 324.074 241.46 Q324.074 248.567 325.879 252.132 Q327.708 255.673 331.319 255.673 Q334.953 255.673 336.759 252.132 Q338.588 248.567 338.588 241.46 Q338.588 234.331 336.759 230.789 Q334.953 227.224 331.319 227.224 M331.319 223.521 Q337.129 223.521 340.185 228.127 Q343.264 232.71 343.264 241.46 Q343.264 250.187 340.185 254.794 Q337.129 259.377 331.319 259.377 Q325.509 259.377 322.43 254.794 Q319.375 250.187 319.375 241.46 Q319.375 232.71 322.43 228.127 Q325.509 223.521 331.319 223.521 Z" fill="#000000" fill-rule="evenodd" fill-opacity="1" /><path clip-path="url(#clip270)" d="M344.448 203.215 L359.363 203.215 L359.363 206.412 L347.928 206.412 L347.928 213.296 Q348.755 213.014 349.583 212.882 Q350.411 212.732 351.238 212.732 Q355.94 212.732 358.686 215.309 Q361.432 217.885 361.432 222.286 Q361.432 226.819 358.611 229.339 Q355.79 231.841 350.655 231.841 Q348.887 231.841 347.044 231.54 Q345.22 231.239 343.264 230.637 L343.264 226.819 Q344.956 227.74 346.762 228.192 Q348.567 228.643 350.58 228.643 Q353.834 228.643 355.733 226.932 Q357.633 225.22 357.633 222.286 Q357.633 219.352 355.733 217.641 Q353.834 215.929 350.58 215.929 Q349.056 215.929 347.533 216.268 Q346.028 216.606 344.448 217.321 L344.448 203.215 Z" fill="#000000" fill-rule="evenodd" fill-opacity="1" /><path clip-path="url(#clip270)" d="M58.657 911.557 L77.5631 911.557 L77.5631 917.446 L28.3562 917.446 L28.3562 911.557 L33.7671 911.557 Q30.5842 909.711 29.0564 906.91 Q27.4968 904.078 27.4968 900.163 Q27.4968 893.67 32.6531 889.627 Q37.8093 885.553 46.212 885.553 Q54.6147 885.553 59.771 889.627 Q64.9272 893.67 64.9272 900.163 Q64.9272 904.078 63.3994 906.91 Q61.8398 909.711 58.657 911.557 M46.212 891.633 Q39.7508 891.633 36.0905 894.306 Q32.3984 896.948 32.3984 901.595 Q32.3984 906.242 36.0905 908.916 Q39.7508 911.557 46.212 911.557 Q52.6732 911.557 56.3653 908.916 Q60.0256 906.242 60.0256 901.595 Q60.0256 896.948 56.3653 894.306 Q52.6732 891.633 46.212 891.633 Z" fill="#000000" fill-rule="evenodd" fill-opacity="1" /><path clip-path="url(#clip270)" d="M44.7161 845.354 L47.5806 845.354 L47.5806 872.281 Q53.6281 871.899 56.8109 868.652 Q59.9619 865.374 59.9619 859.549 Q59.9619 856.176 59.1344 853.025 Q58.3069 849.842 56.6518 846.723 L62.1899 846.723 Q63.5267 849.874 64.227 853.184 Q64.9272 856.494 64.9272 859.9 Q64.9272 868.43 59.9619 873.427 Q54.9967 878.392 46.5303 878.392 Q37.7774 878.392 32.6531 873.681 Q27.4968 868.939 27.4968 860.918 Q27.4968 853.725 32.1438 849.555 Q36.7589 845.354 44.7161 845.354 M42.9973 851.21 Q38.1912 851.274 35.3266 853.916 Q32.4621 856.526 32.4621 860.854 Q32.4621 865.756 35.2312 868.716 Q38.0002 871.644 43.0292 872.09 L42.9973 851.21 Z" fill="#000000" fill-rule="evenodd" fill-opacity="1" /><path clip-path="url(#clip270)" d="M33.8307 815.085 Q33.2578 816.072 33.0032 817.249 Q32.7167 818.395 32.7167 819.796 Q32.7167 824.761 35.9632 827.434 Q39.1779 830.076 45.2253 830.076 L64.0042 830.076 L64.0042 835.965 L28.3562 835.965 L28.3562 830.076 L33.8944 830.076 Q30.6479 828.23 29.0883 825.27 Q27.4968 822.31 27.4968 818.077 Q27.4968 817.472 27.5923 816.74 Q27.656 816.008 27.8151 815.117 L33.8307 815.085 Z" fill="#000000" fill-rule="evenodd" fill-opacity="1" /><path clip-path="url(#clip270)" d="M29.4065 786.217 L34.9447 786.217 Q33.6716 788.699 33.035 791.373 Q32.3984 794.046 32.3984 796.911 Q32.3984 801.271 33.7352 803.468 Q35.072 805.632 37.7456 805.632 Q39.7826 805.632 40.9603 804.072 Q42.1061 802.513 43.1565 797.802 L43.6021 795.797 Q44.9389 789.559 47.3897 786.949 Q49.8086 784.307 54.1691 784.307 Q59.1344 784.307 62.0308 788.254 Q64.9272 792.168 64.9272 799.043 Q64.9272 801.908 64.3543 805.027 Q63.8132 808.115 62.6992 811.552 L56.6518 811.552 Q58.3387 808.306 59.198 805.155 Q60.0256 802.003 60.0256 798.916 Q60.0256 794.778 58.6251 792.55 Q57.1929 790.322 54.6147 790.322 Q52.2276 790.322 50.9545 791.946 Q49.6813 793.537 48.5037 798.98 L48.0262 801.017 Q46.8804 806.459 44.5251 808.878 Q42.138 811.297 38.0002 811.297 Q32.9713 811.297 30.2341 807.733 Q27.4968 804.168 27.4968 797.611 Q27.4968 794.365 27.9743 791.5 Q28.4517 788.636 29.4065 786.217 Z" fill="#000000" fill-rule="evenodd" fill-opacity="1" /><path clip-path="url(#clip270)" d="M32.4621 761.167 Q32.4621 765.878 36.1542 768.615 Q39.8145 771.353 46.212 771.353 Q52.6095 771.353 56.3017 768.647 Q59.9619 765.91 59.9619 761.167 Q59.9619 756.489 56.2698 753.751 Q52.5777 751.014 46.212 751.014 Q39.8781 751.014 36.186 753.751 Q32.4621 756.489 32.4621 761.167 M27.4968 761.167 Q27.4968 753.529 32.4621 749.168 Q37.4273 744.808 46.212 744.808 Q54.9649 744.808 59.9619 749.168 Q64.9272 753.529 64.9272 761.167 Q64.9272 768.838 59.9619 773.199 Q54.9649 777.527 46.212 777.527 Q37.4273 777.527 32.4621 773.199 Q27.4968 768.838 27.4968 761.167 Z" fill="#000000" fill-rule="evenodd" fill-opacity="1" /><path clip-path="url(#clip270)" d="M42.4881 705.468 L64.0042 705.468 L64.0042 711.324 L42.679 711.324 Q37.6183 711.324 35.1038 713.297 Q32.5894 715.271 32.5894 719.217 Q32.5894 723.96 35.6131 726.697 Q38.6368 729.434 43.8567 729.434 L64.0042 729.434 L64.0042 735.323 L28.3562 735.323 L28.3562 729.434 L33.8944 729.434 Q30.6797 727.334 29.0883 724.501 Q27.4968 721.636 27.4968 717.913 Q27.4968 711.77 31.3163 708.619 Q35.1038 705.468 42.4881 705.468 Z" fill="#000000" fill-rule="evenodd" fill-opacity="1" /><path clip-path="url(#clip270)" d="M46.0847 677.586 Q46.0847 684.684 47.7079 687.421 Q49.3312 690.158 53.2461 690.158 Q56.3653 690.158 58.2114 688.121 Q60.0256 686.052 60.0256 682.519 Q60.0256 677.649 56.5881 674.721 Q53.1188 671.761 47.3897 671.761 L46.0847 671.761 L46.0847 677.586 M43.6657 665.905 L64.0042 665.905 L64.0042 671.761 L58.5933 671.761 Q61.8398 673.766 63.3994 676.758 Q64.9272 679.75 64.9272 684.079 Q64.9272 689.553 61.8716 692.8 Q58.7843 696.014 53.6281 696.014 Q47.6125 696.014 44.5569 692.004 Q41.5014 687.962 41.5014 679.973 L41.5014 671.761 L40.9285 671.761 Q36.8862 671.761 34.6901 674.435 Q32.4621 677.076 32.4621 681.883 Q32.4621 684.938 33.1941 687.835 Q33.9262 690.731 35.3903 693.405 L29.9795 693.405 Q28.7381 690.19 28.1334 687.166 Q27.4968 684.142 27.4968 681.278 Q27.4968 673.544 31.5072 669.724 Q35.5176 665.905 43.6657 665.905 Z" fill="#000000" fill-rule="evenodd" fill-opacity="1" /><path clip-path="url(#clip270)" d="M29.4065 631.116 L34.9447 631.116 Q33.6716 633.599 33.035 636.272 Q32.3984 638.946 32.3984 641.81 Q32.3984 646.171 33.7352 648.367 Q35.072 650.532 37.7456 650.532 Q39.7826 650.532 40.9603 648.972 Q42.1061 647.412 43.1565 642.702 L43.6021 640.696 Q44.9389 634.458 47.3897 631.848 Q49.8086 629.206 54.1691 629.206 Q59.1344 629.206 62.0308 633.153 Q64.9272 637.068 64.9272 643.943 Q64.9272 646.808 64.3543 649.927 Q63.8132 653.014 62.6992 656.452 L56.6518 656.452 Q58.3387 653.205 59.198 650.054 Q60.0256 646.903 60.0256 643.816 Q60.0256 639.678 58.6251 637.45 Q57.1929 635.222 54.6147 635.222 Q52.2276 635.222 50.9545 636.845 Q49.6813 638.437 48.5037 643.879 L48.0262 645.916 Q46.8804 651.359 44.5251 653.778 Q42.138 656.197 38.0002 656.197 Q32.9713 656.197 30.2341 652.632 Q27.4968 649.067 27.4968 642.511 Q27.4968 639.264 27.9743 636.4 Q28.4517 633.535 29.4065 631.116 Z" fill="#000000" fill-rule="evenodd" fill-opacity="1" /><path clip-path="url(#clip270)" d="M1157.11 14.0809 L1157.11 22.0612 Q1152.46 19.8332 1148.32 18.7395 Q1144.19 17.6457 1140.34 17.6457 Q1133.66 17.6457 1130.01 20.2383 Q1126.41 22.8309 1126.41 27.611 Q1126.41 31.6214 1128.8 33.6873 Q1131.23 35.7128 1137.95 36.9686 L1142.9 37.9813 Q1152.05 39.7232 1156.39 44.1387 Q1160.76 48.5136 1160.76 55.8863 Q1160.76 64.6767 1154.85 69.2137 Q1148.97 73.7508 1137.59 73.7508 Q1133.3 73.7508 1128.43 72.7785 Q1123.61 71.8063 1118.43 69.9024 L1118.43 61.4765 Q1123.41 64.2716 1128.19 65.6895 Q1132.97 67.1073 1137.59 67.1073 Q1144.6 67.1073 1148.41 64.3527 Q1152.21 61.598 1152.21 56.4939 Q1152.21 52.0379 1149.46 49.5264 Q1146.74 47.0148 1140.51 45.759 L1135.52 44.7868 Q1126.37 42.9639 1122.28 39.075 Q1118.19 35.1862 1118.19 28.2591 Q1118.19 20.2383 1123.82 15.6203 Q1129.49 11.0023 1139.41 11.0023 Q1143.67 11.0023 1148.08 11.7719 Q1152.5 12.5416 1157.11 14.0809 Z" fill="#000000" fill-rule="evenodd" fill-opacity="1" /><path clip-path="url(#clip270)" d="M1172.43 54.671 L1172.43 27.2059 L1179.88 27.2059 L1179.88 54.3874 Q1179.88 60.8284 1182.39 64.0691 Q1184.9 67.2693 1189.93 67.2693 Q1195.96 67.2693 1199.45 63.421 Q1202.97 59.5726 1202.97 52.9291 L1202.97 27.2059 L1210.42 27.2059 L1210.42 72.576 L1202.97 72.576 L1202.97 65.6084 Q1200.26 69.7404 1196.65 71.7658 Q1193.09 73.7508 1188.35 73.7508 Q1180.53 73.7508 1176.48 68.8897 Q1172.43 64.0286 1172.43 54.671 M1191.18 26.1121 L1191.18 26.1121 Z" fill="#000000" fill-rule="evenodd" fill-opacity="1" /><path clip-path="url(#clip270)" d="M1254.7 28.5427 L1254.7 35.5912 Q1251.54 33.9709 1248.14 33.1607 Q1244.74 32.3505 1241.09 32.3505 Q1235.54 32.3505 1232.75 34.0519 Q1229.99 35.7533 1229.99 39.156 Q1229.99 41.7486 1231.98 43.2475 Q1233.96 44.7058 1239.96 46.0426 L1242.51 46.6097 Q1250.45 48.3111 1253.77 51.4303 Q1257.13 54.509 1257.13 60.0587 Q1257.13 66.3781 1252.11 70.0644 Q1247.13 73.7508 1238.38 73.7508 Q1234.73 73.7508 1230.76 73.0216 Q1226.83 72.3329 1222.46 70.9151 L1222.46 63.2184 Q1226.59 65.3654 1230.6 66.4591 Q1234.61 67.5124 1238.54 67.5124 Q1243.8 67.5124 1246.64 65.73 Q1249.48 63.9071 1249.48 60.6258 Q1249.48 57.5877 1247.41 55.9673 Q1245.38 54.3469 1238.46 52.8481 L1235.86 52.2405 Q1228.94 50.7821 1225.86 47.7845 Q1222.78 44.7463 1222.78 39.4801 Q1222.78 33.0797 1227.32 29.5959 Q1231.85 26.1121 1240.2 26.1121 Q1244.33 26.1121 1247.98 26.7198 Q1251.62 27.3274 1254.7 28.5427 Z" fill="#000000" fill-rule="evenodd" fill-opacity="1" /><path clip-path="url(#clip270)" d="M1301.65 28.9478 L1301.65 35.9153 Q1298.49 34.1734 1295.29 33.3227 Q1292.13 32.4315 1288.89 32.4315 Q1281.64 32.4315 1277.63 37.0496 Q1273.62 41.6271 1273.62 49.9314 Q1273.62 58.2358 1277.63 62.8538 Q1281.64 67.4314 1288.89 67.4314 Q1292.13 67.4314 1295.29 66.5807 Q1298.49 65.6895 1301.65 63.9476 L1301.65 70.8341 Q1298.53 72.2924 1295.17 73.0216 Q1291.85 73.7508 1288.08 73.7508 Q1277.83 73.7508 1271.8 67.3098 Q1265.76 60.8689 1265.76 49.9314 Q1265.76 38.832 1271.84 32.472 Q1277.95 26.1121 1288.57 26.1121 Q1292.01 26.1121 1295.29 26.8413 Q1298.57 27.5299 1301.65 28.9478 Z" fill="#000000" fill-rule="evenodd" fill-opacity="1" /><path clip-path="url(#clip270)" d="M1353.42 48.0275 L1353.42 51.6733 L1319.15 51.6733 Q1319.64 59.3701 1323.77 63.421 Q1327.94 67.4314 1335.35 67.4314 Q1339.65 67.4314 1343.66 66.3781 Q1347.71 65.3249 1351.68 63.2184 L1351.68 70.267 Q1347.67 71.9684 1343.46 72.8596 Q1339.24 73.7508 1334.91 73.7508 Q1324.05 73.7508 1317.69 67.4314 Q1311.37 61.1119 1311.37 50.3365 Q1311.37 39.1965 1317.37 32.6746 Q1323.4 26.1121 1333.61 26.1121 Q1342.77 26.1121 1348.07 32.0264 Q1353.42 37.9003 1353.42 48.0275 M1345.97 45.84 Q1345.89 39.7232 1342.52 36.0774 Q1339.2 32.4315 1333.69 32.4315 Q1327.46 32.4315 1323.69 35.9558 Q1319.96 39.4801 1319.39 45.8805 L1345.97 45.84 Z" fill="#000000" fill-rule="evenodd" fill-opacity="1" /><path clip-path="url(#clip270)" d="M1372.87 65.7705 L1372.87 89.8329 L1365.37 89.8329 L1365.37 27.2059 L1372.87 27.2059 L1372.87 34.0924 Q1375.22 30.0415 1378.78 28.0971 Q1382.39 26.1121 1387.37 26.1121 Q1395.63 26.1121 1400.78 32.6746 Q1405.96 39.2371 1405.96 49.9314 Q1405.96 60.6258 1400.78 67.1883 Q1395.63 73.7508 1387.37 73.7508 Q1382.39 73.7508 1378.78 71.8063 Q1375.22 69.8214 1372.87 65.7705 M1398.22 49.9314 Q1398.22 41.7081 1394.82 37.0496 Q1391.46 32.3505 1385.55 32.3505 Q1379.63 32.3505 1376.23 37.0496 Q1372.87 41.7081 1372.87 49.9314 Q1372.87 58.1548 1376.23 62.8538 Q1379.63 67.5124 1385.55 67.5124 Q1391.46 67.5124 1394.82 62.8538 Q1398.22 58.1548 1398.22 49.9314 Z" fill="#000000" fill-rule="evenodd" fill-opacity="1" /><path clip-path="url(#clip270)" d="M1425.69 14.324 L1425.69 27.2059 L1441.04 27.2059 L1441.04 32.9987 L1425.69 32.9987 L1425.69 57.6282 Q1425.69 63.1779 1427.19 64.7578 Q1428.73 66.3376 1433.39 66.3376 L1441.04 66.3376 L1441.04 72.576 L1433.39 72.576 Q1424.76 72.576 1421.48 69.3758 Q1418.2 66.1351 1418.2 57.6282 L1418.2 32.9987 L1412.73 32.9987 L1412.73 27.2059 L1418.2 27.2059 L1418.2 14.324 L1425.69 14.324 Z" fill="#000000" fill-rule="evenodd" fill-opacity="1" /><path clip-path="url(#clip270)" d="M1450.85 27.2059 L1458.3 27.2059 L1458.3 72.576 L1450.85 72.576 L1450.85 27.2059 M1450.85 9.54393 L1458.3 9.54393 L1458.3 18.9825 L1450.85 18.9825 L1450.85 9.54393 Z" fill="#000000" fill-rule="evenodd" fill-opacity="1" /><path clip-path="url(#clip270)" d="M1506.46 49.9314 Q1506.46 41.7081 1503.06 37.0496 Q1499.7 32.3505 1493.79 32.3505 Q1487.87 32.3505 1484.47 37.0496 Q1481.11 41.7081 1481.11 49.9314 Q1481.11 58.1548 1484.47 62.8538 Q1487.87 67.5124 1493.79 67.5124 Q1499.7 67.5124 1503.06 62.8538 Q1506.46 58.1548 1506.46 49.9314 M1481.11 34.0924 Q1483.46 30.0415 1487.02 28.0971 Q1490.63 26.1121 1495.61 26.1121 Q1503.87 26.1121 1509.02 32.6746 Q1514.2 39.2371 1514.2 49.9314 Q1514.2 60.6258 1509.02 67.1883 Q1503.87 73.7508 1495.61 73.7508 Q1490.63 73.7508 1487.02 71.8063 Q1483.46 69.8214 1481.11 65.7705 L1481.11 72.576 L1473.61 72.576 L1473.61 9.54393 L1481.11 9.54393 L1481.11 34.0924 Z" fill="#000000" fill-rule="evenodd" fill-opacity="1" /><path clip-path="url(#clip270)" d="M1526.56 9.54393 L1534.01 9.54393 L1534.01 72.576 L1526.56 72.576 L1526.56 9.54393 Z" fill="#000000" fill-rule="evenodd" fill-opacity="1" /><path clip-path="url(#clip270)" d="M1588.41 48.0275 L1588.41 51.6733 L1554.14 51.6733 Q1554.63 59.3701 1558.76 63.421 Q1562.93 67.4314 1570.35 67.4314 Q1574.64 67.4314 1578.65 66.3781 Q1582.7 65.3249 1586.67 63.2184 L1586.67 70.267 Q1582.66 71.9684 1578.45 72.8596 Q1574.24 73.7508 1569.9 73.7508 Q1559.05 73.7508 1552.69 67.4314 Q1546.37 61.1119 1546.37 50.3365 Q1546.37 39.1965 1552.36 32.6746 Q1558.4 26.1121 1568.61 26.1121 Q1577.76 26.1121 1583.07 32.0264 Q1588.41 37.9003 1588.41 48.0275 M1580.96 45.84 Q1580.88 39.7232 1577.52 36.0774 Q1574.2 32.4315 1568.69 32.4315 Q1562.45 32.4315 1558.68 35.9558 Q1554.95 39.4801 1554.39 45.8805 L1580.96 45.84 Z" fill="#000000" fill-rule="evenodd" fill-opacity="1" /><path clip-path="url(#clip270)" d="M1629.57 28.5427 L1629.57 35.5912 Q1626.41 33.9709 1623.01 33.1607 Q1619.61 32.3505 1615.96 32.3505 Q1610.41 32.3505 1607.62 34.0519 Q1604.86 35.7533 1604.86 39.156 Q1604.86 41.7486 1606.85 43.2475 Q1608.83 44.7058 1614.83 46.0426 L1617.38 46.6097 Q1625.32 48.3111 1628.64 51.4303 Q1632 54.509 1632 60.0587 Q1632 66.3781 1626.98 70.0644 Q1622 73.7508 1613.25 73.7508 Q1609.6 73.7508 1605.63 73.0216 Q1601.7 72.3329 1597.33 70.9151 L1597.33 63.2184 Q1601.46 65.3654 1605.47 66.4591 Q1609.48 67.5124 1613.41 67.5124 Q1618.67 67.5124 1621.51 65.73 Q1624.35 63.9071 1624.35 60.6258 Q1624.35 57.5877 1622.28 55.9673 Q1620.25 54.3469 1613.33 52.8481 L1610.73 52.2405 Q1603.81 50.7821 1600.73 47.7845 Q1597.65 44.7463 1597.65 39.4801 Q1597.65 33.0797 1602.19 29.5959 Q1606.72 26.1121 1615.07 26.1121 Q1619.2 26.1121 1622.85 26.7198 Q1626.49 27.3274 1629.57 28.5427 Z" fill="#000000" fill-rule="evenodd" fill-opacity="1" /><polyline clip-path="url(#clip272)" style="stroke:#009af9; stroke-linecap:butt; stroke-linejoin:round; stroke-width:4; stroke-opacity:1; fill:none" points="
  397.432,160.256 402.32,160.972 407.208,161.746 412.097,162.581 416.985,163.48 421.873,164.447 426.762,165.486 431.65,166.604 436.538,167.823 441.427,169.132 
  446.315,170.532 451.203,172.029 456.092,173.628 460.98,175.336 465.868,177.15 470.757,179.062 475.645,181.077 480.533,183.201 485.421,185.447 490.31,187.818 
  495.198,190.315 500.086,192.938 504.975,195.64 509.863,198.444 514.751,201.379 519.64,204.456 524.528,207.665 529.416,211.01 534.305,214.491 539.193,218.185 
  544.081,222.106 548.969,226.227 553.858,230.533 558.746,235.011 563.634,239.661 568.523,244.5 573.411,249.602 578.299,254.923 583.188,260.43 588.076,266.149 
  592.964,272.109 597.853,278.06 602.741,283.882 607.629,289.64 612.518,295.468 617.406,301.347 622.294,307.268 627.182,313.221 632.071,319.177 636.959,325.039 
  641.847,330.815 646.736,336.517 651.624,342.15 656.512,347.707 661.401,353.178 666.289,358.554 671.177,363.836 676.066,369.036 680.954,374.148 685.842,379.159 
  690.73,384.062 695.619,388.85 700.507,393.518 705.395,398.066 710.284,402.474 715.172,406.735 720.06,410.788 724.949,414.672 729.837,418.59 734.725,422.539 
  739.614,426.301 744.502,429.687 749.39,432.914 754.279,435.993 759.167,438.925 764.055,441.708 768.943,444.349 773.832,446.858 778.72,449.242 783.608,451.508 
  788.497,453.659 793.385,455.697 798.273,457.624 803.162,459.437 808.05,461.134 812.938,462.721 817.827,464.205 822.715,465.591 827.603,466.885 832.491,468.091 
  837.38,469.218 842.268,470.292 847.156,471.308 852.045,472.26 856.933,473.147 861.821,473.968 866.71,474.728 871.598,475.428 876.486,476.069 881.375,476.661 
  886.263,477.213 891.151,477.733 896.039,478.229 900.928,478.706 905.816,479.172 910.704,479.629 915.593,480.077 920.481,480.518 925.369,480.952 930.258,481.381 
  935.146,481.805 940.034,482.227 944.923,482.649 949.811,483.072 954.699,483.499 959.588,483.929 964.476,484.365 969.364,484.807 974.252,485.259 979.141,485.724 
  984.029,486.207 988.917,486.709 993.806,487.232 998.694,487.779 1003.58,488.352 1008.47,488.956 1013.36,489.597 1018.25,490.282 1023.14,491.015 1028.02,491.802 
  1032.91,492.649 1037.8,493.549 1042.69,494.508 1047.58,495.533 1052.47,496.625 1057.35,497.782 1062.24,498.995 1067.13,500.276 1072.02,501.636 1076.91,503.08 
  1081.8,504.613 1086.68,506.231 1091.57,507.946 1096.46,509.75 1101.35,511.621 1106.24,513.555 1111.13,515.562 1116.01,517.668 1120.9,519.895 1125.79,522.213 
  1130.68,524.62 1135.57,527.116 1140.46,529.7 1145.34,532.373 1150.23,535.154 1155.12,538.043 1160.01,541.034 1164.9,544.126 1169.78,547.312 1174.67,550.588 
  1179.56,553.95 1184.45,557.408 1189.34,561.075 1194.23,564.92 1199.11,568.893 1204,572.971 1208.89,577.16 1213.78,581.462 1218.67,585.86 1223.56,590.338 
  1228.44,594.883 1233.33,599.485 1238.22,604.135 1243.11,608.825 1248,613.563 1252.89,618.35 1257.77,623.182 1262.66,628.05 1267.55,632.932 1272.44,637.805 
  1277.33,642.69 1282.22,647.6 1287.1,652.539 1291.99,657.499 1296.88,662.459 1301.77,667.395 1306.66,672.298 1311.55,677.157 1316.43,681.96 1321.32,686.696 
  1326.21,691.359 1331.1,695.942 1335.99,700.445 1340.88,704.871 1345.76,709.199 1350.65,713.413 1355.54,717.502 1360.43,721.46 1365.32,725.287 1370.21,728.988 
  1375.09,732.573 1379.98,736.058 1384.87,739.463 1389.76,742.796 1394.65,746.059 1399.54,749.251 1404.42,752.375 1409.31,755.431 1414.2,758.419 1419.09,761.34 
  1423.98,764.2 1428.87,767.014 1433.75,769.78 1438.64,772.495 1443.53,775.157 1448.42,777.766 1453.31,780.322 1458.2,782.823 1463.08,785.26 1467.97,787.635 
  1472.86,789.948 1477.75,792.204 1482.64,794.403 1487.53,796.549 1492.41,798.669 1497.3,800.761 1502.19,802.815 1507.08,804.824 1511.97,806.788 1516.85,808.705 
  1521.74,810.577 1526.63,812.415 1531.52,814.228 1536.41,816.02 1541.3,817.793 1546.18,819.544 1551.07,821.268 1555.96,822.966 1560.85,824.636 1565.74,826.276 
  1570.63,827.885 1575.51,829.463 1580.4,831.012 1585.29,832.532 1590.18,834.03 1595.07,835.505 1599.96,836.957 1604.84,838.386 1609.73,839.792 1614.62,841.175 
  1619.51,842.534 1624.4,843.871 1629.29,845.186 1634.17,846.482 1639.06,847.756 1643.95,849.003 1648.84,850.222 1653.73,851.411 1658.62,852.57 1663.5,853.699 
  1668.39,854.801 1673.28,855.88 1678.17,856.936 1683.06,857.968 1687.95,858.978 1692.83,859.966 1697.72,860.931 1702.61,861.874 1707.5,862.796 1712.39,863.698 
  1717.28,864.579 1722.16,865.441 1727.05,866.283 1731.94,867.107 1736.83,867.912 1741.72,868.698 1746.61,869.467 1751.49,870.219 1756.38,870.953 1761.27,871.671 
  1766.16,872.379 1771.05,873.084 1775.94,873.787 1780.82,874.491 1785.71,875.198 1790.6,875.911 1795.49,876.632 1800.38,877.367 1805.27,878.119 1810.15,878.891 
  1815.04,879.687 1819.93,880.512 1824.82,881.372 1829.71,882.27 1834.6,883.212 1839.48,884.203 1844.37,885.255 1849.26,886.374 1854.15,887.561 1859.04,888.816 
  1863.92,890.143 1868.81,891.54 1873.7,893.009 1878.59,894.55 1883.48,896.164 1888.37,897.852 1893.25,899.613 1898.14,901.454 1903.03,903.373 1907.92,905.367 
  1912.81,907.434 1917.7,909.573 1922.58,911.782 1927.47,914.061 1932.36,916.409 1937.25,918.82 1942.14,921.294 1947.03,923.835 1951.91,926.443 1956.8,929.115 
  1961.69,931.846 1966.58,934.625 1971.47,937.467 1976.36,940.385 1981.24,943.386 1986.13,946.465 1991.02,949.611 1995.91,952.8 2000.8,956.034 2005.69,959.327 
  2010.57,962.693 2015.46,966.142 2020.35,969.679 2025.24,973.309 2030.13,977.033 2035.02,980.851 2039.9,984.764 2044.79,988.772 2049.68,992.874 2054.57,997.073 
  2059.46,1001.37 2064.35,1005.76 2069.23,1010.23 2074.12,1014.76 2079.01,1019.35 2083.9,1024.03 2088.79,1028.78 2093.68,1033.63 2098.56,1038.56 2103.45,1043.6 
  2108.34,1048.72 2113.23,1053.83 2118.12,1058.95 2123.01,1064.13 2127.89,1069.4 2132.78,1074.75 2137.67,1080.22 2142.56,1085.7 2147.45,1091.09 2152.34,1096.38 
  2157.22,1101.61 2162.11,1106.81 2167,1111.99 2171.89,1117.16 2176.78,1122.32 2181.67,1127.48 2186.55,1132.61 2191.44,1137.73 2196.33,1142.83 2201.22,1147.91 
  2206.11,1152.97 2210.99,1158.02 2215.88,1163.06 2220.77,1168.08 2225.66,1173.09 2230.55,1178.08 2235.44,1183.06 2240.32,1188.05 2245.21,1193.09 2250.1,1198.15 
  2254.99,1203.21 2259.88,1208.25 2264.77,1213.26 2269.65,1218.26 2274.54,1223.25 2279.43,1228.3 2284.32,1233.39 2289.21,1238.48 2294.1,1243.59 2298.98,1248.69 
  2303.87,1253.81 2308.76,1258.93 2313.65,1264.06 2318.54,1269.14 2323.43,1274.21 2328.31,1279.34 2333.2,1284.56 2338.09,1289.87 2342.98,1295.21 2347.87,1300.54 
  2352.76,1306.07 
  "/>
<polyline clip-path="url(#clip272)" style="stroke:#e26f46; stroke-linecap:butt; stroke-linejoin:round; stroke-width:4; stroke-opacity:1; fill:none" points="
  397.432,524.658 402.32,525.108 407.208,525.594 412.097,526.119 416.985,526.684 421.873,527.292 426.762,527.944 431.65,528.641 436.538,529.379 441.427,530.169 
  446.315,531.016 451.203,531.921 456.092,532.887 460.98,533.903 465.868,534.996 470.757,536.19 475.645,537.491 480.533,538.89 485.421,540.364 490.31,541.92 
  495.198,543.558 500.086,545.292 504.975,547.246 509.863,549.371 514.751,551.596 519.64,553.905 524.528,556.318 529.416,558.833 534.305,561.451 539.193,564.222 
  544.081,567.154 548.969,570.235 553.858,573.452 558.746,576.801 563.634,580.278 568.523,583.884 573.411,587.615 578.299,591.483 583.188,595.494 588.076,599.647 
  592.964,603.947 597.853,608.348 602.741,612.81 607.629,617.315 612.518,621.862 617.406,626.448 622.294,631.067 627.182,635.712 632.071,640.261 636.959,644.327 
  641.847,648.144 646.736,651.903 651.624,655.664 656.512,659.378 661.401,663.029 666.289,666.617 671.177,670.165 676.066,673.767 680.954,677.368 685.842,680.917 
  690.73,684.382 695.619,687.753 700.507,691.039 705.395,694.253 710.284,697.329 715.172,700.252 720.06,703.062 724.949,705.77 729.837,708.414 734.725,710.995 
  739.614,713.481 744.502,715.834 749.39,718.081 754.279,720.226 759.167,722.268 764.055,724.208 768.943,726.049 773.832,727.797 778.72,729.456 783.608,731.029 
  788.497,732.519 793.385,733.929 798.273,735.26 803.162,736.514 808.05,737.683 812.938,738.774 817.827,739.792 822.715,740.744 827.603,741.632 832.491,742.46 
  837.38,743.234 842.268,743.97 847.156,744.665 852.045,745.316 856.933,745.923 861.821,746.485 866.71,747.004 871.598,747.483 876.486,747.92 881.375,748.324 
  886.263,748.7 891.151,749.054 896.039,749.391 900.928,749.717 905.816,750.036 910.704,750.352 915.593,750.665 920.481,750.972 925.369,751.275 930.258,751.574 
  935.146,751.87 940.034,752.164 944.923,752.458 949.811,752.753 954.699,753.05 959.588,753.35 964.476,753.654 969.364,753.962 974.252,754.277 979.141,754.613 
  984.029,754.972 988.917,755.35 993.806,755.745 998.694,756.156 1003.58,756.586 1008.47,757.041 1013.36,757.54 1018.25,758.083 1023.14,758.665 1028.02,759.289 
  1032.91,759.959 1037.8,760.672 1042.69,761.432 1047.58,762.242 1052.47,763.104 1057.35,764.015 1062.24,764.971 1067.13,765.981 1072.02,767.055 1076.91,768.201 
  1081.8,769.42 1086.68,770.708 1091.57,772.058 1096.46,773.475 1101.35,774.968 1106.24,776.537 1111.13,778.18 1116.01,779.885 1120.9,781.645 1125.79,783.476 
  1130.68,785.378 1135.57,787.349 1140.46,789.39 1145.34,791.505 1150.23,793.733 1155.12,796.069 1160.01,798.498 1164.9,801.012 1169.78,803.602 1174.67,806.262 
  1179.56,808.99 1184.45,811.798 1189.34,814.79 1194.23,817.933 1199.11,821.182 1204,824.516 1208.89,827.946 1213.78,831.49 1218.67,835.083 1223.56,838.68 
  1228.44,842.267 1233.33,845.863 1238.22,849.498 1243.11,853.16 1248,856.873 1252.89,860.646 1257.77,864.478 1262.66,868.352 1267.55,872.237 1272.44,876.114 
  1277.33,880.001 1282.22,883.906 1287.1,887.831 1291.99,891.771 1296.88,895.711 1301.77,899.631 1306.66,903.525 1311.55,907.384 1316.43,911.201 1321.32,914.967 
  1326.21,918.676 1331.1,922.322 1335.99,925.904 1340.88,929.424 1345.76,932.867 1350.65,936.22 1355.54,939.474 1360.43,942.625 1365.32,945.672 1370.21,948.621 
  1375.09,951.477 1379.98,954.254 1384.87,956.977 1389.76,959.681 1394.65,962.354 1399.54,964.982 1404.42,967.558 1409.31,970.075 1414.2,972.532 1419.09,974.932 
  1423.98,977.287 1428.87,979.621 1433.75,981.927 1438.64,984.193 1443.53,986.414 1448.42,988.589 1453.31,990.718 1458.2,992.776 1463.08,994.705 1467.97,996.543 
  1472.86,998.323 1477.75,1000.06 1482.64,1001.77 1487.53,1003.44 1492.41,1005.09 1497.3,1006.71 1502.19,1008.3 1507.08,1009.86 1511.97,1011.38 1516.85,1012.87 
  1521.74,1014.32 1526.63,1015.74 1531.52,1017.16 1536.41,1018.56 1541.3,1019.96 1546.18,1021.34 1551.07,1022.71 1555.96,1024.05 1560.85,1025.37 1565.74,1026.67 
  1570.63,1027.94 1575.51,1029.18 1580.4,1030.41 1585.29,1031.61 1590.18,1032.79 1595.07,1033.96 1599.96,1035.11 1604.84,1036.24 1609.73,1037.35 1614.62,1038.44 
  1619.51,1039.52 1624.4,1040.58 1629.29,1041.62 1634.17,1042.64 1639.06,1043.64 1643.95,1044.62 1648.84,1045.57 1653.73,1046.5 1658.62,1047.4 1663.5,1048.27 
  1668.39,1049.13 1673.28,1049.97 1678.17,1050.79 1683.06,1051.59 1687.95,1052.37 1692.83,1053.13 1697.72,1053.88 1702.61,1054.6 1707.5,1055.31 1712.39,1056.01 
  1717.28,1056.69 1722.16,1057.35 1727.05,1058 1731.94,1058.64 1736.83,1059.26 1741.72,1059.86 1746.61,1060.45 1751.49,1061.03 1756.38,1061.6 1761.27,1062.15 
  1766.16,1062.7 1771.05,1063.23 1775.94,1063.76 1780.82,1064.29 1785.71,1064.82 1790.6,1065.36 1795.49,1065.91 1800.38,1066.48 1805.27,1067.05 1810.15,1067.64 
  1815.04,1068.25 1819.93,1068.88 1824.82,1069.53 1829.71,1070.21 1834.6,1070.93 1839.48,1071.68 1844.37,1072.47 1849.26,1073.31 1854.15,1074.21 1859.04,1075.16 
  1863.92,1076.17 1868.81,1077.24 1873.7,1078.37 1878.59,1079.57 1883.48,1080.83 1888.37,1082.14 1893.25,1083.5 1898.14,1084.9 1903.03,1086.35 1907.92,1087.83 
  1912.81,1089.37 1917.7,1090.96 1922.58,1092.61 1927.47,1094.31 1932.36,1096.07 1937.25,1097.91 1942.14,1099.81 1947.03,1101.78 1951.91,1103.79 1956.8,1105.86 
  1961.69,1107.96 1966.58,1110.11 1971.47,1112.3 1976.36,1114.55 1981.24,1116.86 1986.13,1119.23 1991.02,1121.64 1995.91,1124.08 2000.8,1126.55 2005.69,1129.08 
  2010.57,1131.69 2015.46,1134.4 2020.35,1137.21 2025.24,1140.11 2030.13,1143.08 2035.02,1146.12 2039.9,1149.25 2044.79,1152.43 2049.68,1155.69 2054.57,1159 
  2059.46,1162.39 2064.35,1165.85 2069.23,1169.37 2074.12,1172.93 2079.01,1176.54 2083.9,1180.21 2088.79,1183.95 2093.68,1187.76 2098.56,1191.64 2103.45,1195.6 
  2108.34,1199.63 2113.23,1203.71 2118.12,1207.84 2123.01,1212.02 2127.89,1216.26 2132.78,1220.58 2137.67,1225.08 2142.56,1229.46 2147.45,1233.5 2152.34,1237.21 
  2157.22,1240.8 2162.11,1244.4 2167,1247.99 2171.89,1251.6 2176.78,1255.22 2181.67,1258.84 2186.55,1262.45 2191.44,1266.04 2196.33,1269.62 2201.22,1273.19 
  2206.11,1276.75 2210.99,1280.3 2215.88,1283.84 2220.77,1287.39 2225.66,1290.93 2230.55,1294.46 2235.44,1297.98 2240.32,1301.44 2245.21,1304.77 2250.1,1308.03 
  2254.99,1311.27 2259.88,1314.52 2264.77,1317.76 2269.65,1320.98 2274.54,1324.22 2279.43,1327.49 2284.32,1330.81 2289.21,1334.14 2294.1,1337.46 2298.98,1340.8 
  2303.87,1344.13 2308.76,1347.47 2313.65,1350.83 2318.54,1354.69 2323.43,1359.04 2328.31,1363.5 2333.2,1367.94 2338.09,1372.38 2342.98,1376.96 2347.87,1381.79 
  2352.76,1386.4 
  "/>
<path clip-path="url(#clip270)" d="
M1855 322.316 L2287.58 322.316 L2287.58 166.796 L1855 166.796  Z
  " fill="#ffffff" fill-rule="evenodd" fill-opacity="1"/>
<polyline clip-path="url(#clip270)" style="stroke:#000000; stroke-linecap:butt; stroke-linejoin:round; stroke-width:4; stroke-opacity:1; fill:none" points="
  1855,322.316 2287.58,322.316 2287.58,166.796 1855,166.796 1855,322.316 
  "/>
<polyline clip-path="url(#clip270)" style="stroke:#009af9; stroke-linecap:butt; stroke-linejoin:round; stroke-width:4; stroke-opacity:1; fill:none" points="
  1876.72,218.636 2007.08,218.636 
  "/>
<path clip-path="url(#clip270)" d="M2039.43 199.944 Q2036.33 205.268 2034.82 210.476 Q2033.32 215.684 2033.32 221.032 Q2033.32 226.379 2034.82 231.633 Q2036.35 236.865 2039.43 242.166 L2035.73 242.166 Q2032.25 236.726 2030.52 231.471 Q2028.8 226.217 2028.8 221.032 Q2028.8 215.87 2030.52 210.638 Q2032.23 205.407 2035.73 199.944 L2039.43 199.944 Z" fill="#000000" fill-rule="evenodd" fill-opacity="1" /><path clip-path="url(#clip270)" d="M2051.91 202.629 L2051.91 209.99 L2060.68 209.99 L2060.68 213.3 L2051.91 213.3 L2051.91 227.374 Q2051.91 230.545 2052.76 231.448 Q2053.64 232.351 2056.3 232.351 L2060.68 232.351 L2060.68 235.916 L2056.3 235.916 Q2051.37 235.916 2049.5 234.087 Q2047.62 232.235 2047.62 227.374 L2047.62 213.3 L2044.5 213.3 L2044.5 209.99 L2047.62 209.99 L2047.62 202.629 L2051.91 202.629 Z" fill="#000000" fill-rule="evenodd" fill-opacity="1" /><path clip-path="url(#clip270)" d="M2067.37 230.036 L2072.25 230.036 L2072.25 234.018 L2068.46 241.425 L2065.47 241.425 L2067.37 234.018 L2067.37 230.036 Z" fill="#000000" fill-rule="evenodd" fill-opacity="1" /><path clip-path="url(#clip270)" d="M2102.25 202.49 L2102.25 207.05 Q2099.59 205.777 2097.23 205.152 Q2094.87 204.527 2092.67 204.527 Q2088.85 204.527 2086.77 206.008 Q2084.71 207.49 2084.71 210.221 Q2084.71 212.513 2086.07 213.694 Q2087.46 214.851 2091.3 215.569 L2094.13 216.147 Q2099.36 217.143 2101.84 219.666 Q2104.34 222.166 2104.34 226.379 Q2104.34 231.402 2100.96 233.994 Q2097.6 236.587 2091.1 236.587 Q2088.64 236.587 2085.86 236.031 Q2083.11 235.476 2080.15 234.388 L2080.15 229.573 Q2082.99 231.17 2085.72 231.981 Q2088.46 232.791 2091.1 232.791 Q2095.1 232.791 2097.28 231.217 Q2099.45 229.643 2099.45 226.726 Q2099.45 224.18 2097.88 222.744 Q2096.33 221.309 2092.76 220.592 L2089.91 220.036 Q2084.68 218.995 2082.35 216.772 Q2080.01 214.55 2080.01 210.592 Q2080.01 206.008 2083.22 203.37 Q2086.47 200.731 2092.14 200.731 Q2094.57 200.731 2097.09 201.171 Q2099.61 201.61 2102.25 202.49 Z" fill="#000000" fill-rule="evenodd" fill-opacity="1" /><path clip-path="url(#clip270)" d="M2111.05 199.897 L2120.86 199.897 L2120.86 203.208 L2115.31 203.208 L2115.31 238.856 L2120.86 238.856 L2120.86 242.166 L2111.05 242.166 L2111.05 199.897 Z" fill="#000000" fill-rule="evenodd" fill-opacity="1" /><path clip-path="url(#clip270)" d="M2131.35 231.981 L2138.99 231.981 L2138.99 205.615 L2130.68 207.282 L2130.68 203.022 L2138.94 201.356 L2143.62 201.356 L2143.62 231.981 L2151.26 231.981 L2151.26 235.916 L2131.35 235.916 L2131.35 231.981 Z" fill="#000000" fill-rule="evenodd" fill-opacity="1" /><path clip-path="url(#clip270)" d="M2170.05 199.897 L2170.05 242.166 L2160.24 242.166 L2160.24 238.856 L2165.77 238.856 L2165.77 203.208 L2160.24 203.208 L2160.24 199.897 L2170.05 199.897 Z" fill="#000000" fill-rule="evenodd" fill-opacity="1" /><path clip-path="url(#clip270)" d="M2188.83 199.944 Q2185.72 205.268 2184.22 210.476 Q2182.72 215.684 2182.72 221.032 Q2182.72 226.379 2184.22 231.633 Q2185.75 236.865 2188.83 242.166 L2185.12 242.166 Q2181.65 236.726 2179.91 231.471 Q2178.2 226.217 2178.2 221.032 Q2178.2 215.87 2179.91 210.638 Q2181.63 205.407 2185.12 199.944 L2188.83 199.944 Z" fill="#000000" fill-rule="evenodd" fill-opacity="1" /><path clip-path="url(#clip270)" d="M2201.3 202.629 L2201.3 209.99 L2210.08 209.99 L2210.08 213.3 L2201.3 213.3 L2201.3 227.374 Q2201.3 230.545 2202.16 231.448 Q2203.04 232.351 2205.7 232.351 L2210.08 232.351 L2210.08 235.916 L2205.7 235.916 Q2200.77 235.916 2198.9 234.087 Q2197.02 232.235 2197.02 227.374 L2197.02 213.3 L2193.9 213.3 L2193.9 209.99 L2197.02 209.99 L2197.02 202.629 L2201.3 202.629 Z" fill="#000000" fill-rule="evenodd" fill-opacity="1" /><path clip-path="url(#clip270)" d="M2215.01 199.944 L2218.71 199.944 Q2222.18 205.407 2223.9 210.638 Q2225.63 215.87 2225.63 221.032 Q2225.63 226.217 2223.9 231.471 Q2222.18 236.726 2218.71 242.166 L2215.01 242.166 Q2218.09 236.865 2219.59 231.633 Q2221.12 226.379 2221.12 221.032 Q2221.12 215.684 2219.59 210.476 Q2218.09 205.268 2215.01 199.944 Z" fill="#000000" fill-rule="evenodd" fill-opacity="1" /><path clip-path="url(#clip270)" d="M2233.5 199.944 L2237.21 199.944 Q2240.68 205.407 2242.39 210.638 Q2244.13 215.87 2244.13 221.032 Q2244.13 226.217 2242.39 231.471 Q2240.68 236.726 2237.21 242.166 L2233.5 242.166 Q2236.58 236.865 2238.09 231.633 Q2239.61 226.379 2239.61 221.032 Q2239.61 215.684 2238.09 210.476 Q2236.58 205.268 2233.5 199.944 Z" fill="#000000" fill-rule="evenodd" fill-opacity="1" /><polyline clip-path="url(#clip270)" style="stroke:#e26f46; stroke-linecap:butt; stroke-linejoin:round; stroke-width:4; stroke-opacity:1; fill:none" points="
  1876.72,270.476 2007.08,270.476 
  "/>
<path clip-path="url(#clip270)" d="M2039.43 251.784 Q2036.33 257.108 2034.82 262.316 Q2033.32 267.524 2033.32 272.872 Q2033.32 278.219 2034.82 283.473 Q2036.35 288.705 2039.43 294.006 L2035.73 294.006 Q2032.25 288.566 2030.52 283.311 Q2028.8 278.057 2028.8 272.872 Q2028.8 267.71 2030.52 262.478 Q2032.23 257.247 2035.73 251.784 L2039.43 251.784 Z" fill="#000000" fill-rule="evenodd" fill-opacity="1" /><path clip-path="url(#clip270)" d="M2051.91 254.469 L2051.91 261.83 L2060.68 261.83 L2060.68 265.14 L2051.91 265.14 L2051.91 279.214 Q2051.91 282.385 2052.76 283.288 Q2053.64 284.191 2056.3 284.191 L2060.68 284.191 L2060.68 287.756 L2056.3 287.756 Q2051.37 287.756 2049.5 285.927 Q2047.62 284.075 2047.62 279.214 L2047.62 265.14 L2044.5 265.14 L2044.5 261.83 L2047.62 261.83 L2047.62 254.469 L2051.91 254.469 Z" fill="#000000" fill-rule="evenodd" fill-opacity="1" /><path clip-path="url(#clip270)" d="M2067.37 281.876 L2072.25 281.876 L2072.25 285.858 L2068.46 293.265 L2065.47 293.265 L2067.37 285.858 L2067.37 281.876 Z" fill="#000000" fill-rule="evenodd" fill-opacity="1" /><path clip-path="url(#clip270)" d="M2102.25 254.33 L2102.25 258.89 Q2099.59 257.617 2097.23 256.992 Q2094.87 256.367 2092.67 256.367 Q2088.85 256.367 2086.77 257.848 Q2084.71 259.33 2084.71 262.061 Q2084.71 264.353 2086.07 265.534 Q2087.46 266.691 2091.3 267.409 L2094.13 267.987 Q2099.36 268.983 2101.84 271.506 Q2104.34 274.006 2104.34 278.219 Q2104.34 283.242 2100.96 285.834 Q2097.6 288.427 2091.1 288.427 Q2088.64 288.427 2085.86 287.871 Q2083.11 287.316 2080.15 286.228 L2080.15 281.413 Q2082.99 283.01 2085.72 283.821 Q2088.46 284.631 2091.1 284.631 Q2095.1 284.631 2097.28 283.057 Q2099.45 281.483 2099.45 278.566 Q2099.45 276.02 2097.88 274.584 Q2096.33 273.149 2092.76 272.432 L2089.91 271.876 Q2084.68 270.835 2082.35 268.612 Q2080.01 266.39 2080.01 262.432 Q2080.01 257.848 2083.22 255.21 Q2086.47 252.571 2092.14 252.571 Q2094.57 252.571 2097.09 253.011 Q2099.61 253.45 2102.25 254.33 Z" fill="#000000" fill-rule="evenodd" fill-opacity="1" /><path clip-path="url(#clip270)" d="M2111.05 251.737 L2120.86 251.737 L2120.86 255.048 L2115.31 255.048 L2115.31 290.696 L2120.86 290.696 L2120.86 294.006 L2111.05 294.006 L2111.05 251.737 Z" fill="#000000" fill-rule="evenodd" fill-opacity="1" /><path clip-path="url(#clip270)" d="M2134.57 283.821 L2150.89 283.821 L2150.89 287.756 L2128.94 287.756 L2128.94 283.821 Q2131.6 281.066 2136.19 276.436 Q2140.79 271.784 2141.97 270.441 Q2144.22 267.918 2145.1 266.182 Q2146 264.423 2146 262.733 Q2146 259.978 2144.06 258.242 Q2142.14 256.506 2139.03 256.506 Q2136.84 256.506 2134.38 257.27 Q2131.95 258.034 2129.17 259.585 L2129.17 254.862 Q2132 253.728 2134.45 253.149 Q2136.91 252.571 2138.94 252.571 Q2144.31 252.571 2147.51 255.256 Q2150.7 257.941 2150.7 262.432 Q2150.7 264.561 2149.89 266.483 Q2149.1 268.381 2147 270.973 Q2146.42 271.645 2143.32 274.862 Q2140.22 278.057 2134.57 283.821 Z" fill="#000000" fill-rule="evenodd" fill-opacity="1" /><path clip-path="url(#clip270)" d="M2170.05 251.737 L2170.05 294.006 L2160.24 294.006 L2160.24 290.696 L2165.77 290.696 L2165.77 255.048 L2160.24 255.048 L2160.24 251.737 L2170.05 251.737 Z" fill="#000000" fill-rule="evenodd" fill-opacity="1" /><path clip-path="url(#clip270)" d="M2188.83 251.784 Q2185.72 257.108 2184.22 262.316 Q2182.72 267.524 2182.72 272.872 Q2182.72 278.219 2184.22 283.473 Q2185.75 288.705 2188.83 294.006 L2185.12 294.006 Q2181.65 288.566 2179.91 283.311 Q2178.2 278.057 2178.2 272.872 Q2178.2 267.71 2179.91 262.478 Q2181.63 257.247 2185.12 251.784 L2188.83 251.784 Z" fill="#000000" fill-rule="evenodd" fill-opacity="1" /><path clip-path="url(#clip270)" d="M2201.3 254.469 L2201.3 261.83 L2210.08 261.83 L2210.08 265.14 L2201.3 265.14 L2201.3 279.214 Q2201.3 282.385 2202.16 283.288 Q2203.04 284.191 2205.7 284.191 L2210.08 284.191 L2210.08 287.756 L2205.7 287.756 Q2200.77 287.756 2198.9 285.927 Q2197.02 284.075 2197.02 279.214 L2197.02 265.14 L2193.9 265.14 L2193.9 261.83 L2197.02 261.83 L2197.02 254.469 L2201.3 254.469 Z" fill="#000000" fill-rule="evenodd" fill-opacity="1" /><path clip-path="url(#clip270)" d="M2215.01 251.784 L2218.71 251.784 Q2222.18 257.247 2223.9 262.478 Q2225.63 267.71 2225.63 272.872 Q2225.63 278.057 2223.9 283.311 Q2222.18 288.566 2218.71 294.006 L2215.01 294.006 Q2218.09 288.705 2219.59 283.473 Q2221.12 278.219 2221.12 272.872 Q2221.12 267.524 2219.59 262.316 Q2218.09 257.108 2215.01 251.784 Z" fill="#000000" fill-rule="evenodd" fill-opacity="1" /><path clip-path="url(#clip270)" d="M2233.5 251.784 L2237.21 251.784 Q2240.68 257.247 2242.39 262.478 Q2244.13 267.71 2244.13 272.872 Q2244.13 278.057 2242.39 283.311 Q2240.68 288.566 2237.21 294.006 L2233.5 294.006 Q2236.58 288.705 2238.09 283.473 Q2239.61 278.219 2239.61 272.872 Q2239.61 267.524 2238.09 262.316 Q2236.58 257.108 2233.5 251.784 Z" fill="#000000" fill-rule="evenodd" fill-opacity="1" /></svg>
