<?xml version="1.0" encoding="utf-8"?>
<svg xmlns="http://www.w3.org/2000/svg" xmlns:xlink="http://www.w3.org/1999/xlink" width="600" height="400" viewBox="0 0 2400 1600">
<defs>
  <clipPath id="clip740">
    <rect x="0" y="0" width="2400" height="1600"/>
  </clipPath>
</defs>
<path clip-path="url(#clip740)" d="
M0 1600 L2400 1600 L2400 0 L0 0  Z
  " fill="#ffffff" fill-rule="evenodd" fill-opacity="1"/>
<defs>
  <clipPath id="clip741">
    <rect x="480" y="0" width="1681" height="1600"/>
  </clipPath>
</defs>
<path clip-path="url(#clip740)" d="
M397.432 1423.18 L2352.76 1423.18 L2352.76 123.472 L397.432 123.472  Z
  " fill="#ffffff" fill-rule="evenodd" fill-opacity="1"/>
<defs>
  <clipPath id="clip742">
    <rect x="397" y="123" width="1956" height="1301"/>
  </clipPath>
</defs>
<polyline clip-path="url(#clip742)" style="stroke:#000000; stroke-linecap:butt; stroke-linejoin:round; stroke-width:2; stroke-opacity:0.1; fill:none" points="
  397.432,1423.18 397.432,123.472 
  "/>
<polyline clip-path="url(#clip742)" style="stroke:#000000; stroke-linecap:butt; stroke-linejoin:round; stroke-width:2; stroke-opacity:0.1; fill:none" points="
  886.263,1423.18 886.263,123.472 
  "/>
<polyline clip-path="url(#clip742)" style="stroke:#000000; stroke-linecap:butt; stroke-linejoin:round; stroke-width:2; stroke-opacity:0.1; fill:none" points="
  1375.09,1423.18 1375.09,123.472 
  "/>
<polyline clip-path="url(#clip742)" style="stroke:#000000; stroke-linecap:butt; stroke-linejoin:round; stroke-width:2; stroke-opacity:0.1; fill:none" points="
  1863.92,1423.18 1863.92,123.472 
  "/>
<polyline clip-path="url(#clip742)" style="stroke:#000000; stroke-linecap:butt; stroke-linejoin:round; stroke-width:2; stroke-opacity:0.1; fill:none" points="
  2352.76,1423.18 2352.76,123.472 
  "/>
<polyline clip-path="url(#clip740)" style="stroke:#000000; stroke-linecap:butt; stroke-linejoin:round; stroke-width:4; stroke-opacity:1; fill:none" points="
  397.432,1423.18 2352.76,1423.18 
  "/>
<polyline clip-path="url(#clip740)" style="stroke:#000000; stroke-linecap:butt; stroke-linejoin:round; stroke-width:4; stroke-opacity:1; fill:none" points="
  397.432,1423.18 397.432,1404.28 
  "/>
<polyline clip-path="url(#clip740)" style="stroke:#000000; stroke-linecap:butt; stroke-linejoin:round; stroke-width:4; stroke-opacity:1; fill:none" points="
  886.263,1423.18 886.263,1404.28 
  "/>
<polyline clip-path="url(#clip740)" style="stroke:#000000; stroke-linecap:butt; stroke-linejoin:round; stroke-width:4; stroke-opacity:1; fill:none" points="
  1375.09,1423.18 1375.09,1404.28 
  "/>
<polyline clip-path="url(#clip740)" style="stroke:#000000; stroke-linecap:butt; stroke-linejoin:round; stroke-width:4; stroke-opacity:1; fill:none" points="
  1863.92,1423.18 1863.92,1404.28 
  "/>
<polyline clip-path="url(#clip740)" style="stroke:#000000; stroke-linecap:butt; stroke-linejoin:round; stroke-width:4; stroke-opacity:1; fill:none" points="
  2352.76,1423.18 2352.76,1404.28 
  "/>
<path clip-path="url(#clip740)" d="M397.432 1452.37 Q393.821 1452.37 391.992 1455.94 Q390.187 1459.48 390.187 1466.61 Q390.187 1473.71 391.992 1477.28 Q393.821 1480.82 397.432 1480.82 Q401.066 1480.82 402.872 1477.28 Q404.7 1473.71 404.7 1466.61 Q404.7 1459.48 402.872 1455.94 Q401.066 1452.37 397.432 1452.37 M397.432 1448.67 Q403.242 1448.67 406.298 1453.27 Q409.376 1457.86 409.376 1466.61 Q409.376 1475.33 406.298 1479.94 Q403.242 1484.52 397.432 1484.52 Q391.622 1484.52 388.543 1479.94 Q385.487 1475.33 385.487 1466.61 Q385.487 1457.86 388.543 1453.27 Q391.622 1448.67 397.432 1448.67 Z" fill="#000000" fill-rule="evenodd" fill-opacity="1" /><path clip-path="url(#clip740)" d="M845.87 1479.92 L853.508 1479.92 L853.508 1453.55 L845.198 1455.22 L845.198 1450.96 L853.462 1449.29 L858.138 1449.29 L858.138 1479.92 L865.777 1479.92 L865.777 1483.85 L845.87 1483.85 L845.87 1479.92 Z" fill="#000000" fill-rule="evenodd" fill-opacity="1" /><path clip-path="url(#clip740)" d="M885.221 1452.37 Q881.61 1452.37 879.781 1455.94 Q877.976 1459.48 877.976 1466.61 Q877.976 1473.71 879.781 1477.28 Q881.61 1480.82 885.221 1480.82 Q888.855 1480.82 890.661 1477.28 Q892.49 1473.71 892.49 1466.61 Q892.49 1459.48 890.661 1455.94 Q888.855 1452.37 885.221 1452.37 M885.221 1448.67 Q891.031 1448.67 894.087 1453.27 Q897.166 1457.86 897.166 1466.61 Q897.166 1475.33 894.087 1479.94 Q891.031 1484.52 885.221 1484.52 Q879.411 1484.52 876.332 1479.94 Q873.277 1475.33 873.277 1466.61 Q873.277 1457.86 876.332 1453.27 Q879.411 1448.67 885.221 1448.67 Z" fill="#000000" fill-rule="evenodd" fill-opacity="1" /><path clip-path="url(#clip740)" d="M915.383 1452.37 Q911.772 1452.37 909.943 1455.94 Q908.138 1459.48 908.138 1466.61 Q908.138 1473.71 909.943 1477.28 Q911.772 1480.82 915.383 1480.82 Q919.017 1480.82 920.823 1477.28 Q922.652 1473.71 922.652 1466.61 Q922.652 1459.48 920.823 1455.94 Q919.017 1452.37 915.383 1452.37 M915.383 1448.67 Q921.193 1448.67 924.249 1453.27 Q927.327 1457.86 927.327 1466.61 Q927.327 1475.33 924.249 1479.94 Q921.193 1484.52 915.383 1484.52 Q909.573 1484.52 906.494 1479.94 Q903.439 1475.33 903.439 1466.61 Q903.439 1457.86 906.494 1453.27 Q909.573 1448.67 915.383 1448.67 Z" fill="#000000" fill-rule="evenodd" fill-opacity="1" /><path clip-path="url(#clip740)" d="M1338.79 1479.92 L1355.11 1479.92 L1355.11 1483.85 L1333.16 1483.85 L1333.16 1479.92 Q1335.82 1477.16 1340.41 1472.53 Q1345.01 1467.88 1346.19 1466.54 Q1348.44 1464.01 1349.32 1462.28 Q1350.22 1460.52 1350.22 1458.83 Q1350.22 1456.07 1348.28 1454.34 Q1346.36 1452.6 1343.25 1452.6 Q1341.05 1452.6 1338.6 1453.37 Q1336.17 1454.13 1333.39 1455.68 L1333.39 1450.96 Q1336.22 1449.82 1338.67 1449.25 Q1341.12 1448.67 1343.16 1448.67 Q1348.53 1448.67 1351.73 1451.35 Q1354.92 1454.04 1354.92 1458.53 Q1354.92 1460.66 1354.11 1462.58 Q1353.32 1464.48 1351.22 1467.07 Q1350.64 1467.74 1347.54 1470.96 Q1344.43 1474.15 1338.79 1479.92 Z" fill="#000000" fill-rule="evenodd" fill-opacity="1" /><path clip-path="url(#clip740)" d="M1374.92 1452.37 Q1371.31 1452.37 1369.48 1455.94 Q1367.67 1459.48 1367.67 1466.61 Q1367.67 1473.71 1369.48 1477.28 Q1371.31 1480.82 1374.92 1480.82 Q1378.55 1480.82 1380.36 1477.28 Q1382.19 1473.71 1382.19 1466.61 Q1382.19 1459.48 1380.36 1455.94 Q1378.55 1452.37 1374.92 1452.37 M1374.92 1448.67 Q1380.73 1448.67 1383.79 1453.27 Q1386.86 1457.86 1386.86 1466.61 Q1386.86 1475.33 1383.79 1479.94 Q1380.73 1484.52 1374.92 1484.52 Q1369.11 1484.52 1366.03 1479.94 Q1362.98 1475.33 1362.98 1466.61 Q1362.98 1457.86 1366.03 1453.27 Q1369.11 1448.67 1374.92 1448.67 Z" fill="#000000" fill-rule="evenodd" fill-opacity="1" /><path clip-path="url(#clip740)" d="M1405.08 1452.37 Q1401.47 1452.37 1399.64 1455.94 Q1397.84 1459.48 1397.84 1466.61 Q1397.84 1473.71 1399.64 1477.28 Q1401.47 1480.82 1405.08 1480.82 Q1408.72 1480.82 1410.52 1477.28 Q1412.35 1473.71 1412.35 1466.61 Q1412.35 1459.48 1410.52 1455.94 Q1408.72 1452.37 1405.08 1452.37 M1405.08 1448.67 Q1410.89 1448.67 1413.95 1453.27 Q1417.03 1457.86 1417.03 1466.61 Q1417.03 1475.33 1413.95 1479.94 Q1410.89 1484.52 1405.08 1484.52 Q1399.27 1484.52 1396.19 1479.94 Q1393.14 1475.33 1393.14 1466.61 Q1393.14 1457.86 1396.19 1453.27 Q1399.27 1448.67 1405.08 1448.67 Z" fill="#000000" fill-rule="evenodd" fill-opacity="1" /><path clip-path="url(#clip740)" d="M1837.69 1465.22 Q1841.04 1465.94 1842.92 1468.2 Q1844.82 1470.47 1844.82 1473.81 Q1844.82 1478.92 1841.3 1481.72 Q1837.78 1484.52 1831.3 1484.52 Q1829.12 1484.52 1826.81 1484.08 Q1824.52 1483.67 1822.06 1482.81 L1822.06 1478.3 Q1824.01 1479.43 1826.32 1480.01 Q1828.64 1480.59 1831.16 1480.59 Q1835.56 1480.59 1837.85 1478.85 Q1840.16 1477.12 1840.16 1473.81 Q1840.16 1470.75 1838.01 1469.04 Q1835.88 1467.3 1832.06 1467.3 L1828.03 1467.3 L1828.03 1463.46 L1832.25 1463.46 Q1835.7 1463.46 1837.52 1462.09 Q1839.35 1460.7 1839.35 1458.11 Q1839.35 1455.45 1837.46 1454.04 Q1835.58 1452.6 1832.06 1452.6 Q1830.14 1452.6 1827.94 1453.02 Q1825.74 1453.44 1823.1 1454.31 L1823.1 1450.15 Q1825.77 1449.41 1828.08 1449.04 Q1830.42 1448.67 1832.48 1448.67 Q1837.8 1448.67 1840.9 1451.1 Q1844.01 1453.5 1844.01 1457.63 Q1844.01 1460.5 1842.36 1462.49 Q1840.72 1464.45 1837.69 1465.22 Z" fill="#000000" fill-rule="evenodd" fill-opacity="1" /><path clip-path="url(#clip740)" d="M1863.68 1452.37 Q1860.07 1452.37 1858.24 1455.94 Q1856.44 1459.48 1856.44 1466.61 Q1856.44 1473.71 1858.24 1477.28 Q1860.07 1480.82 1863.68 1480.82 Q1867.32 1480.82 1869.12 1477.28 Q1870.95 1473.71 1870.95 1466.61 Q1870.95 1459.48 1869.12 1455.94 Q1867.32 1452.37 1863.68 1452.37 M1863.68 1448.67 Q1869.49 1448.67 1872.55 1453.27 Q1875.63 1457.86 1875.63 1466.61 Q1875.63 1475.33 1872.55 1479.94 Q1869.49 1484.52 1863.68 1484.52 Q1857.87 1484.52 1854.79 1479.94 Q1851.74 1475.33 1851.74 1466.61 Q1851.74 1457.86 1854.79 1453.27 Q1857.87 1448.67 1863.68 1448.67 Z" fill="#000000" fill-rule="evenodd" fill-opacity="1" /><path clip-path="url(#clip740)" d="M1893.84 1452.37 Q1890.23 1452.37 1888.4 1455.94 Q1886.6 1459.48 1886.6 1466.61 Q1886.6 1473.71 1888.4 1477.28 Q1890.23 1480.82 1893.84 1480.82 Q1897.48 1480.82 1899.28 1477.28 Q1901.11 1473.71 1901.11 1466.61 Q1901.11 1459.48 1899.28 1455.94 Q1897.48 1452.37 1893.84 1452.37 M1893.84 1448.67 Q1899.65 1448.67 1902.71 1453.27 Q1905.79 1457.86 1905.79 1466.61 Q1905.79 1475.33 1902.71 1479.94 Q1899.65 1484.52 1893.84 1484.52 Q1888.03 1484.52 1884.95 1479.94 Q1881.9 1475.33 1881.9 1466.61 Q1881.9 1457.86 1884.95 1453.27 Q1888.03 1448.67 1893.84 1448.67 Z" fill="#000000" fill-rule="evenodd" fill-opacity="1" /><path clip-path="url(#clip740)" d="M2325.85 1453.37 L2314.04 1471.81 L2325.85 1471.81 L2325.85 1453.37 M2324.62 1449.29 L2330.5 1449.29 L2330.5 1471.81 L2335.43 1471.81 L2335.43 1475.7 L2330.5 1475.7 L2330.5 1483.85 L2325.85 1483.85 L2325.85 1475.7 L2310.24 1475.7 L2310.24 1471.19 L2324.62 1449.29 Z" fill="#000000" fill-rule="evenodd" fill-opacity="1" /><path clip-path="url(#clip740)" d="M2353.16 1452.37 Q2349.55 1452.37 2347.72 1455.94 Q2345.92 1459.48 2345.92 1466.61 Q2345.92 1473.71 2347.72 1477.28 Q2349.55 1480.82 2353.16 1480.82 Q2356.8 1480.82 2358.6 1477.28 Q2360.43 1473.71 2360.43 1466.61 Q2360.43 1459.48 2358.6 1455.94 Q2356.8 1452.37 2353.16 1452.37 M2353.16 1448.67 Q2358.97 1448.67 2362.03 1453.27 Q2365.11 1457.86 2365.11 1466.61 Q2365.11 1475.33 2362.03 1479.94 Q2358.97 1484.52 2353.16 1484.52 Q2347.35 1484.52 2344.27 1479.94 Q2341.22 1475.33 2341.22 1466.61 Q2341.22 1457.86 2344.27 1453.27 Q2347.35 1448.67 2353.16 1448.67 Z" fill="#000000" fill-rule="evenodd" fill-opacity="1" /><path clip-path="url(#clip740)" d="M2383.32 1452.37 Q2379.71 1452.37 2377.88 1455.94 Q2376.08 1459.48 2376.08 1466.61 Q2376.08 1473.71 2377.88 1477.28 Q2379.71 1480.82 2383.32 1480.82 Q2386.96 1480.82 2388.76 1477.28 Q2390.59 1473.71 2390.59 1466.61 Q2390.59 1459.48 2388.76 1455.94 Q2386.96 1452.37 2383.32 1452.37 M2383.32 1448.67 Q2389.13 1448.67 2392.19 1453.27 Q2395.27 1457.86 2395.27 1466.61 Q2395.27 1475.33 2392.19 1479.94 Q2389.13 1484.52 2383.32 1484.52 Q2377.51 1484.52 2374.43 1479.94 Q2371.38 1475.33 2371.38 1466.61 Q2371.38 1457.86 2374.43 1453.27 Q2377.51 1448.67 2383.32 1448.67 Z" fill="#000000" fill-rule="evenodd" fill-opacity="1" /><path clip-path="url(#clip740)" d="M1374.15 1522.27 L1374.15 1532.4 L1386.22 1532.4 L1386.22 1536.95 L1374.15 1536.95 L1374.15 1556.3 Q1374.15 1560.66 1375.33 1561.9 Q1376.54 1563.14 1380.2 1563.14 L1386.22 1563.14 L1386.22 1568.04 L1380.2 1568.04 Q1373.42 1568.04 1370.84 1565.53 Q1368.27 1562.98 1368.27 1556.3 L1368.27 1536.95 L1363.97 1536.95 L1363.97 1532.4 L1368.27 1532.4 L1368.27 1522.27 L1374.15 1522.27 Z" fill="#000000" fill-rule="evenodd" fill-opacity="1" /><polyline clip-path="url(#clip742)" style="stroke:#000000; stroke-linecap:butt; stroke-linejoin:round; stroke-width:2; stroke-opacity:0.1; fill:none" points="
  397.432,1328.79 2352.76,1328.79 
  "/>
<polyline clip-path="url(#clip742)" style="stroke:#000000; stroke-linecap:butt; stroke-linejoin:round; stroke-width:2; stroke-opacity:0.1; fill:none" points="
  397.432,1146.72 2352.76,1146.72 
  "/>
<polyline clip-path="url(#clip742)" style="stroke:#000000; stroke-linecap:butt; stroke-linejoin:round; stroke-width:2; stroke-opacity:0.1; fill:none" points="
  397.432,964.649 2352.76,964.649 
  "/>
<polyline clip-path="url(#clip742)" style="stroke:#000000; stroke-linecap:butt; stroke-linejoin:round; stroke-width:2; stroke-opacity:0.1; fill:none" points="
  397.432,782.577 2352.76,782.577 
  "/>
<polyline clip-path="url(#clip742)" style="stroke:#000000; stroke-linecap:butt; stroke-linejoin:round; stroke-width:2; stroke-opacity:0.1; fill:none" points="
  397.432,600.505 2352.76,600.505 
  "/>
<polyline clip-path="url(#clip742)" style="stroke:#000000; stroke-linecap:butt; stroke-linejoin:round; stroke-width:2; stroke-opacity:0.1; fill:none" points="
  397.432,418.434 2352.76,418.434 
  "/>
<polyline clip-path="url(#clip742)" style="stroke:#000000; stroke-linecap:butt; stroke-linejoin:round; stroke-width:2; stroke-opacity:0.1; fill:none" points="
  397.432,236.362 2352.76,236.362 
  "/>
<polyline clip-path="url(#clip740)" style="stroke:#000000; stroke-linecap:butt; stroke-linejoin:round; stroke-width:4; stroke-opacity:1; fill:none" points="
  397.432,1423.18 397.432,123.472 
  "/>
<polyline clip-path="url(#clip740)" style="stroke:#000000; stroke-linecap:butt; stroke-linejoin:round; stroke-width:4; stroke-opacity:1; fill:none" points="
  397.432,1328.79 416.33,1328.79 
  "/>
<polyline clip-path="url(#clip740)" style="stroke:#000000; stroke-linecap:butt; stroke-linejoin:round; stroke-width:4; stroke-opacity:1; fill:none" points="
  397.432,1146.72 416.33,1146.72 
  "/>
<polyline clip-path="url(#clip740)" style="stroke:#000000; stroke-linecap:butt; stroke-linejoin:round; stroke-width:4; stroke-opacity:1; fill:none" points="
  397.432,964.649 416.33,964.649 
  "/>
<polyline clip-path="url(#clip740)" style="stroke:#000000; stroke-linecap:butt; stroke-linejoin:round; stroke-width:4; stroke-opacity:1; fill:none" points="
  397.432,782.577 416.33,782.577 
  "/>
<polyline clip-path="url(#clip740)" style="stroke:#000000; stroke-linecap:butt; stroke-linejoin:round; stroke-width:4; stroke-opacity:1; fill:none" points="
  397.432,600.505 416.33,600.505 
  "/>
<polyline clip-path="url(#clip740)" style="stroke:#000000; stroke-linecap:butt; stroke-linejoin:round; stroke-width:4; stroke-opacity:1; fill:none" points="
  397.432,418.434 416.33,418.434 
  "/>
<polyline clip-path="url(#clip740)" style="stroke:#000000; stroke-linecap:butt; stroke-linejoin:round; stroke-width:4; stroke-opacity:1; fill:none" points="
  397.432,236.362 416.33,236.362 
  "/>
<path clip-path="url(#clip740)" d="M129.885 1333.89 Q133.242 1334.6 135.117 1336.87 Q137.015 1339.14 137.015 1342.47 Q137.015 1347.59 133.496 1350.39 Q129.978 1353.19 123.496 1353.19 Q121.32 1353.19 119.006 1352.75 Q116.714 1352.33 114.26 1351.48 L114.26 1346.96 Q116.205 1348.1 118.519 1348.68 Q120.834 1349.26 123.357 1349.26 Q127.755 1349.26 130.047 1347.52 Q132.362 1345.78 132.362 1342.47 Q132.362 1339.42 130.209 1337.7 Q128.08 1335.97 124.26 1335.97 L120.232 1335.97 L120.232 1332.13 L124.445 1332.13 Q127.894 1332.13 129.723 1330.76 Q131.552 1329.37 131.552 1326.78 Q131.552 1324.12 129.654 1322.7 Q127.779 1321.27 124.26 1321.27 Q122.339 1321.27 120.14 1321.69 Q117.941 1322.1 115.302 1322.98 L115.302 1318.82 Q117.964 1318.08 120.279 1317.7 Q122.617 1317.33 124.677 1317.33 Q130.001 1317.33 133.103 1319.76 Q136.204 1322.17 136.204 1326.29 Q136.204 1329.16 134.561 1331.15 Q132.917 1333.12 129.885 1333.89 Z" fill="#000000" fill-rule="evenodd" fill-opacity="1" /><path clip-path="url(#clip740)" d="M145.88 1346.64 L150.765 1346.64 L150.765 1352.52 L145.88 1352.52 L145.88 1346.64 Z" fill="#000000" fill-rule="evenodd" fill-opacity="1" /><path clip-path="url(#clip740)" d="M164.977 1348.58 L181.297 1348.58 L181.297 1352.52 L159.353 1352.52 L159.353 1348.58 Q162.015 1345.83 166.598 1341.2 Q171.204 1336.55 172.385 1335.2 Q174.63 1332.68 175.51 1330.95 Q176.413 1329.19 176.413 1327.5 Q176.413 1324.74 174.468 1323.01 Q172.547 1321.27 169.445 1321.27 Q167.246 1321.27 164.792 1322.03 Q162.362 1322.8 159.584 1324.35 L159.584 1319.63 Q162.408 1318.49 164.862 1317.91 Q167.315 1317.33 169.352 1317.33 Q174.723 1317.33 177.917 1320.02 Q181.112 1322.7 181.112 1327.2 Q181.112 1329.33 180.301 1331.25 Q179.514 1333.14 177.408 1335.74 Q176.829 1336.41 173.727 1339.63 Q170.626 1342.82 164.977 1348.58 Z" fill="#000000" fill-rule="evenodd" fill-opacity="1" /><path clip-path="url(#clip740)" d="M195.139 1348.58 L211.459 1348.58 L211.459 1352.52 L189.514 1352.52 L189.514 1348.58 Q192.176 1345.83 196.76 1341.2 Q201.366 1336.55 202.547 1335.2 Q204.792 1332.68 205.672 1330.95 Q206.574 1329.19 206.574 1327.5 Q206.574 1324.74 204.63 1323.01 Q202.709 1321.27 199.607 1321.27 Q197.408 1321.27 194.954 1322.03 Q192.524 1322.8 189.746 1324.35 L189.746 1319.63 Q192.57 1318.49 195.024 1317.91 Q197.477 1317.33 199.514 1317.33 Q204.885 1317.33 208.079 1320.02 Q211.274 1322.7 211.274 1327.2 Q211.274 1329.33 210.463 1331.25 Q209.676 1333.14 207.57 1335.74 Q206.991 1336.41 203.889 1339.63 Q200.787 1342.82 195.139 1348.58 Z" fill="#000000" fill-rule="evenodd" fill-opacity="1" /><path clip-path="url(#clip740)" d="M231.273 1321.04 Q227.662 1321.04 225.834 1324.6 Q224.028 1328.14 224.028 1335.27 Q224.028 1342.38 225.834 1345.95 Q227.662 1349.49 231.273 1349.49 Q234.908 1349.49 236.713 1345.95 Q238.542 1342.38 238.542 1335.27 Q238.542 1328.14 236.713 1324.6 Q234.908 1321.04 231.273 1321.04 M231.273 1317.33 Q237.084 1317.33 240.139 1321.94 Q243.218 1326.52 243.218 1335.27 Q243.218 1344 240.139 1348.61 Q237.084 1353.19 231.273 1353.19 Q225.463 1353.19 222.385 1348.61 Q219.329 1344 219.329 1335.27 Q219.329 1326.52 222.385 1321.94 Q225.463 1317.33 231.273 1317.33 Z" fill="#000000" fill-rule="evenodd" fill-opacity="1" /><path clip-path="url(#clip740)" d="M279.606 1327.06 L269.028 1337.68 L279.606 1348.26 L276.852 1351.06 L266.227 1340.44 L255.602 1351.06 L252.871 1348.26 L263.426 1337.68 L252.871 1327.06 L255.602 1324.26 L266.227 1334.88 L276.852 1324.26 L279.606 1327.06 Z" fill="#000000" fill-rule="evenodd" fill-opacity="1" /><path clip-path="url(#clip740)" d="M291.968 1348.58 L299.606 1348.58 L299.606 1322.22 L291.296 1323.89 L291.296 1319.63 L299.56 1317.96 L304.236 1317.96 L304.236 1348.58 L311.875 1348.58 L311.875 1352.52 L291.968 1352.52 L291.968 1348.58 Z" fill="#000000" fill-rule="evenodd" fill-opacity="1" /><path clip-path="url(#clip740)" d="M331.319 1321.04 Q327.708 1321.04 325.879 1324.6 Q324.074 1328.14 324.074 1335.27 Q324.074 1342.38 325.879 1345.95 Q327.708 1349.49 331.319 1349.49 Q334.953 1349.49 336.759 1345.95 Q338.588 1342.38 338.588 1335.27 Q338.588 1328.14 336.759 1324.6 Q334.953 1321.04 331.319 1321.04 M331.319 1317.33 Q337.129 1317.33 340.185 1321.94 Q343.264 1326.52 343.264 1335.27 Q343.264 1344 340.185 1348.61 Q337.129 1353.19 331.319 1353.19 Q325.509 1353.19 322.43 1348.61 Q319.375 1344 319.375 1335.27 Q319.375 1326.52 322.43 1321.94 Q325.509 1317.33 331.319 1317.33 Z" fill="#000000" fill-rule="evenodd" fill-opacity="1" /><path clip-path="url(#clip740)" d="M344.448 1297.03 L359.363 1297.03 L359.363 1300.23 L347.928 1300.23 L347.928 1307.11 Q348.755 1306.83 349.583 1306.7 Q350.411 1306.55 351.238 1306.55 Q355.94 1306.55 358.686 1309.12 Q361.432 1311.7 361.432 1316.1 Q361.432 1320.63 358.611 1323.15 Q355.79 1325.65 350.655 1325.65 Q348.887 1325.65 347.044 1325.35 Q345.22 1325.05 343.264 1324.45 L343.264 1320.63 Q344.956 1321.55 346.762 1322.01 Q348.567 1322.46 350.58 1322.46 Q353.834 1322.46 355.733 1320.75 Q357.633 1319.03 357.633 1316.1 Q357.633 1313.17 355.733 1311.45 Q353.834 1309.74 350.58 1309.74 Q349.056 1309.74 347.533 1310.08 Q346.028 1310.42 344.448 1311.13 L344.448 1297.03 Z" fill="#000000" fill-rule="evenodd" fill-opacity="1" /><path clip-path="url(#clip740)" d="M129.885 1151.81 Q133.242 1152.53 135.117 1154.8 Q137.015 1157.07 137.015 1160.4 Q137.015 1165.52 133.496 1168.32 Q129.978 1171.12 123.496 1171.12 Q121.32 1171.12 119.006 1170.68 Q116.714 1170.26 114.26 1169.41 L114.26 1164.89 Q116.205 1166.03 118.519 1166.61 Q120.834 1167.18 123.357 1167.18 Q127.755 1167.18 130.047 1165.45 Q132.362 1163.71 132.362 1160.4 Q132.362 1157.35 130.209 1155.63 Q128.08 1153.9 124.26 1153.9 L120.232 1153.9 L120.232 1150.05 L124.445 1150.05 Q127.894 1150.05 129.723 1148.69 Q131.552 1147.3 131.552 1144.71 Q131.552 1142.05 129.654 1140.63 Q127.779 1139.2 124.26 1139.2 Q122.339 1139.2 120.14 1139.61 Q117.941 1140.03 115.302 1140.91 L115.302 1136.74 Q117.964 1136 120.279 1135.63 Q122.617 1135.26 124.677 1135.26 Q130.001 1135.26 133.103 1137.69 Q136.204 1140.1 136.204 1144.22 Q136.204 1147.09 134.561 1149.08 Q132.917 1151.05 129.885 1151.81 Z" fill="#000000" fill-rule="evenodd" fill-opacity="1" /><path clip-path="url(#clip740)" d="M145.88 1164.57 L150.765 1164.57 L150.765 1170.45 L145.88 1170.45 L145.88 1164.57 Z" fill="#000000" fill-rule="evenodd" fill-opacity="1" /><path clip-path="url(#clip740)" d="M164.977 1166.51 L181.297 1166.51 L181.297 1170.45 L159.353 1170.45 L159.353 1166.51 Q162.015 1163.76 166.598 1159.13 Q171.204 1154.48 172.385 1153.13 Q174.63 1150.61 175.51 1148.87 Q176.413 1147.11 176.413 1145.42 Q176.413 1142.67 174.468 1140.93 Q172.547 1139.2 169.445 1139.2 Q167.246 1139.2 164.792 1139.96 Q162.362 1140.73 159.584 1142.28 L159.584 1137.55 Q162.408 1136.42 164.862 1135.84 Q167.315 1135.26 169.352 1135.26 Q174.723 1135.26 177.917 1137.95 Q181.112 1140.63 181.112 1145.12 Q181.112 1147.25 180.301 1149.17 Q179.514 1151.07 177.408 1153.67 Q176.829 1154.34 173.727 1157.55 Q170.626 1160.75 164.977 1166.51 Z" fill="#000000" fill-rule="evenodd" fill-opacity="1" /><path clip-path="url(#clip740)" d="M203.959 1139.96 L192.153 1158.41 L203.959 1158.41 L203.959 1139.96 M202.732 1135.89 L208.612 1135.89 L208.612 1158.41 L213.542 1158.41 L213.542 1162.3 L208.612 1162.3 L208.612 1170.45 L203.959 1170.45 L203.959 1162.3 L188.357 1162.3 L188.357 1157.79 L202.732 1135.89 Z" fill="#000000" fill-rule="evenodd" fill-opacity="1" /><path clip-path="url(#clip740)" d="M231.273 1138.97 Q227.662 1138.97 225.834 1142.53 Q224.028 1146.07 224.028 1153.2 Q224.028 1160.31 225.834 1163.87 Q227.662 1167.42 231.273 1167.42 Q234.908 1167.42 236.713 1163.87 Q238.542 1160.31 238.542 1153.2 Q238.542 1146.07 236.713 1142.53 Q234.908 1138.97 231.273 1138.97 M231.273 1135.26 Q237.084 1135.26 240.139 1139.87 Q243.218 1144.45 243.218 1153.2 Q243.218 1161.93 240.139 1166.54 Q237.084 1171.12 231.273 1171.12 Q225.463 1171.12 222.385 1166.54 Q219.329 1161.93 219.329 1153.2 Q219.329 1144.45 222.385 1139.87 Q225.463 1135.26 231.273 1135.26 Z" fill="#000000" fill-rule="evenodd" fill-opacity="1" /><path clip-path="url(#clip740)" d="M279.606 1144.99 L269.028 1155.61 L279.606 1166.19 L276.852 1168.99 L266.227 1158.36 L255.602 1168.99 L252.871 1166.19 L263.426 1155.61 L252.871 1144.99 L255.602 1142.18 L266.227 1152.81 L276.852 1142.18 L279.606 1144.99 Z" fill="#000000" fill-rule="evenodd" fill-opacity="1" /><path clip-path="url(#clip740)" d="M291.968 1166.51 L299.606 1166.51 L299.606 1140.15 L291.296 1141.81 L291.296 1137.55 L299.56 1135.89 L304.236 1135.89 L304.236 1166.51 L311.875 1166.51 L311.875 1170.45 L291.968 1170.45 L291.968 1166.51 Z" fill="#000000" fill-rule="evenodd" fill-opacity="1" /><path clip-path="url(#clip740)" d="M331.319 1138.97 Q327.708 1138.97 325.879 1142.53 Q324.074 1146.07 324.074 1153.2 Q324.074 1160.31 325.879 1163.87 Q327.708 1167.42 331.319 1167.42 Q334.953 1167.42 336.759 1163.87 Q338.588 1160.31 338.588 1153.2 Q338.588 1146.07 336.759 1142.53 Q334.953 1138.97 331.319 1138.97 M331.319 1135.26 Q337.129 1135.26 340.185 1139.87 Q343.264 1144.45 343.264 1153.2 Q343.264 1161.93 340.185 1166.54 Q337.129 1171.12 331.319 1171.12 Q325.509 1171.12 322.43 1166.54 Q319.375 1161.93 319.375 1153.2 Q319.375 1144.45 322.43 1139.87 Q325.509 1135.26 331.319 1135.26 Z" fill="#000000" fill-rule="evenodd" fill-opacity="1" /><path clip-path="url(#clip740)" d="M344.448 1114.96 L359.363 1114.96 L359.363 1118.15 L347.928 1118.15 L347.928 1125.04 Q348.755 1124.76 349.583 1124.62 Q350.411 1124.47 351.238 1124.47 Q355.94 1124.47 358.686 1127.05 Q361.432 1129.63 361.432 1134.03 Q361.432 1138.56 358.611 1141.08 Q355.79 1143.58 350.655 1143.58 Q348.887 1143.58 347.044 1143.28 Q345.22 1142.98 343.264 1142.38 L343.264 1138.56 Q344.956 1139.48 346.762 1139.93 Q348.567 1140.39 350.58 1140.39 Q353.834 1140.39 355.733 1138.67 Q357.633 1136.96 357.633 1134.03 Q357.633 1131.09 355.733 1129.38 Q353.834 1127.67 350.58 1127.67 Q349.056 1127.67 347.533 1128.01 Q346.028 1128.35 344.448 1129.06 L344.448 1114.96 Z" fill="#000000" fill-rule="evenodd" fill-opacity="1" /><path clip-path="url(#clip740)" d="M129.885 969.742 Q133.242 970.46 135.117 972.728 Q137.015 974.997 137.015 978.33 Q137.015 983.446 133.496 986.247 Q129.978 989.048 123.496 989.048 Q121.32 989.048 119.006 988.608 Q116.714 988.191 114.26 987.335 L114.26 982.821 Q116.205 983.955 118.519 984.534 Q120.834 985.112 123.357 985.112 Q127.755 985.112 130.047 983.376 Q132.362 981.64 132.362 978.33 Q132.362 975.274 130.209 973.562 Q128.08 971.825 124.26 971.825 L120.232 971.825 L120.232 967.983 L124.445 967.983 Q127.894 967.983 129.723 966.617 Q131.552 965.228 131.552 962.636 Q131.552 959.974 129.654 958.562 Q127.779 957.126 124.26 957.126 Q122.339 957.126 120.14 957.543 Q117.941 957.96 115.302 958.839 L115.302 954.673 Q117.964 953.932 120.279 953.562 Q122.617 953.191 124.677 953.191 Q130.001 953.191 133.103 955.622 Q136.204 958.029 136.204 962.15 Q136.204 965.02 134.561 967.011 Q132.917 968.978 129.885 969.742 Z" fill="#000000" fill-rule="evenodd" fill-opacity="1" /><path clip-path="url(#clip740)" d="M145.88 982.497 L150.765 982.497 L150.765 988.376 L145.88 988.376 L145.88 982.497 Z" fill="#000000" fill-rule="evenodd" fill-opacity="1" /><path clip-path="url(#clip740)" d="M164.977 984.441 L181.297 984.441 L181.297 988.376 L159.353 988.376 L159.353 984.441 Q162.015 981.686 166.598 977.057 Q171.204 972.404 172.385 971.062 Q174.63 968.538 175.51 966.802 Q176.413 965.043 176.413 963.353 Q176.413 960.599 174.468 958.863 Q172.547 957.126 169.445 957.126 Q167.246 957.126 164.792 957.89 Q162.362 958.654 159.584 960.205 L159.584 955.483 Q162.408 954.349 164.862 953.77 Q167.315 953.191 169.352 953.191 Q174.723 953.191 177.917 955.876 Q181.112 958.562 181.112 963.052 Q181.112 965.182 180.301 967.103 Q179.514 969.001 177.408 971.594 Q176.829 972.265 173.727 975.483 Q170.626 978.677 164.977 984.441 Z" fill="#000000" fill-rule="evenodd" fill-opacity="1" /><path clip-path="url(#clip740)" d="M201.69 969.233 Q198.542 969.233 196.69 971.386 Q194.862 973.538 194.862 977.288 Q194.862 981.015 196.69 983.191 Q198.542 985.344 201.69 985.344 Q204.838 985.344 206.667 983.191 Q208.519 981.015 208.519 977.288 Q208.519 973.538 206.667 971.386 Q204.838 969.233 201.69 969.233 M210.973 954.58 L210.973 958.839 Q209.213 958.006 207.408 957.566 Q205.625 957.126 203.866 957.126 Q199.237 957.126 196.783 960.251 Q194.352 963.376 194.005 969.696 Q195.371 967.682 197.431 966.617 Q199.491 965.529 201.968 965.529 Q207.176 965.529 210.186 968.7 Q213.218 971.849 213.218 977.288 Q213.218 982.612 210.07 985.83 Q206.922 989.048 201.69 989.048 Q195.695 989.048 192.524 984.464 Q189.352 979.858 189.352 971.131 Q189.352 962.937 193.241 958.075 Q197.13 953.191 203.681 953.191 Q205.44 953.191 207.223 953.538 Q209.028 953.886 210.973 954.58 Z" fill="#000000" fill-rule="evenodd" fill-opacity="1" /><path clip-path="url(#clip740)" d="M231.273 956.895 Q227.662 956.895 225.834 960.46 Q224.028 964.001 224.028 971.131 Q224.028 978.237 225.834 981.802 Q227.662 985.344 231.273 985.344 Q234.908 985.344 236.713 981.802 Q238.542 978.237 238.542 971.131 Q238.542 964.001 236.713 960.46 Q234.908 956.895 231.273 956.895 M231.273 953.191 Q237.084 953.191 240.139 957.798 Q243.218 962.381 243.218 971.131 Q243.218 979.858 240.139 984.464 Q237.084 989.048 231.273 989.048 Q225.463 989.048 222.385 984.464 Q219.329 979.858 219.329 971.131 Q219.329 962.381 222.385 957.798 Q225.463 953.191 231.273 953.191 Z" fill="#000000" fill-rule="evenodd" fill-opacity="1" /><path clip-path="url(#clip740)" d="M279.606 962.913 L269.028 973.538 L279.606 984.117 L276.852 986.918 L266.227 976.293 L255.602 986.918 L252.871 984.117 L263.426 973.538 L252.871 962.913 L255.602 960.113 L266.227 970.737 L276.852 960.113 L279.606 962.913 Z" fill="#000000" fill-rule="evenodd" fill-opacity="1" /><path clip-path="url(#clip740)" d="M291.968 984.441 L299.606 984.441 L299.606 958.075 L291.296 959.742 L291.296 955.483 L299.56 953.816 L304.236 953.816 L304.236 984.441 L311.875 984.441 L311.875 988.376 L291.968 988.376 L291.968 984.441 Z" fill="#000000" fill-rule="evenodd" fill-opacity="1" /><path clip-path="url(#clip740)" d="M331.319 956.895 Q327.708 956.895 325.879 960.46 Q324.074 964.001 324.074 971.131 Q324.074 978.237 325.879 981.802 Q327.708 985.344 331.319 985.344 Q334.953 985.344 336.759 981.802 Q338.588 978.237 338.588 971.131 Q338.588 964.001 336.759 960.46 Q334.953 956.895 331.319 956.895 M331.319 953.191 Q337.129 953.191 340.185 957.798 Q343.264 962.381 343.264 971.131 Q343.264 979.858 340.185 984.464 Q337.129 989.048 331.319 989.048 Q325.509 989.048 322.43 984.464 Q319.375 979.858 319.375 971.131 Q319.375 962.381 322.43 957.798 Q325.509 953.191 331.319 953.191 Z" fill="#000000" fill-rule="evenodd" fill-opacity="1" /><path clip-path="url(#clip740)" d="M344.448 932.886 L359.363 932.886 L359.363 936.083 L347.928 936.083 L347.928 942.967 Q348.755 942.685 349.583 942.553 Q350.411 942.403 351.238 942.403 Q355.94 942.403 358.686 944.979 Q361.432 947.556 361.432 951.957 Q361.432 956.49 358.611 959.01 Q355.79 961.511 350.655 961.511 Q348.887 961.511 347.044 961.21 Q345.22 960.909 343.264 960.308 L343.264 956.49 Q344.956 957.411 346.762 957.863 Q348.567 958.314 350.58 958.314 Q353.834 958.314 355.733 956.602 Q357.633 954.891 357.633 951.957 Q357.633 949.023 355.733 947.311 Q353.834 945.6 350.58 945.6 Q349.056 945.6 347.533 945.938 Q346.028 946.277 344.448 946.992 L344.448 932.886 Z" fill="#000000" fill-rule="evenodd" fill-opacity="1" /><path clip-path="url(#clip740)" d="M129.885 787.67 Q133.242 788.388 135.117 790.657 Q137.015 792.925 137.015 796.258 Q137.015 801.374 133.496 804.175 Q129.978 806.976 123.496 806.976 Q121.32 806.976 119.006 806.536 Q116.714 806.119 114.26 805.263 L114.26 800.749 Q116.205 801.883 118.519 802.462 Q120.834 803.041 123.357 803.041 Q127.755 803.041 130.047 801.305 Q132.362 799.569 132.362 796.258 Q132.362 793.203 130.209 791.49 Q128.08 789.754 124.26 789.754 L120.232 789.754 L120.232 785.911 L124.445 785.911 Q127.894 785.911 129.723 784.545 Q131.552 783.157 131.552 780.564 Q131.552 777.902 129.654 776.49 Q127.779 775.055 124.26 775.055 Q122.339 775.055 120.14 775.471 Q117.941 775.888 115.302 776.768 L115.302 772.601 Q117.964 771.86 120.279 771.49 Q122.617 771.12 124.677 771.12 Q130.001 771.12 133.103 773.55 Q136.204 775.958 136.204 780.078 Q136.204 782.948 134.561 784.939 Q132.917 786.907 129.885 787.67 Z" fill="#000000" fill-rule="evenodd" fill-opacity="1" /><path clip-path="url(#clip740)" d="M145.88 800.425 L150.765 800.425 L150.765 806.305 L145.88 806.305 L145.88 800.425 Z" fill="#000000" fill-rule="evenodd" fill-opacity="1" /><path clip-path="url(#clip740)" d="M164.977 802.369 L181.297 802.369 L181.297 806.305 L159.353 806.305 L159.353 802.369 Q162.015 799.615 166.598 794.985 Q171.204 790.333 172.385 788.99 Q174.63 786.467 175.51 784.731 Q176.413 782.971 176.413 781.282 Q176.413 778.527 174.468 776.791 Q172.547 775.055 169.445 775.055 Q167.246 775.055 164.792 775.819 Q162.362 776.583 159.584 778.133 L159.584 773.411 Q162.408 772.277 164.862 771.698 Q167.315 771.12 169.352 771.12 Q174.723 771.12 177.917 773.805 Q181.112 776.49 181.112 780.981 Q181.112 783.11 180.301 785.032 Q179.514 786.93 177.408 789.522 Q176.829 790.194 173.727 793.411 Q170.626 796.606 164.977 802.369 Z" fill="#000000" fill-rule="evenodd" fill-opacity="1" /><path clip-path="url(#clip740)" d="M201.112 789.893 Q197.778 789.893 195.857 791.675 Q193.959 793.457 193.959 796.582 Q193.959 799.707 195.857 801.49 Q197.778 803.272 201.112 803.272 Q204.445 803.272 206.366 801.49 Q208.287 799.684 208.287 796.582 Q208.287 793.457 206.366 791.675 Q204.468 789.893 201.112 789.893 M196.436 787.902 Q193.426 787.161 191.737 785.101 Q190.07 783.041 190.07 780.078 Q190.07 775.934 193.01 773.527 Q195.973 771.12 201.112 771.12 Q206.274 771.12 209.213 773.527 Q212.153 775.934 212.153 780.078 Q212.153 783.041 210.463 785.101 Q208.797 787.161 205.811 787.902 Q209.19 788.689 211.065 790.981 Q212.963 793.272 212.963 796.582 Q212.963 801.606 209.885 804.291 Q206.829 806.976 201.112 806.976 Q195.394 806.976 192.315 804.291 Q189.26 801.606 189.26 796.582 Q189.26 793.272 191.158 790.981 Q193.056 788.689 196.436 787.902 M194.723 780.518 Q194.723 783.203 196.389 784.708 Q198.079 786.212 201.112 786.212 Q204.121 786.212 205.811 784.708 Q207.524 783.203 207.524 780.518 Q207.524 777.833 205.811 776.328 Q204.121 774.823 201.112 774.823 Q198.079 774.823 196.389 776.328 Q194.723 777.833 194.723 780.518 Z" fill="#000000" fill-rule="evenodd" fill-opacity="1" /><path clip-path="url(#clip740)" d="M231.273 774.823 Q227.662 774.823 225.834 778.388 Q224.028 781.93 224.028 789.059 Q224.028 796.166 225.834 799.731 Q227.662 803.272 231.273 803.272 Q234.908 803.272 236.713 799.731 Q238.542 796.166 238.542 789.059 Q238.542 781.93 236.713 778.388 Q234.908 774.823 231.273 774.823 M231.273 771.12 Q237.084 771.12 240.139 775.726 Q243.218 780.309 243.218 789.059 Q243.218 797.786 240.139 802.393 Q237.084 806.976 231.273 806.976 Q225.463 806.976 222.385 802.393 Q219.329 797.786 219.329 789.059 Q219.329 780.309 222.385 775.726 Q225.463 771.12 231.273 771.12 Z" fill="#000000" fill-rule="evenodd" fill-opacity="1" /><path clip-path="url(#clip740)" d="M279.606 780.842 L269.028 791.467 L279.606 802.045 L276.852 804.846 L266.227 794.221 L255.602 804.846 L252.871 802.045 L263.426 791.467 L252.871 780.842 L255.602 778.041 L266.227 788.666 L276.852 778.041 L279.606 780.842 Z" fill="#000000" fill-rule="evenodd" fill-opacity="1" /><path clip-path="url(#clip740)" d="M291.968 802.369 L299.606 802.369 L299.606 776.004 L291.296 777.671 L291.296 773.411 L299.56 771.745 L304.236 771.745 L304.236 802.369 L311.875 802.369 L311.875 806.305 L291.968 806.305 L291.968 802.369 Z" fill="#000000" fill-rule="evenodd" fill-opacity="1" /><path clip-path="url(#clip740)" d="M331.319 774.823 Q327.708 774.823 325.879 778.388 Q324.074 781.93 324.074 789.059 Q324.074 796.166 325.879 799.731 Q327.708 803.272 331.319 803.272 Q334.953 803.272 336.759 799.731 Q338.588 796.166 338.588 789.059 Q338.588 781.93 336.759 778.388 Q334.953 774.823 331.319 774.823 M331.319 771.12 Q337.129 771.12 340.185 775.726 Q343.264 780.309 343.264 789.059 Q343.264 797.786 340.185 802.393 Q337.129 806.976 331.319 806.976 Q325.509 806.976 322.43 802.393 Q319.375 797.786 319.375 789.059 Q319.375 780.309 322.43 775.726 Q325.509 771.12 331.319 771.12 Z" fill="#000000" fill-rule="evenodd" fill-opacity="1" /><path clip-path="url(#clip740)" d="M344.448 750.814 L359.363 750.814 L359.363 754.012 L347.928 754.012 L347.928 760.895 Q348.755 760.613 349.583 760.481 Q350.411 760.331 351.238 760.331 Q355.94 760.331 358.686 762.908 Q361.432 765.484 361.432 769.885 Q361.432 774.418 358.611 776.938 Q355.79 779.44 350.655 779.44 Q348.887 779.44 347.044 779.139 Q345.22 778.838 343.264 778.236 L343.264 774.418 Q344.956 775.34 346.762 775.791 Q348.567 776.242 350.58 776.242 Q353.834 776.242 355.733 774.531 Q357.633 772.819 357.633 769.885 Q357.633 766.951 355.733 765.24 Q353.834 763.528 350.58 763.528 Q349.056 763.528 347.533 763.867 Q346.028 764.205 344.448 764.92 L344.448 750.814 Z" fill="#000000" fill-rule="evenodd" fill-opacity="1" /><path clip-path="url(#clip740)" d="M129.885 605.599 Q133.242 606.316 135.117 608.585 Q137.015 610.853 137.015 614.187 Q137.015 619.303 133.496 622.103 Q129.978 624.904 123.496 624.904 Q121.32 624.904 119.006 624.465 Q116.714 624.048 114.26 623.191 L114.26 618.678 Q116.205 619.812 118.519 620.39 Q120.834 620.969 123.357 620.969 Q127.755 620.969 130.047 619.233 Q132.362 617.497 132.362 614.187 Q132.362 611.131 130.209 609.418 Q128.08 607.682 124.26 607.682 L120.232 607.682 L120.232 603.84 L124.445 603.84 Q127.894 603.84 129.723 602.474 Q131.552 601.085 131.552 598.492 Q131.552 595.83 129.654 594.418 Q127.779 592.983 124.26 592.983 Q122.339 592.983 120.14 593.4 Q117.941 593.817 115.302 594.696 L115.302 590.53 Q117.964 589.789 120.279 589.418 Q122.617 589.048 124.677 589.048 Q130.001 589.048 133.103 591.479 Q136.204 593.886 136.204 598.006 Q136.204 600.877 134.561 602.867 Q132.917 604.835 129.885 605.599 Z" fill="#000000" fill-rule="evenodd" fill-opacity="1" /><path clip-path="url(#clip740)" d="M145.88 618.353 L150.765 618.353 L150.765 624.233 L145.88 624.233 L145.88 618.353 Z" fill="#000000" fill-rule="evenodd" fill-opacity="1" /><path clip-path="url(#clip740)" d="M175.116 605.599 Q178.473 606.316 180.348 608.585 Q182.246 610.853 182.246 614.187 Q182.246 619.303 178.727 622.103 Q175.209 624.904 168.727 624.904 Q166.552 624.904 164.237 624.465 Q161.945 624.048 159.491 623.191 L159.491 618.678 Q161.436 619.812 163.751 620.39 Q166.065 620.969 168.589 620.969 Q172.987 620.969 175.278 619.233 Q177.593 617.497 177.593 614.187 Q177.593 611.131 175.44 609.418 Q173.311 607.682 169.491 607.682 L165.464 607.682 L165.464 603.84 L169.677 603.84 Q173.126 603.84 174.954 602.474 Q176.783 601.085 176.783 598.492 Q176.783 595.83 174.885 594.418 Q173.01 592.983 169.491 592.983 Q167.57 592.983 165.371 593.4 Q163.172 593.817 160.533 594.696 L160.533 590.53 Q163.195 589.789 165.51 589.418 Q167.848 589.048 169.908 589.048 Q175.232 589.048 178.334 591.479 Q181.436 593.886 181.436 598.006 Q181.436 600.877 179.792 602.867 Q178.149 604.835 175.116 605.599 Z" fill="#000000" fill-rule="evenodd" fill-opacity="1" /><path clip-path="url(#clip740)" d="M201.112 592.752 Q197.5 592.752 195.672 596.317 Q193.866 599.858 193.866 606.988 Q193.866 614.094 195.672 617.659 Q197.5 621.201 201.112 621.201 Q204.746 621.201 206.551 617.659 Q208.38 614.094 208.38 606.988 Q208.38 599.858 206.551 596.317 Q204.746 592.752 201.112 592.752 M201.112 589.048 Q206.922 589.048 209.977 593.654 Q213.056 598.238 213.056 606.988 Q213.056 615.715 209.977 620.321 Q206.922 624.904 201.112 624.904 Q195.301 624.904 192.223 620.321 Q189.167 615.715 189.167 606.988 Q189.167 598.238 192.223 593.654 Q195.301 589.048 201.112 589.048 Z" fill="#000000" fill-rule="evenodd" fill-opacity="1" /><path clip-path="url(#clip740)" d="M231.273 592.752 Q227.662 592.752 225.834 596.317 Q224.028 599.858 224.028 606.988 Q224.028 614.094 225.834 617.659 Q227.662 621.201 231.273 621.201 Q234.908 621.201 236.713 617.659 Q238.542 614.094 238.542 606.988 Q238.542 599.858 236.713 596.317 Q234.908 592.752 231.273 592.752 M231.273 589.048 Q237.084 589.048 240.139 593.654 Q243.218 598.238 243.218 606.988 Q243.218 615.715 240.139 620.321 Q237.084 624.904 231.273 624.904 Q225.463 624.904 222.385 620.321 Q219.329 615.715 219.329 606.988 Q219.329 598.238 222.385 593.654 Q225.463 589.048 231.273 589.048 Z" fill="#000000" fill-rule="evenodd" fill-opacity="1" /><path clip-path="url(#clip740)" d="M279.606 598.77 L269.028 609.395 L279.606 619.974 L276.852 622.775 L266.227 612.15 L255.602 622.775 L252.871 619.974 L263.426 609.395 L252.871 598.77 L255.602 595.969 L266.227 606.594 L276.852 595.969 L279.606 598.77 Z" fill="#000000" fill-rule="evenodd" fill-opacity="1" /><path clip-path="url(#clip740)" d="M291.968 620.298 L299.606 620.298 L299.606 593.932 L291.296 595.599 L291.296 591.34 L299.56 589.673 L304.236 589.673 L304.236 620.298 L311.875 620.298 L311.875 624.233 L291.968 624.233 L291.968 620.298 Z" fill="#000000" fill-rule="evenodd" fill-opacity="1" /><path clip-path="url(#clip740)" d="M331.319 592.752 Q327.708 592.752 325.879 596.317 Q324.074 599.858 324.074 606.988 Q324.074 614.094 325.879 617.659 Q327.708 621.201 331.319 621.201 Q334.953 621.201 336.759 617.659 Q338.588 614.094 338.588 606.988 Q338.588 599.858 336.759 596.317 Q334.953 592.752 331.319 592.752 M331.319 589.048 Q337.129 589.048 340.185 593.654 Q343.264 598.238 343.264 606.988 Q343.264 615.715 340.185 620.321 Q337.129 624.904 331.319 624.904 Q325.509 624.904 322.43 620.321 Q319.375 615.715 319.375 606.988 Q319.375 598.238 322.43 593.654 Q325.509 589.048 331.319 589.048 Z" fill="#000000" fill-rule="evenodd" fill-opacity="1" /><path clip-path="url(#clip740)" d="M344.448 568.743 L359.363 568.743 L359.363 571.94 L347.928 571.94 L347.928 578.824 Q348.755 578.541 349.583 578.41 Q350.411 578.259 351.238 578.259 Q355.94 578.259 358.686 580.836 Q361.432 583.413 361.432 587.814 Q361.432 592.346 358.611 594.867 Q355.79 597.368 350.655 597.368 Q348.887 597.368 347.044 597.067 Q345.22 596.766 343.264 596.164 L343.264 592.346 Q344.956 593.268 346.762 593.719 Q348.567 594.171 350.58 594.171 Q353.834 594.171 355.733 592.459 Q357.633 590.748 357.633 587.814 Q357.633 584.88 355.733 583.168 Q353.834 581.457 350.58 581.457 Q349.056 581.457 347.533 581.795 Q346.028 582.134 344.448 582.848 L344.448 568.743 Z" fill="#000000" fill-rule="evenodd" fill-opacity="1" /><path clip-path="url(#clip740)" d="M129.885 423.527 Q133.242 424.245 135.117 426.513 Q137.015 428.782 137.015 432.115 Q137.015 437.231 133.496 440.032 Q129.978 442.833 123.496 442.833 Q121.32 442.833 119.006 442.393 Q116.714 441.976 114.26 441.12 L114.26 436.606 Q116.205 437.74 118.519 438.319 Q120.834 438.898 123.357 438.898 Q127.755 438.898 130.047 437.161 Q132.362 435.425 132.362 432.115 Q132.362 429.06 130.209 427.347 Q128.08 425.611 124.26 425.611 L120.232 425.611 L120.232 421.768 L124.445 421.768 Q127.894 421.768 129.723 420.402 Q131.552 419.013 131.552 416.421 Q131.552 413.759 129.654 412.347 Q127.779 410.912 124.26 410.912 Q122.339 410.912 120.14 411.328 Q117.941 411.745 115.302 412.625 L115.302 408.458 Q117.964 407.717 120.279 407.347 Q122.617 406.976 124.677 406.976 Q130.001 406.976 133.103 409.407 Q136.204 411.814 136.204 415.935 Q136.204 418.805 134.561 420.796 Q132.917 422.763 129.885 423.527 Z" fill="#000000" fill-rule="evenodd" fill-opacity="1" /><path clip-path="url(#clip740)" d="M145.88 436.282 L150.765 436.282 L150.765 442.161 L145.88 442.161 L145.88 436.282 Z" fill="#000000" fill-rule="evenodd" fill-opacity="1" /><path clip-path="url(#clip740)" d="M175.116 423.527 Q178.473 424.245 180.348 426.513 Q182.246 428.782 182.246 432.115 Q182.246 437.231 178.727 440.032 Q175.209 442.833 168.727 442.833 Q166.552 442.833 164.237 442.393 Q161.945 441.976 159.491 441.12 L159.491 436.606 Q161.436 437.74 163.751 438.319 Q166.065 438.898 168.589 438.898 Q172.987 438.898 175.278 437.161 Q177.593 435.425 177.593 432.115 Q177.593 429.06 175.44 427.347 Q173.311 425.611 169.491 425.611 L165.464 425.611 L165.464 421.768 L169.677 421.768 Q173.126 421.768 174.954 420.402 Q176.783 419.013 176.783 416.421 Q176.783 413.759 174.885 412.347 Q173.01 410.912 169.491 410.912 Q167.57 410.912 165.371 411.328 Q163.172 411.745 160.533 412.625 L160.533 408.458 Q163.195 407.717 165.51 407.347 Q167.848 406.976 169.908 406.976 Q175.232 406.976 178.334 409.407 Q181.436 411.814 181.436 415.935 Q181.436 418.805 179.792 420.796 Q178.149 422.763 175.116 423.527 Z" fill="#000000" fill-rule="evenodd" fill-opacity="1" /><path clip-path="url(#clip740)" d="M195.139 438.226 L211.459 438.226 L211.459 442.161 L189.514 442.161 L189.514 438.226 Q192.176 435.472 196.76 430.842 Q201.366 426.189 202.547 424.847 Q204.792 422.324 205.672 420.587 Q206.574 418.828 206.574 417.138 Q206.574 414.384 204.63 412.648 Q202.709 410.912 199.607 410.912 Q197.408 410.912 194.954 411.675 Q192.524 412.439 189.746 413.99 L189.746 409.268 Q192.57 408.134 195.024 407.555 Q197.477 406.976 199.514 406.976 Q204.885 406.976 208.079 409.662 Q211.274 412.347 211.274 416.837 Q211.274 418.967 210.463 420.888 Q209.676 422.787 207.57 425.379 Q206.991 426.05 203.889 429.268 Q200.787 432.462 195.139 438.226 Z" fill="#000000" fill-rule="evenodd" fill-opacity="1" /><path clip-path="url(#clip740)" d="M231.273 410.68 Q227.662 410.68 225.834 414.245 Q224.028 417.787 224.028 424.916 Q224.028 432.023 225.834 435.587 Q227.662 439.129 231.273 439.129 Q234.908 439.129 236.713 435.587 Q238.542 432.023 238.542 424.916 Q238.542 417.787 236.713 414.245 Q234.908 410.68 231.273 410.68 M231.273 406.976 Q237.084 406.976 240.139 411.583 Q243.218 416.166 243.218 424.916 Q243.218 433.643 240.139 438.249 Q237.084 442.833 231.273 442.833 Q225.463 442.833 222.385 438.249 Q219.329 433.643 219.329 424.916 Q219.329 416.166 222.385 411.583 Q225.463 406.976 231.273 406.976 Z" fill="#000000" fill-rule="evenodd" fill-opacity="1" /><path clip-path="url(#clip740)" d="M279.606 416.699 L269.028 427.324 L279.606 437.902 L276.852 440.703 L266.227 430.078 L255.602 440.703 L252.871 437.902 L263.426 427.324 L252.871 416.699 L255.602 413.898 L266.227 424.523 L276.852 413.898 L279.606 416.699 Z" fill="#000000" fill-rule="evenodd" fill-opacity="1" /><path clip-path="url(#clip740)" d="M291.968 438.226 L299.606 438.226 L299.606 411.861 L291.296 413.527 L291.296 409.268 L299.56 407.601 L304.236 407.601 L304.236 438.226 L311.875 438.226 L311.875 442.161 L291.968 442.161 L291.968 438.226 Z" fill="#000000" fill-rule="evenodd" fill-opacity="1" /><path clip-path="url(#clip740)" d="M331.319 410.68 Q327.708 410.68 325.879 414.245 Q324.074 417.787 324.074 424.916 Q324.074 432.023 325.879 435.587 Q327.708 439.129 331.319 439.129 Q334.953 439.129 336.759 435.587 Q338.588 432.023 338.588 424.916 Q338.588 417.787 336.759 414.245 Q334.953 410.68 331.319 410.68 M331.319 406.976 Q337.129 406.976 340.185 411.583 Q343.264 416.166 343.264 424.916 Q343.264 433.643 340.185 438.249 Q337.129 442.833 331.319 442.833 Q325.509 442.833 322.43 438.249 Q319.375 433.643 319.375 424.916 Q319.375 416.166 322.43 411.583 Q325.509 406.976 331.319 406.976 Z" fill="#000000" fill-rule="evenodd" fill-opacity="1" /><path clip-path="url(#clip740)" d="M344.448 386.671 L359.363 386.671 L359.363 389.868 L347.928 389.868 L347.928 396.752 Q348.755 396.47 349.583 396.338 Q350.411 396.188 351.238 396.188 Q355.94 396.188 358.686 398.764 Q361.432 401.341 361.432 405.742 Q361.432 410.275 358.611 412.795 Q355.79 415.296 350.655 415.296 Q348.887 415.296 347.044 414.996 Q345.22 414.695 343.264 414.093 L343.264 410.275 Q344.956 411.196 346.762 411.648 Q348.567 412.099 350.58 412.099 Q353.834 412.099 355.733 410.388 Q357.633 408.676 357.633 405.742 Q357.633 402.808 355.733 401.097 Q353.834 399.385 350.58 399.385 Q349.056 399.385 347.533 399.724 Q346.028 400.062 344.448 400.777 L344.448 386.671 Z" fill="#000000" fill-rule="evenodd" fill-opacity="1" /><path clip-path="url(#clip740)" d="M129.885 241.456 Q133.242 242.173 135.117 244.442 Q137.015 246.71 137.015 250.044 Q137.015 255.159 133.496 257.96 Q129.978 260.761 123.496 260.761 Q121.32 260.761 119.006 260.321 Q116.714 259.905 114.26 259.048 L114.26 254.534 Q116.205 255.669 118.519 256.247 Q120.834 256.826 123.357 256.826 Q127.755 256.826 130.047 255.09 Q132.362 253.354 132.362 250.044 Q132.362 246.988 130.209 245.275 Q128.08 243.539 124.26 243.539 L120.232 243.539 L120.232 239.696 L124.445 239.696 Q127.894 239.696 129.723 238.331 Q131.552 236.942 131.552 234.349 Q131.552 231.687 129.654 230.275 Q127.779 228.84 124.26 228.84 Q122.339 228.84 120.14 229.257 Q117.941 229.673 115.302 230.553 L115.302 226.386 Q117.964 225.646 120.279 225.275 Q122.617 224.905 124.677 224.905 Q130.001 224.905 133.103 227.335 Q136.204 229.743 136.204 233.863 Q136.204 236.733 134.561 238.724 Q132.917 240.692 129.885 241.456 Z" fill="#000000" fill-rule="evenodd" fill-opacity="1" /><path clip-path="url(#clip740)" d="M145.88 254.21 L150.765 254.21 L150.765 260.09 L145.88 260.09 L145.88 254.21 Z" fill="#000000" fill-rule="evenodd" fill-opacity="1" /><path clip-path="url(#clip740)" d="M175.116 241.456 Q178.473 242.173 180.348 244.442 Q182.246 246.71 182.246 250.044 Q182.246 255.159 178.727 257.96 Q175.209 260.761 168.727 260.761 Q166.552 260.761 164.237 260.321 Q161.945 259.905 159.491 259.048 L159.491 254.534 Q161.436 255.669 163.751 256.247 Q166.065 256.826 168.589 256.826 Q172.987 256.826 175.278 255.09 Q177.593 253.354 177.593 250.044 Q177.593 246.988 175.44 245.275 Q173.311 243.539 169.491 243.539 L165.464 243.539 L165.464 239.696 L169.677 239.696 Q173.126 239.696 174.954 238.331 Q176.783 236.942 176.783 234.349 Q176.783 231.687 174.885 230.275 Q173.01 228.84 169.491 228.84 Q167.57 228.84 165.371 229.257 Q163.172 229.673 160.533 230.553 L160.533 226.386 Q163.195 225.646 165.51 225.275 Q167.848 224.905 169.908 224.905 Q175.232 224.905 178.334 227.335 Q181.436 229.743 181.436 233.863 Q181.436 236.733 179.792 238.724 Q178.149 240.692 175.116 241.456 Z" fill="#000000" fill-rule="evenodd" fill-opacity="1" /><path clip-path="url(#clip740)" d="M203.959 229.604 L192.153 248.053 L203.959 248.053 L203.959 229.604 M202.732 225.53 L208.612 225.53 L208.612 248.053 L213.542 248.053 L213.542 251.942 L208.612 251.942 L208.612 260.09 L203.959 260.09 L203.959 251.942 L188.357 251.942 L188.357 247.428 L202.732 225.53 Z" fill="#000000" fill-rule="evenodd" fill-opacity="1" /><path clip-path="url(#clip740)" d="M231.273 228.609 Q227.662 228.609 225.834 232.173 Q224.028 235.715 224.028 242.845 Q224.028 249.951 225.834 253.516 Q227.662 257.057 231.273 257.057 Q234.908 257.057 236.713 253.516 Q238.542 249.951 238.542 242.845 Q238.542 235.715 236.713 232.173 Q234.908 228.609 231.273 228.609 M231.273 224.905 Q237.084 224.905 240.139 229.511 Q243.218 234.095 243.218 242.845 Q243.218 251.571 240.139 256.178 Q237.084 260.761 231.273 260.761 Q225.463 260.761 222.385 256.178 Q219.329 251.571 219.329 242.845 Q219.329 234.095 222.385 229.511 Q225.463 224.905 231.273 224.905 Z" fill="#000000" fill-rule="evenodd" fill-opacity="1" /><path clip-path="url(#clip740)" d="M279.606 234.627 L269.028 245.252 L279.606 255.831 L276.852 258.632 L266.227 248.007 L255.602 258.632 L252.871 255.831 L263.426 245.252 L252.871 234.627 L255.602 231.826 L266.227 242.451 L276.852 231.826 L279.606 234.627 Z" fill="#000000" fill-rule="evenodd" fill-opacity="1" /><path clip-path="url(#clip740)" d="M291.968 256.155 L299.606 256.155 L299.606 229.789 L291.296 231.456 L291.296 227.196 L299.56 225.53 L304.236 225.53 L304.236 256.155 L311.875 256.155 L311.875 260.09 L291.968 260.09 L291.968 256.155 Z" fill="#000000" fill-rule="evenodd" fill-opacity="1" /><path clip-path="url(#clip740)" d="M331.319 228.609 Q327.708 228.609 325.879 232.173 Q324.074 235.715 324.074 242.845 Q324.074 249.951 325.879 253.516 Q327.708 257.057 331.319 257.057 Q334.953 257.057 336.759 253.516 Q338.588 249.951 338.588 242.845 Q338.588 235.715 336.759 232.173 Q334.953 228.609 331.319 228.609 M331.319 224.905 Q337.129 224.905 340.185 229.511 Q343.264 234.095 343.264 242.845 Q343.264 251.571 340.185 256.178 Q337.129 260.761 331.319 260.761 Q325.509 260.761 322.43 256.178 Q319.375 251.571 319.375 242.845 Q319.375 234.095 322.43 229.511 Q325.509 224.905 331.319 224.905 Z" fill="#000000" fill-rule="evenodd" fill-opacity="1" /><path clip-path="url(#clip740)" d="M344.448 204.599 L359.363 204.599 L359.363 207.797 L347.928 207.797 L347.928 214.68 Q348.755 214.398 349.583 214.267 Q350.411 214.116 351.238 214.116 Q355.94 214.116 358.686 216.693 Q361.432 219.269 361.432 223.671 Q361.432 228.203 358.611 230.723 Q355.79 233.225 350.655 233.225 Q348.887 233.225 347.044 232.924 Q345.22 232.623 343.264 232.021 L343.264 228.203 Q344.956 229.125 346.762 229.576 Q348.567 230.028 350.58 230.028 Q353.834 230.028 355.733 228.316 Q357.633 226.605 357.633 223.671 Q357.633 220.737 355.733 219.025 Q353.834 217.313 350.58 217.313 Q349.056 217.313 347.533 217.652 Q346.028 217.991 344.448 218.705 L344.448 204.599 Z" fill="#000000" fill-rule="evenodd" fill-opacity="1" /><path clip-path="url(#clip740)" d="M58.657 873.22 L77.5631 873.22 L77.5631 879.108 L28.3562 879.108 L28.3562 873.22 L33.7671 873.22 Q30.5842 871.374 29.0564 868.573 Q27.4968 865.74 27.4968 861.825 Q27.4968 855.332 32.6531 851.29 Q37.8093 847.216 46.212 847.216 Q54.6147 847.216 59.771 851.29 Q64.9272 855.332 64.9272 861.825 Q64.9272 865.74 63.3994 868.573 Q61.8398 871.374 58.657 873.22 M46.212 853.295 Q39.7508 853.295 36.0905 855.969 Q32.3984 858.611 32.3984 863.258 Q32.3984 867.904 36.0905 870.578 Q39.7508 873.22 46.212 873.22 Q52.6732 873.22 56.3653 870.578 Q60.0256 867.904 60.0256 863.258 Q60.0256 858.611 56.3653 855.969 Q52.6732 853.295 46.212 853.295 Z" fill="#000000" fill-rule="evenodd" fill-opacity="1" /><path clip-path="url(#clip740)" d="M44.7161 807.016 L47.5806 807.016 L47.5806 833.943 Q53.6281 833.561 56.8109 830.315 Q59.9619 827.037 59.9619 821.212 Q59.9619 817.838 59.1344 814.687 Q58.3069 811.504 56.6518 808.385 L62.1899 808.385 Q63.5267 811.536 64.227 814.846 Q64.9272 818.156 64.9272 821.562 Q64.9272 830.092 59.9619 835.089 Q54.9967 840.055 46.5303 840.055 Q37.7774 840.055 32.6531 835.344 Q27.4968 830.601 27.4968 822.581 Q27.4968 815.387 32.1438 811.218 Q36.7589 807.016 44.7161 807.016 M42.9973 812.873 Q38.1912 812.937 35.3266 815.578 Q32.4621 818.188 32.4621 822.517 Q32.4621 827.419 35.2312 830.379 Q38.0002 833.307 43.0292 833.752 L42.9973 812.873 Z" fill="#000000" fill-rule="evenodd" fill-opacity="1" /><path clip-path="url(#clip740)" d="M32.4621 783.591 Q32.4621 788.301 36.1542 791.039 Q39.8145 793.776 46.212 793.776 Q52.6095 793.776 56.3017 791.07 Q59.9619 788.333 59.9619 783.591 Q59.9619 778.912 56.2698 776.175 Q52.5777 773.437 46.212 773.437 Q39.8781 773.437 36.186 776.175 Q32.4621 778.912 32.4621 783.591 M27.4968 783.591 Q27.4968 775.952 32.4621 771.591 Q37.4273 767.231 46.212 767.231 Q54.9649 767.231 59.9619 771.591 Q64.9272 775.952 64.9272 783.591 Q64.9272 791.261 59.9619 795.622 Q54.9649 799.951 46.212 799.951 Q37.4273 799.951 32.4621 795.622 Q27.4968 791.261 27.4968 783.591 Z" fill="#000000" fill-rule="evenodd" fill-opacity="1" /><path clip-path="url(#clip740)" d="M58.657 751.858 L77.5631 751.858 L77.5631 757.746 L28.3562 757.746 L28.3562 751.858 L33.7671 751.858 Q30.5842 750.012 29.0564 747.211 Q27.4968 744.378 27.4968 740.463 Q27.4968 733.97 32.6531 729.928 Q37.8093 725.854 46.212 725.854 Q54.6147 725.854 59.771 729.928 Q64.9272 733.97 64.9272 740.463 Q64.9272 744.378 63.3994 747.211 Q61.8398 750.012 58.657 751.858 M46.212 731.933 Q39.7508 731.933 36.0905 734.607 Q32.3984 737.248 32.3984 741.895 Q32.3984 746.542 36.0905 749.216 Q39.7508 751.858 46.212 751.858 Q52.6732 751.858 56.3653 749.216 Q60.0256 746.542 60.0256 741.895 Q60.0256 737.248 56.3653 734.607 Q52.6732 731.933 46.212 731.933 Z" fill="#000000" fill-rule="evenodd" fill-opacity="1" /><path clip-path="url(#clip740)" d="M14.479 716.146 L14.479 710.29 L64.0042 710.29 L64.0042 716.146 L14.479 716.146 Z" fill="#000000" fill-rule="evenodd" fill-opacity="1" /><path clip-path="url(#clip740)" d="M44.7161 667.544 L47.5806 667.544 L47.5806 694.471 Q53.6281 694.089 56.8109 690.842 Q59.9619 687.564 59.9619 681.739 Q59.9619 678.366 59.1344 675.215 Q58.3069 672.032 56.6518 668.912 L62.1899 668.912 Q63.5267 672.064 64.227 675.374 Q64.9272 678.684 64.9272 682.089 Q64.9272 690.62 59.9619 695.617 Q54.9967 700.582 46.5303 700.582 Q37.7774 700.582 32.6531 695.871 Q27.4968 691.129 27.4968 683.108 Q27.4968 675.915 32.1438 671.745 Q36.7589 667.544 44.7161 667.544 M42.9973 673.4 Q38.1912 673.464 35.3266 676.106 Q32.4621 678.716 32.4621 683.044 Q32.4621 687.946 35.2312 690.906 Q38.0002 693.834 43.0292 694.28 L42.9973 673.4 Z" fill="#000000" fill-rule="evenodd" fill-opacity="1" /><path clip-path="url(#clip740)" d="M1157.11 14.0809 L1157.11 22.0612 Q1152.46 19.8332 1148.32 18.7395 Q1144.19 17.6457 1140.34 17.6457 Q1133.66 17.6457 1130.01 20.2383 Q1126.41 22.8309 1126.41 27.611 Q1126.41 31.6214 1128.8 33.6873 Q1131.23 35.7128 1137.95 36.9686 L1142.9 37.9813 Q1152.05 39.7232 1156.39 44.1387 Q1160.76 48.5136 1160.76 55.8863 Q1160.76 64.6767 1154.85 69.2137 Q1148.97 73.7508 1137.59 73.7508 Q1133.3 73.7508 1128.43 72.7785 Q1123.61 71.8063 1118.43 69.9024 L1118.43 61.4765 Q1123.41 64.2716 1128.19 65.6895 Q1132.97 67.1073 1137.59 67.1073 Q1144.6 67.1073 1148.41 64.3527 Q1152.21 61.598 1152.21 56.4939 Q1152.21 52.0379 1149.46 49.5264 Q1146.74 47.0148 1140.51 45.759 L1135.52 44.7868 Q1126.37 42.9639 1122.28 39.075 Q1118.19 35.1862 1118.19 28.2591 Q1118.19 20.2383 1123.82 15.6203 Q1129.49 11.0023 1139.41 11.0023 Q1143.67 11.0023 1148.08 11.7719 Q1152.5 12.5416 1157.11 14.0809 Z" fill="#000000" fill-rule="evenodd" fill-opacity="1" /><path clip-path="url(#clip740)" d="M1172.43 54.671 L1172.43 27.2059 L1179.88 27.2059 L1179.88 54.3874 Q1179.88 60.8284 1182.39 64.0691 Q1184.9 67.2693 1189.93 67.2693 Q1195.96 67.2693 1199.45 63.421 Q1202.97 59.5726 1202.97 52.9291 L1202.97 27.2059 L1210.42 27.2059 L1210.42 72.576 L1202.97 72.576 L1202.97 65.6084 Q1200.26 69.7404 1196.65 71.7658 Q1193.09 73.7508 1188.35 73.7508 Q1180.53 73.7508 1176.48 68.8897 Q1172.43 64.0286 1172.43 54.671 M1191.18 26.1121 L1191.18 26.1121 Z" fill="#000000" fill-rule="evenodd" fill-opacity="1" /><path clip-path="url(#clip740)" d="M1254.7 28.5427 L1254.7 35.5912 Q1251.54 33.9709 1248.14 33.1607 Q1244.74 32.3505 1241.09 32.3505 Q1235.54 32.3505 1232.75 34.0519 Q1229.99 35.7533 1229.99 39.156 Q1229.99 41.7486 1231.98 43.2475 Q1233.96 44.7058 1239.96 46.0426 L1242.51 46.6097 Q1250.45 48.3111 1253.77 51.4303 Q1257.13 54.509 1257.13 60.0587 Q1257.13 66.3781 1252.11 70.0644 Q1247.13 73.7508 1238.38 73.7508 Q1234.73 73.7508 1230.76 73.0216 Q1226.83 72.3329 1222.46 70.9151 L1222.46 63.2184 Q1226.59 65.3654 1230.6 66.4591 Q1234.61 67.5124 1238.54 67.5124 Q1243.8 67.5124 1246.64 65.73 Q1249.48 63.9071 1249.48 60.6258 Q1249.48 57.5877 1247.41 55.9673 Q1245.38 54.3469 1238.46 52.8481 L1235.86 52.2405 Q1228.94 50.7821 1225.86 47.7845 Q1222.78 44.7463 1222.78 39.4801 Q1222.78 33.0797 1227.32 29.5959 Q1231.85 26.1121 1240.2 26.1121 Q1244.33 26.1121 1247.98 26.7198 Q1251.62 27.3274 1254.7 28.5427 Z" fill="#000000" fill-rule="evenodd" fill-opacity="1" /><path clip-path="url(#clip740)" d="M1301.65 28.9478 L1301.65 35.9153 Q1298.49 34.1734 1295.29 33.3227 Q1292.13 32.4315 1288.89 32.4315 Q1281.64 32.4315 1277.63 37.0496 Q1273.62 41.6271 1273.62 49.9314 Q1273.62 58.2358 1277.63 62.8538 Q1281.64 67.4314 1288.89 67.4314 Q1292.13 67.4314 1295.29 66.5807 Q1298.49 65.6895 1301.65 63.9476 L1301.65 70.8341 Q1298.53 72.2924 1295.17 73.0216 Q1291.85 73.7508 1288.08 73.7508 Q1277.83 73.7508 1271.8 67.3098 Q1265.76 60.8689 1265.76 49.9314 Q1265.76 38.832 1271.84 32.472 Q1277.95 26.1121 1288.57 26.1121 Q1292.01 26.1121 1295.29 26.8413 Q1298.57 27.5299 1301.65 28.9478 Z" fill="#000000" fill-rule="evenodd" fill-opacity="1" /><path clip-path="url(#clip740)" d="M1353.42 48.0275 L1353.42 51.6733 L1319.15 51.6733 Q1319.64 59.3701 1323.77 63.421 Q1327.94 67.4314 1335.35 67.4314 Q1339.65 67.4314 1343.66 66.3781 Q1347.71 65.3249 1351.68 63.2184 L1351.68 70.267 Q1347.67 71.9684 1343.46 72.8596 Q1339.24 73.7508 1334.91 73.7508 Q1324.05 73.7508 1317.69 67.4314 Q1311.37 61.1119 1311.37 50.3365 Q1311.37 39.1965 1317.37 32.6746 Q1323.4 26.1121 1333.61 26.1121 Q1342.77 26.1121 1348.07 32.0264 Q1353.42 37.9003 1353.42 48.0275 M1345.97 45.84 Q1345.89 39.7232 1342.52 36.0774 Q1339.2 32.4315 1333.69 32.4315 Q1327.46 32.4315 1323.69 35.9558 Q1319.96 39.4801 1319.39 45.8805 L1345.97 45.84 Z" fill="#000000" fill-rule="evenodd" fill-opacity="1" /><path clip-path="url(#clip740)" d="M1372.87 65.7705 L1372.87 89.8329 L1365.37 89.8329 L1365.37 27.2059 L1372.87 27.2059 L1372.87 34.0924 Q1375.22 30.0415 1378.78 28.0971 Q1382.39 26.1121 1387.37 26.1121 Q1395.63 26.1121 1400.78 32.6746 Q1405.96 39.2371 1405.96 49.9314 Q1405.96 60.6258 1400.78 67.1883 Q1395.63 73.7508 1387.37 73.7508 Q1382.39 73.7508 1378.78 71.8063 Q1375.22 69.8214 1372.87 65.7705 M1398.22 49.9314 Q1398.22 41.7081 1394.82 37.0496 Q1391.46 32.3505 1385.55 32.3505 Q1379.63 32.3505 1376.23 37.0496 Q1372.87 41.7081 1372.87 49.9314 Q1372.87 58.1548 1376.23 62.8538 Q1379.63 67.5124 1385.55 67.5124 Q1391.46 67.5124 1394.82 62.8538 Q1398.22 58.1548 1398.22 49.9314 Z" fill="#000000" fill-rule="evenodd" fill-opacity="1" /><path clip-path="url(#clip740)" d="M1425.69 14.324 L1425.69 27.2059 L1441.04 27.2059 L1441.04 32.9987 L1425.69 32.9987 L1425.69 57.6282 Q1425.69 63.1779 1427.19 64.7578 Q1428.73 66.3376 1433.39 66.3376 L1441.04 66.3376 L1441.04 72.576 L1433.39 72.576 Q1424.76 72.576 1421.48 69.3758 Q1418.2 66.1351 1418.2 57.6282 L1418.2 32.9987 L1412.73 32.9987 L1412.73 27.2059 L1418.2 27.2059 L1418.2 14.324 L1425.69 14.324 Z" fill="#000000" fill-rule="evenodd" fill-opacity="1" /><path clip-path="url(#clip740)" d="M1450.85 27.2059 L1458.3 27.2059 L1458.3 72.576 L1450.85 72.576 L1450.85 27.2059 M1450.85 9.54393 L1458.3 9.54393 L1458.3 18.9825 L1450.85 18.9825 L1450.85 9.54393 Z" fill="#000000" fill-rule="evenodd" fill-opacity="1" /><path clip-path="url(#clip740)" d="M1506.46 49.9314 Q1506.46 41.7081 1503.06 37.0496 Q1499.7 32.3505 1493.79 32.3505 Q1487.87 32.3505 1484.47 37.0496 Q1481.11 41.7081 1481.11 49.9314 Q1481.11 58.1548 1484.47 62.8538 Q1487.87 67.5124 1493.79 67.5124 Q1499.7 67.5124 1503.06 62.8538 Q1506.46 58.1548 1506.46 49.9314 M1481.11 34.0924 Q1483.46 30.0415 1487.02 28.0971 Q1490.63 26.1121 1495.61 26.1121 Q1503.87 26.1121 1509.02 32.6746 Q1514.2 39.2371 1514.2 49.9314 Q1514.2 60.6258 1509.02 67.1883 Q1503.87 73.7508 1495.61 73.7508 Q1490.63 73.7508 1487.02 71.8063 Q1483.46 69.8214 1481.11 65.7705 L1481.11 72.576 L1473.61 72.576 L1473.61 9.54393 L1481.11 9.54393 L1481.11 34.0924 Z" fill="#000000" fill-rule="evenodd" fill-opacity="1" /><path clip-path="url(#clip740)" d="M1526.56 9.54393 L1534.01 9.54393 L1534.01 72.576 L1526.56 72.576 L1526.56 9.54393 Z" fill="#000000" fill-rule="evenodd" fill-opacity="1" /><path clip-path="url(#clip740)" d="M1588.41 48.0275 L1588.41 51.6733 L1554.14 51.6733 Q1554.63 59.3701 1558.76 63.421 Q1562.93 67.4314 1570.35 67.4314 Q1574.64 67.4314 1578.65 66.3781 Q1582.7 65.3249 1586.67 63.2184 L1586.67 70.267 Q1582.66 71.9684 1578.45 72.8596 Q1574.24 73.7508 1569.9 73.7508 Q1559.05 73.7508 1552.69 67.4314 Q1546.37 61.1119 1546.37 50.3365 Q1546.37 39.1965 1552.36 32.6746 Q1558.4 26.1121 1568.61 26.1121 Q1577.76 26.1121 1583.07 32.0264 Q1588.41 37.9003 1588.41 48.0275 M1580.96 45.84 Q1580.88 39.7232 1577.52 36.0774 Q1574.2 32.4315 1568.69 32.4315 Q1562.45 32.4315 1558.68 35.9558 Q1554.95 39.4801 1554.39 45.8805 L1580.96 45.84 Z" fill="#000000" fill-rule="evenodd" fill-opacity="1" /><path clip-path="url(#clip740)" d="M1629.57 28.5427 L1629.57 35.5912 Q1626.41 33.9709 1623.01 33.1607 Q1619.61 32.3505 1615.96 32.3505 Q1610.41 32.3505 1607.62 34.0519 Q1604.86 35.7533 1604.86 39.156 Q1604.86 41.7486 1606.85 43.2475 Q1608.83 44.7058 1614.83 46.0426 L1617.38 46.6097 Q1625.32 48.3111 1628.64 51.4303 Q1632 54.509 1632 60.0587 Q1632 66.3781 1626.98 70.0644 Q1622 73.7508 1613.25 73.7508 Q1609.6 73.7508 1605.63 73.0216 Q1601.7 72.3329 1597.33 70.9151 L1597.33 63.2184 Q1601.46 65.3654 1605.47 66.4591 Q1609.48 67.5124 1613.41 67.5124 Q1618.67 67.5124 1621.51 65.73 Q1624.35 63.9071 1624.35 60.6258 Q1624.35 57.5877 1622.28 55.9673 Q1620.25 54.3469 1613.33 52.8481 L1610.73 52.2405 Q1603.81 50.7821 1600.73 47.7845 Q1597.65 44.7463 1597.65 39.4801 Q1597.65 33.0797 1602.19 29.5959 Q1606.72 26.1121 1615.07 26.1121 Q1619.2 26.1121 1622.85 26.7198 Q1626.49 27.3274 1629.57 28.5427 Z" fill="#000000" fill-rule="evenodd" fill-opacity="1" /><polyline clip-path="url(#clip742)" style="stroke:#009af9; stroke-linecap:butt; stroke-linejoin:round; stroke-width:4; stroke-opacity:1; fill:none" points="
  397.432,160.256 402.32,160.938 407.208,161.674 412.097,162.469 416.985,163.325 421.873,164.247 426.762,165.251 431.65,166.246 436.538,167.395 441.427,168.63 
  446.315,169.951 451.203,171.364 456.092,172.872 460.98,174.481 465.868,176.192 470.757,177.99 475.645,179.884 480.533,181.891 485.421,184.011 490.31,186.25 
  495.198,188.62 500.086,191.105 504.975,193.688 509.863,196.364 514.751,199.141 519.64,202.038 524.528,205.044 529.416,208.23 534.305,211.64 539.193,215.242 
  544.081,219.01 548.969,222.947 553.858,227.054 558.746,231.331 563.634,235.81 568.523,240.514 573.411,245.426 578.299,250.533 583.188,255.826 588.076,261.298 
  592.964,266.944 597.853,272.814 602.741,278.859 607.629,284.834 612.518,290.662 617.406,296.446 622.294,302.311 627.182,308.19 632.071,314.026 636.959,319.789 
  641.847,325.479 646.736,331.104 651.624,336.659 656.512,342.135 661.401,347.526 666.289,352.827 671.177,358.049 676.066,363.189 680.954,368.239 685.842,373.189 
  690.73,378.033 695.619,382.764 700.507,387.372 705.395,391.84 710.284,396.17 715.172,400.364 720.06,404.421 724.949,408.348 729.837,412.14 734.725,415.77 
  739.614,419.223 744.502,422.504 749.39,425.63 754.279,428.608 759.167,431.444 764.055,434.152 768.943,436.74 773.832,439.212 778.72,441.567 783.608,443.801 
  788.497,445.915 793.385,447.912 798.273,449.793 803.162,451.56 808.05,453.217 812.938,454.768 817.827,456.218 822.715,457.571 827.603,458.828 832.491,459.999 
  837.38,461.095 842.268,462.124 847.156,463.092 852.045,464.001 856.933,464.855 861.821,465.65 866.71,466.384 871.598,467.058 876.486,467.679 881.375,468.255 
  886.263,468.793 891.151,469.3 896.039,469.782 900.928,470.245 905.816,470.695 910.704,471.136 915.593,471.571 920.481,471.998 925.369,472.418 930.258,472.834 
  935.146,473.245 940.034,473.654 944.923,474.063 949.811,474.474 954.699,474.888 959.588,475.305 964.476,475.728 969.364,476.157 974.252,476.594 979.141,477.046 
  984.029,477.515 988.917,478.002 993.806,478.51 998.694,479.041 1003.58,479.597 1008.47,480.184 1013.36,480.806 1018.25,481.47 1023.14,482.181 1028.02,482.945 
  1032.91,483.768 1037.8,484.642 1042.69,485.573 1047.58,486.567 1052.47,487.626 1057.35,488.749 1062.24,489.928 1067.13,491.171 1072.02,492.49 1076.91,493.892 
  1081.8,495.379 1086.68,496.95 1091.57,498.614 1096.46,500.367 1101.35,502.186 1106.24,504.066 1111.13,506.016 1116.01,508.061 1120.9,510.224 1125.79,512.477 
  1130.68,514.817 1135.57,517.243 1140.46,519.756 1145.34,522.354 1150.23,525.058 1155.12,527.866 1160.01,530.776 1164.9,533.783 1169.78,536.882 1174.67,540.07 
  1179.56,543.342 1184.45,546.716 1189.34,550.3 1194.23,554.051 1199.11,557.922 1204,561.898 1208.89,565.984 1213.78,570.179 1218.67,574.466 1223.56,578.829 
  1228.44,583.257 1233.33,587.741 1238.22,592.27 1243.11,596.845 1248,601.471 1252.89,606.148 1257.77,610.871 1262.66,615.625 1267.55,620.384 1272.44,625.146 
  1277.33,629.933 1282.22,634.754 1287.1,639.606 1291.99,644.474 1296.88,649.335 1301.77,654.172 1306.66,658.976 1311.55,663.736 1316.43,668.44 1321.32,673.079 
  1326.21,677.648 1331.1,682.141 1335.99,686.549 1340.88,690.866 1345.76,695.086 1350.65,699.207 1355.54,703.223 1360.43,707.131 1365.32,710.927 1370.21,714.61 
  1375.09,718.177 1379.98,721.629 1384.87,724.987 1389.76,728.264 1394.65,731.465 1399.54,734.595 1404.42,737.658 1409.31,740.656 1414.2,743.589 1419.09,746.471 
  1423.98,749.303 1428.87,752.084 1433.75,754.814 1438.64,757.492 1443.53,760.118 1448.42,762.692 1453.31,765.215 1458.2,767.686 1463.08,770.095 1467.97,772.442 
  1472.86,774.73 1477.75,776.959 1482.64,779.134 1487.53,781.255 1492.41,783.349 1497.3,785.416 1502.19,787.447 1507.08,789.434 1511.97,791.377 1516.85,793.277 
  1521.74,795.129 1526.63,796.946 1531.52,798.735 1536.41,800.504 1541.3,802.253 1546.18,803.983 1551.07,805.688 1555.96,807.36 1560.85,808.999 1565.74,810.606 
  1570.63,812.185 1575.51,813.737 1580.4,815.262 1585.29,816.761 1590.18,818.235 1595.07,819.688 1599.96,821.119 1604.84,822.527 1609.73,823.913 1614.62,825.277 
  1619.51,826.617 1624.4,827.936 1629.29,829.233 1634.17,830.511 1639.06,831.769 1643.95,833.001 1648.84,834.206 1653.73,835.382 1658.62,836.528 1663.5,837.645 
  1668.39,838.735 1673.28,839.801 1678.17,840.845 1683.06,841.867 1687.95,842.866 1692.83,843.843 1697.72,844.798 1702.61,845.732 1707.5,846.645 1712.39,847.537 
  1717.28,848.41 1722.16,849.263 1727.05,850.098 1731.94,850.914 1736.83,851.711 1741.72,852.491 1746.61,853.253 1751.49,853.998 1756.38,854.726 1761.27,855.438 
  1766.16,856.138 1771.05,856.831 1775.94,857.524 1780.82,858.222 1785.71,858.928 1790.6,859.645 1795.49,860.377 1800.38,861.12 1805.27,861.874 1810.15,862.646 
  1815.04,863.441 1819.93,864.265 1824.82,865.122 1829.71,866.017 1834.6,866.957 1839.48,867.947 1844.37,868.992 1849.26,870.098 1854.15,871.274 1859.04,872.529 
  1863.92,873.863 1868.81,875.27 1873.7,876.75 1878.59,878.302 1883.48,879.925 1888.37,881.621 1893.25,883.391 1898.14,885.233 1903.03,887.151 1907.92,889.148 
  1912.81,891.228 1917.7,893.386 1922.58,895.619 1927.47,897.924 1932.36,900.299 1937.25,902.743 1942.14,905.25 1947.03,907.82 1951.91,910.453 1956.8,913.148 
  1961.69,915.912 1966.58,918.77 1971.47,921.719 1976.36,924.747 1981.24,927.848 1986.13,931.014 1991.02,934.24 1995.91,937.522 2000.8,940.86 2005.69,944.276 
  2010.57,947.778 2015.46,951.369 2020.35,955.051 2025.24,958.827 2030.13,962.697 2035.02,966.664 2039.9,970.723 2044.79,974.877 2049.68,979.128 2054.57,983.479 
  2059.46,987.933 2064.35,992.491 2069.23,997.119 2074.12,1001.81 2079.01,1006.56 2083.9,1011.41 2088.79,1016.34 2093.68,1021.37 2098.56,1026.5 2103.45,1031.69 
  2108.34,1036.88 2113.23,1042.11 2118.12,1047.4 2123.01,1052.75 2127.89,1058.19 2132.78,1063.7 2137.67,1069.25 2142.56,1074.65 2147.45,1079.95 2152.34,1085.2 
  2157.22,1090.43 2162.11,1095.65 2167,1100.85 2171.89,1106.02 2176.78,1111.19 2181.67,1116.36 2186.55,1121.51 2191.44,1126.64 2196.33,1131.75 2201.22,1136.85 
  2206.11,1141.94 2210.99,1147.02 2215.88,1152.08 2220.77,1157.11 2225.66,1162.13 2230.55,1167.15 2235.44,1172.2 2240.32,1177.28 2245.21,1182.37 2250.1,1187.47 
  2254.99,1192.55 2259.88,1197.6 2264.77,1202.65 2269.65,1207.71 2274.54,1212.81 2279.43,1217.93 2284.32,1223.08 2289.21,1228.25 2294.1,1233.43 2298.98,1238.6 
  2303.87,1243.75 2308.76,1248.88 2313.65,1254.01 2318.54,1259.17 2323.43,1264.42 2328.31,1269.74 2333.2,1275.13 2338.09,1280.61 2342.98,1286.17 2347.87,1291.82 
  2352.76,1297.54 
  "/>
<polyline clip-path="url(#clip742)" style="stroke:#e26f46; stroke-linecap:butt; stroke-linejoin:round; stroke-width:4; stroke-opacity:1; fill:none" points="
  397.432,531.409 402.32,531.838 407.208,532.3 412.097,532.8 416.985,533.338 421.873,533.916 426.762,534.528 431.65,535.231 436.538,535.928 441.427,536.674 
  446.315,537.473 451.203,538.327 456.092,539.239 460.98,540.206 465.868,541.238 470.757,542.386 475.645,543.631 480.533,544.948 485.421,546.339 490.31,547.805 
  495.198,549.319 500.086,550.93 504.975,552.691 509.863,554.621 514.751,556.706 519.64,558.895 524.528,561.158 529.416,563.551 534.305,566.102 539.193,568.795 
  544.081,571.612 548.969,574.555 553.858,577.626 558.746,580.824 563.634,584.145 568.523,587.591 573.411,591.168 578.299,594.882 583.188,598.732 588.076,602.717 
  592.964,606.832 597.853,611.082 602.741,615.458 607.629,619.913 612.518,624.411 617.406,628.942 622.294,633.621 627.182,638.215 632.071,642.487 636.959,646.413 
  641.847,650.175 646.736,653.928 651.624,657.634 656.512,661.289 661.401,664.886 666.289,668.431 671.177,672.014 676.066,675.614 680.954,679.182 685.842,682.685 
  690.73,686.103 695.619,689.432 700.507,692.666 705.395,695.749 710.284,698.71 715.172,701.579 720.06,704.36 724.949,707.048 729.837,709.642 734.725,712.134 
  739.614,714.522 744.502,716.804 749.39,718.983 754.279,721.058 759.167,723.035 764.055,724.92 768.943,726.717 773.832,728.429 778.72,730.057 783.608,731.601 
  788.497,733.063 793.385,734.445 798.273,735.746 803.162,736.965 808.05,738.106 812.938,739.171 817.827,740.167 822.715,741.096 827.603,741.96 832.491,742.764 
  837.38,743.517 842.268,744.223 847.156,744.886 852.045,745.509 856.933,746.093 861.821,746.637 866.71,747.138 871.598,747.598 876.486,748.021 881.375,748.414 
  886.263,748.78 891.151,749.125 896.039,749.453 900.928,749.769 905.816,750.076 910.704,750.38 915.593,750.682 920.481,750.98 925.369,751.274 930.258,751.563 
  935.146,751.85 940.034,752.135 944.923,752.42 949.811,752.706 954.699,752.994 959.588,753.285 964.476,753.58 969.364,753.879 974.252,754.184 979.141,754.511 
  984.029,754.86 988.917,755.227 993.806,755.61 998.694,756.01 1003.58,756.427 1008.47,756.867 1013.36,757.349 1018.25,757.874 1023.14,758.439 1028.02,759.045 
  1032.91,759.696 1037.8,760.388 1042.69,761.125 1047.58,761.911 1052.47,762.747 1057.35,763.632 1062.24,764.56 1067.13,765.54 1072.02,766.582 1076.91,767.693 
  1081.8,768.876 1086.68,770.126 1091.57,771.438 1096.46,772.814 1101.35,774.262 1106.24,775.787 1111.13,777.383 1116.01,779.04 1120.9,780.751 1125.79,782.53 
  1130.68,784.378 1135.57,786.295 1140.46,788.279 1145.34,790.334 1150.23,792.499 1155.12,794.769 1160.01,797.132 1164.9,799.577 1169.78,802.095 1174.67,804.683 
  1179.56,807.337 1184.45,810.077 1189.34,813.003 1194.23,816.069 1199.11,819.235 1204,822.484 1208.89,825.834 1213.78,829.287 1218.67,832.777 1223.56,836.263 
  1228.44,839.742 1233.33,843.245 1238.22,846.782 1243.11,850.357 1248,853.989 1252.89,857.684 1257.77,861.436 1262.66,865.221 1267.55,869.006 1272.44,872.795 
  1277.33,876.602 1282.22,880.434 1287.1,884.288 1291.99,888.154 1296.88,892.014 1301.77,895.855 1306.66,899.67 1311.55,903.451 1316.43,907.189 1321.32,910.878 
  1326.21,914.512 1331.1,918.086 1335.99,921.591 1340.88,925.024 1345.76,928.381 1350.65,931.659 1355.54,934.856 1360.43,937.967 1365.32,940.991 1370.21,943.925 
  1375.09,946.766 1379.98,949.514 1384.87,952.176 1389.76,954.779 1394.65,957.341 1399.54,959.874 1404.42,962.377 1409.31,964.844 1414.2,967.259 1419.09,969.639 
  1423.98,971.991 1428.87,974.308 1433.75,976.586 1438.64,978.82 1443.53,981.01 1448.42,983.156 1453.31,985.257 1458.2,987.305 1463.08,989.226 1467.97,991.048 
  1472.86,992.808 1477.75,994.528 1482.64,996.216 1487.53,997.865 1492.41,999.488 1497.3,1001.09 1502.19,1002.67 1507.08,1004.21 1511.97,1005.72 1516.85,1007.19 
  1521.74,1008.62 1526.63,1010.03 1531.52,1011.42 1536.41,1012.8 1541.3,1014.18 1546.18,1015.55 1551.07,1016.9 1555.96,1018.22 1560.85,1019.51 1565.74,1020.78 
  1570.63,1022.03 1575.51,1023.25 1580.4,1024.46 1585.29,1025.64 1590.18,1026.81 1595.07,1027.95 1599.96,1029.09 1604.84,1030.2 1609.73,1031.3 1614.62,1032.37 
  1619.51,1033.43 1624.4,1034.48 1629.29,1035.5 1634.17,1036.51 1639.06,1037.5 1643.95,1038.47 1648.84,1039.41 1653.73,1040.33 1658.62,1041.22 1663.5,1042.08 
  1668.39,1042.93 1673.28,1043.76 1678.17,1044.57 1683.06,1045.36 1687.95,1046.13 1692.83,1046.89 1697.72,1047.63 1702.61,1048.35 1707.5,1049.05 1712.39,1049.74 
  1717.28,1050.41 1722.16,1051.07 1727.05,1051.71 1731.94,1052.34 1736.83,1052.95 1741.72,1053.55 1746.61,1054.14 1751.49,1054.71 1756.38,1055.27 1761.27,1055.82 
  1766.16,1056.36 1771.05,1056.88 1775.94,1057.4 1780.82,1057.93 1785.71,1058.46 1790.6,1059 1795.49,1059.55 1800.38,1060.11 1805.27,1060.69 1810.15,1061.28 
  1815.04,1061.88 1819.93,1062.51 1824.82,1063.17 1829.71,1063.85 1834.6,1064.56 1839.48,1065.31 1844.37,1066.1 1849.26,1066.94 1854.15,1067.83 1859.04,1068.78 
  1863.92,1069.8 1868.81,1070.89 1873.7,1072.04 1878.59,1073.25 1883.48,1074.51 1888.37,1075.83 1893.25,1077.2 1898.14,1078.64 1903.03,1080.14 1907.92,1081.68 
  1912.81,1083.26 1917.7,1084.87 1922.58,1086.53 1927.47,1088.24 1932.36,1090.01 1937.25,1091.83 1942.14,1093.72 1947.03,1095.68 1951.91,1097.71 1956.8,1099.79 
  1961.69,1101.92 1966.58,1104.12 1971.47,1106.39 1976.36,1108.71 1981.24,1111.1 1986.13,1113.53 1991.02,1116 1995.91,1118.52 2000.8,1121.1 2005.69,1123.78 
  2010.57,1126.56 2015.46,1129.43 2020.35,1132.37 2025.24,1135.38 2030.13,1138.46 2035.02,1141.62 2039.9,1144.83 2044.79,1148.11 2049.68,1151.45 2054.57,1154.88 
  2059.46,1158.39 2064.35,1161.98 2069.23,1165.62 2074.12,1169.31 2079.01,1173.05 2083.9,1176.86 2088.79,1180.73 2093.68,1184.69 2098.56,1188.72 2103.45,1192.82 
  2108.34,1196.97 2113.23,1201.17 2118.12,1205.43 2123.01,1209.75 2127.89,1214.13 2132.78,1218.56 2137.67,1222.94 2142.56,1226.83 2147.45,1230.48 2152.34,1234.07 
  2157.22,1237.69 2162.11,1241.31 2167,1244.9 2171.89,1248.49 2176.78,1252.1 2181.67,1255.73 2186.55,1259.34 2191.44,1262.94 2196.33,1266.54 2201.22,1270.13 
  2206.11,1273.72 2210.99,1277.3 2215.88,1280.88 2220.77,1284.48 2225.66,1288.07 2230.55,1291.61 2235.44,1295.07 2240.32,1298.46 2245.21,1301.77 2250.1,1305.04 
  2254.99,1308.32 2259.88,1311.57 2264.77,1314.83 2269.65,1318.11 2274.54,1321.42 2279.43,1324.76 2284.32,1328.12 2289.21,1331.44 2294.1,1334.63 2298.98,1337.92 
  2303.87,1341.47 2308.76,1345.36 2313.65,1349.57 2318.54,1354.01 2323.43,1358.5 2328.31,1363.05 2333.2,1367.64 2338.09,1372.28 2342.98,1376.94 2347.87,1381.64 
  2352.76,1386.4 
  "/>
<path clip-path="url(#clip740)" d="
M1855 322.316 L2287.58 322.316 L2287.58 166.796 L1855 166.796  Z
  " fill="#ffffff" fill-rule="evenodd" fill-opacity="1"/>
<polyline clip-path="url(#clip740)" style="stroke:#000000; stroke-linecap:butt; stroke-linejoin:round; stroke-width:4; stroke-opacity:1; fill:none" points="
  1855,322.316 2287.58,322.316 2287.58,166.796 1855,166.796 1855,322.316 
  "/>
<polyline clip-path="url(#clip740)" style="stroke:#009af9; stroke-linecap:butt; stroke-linejoin:round; stroke-width:4; stroke-opacity:1; fill:none" points="
  1876.72,218.636 2007.08,218.636 
  "/>
<path clip-path="url(#clip740)" d="M2039.43 199.944 Q2036.33 205.268 2034.82 210.476 Q2033.32 215.684 2033.32 221.032 Q2033.32 226.379 2034.82 231.633 Q2036.35 236.865 2039.43 242.166 L2035.73 242.166 Q2032.25 236.726 2030.52 231.471 Q2028.8 226.217 2028.8 221.032 Q2028.8 215.87 2030.52 210.638 Q2032.23 205.407 2035.73 199.944 L2039.43 199.944 Z" fill="#000000" fill-rule="evenodd" fill-opacity="1" /><path clip-path="url(#clip740)" d="M2051.91 202.629 L2051.91 209.99 L2060.68 209.99 L2060.68 213.3 L2051.91 213.3 L2051.91 227.374 Q2051.91 230.545 2052.76 231.448 Q2053.64 232.351 2056.3 232.351 L2060.68 232.351 L2060.68 235.916 L2056.3 235.916 Q2051.37 235.916 2049.5 234.087 Q2047.62 232.235 2047.62 227.374 L2047.62 213.3 L2044.5 213.3 L2044.5 209.99 L2047.62 209.99 L2047.62 202.629 L2051.91 202.629 Z" fill="#000000" fill-rule="evenodd" fill-opacity="1" /><path clip-path="url(#clip740)" d="M2067.37 230.036 L2072.25 230.036 L2072.25 234.018 L2068.46 241.425 L2065.47 241.425 L2067.37 234.018 L2067.37 230.036 Z" fill="#000000" fill-rule="evenodd" fill-opacity="1" /><path clip-path="url(#clip740)" d="M2102.25 202.49 L2102.25 207.05 Q2099.59 205.777 2097.23 205.152 Q2094.87 204.527 2092.67 204.527 Q2088.85 204.527 2086.77 206.008 Q2084.71 207.49 2084.71 210.221 Q2084.71 212.513 2086.07 213.694 Q2087.46 214.851 2091.3 215.569 L2094.13 216.147 Q2099.36 217.143 2101.84 219.666 Q2104.34 222.166 2104.34 226.379 Q2104.34 231.402 2100.96 233.994 Q2097.6 236.587 2091.1 236.587 Q2088.64 236.587 2085.86 236.031 Q2083.11 235.476 2080.15 234.388 L2080.15 229.573 Q2082.99 231.17 2085.72 231.981 Q2088.46 232.791 2091.1 232.791 Q2095.1 232.791 2097.28 231.217 Q2099.45 229.643 2099.45 226.726 Q2099.45 224.18 2097.88 222.744 Q2096.33 221.309 2092.76 220.592 L2089.91 220.036 Q2084.68 218.995 2082.35 216.772 Q2080.01 214.55 2080.01 210.592 Q2080.01 206.008 2083.22 203.37 Q2086.47 200.731 2092.14 200.731 Q2094.57 200.731 2097.09 201.171 Q2099.61 201.61 2102.25 202.49 Z" fill="#000000" fill-rule="evenodd" fill-opacity="1" /><path clip-path="url(#clip740)" d="M2111.05 199.897 L2120.86 199.897 L2120.86 203.208 L2115.31 203.208 L2115.31 238.856 L2120.86 238.856 L2120.86 242.166 L2111.05 242.166 L2111.05 199.897 Z" fill="#000000" fill-rule="evenodd" fill-opacity="1" /><path clip-path="url(#clip740)" d="M2131.35 231.981 L2138.99 231.981 L2138.99 205.615 L2130.68 207.282 L2130.68 203.022 L2138.94 201.356 L2143.62 201.356 L2143.62 231.981 L2151.26 231.981 L2151.26 235.916 L2131.35 235.916 L2131.35 231.981 Z" fill="#000000" fill-rule="evenodd" fill-opacity="1" /><path clip-path="url(#clip740)" d="M2170.05 199.897 L2170.05 242.166 L2160.24 242.166 L2160.24 238.856 L2165.77 238.856 L2165.77 203.208 L2160.24 203.208 L2160.24 199.897 L2170.05 199.897 Z" fill="#000000" fill-rule="evenodd" fill-opacity="1" /><path clip-path="url(#clip740)" d="M2188.83 199.944 Q2185.72 205.268 2184.22 210.476 Q2182.72 215.684 2182.72 221.032 Q2182.72 226.379 2184.22 231.633 Q2185.75 236.865 2188.83 242.166 L2185.12 242.166 Q2181.65 236.726 2179.91 231.471 Q2178.2 226.217 2178.2 221.032 Q2178.2 215.87 2179.91 210.638 Q2181.63 205.407 2185.12 199.944 L2188.83 199.944 Z" fill="#000000" fill-rule="evenodd" fill-opacity="1" /><path clip-path="url(#clip740)" d="M2201.3 202.629 L2201.3 209.99 L2210.08 209.99 L2210.08 213.3 L2201.3 213.3 L2201.3 227.374 Q2201.3 230.545 2202.16 231.448 Q2203.04 232.351 2205.7 232.351 L2210.08 232.351 L2210.08 235.916 L2205.7 235.916 Q2200.77 235.916 2198.9 234.087 Q2197.02 232.235 2197.02 227.374 L2197.02 213.3 L2193.9 213.3 L2193.9 209.99 L2197.02 209.99 L2197.02 202.629 L2201.3 202.629 Z" fill="#000000" fill-rule="evenodd" fill-opacity="1" /><path clip-path="url(#clip740)" d="M2215.01 199.944 L2218.71 199.944 Q2222.18 205.407 2223.9 210.638 Q2225.63 215.87 2225.63 221.032 Q2225.63 226.217 2223.9 231.471 Q2222.18 236.726 2218.71 242.166 L2215.01 242.166 Q2218.09 236.865 2219.59 231.633 Q2221.12 226.379 2221.12 221.032 Q2221.12 215.684 2219.59 210.476 Q2218.09 205.268 2215.01 199.944 Z" fill="#000000" fill-rule="evenodd" fill-opacity="1" /><path clip-path="url(#clip740)" d="M2233.5 199.944 L2237.21 199.944 Q2240.68 205.407 2242.39 210.638 Q2244.13 215.87 2244.13 221.032 Q2244.13 226.217 2242.39 231.471 Q2240.68 236.726 2237.21 242.166 L2233.5 242.166 Q2236.58 236.865 2238.09 231.633 Q2239.61 226.379 2239.61 221.032 Q2239.61 215.684 2238.09 210.476 Q2236.58 205.268 2233.5 199.944 Z" fill="#000000" fill-rule="evenodd" fill-opacity="1" /><polyline clip-path="url(#clip740)" style="stroke:#e26f46; stroke-linecap:butt; stroke-linejoin:round; stroke-width:4; stroke-opacity:1; fill:none" points="
  1876.72,270.476 2007.08,270.476 
  "/>
<path clip-path="url(#clip740)" d="M2039.43 251.784 Q2036.33 257.108 2034.82 262.316 Q2033.32 267.524 2033.32 272.872 Q2033.32 278.219 2034.82 283.473 Q2036.35 288.705 2039.43 294.006 L2035.73 294.006 Q2032.25 288.566 2030.52 283.311 Q2028.8 278.057 2028.8 272.872 Q2028.8 267.71 2030.52 262.478 Q2032.23 257.247 2035.73 251.784 L2039.43 251.784 Z" fill="#000000" fill-rule="evenodd" fill-opacity="1" /><path clip-path="url(#clip740)" d="M2051.91 254.469 L2051.91 261.83 L2060.68 261.83 L2060.68 265.14 L2051.91 265.14 L2051.91 279.214 Q2051.91 282.385 2052.76 283.288 Q2053.64 284.191 2056.3 284.191 L2060.68 284.191 L2060.68 287.756 L2056.3 287.756 Q2051.37 287.756 2049.5 285.927 Q2047.62 284.075 2047.62 279.214 L2047.62 265.14 L2044.5 265.14 L2044.5 261.83 L2047.62 261.83 L2047.62 254.469 L2051.91 254.469 Z" fill="#000000" fill-rule="evenodd" fill-opacity="1" /><path clip-path="url(#clip740)" d="M2067.37 281.876 L2072.25 281.876 L2072.25 285.858 L2068.46 293.265 L2065.47 293.265 L2067.37 285.858 L2067.37 281.876 Z" fill="#000000" fill-rule="evenodd" fill-opacity="1" /><path clip-path="url(#clip740)" d="M2102.25 254.33 L2102.25 258.89 Q2099.59 257.617 2097.23 256.992 Q2094.87 256.367 2092.67 256.367 Q2088.85 256.367 2086.77 257.848 Q2084.71 259.33 2084.71 262.061 Q2084.71 264.353 2086.07 265.534 Q2087.46 266.691 2091.3 267.409 L2094.13 267.987 Q2099.36 268.983 2101.84 271.506 Q2104.34 274.006 2104.34 278.219 Q2104.34 283.242 2100.96 285.834 Q2097.6 288.427 2091.1 288.427 Q2088.64 288.427 2085.86 287.871 Q2083.11 287.316 2080.15 286.228 L2080.15 281.413 Q2082.99 283.01 2085.72 283.821 Q2088.46 284.631 2091.1 284.631 Q2095.1 284.631 2097.28 283.057 Q2099.45 281.483 2099.45 278.566 Q2099.45 276.02 2097.88 274.584 Q2096.33 273.149 2092.76 272.432 L2089.91 271.876 Q2084.68 270.835 2082.35 268.612 Q2080.01 266.39 2080.01 262.432 Q2080.01 257.848 2083.22 255.21 Q2086.47 252.571 2092.14 252.571 Q2094.57 252.571 2097.09 253.011 Q2099.61 253.45 2102.25 254.33 Z" fill="#000000" fill-rule="evenodd" fill-opacity="1" /><path clip-path="url(#clip740)" d="M2111.05 251.737 L2120.86 251.737 L2120.86 255.048 L2115.31 255.048 L2115.31 290.696 L2120.86 290.696 L2120.86 294.006 L2111.05 294.006 L2111.05 251.737 Z" fill="#000000" fill-rule="evenodd" fill-opacity="1" /><path clip-path="url(#clip740)" d="M2134.57 283.821 L2150.89 283.821 L2150.89 287.756 L2128.94 287.756 L2128.94 283.821 Q2131.6 281.066 2136.19 276.436 Q2140.79 271.784 2141.97 270.441 Q2144.22 267.918 2145.1 266.182 Q2146 264.423 2146 262.733 Q2146 259.978 2144.06 258.242 Q2142.14 256.506 2139.03 256.506 Q2136.84 256.506 2134.38 257.27 Q2131.95 258.034 2129.17 259.585 L2129.17 254.862 Q2132 253.728 2134.45 253.149 Q2136.91 252.571 2138.94 252.571 Q2144.31 252.571 2147.51 255.256 Q2150.7 257.941 2150.7 262.432 Q2150.7 264.561 2149.89 266.483 Q2149.1 268.381 2147 270.973 Q2146.42 271.645 2143.32 274.862 Q2140.22 278.057 2134.57 283.821 Z" fill="#000000" fill-rule="evenodd" fill-opacity="1" /><path clip-path="url(#clip740)" d="M2170.05 251.737 L2170.05 294.006 L2160.24 294.006 L2160.24 290.696 L2165.77 290.696 L2165.77 255.048 L2160.24 255.048 L2160.24 251.737 L2170.05 251.737 Z" fill="#000000" fill-rule="evenodd" fill-opacity="1" /><path clip-path="url(#clip740)" d="M2188.83 251.784 Q2185.72 257.108 2184.22 262.316 Q2182.72 267.524 2182.72 272.872 Q2182.72 278.219 2184.22 283.473 Q2185.75 288.705 2188.83 294.006 L2185.12 294.006 Q2181.65 288.566 2179.91 283.311 Q2178.2 278.057 2178.2 272.872 Q2178.2 267.71 2179.91 262.478 Q2181.63 257.247 2185.12 251.784 L2188.83 251.784 Z" fill="#000000" fill-rule="evenodd" fill-opacity="1" /><path clip-path="url(#clip740)" d="M2201.3 254.469 L2201.3 261.83 L2210.08 261.83 L2210.08 265.14 L2201.3 265.14 L2201.3 279.214 Q2201.3 282.385 2202.16 283.288 Q2203.04 284.191 2205.7 284.191 L2210.08 284.191 L2210.08 287.756 L2205.7 287.756 Q2200.77 287.756 2198.9 285.927 Q2197.02 284.075 2197.02 279.214 L2197.02 265.14 L2193.9 265.14 L2193.9 261.83 L2197.02 261.83 L2197.02 254.469 L2201.3 254.469 Z" fill="#000000" fill-rule="evenodd" fill-opacity="1" /><path clip-path="url(#clip740)" d="M2215.01 251.784 L2218.71 251.784 Q2222.18 257.247 2223.9 262.478 Q2225.63 267.71 2225.63 272.872 Q2225.63 278.057 2223.9 283.311 Q2222.18 288.566 2218.71 294.006 L2215.01 294.006 Q2218.09 288.705 2219.59 283.473 Q2221.12 278.219 2221.12 272.872 Q2221.12 267.524 2219.59 262.316 Q2218.09 257.108 2215.01 251.784 Z" fill="#000000" fill-rule="evenodd" fill-opacity="1" /><path clip-path="url(#clip740)" d="M2233.5 251.784 L2237.21 251.784 Q2240.68 257.247 2242.39 262.478 Q2244.13 267.71 2244.13 272.872 Q2244.13 278.057 2242.39 283.311 Q2240.68 288.566 2237.21 294.006 L2233.5 294.006 Q2236.58 288.705 2238.09 283.473 Q2239.61 278.219 2239.61 272.872 Q2239.61 267.524 2238.09 262.316 Q2236.58 257.108 2233.5 251.784 Z" fill="#000000" fill-rule="evenodd" fill-opacity="1" /></svg>
